<svg xmlns="http://www.w3.org/2000/svg" width="36.5" height="36.5" viewBox="0 0 36.5 36.5">
  <g id="aparteman" transform="translate(0.75 0.75)">
    <g id="Group_1188" data-name="Group 1188" transform="translate(2.438 2.438)">
      <g id="Group_1108" data-name="Group 1108">
        <g id="Group_834" data-name="Group 834">
          <g id="Group_827" data-name="Group 827">
            <g id="Group_826" data-name="Group 826">
              <path id="Stroke_4" data-name="Stroke 4" d="M.5,15.5C.5,3.819,3.819.5,15.5.5s15,3.319,15,15-3.319,15-15,15S.5,27.181.5,15.5Z" transform="translate(-0.5 -0.5)" fill="#2d2c2c"/>
            </g>
          </g>
        </g>
      </g>
      <g id="Group_1112" data-name="Group 1112" transform="translate(7.003 6.493)">
        <path id="Path_88" data-name="Path 88" d="M281.608,339.652l-.42-2.287,2.944-1.276v3.71h-2.5Zm-.5-2.734-.471-2.551,3.5-1.517V335.6Zm-.552-3-.451-2.462,4.029-1.75v2.66Zm-.533-2.909-.521-2.835-.023-.125.109-.066,4.282-2.469.264-.152v3.862Zm11.076-1.649,4.364,1.03-.175,1.124-4.64,2.3Zm4.107,2.68-.291,1.894-4.5,2.162.179-1.774Zm-.369,2.415-.3,1.964-4.352,1.96.183-1.778Zm-.385,2.481-.439,2.862h-3.975l.093-.914Zm-9.9-13.1-.012,6.059,6.234-.642.268-2.687Zm-.012,6.495,0,1.571,6.032-.556.163-1.653Zm-.008,2.007v1.633l5.818-.439.171-1.746Zm0,2.073-.012,5.41h5.208l.579-5.842Z" transform="translate(-279.477 -323.835)" fill="#f5f6fa" fill-rule="evenodd"/>
      </g>
    </g>
    <path id="Stroke_4-2" data-name="Stroke 4" d="M0,17.5C0,4.376,4.376,0,17.5,0S35,4.376,35,17.5,30.624,35,17.5,35,0,30.624,0,17.5Z" transform="translate(0 0)" fill="none" stroke="#fcc155" stroke-linecap="round" stroke-linejoin="round" stroke-miterlimit="10" stroke-width="1.5"/>
  </g>
</svg>
