<svg id="Group_808" data-name="Group 808" xmlns="http://www.w3.org/2000/svg" width="26" height="26" viewBox="0 0 26 26">
  <path id="Stroke_3" data-name="Stroke 3" d="M0,13C0,3.251,3.251,0,13,0S26,3.251,26,13,22.749,26,13,26,0,22.749,0,13Z" transform="translate(0 0)" fill="#474546"/>
  <path id="Path_88" data-name="Path 88" d="M281.591,339.522l-.417-2.268,2.92-1.265v3.68h-2.476Zm-.5-2.712-.467-2.53,3.467-1.5v2.73Zm-.548-2.974L280.1,331.4l4-1.736V332.3Zm-.528-2.885-.517-2.812-.023-.124.108-.066,4.247-2.449.262-.15v3.83ZM291,329.316l4.328,1.022-.174,1.115-4.6,2.28Zm4.073,2.657-.289,1.878L290.323,336l.177-1.759Zm-.366,2.4-.3,1.948-4.316,1.944.181-1.763Zm-.382,2.461-.436,2.839h-3.942l.093-.906Zm-9.816-12.995-.011,6.009,6.183-.637.266-2.665Zm-.011,6.441,0,1.558,5.982-.552.162-1.639Zm-.008,1.99v1.62l5.77-.436.17-1.732Zm0,2.056-.012,5.365h5.165l.575-5.793Z" transform="translate(-274.445 -319.135)" fill="#fcc155" fill-rule="evenodd"/>
</svg>
