<svg id="Group_808" data-name="Group 808" xmlns="http://www.w3.org/2000/svg" width="26" height="26" viewBox="0 0 26 26">
  <path id="Stroke_3" data-name="Stroke 3" d="M0,13C0,3.251,3.251,0,13,0S26,3.251,26,13,22.749,26,13,26,0,22.749,0,13Z" transform="translate(0 0)" fill="#474546"/>
  <g id="Group_796" data-name="Group 796" transform="translate(2.354 8.213)">
    <g id="Group_806" data-name="Group 806" transform="translate(0 0)">
      <g id="Group_798" data-name="Group 798">
        <g id="Group_796-2" data-name="Group 796">
          <path id="Path_89" data-name="Path 89" d="M121.6,238.546a20.462,20.462,0,0,0-.115-2.229l-.025-.234.2-.118.289-.171c-.507-.666-1.267-1.245-1.464-1.738-.186-.465.128-.291.377-.254.15.022.143-.193.143-.193a20.573,20.573,0,0,0-6.421-1.14,9.7,9.7,0,0,0-7.394,2.86s-.192.217-3.665.413a2.155,2.155,0,0,0-2.227,1.641,2.3,2.3,0,0,1,.308-.7h1.28s.425.18-.2.862a5.66,5.66,0,0,1-1.442.1,4,4,0,0,0-.045.816l1.6.213v.375h.81a1.92,1.92,0,0,1,.088-.209,2.484,2.484,0,0,1,4.734,1.019h7.19a2.385,2.385,0,0,1,.233-1.019,2.484,2.484,0,0,1,4.681.535l.543-.691.628.129-.11-.085Zm-7.043-2.3a.1.1,0,0,1-.1.1l-1.262,0a.1.1,0,0,1,0-.2l1.266-.061C114.511,236.09,114.6,236.126,114.553,236.248Zm.686-.623-6.085.012a.4.4,0,0,1-.047.083.546.546,0,0,1-.415.171h-.14a.754.754,0,0,1-.69-.253h-.007s0,0,0-.007-.013-.017-.019-.028c-.077-.152.116-.655.118-.66a.977.977,0,0,1,.513-.611.57.57,0,0,1,.2-.036.427.427,0,0,1,.342.159,8.427,8.427,0,0,1,3.274-1.273,25.6,25.6,0,0,1,3.008-.047Zm4.832.623a.1.1,0,0,1-.1.1l-1.262,0a.1.1,0,0,1,0-.2l1.266-.061C120.029,236.09,120.122,236.126,120.071,236.248Zm-4.453-.61v-2.5s3.272.255,3.943.738c0,0,.081,1.6.671,1.758Z" transform="translate(-101.194 -232.448)" fill="#fcc155"/>
        </g>
        <g id="Group_797" data-name="Group 797" transform="translate(0.052 4.973)">
          <path id="Path_90" data-name="Path 90" d="M101.39,247.059c-.016.067-.031.134-.042.2C101.359,247.193,101.374,247.126,101.39,247.059Z" transform="translate(-101.348 -247.059)" fill="#fcc155"/>
        </g>
      </g>
      <g id="Group_799" data-name="Group 799" transform="translate(20.648 3.639)">
        <path id="Path_91" data-name="Path 91" d="M162.283,243.324q.113.315.217.636-.09.933-.261,1.846c-.089-.07-.178-.139-.268-.208a20.815,20.815,0,0,0-.117-2.268c.108-.063.216-.127.323-.192Z" transform="translate(-161.854 -243.138)" fill="#fcc155"/>
      </g>
      <g id="Group_800" data-name="Group 800" transform="translate(0.034 6.381)">
        <path id="Path_92" data-name="Path 92" d="M101.294,251.2a5.646,5.646,0,0,0,.213,1.028h2.064v-.447H102.5v-.42Z" transform="translate(-101.294 -251.196)" fill="#fcc155"/>
      </g>
      <g id="Group_801" data-name="Group 801" transform="translate(14.78 5.313)">
        <path id="Path_93" data-name="Path 93" d="M146.745,248.056a2.13,2.13,0,1,0,2.129,2.13A2.13,2.13,0,0,0,146.745,248.056Zm0,3.372a1.242,1.242,0,1,1,1.242-1.243A1.244,1.244,0,0,1,146.745,251.428Z" transform="translate(-144.616 -248.056)" fill="#fcc155"/>
      </g>
      <g id="Group_802" data-name="Group 802" transform="translate(16.554 7.087)">
        <path id="Path_94" data-name="Path 94" d="M150.183,253.98a.355.355,0,1,1,.355-.355A.356.356,0,0,1,150.183,253.98Z" transform="translate(-149.828 -253.27)" fill="#fcc155"/>
      </g>
      <g id="Group_803" data-name="Group 803" transform="translate(2.623 5.313)">
        <path id="Path_95" data-name="Path 95" d="M111.028,248.056a2.13,2.13,0,1,0,2.129,2.13A2.13,2.13,0,0,0,111.028,248.056Zm0,3.372a1.242,1.242,0,1,1,1.243-1.243A1.244,1.244,0,0,1,111.028,251.428Z" transform="translate(-108.899 -248.056)" fill="#fcc155"/>
      </g>
      <g id="Group_804" data-name="Group 804" transform="translate(4.397 7.087)">
        <path id="Path_96" data-name="Path 96" d="M114.468,253.98a.355.355,0,1,1,.356-.355A.355.355,0,0,1,114.468,253.98Z" transform="translate(-114.113 -253.27)" fill="#fcc155"/>
      </g>
      <g id="Group_805" data-name="Group 805" transform="translate(19.421 6.635)">
        <path id="Path_97" data-name="Path 97" d="M159.75,252.124l-.892-.182-.608.774h1.357S159.67,252.478,159.75,252.124Z" transform="translate(-158.249 -251.942)" fill="#fcc155"/>
      </g>
    </g>
    <g id="Group_807" data-name="Group 807" transform="translate(6.806 2.029)">
      <path id="Path_98" data-name="Path 98" d="M122.207,239.38l-.108-.794c-.019-.143-.193-.219-.378-.151-.4.147-.551.98-.532,1.018.1.2.375.191.691.189C122.081,239.642,122.227,239.523,122.207,239.38Z" transform="translate(-121.188 -238.41)" fill="#fcc155"/>
    </g>
  </g>
</svg>
