<svg xmlns="http://www.w3.org/2000/svg" width="26.025" height="26.025" viewBox="0 0 26.025 26.025">
  <g id="Group_808" data-name="Group 808" transform="translate(-291.949 -12.102)">
    <path id="Stroke_3" data-name="Stroke 3" d="M0,13.013C0,3.254,3.254,0,13.013,0S26.025,3.254,26.025,13.013,22.772,26.025,13.013,26.025,0,22.772,0,13.013Z" transform="translate(291.949 12.102)" fill="#474546"/>
    <g id="Group_783" data-name="Group 783" transform="translate(297.858 19.809)">
      <g id="Group_736" data-name="Group 736">
        <rect id="Rectangle_167" data-name="Rectangle 167" width="11.916" height="8.25" rx="2.905" transform="translate(1.146 0)" fill="#474546" stroke="#fcc155" stroke-miterlimit="10" stroke-width="1.2"/>
        <rect id="Rectangle_174" data-name="Rectangle 174" width="11.916" height="8.25" rx="2.905" transform="translate(1.146 0)" fill="none"/>
        <rect id="Rectangle_168" data-name="Rectangle 168" width="14.208" height="1.192" rx="0.596" transform="translate(0 9.42)" fill="#fcc155"/>
        <path id="Path_38" data-name="Path 38" d="M733.05,543.272a.325.325,0,1,1-.325-.325A.325.325,0,0,1,733.05,543.272Z" transform="translate(-719.749 -533.256)" fill="#474546"/>
      </g>
    </g>
  </g>
</svg>
