<svg id="Group_808" data-name="Group 808" xmlns="http://www.w3.org/2000/svg" width="26" height="26" viewBox="0 0 26 26">
  <path id="Stroke_3" data-name="Stroke 3" d="M0,13C0,3.251,3.251,0,13,0S26,3.251,26,13,22.749,26,13,26,0,22.749,0,13Z" transform="translate(0 0)" fill="#474546"/>
  <g id="Group_811" data-name="Group 811" transform="translate(5.664 5.869)">
    <path id="Path_47" data-name="Path 47" d="M81.493,7.58v.007a2.8,2.8,0,0,1,.4,1.447v.56a11.08,11.08,0,0,1,3.815-.638,11.312,11.312,0,0,1,3.866.636l0-.559a3.057,3.057,0,0,1,.412-1.581l.594-3.715a3.033,3.033,0,0,0-.748-2.567A3.763,3.763,0,0,0,87.036,0h-2.6a3.756,3.756,0,0,0-2.8,1.172,3.036,3.036,0,0,0-.747,2.567Z" transform="translate(-78.37 0)" fill="#fcc155"/>
    <path id="Path_48" data-name="Path 48" d="M18.987,224a1.873,1.873,0,0,0-1.739,2.068v.616a.663.663,0,0,1-.3.56.59.59,0,0,1-.535.049,10.413,10.413,0,0,0-3.739-.639,10.254,10.254,0,0,0-3.683.639.59.59,0,0,1-.535-.048.665.665,0,0,1-.3-.56v-.616A1.971,1.971,0,0,0,6.252,224c-.59,0-.912.663-.912,1a1.2,1.2,0,0,0,.679,1.028c.038.016.08.033.125.048.34.129.971.368.971,1.055v1.333c0,.5.113,1.592,1.056,1.8a.3.3,0,0,0-.008.036v.663a.341.341,0,0,0,.349.332h.349a.341.341,0,0,0,.349-.332V230.3H16.2v.663a.341.341,0,0,0,.349.332H16.9a.341.341,0,0,0,.349-.332V230.3c0-.009,0-.017-.006-.026.861-.156,1.054-1.047,1.054-1.808v-1.333c0-.688.629-.927.968-1.056l.123-.048a1.061,1.061,0,0,0-.4-2.031Z" transform="translate(-5.34 -217.034)" fill="#fcc155"/>
  </g>
</svg>
