<svg xmlns="http://www.w3.org/2000/svg" width="26" height="26" viewBox="0 0 26 26">
  <g id="Group_808" data-name="Group 808" transform="translate(-291.949 -12.102)">
    <path id="Stroke_3" data-name="Stroke 3" d="M0,13C0,3.251,3.251,0,13,0S26,3.251,26,13,22.749,26,13,26,0,22.749,0,13Z" transform="translate(291.949 12.102)" fill="#474546"/>
    <g id="wrench_1_" data-name="wrench (1)" transform="translate(298.957 19.228)">
      <g id="Group_744" data-name="Group 744" transform="translate(0 0)">
        <g id="Group_743" data-name="Group 743" transform="translate(0)">
          <path id="Path_49" data-name="Path 49" d="M11.964,1.81a.351.351,0,0,0-.6-.2l-.5.5a.719.719,0,0,1-.993,0,.7.7,0,0,1,0-.993l.5-.5a.351.351,0,0,0-.2-.6A2.107,2.107,0,0,0,7.843,2.653L2.652,7.844h0A2.107,2.107,0,0,0,.021,10.177a.351.351,0,0,0,.6.2l.5-.5a.719.719,0,0,1,.993,0,.7.7,0,0,1,0,.993l-.5.5a.351.351,0,0,0,.2.6A2.107,2.107,0,0,0,4.142,9.334L9.333,4.143h0A2.107,2.107,0,0,0,11.964,1.81Z" transform="translate(0 -0.002)" fill="#fcc155"/>
        </g>
      </g>
      <g id="Group_746" data-name="Group 746" transform="translate(6.489 6.488)">
        <g id="Group_745" data-name="Group 745">
          <path id="Path_50" data-name="Path 50" d="M280.6,278.491a2.073,2.073,0,0,0-.538.078l-1.361-1.361-1.49,1.49,1.361,1.361a2.077,2.077,0,0,0-.078.539,2.107,2.107,0,1,0,2.107-2.107Zm1.152,2.036-.209.779a.352.352,0,0,1-.248.248l-.779.209a.351.351,0,0,1-.339-.091l-.57-.57a.351.351,0,0,1-.091-.339l.209-.779a.352.352,0,0,1,.248-.248l.779-.209a.349.349,0,0,1,.339.091l.57.57A.351.351,0,0,1,281.752,280.528Z" transform="translate(-277.211 -277.209)" fill="#fcc155"/>
        </g>
      </g>
      <g id="Group_748" data-name="Group 748" transform="translate(0 0)">
        <g id="Group_747" data-name="Group 747" transform="translate(0)">
          <path id="Path_51" data-name="Path 51" d="M4.141,2.632A2.115,2.115,0,0,0,3.6.6,2.158,2.158,0,0,0,.617.6,2.107,2.107,0,0,0,2.652,4.121L4.007,5.5,5.5,4.006Zm-.918-.651-.209.779a.352.352,0,0,1-.248.248l-.779.209a.351.351,0,0,1-.339-.091l-.57-.57a.351.351,0,0,1-.091-.339L1.2,1.438a.352.352,0,0,1,.248-.248L2.223.981a.35.35,0,0,1,.339.091l.57.57A.351.351,0,0,1,3.223,1.981Z" transform="translate(-0.001 0)" fill="#fcc155"/>
        </g>
      </g>
    </g>
  </g>
</svg>
