<svg id="Group_808" data-name="Group 808" xmlns="http://www.w3.org/2000/svg" width="26" height="26" viewBox="0 0 26 26">
  <path id="Stroke_3" data-name="Stroke 3" d="M0,13C0,3.251,3.251,0,13,0S26,3.251,26,13,22.749,26,13,26,0,22.749,0,13Z" transform="translate(0 0)" fill="#474546"/>
  <path id="XMLID_1435_" d="M14.865,73.858,8.3,70.208v-.272a.858.858,0,0,1,.48-.752A1.876,1.876,0,0,0,9.82,67.441a1.946,1.946,0,0,0-1.9-1.824,2.008,2.008,0,0,0-1.448.529,1.847,1.847,0,0,0-.606,1.368.46.46,0,0,0,.919,0,.989.989,0,0,1,.324-.732,1.074,1.074,0,0,1,.775-.283,1.041,1.041,0,0,1,1.016.975,1,1,0,0,1-.555.934,1.734,1.734,0,0,0-.962,1.528v.272L.824,73.858A1.58,1.58,0,0,0,0,75.23a1.622,1.622,0,0,0,1.652,1.586H14.037a1.622,1.622,0,0,0,1.652-1.586A1.58,1.58,0,0,0,14.865,73.858Zm-.828,2.076H1.652a.719.719,0,0,1-.733-.7.7.7,0,0,1,.365-.609l6.56-3.649,6.56,3.649a.7.7,0,0,1,.365.609A.719.719,0,0,1,14.037,75.934Z" transform="translate(5.158 -58.59)" fill="#fcc155"/>
</svg>
