<svg xmlns="http://www.w3.org/2000/svg" width="26" height="26" viewBox="0 0 26 26">
  <g id="Group_808" data-name="Group 808" transform="translate(-291.949 -12.102)">
    <path id="Stroke_3" data-name="Stroke 3" d="M0,13C0,3.251,3.251,0,13,0S26,3.251,26,13,22.749,26,13,26,0,22.749,0,13Z" transform="translate(291.949 12.102)" fill="#474546"/>
    <path id="wheel" d="M12,5.3l-.673-.068a5.186,5.186,0,0,0-.182-.683l.548-.394a.518.518,0,0,0,.146-.681l-.414-.717a.518.518,0,0,0-.663-.214l-.614.277a5.2,5.2,0,0,0-.5-.5L9.92,1.7a.519.519,0,0,0-.214-.663L8.989.628a.518.518,0,0,0-.681.146l-.394.548a5.107,5.107,0,0,0-.683-.182L7.163.468A.518.518,0,0,0,6.645,0H5.817A.517.517,0,0,0,5.3.467l-.068.673a5.186,5.186,0,0,0-.683.182L4.155.774A.518.518,0,0,0,3.474.628l-.717.414a.518.518,0,0,0-.214.664l.277.614a5.083,5.083,0,0,0-.5.5L1.7,2.543a.518.518,0,0,0-.663.214l-.414.717a.518.518,0,0,0,.146.681l.548.394a5.107,5.107,0,0,0-.182.683L.468,5.3A.518.518,0,0,0,0,5.818v.828a.517.517,0,0,0,.467.517l.673.068a5.186,5.186,0,0,0,.182.683l-.548.394a.518.518,0,0,0-.146.681l.414.717A.517.517,0,0,0,1.7,9.92l.614-.277a5.2,5.2,0,0,0,.5.5l-.277.614a.519.519,0,0,0,.214.663l.717.414a.517.517,0,0,0,.681-.146l.394-.548a5.107,5.107,0,0,0,.683.182L5.3,12a.519.519,0,0,0,.518.467h.828A.517.517,0,0,0,7.163,12l.068-.673a5.186,5.186,0,0,0,.683-.182l.394.548a.518.518,0,0,0,.681.146l.717-.414a.518.518,0,0,0,.214-.663l-.277-.614a5.2,5.2,0,0,0,.5-.5l.614.277a.518.518,0,0,0,.663-.214l.414-.717a.518.518,0,0,0-.146-.681l-.548-.394a5.107,5.107,0,0,0,.182-.683L12,7.163a.519.519,0,0,0,.467-.518V5.817A.517.517,0,0,0,12,5.3ZM6.232,2.6A3.638,3.638,0,0,1,9.825,5.712H7.42a1.3,1.3,0,0,0-1.188-.779,1.285,1.285,0,0,0-.142.015L4.884,2.858A3.613,3.613,0,0,1,6.232,2.6ZM2.6,6.232A3.629,3.629,0,0,1,3.985,3.379l1.2,2.085A1.276,1.276,0,0,0,5.189,7l-1.2,2.085A3.628,3.628,0,0,1,2.6,6.232ZM6.232,9.867A3.6,3.6,0,0,1,4.884,9.6L6.09,7.515a1.263,1.263,0,0,0,.141.015A1.3,1.3,0,0,0,7.42,6.751H9.825A3.638,3.638,0,0,1,6.232,9.867Z" transform="translate(298.796 18.792)" fill="#fcc155"/>
  </g>
</svg>
