<svg id="Group_808" data-name="Group 808" xmlns="http://www.w3.org/2000/svg" width="26" height="26" viewBox="0 0 26 26">
  <path id="Stroke_3" data-name="Stroke 3" d="M0,13C0,3.251,3.251,0,13,0S26,3.251,26,13,22.749,26,13,26,0,22.749,0,13Z" transform="translate(0 0)" fill="#474546"/>
  <g id="Group_812" data-name="Group 812" transform="translate(7.832 7.121)">
    <path id="Path_54" data-name="Path 54" d="M10.336,69.43a.471.471,0,0,0-.607-.452,15.849,15.849,0,0,1-9.123,0A.471.471,0,0,0,0,69.43v6.118a5.168,5.168,0,0,0,10.336,0ZM2.144,73.857a.471.471,0,0,1,.009-.476,1.354,1.354,0,0,1,1.164-.654h0a1.354,1.354,0,0,1,1.164.654.471.471,0,0,1-.4.717H2.555A.471.471,0,0,1,2.144,73.857ZM7.723,76.8a3.56,3.56,0,0,1-5.109,0,.471.471,0,0,1,.677-.657,2.617,2.617,0,0,0,3.756,0,.471.471,0,0,1,.677.657Zm.47-2.945a.472.472,0,0,1-.411.241H6.258a.471.471,0,0,1-.4-.717,1.354,1.354,0,0,1,1.164-.654h0a1.354,1.354,0,0,1,1.164.654A.471.471,0,0,1,8.193,73.857Z" transform="translate(0 -68.958)" fill="#fcc155"/>
  </g>
</svg>
