<svg xmlns="http://www.w3.org/2000/svg" width="26" height="26" viewBox="0 0 26 26">
  <g id="Group_808" data-name="Group 808" transform="translate(-291.949 -12.102)">
    <path id="Stroke_3" data-name="Stroke 3" d="M0,13C0,3.251,3.251,0,13,0S26,3.251,26,13,22.749,26,13,26,0,22.749,0,13Z" transform="translate(291.949 12.102)" fill="#474546"/>
    <g id="world" transform="translate(297.311 17.732)">
      <path id="Path_55" data-name="Path 55" d="M51.883,71.926A4.228,4.228,0,0,1,49.1,70.557c-.41-.366-.763-.681-1.048-.682h-.327l.019-.327a5.309,5.309,0,0,1,5.3-5.011q.165,0,.327.009h.111l.081.075a1.685,1.685,0,0,1,.053,2.648,11.063,11.063,0,0,1-1.15,1.075,4.9,4.9,0,0,0-1.224,1.284.5.5,0,0,0-.008.5,1.575,1.575,0,0,0,.756.551,3.5,3.5,0,0,1,.852.481h.042l.188.243-.1.385h-.185a2.376,2.376,0,0,1-.8.131Z" transform="translate(-45.865 -62.292)" fill="#fcc155"/>
      <path id="Path_56" data-name="Path 56" d="M53.121,74a5.309,5.309,0,0,1-5.306-5.122l-.011-.332.332.009c.36.009.712.324,1.157.721A4.02,4.02,0,0,0,51.957,70.6h.093a2.1,2.1,0,0,0,.793-.14c.059-.031.093-.064.1-.1s.012-.05-.051-.128a2.575,2.575,0,0,0-.9-.547,1.8,1.8,0,0,1-.751-.539.713.713,0,0,1-.072-.737,4.743,4.743,0,0,1,1.268-1.344,11.026,11.026,0,0,0,1.126-1.053c.692-.788.779-1.4.312-2.025l-.489-.654.8.156a5.277,5.277,0,0,1,2.145.966l.173.131L56.1,65.93l.43.43.631-1.145.287.4a5.272,5.272,0,0,1,.857,1.924l.051.235-.213.107c-.829.421-.857.659-.91,1.09-.058.467-.136,1.125-1.525,2.284a4,4,0,0,0-.966,1.064,1.755,1.755,0,0,0-.2,1.184l.048.3-.287.065A5.333,5.333,0,0,1,53.121,74Z" transform="translate(-45.942 -61.138)" fill="none"/>
      <path id="Path_57" data-name="Path 57" d="M249.449,16.3l.263-.871-1.115-1.05-1.231,2.22-.665-.665.79-2.6-.947-.893a.637.637,0,0,1-.164-.717.8.8,0,0,1,.422-.422h.016a.637.637,0,0,1,.227-.042.647.647,0,0,1,.467.212l.891.946,2.6-.787.665.665-2.22,1.226,1.05,1.114.872-.263.541.541-1.058.587-.188.093-.086.174-.6,1.072Z" transform="translate(-236.739 -11.087)" fill="#fcc155"/>
      <path id="Path_58" data-name="Path 58" d="M215.518,178.286a1.927,1.927,0,0,1,.227-1.246,4.16,4.16,0,0,1,1.019-1.115c1.337-1.115,1.4-1.7,1.464-2.173.051-.425.143-.755.869-1.154l.4-.221.05.458a5.375,5.375,0,0,1,.039.651,5.275,5.275,0,0,1-1.558,3.754,5.332,5.332,0,0,1-2.1,1.293l-.354.115Z" transform="translate(-207.103 -165.932)" fill="#fcc155"/>
      <g id="Group_767" data-name="Group 767" transform="translate(0 0)">
        <path id="Path_59" data-name="Path 59" d="M52.557,321.847a.234.234,0,0,0,0,.33,5.952,5.952,0,0,0,.486.441.234.234,0,1,0,.331-.33l-.019-.017-.016-.013c-.156-.129-.312-.268-.455-.411A.233.233,0,0,0,52.557,321.847Z" transform="translate(-50.445 -309.518)" fill="#fcc155"/>
        <path id="Path_60" data-name="Path 60" d="M1.427,157.028h.03a.234.234,0,0,0,.232-.206c.025-.2.059-.407.1-.6a.234.234,0,1,0-.45-.1c-.047.213-.083.43-.109.646A.234.234,0,0,0,1.427,157.028Z" transform="translate(-1.182 -150.095)" fill="#fcc155"/>
        <path id="Path_61" data-name="Path 61" d="M25.265,286.556a.234.234,0,0,0-.081.32h0c.112.187.234.371.363.547a.234.234,0,0,0,.377-.276c-.12-.165-.234-.336-.338-.511a.234.234,0,0,0-.32-.081Z" transform="translate(-24.171 -275.633)" fill="#fcc155"/>
        <path id="Path_62" data-name="Path 62" d="M7.161,245.615a.234.234,0,0,0-.156.29c.062.209.134.417.215.623a.237.237,0,0,0,.441-.176h0c-.075-.188-.143-.383-.2-.579a.234.234,0,0,0-.29-.156Z" transform="translate(-6.723 -236.311)" fill="#fcc155"/>
        <path id="Path_63" data-name="Path 63" d="M12.469,115.782a.234.234,0,0,0,.3-.13h0a5.6,5.6,0,0,1,.251-.559.234.234,0,1,0-.417-.21h0c-.1.195-.188.4-.268.6A.234.234,0,0,0,12.469,115.782Z" transform="translate(-11.843 -110.553)" fill="#fcc155"/>
        <path id="Path_64" data-name="Path 64" d="M.276,202.61H.315a.234.234,0,0,0,.2-.261h0c-.025-.2-.042-.408-.05-.611a.234.234,0,0,0-.467.017,5.109,5.109,0,0,0,.053.654A.234.234,0,0,0,.276,202.61Z" transform="translate(0 -193.933)" fill="#fcc155"/>
        <path id="Path_65" data-name="Path 65" d="M143.505,17.9h.045c.2-.039.4-.069.608-.089a.235.235,0,0,0-.016-.47l-.03,0c-.216.022-.435.053-.65.1a.235.235,0,0,0,.012.47l.032,0Z" transform="translate(-137.656 -16.934)" fill="#fcc155"/>
        <path id="Path_66" data-name="Path 66" d="M33.736,78.34a.233.233,0,0,0,.19-.1c.12-.165.248-.327.382-.48a.235.235,0,0,0-.34-.325l-.012.013a5.58,5.58,0,0,0-.408.514.234.234,0,0,0,.188.371Z" transform="translate(-32.198 -74.622)" fill="#fcc155"/>
        <path id="Path_67" data-name="Path 67" d="M189.624,17.181h.036a.234.234,0,1,0,.034-.467c-.215-.033-.435-.056-.653-.069a.234.234,0,0,0-.028.467C189.219,17.128,189.423,17.15,189.624,17.181Z" transform="translate(-181.441 -16.266)" fill="#fcc155"/>
        <path id="Path_68" data-name="Path 68" d="M64.42,48.818c.156-.131.321-.255.489-.371a.234.234,0,0,0-.265-.385c-.179.123-.355.257-.523.4a.234.234,0,1,0,.3.36Z" transform="translate(-61.543 -46.424)" fill="#fcc155"/>
        <path id="Path_69" data-name="Path 69" d="M102.044,27.953a.233.233,0,0,0,.1-.023c.184-.087.374-.167.565-.237a.234.234,0,0,0-.123-.45l-.033.011a5.816,5.816,0,0,0-.6.254.234.234,0,0,0,.1.446Z" transform="translate(-97.849 -26.445)" fill="#fcc155"/>
        <path id="Path_70" data-name="Path 70" d="M173.482,373.018a.234.234,0,1,0-.012.467h.195c.156,0,.312,0,.458-.014a.234.234,0,1,0-.03-.467A5.8,5.8,0,0,1,173.482,373.018Z" transform="translate(-166.495 -358.747)" fill="#fcc155"/>
        <path id="Path_71" data-name="Path 71" d="M346.564,240.2a.234.234,0,0,0,.3-.141h0c.073-.206.137-.416.192-.623a.234.234,0,0,0-.446-.14.269.269,0,0,0-.008.031c-.05.2-.111.394-.179.586A.234.234,0,0,0,346.564,240.2Z" transform="translate(-332.921 -230.09)" fill="#fcc155"/>
        <path id="Path_72" data-name="Path 72" d="M351.18,151.265h.039a.234.234,0,0,0,.193-.268c-.036-.215-.081-.432-.135-.642a.234.234,0,0,0-.452.118c.051.2.094.4.128.6A.234.234,0,0,0,351.18,151.265Z" transform="translate(-337.157 -144.609)" fill="#fcc155"/>
        <path id="Path_73" data-name="Path 73" d="M55.312,7.3l-2.481.751L52,7.167a.755.755,0,0,0-.86-.2h-.014a.919.919,0,0,0-.5.5.845.845,0,0,0-.05.184l-.1-.033a.234.234,0,0,0-.143.446h0c.12.039.24.083.36.128a.893.893,0,0,0,.126.156l.883.835-.252.833h0A5.49,5.49,0,1,0,52.61,11.13l.4-.72.925.872-.223.737a.226.226,0,0,0,.051.231s.456.452.467.467a.226.226,0,0,0,.31-.079l0,0h0l.609-1.117,1.1-.6a.228.228,0,0,0,.067-.366l-.41-.435a.226.226,0,0,0-.226-.056l-.745.226-.872-.925,1.958-1.09a.228.228,0,0,0,.067-.366l-.55-.55A.228.228,0,0,0,55.312,7.3ZM44.731,10.92a5,5,0,0,1,3.544-1.464q.156,0,.312.009a1.4,1.4,0,0,1,.031,2.228A10.927,10.927,0,0,1,47.5,12.727a4.922,4.922,0,0,0-1.313,1.4c-.24.542-.064,1.033.905,1.461a2.547,2.547,0,0,1,.851.508c.014.017.028,0,.025,0a.094.094,0,0,0-.031.008,1.936,1.936,0,0,1-.735.126,3.792,3.792,0,0,1-2.661-1.282c-.467-.416-.855-.762-1.259-.765A5,5,0,0,1,44.731,10.92ZM53.3,14.468a5.022,5.022,0,0,1-3.466,4.771,1.635,1.635,0,0,1,.192-1.061,3.861,3.861,0,0,1,.935-1.028c1.438-1.2,1.519-1.869,1.581-2.385.039-.326.069-.569.712-.922a5.079,5.079,0,0,1,.039.623Zm-.291-1.685a4.977,4.977,0,0,1,.171.6c-.98.5-1.023.854-1.083,1.338-.053.436-.121,1.006-1.421,2.09a4.259,4.259,0,0,0-1.044,1.157A2.066,2.066,0,0,0,49.4,19.36a5.019,5.019,0,0,1-6.134-4.715c.248,0,.569.294.963.645a4.2,4.2,0,0,0,2.986,1.4,2.339,2.339,0,0,0,.935-.178.467.467,0,0,0,.259-.293.445.445,0,0,0-.112-.407,2.909,2.909,0,0,0-1.019-.637c-.659-.291-.8-.575-.673-.865a4.844,4.844,0,0,1,1.19-1.246,11.34,11.34,0,0,0,1.17-1.09,1.771,1.771,0,0,0,.324-2.435,4.986,4.986,0,0,1,2.025.921l-.358,1.182a.227.227,0,0,0,.055.231s.581.576.6.587a.226.226,0,0,0,.31-.079l0,0h0l.453-.819A5.011,5.011,0,0,1,53.008,12.783Zm.579-3.676a.226.226,0,0,0-.094.305l0,.006h0c.009.017,1.2,1.285,1.2,1.285a.226.226,0,0,0,.231.061h0l.752-.227.117.117-.7.388-.2.1a.224.224,0,0,0-.1.1h0l-.1.2-.388.7-.114-.125.226-.746a.226.226,0,0,0-.073-.24L53.115,9.882a.226.226,0,0,0-.319,0h0c-.016.017-1.122,2.009-1.122,2.009l-.241-.241.754-2.485a.226.226,0,0,0-.073-.241l-.984-.911a.324.324,0,0,1-.089-.374.489.489,0,0,1,.254-.252H51.3a.324.324,0,0,1,.365.093l.935.988a.226.226,0,0,0,.231.062h0l2.492-.752.241.241Z" transform="translate(-41.106 -6.906)" fill="#fcc155"/>
        <path id="Path_74" data-name="Path 74" d="M326.864,281a.234.234,0,0,0-.312.092c-.1.179-.206.355-.321.523a.234.234,0,0,0,.383.269c.121-.181.237-.369.343-.559a.234.234,0,0,0-.083-.319Z" transform="translate(-313.486 -270.298)" fill="#fcc155"/>
        <path id="Path_75" data-name="Path 75" d="M356.412,195.093c.02-.217.03-.436.03-.654v-.033a.234.234,0,0,0-.234-.232h0a.234.234,0,0,0-.24.227.044.044,0,0,1,0,0v.036c0,.2-.009.41-.028.614a.234.234,0,0,0,.212.254h.022A.234.234,0,0,0,356.412,195.093Z" transform="translate(-342.077 -186.881)" fill="#fcc155"/>
        <path id="Path_76" data-name="Path 76" d="M129.032,366.525a.234.234,0,1,0-.156.441h.028c.209.059.424.111.639.156h.044a.235.235,0,1,0,.076-.464l-.032,0A4.814,4.814,0,0,1,129.032,366.525Z" transform="translate(-123.707 -352.507)" fill="#fcc155"/>
        <path id="Path_77" data-name="Path 77" d="M218.569,364.64a4.653,4.653,0,0,1-.59.156.234.234,0,1,0,.1.456c.212-.048.425-.107.632-.174a.234.234,0,0,0-.145-.444v.006Z" transform="translate(-209.314 -350.694)" fill="#fcc155"/>
        <path id="Path_78" data-name="Path 78" d="M87.974,348.83a.234.234,0,1,0-.261.387l.024.014c.188.111.383.213.581.312a.234.234,0,0,0,.2-.424C88.333,349.029,88.15,348.93,87.974,348.83Z" transform="translate(-84.198 -335.476)" fill="#fcc155"/>
        <path id="Path_79" data-name="Path 79" d="M297.2,317.2a5.666,5.666,0,0,1-.439.428.234.234,0,1,0,.312.349c.156-.145.321-.3.467-.458a.234.234,0,0,0-.341-.319Z" transform="translate(-285.124 -305.049)" fill="#fcc155"/>
        <path id="Path_80" data-name="Path 80" d="M260.44,345.9c-.171.109-.35.212-.531.312a.234.234,0,0,0,.213.416c.193-.1.385-.21.569-.327a.234.234,0,0,0-.24-.4Z" transform="translate(-249.665 -332.673)" fill="#fcc155"/>
      </g>
    </g>
  </g>
</svg>
