<svg id="Group_2952" data-name="Group 2952" xmlns="http://www.w3.org/2000/svg" width="23.554" height="16.949" viewBox="0 0 23.554 16.949">
  <path id="Path_1116" data-name="Path 1116" d="M751.14,611.559h-6.375v-8.038H735.6V619.86h-4.612v.61h23.554v-.61H751.14Zm-6.986,8.039h-7.941V604.131h7.941Zm6.375,0h-5.669V612.17h5.669Z" transform="translate(-730.992 -603.521)" fill="#fba303"/>
  <path id="Path_1117" data-name="Path 1117" d="M747.492,608.457H745.53v1.683h1.962Zm-.306,1.377h-1.351v-1.072h1.351Z" transform="translate(-738.726 -606.147)" fill="#fba303"/>
  <path id="Path_1118" data-name="Path 1118" d="M753.507,608.457h-1.961v1.683h1.961Zm-.305,1.377h-1.351v-1.072H753.2Z" transform="translate(-741.927 -606.147)" fill="#fba303"/>
  <path id="Path_1119" data-name="Path 1119" d="M753.507,613.133h-1.961v1.682h1.961Zm-.305,1.377h-1.351v-1.072H753.2Z" transform="translate(-741.927 -608.634)" fill="#fba303"/>
  <path id="Path_1120" data-name="Path 1120" d="M753.507,621.4h-1.961v1.683h1.961Zm-.305,1.378h-1.351v-1.072H753.2Z" transform="translate(-741.927 -613.034)" fill="#fba303"/>
  <path id="Path_1121" data-name="Path 1121" d="M753.507,629.61h-1.961v1.683h1.961Zm-.305,1.377h-1.351v-1.072H753.2Z" transform="translate(-741.927 -617.4)" fill="#fba303"/>
  <path id="Path_1122" data-name="Path 1122" d="M747.492,629.61H745.53v1.683h1.962Zm-.306,1.377h-1.351v-1.072h1.351Z" transform="translate(-738.726 -617.4)" fill="#fba303"/>
  <path id="Path_1123" data-name="Path 1123" d="M764.2,623.413h-1.962V625.1H764.2Zm-.306,1.377h-1.351v-1.072H763.9Z" transform="translate(-747.616 -614.103)" fill="#fba303"/>
  <path id="Path_1124" data-name="Path 1124" d="M769.46,629.222H767.5V630.9h1.962Zm-.305,1.377H767.8v-1.072h1.351Z" transform="translate(-750.413 -617.194)" fill="#fba303"/>
</svg>
