<svg id="Add_images" data-name="Add images" xmlns="http://www.w3.org/2000/svg" width="27.5" height="32.086" viewBox="0 0 27.5 32.086">
  <g id="Iconly_Broken_Camera" data-name="Iconly/Broken/Camera">
    <g id="Camera">
      <path id="Camera-2" data-name="Camera" d="M23.5,24.75c.071,0,.14,0,.208,0,.029,0,.058,0,.087,0ZM4,24.75c-3.308,0-4-2.688-4-5.991V10.606A6,6,0,0,1,6,4.613a.29.29,0,0,0,.264-.166l.081-.171c.383-.815.844-1.789,1.123-2.339A3.333,3.333,0,0,1,10.513,0h6.466a3.335,3.335,0,0,1,3.054,1.937c.287.566.766,1.578,1.156,2.407.1.2.2.27.313.27a6,6,0,0,1,6,5.992v8.153c0,3.232-.662,5.876-3.79,5.988A1.03,1.03,0,0,1,23.8,22.69h-.3c2.169,0,1.935-1.764,1.935-3.931V10.606A3.938,3.938,0,0,0,21.5,6.674a2.366,2.366,0,0,1-2.128-1.346c-.431-.914-.9-1.905-1.181-2.46A1.281,1.281,0,0,0,16.97,2.06H10.523a1.278,1.278,0,0,0-1.215.809c-.273.537-.724,1.49-1.1,2.287l-.081.172A2.366,2.366,0,0,1,6,6.674a3.937,3.937,0,0,0-3.937,3.931v8.153c0,2.167.174,3.931,2.344,3.931h5.616a1.03,1.03,0,1,1,0,2.06ZM13.746,19.6A5.4,5.4,0,0,1,8.6,12.559a1.032,1.032,0,0,1,1.967.625,3.345,3.345,0,0,0,3.179,4.356h0a3.324,3.324,0,0,0,2.371-.994,3.265,3.265,0,0,0,.968-2.339,3.352,3.352,0,0,0-3.338-3.352h0a3.4,3.4,0,0,0-.727.078,1.029,1.029,0,1,1-.449-2.008,5.3,5.3,0,0,1,1.175-.131h0a5.413,5.413,0,0,1,5.4,5.405A5.3,5.3,0,0,1,17.584,18a5.373,5.373,0,0,1-3.833,1.6Zm6.77-8.94a1.03,1.03,0,0,1-.3-.727.96.96,0,0,1,.083-.384,1.449,1.449,0,0,1,.221-.344,1.422,1.422,0,0,1,.344-.22,1.1,1.1,0,0,1,.783,0,1.127,1.127,0,0,1,.33.22,1.164,1.164,0,0,1,.234.344.958.958,0,0,1,.082.384.988.988,0,0,1-.316.727,1.117,1.117,0,0,1-.33.233.976.976,0,0,1-.4.07A1.024,1.024,0,0,1,20.516,10.66Z" fill="#db143d"/>
    </g>
  </g>
  <g id="Group_587" data-name="Group 587" transform="translate(-283.25 -405.603)">
    <path id="Stroke_1" data-name="Stroke 1" d="M.526,0V8.336" transform="translate(299.569 428.353)" fill="none" stroke="#db143d" stroke-linecap="round" stroke-linejoin="round" stroke-miterlimit="10" stroke-width="2"/>
    <path id="Stroke_2" data-name="Stroke 2" d="M8.346.526H0" transform="translate(295.922 431.995)" fill="none" stroke="#db143d" stroke-linecap="round" stroke-linejoin="round" stroke-miterlimit="10" stroke-width="2"/>
  </g>
</svg>
