<svg xmlns="http://www.w3.org/2000/svg" width="26" height="26" viewBox="0 0 26 26">
  <g id="Layer_2"  transform="translate(2.975 2.748)">
    <g id="Layer_1"  transform="translate(-2.475 -2.248)">
      <rect id="Rectangle_1"  width="25" height="25" rx="7" fill="white" stroke="#db143d" stroke-width="1"/>
      <g id="refresh_2_"  transform="translate(19.1 6.819) rotate(90)">
        <g id="Group_521"  transform="translate(8.438 9.756)">
          <g id="Group_520" >
            <path id="Path_21"  d="M77.678,274.976a3.193,3.193,0,0,0,.337-.265.612.612,0,0,1,.819.91,4.4,4.4,0,0,1-.467.368.612.612,0,1,1-.689-1.012Z" transform="translate(-77.41 -274.554)" fill="#474546"/>
          </g>
        </g>
        <g id="Group_523"  transform="translate(-0.746 -0.747)">
          <g id="Group_522" >
            <path id="Path_22"  d="M24,6.562a6.444,6.444,0,0,1,12.85-.8.612.612,0,0,1-1.216.144,5.219,5.219,0,0,0-10.41.658,5.323,5.323,0,0,0,3.928,5.165l-.74-1.056a.612.612,0,1,1,1-.7l1.536,2.192,0,0a.608.608,0,0,1,.038.068c.006.013.015.025.021.038s.012.036.017.054a.615.615,0,0,1,.019.06c0,.014,0,.028.005.042a.612.612,0,0,1,.008.078s0,0,0,.007,0,.028,0,.042a.586.586,0,0,1-.007.07c0,.019-.009.038-.015.056s-.01.038-.018.057a.576.576,0,0,1-.026.054c-.009.017-.017.035-.028.051s-.024.032-.036.048-.023.03-.036.044a.6.6,0,0,1-.051.046c-.01.009-.019.019-.03.027l-2.151,1.566a.612.612,0,0,1-.72-.99l.919-.669A6.548,6.548,0,0,1,24,6.562Z" transform="translate(-23.999 0)" fill="#474546"/>
          </g>
        </g>
        <g id="Group_525"  transform="translate(10.379 7.238)">
          <g id="Group_524"  transform="translate(0)">
            <path id="Path_23"  d="M32.04,209.693c0-.011.007-.021.01-.032a.592.592,0,0,1,.031-.089s0-.007,0-.011a3.91,3.91,0,0,0,.171-.412.612.612,0,1,1,1.159.394,5.043,5.043,0,0,1-.205.5l0,.006a.6.6,0,0,1-.078.136l-.024.029a.608.608,0,0,1-.105.1l-.013.011a.619.619,0,0,1-.142.07l-.039.012a.607.607,0,0,1-.163.025h0a.613.613,0,0,1-.6-.49.6.6,0,0,1,0-.253Z" transform="translate(-32.026 -208.734)" fill="#474546"/>
          </g>
        </g>
      </g>
    </g>
  </g>
</svg>
