<svg xmlns="http://www.w3.org/2000/svg" width="27.5" height="27.5" viewBox="0 0 27.5 27.5">
  <g id="Group_4357" data-name="Group 4357" transform="translate(20680.75 1838.75)">
    <g id="Group_3756" data-name="Group 3756" transform="translate(-21917 -1996.774)">
      <g id="Group_826" data-name="Group 826" transform="translate(904.5 -154.226)">
        <path id="Stroke_4" data-name="Stroke 4" d="M.5,13.5C.5,3.376,3.376.5,13.5.5s13,2.876,13,13-2.876,13-13,13S.5,23.624.5,13.5Z" transform="translate(332 312.5)" fill="#0a84ff" stroke="#0a84ff" stroke-linecap="round" stroke-linejoin="round" stroke-miterlimit="10" stroke-width="1.5"/>
      </g>
    </g>
    <path id="Icon_awesome-list" data-name="Icon awesome-list" d="M2.111,14.495H.422A.5.5,0,0,0,0,15.051v2.224a.5.5,0,0,0,.422.556H2.111a.5.5,0,0,0,.422-.556V15.051A.5.5,0,0,0,2.111,14.495Zm0-11.12H.422A.5.5,0,0,0,0,3.931V6.155a.5.5,0,0,0,.422.556H2.111a.5.5,0,0,0,.422-.556V3.931A.5.5,0,0,0,2.111,3.375Zm0,5.56H.422A.5.5,0,0,0,0,9.491v2.224a.5.5,0,0,0,.422.556H2.111a.5.5,0,0,0,.422-.556V9.491A.5.5,0,0,0,2.111,8.935Zm10.98,6.116H4.645a.5.5,0,0,0-.422.556v1.112a.5.5,0,0,0,.422.556h8.446a.5.5,0,0,0,.422-.556V15.607A.5.5,0,0,0,13.091,15.051Zm0-11.12H4.645a.5.5,0,0,0-.422.556V5.6a.5.5,0,0,0,.422.556h8.446a.5.5,0,0,0,.422-.556V4.487A.5.5,0,0,0,13.091,3.931Zm0,5.56H4.645a.5.5,0,0,0-.422.556v1.112a.5.5,0,0,0,.422.556h8.446a.5.5,0,0,0,.422-.556V10.047A.5.5,0,0,0,13.091,9.491Z" transform="translate(-20673.758 -1835.603)" fill="#fff"/>
  </g>
</svg>
