<svg xmlns="http://www.w3.org/2000/svg" width="13.126" height="15.921" viewBox="0 0 13.126 15.921">
  <g id="Group_2991" data-name="Group 2991" transform="translate(-97.284 -89.002)">
    <path id="Path_1158" data-name="Path 1158" d="M97.942,101.338V103.7a1.222,1.222,0,0,0,1.221,1.221h.412a1.222,1.222,0,0,0,1.221-1.221v-2.364a1.018,1.018,0,0,0,.658-.951v-.311a1.019,1.019,0,0,0-.658-.951v-8.9A1.222,1.222,0,0,0,99.574,89h-.412a1.222,1.222,0,0,0-1.221,1.221v8.9a1.019,1.019,0,0,0-.658.951v.311A1.018,1.018,0,0,0,97.942,101.338Zm1.221-11.561h.412a.446.446,0,0,1,.446.445v8.835h-1.3V90.223A.446.446,0,0,1,99.162,89.777Zm-1.1,10.3a.246.246,0,0,1,.242-.243h2.133a.246.246,0,0,1,.242.243v.311a.246.246,0,0,1-.242.243H98.3a.246.246,0,0,1-.242-.243Zm1.515,4.072h-.412a.446.446,0,0,1-.446-.446v-2.3h1.3v2.3A.446.446,0,0,1,99.574,104.147Z" fill="#fba303"/>
    <path id="Path_1159" data-name="Path 1159" d="M106.757,97.836V103.7a1.222,1.222,0,0,0,1.221,1.221h.411a1.222,1.222,0,0,0,1.221-1.221v-5.9a1.02,1.02,0,0,0,.617-.935v-.312a1.02,1.02,0,0,0-.617-.935v-5.4A1.222,1.222,0,0,0,108.389,89h-.411a1.222,1.222,0,0,0-1.221,1.221v5.37a1.019,1.019,0,0,0-.7.966v.312A1.019,1.019,0,0,0,106.757,97.836Zm1.221-8.059h.411a.446.446,0,0,1,.446.445V95.54h-1.3V90.223A.446.446,0,0,1,107.978,89.777Zm-1.145,6.781a.246.246,0,0,1,.243-.242h2.132a.246.246,0,0,1,.243.242v.312a.247.247,0,0,1-.243.243h-2.132a.247.247,0,0,1-.243-.243Zm1.556,7.589h-.411a.446.446,0,0,1-.446-.446V97.888h1.3V103.7A.446.446,0,0,1,108.389,104.147Z" transform="translate(-4.415)" fill="#fba303"/>
    <path id="Path_1160" data-name="Path 1160" d="M115.973,94.387V103.7a1.222,1.222,0,0,0,1.221,1.221h.411a1.222,1.222,0,0,0,1.221-1.221V94.387a1.02,1.02,0,0,0,.658-.951v-.311a1.019,1.019,0,0,0-.658-.951v-1.95A1.222,1.222,0,0,0,117.605,89h-.411a1.222,1.222,0,0,0-1.221,1.221v1.95a1.019,1.019,0,0,0-.658.951v.311A1.021,1.021,0,0,0,115.973,94.387Zm1.221-4.609h.411a.446.446,0,0,1,.445.445v1.883h-1.3V90.223A.446.446,0,0,1,117.194,89.777Zm-1.1,3.346a.246.246,0,0,1,.243-.243h2.132a.246.246,0,0,1,.242.243v.311a.246.246,0,0,1-.242.243h-2.132a.246.246,0,0,1-.243-.243Zm1.515,11.024h-.411a.446.446,0,0,1-.446-.446V94.454h1.3V103.7A.446.446,0,0,1,117.605,104.147Z" transform="translate(-9.073)" fill="#fba303"/>
  </g>
</svg>
