<svg xmlns="http://www.w3.org/2000/svg" width="19.34" height="22.856" viewBox="0 0 19.34 22.856">
  <g id="Group_2441" data-name="Group 2441" transform="translate(-1668.375 -1325.014)">
    <g id="android-logo" transform="translate(1668.375 1325.014)">
      <g id="Group_1167" data-name="Group 1167" transform="translate(0 0)">
        <path id="Path_131" data-name="Path 131" d="M43.959,179.141a1.364,1.364,0,0,0-1,.412,1.349,1.349,0,0,0-.412.989v5.906a1.407,1.407,0,0,0,1.415,1.415,1.344,1.344,0,0,0,1-.412,1.377,1.377,0,0,0,.405-1v-5.906a1.407,1.407,0,0,0-1.4-1.4Z" transform="translate(-42.544 -171.737)" fill="#f5f6fa"/>
        <path id="Path_132" data-name="Path 132" d="M132.128,2.1,133.1.3a.181.181,0,0,0-.068-.275.19.19,0,0,0-.275.082l-.989,1.813a6.889,6.889,0,0,0-5.522,0L125.261.11a.19.19,0,0,0-.275-.082.181.181,0,0,0-.069.275l.975,1.8A6.023,6.023,0,0,0,123.53,4.21a5.326,5.326,0,0,0-.879,2.96h12.705a5.327,5.327,0,0,0-.879-2.96A6.048,6.048,0,0,0,132.128,2.1ZM126.49,4.718a.515.515,0,0,1-.378.158.492.492,0,0,1-.371-.158.548.548,0,0,1,0-.755.493.493,0,0,1,.371-.158.534.534,0,0,1,.378.913Zm5.789,0a.493.493,0,0,1-.371.158.536.536,0,0,1,0-1.071.494.494,0,0,1,.371.158.548.548,0,0,1,0,.755Z" transform="translate(-119.34 0)" fill="#f5f6fa"/>
        <path id="Path_133" data-name="Path 133" d="M123.971,194.6a1.5,1.5,0,0,0,1.511,1.511H126.5l.014,3.118a1.365,1.365,0,0,0,.412,1,1.349,1.349,0,0,0,.989.412,1.407,1.407,0,0,0,1.415-1.415v-3.118h1.9v3.118a1.415,1.415,0,1,0,2.829,0v-3.118h1.03a1.443,1.443,0,0,0,1.058-.439,1.458,1.458,0,0,0,.439-1.071V185.45H123.971Z" transform="translate(-120.606 -177.786)" fill="#f5f6fa"/>
        <path id="Path_134" data-name="Path 134" d="M443.777,179.141a1.361,1.361,0,0,0-.989.405,1.343,1.343,0,0,0-.412,1v5.906a1.364,1.364,0,0,0,.412,1,1.349,1.349,0,0,0,.989.412,1.407,1.407,0,0,0,1.415-1.415v-5.906a1.343,1.343,0,0,0-.412-1A1.378,1.378,0,0,0,443.777,179.141Z" transform="translate(-425.852 -171.737)" fill="#f5f6fa"/>
      </g>
    </g>
  </g>
</svg>
