<svg xmlns="http://www.w3.org/2000/svg" width="18.828" height="22.043" viewBox="0 0 18.828 22.043">
  <g id="Group_2440" data-name="Group 2440" transform="translate(-1668.747 -1324.519)">
    <g id="apple" transform="translate(1668.747 1324.519)">
      <g id="Group_1164" data-name="Group 1164" transform="translate(9.049)">
        <g id="Group_1163" data-name="Group 1163">
          <path id="Path_129" data-name="Path 129" d="M252.019,0a5.172,5.172,0,0,0-3.349,1.813,4.493,4.493,0,0,0-1.1,3.491,4.366,4.366,0,0,0,3.379-1.726A4.85,4.85,0,0,0,252.019,0Z" transform="translate(-247.522)" fill="#f5f6fa"/>
        </g>
      </g>
      <g id="Group_1166" data-name="Group 1166" transform="translate(0 5.159)">
        <g id="Group_1165" data-name="Group 1165" transform="translate(0)">
          <path id="Path_130" data-name="Path 130" d="M55.526,122.076a5.58,5.58,0,0,0-4.212-2.236c-1.977,0-2.813.946-4.187.946-1.416,0-2.492-.944-4.2-.944a5.717,5.717,0,0,0-4.6,2.781C36.731,125.1,37,129.743,39.587,133.7c.924,1.416,2.159,3.009,3.773,3.023,1.437.014,1.842-.922,3.789-.931s2.316.944,3.75.929c1.616-.012,2.918-1.777,3.842-3.193a15.88,15.88,0,0,0,1.423-2.673A4.86,4.86,0,0,1,55.526,122.076Z" transform="translate(-37.336 -119.84)" fill="#f5f6fa"/>
        </g>
      </g>
    </g>
  </g>
</svg>
