<svg xmlns="http://www.w3.org/2000/svg" width="5.359" height="6.431" viewBox="0 0 5.359 6.431">
  <path id="Arrow_-_Left_2" data-name="Arrow - Left 2" d="M.2,2.609c.03-.031.145-.164.251-.273A11.624,11.624,0,0,1,3.555.18,2.474,2.474,0,0,1,4.187,0a1.036,1.036,0,0,1,.48.117A1,1,0,0,1,5.093.6a5.274,5.274,0,0,1,.137.57,12.851,12.851,0,0,1,.129,2.04,14.859,14.859,0,0,1-.114,1.977,4.553,4.553,0,0,1-.183.711.957.957,0,0,1-.845.532h-.03a2.615,2.615,0,0,1-.708-.219A11.625,11.625,0,0,1,.441,4.087a3.033,3.033,0,0,1-.258-.3A.956.956,0,0,1,0,3.219a1,1,0,0,1,.2-.61" fill="#fba303"/>
</svg>
