<svg xmlns="http://www.w3.org/2000/svg" width="6.667" height="8" viewBox="0 0 6.667 8">
  <g id="Arrow_-_Left_2" data-name="Arrow - Left 2" transform="translate(6.667 0) rotate(90)">
    <path id="Fill_1" data-name="Fill 1" d="M3.245.143,6.058,4.708a.29.29,0,0,1-.017.329,8.7,8.7,0,0,1-.957,1.08,3.58,3.58,0,0,1-.373.319A1.149,1.149,0,0,1,4,6.667a1.237,1.237,0,0,1-.76-.246c-.038-.037-.205-.178-.342-.312A14.518,14.518,0,0,1,.22,2.228,2.993,2.993,0,0,1,0,1.441,1.292,1.292,0,0,1,.145.84a1.244,1.244,0,0,1,.6-.527A6.181,6.181,0,0,1,1.459.142,11.781,11.781,0,0,1,2.971,0a.308.308,0,0,1,.273.143" transform="translate(0 0)" fill="#474546"/>
    <path id="Fill_4" data-name="Fill 4" d="M.044.445A.3.3,0,0,1,.318,0C.879.024,1.374.066,1.742.117a4.951,4.951,0,0,1,.881.231A1.185,1.185,0,0,1,3.284,1.4v.036a3,3,0,0,1-.273.884,9.206,9.206,0,0,1-.6,1.123.306.306,0,0,1-.519,0Z" transform="translate(4.716 0.003)" fill="#474546" opacity="0.4"/>
  </g>
</svg>
