<svg xmlns="http://www.w3.org/2000/svg" xmlns:xlink="http://www.w3.org/1999/xlink" width="58.364" height="22.496" viewBox="0 0 58.364 22.496">
  <defs>
    <linearGradient id="linear-gradient" x1="0.5" x2="0.5" y2="0.999" gradientUnits="objectBoundingBox">
      <stop offset="0" stop-color="#97d700"/>
      <stop offset="0.631" stop-color="#50bc25"/>
      <stop offset="1" stop-color="#009f64"/>
    </linearGradient>
  </defs>
  <g id="Group_2497" data-name="Group 2497" transform="translate(-997.637 -541.653)">
    <g id="cafe-bazaar-4" transform="translate(997.637 541.653)">
      <path id="Path_830" data-name="Path 830" d="M2935.206,6.931a5.932,5.932,0,0,0-2.073-.808c-.347-.083-.745-.162-1.2-.233-.571-.093-1.234-.176-2-.245l-.108-.01c-.155-.369-.315-.747-.485-1.144-.09-.213-.177-.427-.268-.655-.011-.027-.022-.055-.034-.082a9.426,9.426,0,0,0-1.3-2.455,3.051,3.051,0,0,0-5.01,0,9.277,9.277,0,0,0-1.3,2.453l-.035.084c-.09.227-.177.442-.268.655-.17.4-.33.775-.485,1.144l-.106.01c-.768.069-1.43.152-2,.246-.453.072-.848.153-1.194.233a5.949,5.949,0,0,0-2.074.808.38.38,0,0,0-.15.356l.1.754c.153,1.128.315,2.453.583,3.819a21.224,21.224,0,0,0,.829,3.1c.143.4.3.788.478,1.165a9.121,9.121,0,0,0,3.377,3.729,9.016,9.016,0,0,0,9.628-.074,9.131,9.131,0,0,0,3.32-3.781c.137-.3.262-.613.378-.932a31.408,31.408,0,0,0,1.406-6.668l.146-1.118a.385.385,0,0,0-.032-.2.371.371,0,0,0-.126-.152Zm-9.976-1.471c-.941,0-1.8.017-2.576.049.042-.1.084-.2.128-.3q.147-.35.284-.7a12.6,12.6,0,0,1,.667-1.481,4.369,4.369,0,0,1,.4-.592,1.272,1.272,0,0,1,2.2,0,4.451,4.451,0,0,1,.4.592,12.715,12.715,0,0,1,.667,1.481c.092.233.185.466.284.7.044.1.086.2.129.3-.778-.031-1.635-.049-2.577-.049Z" transform="translate(-2915.114 0.01)" fill="url(#linear-gradient)"/>
    </g>
    <g id="Group_2458" data-name="Group 2458" transform="translate(1021.232 541.653)">
      <path id="Path_831" data-name="Path 831" d="M912.23,131.5V120.952a2.056,2.056,0,0,1,3.584-1.187,2.21,2.21,0,0,1,.538,1.523v9.832a2.235,2.235,0,0,1-.576,1.63A2.055,2.055,0,0,1,912.23,131.5Zm12.272,2.256V122.974h.006a1.811,1.811,0,0,1,.219-.783,2.082,2.082,0,0,1,2.933-.743c.994.649.983,1.632.969,2.788h0c0,.136,0,.275,0,.416,0,.106,0,.394,0,.8v0c-.011,2.083-.039,7.282.034,7.5a.6.6,0,0,0,.359.362,6.589,6.589,0,0,0,1.629.05,8.106,8.106,0,0,1,2.948.213,2.064,2.064,0,0,1-.94,3.911h-4.179a4.308,4.308,0,0,1-1.6-.369,4.852,4.852,0,0,1-1.145-.773,2.041,2.041,0,0,1-.219-.259,3.019,3.019,0,0,1-.219-.255,4.042,4.042,0,0,1-.793-2.083Z" transform="translate(-899.959 -119.077)" fill="#f5f6fa"/>
      <path id="Path_832" data-name="Path 832" d="M12.994,287.771a2.014,2.014,0,0,1-.733-1.757,1.986,1.986,0,0,1,.82-1.479,2.236,2.236,0,0,1,1.656-.39h1.028c.511,0,1.021,0,1.53,0,.923.006,1.1-.23,1.1-1.151,0-1.011,0-2.023,0-3.035h0q0-.759,0-1.519v-.115a2,2,0,0,1,.6-1.773,2.045,2.045,0,0,1,2.992.115,2.284,2.284,0,0,1,.527,1.678v5.462a4.2,4.2,0,0,1-4.458,4.458h-3.4a2.438,2.438,0,0,1-1.664-.494Zm-13-5.88a2.054,2.054,0,0,0,1.15,2.06,1.8,1.8,0,0,0,.815.191h4.41a4.146,4.146,0,0,0,3.882-4.123v-6.038a2.111,2.111,0,0,0-.562-1.451,2.051,2.051,0,0,0-3.076.067c-.449.569-.485.785-.485,1.768v4.554c0,.054,0,.1,0,.152,0,.35.005.528-.2.75s-.368.219-.677.208c-.08,0-.17-.007-.274-.007h-2.3c-1.063,0-1.842.109-2.394,1.008a2.085,2.085,0,0,0-.29.861Zm22.482,6.229a2.04,2.04,0,0,0,2.11,2.158,2.058,2.058,0,1,0-2.106-2.158Zm-3.489-14.774a1.984,1.984,0,0,1-.585-1.572h0a2.08,2.08,0,0,1,2.061-1.966,2.111,2.111,0,0,1,2.047,2.06,2.076,2.076,0,0,1-3.523,1.477Z" transform="translate(0.01 -267.782)" fill="#f5f6fa"/>
    </g>
  </g>
</svg>
