<svg xmlns="http://www.w3.org/2000/svg" width="309" height="151" viewBox="0 0 309 151">
  <g id="Group_2503" data-name="Group 2503" transform="translate(-135.5 -510.5)">
    <path id="Search_Field" data-name="Search Field" d="M15,0H293a15,15,0,0,1,15,15V135a15,15,0,0,1-15,15H15A15,15,0,0,1,0,135V15A15,15,0,0,1,15,0Z" transform="translate(136 511)" fill="#db143d" stroke="rgba(209,209,209,0.4)" stroke-width="1"/>
    <g id="world" transform="translate(397.367 528.18) rotate(-20)">
      <g id="Group_767" data-name="Group 767" transform="translate(0 0)">
        <path id="Path_59" data-name="Path 59" d="M.162.159a.554.554,0,0,0,0,.784A14.121,14.121,0,0,0,1.315,1.988.554.554,0,0,0,2.1,1.2a.507.507,0,0,0-.045-.041l-.037-.03C1.648.828,1.278.5.938.159A.554.554,0,0,0,.162.159Z" transform="translate(4.851 29.098)" fill="rgba(245,246,250,0.32)"/>
        <path id="Path_60" data-name="Path 60" d="M.467,2.684h.07A.555.555,0,0,0,1.088,2.2c.059-.481.14-.965.244-1.434A.554.554,0,1,0,.264.529C.153,1.035.068,1.549,0,2.063A.554.554,0,0,0,.467,2.684Z" transform="translate(0.114 13.768)" fill="rgba(245,246,250,0.32)"/>
        <path id="Path_61" data-name="Path 61" d="M.271.079a.554.554,0,0,0-.193.76h0c.266.444.554.88.861,1.3a.554.554,0,0,0,.895-.654c-.285-.392-.554-.8-.8-1.212A.554.554,0,0,0,.273.078Z" transform="translate(2.324 25.84)" fill="rgba(245,246,250,0.32)"/>
        <path id="Path_62" data-name="Path 62" d="M.393.019a.554.554,0,0,0-.37.687c.148.5.318.991.51,1.479a.563.563,0,0,0,1.046-.418h0C1.4,1.32,1.239.858,1.1.393A.554.554,0,0,0,.415.023Z" transform="translate(0.646 22.058)" fill="rgba(245,246,250,0.32)"/>
        <path id="Path_63" data-name="Path 63" d="M.348,2.442a.555.555,0,0,0,.72-.309h0A13.289,13.289,0,0,1,1.663.8a.555.555,0,0,0-.991-.5h0C.44.767.226,1.244.037,1.728A.554.554,0,0,0,.348,2.442Z" transform="translate(1.139 9.966)" fill="rgba(245,246,250,0.32)"/>
        <path id="Path_64" data-name="Path 64" d="M.655,2.6H.747a.555.555,0,0,0,.481-.619,0,0,0,0,0,0,0h0c-.059-.481-.1-.968-.118-1.449A.555.555,0,1,0,0,.575,12.126,12.126,0,0,0,.126,2.128.554.554,0,0,0,.655,2.6Z" transform="translate(0 17.984)" fill="rgba(245,246,250,0.32)"/>
        <path id="Path_65" data-name="Path 65" d="M.644,1.327H.751c.477-.092.961-.163,1.442-.211A.558.558,0,1,0,2.086.007C1.572.059,1.054.133.544.232A.558.558,0,0,0,.572,1.348a.567.567,0,0,0,.075-.007Z" transform="translate(13.236 0.964)" fill="rgba(245,246,250,0.32)"/>
        <path id="Path_66" data-name="Path 66" d="M.553,2.311A.554.554,0,0,0,1,2.082c.285-.392.588-.776.906-1.139A.558.558,0,0,0,1.1.173L1.074.2a13.251,13.251,0,0,0-.968,1.22.554.554,0,0,0,.447.88Z" transform="translate(3.096 6.511)" fill="rgba(245,246,250,0.32)"/>
        <path id="Path_67" data-name="Path 67" d="M1.971,1.273h.085A.556.556,0,1,0,2.138.164C1.627.086,1.106.031.589,0A.555.555,0,1,0,.522,1.11C1.01,1.147,1.494,1.2,1.971,1.273Z" transform="translate(17.446 0.9)" fill="rgba(245,246,250,0.32)"/>
        <path id="Path_68" data-name="Path 68" d="M.91,1.881c.37-.31.761-.606,1.161-.88A.554.554,0,0,0,1.442.088C1.017.38.6.7.2,1.027a.555.555,0,1,0,.71.854Z" transform="translate(5.918 3.8)" fill="rgba(245,246,250,0.32)"/>
        <path id="Path_69" data-name="Path 69" d="M.546,1.7a.553.553,0,0,0,.237-.055c.436-.207.887-.4,1.342-.562A.554.554,0,0,0,1.833.013L1.755.039a13.8,13.8,0,0,0-1.434.6A.554.554,0,0,0,.557,1.7Z" transform="translate(9.409 1.879)" fill="rgba(245,246,250,0.32)"/>
        <path id="Path_70" data-name="Path 70" d="M.569.034A.555.555,0,0,0,.54,1.143H1c.37,0,.739,0,1.087-.033A.556.556,0,1,0,2.018,0,13.693,13.693,0,0,1,.569.034Z" transform="translate(16.009 33.831)" fill="rgba(245,246,250,0.32)"/>
        <path id="Path_71" data-name="Path 71" d="M.362,2.536A.554.554,0,0,0,1.071,2.2v0h0c.174-.488.325-.987.455-1.479A.555.555,0,1,0,.468.389.638.638,0,0,0,.45.462C.332.932.188,1.4.025,1.852A.555.555,0,0,0,.362,2.536Z" transform="translate(32.012 21.46)" fill="rgba(245,246,250,0.32)"/>
        <path id="Path_72" data-name="Path 72" d="M.856,2.553H.949a.555.555,0,0,0,.458-.636C1.322,1.407,1.215.893,1.085.394A.555.555,0,0,0,.013.675c.122.466.222.946.3,1.423A.554.554,0,0,0,.856,2.553Z" transform="translate(32.419 13.241)" fill="rgba(245,246,250,0.32)"/>
        <path id="Path_73" data-name="Path 73" d="M29.755.942,23.867,2.723,21.886.62a1.793,1.793,0,0,0-2.04-.484h-.033a2.181,2.181,0,0,0-1.187,1.187,2,2,0,0,0-.118.436l-.225-.078a.555.555,0,1,0-.34,1.057h0c.285.092.569.2.854.3a2.118,2.118,0,0,0,.3.37l2.1,1.981-.6,1.978h0a13.026,13.026,0,1,0,2.754,2.654l.946-1.708,2.2,2.07-.529,1.748a.536.536,0,0,0,.122.547s1.083,1.072,1.109,1.109a.536.536,0,0,0,.734-.187l0-.009h0l1.445-2.65,2.61-1.423a.54.54,0,0,0,.159-.869l-.972-1.031a.536.536,0,0,0-.536-.133l-1.767.536-2.07-2.2,4.646-2.587a.54.54,0,0,0,.159-.869l-1.3-1.3A.54.54,0,0,0,29.755.942ZM4.649,9.525A11.87,11.87,0,0,1,13.059,6.05q.37,0,.739.022c2.1,1.933,1.479,3.7.074,5.286a25.928,25.928,0,0,1-2.661,2.454,11.68,11.68,0,0,0-3.116,3.327c-.569,1.286-.152,2.451,2.148,3.467a6.044,6.044,0,0,1,2.018,1.205c.033.041.067,0,.059,0a.222.222,0,0,0-.074.018,4.594,4.594,0,0,1-1.745.3c-2.787.118-4.772-1.663-6.313-3.042C3.078,18.1,2.158,17.28,1.2,17.272A11.87,11.87,0,0,1,4.649,9.525Zm20.33,8.42a11.917,11.917,0,0,1-8.225,11.322,3.879,3.879,0,0,1,.455-2.517,9.162,9.162,0,0,1,2.218-2.44c3.412-2.846,3.6-4.436,3.752-5.659.092-.773.163-1.349,1.689-2.188a12.052,12.052,0,0,1,.092,1.479Zm-.691-4a11.807,11.807,0,0,1,.407,1.423c-2.325,1.183-2.429,2.026-2.569,3.175-.126,1.035-.288,2.388-3.371,4.961a10.108,10.108,0,0,0-2.477,2.746,4.9,4.9,0,0,0-.554,3.3A11.91,11.91,0,0,1,1.167,18.363c.588,0,1.349.7,2.284,1.53,1.693,1.512,3.859,3.441,7.086,3.327a5.551,5.551,0,0,0,2.218-.421,1.109,1.109,0,0,0,.614-.695,1.057,1.057,0,0,0-.266-.965,6.9,6.9,0,0,0-2.417-1.512c-1.564-.691-1.9-1.364-1.6-2.052a11.5,11.5,0,0,1,2.824-2.957,26.908,26.908,0,0,0,2.776-2.587c1.545-1.759,2.34-3.7.769-5.777a11.832,11.832,0,0,1,4.805,2.185l-.85,2.806a.539.539,0,0,0,.129.547s1.379,1.368,1.423,1.394A.536.536,0,0,0,21.7,13l0-.008h0l1.076-1.944A11.89,11.89,0,0,1,24.288,13.946Zm1.375-8.724a.536.536,0,0,0-.223.724l.008.015h0c.022.041,2.85,3.05,2.85,3.05a.536.536,0,0,0,.547.144h0l1.785-.54.277.277-1.663.92-.477.237a.532.532,0,0,0-.244.248h0l-.237.481-.92,1.663-.27-.3.536-1.771a.536.536,0,0,0-.174-.569L24.543,7.063a.536.536,0,0,0-.758,0h0c-.037.041-2.661,4.768-2.661,4.768l-.573-.573,1.789-5.9a.536.536,0,0,0-.174-.573L19.831,2.627a.769.769,0,0,1-.211-.887,1.16,1.16,0,0,1,.6-.6h.018a.769.769,0,0,1,.865.222l2.218,2.344a.536.536,0,0,0,.547.148h0l5.914-1.785.573.573Z" transform="translate(3.953 0)" fill="rgba(245,246,250,0.32)"/>
        <path id="Path_74" data-name="Path 74" d="M1.6.063A.555.555,0,0,0,.863.281C.63.706.375,1.124.1,1.523a.556.556,0,0,0,.909.639c.288-.429.562-.876.813-1.327a.554.554,0,0,0-.2-.758Z" transform="translate(30.143 25.326)" fill="rgba(245,246,250,0.32)"/>
        <path id="Path_75" data-name="Path 75" d="M1.122,2.181c.048-.514.07-1.035.07-1.553V.551A.554.554,0,0,0,.638,0h0A.554.554,0,0,0,.069.54s0,.007,0,.011V.636c0,.484-.022.972-.066,1.456a.554.554,0,0,0,.5.6H.557A.554.554,0,0,0,1.122,2.181Z" transform="translate(32.892 17.306)" fill="rgba(245,246,250,0.32)"/>
        <path id="Path_76" data-name="Path 76" d="M.74.032A.555.555,0,1,0,.37,1.078H.437c.5.14,1.005.262,1.516.37h.1a.558.558,0,0,0,.179-1.1A.57.57,0,0,0,2.159.339,11.415,11.415,0,0,1,.74.032Z" transform="translate(11.895 33.231)" fill="rgba(245,246,250,0.32)"/>
        <path id="Path_77" data-name="Path 77" d="M1.834.036a11.04,11.04,0,0,1-1.4.37A.555.555,0,0,0,.677,1.489c.5-.115,1.009-.255,1.5-.414A.555.555,0,0,0,1.834.021V.036Z" transform="translate(20.127 33.057)" fill="rgba(245,246,250,0.32)"/>
        <path id="Path_78" data-name="Path 78" d="M.864.095a.554.554,0,1,0-.62.919A.493.493,0,0,0,.3,1.048c.447.262.909.506,1.379.739A.556.556,0,0,0,2.154.782C1.715.568,1.282.331.864.095Z" transform="translate(8.096 31.594)" fill="rgba(245,246,250,0.32)"/>
        <path id="Path_79" data-name="Path 79" d="M1.228.17A13.434,13.434,0,0,1,.185,1.187a.555.555,0,1,0,.739.828c.37-.344.761-.71,1.109-1.087A.554.554,0,0,0,1.224.17Z" transform="translate(27.416 28.668)" fill="rgba(245,246,250,0.32)"/>
        <path id="Path_80" data-name="Path 80" d="M1.562.065C1.155.324.73.568.3.8a.555.555,0,1,0,.506.987c.458-.237.913-.5,1.349-.776a.554.554,0,0,0-.569-.95Z" transform="translate(24.006 31.324)" fill="rgba(245,246,250,0.32)"/>
      </g>
    </g>
    <path id="XMLID_1435_" d="M22.428,13.317l-9.9-5.9V6.981a1.4,1.4,0,0,1,.725-1.215,3.069,3.069,0,0,0,1.563-2.818A3.037,3.037,0,0,0,11.951,0,2.915,2.915,0,0,0,9.767.857a3.084,3.084,0,0,0-.915,2.21.694.694,0,1,0,1.387,0,1.651,1.651,0,0,1,.49-1.183,1.559,1.559,0,0,1,1.17-.457A1.624,1.624,0,0,1,13.431,3a1.645,1.645,0,0,1-.837,1.51,2.827,2.827,0,0,0-1.452,2.469V7.42l-9.9,5.9A2.584,2.584,0,0,0,0,15.534,2.531,2.531,0,0,0,2.492,18.1H21.179a2.531,2.531,0,0,0,2.492-2.562A2.584,2.584,0,0,0,22.428,13.317Zm-1.249,3.354H2.492a1.123,1.123,0,0,1-1.105-1.137,1.146,1.146,0,0,1,.551-.983l9.9-5.9,9.9,5.9a1.146,1.146,0,0,1,.551.983A1.122,1.122,0,0,1,21.179,16.671Z" transform="matrix(0.788, 0.616, -0.616, 0.788, 339.992, 524.516)" fill="rgba(245,246,250,0.32)"/>
    <g id="Group_2482" data-name="Group 2482" transform="matrix(0.891, -0.454, 0.454, 0.891, 392.717, 611.809)" opacity="0.32">
      <g id="Group_736" data-name="Group 736" transform="translate(0 0)">
        <rect id="Rectangle_167" data-name="Rectangle 167" width="31.9" height="20.331" rx="2.905" transform="translate(3.067 0)" fill="none" stroke="#f5f6fa" stroke-miterlimit="10" stroke-width="1"/>
        <rect id="Rectangle_174" data-name="Rectangle 174" width="31.9" height="20.331" rx="2.905" transform="translate(3.067 0)" fill="none"/>
        <rect id="Rectangle_168" data-name="Rectangle 168" width="38.035" height="2.937" rx="1.468" transform="translate(0 23.214)" fill="#f5f6fa"/>
        <path id="Path_38" data-name="Path 38" d="M1.74.8a.838.838,0,0,1-.87.8A.838.838,0,0,1,0,.8.838.838,0,0,1,.87,0,.837.837,0,0,1,1.74.8Z" transform="translate(33.866 23.882)" fill="#d1d1d1"/>
      </g>
    </g>
    <g id="Group_1465" data-name="Group 1465" transform="matrix(0.914, 0.407, -0.407, 0.914, 329.891, 586)">
      <path id="Path_47" data-name="Path 47" d="M1.087,13.376v.013a5.151,5.151,0,0,1,.67,2.553v.988A17.714,17.714,0,0,1,8.149,15.8a18.093,18.093,0,0,1,6.477,1.123l.008-.986a5.618,5.618,0,0,1,.691-2.789l1-6.556a5.549,5.549,0,0,0-1.253-4.53A6.152,6.152,0,0,0,10.373,0H6.019a6.141,6.141,0,0,0-4.7,2.068A5.554,5.554,0,0,0,.071,6.6Z" transform="translate(4.143 0)" fill="none" stroke="rgba(255,255,255,0.32)" stroke-width="1"/>
      <path id="Path_48" data-name="Path 48" d="M22.861,0c-1.912,0-2.913,1.836-2.913,3.649V4.735a1.187,1.187,0,0,1-.5.988.946.946,0,0,1-.9.086,16.664,16.664,0,0,0-6.263-1.127A16.4,16.4,0,0,0,6.122,5.81a.945.945,0,0,1-.9-.085,1.192,1.192,0,0,1-.5-.988V3.649A3.408,3.408,0,0,0,1.528,0C.54,0,0,1.171,0,1.768A2.126,2.126,0,0,0,1.137,3.582c.064.028.134.059.209.085.569.227,1.627.649,1.627,1.862V7.883c0,.878.189,2.81,1.769,3.173a.56.56,0,0,0-.013.064v1.171a.585.585,0,0,0,.585.585H5.9a.585.585,0,0,0,.585-.585v-1.17H18.192v1.171a.585.585,0,0,0,.585.585h.585a.585.585,0,0,0,.585-.585V11.122c0-.016-.008-.03-.009-.046C21.381,10.8,21.7,9.227,21.7,7.885V5.532a2.072,2.072,0,0,1,1.621-1.863c.073-.029.142-.059.205-.085a2.069,2.069,0,0,0,1.054-1.815A1.993,1.993,0,0,0,22.861,0Z" transform="translate(0 12.292)" fill="none" stroke="rgba(255,255,255,0.32)" stroke-width="1"/>
    </g>
    <g id="Group_1462" data-name="Group 1462" transform="translate(149.072 610.656) rotate(-23)">
      <path id="Path_88" data-name="Path 88" d="M3.646,27.059l-.718-3.912,5.036-2.182v6.347H3.693Zm-.858-4.677-.805-4.365,5.981-2.594v4.71Zm-.945-5.129-.772-4.212,6.893-2.994V14.6ZM.932,12.275.04,7.425,0,7.212.186,7.1,7.512,2.874l.452-.259V9.222ZM19.88,9.455l7.465,1.763-.3,1.923-7.938,3.932Zm7.026,4.584-.5,3.24-7.7,3.7.306-3.034Zm-.632,4.132-.519,3.36L18.31,24.884l.313-3.041Zm-.659,4.245-.752,4.9h-6.8l.16-1.564ZM8.683,0l-.02,10.366,10.665-1.1.459-4.6Zm-.02,11.111L8.656,13.8l10.319-.952.279-2.828Zm-.013,3.433v2.794l9.953-.752L18.9,13.6Zm-.007,3.546-.02,9.255h8.909l.991-9.993Z" transform="translate(0 0)" fill="none" stroke="rgba(255,255,255,0.32)" stroke-width="1" fill-rule="evenodd"/>
    </g>
    <g id="Group_1461" data-name="Group 1461" transform="matrix(0.914, 0.407, -0.407, 0.914, 151.145, 538.932)" opacity="0.319">
      <g id="Group_806" data-name="Group 806" transform="translate(0 0)">
        <g id="Group_798" data-name="Group 798" transform="translate(0 0)">
          <g id="Group_796" data-name="Group 796">
            <path id="Path_89" data-name="Path 89" d="M57.479,17.18a57.644,57.644,0,0,0-.323-6.28l-.07-.66.575-.334c.271-.158.542-.32.813-.482-1.428-1.877-3.569-3.509-4.125-4.9-.525-1.31.36-.819,1.062-.716.424.061.4-.544.4-.544.308.138-4.95-2.354-18.092-3.212A27.34,27.34,0,0,0,16.89,8.113s-.542.612-10.326,1.164C2.568,9.5.893,11.571.291,13.9a6.476,6.476,0,0,1,.869-1.979H4.766s1.2.506-.567,2.429c-.276.274-2.927.293-4.061.287a11.283,11.283,0,0,0-.127,2.3l4.506.6v1.058H6.8A5.409,5.409,0,0,1,7.048,18a7,7,0,0,1,13.337,2.87H40.643A6.721,6.721,0,0,1,41.3,18a7,7,0,0,1,13.187,1.507l1.53-1.946,1.77.362-.31-.24ZM37.637,10.707a.286.286,0,0,1-.284.289l-3.555.012a.287.287,0,0,1,0-.575l3.567-.171C37.519,10.262,37.78,10.362,37.637,10.707ZM39.57,8.951s-11.051.023-17.143.034a1.115,1.115,0,0,1-.132.235,1.538,1.538,0,0,1-1.168.48l-.393,0a2.125,2.125,0,0,1-1.944-.713h-.02c0-.007.007-.013.008-.019-.017-.028-.037-.049-.054-.08-.216-.43.328-1.845.334-1.86A2.752,2.752,0,0,1,20.5,5.308a1.6,1.6,0,0,1,.56-.1,1.2,1.2,0,0,1,.963.449A23.744,23.744,0,0,1,31.25,2.069a72.109,72.109,0,0,1,8.475-.132Zm13.615,1.756A.286.286,0,0,1,52.9,11l-3.557.012a.287.287,0,0,1,0-.575l3.567-.171C53.066,10.262,53.328,10.362,53.185,10.707ZM40.64,8.989V1.955s9.219.717,11.11,2.079c0,0,.228,4.5,1.891,4.954Z" transform="translate(0)" fill="none" stroke="#fff" stroke-width="1"/>
          </g>
          <g id="Group_797" data-name="Group 797" transform="translate(0.148 14.012)">
            <path id="Path_90" data-name="Path 90" d="M.119,0C.073.188.032.377,0,.568.032.377.073.188.119,0Z" transform="translate(0 0)" fill="none" stroke="#fff" stroke-width="1"/>
          </g>
        </g>
        <g id="Group_799" data-name="Group 799" transform="translate(58.173 10.252)">
          <path id="Path_91" data-name="Path 91" d="M1.208.525q.318.886.611,1.791-.253,2.628-.736,5.2c-.251-.2-.5-.392-.754-.585A58.622,58.622,0,0,0,0,.54C.3.362.608.183.91,0Z" transform="translate(0 0)" fill="none" stroke="#fff" stroke-width="1"/>
        </g>
        <g id="Group_800" data-name="Group 800" transform="translate(0.096 17.979)">
          <path id="Path_92" data-name="Path 92" d="M0,0A15.905,15.905,0,0,0,.6,2.9H6.416V1.637H3.4V.454Z" transform="translate(0 0)" fill="none" stroke="#fff" stroke-width="1"/>
        </g>
        <g id="Group_801" data-name="Group 801" transform="translate(41.642 14.968)">
          <path id="Path_93" data-name="Path 93" d="M6,0a6,6,0,1,0,6,6A6,6,0,0,0,6,0ZM6,9.5A3.5,3.5,0,1,1,9.5,6,3.5,3.5,0,0,1,6,9.5Z" transform="translate(0 0)" fill="none" stroke="#fff" stroke-width="1"/>
        </g>
        <g id="Group_802" data-name="Group 802" transform="translate(46.64 19.968)">
          <path id="Path_94" data-name="Path 94" d="M1,2A1,1,0,1,1,2,1,1,1,0,0,1,1,2Z" transform="translate(0 0)" fill="none" stroke="#fff" stroke-width="1"/>
        </g>
        <g id="Group_803" data-name="Group 803" transform="translate(7.389 14.968)">
          <path id="Path_95" data-name="Path 95" d="M6,0a6,6,0,1,0,6,6A6,6,0,0,0,6,0ZM6,9.5A3.5,3.5,0,1,1,9.5,6,3.5,3.5,0,0,1,6,9.5Z" transform="translate(0 0)" fill="none" stroke="#fff" stroke-width="1"/>
        </g>
        <g id="Group_804" data-name="Group 804" transform="translate(12.389 19.968)">
          <path id="Path_96" data-name="Path 96" d="M1,2A1,1,0,1,1,2,1,1,1,0,0,1,1,2Z" transform="translate(0 0)" fill="none" stroke="#fff" stroke-width="1"/>
        </g>
        <g id="Group_805" data-name="Group 805" transform="translate(54.716 18.695)">
          <path id="Path_97" data-name="Path 97" d="M4.228.512,1.714,0,0,2.18H3.824S4,1.51,4.228.512Z" transform="translate(0 0)" fill="none" stroke="#fff" stroke-width="1"/>
        </g>
      </g>
      <g id="Group_807" data-name="Group 807" transform="translate(19.175 5.718)">
        <path id="Path_98" data-name="Path 98" d="M2.871,2.733,2.568.5C2.514.094,2.024-.12,1.5.071.379.484-.05,2.832,0,2.938c.3.576,1.056.537,1.947.532C2.514,3.47,2.926,3.135,2.871,2.733Z" transform="translate(0 0)" fill="none" stroke="#fff" stroke-width="1"/>
      </g>
    </g>
    <g id="wrench_1_" data-name="wrench (1)" transform="translate(238.193 526.801) rotate(16)">
      <g id="Group_744" data-name="Group 744" transform="translate(0 0)">
        <g id="Group_743" data-name="Group 743" transform="translate(0 0)">
          <path id="Path_49" data-name="Path 49" d="M19.583,2.96a.575.575,0,0,0-.975-.326l-.813.813a1.177,1.177,0,0,1-1.626,0,1.148,1.148,0,0,1,0-1.625l.813-.813a.575.575,0,0,0-.326-.975A3.448,3.448,0,0,0,12.838,4.34l-8.5,8.5h0A3.449,3.449,0,0,0,.034,16.656a.575.575,0,0,0,.975.326l.813-.813a1.177,1.177,0,0,1,1.626,0,1.148,1.148,0,0,1,0,1.625l-.813.813a.575.575,0,0,0,.326.975,3.448,3.448,0,0,0,3.818-4.306l8.5-8.5h0A3.449,3.449,0,0,0,19.583,2.96Z" transform="translate(0 0)" fill="none" stroke="rgba(255,255,255,0.32)" stroke-width="1"/>
        </g>
      </g>
      <g id="Group_746" data-name="Group 746" transform="translate(10.621 10.621)">
        <g id="Group_745" data-name="Group 745" transform="translate(0 0)">
          <path id="Path_50" data-name="Path 50" d="M5.547,2.1a3.4,3.4,0,0,0-.881.128L2.439,0,0,2.438,2.227,4.666a3.4,3.4,0,0,0-.128.882A3.448,3.448,0,1,0,5.547,2.1ZM7.433,5.432,7.091,6.707a.576.576,0,0,1-.406.406L5.41,7.456a.574.574,0,0,1-.555-.149l-.933-.933a.574.574,0,0,1-.149-.555l.342-1.275a.576.576,0,0,1,.406-.406L5.8,3.8a.571.571,0,0,1,.555.149l.933.933A.574.574,0,0,1,7.433,5.432Z" transform="translate(0 0)" fill="none" stroke="rgba(255,255,255,0.32)" stroke-width="1"/>
        </g>
      </g>
      <g id="Group_748" data-name="Group 748" transform="translate(0 0)">
        <g id="Group_747" data-name="Group 747" transform="translate(0 0)">
          <path id="Path_51" data-name="Path 51" d="M6.778,4.308A3.462,3.462,0,0,0,5.885.977a3.532,3.532,0,0,0-4.877,0A3.449,3.449,0,0,0,4.34,6.746L6.557,9,9,6.557Zm-1.5-1.066L4.933,4.517a.576.576,0,0,1-.406.406l-1.275.342A.574.574,0,0,1,2.7,5.117l-.933-.933a.574.574,0,0,1-.149-.555l.342-1.275a.576.576,0,0,1,.406-.406l1.275-.342a.573.573,0,0,1,.555.149l.933.933A.574.574,0,0,1,5.275,3.242Z" fill="none" stroke="rgba(255,255,255,0.32)" stroke-width="1"/>
        </g>
      </g>
    </g>
    <g id="Group_1463" data-name="Group 1463" transform="matrix(0.966, 0.259, -0.259, 0.966, 256.236, 576.482)" opacity="0.32">
      <g id="Iconly_Two-tone_Paper" data-name="Iconly/Two-tone/Paper">
        <g id="Paper">
          <path id="Stroke_1" data-name="Stroke 1" d="M12.541,0H4.585A4.568,4.568,0,0,0,0,4.46V17.271a4.576,4.576,0,0,0,4.585,4.677h9.554a4.649,4.649,0,0,0,4.46-4.677V6.31Z" fill="none" stroke="#f5f6fa" stroke-linecap="round" stroke-linejoin="round" stroke-miterlimit="10" stroke-width="1.5"/>
        </g>
      </g>
      <g id="Iconly_Curved_Profile" data-name="Iconly/Curved/Profile" transform="translate(5.119 5.283)">
        <g id="Profile">
          <path id="Stroke_1-2" data-name="Stroke 1" d="M4.087,4.359C1.882,4.359,0,4.016,0,2.642S1.87,0,4.087,0,8.173,1.256,8.173,2.63,6.3,4.359,4.087,4.359Z" transform="translate(0 7.142)" fill="none" stroke="#f5f6fa" stroke-linecap="round" stroke-linejoin="round" stroke-miterlimit="10" stroke-width="1.5"/>
          <path id="Stroke_3" data-name="Stroke 3" d="M2.619,5.238a2.61,2.61,0,1,0-.018,0Z" transform="translate(1.463 0)" fill="none" stroke="#f5f6fa" stroke-linecap="round" stroke-linejoin="round" stroke-miterlimit="10" stroke-width="1.5"/>
        </g>
      </g>
    </g>
    <path id="wheel" d="M25.3,11.179l-1.419-.142A10.938,10.938,0,0,0,23.495,9.6l1.156-.831a1.093,1.093,0,0,0,.309-1.437l-.874-1.512a1.093,1.093,0,0,0-1.4-.451l-1.294.585a10.961,10.961,0,0,0-1.058-1.058l.585-1.3a1.094,1.094,0,0,0-.451-1.4l-1.512-.873a1.092,1.092,0,0,0-1.437.309l-.831,1.156a10.77,10.77,0,0,0-1.441-.383L15.105.987A1.093,1.093,0,0,0,14.014,0H12.268a1.091,1.091,0,0,0-1.09.986L11.036,2.4a10.937,10.937,0,0,0-1.441.383L8.763,1.633a1.092,1.092,0,0,0-1.437-.309L5.815,2.2a1.093,1.093,0,0,0-.451,1.4l.585,1.294A10.719,10.719,0,0,0,4.891,5.949L3.6,5.363a1.093,1.093,0,0,0-1.4.452L1.324,7.326a1.092,1.092,0,0,0,.309,1.437l1.156.831a10.77,10.77,0,0,0-.383,1.441l-1.419.142A1.093,1.093,0,0,0,0,12.269v1.747a1.091,1.091,0,0,0,.986,1.09l1.419.142a10.937,10.937,0,0,0,.383,1.441l-1.156.831a1.093,1.093,0,0,0-.309,1.437L2.2,20.469a1.091,1.091,0,0,0,1.4.451l1.294-.585a10.961,10.961,0,0,0,1.058,1.058l-.585,1.3a1.094,1.094,0,0,0,.451,1.4l1.512.873a1.09,1.09,0,0,0,1.437-.309l.831-1.156a10.77,10.77,0,0,0,1.441.383l.142,1.419a1.1,1.1,0,0,0,1.092.986h1.747a1.091,1.091,0,0,0,1.09-.986l.142-1.419a10.937,10.937,0,0,0,1.441-.383l.831,1.156a1.093,1.093,0,0,0,1.437.309l1.512-.873a1.093,1.093,0,0,0,.451-1.4l-.585-1.294a10.962,10.962,0,0,0,1.058-1.058l1.3.585a1.092,1.092,0,0,0,1.4-.451l.873-1.512a1.093,1.093,0,0,0-.309-1.437l-1.156-.831a10.77,10.77,0,0,0,.383-1.441l1.419-.142a1.1,1.1,0,0,0,.986-1.092V12.268A1.091,1.091,0,0,0,25.3,11.179Zm-12.156-5.7a7.671,7.671,0,0,1,7.578,6.571H15.647A2.74,2.74,0,0,0,13.142,10.4a2.71,2.71,0,0,0-.3.031L10.3,6.028a7.619,7.619,0,0,1,2.842-.552ZM5.476,13.142A7.652,7.652,0,0,1,8.4,7.126l2.54,4.4a2.691,2.691,0,0,0,0,3.234l-2.54,4.4A7.65,7.65,0,0,1,5.476,13.142Zm7.666,7.666a7.6,7.6,0,0,1-2.842-.553l2.544-4.406a2.663,2.663,0,0,0,.3.031,2.74,2.74,0,0,0,2.506-1.643H20.72A7.671,7.671,0,0,1,13.142,20.807Z" transform="translate(285.189 616.496) rotate(30)" fill="none" stroke="rgba(255,255,255,0.32)" stroke-width="1"/>
    <path id="Path_158" data-name="Path 158" d="M.141,3.152A60.975,60.975,0,0,0,13.781,5.115,32.389,32.389,0,0,0,25.9,3.541a14.559,14.559,0,0,0,2.74-1.4A28.23,28.23,0,0,0,30.956.16a.623.623,0,0,1,.971.758c-.913,1.651-2.837,2.74-4.527,3.458a21.137,21.137,0,0,1-5.673,1.418A48.579,48.579,0,0,1,7.991,5.5,38.05,38.05,0,0,1,.083,3.366c-.136-.058-.1-.253.058-.214Z" transform="matrix(0.438, -0.899, 0.899, 0.438, 415.598, 586.793)" fill="#fff"/>
    <g id="Group_1481" data-name="Group 1481" transform="translate(176.082 525.818) rotate(-39)">
      <path id="Path_152" data-name="Path 152" d="M2.79.048A1.934,1.934,0,0,0,.757,1.122,5.251,5.251,0,0,0,0,3.723,3.363,3.363,0,0,0,.757,6.159a2.535,2.535,0,0,0,2.756.526A5.986,5.986,0,0,0,4.978,5.87,6.275,6.275,0,0,0,6.217,4.776,1.842,1.842,0,0,0,6.743,3.3a1.229,1.229,0,0,0-.815-.97A2.6,2.6,0,0,0,3.544,3.1,9.156,9.156,0,0,0,1.562,5.736,5.617,5.617,0,0,0,1.944,11.9a5.593,5.593,0,0,0,5.12,1.528,7.571,7.571,0,0,0,2.694-.908A2.2,2.2,0,0,0,10.8,11.361a1.267,1.267,0,0,0-.341-1.311A2.24,2.24,0,0,0,8,10.143a8.472,8.472,0,0,0-1.228.95A9.888,9.888,0,0,0,5.66,12.259a6.655,6.655,0,0,0-1.4,2.88,5.2,5.2,0,0,0,.33,3.066,3.755,3.755,0,0,0,2.075,1.982,3.658,3.658,0,0,0,2.725-.041,2.7,2.7,0,0,0,1.063-.795.488.488,0,0,0,.041-.64.482.482,0,0,0-.63-.124,2.73,2.73,0,0,0-1.012,3.437.485.485,0,0,0,.661.175.5.5,0,0,0,.175-.661,1.772,1.772,0,0,1,.671-2.106l-.6-.774a2.56,2.56,0,0,1-3.623.093A3.98,3.98,0,0,1,5.5,14.3a6.855,6.855,0,0,1,1.528-2.147,5.336,5.336,0,0,1,1.9-1.383,1.373,1.373,0,0,1,.805-.052c-.083-.031.124.062.041.01.072.041.052.041.083.093a.356.356,0,0,1,.021.3,1.689,1.689,0,0,1-.857.723,6.7,6.7,0,0,1-1.012.413,5.831,5.831,0,0,1-4.356-.114,4,4,0,0,1-1.982-4.18,6.06,6.06,0,0,1,.96-2.518,9.008,9.008,0,0,1,.846-1.135,5.171,5.171,0,0,1,.867-.846c.351-.237,1.177-.692,1.528-.237.237.32,0,.733-.206,1a5.519,5.519,0,0,1-1.012.95A3.564,3.564,0,0,1,2.2,6.159,1.764,1.764,0,0,1,.778,4.807,4.849,4.849,0,0,1,.736,2.629,3.577,3.577,0,0,1,1.748.606,1.271,1.271,0,0,1,2.759.265c.134.021.155-.186.031-.217Z" transform="translate(0 0)" fill="#fff"/>
    </g>
    <g id="Group_1487" data-name="Group 1487" transform="translate(155.367 641.477) rotate(-169)">
      <g id="Group_1482" data-name="Group 1482" transform="translate(0 0)">
        <path id="Path_153" data-name="Path 153" d="M.176.485A16.181,16.181,0,0,1,7.719,5.32C9.5,7.254,10.9,9.852,10.3,12.546a6.761,6.761,0,0,1-.7,1.934,8.918,8.918,0,0,1-1.326,1.561.353.353,0,0,0,.345.58c1.3-.359,2.224-1.851,2.68-3.026a7.137,7.137,0,0,0,.124-4.2c-.815-3.178-3.385-5.651-6.01-7.433A12.731,12.731,0,0,0,2.925.609,8.581,8.581,0,0,0,.231,0C-.045-.026-.086.416.176.485Z" fill="#fff"/>
      </g>
      <g id="Group_1483" data-name="Group 1483" transform="translate(3.603 5.284)">
        <path id="Path_154" data-name="Path 154" d="M.151.6A8.1,8.1,0,0,1,3.177,4.071,6.58,6.58,0,0,1,3.771,6.24a10.1,10.1,0,0,1,.041,1.119A5.405,5.405,0,0,0,3.771,8.6a.457.457,0,0,0,.829.111,2.5,2.5,0,0,0,.332-1.354A5.976,5.976,0,0,0,4.9,6.046,8.327,8.327,0,0,0,4.13,3.5,6.71,6.71,0,0,0,.386.023C.041-.115-.153.41.151.6Z" transform="translate(0 0)" fill="#fff"/>
      </g>
    </g>
    <path id="Path_844" data-name="Path 844" d="M.133,2.813A57.186,57.186,0,0,1,12.925.972,30.377,30.377,0,0,1,24.3,2.448,13.654,13.654,0,0,1,26.864,3.76a26.475,26.475,0,0,1,2.168,1.859.585.585,0,0,0,.911-.711A8.578,8.578,0,0,0,25.7,1.665,19.824,19.824,0,0,0,20.377.335,45.56,45.56,0,0,0,7.494.608a35.686,35.686,0,0,0-7.416,2c-.128.055-.091.237.055.2Z" transform="matrix(0.407, 0.914, -0.914, 0.407, 301.043, 534.693)" fill="#fff"/>
    <g id="Group_2484" data-name="Group 2484" transform="matrix(-0.259, -0.966, 0.966, -0.259, 349.299, 644.215)">
      <path id="Path_152-2" data-name="Path 152" d="M2.79.048A1.934,1.934,0,0,0,.757,1.122,5.251,5.251,0,0,0,0,3.723,3.363,3.363,0,0,0,.757,6.159a2.535,2.535,0,0,0,2.756.526A5.986,5.986,0,0,0,4.978,5.87,6.275,6.275,0,0,0,6.217,4.776,1.842,1.842,0,0,0,6.743,3.3a1.229,1.229,0,0,0-.815-.97A2.6,2.6,0,0,0,3.544,3.1,9.156,9.156,0,0,0,1.562,5.736,5.617,5.617,0,0,0,1.944,11.9a5.593,5.593,0,0,0,5.12,1.528,7.571,7.571,0,0,0,2.694-.908A2.2,2.2,0,0,0,10.8,11.361a1.267,1.267,0,0,0-.341-1.311A2.24,2.24,0,0,0,8,10.143a8.472,8.472,0,0,0-1.228.95A9.888,9.888,0,0,0,5.66,12.259a6.655,6.655,0,0,0-1.4,2.88,5.2,5.2,0,0,0,.33,3.066,3.755,3.755,0,0,0,2.075,1.982,3.658,3.658,0,0,0,2.725-.041,2.7,2.7,0,0,0,1.063-.795.488.488,0,0,0,.041-.64.482.482,0,0,0-.63-.124,2.73,2.73,0,0,0-1.012,3.437.485.485,0,0,0,.661.175.5.5,0,0,0,.175-.661,1.772,1.772,0,0,1,.671-2.106l-.6-.774a2.56,2.56,0,0,1-3.623.093A3.98,3.98,0,0,1,5.5,14.3a6.855,6.855,0,0,1,1.528-2.147,5.336,5.336,0,0,1,1.9-1.383,1.373,1.373,0,0,1,.805-.052c-.083-.031.124.062.041.01.072.041.052.041.083.093a.356.356,0,0,1,.021.3,1.689,1.689,0,0,1-.857.723,6.7,6.7,0,0,1-1.012.413,5.831,5.831,0,0,1-4.356-.114,4,4,0,0,1-1.982-4.18,6.06,6.06,0,0,1,.96-2.518,9.008,9.008,0,0,1,.846-1.135,5.171,5.171,0,0,1,.867-.846c.351-.237,1.177-.692,1.528-.237.237.32,0,.733-.206,1a5.519,5.519,0,0,1-1.012.95A3.564,3.564,0,0,1,2.2,6.159,1.764,1.764,0,0,1,.778,4.807,4.849,4.849,0,0,1,.736,2.629,3.577,3.577,0,0,1,1.748.606,1.271,1.271,0,0,1,2.759.265c.134.021.155-.186.031-.217Z" transform="translate(0 0)" fill="#fff"/>
    </g>
    <g id="Group_2485" data-name="Group 2485" transform="matrix(0.53, 0.848, -0.848, 0.53, 231.027, 617.463)">
      <path id="Path_152-3" data-name="Path 152" d="M2.79.048A1.934,1.934,0,0,0,.757,1.122,5.251,5.251,0,0,0,0,3.723,3.363,3.363,0,0,0,.757,6.159a2.535,2.535,0,0,0,2.756.526A5.986,5.986,0,0,0,4.978,5.87,6.275,6.275,0,0,0,6.217,4.776,1.842,1.842,0,0,0,6.743,3.3a1.229,1.229,0,0,0-.815-.97A2.6,2.6,0,0,0,3.544,3.1,9.156,9.156,0,0,0,1.562,5.736,5.617,5.617,0,0,0,1.944,11.9a5.593,5.593,0,0,0,5.12,1.528,7.571,7.571,0,0,0,2.694-.908A2.2,2.2,0,0,0,10.8,11.361a1.267,1.267,0,0,0-.341-1.311A2.24,2.24,0,0,0,8,10.143a8.472,8.472,0,0,0-1.228.95A9.888,9.888,0,0,0,5.66,12.259a6.655,6.655,0,0,0-1.4,2.88,5.2,5.2,0,0,0,.33,3.066,3.755,3.755,0,0,0,2.075,1.982,3.658,3.658,0,0,0,2.725-.041,2.7,2.7,0,0,0,1.063-.795.488.488,0,0,0,.041-.64.482.482,0,0,0-.63-.124,2.73,2.73,0,0,0-1.012,3.437.485.485,0,0,0,.661.175.5.5,0,0,0,.175-.661,1.772,1.772,0,0,1,.671-2.106l-.6-.774a2.56,2.56,0,0,1-3.623.093A3.98,3.98,0,0,1,5.5,14.3a6.855,6.855,0,0,1,1.528-2.147,5.336,5.336,0,0,1,1.9-1.383,1.373,1.373,0,0,1,.805-.052c-.083-.031.124.062.041.01.072.041.052.041.083.093a.356.356,0,0,1,.021.3,1.689,1.689,0,0,1-.857.723,6.7,6.7,0,0,1-1.012.413,5.831,5.831,0,0,1-4.356-.114,4,4,0,0,1-1.982-4.18,6.06,6.06,0,0,1,.96-2.518,9.008,9.008,0,0,1,.846-1.135,5.171,5.171,0,0,1,.867-.846c.351-.237,1.177-.692,1.528-.237.237.32,0,.733-.206,1a5.519,5.519,0,0,1-1.012.95A3.564,3.564,0,0,1,2.2,6.159,1.764,1.764,0,0,1,.778,4.807,4.849,4.849,0,0,1,.736,2.629,3.577,3.577,0,0,1,1.748.606,1.271,1.271,0,0,1,2.759.265c.134.021.155-.186.031-.217Z" transform="translate(0 0)" fill="#fff"/>
    </g>
  </g>
</svg>
