<svg xmlns="http://www.w3.org/2000/svg" width="17.056" height="17.056" viewBox="0 0 17.056 17.056">
  <g id="Group_2501" data-name="Group 2501" transform="translate(-700.25 -44.694)">
    <path id="Stroke_4" data-name="Stroke 4" d="M.5,8.278C.5,2.221,2.221.5,8.278.5a12.781,12.781,0,0,1,4.876.743c2.111.814,2.9,2.928,2.9,7.034,0,6.057-1.721,7.778-7.778,7.778S.5,14.335.5,8.278Z" transform="translate(700.5 44.944)" fill="#474546" stroke="#474546" stroke-linecap="round" stroke-linejoin="round" stroke-miterlimit="10" stroke-width="1.5"/>
    <g id="Iconly_Bulk_Location" data-name="Iconly/Bulk/Location" transform="translate(705.09 48.722)">
      <g id="Location" transform="translate(0 0)">
        <path id="Path_34175" d="M3.912,8.974h0a.478.478,0,0,1-.217-.062,10.061,10.061,0,0,1-2.688-2.4A4.722,4.722,0,0,1,0,3.766,3.752,3.752,0,0,1,1.962.495,4,4,0,0,1,5.87.525a3.918,3.918,0,0,1,1.4,1.411,3.763,3.763,0,0,1,.5,1.9A5.434,5.434,0,0,1,6,7.41,10.332,10.332,0,0,1,4.138,8.9a.678.678,0,0,1-.226.076ZM3.885,2.559a1.334,1.334,0,0,0-.933.373,1.245,1.245,0,0,0-.289,1.394,1.319,1.319,0,0,0,1.221.79h.008a1.326,1.326,0,0,0,.926-.37,1.257,1.257,0,0,0,.386-.9,1.275,1.275,0,0,0-.813-1.185A1.351,1.351,0,0,0,3.885,2.559Z" transform="translate(0 0)" fill="#fff"/>
      </g>
    </g>
  </g>
</svg>
