<svg xmlns="http://www.w3.org/2000/svg" width="26" height="26" viewBox="0 0 26 26">
  <g id="Group_1689" data-name="Group 1689" transform="translate(-411.801 -31.526)">
    <path id="Stroke_3" data-name="Stroke 3" d="M0,13C0,3.251,3.251,0,13,0S26,3.251,26,13,22.749,26,13,26,0,22.749,0,13Z" transform="translate(411.801 31.526)" fill="#474546"/>
    <g id="Iconly_Curved_Profile" data-name="Iconly/Curved/Profile" transform="translate(415 35)">
      <g id="Profile" transform="translate(4.167 2)">
        <path id="Stroke_1" data-name="Stroke 1" d="M5.7,6.083C2.627,6.083,0,5.6,0,3.687S2.611,0,5.7,0c3.077,0,5.7,1.753,5.7,3.67S8.8,6.083,5.7,6.083Z" transform="translate(0 9.968)" fill="none" stroke="#f5f6fa" stroke-linecap="round" stroke-linejoin="round" stroke-miterlimit="10" stroke-width="1"/>
        <path id="Stroke_3-2" data-name="Stroke 3" d="M3.656,7.311a3.643,3.643,0,1,0-.026,0Z" transform="translate(2.042)" fill="none" stroke="#f5f6fa" stroke-linecap="round" stroke-linejoin="round" stroke-miterlimit="10" stroke-width="1"/>
      </g>
    </g>
  </g>
</svg>
