<svg xmlns="http://www.w3.org/2000/svg" width="16.601" height="18.86" viewBox="0 0 16.601 18.86">
  <g id="Group_2923" data-name="Group 2923" transform="translate(-94.203 -669.977)">
    <path id="Path_1093" data-name="Path 1093" d="M104.311,681.541,110.2,684.6a.415.415,0,0,0,.533-.6l-1.375-2a.9.9,0,0,0,.093-.143l.292-.562a.867.867,0,0,0-1.483-.892l-.613-.892.24-.463a.869.869,0,0,0-1.033-1.229.873.873,0,0,0-.271.144l-.182-.265c1.593-3.294,2.633-7.029,1.468-7.635s-3.808,2.358-5.606,5.573l-.454.005a.853.853,0,0,0-.031-.371.869.869,0,0,0-1.6-.139l-.275.53-1.075.011a.867.867,0,0,0-1.555-.768l-.292.563a.887.887,0,0,0-.076.226l-2.291.024a.416.416,0,0,0-.187.784l5.887,3.059a16.194,16.194,0,0,0-.914,3.576c-.059.35-.115.685-.178.986l-3.083.975a.415.415,0,0,0,.147.811,6.962,6.962,0,0,1,5.305,2.782.415.415,0,0,0,.718-.387l-.972-3.076.34-.372A22.7,22.7,0,0,0,104.311,681.541Zm-6.209,3.8,1.6-.505a.415.415,0,0,0,.279-.3c.092-.384.164-.813.24-1.268a14.364,14.364,0,0,1,1.008-3.733.415.415,0,0,0-.186-.54l-4.755-2.471.9-.009a.88.88,0,0,0,.169.118.865.865,0,0,0,.662.057.858.858,0,0,0,.321-.187l1.552-.016a.864.864,0,0,0,.769.471.883.883,0,0,0,.263-.041.863.863,0,0,0,.509-.428l.01-.019,1.076-.011a.416.416,0,0,0,.36-.217c1.97-3.609,4.065-5.4,4.6-5.438.224.414-.012,2.857-1.93,6.739a.416.416,0,0,0,.03.419l.518.755-.045.087a.869.869,0,0,0,.77,1.269.891.891,0,0,0,.191-.023l.824,1.2a.863.863,0,0,0,.442.973.884.884,0,0,0,.289.091l.539.785-4.755-2.471a.416.416,0,0,0-.55.158,20.586,20.586,0,0,1-2.735,3.5c-.182.2-.352.384-.506.557a.415.415,0,0,0-.085.4l.522,1.65A7.954,7.954,0,0,0,98.1,685.34Zm-.532-9.574.292-.563a.2.2,0,0,1,.182-.11.2.2,0,0,1,.18.3l-.292.562h0a.2.2,0,0,1-.119.1.2.2,0,0,1-.156-.014.2.2,0,0,1-.087-.275Zm3.2-.336a.2.2,0,0,1,.182-.11.2.2,0,0,1,.194.143.2.2,0,0,1-.013.156l-.292.563a.2.2,0,1,1-.363-.189Zm6.286,3.015a.2.2,0,0,1,.062-.01.205.205,0,0,1,.094.023.2.2,0,0,1,.087.275L107,679.3a.2.2,0,0,1-.362-.189h0l.292-.562A.2.2,0,0,1,107.053,678.446Zm1.443,2.909.292-.562a.2.2,0,0,1,.275-.087.2.2,0,0,1,.1.12.2.2,0,0,1-.014.155l-.292.563a.205.205,0,0,1-.12.1.21.21,0,0,1-.156-.013.2.2,0,0,1-.1-.12A.205.205,0,0,1,108.5,681.355Z" transform="translate(0 0)" fill="#fba303"/>
  </g>
</svg>
