<svg xmlns="http://www.w3.org/2000/svg" width="30" height="30" viewBox="0 0 30 30">
  <g id="Group_1666" data-name="Group 1666" transform="translate(-1495.175 -426)">
    <g id="Group_1407" data-name="Group 1407" transform="translate(1495.175 426)">
      <path id="Stroke_3" data-name="Stroke 3" d="M0,15C0,3.751,3.751,0,15,0S30,3.751,30,15,26.249,30,15,30,0,26.249,0,15Z" transform="translate(0 0)" fill="#db143d"/>
      <path id="Stroke_1" data-name="Stroke 1" d="M4.363,10.178C-.916,4.9-.166,2.48.391,1.7.462,1.575,2.224-1.062,4.113.485,8.8,4.346,2.866,3.8,6.8,7.738s3.392-2,7.252,2.689c1.548,1.89-1.09,3.652-1.215,3.722C12.061,14.707,9.642,15.457,4.363,10.178Z" transform="translate(7.729 7.424)" fill="#fff"/>
    </g>
  </g>
</svg>
