<svg xmlns="http://www.w3.org/2000/svg" width="233.564" height="151.009" viewBox="0 0 233.564 151.009">
  <g id="Group_2425" data-name="Group 2425" transform="translate(24.665) rotate(14)">
    <path id="Path_584" data-name="Path 584" d="M12.972,85.825a22.727,22.727,0,0,0,7.795,9.3,19.18,19.18,0,0,0,8.55,2.869,24.2,24.2,0,0,0,7.931-.332c6.013-1.362,10.89-4.365,13.48-10.254.341-.78.854-.665,1.388-.64,3.955.19,7.908-.1,11.856-.155,6.38-.093,12.738.613,19.125.169s12.824-.6,19.237-.879c1.592-.068,3.186-.063,4.774-.182.76-.057.967.145,1.033.913A22.306,22.306,0,0,0,114.31,100.2a4.522,4.522,0,0,0,3.016,1.483,69.5,69.5,0,0,0,11.561.064c2.5-.156,4.964-.121,7.406-1.014a12.014,12.014,0,0,0,5.582-4.411A28.311,28.311,0,0,0,146.825,84.4a1.885,1.885,0,0,1,1.761-1.794,116.142,116.142,0,0,0,12.565-3.914c5.987-2.047,12.169-3.4,18.26-5.078.863-.239,1.159.013,1.135.855-.092,3.238,1.191,6.094,2.364,9.017,1.136,2.83,3.214,3.84,6.027,3.668a39.67,39.67,0,0,0,9.107-1.518,4.732,4.732,0,0,0,3.023-2.7,41.409,41.409,0,0,0,3.316-12.682,51.067,51.067,0,0,0,.292-9.1c-.032-.65-.046-1.291.8-1.462a21.792,21.792,0,0,0,6.155-8.259c.968-2.048,2.373-3.854,3.3-5.935a2.806,2.806,0,0,0,.179-2.363,59.884,59.884,0,0,1-2.661-9.437,11.147,11.147,0,0,0-3.3-5.322c-1.155-1.13-2.734-1.074-4.181-1.38-4.229-.9-8.547-1.493-12.271-3.985a16.564,16.564,0,0,1-3.28-2.586c-6.5-7.286-14.9-11.067-24.231-13.121-.373-.082-.737-.208-1.106-.314-1.8-.284-3.6-.592-5.413-.849-3.225-.461-6.456-.894-9.684-1.337-.718-.095-1.437-.176-2.152-.286-2.025-.307-2.014-.313-2.093-2.46-.026-.695.157-1.464-.6-2.056-.716.921-.386,1.962-.35,2.905.038,1.034-.269,1.318-1.293,1.225a231.489,231.489,0,0,0-26.473-.556c-8.969.211-17.951.278-26.889,1.128-3.579.341-7.219.5-10.576,2.126a8.342,8.342,0,0,0-3.816,3.211,29.478,29.478,0,0,1-4.025,5.029c-4.426,4.876-7.936,10.443-11.976,15.609a4.739,4.739,0,0,1-.4.405c-.768,1.857-2.763,2.24-4.122,3.389a8.292,8.292,0,0,1-3.672,1.613c-3.676.809-7.415,1.2-11.12,1.806-6.748,1.1-13.47,2.36-20.2,3.552A37.012,37.012,0,0,1,12.6,42.852,9.993,9.993,0,0,0,5.83,47.119C4.6,48.788,3.529,50.576,2.2,52.157.7,53.949.65,55.894,1.071,58a16.607,16.607,0,0,0,2.774,6.453c.64.9.617,1.4-.642,1.338a3.527,3.527,0,0,0-2.179.643A1.867,1.867,0,0,0,.749,69.6a8.51,8.51,0,0,0,2.163,1.418c3.821,1.694,5.985,5.042,7.878,8.413C11.854,81.323,12.215,83.693,12.972,85.825Zm63.312-55.9c.2-.241.408-.374.763-.021h-.779c-.182.368-.517.33-.842.314-3.369,1.248-6.557,3.126-10.319,3a33.981,33.981,0,0,1,10.029-3C75.452,29.853,75.889,29.964,76.284,29.922Zm64.484,31.719A14.509,14.509,0,0,0,136.879,59c2.095-.343,3.15.953,4.066,2.468l.115.281ZM11.99,80.033l2.629,1.4a1.765,1.765,0,0,1,1.725,1.829,15.248,15.248,0,0,0,1.5,4.662,2.723,2.723,0,0,0,1.385,1.556,2.921,2.921,0,0,0-.431-1.75c-.536-1.5-1.067-3-1.552-4.51-.112-.349.009-1.239.4-.759.785.953,1.424.146,2.1.229a16.481,16.481,0,0,1,3.829.639c.865.328.666,1.616,1.115,2.4.286.5.5,1.048.813,1.53a5.417,5.417,0,0,0,3.122,2.169A3.787,3.787,0,0,0,27.5,88.124a6.642,6.642,0,0,1-2.36-3.551c-.111-.309-.436-.776.133-.972.413-.142.732.121.92.514.084.172.19.336.27.511,2.362,5.2,11.16,5.343,14.38,1.592a1.292,1.292,0,0,1,1.463-.561c2.09.6,4.283.565,6.4,1.036.738.166.722.469.5.987a9.954,9.954,0,0,1-2.529,3.488c-3.487,3.141-7.356,5.409-12.213,5.611-4.594.191-8.989-.148-13.057-2.734-4.13-2.622-6.617-6.367-8.352-10.768a4.792,4.792,0,0,1-1.042-3.266c-.035-.01-.068-.023-.1-.035Zm73-53.787a3.188,3.188,0,0,1-2.829.878c.92-.871,1.641-1.693,2.829-1.8,2.355-1.424,8.053-.534,10.337,1.8C91.909,26.458,88.558,24.775,84.994,26.246Zm-6.668,3.163c-.213.256-.466.242-.844.068l.849-.3a8.124,8.124,0,0,1,2.788-.7c6.463-.581,12.924-.222,19.385.014.353.012.794-.128,1.049.448C93.788,29.674,86.032,28.468,78.326,29.409Zm40.54,1.061a22.162,22.162,0,0,1,5.722-.444q7.186.65,14.363,1.4c.763.078,1.607-.005,2.224.862-6.77-.2-13.484-1.643-20.276-.96-3.74.378-7.473.827-11.22,1.1-1.765.13-3.582.68-5.725-.263C109.148,31.331,114.009,30.919,118.866,30.47ZM27.383,84.045c4.239.549,8.449,1.318,12.9,1.526-2.858,3.063-8.444,2.591-10.806,1.115A4.439,4.439,0,0,1,27.3,84.127c-.029-.052-.057-.1-.086-.155C27.269,84,27.326,84.02,27.383,84.045Zm124.5-68.617a17.191,17.191,0,0,1,.381-2.221,1.7,1.7,0,0,0-.968-2.31c-1.127-.245-2.246-.561-3.384-.722-2.907-.412-2.854-.386-2.935-3.364-.031-1.106.384-1.322,1.326-1.191,2.192.306,4.388.583,6.582.882a92.732,92.732,0,0,1,11.536,1.875,49.484,49.484,0,0,1,15.948,5.979,43.589,43.589,0,0,1,8.154,6.88,22.647,22.647,0,0,0,3.634,2.842c3.9,2.583,8.391,3.4,12.852,4.059a6.9,6.9,0,0,1,6,5.055c.977,2.957,1.615,6.025,2.395,9.018a12.68,12.68,0,0,0-3.8,2.107c-.618.409-.52,1.235-.288,1.879.218.6.835.6,1.368.55.758-.064,1.51-.184,2.263-.279.015.11.043.166.024.2-1.192,2.2-2.415,4.379-3.579,6.592a16.462,16.462,0,0,1-3.5,4.558c-.359.492-.721.983-1.309,1.791-.208-2.729-1.21-4.963-1.04-7.394a30.7,30.7,0,0,0,.239-3.712c-.157-3.119-2.536-4.358-5.214-2.795a12.149,12.149,0,0,0-2.553,2.507,68.265,68.265,0,0,0-5.123,10.1,33.645,33.645,0,0,1-2.968,6.983q-.106.329-.213.655a10.249,10.249,0,0,1-.516,1.794c-.643,1.3-1.385,2.667-2.8,3.176a122.151,122.151,0,0,1-15.976,4.489c-1.329.423-2.644.9-3.988,1.261-4.229,1.148-8.223,3.035-12.519,3.971a8.833,8.833,0,0,1-2.432.829c-2.362.659-2.328.651-2.23-1.8A1.136,1.136,0,0,1,148.3,78.4c.992-.169,1.985-.319,2.978-.477l7.459-2.238c4.006-1.2,8.029-2.339,12.1-3.308,3.858-1.182,7.857-1.754,11.764-2.728.648-.163,1.775-.066,1.591-.96-.138-.668-1.168-.21-1.788-.1-2.644.478-5.217,1.3-7.9,1.606L151.34,76.816c-.5.144-1.005.308-1.516.427-2.454.575-2.45.569-2.861-1.95-.107-.662-.263-1.317-.372-1.978-.5-3.025-2.038-5.67-3.038-8.506a17.458,17.458,0,0,0-3.93-6.423c-1.941-1.16-3.8-.166-5.674.228a15.872,15.872,0,0,0-6.642,6.009,74.273,74.273,0,0,0-4.129,6.451c-.841-1.566-1.766-2.712-3.462-2.8a48.951,48.951,0,0,0-5.472.458c-1.117.648-2.341.071-3.525.334a8,8,0,0,1-9.77-7.212,13.835,13.835,0,0,1,.481-3.679l-.39-.283a13.066,13.066,0,0,0-.919,3.294,6.319,6.319,0,0,1,.149.841c.135,3.056,1.315,5.452,4.209,6.8.406.19.776.46,1.5.9a37.3,37.3,0,0,1-5.009.054c-.161.7.358.686.774.68,1.733-.028,3.47-.018,5.2-.146,3.885-.289,7.763-.652,11.645-.985,2.176-.08,3.227.551,3.63,2.178.123.493.194,1.027-.41,1.2-1.878.525-3.5,1.813-5.527,1.872a5.008,5.008,0,0,1-2.421.246c-2.648-.1-5.294-.28-7.944-.391-3.9-.161-7.8-.509-11.7.062a85.878,85.878,0,0,1-9.31,1.19c-5.509.2-10.97-.438-16.453-.806-11.687-.782-23.382-1.535-35.11-1.437-3.182.026-6.354-.27-9.528-.517C18.3,72.5,12.8,71.714,7.249,71.578c-2.227-.055-4.012-1.232-5.7-2.508-.877-.66-.759-1.514.245-1.91a7.2,7.2,0,0,1,4.054-.638c2.706.548,5.439.307,8.157.448,0-.269,0-.538,0-.806-1.823.107-3.638-.154-5.469-.088-1.084.038-2.485.174-3.193-.927C3.548,62.37,2.143,59.419,2.113,56a2.791,2.791,0,0,1,1.176-2.882l.244-.324c.581-1.457,1.846-2.44,2.6-3.768,2.126-3.724,5.463-5.2,9.595-5.227a3.753,3.753,0,0,1,.532-.2c9.68-2.185,19.451-3.855,29.273-5.248,3.959-.562,7.949-1.094,11.131-3.942a3.856,3.856,0,0,1,2.465-.7,22.256,22.256,0,0,0,2.586-.248,3.633,3.633,0,0,1,3.553.869,10.857,10.857,0,0,0,5.041-1.051,5.5,5.5,0,0,1,2.459-.779c3.525.255,7.029-.264,10.55-.215,6.169.089,12.339.059,18.51.079.377,0,.81-.127,1.067.255.772,1.144,1.958,1.159,3.11,1.088,2.354-.144,4.7-.427,7.054-.564a109.927,109.927,0,0,1,17.309.671c4.267.423,8.53.848,12.771,1.489.381.06.962-.078,1.064.514.078.447-.3.668-.646.857-.5.783-1.114,1.625-.108,2.4.9.7,1.93,1.19,2.946.1a3.262,3.262,0,0,0-.852-2.366c-.2-.3-.719-.455-.509-.929.218-.492.686-.265,1.014-.183,1.074.266,1.437-.266,1.67-1.209.378-1.535.874-3.039,1.319-4.555a19,19,0,0,1,.9-4.206C150.681,22.312,150.939,18.8,151.883,15.428Zm-40.843,14.7c-11.794,2.155-23.731.818-35.806,1.666a2.971,2.971,0,0,1,1.722-.9,25.212,25.212,0,0,1,7.3-.923c5.689-.136,11.377.556,17.07.031.689-.062,1.365-.039,1.754-.751.1-.334.352-.416.663-.442,5.514-.46,11.031-1.063,16.563.3ZM118.626,78.9c-.773.977-1.566,1.94-2.316,2.937a6.356,6.356,0,0,1-4.445,2.439c-2.717.347-5.461.522-8.2.635-6.4.264-12.795.509-19.191.8-5.854.264-11.721.746-17.6-.089-1.611-.229-1.761-.869-1.537-2.109-.742-2.179-.654-4.464-.872-6.713-.1-.979.214-1.262,1.187-1.165,3.115.312,6.234.572,9.353.82a70.4,70.4,0,0,0,12.984-.038c3.681-.389,7.279-1.475,11.031-1.253,4.426.262,8.867.16,13.286.572.768.07,1.7-.166,2.27.19.8.5-.38,1.365-.032,2.1.837,1.608,2.217,1.072,3.508.888a4.652,4.652,0,0,0,1.245-2.694c.046-1.627.674-2.174,2.45-2.129A16.212,16.212,0,0,1,118.626,78.9ZM113.38,90.473c.139-.137.278-.272.419-.408-.316-1.257-.635-2.514-.948-3.773-.269-1.082.481-1.381,1.273-1.5,1.078-.16.648.744.667,1.191a9.286,9.286,0,0,0,1.452,4.536,20.106,20.106,0,0,0-.863-4.288,2.1,2.1,0,0,1,1.315-2.9c1.3-1.639,2.6-3.278,4.019-5.069a2.959,2.959,0,0,1,.143.626c-.46,4.189.766,7.989,2.605,11.677a8.237,8.237,0,0,0,7.743,4.68,7.683,7.683,0,0,0,7.292-4.617c2.576-5.33,3.7-10.937,2.41-16.825-.763-3.467-2.447-6.263-6.142-7.353-2.4-.707-4.77-.34-7.151.019-.064.045-.158.144-.186.127-.164-.1-.071-.2.018-.3a15.977,15.977,0,0,1,4.732-5.57,3.623,3.623,0,0,1,3.445-.891,11.789,11.789,0,0,1,7.284,6.394c4.579,8.907,4.369,17.9-.152,26.775-1.158,2.272-2.529,4.508-4.8,5.863-5.132,3.063-12.213.774-15-2.241-2.94-3.183-4.315-7.118-5.223-11.262-.145-.659.055-1.507-.851-1.821a3.044,3.044,0,0,0-.1,1.7,27.109,27.109,0,0,0,3.857,9.912,10.5,10.5,0,0,0,5.879,5.1c.277.085.7.066.729.606a89.473,89.473,0,0,1-9.541-.228,4.144,4.144,0,0,1-2.787-1.269,21.083,21.083,0,0,1-5.658-11.647c-.344-2.3-.394-2.294,1.923-2.405.049,0,.1,0,.145-.007.564-.052.737.111.88.76A17.393,17.393,0,0,0,113.38,90.473Zm-68.9-6.968c-.308-2.575-.525-5.165-.964-7.718-.214-1.249.219-1.327,1.226-1.269q8.865.5,17.736.913c.884.04,1.186.359,1.2,1.184a45.325,45.325,0,0,0,.478,6.613c.487,2.126.279,2.376-1.806,2.251-.62-.038-1.245,0-1.867-.014-5.025-.091-10.076.593-15.065-.61C44.553,84.647,44.259,84.329,44.481,83.506ZM33.435,83.7c-3.6-.311-7.108-1.2-10.659-1.81-2.264-.387-4.629-.255-6.76-1.318a7.751,7.751,0,0,1-3.692-1.907c2.469.018,3.085-1.024,2.04-2.973a3.823,3.823,0,0,0-2.44-1.872c-1.323-.381-2.037.133-2.21,1.541.034.119.066.238.1.357L9.542,75.5a21.531,21.531,0,0,1-3.079-3.061c1.582.093,2.877.143,4.167.247,6.819.549,13.613,1.456,20.461,1.61,3.275.074,6.553,0,9.83,0,.6,0,1.09.018,1.243.834.534,2.848.605,5.742.985,8.6.08.6-.155.936-.805.85C39.384,84.192,36.372,84.323,33.435,83.7ZM97,26.931c-3.081-2.173-6.4-3.617-10.274-3.427A9.709,9.709,0,0,0,80.769,27c-.2.256-.49.263-.757.365a16.256,16.256,0,0,1-8.073.8,25.064,25.064,0,0,1-4.457.143c-.621,0-1.088-.164-.562-.932q3.094-4.519,6.162-9.057c1.189-1.69,2.362-3.39,3.57-5.064a8.278,8.278,0,0,1,4.307-3.238c4.448-1.366,9.019-1.309,13.6-1.16,5.6-.026,11.2-.069,16.8-.075,5.39-.006,10.769.11,16.154.515,4.465.337,8.974.053,13.4.991.428.027.857.081,1.286.074,1.51-.027,1.939.629,1.915,2.176-.1,6.166.016,12.335-.03,18.5-.009,1.149.922,2.759-.128,3.322-.882.472-2.394-.232-3.625-.416l-16.616-1.588a10.5,10.5,0,0,1,1.863-.142c4.977-.23,9.818,1.1,14.758,1.288a5.957,5.957,0,0,0,.85-.156c.667-.223,1.277-.53,1.238-1.381-.038-.822-.584-1.175-1.309-1.3-.52-.093-1.049-.13-1.574-.2-5.633-.709-11.328-.85-16.9-2.157a45.393,45.393,0,0,0-10.473-1.041c-3.716.006-7.424,1.368-11.163.022a11.526,11.526,0,0,0-2.711-.3l-.833-.013Zm92,38.6c1.258-3.08,2.488-6.172,3.783-9.236a38.086,38.086,0,0,1,5.18-8.838c.967-1.22,1.238-1.1,2.044.242,2.541,4.222,3.267,8.946,3.648,13.713a38.68,38.68,0,0,1-3.883,21.074,3.325,3.325,0,0,1-1.936,1.847,27.567,27.567,0,0,1-10.952,1.445,2.261,2.261,0,0,1-1.777-.843,18.568,18.568,0,0,1-3.575-9.054c-.263-3.635-.7-2.674,2.567-3.782q.534-.231,1.067-.466l.928-.675c.182-.163.257-.079.284.12a24.266,24.266,0,0,0,.9,4.037c.175,0,.352,0,.528,0-.249-1.319-.51-2.635-.74-3.958-.1-.559-.291-1.169.191-1.643a5.822,5.822,0,0,0,1.2-2.715A1.544,1.544,0,0,1,189,65.531Zm-66.388,9.628c.914-1.9,1.272-4.05,2.695-5.7,2.32-2.686,5.417-2.781,8.516-2.209,3.768.7,5.38,3.536,6.19,6.994,1.11,4.754,0,9.282-1.437,13.752A9.568,9.568,0,0,1,134.3,93.44c-2.753,1.657-7.627.743-9.389-1.931-.184-.28-.835-.632,0-1.073,1.084-.568,1.933-3.057,1.292-3.862a8.529,8.529,0,0,0-2.163-1.842c-.58-.363-1.058.21-1.507.573-.09.073-.341.114-.37.071a4.956,4.956,0,0,1-.632-2.48c-.054-.771.64-.56,1.065-.584.779-.045,1.587.01,1.739-1.042.138-.951.277-1.9.381-2.855C124.942,76.335,124.555,75.737,122.612,75.158ZM58.549,32.375c1.471-1.791,2.928-3.445,4.184-5.257,3.515-5.076,7.534-9.77,11.236-14.7a13.563,13.563,0,0,1,8.719-5.65A141.837,141.837,0,0,1,101.672,5.18c5.833-.212,11.666-.361,17.5-.54A187.6,187.6,0,0,1,141.3,5.2c2.833.249,2.8.315,2.778,3.287-.006.867-.16,1.209-1.14,1.021-7.039-1.361-14.2-1.187-21.315-1.658-5.2-.343-10.417-.278-15.629-.132-7.033.2-14.077-.437-21.108.454-3.846.487-7.2,1.539-9.529,4.919-3.394,4.923-6.9,9.77-10.357,14.65-.217.308-.557.618-.357,1.026s.653.317,1.029.355a65.8,65.8,0,0,0,6.854.2C67.88,30.164,63.634,32.695,58.549,32.375ZM145,22.812h.016c0-3.621.023-7.242-.016-10.862-.009-.864.191-1.262,1.13-1.111a31.538,31.538,0,0,1,4.39.854.926.926,0,0,1,.754,1.275c-1.56,6.908-2.507,13.943-4.309,20.8-.151.574-.186,1.141-1.046,1.055s-.937-.581-.932-1.293C145.013,29.957,145,26.385,145,22.812ZM121.224,80.351a12.909,12.909,0,0,1,1.259-3.1c.146-.322.284-.814.784-.67.477.137.583.58.567,1.045a12.842,12.842,0,0,1-.575,3.243c-.242.8-.865.661-1.4.651C121.135,81.506,121.3,80.889,121.224,80.351Zm4.258,7.387c-.377.477.123,1.625-.763,1.831-.7.16-1.268-.61-1.512-1.323-.221-.645-1.145-1.253-.248-2.023.255-.219.538-.763.936-.344C124.425,86.439,125.5,86.5,125.482,87.738Zm-8.928-9.514c-.865.076-1.367-.186-1.322-.909a1.833,1.833,0,0,1,1.931-1.861c.625-.041,1.04.093,1.082.789A2.1,2.1,0,0,1,116.554,78.225ZM13.11,77.631c-.818-.052-2.306-1.681-2.2-2.431a.73.73,0,0,1,.794-.664c.835-.007,2.1,1.591,2.03,2.522C13.7,77.46,13.556,77.7,13.11,77.631ZM202.935,51.144l-2.6-5.085C202.289,46.034,203.264,47.887,202.935,51.144Zm8.15-5.34c-.345-.03-.745.14-.912-.269a.716.716,0,0,1,.42-.949c.676-.353,1.366-.685,2.064-.994a.7.7,0,0,1,.81.02c.29.285.127.625,0,.932C213.025,45.65,211.944,45.542,211.084,45.8ZM91.446,26.928h-4.62A5.951,5.951,0,0,1,91.446,26.928ZM144.877,38.85c-.411-.143-1-.147-1.019-.774-.013-.385.221-.838.629-.855.672-.024.783.618.93,1.1C145.526,38.682,145.225,38.811,144.877,38.85ZM141.289,62.2l.068-.047.007.082Z" transform="translate(0 0)" fill="#474546" fill-rule="evenodd"/>
    <path id="Path_587" data-name="Path 587" d="M86.533,20.072a3.862,3.862,0,0,0,1.006-2.783c.059-4.342-1.705-8.159-3.5-11.948-1.122-2.364-3.5-2.527-5.669-2.866A176.054,176.054,0,0,0,55.459.66C47.791.471,40.124.2,32.454.052,27.728-.041,23,.02,18.272.013c-3.18.249-6.3,1.287-9.539.732,0,.16,0,.319-.006.48l4.259.427c-.83.739-.629,1.609-.894,2.387C8.013.751,3.286,1.4,1.519,3.7a8.605,8.605,0,0,0,.5,10.422,5.009,5.009,0,0,0,3.761,1.9c2.43-.057,4.779-.465,6.573-2.4.325,1.014.625,1.945.918,2.86l-2.814.459c0,.268,0,.538,0,.806a5.919,5.919,0,0,0,.851-.024,7.432,7.432,0,0,1,4.966.676A8.3,8.3,0,0,0,20.6,19.514c4.434.2,8.868.4,13.3.584,5.257.214,10.515.384,15.77.614,2.553.112,5.106.3,7.655.5.306.024,1.1-.307.8.619l-.04.016c-.014-.924.707-.564,1.1-.55q8.679.326,17.356.724c3.241.15,6.469.265,9.495-1.222C86.08,20.474,86.125,20.149,86.533,20.072Zm-4.5-1.77q-9.726.17-19.451-.066a38.792,38.792,0,0,1-5.348-.1l-23.868-.749a53.034,53.034,0,0,1-11.49-1.416c-.336-.072-1.213.116-.852-.813h.018c.145.469-.165.5-.461.414a5.8,5.8,0,0,1-2.18-1.1c-2.71-2.274-2.7-5.436-2.55-8.5.1-2.078.681-2.382,2.856-2.3a53.638,53.638,0,0,0,5.634,0c6.1-.347,12.193.2,18.289.31,6.367.239,12.746.184,19.094.823,4.786.415,9.574.81,14.355,1.26A33.576,33.576,0,0,1,82.875,7c-2.935.322-5.508-.193-8.093-.309C70.42,6.5,66.053,6.277,61.717,5.7a175.8,175.8,0,0,0-18.808-.957q-9.144-.219-18.283-.445a.863.863,0,0,1-.266-.1c-.811.056-1.625.172-2.435.15a2.477,2.477,0,0,0-2.41,1.7,7.393,7.393,0,0,0,1.429,7.581,5.176,5.176,0,0,0,1.939.493c2.5.15,5,.357,7.5.5,4.374.244,8.75.455,13.128.679,2.521.128,5.043.253,7.565.39.264.015.594-.032.684.353a1.829,1.829,0,0,1,.258,0c.076-.356.376-.263.609-.307h.559c9.73-.037,19.444.374,29.153.968.953-.009,1.907-.009,2.86-.029.561-.012.894.132.879.8-.014.642-.33.829-.89.827C84.134,18.3,83.083,18.3,82.033,18.3ZM77.105,5.258a12.051,12.051,0,0,1-3.408-.3c-3.119-.356-6.285-.3-9.358-1.057-2.164-.121-4.328-.274-6.494-.359C51.2,3.28,44.546,3.111,37.9,2.78c-6.746-.334-13.49-.168-20.234-.11-1.9.016-2.411.543-2.844,2.4a14.988,14.988,0,0,0,.091,5.022c.378,3.734,2.637,5.707,6.119,6.567,2.53.625,5.1,1,7.665,1.45q12.9.446,25.807.893c.433-.01.868-.041,1.3-.024,9.21.353,18.421.328,27.634.263.5,0,1,.052,1.614.087-1.086,1.031-1.986,1.3-4.245,1.345-6.9.132-13.767-.729-20.665-.7-1.877.008-3.754-.185-5.63-.287-6.932-.274-13.857-.752-20.8-.807-1.68-.013-3.358-.24-5.036-.369-3.259-.315-6.564.067-9.795-.728-4.184-1.027-5.46-2.571-5.5-6.869-.018-1.833.013-3.668-.051-5.5-.117-3.282.341-3.8,3.589-3.9.53-.015,1.062-.025,1.594-.026,5.5,0,11-.088,16.5.017q12.737.242,25.471.729a27.638,27.638,0,0,1,5.9.47,14.835,14.835,0,0,1,4.039.28A57.372,57.372,0,0,1,80.839,4.457c.735.17,1.459.422,1.5,1.534C80.527,5.737,78.817,5.5,77.105,5.258ZM44.655,5.94a84.978,84.978,0,0,1,10.406-.005c2.886.213,2.894.2,3.618,3.038.19.747.258,1.529.5,2.253.377,1.114-.125,1.379-1.1,1.35-3.805-.118-7.619.072-11.421-.267a12.876,12.876,0,0,0-1.437-.047c-1.719.131-1.76-1.193-1.951-2.3-.411-2.377-.043-3.61,1.1-4.046A.711.711,0,0,1,44.655,5.94Zm1.159,7.518,13.6.007a1.579,1.579,0,0,0,.691-2.1c-.394-1.182-.6-2.43-1.01-3.6-.422-1.2-.127-1.44,1.11-1.342,6.854.538,13.712,1.01,20.571,1.468,3.172.211,3.177.172,4.08,3.217a4.562,4.562,0,0,1,.1.564,7.567,7.567,0,0,1,.833,2.408c.15.618.684,1.364-.009,1.818a1.847,1.847,0,0,1-2.015-.146c-3.76.2-7.485-.32-11.226-.507-4.37-.219-8.747-.28-13.121-.409A107.172,107.172,0,0,1,45.8,14.3c-.144.006-.289.023-.433.021-7.481-.084-14.925-.835-22.389-1.232a2.66,2.66,0,0,1-2.564-2.344,9.262,9.262,0,0,1-.085-3.6c.167-.945.625-1.76,1.761-1.79,6.419-.165,12.826.321,19.244.354.8,0,1.27.224.933,1.2-.581,1.694-.013,3.34.4,4.966a1.788,1.788,0,0,0,1.584,1.305C44.774,13.262,45.293,13.364,45.813,13.458ZM12.171,8.226c0,.433.007.866,0,1.3-.038,1.944-1.208,3.94-2.684,4.41-2.332.742-4.631,1.4-6.6-.937A6.68,6.68,0,0,1,1.459,7.741C1.767,4.493,3.751,2.808,6.955,3,10.344,3.2,12.21,5.058,12.171,8.226Z" transform="translate(3.542 49.234)" fill="#474546" fill-rule="evenodd"/>
    <path id="Path_599" data-name="Path 599" d="M0,.082A4.439,4.439,0,0,0,2.176,2.641c2.362,1.476,7.948,1.948,10.806-1.115C8.533,1.318,4.323.549.084,0ZM8.751,2.424c-1.389.465-1.578.436-2.29-.3A2.956,2.956,0,0,1,8.751,2.424Z" transform="translate(27.299 84.045)" fill="#474546" fill-rule="evenodd"/>
    <path id="Path_607" data-name="Path 607" d="M4.7,2.717Q4.378,1.358,4.06,0C3.067.157,2.074.308,1.082.476A1.136,1.136,0,0,0,.033,1.749C-.065,4.2-.1,4.2,2.263,3.546A8.83,8.83,0,0,0,4.7,2.717Z" transform="translate(147.217 77.924)" fill="#474546" fill-rule="evenodd"/>
    <path id="Path_609" data-name="Path 609" d="M0,3.8c.076.538-.088,1.155.633,1.167.537.01,1.16.147,1.4-.651A12.843,12.843,0,0,0,2.61,1.071C2.627.606,2.52.162,2.043.026c-.5-.144-.638.349-.784.67A12.91,12.91,0,0,0,0,3.8Z" transform="translate(121.224 76.552)" fill="#474546" fill-rule="evenodd"/>
    <path id="Path_611" data-name="Path 611" d="M0,1.265c.738,2.072.314,4.285.777,6.4A27.037,27.037,0,0,0,1.9,12.177c.283-1.989-.267-3.534-.409-5.111-.159-1.775-.252-3.554-.375-5.33A2.368,2.368,0,0,0,.547,0,1.543,1.543,0,0,0,0,1.265Z" transform="translate(188.453 65.531)" fill="#474546" fill-rule="evenodd"/>
    <path id="Path_612" data-name="Path 612" d="M2.369,5.6c-.666-1.385-.5-3.01-1.275-4.369C.813.743.732.1.019,0c-.17,2.431.832,4.665,1.04,7.394C1.648,6.587,2.009,6.1,2.369,5.6Z" transform="translate(203.521 52.212)" fill="#474546" fill-rule="evenodd"/>
    <path id="Path_613" data-name="Path 613" d="M16.616,1.757q0-.22,0-.442C11.681,1.128,6.84-.2,1.863.027A10.492,10.492,0,0,0,0,.169Z" transform="translate(123.708 32.188)" fill="#474546" fill-rule="evenodd"/>
    <path id="Path_614" data-name="Path 614" d="M2.907,2.013C2.93.773,1.85.714,1.321.154.922-.265.639.279.384.5c-.9.77.027,1.378.248,2.023C.875,3.234,1.449,4,2.144,3.844,3.03,3.638,2.53,2.49,2.907,2.013Z" transform="translate(122.575 85.725)" fill="#474546" fill-rule="evenodd"/>
    <path id="Path_616" data-name="Path 616" d="M0,4.826l.57-.008A16.212,16.212,0,0,0,3.695,0c-1.775-.045-2.4.5-2.45,2.129A4.652,4.652,0,0,1,0,4.826Z" transform="translate(118.056 74.077)" fill="#474546" fill-rule="evenodd"/>
    <path id="Path_617" data-name="Path 617" d="M0,.407A15.455,15.455,0,0,0,4.707,7.883,49.885,49.885,0,0,1,.417,0Z" transform="translate(113.38 90.066)" fill="#474546" fill-rule="evenodd"/>
    <path id="Path_618" data-name="Path 618" d="M2.6,5.086C2.926,1.829,1.951-.024,0,0Z" transform="translate(200.338 46.058)" fill="#474546" fill-rule="evenodd"/>
    <path id="Path_620" data-name="Path 620" d="M0,.466c.264,1.349.506,2.7.8,4.043A2.488,2.488,0,0,0,1.687,6.27c.058-2.218-.836-4.2-.62-6.27Q.533.235,0,.466Z" transform="translate(184.1 71.633)" fill="#474546" fill-rule="evenodd"/>
    <path id="Path_621" data-name="Path 621" d="M4.066,2.523C3.15,1.009,2.095-.287,0,.056A14.51,14.51,0,0,1,3.889,2.7C3.946,2.639,4,2.58,4.066,2.523Z" transform="translate(136.879 58.94)" fill="#474546" fill-rule="evenodd"/>
    <path id="Path_623" data-name="Path 623" d="M4.62.471A5.951,5.951,0,0,0,0,.471Z" transform="translate(86.826 26.457)" fill="#474546" fill-rule="evenodd"/>
    <path id="Path_624" data-name="Path 624" d="M1.02,1.629c.348-.039.649-.167.54-.527C1.412.619,1.3-.024.629,0,.221.017-.013.471,0,.856.024,1.482.609,1.487,1.02,1.629Z" transform="translate(143.857 37.22)" fill="#474546" fill-rule="evenodd"/>
    <path id="Path_625" data-name="Path 625" d="M0,0A3.153,3.153,0,0,0,.695,1.9,2.436,2.436,0,0,0,.528,0C.352,0,.175,0,0,0Z" transform="translate(187.275 75.112)" fill="#474546" fill-rule="evenodd"/>
    <path id="Path_626" data-name="Path 626" d="M.844.228A.984.984,0,0,0,.849,0L0,.3C.378.47.631.484.844.228Z" transform="translate(77.482 29.181)" fill="#474546" fill-rule="evenodd"/>
    <path id="Path_627" data-name="Path 627" d="M0,.311l.29,0C.615.33.95.368,1.132,0l.016.021C.752.063.316-.049,0,.311Z" transform="translate(75.136 29.901)" fill="#474546" fill-rule="evenodd"/>
    <path id="Path_628" data-name="Path 628" d="M0,.216H.779C.424-.137.213,0,.016.237Z" transform="translate(76.268 29.685)" fill="#474546" fill-rule="evenodd"/>
    <path id="Path_629" data-name="Path 629" d="M.451.118A.324.324,0,0,0,0,.069Z" transform="translate(97.004 26.861)" fill="#474546" fill-rule="evenodd"/>
    <path id="Path_630" data-name="Path 630" d="M.108,0C.019.1-.074.2.09.3.118.313.213.214.276.169.222.11.166.054.108,0Z" transform="translate(127.337 66.306)" fill="#474546" fill-rule="evenodd"/>
    <path id="Path_631" data-name="Path 631" d="M0,.047.074.082.067,0Z" transform="translate(141.289 62.152)" fill="#474546" fill-rule="evenodd"/>
    <path id="Path_632" data-name="Path 632" d="M0,.178l.291.1L.177,0C.116.057.057.116,0,.178Z" transform="translate(140.768 61.463)" fill="#474546" fill-rule="evenodd"/>
    <path id="Path_633" data-name="Path 633" d="M0,.086l.285.12C.257.007.182-.077,0,.086Z" transform="translate(186.095 70.871)" fill="#474546" fill-rule="evenodd"/>
    <path id="Path_634" data-name="Path 634" d="M.17.073C.113.048.057.023,0,0,.029.051.057.1.086.155Z" transform="translate(27.213 83.972)" fill="#474546" fill-rule="evenodd"/>
    <path id="Path_635" data-name="Path 635" d="M47.565.13C43.4.506,43.046,3.75,42.511,6.856q-1,4.735-2,9.467C40.026,18.668,39.427,21,39.1,23.365c-.214,1.554-.4,3.255,1.326,4.588l-5.612,1.153c-6.713,1.887-13.6,2.935-20.429,4.286-4.811.952-9.585,2.1-13.723,4.955-.445.6-.968,1.179-.44,2.168a3.86,3.86,0,0,1,2.109-2.234A10.145,10.145,0,0,1,5.8,36.606a72.018,72.018,0,0,1,12.407-3.1c4.963-.815,9.888-1.858,14.83-2.8.048-.281.247-.381.5-.437,2.209-.481,4.422-.944,6.623-1.462a1.26,1.26,0,0,1,1.709.815,26.5,26.5,0,0,1,1.952,6.164c.135.9-.188,1.031-.914,1.167-5.961,1.122-11.953,2.025-17.969,2.772a68.656,68.656,0,0,0-9.528,1.607c-1.905.515-3.941.334-5.806,1.076.015.173.032.347.048.521,8.781-1.228,17.564-2.439,26.341-3.691,2.433-.348,4.853-.8,7.27-1.243.721-.133,1.1-.018,1.138.79.036.719.25,1.436.234,2.151-.093,4.047-.729,8.054-1,12.093-.186,2.808-1.019,5.594-1.113,8.453-.009.286.012.574.019.86l.376.039c.706-5.818,1.931-11.566,2.373-17.424a22.4,22.4,0,0,0,.038-6.47c-.222-1.04.684-.883,1.225-.94a98.24,98.24,0,0,0,11.566-1.8,178.49,178.49,0,0,1,20.952-3.452,3.209,3.209,0,0,0,2.256-1c-1.505-.476-2.842.06-4.164.149-8.065.547-15.851,2.726-23.779,4.084-2.421.417-4.869.674-7.3,1.024-.8.116-1.286-.1-1.375-1a18.548,18.548,0,0,0-1.958-6.167c-.433-.9-.211-1.13.652-1.325,5.688-1.292,11.391-2.495,17.168-3.324A84.452,84.452,0,0,0,68.9,22.886a4,4,0,0,0,2.7-2.062c1.881-4.071,5.478-4.767,9.342-5.068a1.807,1.807,0,0,0,1.44-.5c-.424-.489-.982-.37-1.493-.332-.817.061-1.628.2-2.445.264a8.669,8.669,0,0,0-7.223,4.593,6.029,6.029,0,0,1-4.535,2.784A75.38,75.38,0,0,1,54.867,24.8c-4.134.9-8.271,1.789-12.4,2.723a2.3,2.3,0,0,1-2.271-.945c-.423-.471-.651-1.37.525-1.611,1.7-.348,3.389-.722,5.071-1.135.73-.18.728.171.8.729.132,1.01.735,1.346,1.626.745.834-.562,1.615-1.2,2.42-1.813a1.374,1.374,0,0,1,1.452-.744,9.6,9.6,0,0,0,3.975-.361q5.881-1.014,11.759-2.034c.122-.181.245-.364.369-.545a51.34,51.34,0,0,0-.334-7c-.282-1.735-.58-3.469-.871-5.2-.208-.615-.414-1.233-.628-1.846C64.934,1.675,61.663.5,57.761.338L49.861,0ZM62.756,2.785A4.771,4.771,0,0,1,65,5.486a32.1,32.1,0,0,1,1.6,6.42,34.075,34.075,0,0,1,.4,6.756c-.006.34-.014.742-.44.794-.536.065-.419-.4-.445-.7-.112-1.34-.215-2.681-.322-4.022-.328-4.1-.988-8.11-3.253-11.671-.041-.105-.082-.21-.125-.315ZM44.626,20.376c.715,2.5.715,2.5-1.687,2.969-.614.12-1.227.261-1.827.437-1.122.328-1.31-.055-1.023-1.109.6-2.206,1.113-4.437,1.66-6.659a45.36,45.36,0,0,1,1.571-6.944A68.826,68.826,0,0,1,44.626,20.376ZM60.772,2.955c1.044.422,1.371,1.431,1.8,2.307,2.105,4.312,2.1,9.049,2.681,13.666.1.784-.42.834-.964.925-2.04.34-4.076.707-6.119,1.035-1.833.294-1.835.278-1.619-1.523.058-.478.1-.957.155-1.436.2-1.818-.581-2.786-2.423-2.784a16.572,16.572,0,0,0-4.689.749c-2.624.785-2.967,1.411-2.377,4.115a8.508,8.508,0,0,0,.414,1.378c.465,1.16-.64.961-1.1,1.21-.655.352-.742-.123-.794-.7-.4-4.456-.865-8.906-1.554-13.328-.044-1.2-.158-2.394-.123-3.589a3.419,3.419,0,0,1,3.472-3.66A60.992,60.992,0,0,1,57.9,1.534,4.406,4.406,0,0,1,60.772,2.955ZM53.225,21.116c.551-.918,1.332-1.869.012-2.7-1.278-.8-2.026.049-2.772.96a20.752,20.752,0,0,1-1.53,1.529c-.179.178-.345.315-.6.091-.795-.7-.517-3.245.442-3.711a16.5,16.5,0,0,1,5.483-1.142,1.317,1.317,0,0,1,1.275.556C56.482,18.2,55.1,20.917,53.225,21.116Zm-5.463,3.23a24.172,24.172,0,0,1,4.245-5.085.537.537,0,0,1,.663.075c.314.356.034.638-.191.866-1.311,1.337-2.637,2.661-3.962,3.985C48.306,24.4,48.071,24.563,47.762,24.346Z" transform="translate(111.598 11.298)" fill="#474546" fill-rule="evenodd"/>
    <path id="Path_637" data-name="Path 637" d="M2.346,0,.009.183C.006.295,0,.405,0,.518c2.993.95,6.113.6,9.171.845,2.337.184,4.7.037,7.511.037-4.276,2.842-4.925,6.624-3.455,10.695a5.9,5.9,0,0,0,5.39,3.613c3.083.2,5.68-.894,7.075-3.936a12.916,12.916,0,0,0,.458-3.16c-.256-.8.052-1.772-.5-2.448C23.713,3.813,21.76,1.451,18.489.9,13.432.379,8.348.447,3.28.161A1.052,1.052,0,0,1,2.346,0ZM13.612,8.364c-.087-2.572,1.671-5.3,3.79-5.875,3.8-1.036,8.031,2.865,7.6,7.018a5.082,5.082,0,0,1-4.644,4.884C16.214,14.8,13.758,12.61,13.612,8.364Z" transform="translate(89.613 52.889)" fill="#474546" fill-rule="evenodd"/>
    <path id="Path_638" data-name="Path 638" d="M17.377,14.189a7.116,7.116,0,0,0,2.629-4.457c.557-2.366,1.02-4.756,1.523-7.135q-.04-1.3-.081-2.6c-.1.007-.193.016-.289.026q-.478,2.151-.954,4.3A27.053,27.053,0,0,1,18.8,10.315a4.187,4.187,0,0,1-1.425,2.421c-2.116,1.546-4.693,1.861-7.1,2.576-3.391,1-6.837,1.817-10.259,2.712,0,.135-.007.27-.009.405A138.98,138.98,0,0,0,17.377,14.189Z" transform="translate(170.167 46.721)" fill="#474546" fill-rule="evenodd"/>
    <path id="Path_639" data-name="Path 639" d="M0,10.482a1.053,1.053,0,0,0,.934.161c-.328-1.2.568-1.748,1.317-2.3a27.006,27.006,0,0,1,10.4-4.761C16.259,2.285,20.041,1.511,23.58,0A74.183,74.183,0,0,0,12.722,2.595,32.267,32.267,0,0,0,2.175,7.4,4.641,4.641,0,0,0,0,10.482Z" transform="translate(91.959 42.406)" fill="#474546" fill-rule="evenodd"/>
    <path id="Path_642" data-name="Path 642" d="M0,4.934C2.018,4.449,3.981,4.062,5.887,3.4a17.538,17.538,0,0,1,6.33-1.288C14.192,2.177,15.752,1.1,17.67.06a3.45,3.45,0,0,0-2.415.434,6.214,6.214,0,0,1-3.05.737C8.31,1.194,4.847,3.031,1.138,3.8A1.365,1.365,0,0,0,0,4.934Z" transform="translate(191.744 34.204)" fill="#474546" fill-rule="evenodd"/>
    <path id="Path_643" data-name="Path 643" d="M1.713,3.073c1.233-.148,2.426-.279,3.616-.437C6.436,2.489,6.748,1.743,6.608.76,6.458-.284,5.661.025,5.028.1,3.842.251,2.66.448,1.474.612.66.724-.117.9.015,1.97.141,3,.962,3.038,1.713,3.073Zm.261-.889c-.336-.065-.911.187-.976-.278-.083-.585.54-.543.932-.578A15.516,15.516,0,0,0,4.762.862c.323-.09.791-.419.952.158.15.537-.228.773-.726.829C3.988,1.961,2.988,2.073,1.974,2.184Z" transform="translate(178.602 35.855)" fill="#474546" fill-rule="evenodd"/>
    <path id="Path_644" data-name="Path 644" d="M.041,8.406A4.187,4.187,0,0,0,1.466,5.985,27.056,27.056,0,0,0,2.875,0C.715,1.215.4,3.394.074,5.52A19.39,19.39,0,0,0,.041,8.406Z" transform="translate(187.498 51.05)" fill="#474546" fill-rule="evenodd"/>
    <path id="Path_645" data-name="Path 645" d="M1,4.715q.706,2.869,1.41,5.736A2.137,2.137,0,0,0,3.1,11.836c.09-.094.18-.186.271-.278a5.953,5.953,0,0,0-.2-1.689C2.594,7.613,2.06,5.346,1.512,3.083Q1.2,1.991.889.9C.638.6.684.026,0,0,.03,1.658.8,3.133,1,4.715Z" transform="translate(178.646 14.298)" fill="#474546" fill-rule="evenodd"/>
    <path id="Path_646" data-name="Path 646" d="M1.756,9.64c.806.738.88-.015.84-.494a20.859,20.859,0,0,0-.47-2.816A44.674,44.674,0,0,0,.367,0C-.271.521.092,1.145.209,1.726.74,4.362,1.645,6.922,1.756,9.64Z" transform="translate(180.829 16.236)" fill="#474546" fill-rule="evenodd"/>
    <path id="Path_647" data-name="Path 647" d="M9.765.929,8.915.6C5.942.618,2.991-.446,0,.218.013.74.253.8.492.819c2.826.182,5.653.354,8.48.531C9.327,1.372,9.653,1.358,9.765.929Z" transform="translate(99.801 48.803)" fill="#474546" fill-rule="evenodd"/>
    <path id="Path_648" data-name="Path 648" d="M7.9.44Q2.369-1.272,0,3.67C2.229,1.472,4.791.3,7.914.849,7.911.713,7.906.576,7.9.44Z" transform="translate(129.212 53.895)" fill="#474546" fill-rule="evenodd"/>
    <path id="Path_649" data-name="Path 649" d="M2.429,10.157C2.318,7.439,1.412,4.879.882,2.243.765,1.662.4,1.038,1.039.517.883.165.657-.369.405.374.265.789.422,1.311,0,1.661.548,3.925,1.082,6.193,1.657,8.448a5.952,5.952,0,0,1,.2,1.689Z" transform="translate(180.157 15.718)" fill="#474546" fill-rule="evenodd"/>
    <path id="Path_650" data-name="Path 650" d="M5.457.011C3.079-.185.426,2.185,0,5.086,1.668,2.883,3.186,1.026,5.457.011Z" transform="translate(194.049 41.916)" fill="#474546" fill-rule="evenodd"/>
    <path id="Path_651" data-name="Path 651" d="M1.1,2.129C.668,1.529.991.579,0,0A28.014,28.014,0,0,0,1.158,5.754a.451.451,0,0,0,.578.3A.616.616,0,0,0,1.96,5.6c.026-.383,0-.771-.013-1.157l.014.025c-.649-.608-.648-.782.011-1.047v.028C.883,3.533,1.237,2.669,1.1,2.129Z" transform="translate(183.261 19.393)" fill="#474546" fill-rule="evenodd"/>
    <path id="Path_652" data-name="Path 652" d="M.529,3.129V3.1c.015.349.334.7-.011,1.047L.5,4.123c.565-.056.37.753,1,.763C2.036,3.055.737,1.721.325,0-.324.727.205,1.26.172,1.792.292,2.238.409,2.683.529,3.129Z" transform="translate(184.704 19.71)" fill="#474546" fill-rule="evenodd"/>
    <path id="Path_653" data-name="Path 653" d="M0,0C.015,1.19.668,2.05.908,3.026c.027.108.305.23.456.219.289-.022.358-.3.342-.532A3.088,3.088,0,0,0,0,0Z" transform="translate(186.155 20.021)" fill="#474546" fill-rule="evenodd"/>
    <path id="Path_654" data-name="Path 654" d="M0,0C0,.136.009.272.012.408l2.9,1.56L2.9,1.956C2.411.6,1.128.414,0,0Z" transform="translate(137.114 54.335)" fill="#474546" fill-rule="evenodd"/>
    <path id="Path_655" data-name="Path 655" d="M2.485.521C2.469.347,2.452.173,2.437,0A3.611,3.611,0,0,0,0,.824,5.55,5.55,0,0,0,2.485.521Z" transform="translate(118.767 53.699)" fill="#474546" fill-rule="evenodd"/>
    <path id="Path_656" data-name="Path 656" d="M1.125,0C.752.221.106.156.009.727c-.079.459.367.494.706.453.442-.055.876-.2.975-.707C1.766.084,1.484-.01,1.125,0Z" transform="translate(185.073 46.135)" fill="#474546" fill-rule="evenodd"/>
    <path id="Path_657" data-name="Path 657" d="M1.08,0A1.573,1.573,0,0,0,.008.981c-.059.228.223.412.487.364a1.085,1.085,0,0,0,1-.853C1.55.226,1.384.061,1.08,0Z" transform="translate(179.259 48.777)" fill="#474546" fill-rule="evenodd"/>
    <path id="Path_658" data-name="Path 658" d="M1,0C.626.091.088,0,.006.567c-.058.39.328.424.6.425.425,0,.925.015,1.006-.556C1.667.046,1.322.013,1,0Z" transform="translate(177.989 46.121)" fill="#474546" fill-rule="evenodd"/>
    <path id="Path_659" data-name="Path 659" d="M0,.608a.983.983,0,0,0,.826.659c.378.021.433-.324.41-.607C1.2.233,1-.071.506.015A.556.556,0,0,0,0,.608Z" transform="translate(184.969 51.674)" fill="#474546" fill-rule="evenodd"/>
    <path id="Path_660" data-name="Path 660" d="M0,.684c.2.387.564.276.862.243.372-.04.854-.124.8-.611S1.133.037.84.053A.782.782,0,0,0,0,.684Z" transform="translate(121.561 58.276)" fill="#474546" fill-rule="evenodd"/>
    <path id="Path_661" data-name="Path 661" d="M2.288.22A2.533,2.533,0,0,0,0,.329,2.654,2.654,0,0,0,2.288.22Z" transform="translate(105.16 50.852)" fill="#474546" fill-rule="evenodd"/>
    <path id="Path_662" data-name="Path 662" d="M2.04.405c0-.135.006-.27.009-.405A2.56,2.56,0,0,0,0,1.213Z" transform="translate(168.127 64.745)" fill="#474546" fill-rule="evenodd"/>
    <path id="Path_663" data-name="Path 663" d="M0,1.031C.679,1.189,1.044.792,1.344.275.452-.26,0-.018,0,1.031Z" transform="translate(126.204 59.499)" fill="#474546" fill-rule="evenodd"/>
    <path id="Path_664" data-name="Path 664" d="M0,.508A.625.625,0,0,0,.776.955c.347-.047.7-.187.6-.615S.861.012.548.014-.015.123,0,.508Z" transform="translate(165.278 69.872)" fill="#474546" fill-rule="evenodd"/>
    <path id="Path_665" data-name="Path 665" d="M.868,1.337C.748.891.631.446.511,0L0,.021C.134.561-.221,1.425.868,1.337Z" transform="translate(184.365 21.501)" fill="#474546" fill-rule="evenodd"/>
    <path id="Path_666" data-name="Path 666" d="M.549.039.173,0C.035.333-.144.9.193.937.726.99.67.448.549.039Z" transform="translate(153.97 73.632)" fill="#474546" fill-rule="evenodd"/>
    <path id="Path_667" data-name="Path 667" d="M.026.733C.122.724.218.715.315.707A.447.447,0,0,0,.474.1a.25.25,0,0,0-.23-.09C-.093.158.013.463.026.733Z" transform="translate(191.3 46.014)" fill="#474546" fill-rule="evenodd"/>
    <path id="Path_668" data-name="Path 668" d="M.807.267C.537,0,.292-.1,0,.123.228.513.6.144.807.267Z" transform="translate(120.916 64.976)" fill="#474546" fill-rule="evenodd"/>
    <path id="Path_669" data-name="Path 669" d="M.013.013.047.03,0,0Z" transform="translate(140.014 56.291)" fill="#474546" fill-rule="evenodd"/>
    <path id="Path_670" data-name="Path 670" d="M30.351,1.8l.545-.144a.615.615,0,0,1,.615-.145l4.3-1.292c-1.068-.486-2.1-.027-3.1.2-3.282.765-6.523,1.716-9.816,2.416-2.856.609-5.5,1.805-8.283,2.614C11.742,6.28,8.9,7.192,6.067,8.131A22.733,22.733,0,0,0,0,11.352c.4.392.651.192.935.041C8.1,7.6,16,5.9,23.65,3.515A46.134,46.134,0,0,1,30.351,1.8Z" transform="translate(90.568 36.593)" fill="#474546" fill-rule="evenodd"/>
    <path id="Path_671" data-name="Path 671" d="M.034,14.626C3.977,10.488,9.157,8.6,14.4,6.94,20.423,5.032,26.372,2.906,32.378.952A2.739,2.739,0,0,0,33.959.106a2.059,2.059,0,0,0-1.538.13C23.463,3.227,14.336,5.741,5.689,9.614A17.384,17.384,0,0,0,.352,13.762c-.228.239-.463.509-.294.9Z" transform="translate(51.333 34.119)" fill="#474546" fill-rule="evenodd"/>
    <path id="Path_672" data-name="Path 672" d="M20.443.72C14.562.915,8.718.168,2.851.019A8.65,8.65,0,0,0,.025.231C.017.374.009.517,0,.659q6.165.378,12.328.754l14.464.412C24.807.57,22.52,1.311,20.443.72Z" transform="translate(22.238 45.423)" fill="#474546" fill-rule="evenodd"/>
    <path id="Path_673" data-name="Path 673" d="M22.3,1.136.024,0C.016.2.008.395,0,.592A179.183,179.183,0,0,0,22.317,1.615C22.313,1.456,22.307,1.3,22.3,1.136Z" transform="translate(60.353 46.205)" fill="#474546" fill-rule="evenodd"/>
    <path id="Path_674" data-name="Path 674" d="M18.138.181C12.1.439,6.043-.487,0,.38A129.7,129.7,0,0,0,18,.827C18.247.654,18.5.482,18.138.181Z" transform="translate(29.036 43.634)" fill="#474546" fill-rule="evenodd"/>
    <path id="Path_675" data-name="Path 675" d="M18.926,1.6C12.649.789,6.387-.242.043.051.029.284.014.519,0,.753,6.346.434,12.588,1.779,18.926,1.6Z" transform="translate(55.868 47.722)" fill="#474546" fill-rule="evenodd"/>
    <path id="Path_676" data-name="Path 676" d="M0,.535,5.365.846C5.767.065,5.07.216,4.75.2,3.17.1,1.587.059.006,0,0,.178,0,.357,0,.535Z" transform="translate(90.78 69.652)" fill="#474546" fill-rule="evenodd"/>
    <path id="Path_677" data-name="Path 677" d="M0,0C0,.159.011.319.015.479A13.48,13.48,0,0,0,4.456.812,12.716,12.716,0,0,0,0,0Z" transform="translate(82.655 47.341)" fill="#474546" fill-rule="evenodd"/>
    <path id="Path_678" data-name="Path 678" d="M0,.377A13.688,13.688,0,0,0,4.452.213L.009,0C0,.126,0,.251,0,.377Z" transform="translate(75.143 49.09)" fill="#474546" fill-rule="evenodd"/>
    <path id="Path_679" data-name="Path 679" d="M5.406.386A39.741,39.741,0,0,0,.082.007C-.14.4.126.552.427.556A16.576,16.576,0,0,0,5.406.386Z" transform="translate(47.666 43.806)" fill="#474546" fill-rule="evenodd"/>
    <path id="Path_680" data-name="Path 680" d="M2.378,0C1.365.82.257,1.561,0,3.049Q1.378,1.7,2.754.345Z" transform="translate(86.656 49.034)" fill="#474546" fill-rule="evenodd"/>
    <path id="Path_681" data-name="Path 681" d="M0,.663c.155.469.535.523.922.478.411-.048.972-.032,1-.584C1.96-.073,1.4-.006.984.01A.92.92,0,0,0,0,.663Z" transform="translate(118.191 36.268)" fill="#474546" fill-rule="evenodd"/>
    <path id="Path_682" data-name="Path 682" d="M.168.619c1.237.009,2.478.047,3.716,0,.263-.009,1.044.227.643-.609-1.279,0-2.56-.024-3.838,0C.36.015-.314-.138.168.619Z" transform="translate(96.252 69.878)" fill="#474546" fill-rule="evenodd"/>
    <path id="Path_683" data-name="Path 683" d="M0,.639c.108.5.49.527.88.5.35-.023.686-.146.7-.555C1.6.066,1.218-.019.807,0A.742.742,0,0,0,0,.639Z" transform="translate(75.08 34.544)" fill="#474546" fill-rule="evenodd"/>
    <path id="Path_684" data-name="Path 684" d="M0,.364c1.074.678,1.77.692,2.433.169A.4.4,0,0,0,2.41.174C1.661-.2.993.1,0,.364Z" transform="translate(95.974 36.921)" fill="#474546" fill-rule="evenodd"/>
    <path id="Path_685" data-name="Path 685" d="M0,.635c.147.466.512.538.913.512.339-.023.744-.086.692-.528C1.544.091,1.086-.026.634,0A.621.621,0,0,0,0,.635Z" transform="translate(113.458 35.466)" fill="#474546" fill-rule="evenodd"/>
    <path id="Path_686" data-name="Path 686" d="M0,.515c.1.44.436.48.783.45s.737-.1.727-.53C1.5-.038,1.069,0,.743,0,.4.009.058.075,0,.515Z" transform="translate(92.857 35.917)" fill="#474546" fill-rule="evenodd"/>
    <path id="Path_687" data-name="Path 687" d="M.482,1.668Q1,.834,1.516,0C.57.2.252.918,0,1.688.16,1.681.32,1.674.482,1.668Z" transform="translate(101.296 55.488)" fill="#474546" fill-rule="evenodd"/>
    <path id="Path_688" data-name="Path 688" d="M.595,1.076c.392,0,.7-.129.724-.427C1.357.182.978.01.575,0A.5.5,0,0,0,0,.483C0,.9.373.963.595,1.076Z" transform="translate(109.985 36.663)" fill="#474546" fill-rule="evenodd"/>
    <path id="Path_689" data-name="Path 689" d="M.726,1.03c.333-.065.648-.222.608-.636C1.3.037,1-.052.685.026S-.065.161.008.608C.055.894.379,1.028.726,1.03Z" transform="translate(95.543 55.522)" fill="#474546" fill-rule="evenodd"/>
    <path id="Path_690" data-name="Path 690" d="M1.544.577C1.023-.008.6-.152.084.163A.378.378,0,0,0,.025.532C.4,1.052.849.779,1.544.577Z" transform="translate(107.033 35.393)" fill="#474546" fill-rule="evenodd"/>
    <path id="Path_691" data-name="Path 691" d="M1.2.881C1.2.7,1.2.524,1.2.346L.492,0C.083.077.039.4,0,.729Z" transform="translate(89.584 69.306)" fill="#474546" fill-rule="evenodd"/>
    <path id="Path_692" data-name="Path 692" d="M1.153.486c0-.113.006-.223.009-.335A1.028,1.028,0,0,0,0,.21,1.356,1.356,0,0,0,1.153.486Z" transform="translate(88.46 52.92)" fill="#474546" fill-rule="evenodd"/>
    <path id="Path_693" data-name="Path 693" d="M.738,0C.576.005.416.013.256.02.171.258.085.5,0,.733l.39.283Q.564.507.738,0Z" transform="translate(101.04 57.157)" fill="#474546" fill-rule="evenodd"/>
    <path id="Path_694" data-name="Path 694" d="M0,.071.376.415C.572-.048.349-.058,0,.071Z" transform="translate(89.034 48.963)" fill="#474546" fill-rule="evenodd"/>
    <path id="Path_695" data-name="Path 695" d="M.194.031,0,.064C.013.1.027.139.04.177L.171,0Z" transform="translate(51.196 48.745)" fill="#474546" fill-rule="evenodd"/>
    <path id="Path_696" data-name="Path 696" d="M.1,0,0,.1a.905.905,0,0,0,.194.09C.218.2.257.135.29.1Z" transform="translate(90.198 48.218)" fill="#474546" fill-rule="evenodd"/>
    <path id="Path_697" data-name="Path 697" d="M17.885,1.684A109.717,109.717,0,0,1,3.81.176,11.938,11.938,0,0,0,0,.133c1.75.986,3.724.749,5.585,1.089C16.062,3.132,26.7,3.009,37.275,3.7c4.908.319,9.849.057,14.758.474,7.647.646,15.324.738,22.977,1.26a35.151,35.151,0,0,0,7.8-.1c.556-.088,1.093-.25,1.268-.807.147-.468-.172-.807-.778-1.011.453,1.385-.526,1.394-1.33,1.38-2.846-.051-5.7-.055-8.533-.293-5.534-.465-11.082-.577-16.626-.837a13.4,13.4,0,0,1-1.422-.217l.04-.015c-5.206,0-10.393-.483-15.6-.535C32.5,2.917,25.194,2.245,17.885,1.684Z" transform="translate(6.24 67.541)" fill="#474546" fill-rule="evenodd"/>
    <path id="Path_699" data-name="Path 699" d="M31.881,1.761a1.829,1.829,0,0,0-.258,0,30.576,30.576,0,0,1-8.279.018C18.823,1.545,14.3,1.364,9.78,1.063A71.506,71.506,0,0,1,.749,0C.479.115-.052-.052,0,.4c.047.375.56.386.905.48H.891a56.858,56.858,0,0,0,8.319.957c2.405.093,4.81.246,7.214.374,3.556.683,7.158.39,10.739.462,5.1.1,10.2-.159,15.295.3a17.3,17.3,0,0,1,3.448.114,71.158,71.158,0,0,0,14.227.381,1.528,1.528,0,0,1,.016-.264c-5.306-.054-10.594-.41-15.876-.9-3.372-.314-6.752-.191-10.13-.274-.382-.009-1.16.439-1.1-.562h-.559C32.47,1.919,32.242,1.972,31.881,1.761Z" transform="translate(23.677 63.513)" fill="#474546" fill-rule="evenodd"/>
    <path id="Path_701" data-name="Path 701" d="M29.227.757C24.134.3,19.03.565,13.932.462,10.351.39,6.749.683,3.192,0c-.487.719-1.229.29-1.85.408C.866.5.242.175,0,.9l23.868.749a38.781,38.781,0,0,0,5.347.1C29.22,1.419,29.222,1.089,29.227.757Z" transform="translate(36.909 65.72)" fill="#474546" fill-rule="evenodd"/>
    <path id="Path_702" data-name="Path 702" d="M0,.477c7.309.56,14.619,1.233,21.946,1.306,5.21.052,10.4.531,15.6.535.3-.926-.5-.6-.8-.619-2.549-.2-5.1-.39-7.655-.5C23.835.968,18.577.8,13.32.584,8.885.4,4.451.2.018,0,.012.16.006.318,0,.477Z" transform="translate(24.125 68.748)" fill="#474546" fill-rule="evenodd"/>
    <path id="Path_703" data-name="Path 703" d="M0,.9c4.336.579,8.7.8,13.064.993,2.585.116,5.159.631,8.093.309a33.577,33.577,0,0,0-6.793-.94C9.583.81,4.8.416.009,0Q.005.449,0,.9Z" transform="translate(65.259 54.034)" fill="#474546" fill-rule="evenodd"/>
    <path id="Path_704" data-name="Path 704" d="M.01,0Q0,.419,0,.838a107.182,107.182,0,0,0,13.608.534q0-.682,0-1.365Z" transform="translate(49.345 62.692)" fill="#474546" fill-rule="evenodd"/>
    <path id="Path_705" data-name="Path 705" d="M0,.115C0,.29.011.465.017.641a.9.9,0,0,0,.266.1q9.141.227,18.283.445c-.092-.253-.185-.507-.277-.763C12.193.31,6.1-.233,0,.115Z" transform="translate(27.885 52.786)" fill="#474546" fill-rule="evenodd"/>
    <path id="Path_706" data-name="Path 706" d="M.061,0C.041.219.02.436,0,.654A71.483,71.483,0,0,0,9.031,1.717c4.518.3,9.042.481,13.565.712.01-.253.019-.507.03-.76C18.247,1.445,13.872,1.234,9.5.99,7,.85,4.5.643,2,.493A5.178,5.178,0,0,1,.061,0Z" transform="translate(24.426 62.859)" fill="#474546" fill-rule="evenodd"/>
    <path id="Path_709" data-name="Path 709" d="M0,0C.092.255.185.509.277.763a175.816,175.816,0,0,1,18.808.957q.005-.448.009-.9C12.746.184,6.367.239,0,0Z" transform="translate(46.174 53.211)" fill="#474546" fill-rule="evenodd"/>
    <path id="Path_710" data-name="Path 710" d="M25.834,1.578c0-.229-.006-.457-.009-.685Q12.922.445.018,0C.012.134.005.269,0,.4,1.678.531,3.356.757,5.036.771,11.977.826,18.9,1.3,25.834,1.578Z" transform="translate(32.225 67.34)" fill="#474546" fill-rule="evenodd"/>
    <path id="Path_712" data-name="Path 712" d="M.012.048C.007.379,0,.709,0,1.04q9.727.219,19.451.066,0-.254-.009-.509L17.687.542A71.144,71.144,0,0,1,3.46.162,17.3,17.3,0,0,0,.012.048Z" transform="translate(66.125 66.429)" fill="#474546" fill-rule="evenodd"/>
    <path id="Path_713" data-name="Path 713" d="M12.427,2.229c.243-.724.866-.4,1.343-.49.62-.118,1.362.311,1.85-.408-2.4-.127-4.809-.28-7.214-.373A56.857,56.857,0,0,1,.086,0C-.276.929.6.741.937.813A53.031,53.031,0,0,0,12.427,2.229Z" transform="translate(24.482 64.389)" fill="#474546" fill-rule="evenodd"/>
    <path id="Path_714" data-name="Path 714" d="M.03,0C.019.253.01.508,0,.76A30.576,30.576,0,0,0,8.279.743C8.188.358,7.859.4,7.594.39,5.073.253,2.551.128.03,0Z" transform="translate(47.022 64.528)" fill="#474546" fill-rule="evenodd"/>
    <path id="Path_715" data-name="Path 715" d="M0,1.119q0,.255.009.509c1.05,0,2.1,0,3.152,0,.56,0,.876-.185.89-.827.015-.668-.317-.812-.879-.8C2.219.02,1.265.02.312.029.4.786,1.2.337,1.524.75c-.191.575-.646.314-1.015.314Z" transform="translate(85.567 65.907)" fill="#474546" fill-rule="evenodd"/>
    <path id="Path_716" data-name="Path 716" d="M1.19,0C.671,1.324.914,2.871,0,4.08a1.848,1.848,0,0,0,2.015.146c.693-.454.159-1.2.009-1.818A7.568,7.568,0,0,0,1.19,0Z" transform="translate(87.3 60.901)" fill="#474546" fill-rule="evenodd"/>
    <path id="Path_717" data-name="Path 717" d="M0,.307C.361.518.589.465.609,0,.376.044.076-.049,0,.307Z" transform="translate(55.558 64.967)" fill="#474546" fill-rule="evenodd"/>
    <path id="Path_720" data-name="Path 720" d="M.828,0A.866.866,0,0,0,0,.8a.461.461,0,0,0,.518.532A.878.878,0,0,0,1.294.6C1.385.263,1.186.07.828,0Z" transform="translate(102.428 15.742)" fill="#474546" fill-rule="evenodd"/>
    <path id="Path_725" data-name="Path 725" d="M.613.908c.462-.019.918.017.963-.494C1.608.048,1.264-.016.964,0,.6.027.1-.067.011.413S.391.838.613.908Z" transform="translate(81.67 13.692)" fill="#474546" fill-rule="evenodd"/>
    <path id="Path_730" data-name="Path 730" d="M25.127,1.2c.478-.131,1.031.036,1.443-.37-.164-.431-.617-.161-.873-.36-4.688.613-9.346-.188-14.01-.4C7.96-.1,4.26.079.551.222A2.143,2.143,0,0,0,0,.408c.358.675.946.512,1.424.476,6.62-.5,13.211.094,19.808.512A24.6,24.6,0,0,0,25.127,1.2Z" transform="translate(91.432 71.906)" fill="#474546" fill-rule="evenodd"/>
    <path id="Path_731" data-name="Path 731" d="M1.081.031C.7.262.02.225,0,.915c-.007.284.341.341.557.271C1,1.042,1.485.851,1.6.332,1.655.061,1.406-.062,1.081.031Z" transform="translate(54.996 37.785)" fill="#474546" fill-rule="evenodd"/>
    <path id="Path_732" data-name="Path 732" d="M.543,1.183c.424-.155.982-.184,1-.818A.373.373,0,0,0,1.027.019C.569.149.05.265,0,.862-.026,1.2.3,1.146.543,1.183Z" transform="translate(60.819 35.182)" fill="#474546" fill-rule="evenodd"/>
    <path id="Path_733" data-name="Path 733" d="M.167,9.677a35.546,35.546,0,0,0,.518,10.5,13.869,13.869,0,0,0,.628,2.07c.463,1.22,1.084,2.312,2.633,2.275,1.524-.037,2.161-1.151,2.624-2.342a27.276,27.276,0,0,0,1.579-7.761c.309-3.86.373-7.719-.838-11.461C6.906,1.709,6.634.1,4.96.005,3.3-.091,2.415,1.176,1.774,2.545A15.018,15.018,0,0,0,.2,9.091l.819,0a9.97,9.97,0,0,0,.617-2.8A9.923,9.923,0,0,1,3.15,2.122,1.972,1.972,0,0,1,4.88,1c.763.052.873.817,1.134,1.36a8.475,8.475,0,0,1,.463,1.364c1.113,3.935.766,7.929.432,11.912A19.464,19.464,0,0,1,5.4,21.931c-.306.693-.7,1.457-1.633,1.449s-1.242-.772-1.554-1.5C1.1,19.306,1.06,16.54.784,13.815a3.615,3.615,0,0,1,1.123-3.506A4.4,4.4,0,0,0,2.67,8.944l-.413-.368c-.323.445-.643.892-.966,1.338C.645,11.127.662,9.184.167,9.677Z" transform="translate(193.48 52.697)" fill="#474546" fill-rule="evenodd"/>
    <path id="Path_734" data-name="Path 734" d="M.848,0,.029,0Q.015.294,0,.586C.5.093.478,2.036,1.124.823.742.649.928.281.848,0Z" transform="translate(193.647 61.788)" fill="#474546" fill-rule="evenodd"/>
    <path id="Path_735" data-name="Path 735" d="M0,.52a.6.6,0,0,0,.673.573c.352,0,.688-.121.72-.522C1.428.113,1.007.073.7.015A.546.546,0,0,0,0,.52Z" transform="translate(98.323 20.159)" fill="#474546" fill-rule="evenodd"/>
    <path id="Path_736" data-name="Path 736" d="M4.3,6.144a5.616,5.616,0,0,0,2.629-.5A4.041,4.041,0,0,0,3.52.035,10.071,10.071,0,0,0,2.226.01a2.282,2.282,0,0,0-1.98,3.3A4.948,4.948,0,0,0,4.3,6.144ZM2.873,4.662C1.813,4.5,1.542,3.543,1.066,2.819c-.431-.655-.02-1.174.44-1.631.174-.174.413-.31.635-.161a.549.549,0,0,1,.165.476,5.706,5.706,0,0,0,.545,3.179.454.454,0,0,1,.124.041c.017.012.01.058.013.09Zm.19-2.042c.24-.486-.046-1.463,1.069-1.448,1.059.016,2.442,1.786,2.417,3.06C6.531,5.12,6.042,5.361,5.222,5.3A2.569,2.569,0,0,1,3.063,2.62Z" transform="translate(99.795 77.399)" fill="#474546" fill-rule="evenodd"/>
    <path id="Path_737" data-name="Path 737" d="M.665,0C.336.1-.025.221,0,.636s.366.547.734.494A.607.607,0,0,0,1.3.428C1.265.078.982-.013.665,0Z" transform="translate(91.736 82.8)" fill="#474546" fill-rule="evenodd"/>
    <path id="Path_738" data-name="Path 738" d="M0,.574c.163.447.532.5.93.431.275-.046.642-.12.6-.484C1.458-.081.937,0,.523.011A.5.5,0,0,0,0,.574Z" transform="translate(79.471 78.616)" fill="#474546" fill-rule="evenodd"/>
    <path id="Path_739" data-name="Path 739" d="M0,.5a.909.909,0,0,0,.84.616.4.4,0,0,0,.512-.48A.742.742,0,0,0,.551,0C.242,0,0,.114,0,.5Z" transform="translate(75.17 78.56)" fill="#474546" fill-rule="evenodd"/>
    <path id="Path_740" data-name="Path 740" d="M0,.218c.076.03.17.1.222.074S.285.154.314.078C.239.05.147-.018.093,0S.029.143,0,.218Z" transform="translate(77.001 82.512)" fill="#474546" fill-rule="evenodd"/>
    <path id="Path_741" data-name="Path 741" d="M5.666,18.736C6.747,13.751,7,8.811,4.658,4.074A8.366,8.366,0,0,0,0,0,4.486,4.486,0,0,0,1.356,1.738c2.655,2.11,3.653,5.07,3.968,8.24a34.612,34.612,0,0,1-.117,8.8Z" transform="translate(137.207 65.347)" fill="#474546" fill-rule="evenodd"/>
    <path id="Path_742" data-name="Path 742" d="M1.872,0,1.413.043Q.707,2.367,0,4.693A8.831,8.831,0,0,0,1.872,0Z" transform="translate(141.001 84.083)" fill="#474546" fill-rule="evenodd"/>
    <path id="Path_743" data-name="Path 743" d="M0,.014,1.93,1.736C1.846.558,1.278-.107,0,.014Z" transform="translate(138.019 63.293)" fill="#474546" fill-rule="evenodd"/>
    <path id="Path_744" data-name="Path 744" d="M0,.006C1.492,4.294,3.545,8.14,7.985,10.092c.484.213.974.42,1.474.588a9.943,9.943,0,0,0,1.187.24,3.024,3.024,0,0,0-1.584-1.2A14.209,14.209,0,0,1,1.247,1.271,12.869,12.869,0,0,0,.583,0Z" transform="translate(18.66 84.963)" fill="#474546" fill-rule="evenodd"/>
    <path id="Path_745" data-name="Path 745" d="M1.5,0C.775.293.169.476.008,1.151c-.059.247.207.441.465.378C1.151,1.361,1.429.868,1.5,0Z" transform="translate(41.639 91.365)" fill="#474546" fill-rule="evenodd"/>
    <path id="Path_746" data-name="Path 746" d="M8.142,5.319A14.842,14.842,0,0,0,6.783.734C6.375-.142,5.744-.29,5.162.6c-.609.925-1.128,1.91-1.726,2.842-.354.553.046.891.258,1.3A2.347,2.347,0,0,1,3.1,7.96c-.457.292-.985.734-1.593.34-.515-.335-.489-.894-.448-1.437.035-.452.311-1.129-.36-1.193-.746-.074-.666.7-.695,1.186C-.1,8.792,1.514,9.754,3.384,8.772A4.42,4.42,0,0,1,5.7,8.233C7.569,8.3,8.17,7.66,8.142,5.319ZM5.947,1.077c.67,1.905,1.348,3.45,1.269,5.187-.039.87-.537,1.1-1.353,1.093-.843-.005-.924-.452-.9-1.107A2.028,2.028,0,0,0,4.837,5.12C3.688,3.451,5.06,2.523,5.947,1.077Z" transform="translate(127.58 73.305)" fill="#474546" fill-rule="evenodd"/>
    <path id="Path_747" data-name="Path 747" d="M.02,4.326c.066.523.118,1.049.2,1.57C.5,7.584,1.128,7.827,2.5,6.724A7.766,7.766,0,0,0,4.625,3.859C5.2,2.606,5.113,1.8,3.8.744,2.362-.419,2.037-.182,1.247,1.2.667,2.206-.138,3.046.02,4.326Zm.894-.007c-.283-1,.578-1.693,1.283-2.483.411-.46.74-.626,1.336-.264A1.052,1.052,0,0,1,4.067,3,9.245,9.245,0,0,1,2.4,5.664c-.23.3-.526.653-.932.572-.472-.1-.337-.619-.454-.957A5.249,5.249,0,0,1,.914,4.319Z" transform="translate(129.27 83.062)" fill="#474546" fill-rule="evenodd"/>
    <path id="Path_748" data-name="Path 748" d="M5.468,1.911C5.5.563,4.933.046,3.4,0,1.818-.045-.015,1.309,0,2.509S1.832,5.274,3.226,5.282C4.921,5.291,5.416,4.545,5.468,1.911ZM3.375,4.322C2.187,4.209,1.178,3.984.932,2.77.777,2.013,2.146.934,3.2.952c.6.008,1.479-.018,1.262.9C4.258,2.731,4.924,4.157,3.375,4.322Z" transform="translate(124.999 69.285)" fill="#474546" fill-rule="evenodd"/>
    <path id="Path_749" data-name="Path 749" d="M.776,15.751C3.91,13.29,3.271,2.351,0,0,2.461,6.172,2.647,7.183.776,15.751Z" transform="translate(135.806 70.075)" fill="#474546" fill-rule="evenodd"/>
    <path id="Path_750" data-name="Path 750" d="M4.637,7.925C5.354,5.14,2.483.105,0,0,2.948,1.991,3.816,4.938,4.637,7.925Z" transform="translate(132.401 69.717)" fill="#474546" fill-rule="evenodd"/>
    <path id="Path_751" data-name="Path 751" d="M1.046,3.261c1.1-.8.751-1.757.813-2.6.031-.419-.408-.61-.81-.656A.827.827,0,0,0,.127.524,1.039,1.039,0,0,0,.353,1.833,1.224,1.224,0,0,1,1.046,3.261Z" transform="translate(127.396 75.197)" fill="#474546" fill-rule="evenodd"/>
    <path id="Path_752" data-name="Path 752" d="M3.367,0A17.7,17.7,0,0,1,0,4C1.823,4.065,3.631,1.81,3.367,0Z" transform="translate(132.62 87.876)" fill="#474546" fill-rule="evenodd"/>
    <path id="Path_753" data-name="Path 753" d="M.913,0C.486.1.036.239,0,.75c-.026.381.349.383.631.376.433-.01.931-.019.983-.577C1.655.136,1.259.052.913,0Z" transform="translate(135.42 37.827)" fill="#474546" fill-rule="evenodd"/>
    <path id="Path_754" data-name="Path 754" d="M0,.515a.623.623,0,0,0,.668.655c.4.037.778-.017.787-.543A.571.571,0,0,0,.847,0,.874.874,0,0,0,0,.515Z" transform="translate(133.682 40.106)" fill="#474546" fill-rule="evenodd"/>
    <path id="Path_755" data-name="Path 755" d="M0,.571c.127.565.574.38.919.388.278.006.624,0,.6-.408C1.479.05,1.081-.02.684,0,.335.024.033.151,0,.571Z" transform="translate(127.532 39.081)" fill="#474546" fill-rule="evenodd"/>
    <path id="Path_756" data-name="Path 756" d="M.86,0C.381.057.037.2,0,.671c-.026.364.236.484.553.5.434.015.763-.139.786-.621C1.356.2,1.086.079.86,0Z" transform="translate(130.142 38.931)" fill="#474546" fill-rule="evenodd"/>
    <path id="Path_757" data-name="Path 757" d="M.615.024A.615.615,0,0,0,0,.169C.324.623.5.44.615.024Z" transform="translate(121.463 38.077)" fill="#474546" fill-rule="evenodd"/>
    <path id="Path_758" data-name="Path 758" d="M0,0A96.989,96.989,0,0,0,15.252.809c5.053-.1,10.067.547,15.162.615a14.805,14.805,0,0,0-2.154-.6C18.867-.361,9.412.481,0,0Z" transform="translate(109.74 5.929)" fill="#474546" fill-rule="evenodd"/>
    <path id="Path_759" data-name="Path 759" d="M.1,0,0,.043.11.064Z" transform="translate(140.785 7.712)" fill="#474546" fill-rule="evenodd"/>
    <path id="Path_760" data-name="Path 760" d="M.878,0C.553.1.1.1.01.544c-.074.361.264.466.537.494.394.036.769-.068.85-.527C1.458.164,1.239,0,.878,0Z" transform="translate(39.872 80.943)" fill="#474546" fill-rule="evenodd"/>
    <path id="Path_761" data-name="Path 761" d="M.532,0C.289.01-.007.039,0,.341a.836.836,0,0,0,.829.825A.379.379,0,0,0,1.286.743.781.781,0,0,0,.532,0Z" transform="translate(24.004 76.247)" fill="#474546" fill-rule="evenodd"/>
    <path id="Path_762" data-name="Path 762" d="M0,.043C.051,1.271.877,2.084,1.576,2.966A4.821,4.821,0,0,0,.055,0Z" transform="translate(111.906 91.313)" fill="#474546" fill-rule="evenodd"/>
    <path id="Path_763" data-name="Path 763" d="M0,0a1.555,1.555,0,0,0,.615,1.12C1,.675.71.338.576,0,.384,0,.193,0,0,0Z" transform="translate(116.271 91.343)" fill="#474546" fill-rule="evenodd"/>
    <path id="Path_764" data-name="Path 764" d="M.529,1.244A1.969,1.969,0,0,0,.051,0,1.288,1.288,0,0,0,.478,1.286Z" transform="translate(111.129 89.509)" fill="#474546" fill-rule="evenodd"/>
    <path id="Path_765" data-name="Path 765" d="M.106.661c.192,0,.384,0,.576,0C.608.343.586-.1.132.02-.1.079.031.435.106.661Z" transform="translate(116.165 90.685)" fill="#474546" fill-rule="evenodd"/>
    <path id="Path_766" data-name="Path 766" d="M.156,0a.786.786,0,0,0-.15.143A.158.158,0,0,0,.022.262,1.132,1.132,0,0,0,.208.251C.191.172.174.093.156,0Z" transform="translate(110.804 88.429)" fill="#474546" fill-rule="evenodd"/>
    <path id="Path_767" data-name="Path 767" d="M.353.559Q.2.281.051,0L0,.041C.1.229.2.416.3.6Z" transform="translate(111.608 90.754)" fill="#474546" fill-rule="evenodd"/>
    <path id="Path_768" data-name="Path 768" d="M2.29.405A2.955,2.955,0,0,0,0,.106C.712.842.9.87,2.29.405Z" transform="translate(33.759 86.064)" fill="#474546" fill-rule="evenodd"/>
    <path id="Path_774" data-name="Path 774" d="M.343.041,0,0C.043.105.083.21.125.315Z" transform="translate(174.012 14.042)" fill="#474546" fill-rule="evenodd"/>
    <path id="Path_776" data-name="Path 776" d="M.984,1.5C2,1.386,3,1.274,4,1.162c.5-.056.876-.292.726-.829C4.562-.244,4.094.085,3.772.175A15.517,15.517,0,0,1,.94.642C.547.676-.075.635.007,1.22.072,1.685.647,1.433.984,1.5Z" transform="translate(179.592 36.542)" fill="#474546" fill-rule="evenodd"/>
    <path id="Path_777" data-name="Path 777" d="M.485,1.047C.83.7.511.349.5,0-.163.265-.164.439.485,1.047Z" transform="translate(184.737 22.811)" fill="#474546" fill-rule="evenodd"/>
    <path id="Path_778" data-name="Path 778" d="M.967,0C.556.114.088.125.01.582c-.077.441.318.557.66.576A.711.711,0,0,0,1.484.511C1.53.136,1.219.06.967,0Z" transform="translate(81.693 59.453)" fill="#474546" fill-rule="evenodd"/>
    <path id="Path_779" data-name="Path 779" d="M.757,1.088c.379-.04.717-.177.69-.57C1.415.022.957.015.592,0,.294-.011,0,.14,0,.467,0,.944.381,1.051.757,1.088Z" transform="translate(68.6 61.873)" fill="#474546" fill-rule="evenodd"/>
    <path id="Path_780" data-name="Path 780" d="M1.353.43A.682.682,0,0,0,.534.014c-.3.046-.6.191-.52.547C.1.953.467,1.025.819.988A.531.531,0,0,0,1.353.43Z" transform="translate(83.268 60.759)" fill="#474546" fill-rule="evenodd"/>
    <path id="Path_781" data-name="Path 781" d="M.628,1.182c.4-.051.675-.232.651-.644A.546.546,0,0,0,.71,0C.328-.012.029.159,0,.557S.274,1.135.628,1.182Z" transform="translate(66.211 62.059)" fill="#474546" fill-rule="evenodd"/>
    <path id="Path_782" data-name="Path 782" d="M.839,0C.409.1-.01.177,0,.672a.43.43,0,0,0,.606.405c.37-.109.741-.291.726-.76C1.323-.021,1.005.058.839,0Z" transform="translate(86.175 62.625)" fill="#474546" fill-rule="evenodd"/>
    <path id="Path_783" data-name="Path 783" d="M0,.536A.693.693,0,0,0,.778,1c.355-.026.7-.2.593-.612C1.276.032.887-.031.544.012.255.047-.016.15,0,.536Z" transform="translate(76.59 62.785)" fill="#474546" fill-rule="evenodd"/>
    <path id="Path_784" data-name="Path 784" d="M.566,0C.343.01.017.038,0,.4c-.021.486.4.611.758.686A.42.42,0,0,0,1.295.612C1.267.235,1.013.033.566,0Z" transform="translate(40.396 56.486)" fill="#474546" fill-rule="evenodd"/>
    <path id="Path_785" data-name="Path 785" d="M.631,0C.254.024-.033.174,0,.6c.037.407.346.55.713.529s.691-.158.649-.587C1.326.141.974.053.631,0Z" transform="translate(28.807 55.134)" fill="#474546" fill-rule="evenodd"/>
    <path id="Path_786" data-name="Path 786" d="M.717,0C.364.03.021.11,0,.536c-.016.338.238.515.55.538A.606.606,0,0,0,1.264.528C1.306.174,1.03.046.717,0Z" transform="translate(34.357 60.392)" fill="#474546" fill-rule="evenodd"/>
    <path id="Path_787" data-name="Path 787" d="M.859,0C.523.2.028.278,0,.815c-.013.241.236.3.419.277.453-.064.838-.253.856-.788C1.282.076,1.1-.012.859,0Z" transform="translate(43.696 61.285)" fill="#474546" fill-rule="evenodd"/>
    <path id="Path_788" data-name="Path 788" d="M.152,1.02c-.434.919.124,1.26.871,1.49a15.06,15.06,0,0,1,3.32.759c1.426.364,3.012,1.5,4.563.057.233-.217.829-.023,1.254-.061.949-.087,1.256-.565.6-1.32C9.763.786,8.551-.307,6.922.079,4.683.607,2.331.182.152,1.02ZM9.835,2.115c-1.463.5-2.728,1.311-4.217.816C4.265,2.48,3.065,1.578,1.552,1.46,4.26,2.228,7.223-.536,9.835,2.115Z" transform="translate(49.207 56.49)" fill="#474546" fill-rule="evenodd"/>
    <path id="Path_789" data-name="Path 789" d="M1.756.387,2.265.332A3.306,3.306,0,0,0,.017.069,1.531,1.531,0,0,0,0,.333Z" transform="translate(83.811 66.639)" fill="#474546" fill-rule="evenodd"/>
    <path id="Path_794" data-name="Path 794" d="M.023,0,.137.151c0-.032,0-.078-.013-.09A.454.454,0,0,0,0,.02Z" transform="translate(102.646 82.061)" fill="#474546" fill-rule="evenodd"/>
    <path id="Path_795" data-name="Path 795" d="M1.549,0C.661,1.445-.71,2.374.439,4.042A2.028,2.028,0,0,1,.565,5.173c-.025.655.057,1.1.9,1.107.816.006,1.314-.223,1.353-1.093C2.9,3.45,2.219,1.905,1.549,0Z" transform="translate(131.979 74.382)" fill="#474546" fill-rule="evenodd"/>
    <path id="Path_796" data-name="Path 796" d="M.055,2.943a5.252,5.252,0,0,0,.1.961c.117.337-.018.862.454.957.406.081.7-.271.932-.572A9.243,9.243,0,0,0,3.209,1.622,1.052,1.052,0,0,0,2.674.2c-.6-.362-.925-.2-1.336.264C.633,1.25-.228,1.944.055,2.943Z" transform="translate(130.128 84.437)" fill="#474546" fill-rule="evenodd"/>
    <path id="Path_797" data-name="Path 797" d="M2.455,3.37C4,3.2,3.337,1.779,3.542.9,3.758-.018,2.881.009,2.28,0,1.226-.018-.143,1.061.012,1.818.258,3.032,1.267,3.257,2.455,3.37Z" transform="translate(125.92 70.237)" fill="#474546" fill-rule="evenodd"/>
    <path id="Path_798" data-name="Path 798" d="M.534,1.385A1.453,1.453,0,0,0,1.546.353C1.631.059,1.338-.062,1.094.03.616.211.058.365,0,1-.019,1.246.2,1.409.534,1.385Z" transform="translate(163.001 23.532)" fill="#474546" fill-rule="evenodd"/>
    <path id="Path_799" data-name="Path 799" d="M.908,0C.531.174.142.367.018.818c-.08.289.116.456.386.455A.8.8,0,0,0,1.269.514.4.4,0,0,0,.908,0Z" transform="translate(172.976 28.05)" fill="#474546" fill-rule="evenodd"/>
    <path id="Path_800" data-name="Path 800" d="M.248,0A20.317,20.317,0,0,0,.784,8.519C1.274,5.647.566,2.834.248,0Z" transform="translate(107.907 57.028)" fill="#474546" fill-rule="evenodd"/>
    <path id="Path_801" data-name="Path 801" d="M0,0C2.412,2.014,1.087,4.713,1.359,7.158c.962-.789,1.3-3.205.708-4.964C1.732,1.2,1.422.118,0,0Z" transform="translate(110.563 57.532)" fill="#474546" fill-rule="evenodd"/>
    <path id="Path_802" data-name="Path 802" d="M0,.054C.1,1.862.194,3.679.3,5.495c.015.235.059.525.366.517a.651.651,0,0,0,.433-.3c.5-.8-.038-4.993-.718-5.7C.339-.026.2.029,0,.054Z" transform="translate(109.578 58.603)" fill="#474546" fill-rule="evenodd"/>
    <path id="Path_803" data-name="Path 803" d="M.3,0C-.284,1.948.14,3.552.265,5.15c.019.239.176.519.431.486.34-.041.436-.385.386-.672C.8,3.417,1.026,1.8.3,0Z" transform="translate(105.885 58.162)" fill="#474546" fill-rule="evenodd"/>
    <path id="Path_804" data-name="Path 804" d="M.357,0A1.27,1.27,0,0,0,.314,1.718.369.369,0,0,0,.661,1.7,1.332,1.332,0,0,0,.357,0Z" transform="translate(104.371 60.781)" fill="#474546" fill-rule="evenodd"/>
    <path id="Path_806" data-name="Path 806" d="M0,16.144C2.252,13.458,2.9,2.861,1.013,0,1.7,5.449,1.73,10.853,0,16.144Z" transform="translate(196.507 57.379)" fill="#474546" fill-rule="evenodd"/>
    <path id="Path_807" data-name="Path 807" d="M0,.378A1.537,1.537,0,0,0,1.045,1.443c.275.078.439-.178.4-.443C1.342.4.863.158.348.012.124-.052.029.149,0,.378Z" transform="translate(194.828 67.481)" fill="#474546" fill-rule="evenodd"/>
    <path id="Path_808" data-name="Path 808" d="M1.061,0A1.582,1.582,0,0,0,.02.91c-.085.187.107.371.327.339A1.153,1.153,0,0,0,1.374.381.3.3,0,0,0,1.061,0Z" transform="translate(194.859 64.545)" fill="#474546" fill-rule="evenodd"/>
    <path id="Path_809" data-name="Path 809" d="M.389.4A2.1,2.1,0,0,0,.476.034C.152-.1.1.179,0,.38Z" transform="translate(195.987 60.55)" fill="#474546" fill-rule="evenodd"/>
    <path id="Path_810" data-name="Path 810" d="M.639.025.25,0Q.126.173,0,.345L.413.712C.49.482.564.253.639.025Z" transform="translate(195.737 60.93)" fill="#474546" fill-rule="evenodd"/>
  </g>
</svg>
