<svg xmlns="http://www.w3.org/2000/svg" width="133.842" height="165.131" viewBox="0 0 133.842 165.131">
  <g id="Group_2423" data-name="Group 2423" transform="translate(61.208) rotate(25)">
    <path id="Path_545" data-name="Path 545" d="M48.415.075c-11.491-.791-18.24,4.866-27.5,7.115A43.49,43.49,0,0,0,13,15c-.286,3.131-1,6.587-1.533,10.054C8.28,45.964,6.029,66.588,2.9,87.116c-1.129,7.4-1.687,14.916-2.459,21.978C.194,111.371-.4,113.8.414,115.945c.792.411,2.282.305,3.065.722-1.728,2.882-2.765,7.461-.749,9.919-1.483,1.487.274,2.9.368,4.246.113,1.607-.91,3.4.349,4.371a2.116,2.116,0,0,0,1.491.227c1.035-.641,1.216-2.442,1.617-3.944.416-.684,1.283-.756,1.525-1.674a3.02,3.02,0,0,0,.284-1.861,6.852,6.852,0,0,0,1.971-2.112c.964-2.848.4-5.4.162-7.722C26.149,120.9,41.805,123.8,57.44,125.9c-.661,2.05-1.963,4.418-1.642,6.608.2,1.378,1.149,2.037,1.445,3.012a5.168,5.168,0,0,0-.55,1.951c1.213,1.576.164,4.77.737,6.842a3.367,3.367,0,0,0,1.7.514c1.345-.668,1.385-3.114,1.893-4.919a5.755,5.755,0,0,0,1.254-3.238,5.935,5.935,0,0,0,2.309-1.808,14.087,14.087,0,0,0,.178-7.845c.812-.423,1.678.071,2.452-.262,3.484-16.41,4.88-33.644,6.807-50.522,1.942-17,4.555-34.131,6.121-51.007-1.906-4-3.652-8.113-6.375-11.512C64.529,9.749,61.368,1.311,48.415.075Z" transform="translate(0)" fill="#474546" fill-rule="evenodd"/>
    <path id="Path_546" data-name="Path 546" d="M39.013,1.38c-14.965-4.527-23,3.379-34.193,5.2a25.532,25.532,0,0,1-3.765,3.87c-.135.507-1.421.91-.953,1.253,5.674-.7,10.044-2.8,14.8-4.6C20.385,5.025,25.33,2.24,33.622,4.241c3.894,1.14,6.911,2.925,10.24,4.481,6.189,3.86,9.7,9.689,16.7,12.957C59.2,19.294,57.3,16.362,56.373,13.3,49.3,10.271,45.548,4.8,39.013,1.38Z" transform="translate(16.548 1.817)" fill="#f5f6fa" fill-rule="evenodd"/>
    <path id="Path_547" data-name="Path 547" d="M43.89.07C38.162-.319,33.71,1.531,29.636,3.613A47.379,47.379,0,0,1,15.887,7.995c-1.192.075-2.332.226-3.482.359-4.766,31.092-8.254,62.1-12.4,93.1,10.684,1.4,21.441,3.694,32.049,5.52C37.23,71.543,41.493,35.722,46.746.5A14.645,14.645,0,0,0,44.282,0C44.122-.015,44.085.134,43.89.07ZM22.071,7.413c-.073.552-.289.906-.772.9C20.115,7.987,21.4,6.367,22.071,7.413Zm-2.49.51a.463.463,0,0,1-.82.382C18.925,8.03,19.072,7.73,19.581,7.923Zm21,19.708c-.893,8.5-2.223,17.093-3.523,25.624-2.592,17.017-3.856,34.271-7.217,50.713-8.356-.651-18.59-2.582-27.037-4.246C4.411,85.4,4.94,70.577,7.721,55.769c.687-3.658.879-7.436,1.454-11.206,1.708-11.211,2.959-22.533,5-33.654a43.631,43.631,0,0,0,6.4-1.183c3.243-1.63,6.838-2.786,10.176-4.291,3.4-1.574,6.569-3.455,10.866-3.806a7.514,7.514,0,0,1,2.178.713C43.248,10.715,41.479,19.071,40.581,27.631Z" transform="translate(2.293 7.159)" fill="#fff" fill-rule="evenodd"/>
    <path id="Path_548" data-name="Path 548" d="M14.056,0c-.151,0-.166.175-.182.353C12.771,17.666,9.1,35.493,7.2,53.309S1.979,89.169,0,106.439c10.012,1.681,20.48,3.579,30.636,4.793,4.928-31.174,7.261-61.3,11.939-92.538-5.705-2.24-9.2-6.5-13.349-9.906C24.964,5.287,20.537,1.881,14.056,0Zm4.289,2.686c-.021.62-.3.889-.772.9C16.367,3.23,17.675,1.643,18.345,2.686Zm-1.851.479c-.4,0-.458-.25-.708-.362C15.815,1.253,17.53,2.491,16.494,3.165ZM40.12,24.8c.572-.306,1.213-.018.882.9a.727.727,0,0,1-.995-.152Q40.064,25.17,40.12,24.8Zm.36,3.484c-.248-.037-.208.314-.533.172a.643.643,0,0,1,.027-1.012C40.471,27.478,40.607,27.783,40.479,28.281Zm-.64-7.464c-.359,7.419-2.2,14.711-2.993,22.149-.78,7.347-2.071,14.605-2.833,21.92-.745,7.186-1.326,14.543-2.44,21.853S30.035,101.574,28,108.545a60.033,60.033,0,0,0-6.1-.8c-2.159-.234-4.342-.789-6.557-1.126-4.455-.678-9.139-1.149-12.833-2.463.629-8.167,1.877-16.477,3.142-24.793S7.693,62.6,8.971,54.214c2.552-16.761,4.187-33.74,6.838-49.882.251.091.341-.036.515-.049,6.776,1.109,10.483,5.792,14.045,9.506A36.192,36.192,0,0,0,39.839,20.817Z" transform="translate(36.081 7.957)" fill="#fff" fill-rule="evenodd"/>
    <path id="Path_549" data-name="Path 549" d="M36.912.07c-8.159,1.842-14.759,5.8-22.257,8.547a12.317,12.317,0,0,1-3.712.2C7.931,30.969,3.595,53.148,1.992,74.247,1.444,81.47.242,88.546,0,95.659a195.781,195.781,0,0,0,24.536,3.992c3.431-15.91,4.722-32.91,7.171-49.578C34.159,33.386,36.294,16.322,38.669.21L37.3,0C37.143-.015,37.107.134,36.912.07ZM27.978,57.887c-2.95-.114-3.04-4.87.115-4.935a3.168,3.168,0,0,1,1.931.675C31.087,55.35,29.713,57.954,27.978,57.887Zm2.816-43.51C26.335,40.5,24.148,66.593,19.333,92.127a67.752,67.752,0,0,1-14.15-2.155c1.189-6.02,1.755-13.312,2.691-20.162.761-5.57,2.166-11.164,2.8-16.718C11.942,42,13.123,30.911,14.8,20.195c1.138-1.3,3.56-.857,5.078-1.641,3.157-1.348,5.368-3.987,8.554-5.3a6.745,6.745,0,0,0,1.174-.2c.195.066.23-.085.389-.068C31.012,12.9,31.023,13.55,30.794,14.377Z" transform="translate(6.527 10.17)" fill="#f5f6fa" fill-rule="evenodd"/>
    <path id="Path_550" data-name="Path 550" d="M13.591,0c-.149,0-.166.175-.181.353C8.825,33.068,5.124,65.627,0,98.381c8.306,1.439,16.65,2.178,24.488,3.476C28.245,73.445,30.663,45.58,35.7,16.575,26.471,12.418,23.929,3.342,13.591,0Zm6.1,94.142c-3.924.6-8.934-.993-13.338-1.651-.143-.738-.177-1.557-.28-2.328q2.34-17.315,4.637-34.6c-.487,1.708-3.994,1.6-4.362-.538-.187-3.105,3.749-3.839,4.522-1.344,2.183-13.394,2.913-27.119,5.811-40.641.248.092.338-.035.514-.048,5.956,2.67,7.19,8.816,12.387,12.046C27.027,47.688,23.541,71.353,19.7,94.142Z" transform="translate(39.303 13.203)" fill="#f5f6fa" fill-rule="evenodd"/>
    <path id="Path_551" data-name="Path 551" d="M9.986.088C9.978-.118,9.807.07,9.824.318,7.985,9.546,7.438,18.486,6.076,27.43,3.472,44.511.937,61.538,0,77.3c3.618.363,8.014,1.188,11.21,1.454,4.162-22.822,5.815-44.95,9.589-67.115C16.837,8.053,14.295,3.421,9.986.088Z" transform="translate(46.928 27.57)" fill="#f5f6fa" fill-rule="evenodd"/>
    <path id="Path_552" data-name="Path 552" d="M8.673,7.208C6.787,29.376,2.783,53.191,0,74.971c3.768.375,7.771,1.074,11.686,1.652,3.759-24.49,7.87-51.015,10.778-76.585L22.216,0C17.53,2.17,14.306,6.328,8.673,7.208Z" transform="translate(13.208 24.511)" fill="#f5f6fa" fill-rule="evenodd"/>
    <path id="Path_553" data-name="Path 553" d="M0,.893C.453,1.06.617.831,1.012.92c.05-.33.155-.7.009-.888C.342-.141.207.421,0,.893Z" transform="translate(34.148 65.332)" fill="#fff" fill-rule="evenodd"/>
    <path id="Path_554" data-name="Path 554" d="M.839,0C.7.367.135.141,0,.508.4,1.052,1.529.41.839,0Z" transform="translate(47.199 67.578)" fill="#fff" fill-rule="evenodd"/>
    <path id="Path_555" data-name="Path 555" d="M.382.352A15.449,15.449,0,0,0,.033,3.474c22.181,2.231,43.088,7.659,64.3,10.557q.237-1.549.472-3.1C43.1,8.109,21.24,4.223.563,0,.413,0,.4.175.382.352Z" transform="translate(1.704 109.625)" fill="#fff" fill-rule="evenodd"/>
    <path id="Path_556" data-name="Path 556" d="M.4,0A.343.343,0,0,0,.1.334C.064.541.033.748,0,.956c4.951.938,10,1.524,15.144,2.307C31.237,5.714,46.8,9.174,62.917,11.429c.573-.073,1.755.685,1.69-.252C56.854,9.9,48.037,8.3,39.525,6.594,26.629,4.013,13.4,2.193.4,0Z" transform="translate(1.365 113.74)" fill="#fff" fill-rule="evenodd"/>
    <path id="Path_557" data-name="Path 557" d="M1.473,6.977C5.127,9.134,6.555,4.154,5.827.911,4.3.674,2.944.312,1.521,0,.528,2.09-.362,5.8.149,8.172c1.066,1.843,4.744,1.768,5.279-.465C4.059,9.154-.364,7.866.6,5.193A13.02,13.02,0,0,1,1.473,6.977Z" transform="translate(3.695 116.932)" fill="#fff" fill-rule="evenodd"/>
    <path id="Path_558" data-name="Path 558" d="M.914,0C-.77,2.7-.092,6.7,2.661,6.87,5.022,7.017,6.042,3.1,5.612.843A43.9,43.9,0,0,1,.914,0Z" transform="translate(57.91 125.987)" fill="#fff" fill-rule="evenodd"/>
    <path id="Path_559" data-name="Path 559" d="M.108,0C-.9,3.375,5.41,6.3,6.143,2.061c-.516.2-1.423,1.158-2.462,1.149C1.441,2.913.656,1.543.108,0Z" transform="translate(57.11 130.696)" fill="#fff" fill-rule="evenodd"/>
    <path id="Path_560" data-name="Path 560" d="M.013,1.118A3.455,3.455,0,0,0,2.753,2.3,1.933,1.933,0,0,0,3.372.741,11.218,11.218,0,0,1,.183,0C-.081.371.021.664.013,1.118Z" transform="translate(3.551 127.5)" fill="#fff" fill-rule="evenodd"/>
    <path id="Path_561" data-name="Path 561" d="M0,.015C.075.73-.182,1.69.6,1.884,1.348,1.8,1.784,1.291,1.967.441,1.138.463.46-.1,0,.015Z" transform="translate(58.641 136.359)" fill="#fff" fill-rule="evenodd"/>
    <path id="Path_562" data-name="Path 562" d="M.254,2.825c.6-.478.682-1.672,1.018-2.512C.716.319.6-.005.05,0,.134.93-.223,2.184.254,2.825Z" transform="translate(4.042 130.984)" fill="#fff" fill-rule="evenodd"/>
    <path id="Path_563" data-name="Path 563" d="M.233,3.055a30.411,30.411,0,0,0,.95-2.9L.189,0C.278.963-.31,2.426.233,3.055Z" transform="translate(58.416 139.922)" fill="#fff" fill-rule="evenodd"/>
  </g>
</svg>
