<svg xmlns="http://www.w3.org/2000/svg" width="419.152" height="548.741" viewBox="0 0 419.152 548.741">
  <g id="Group_2503" data-name="Group 2503" transform="translate(-210.76 -132.738)">
    <g id="Group_2428" data-name="Group 2428" transform="matrix(0.087, 0.996, -0.996, 0.087, 691.096, 107.783)">
      <path id="Path_812" data-name="Path 812" d="M246.5,113.531a2.189,2.189,0,0,0-.8.572,2.844,2.844,0,0,0-.8,1.123,4.453,4.453,0,0,0-.225,2.419c.387,2.5.75,5,1.149,7.5.159.987.321,1.97.528,2.936.435,2.038.87,4.072,1.305,6.114q1.521,7.118,3.045,14.245c.567,2.665,1.191,5.3,1.788,7.953q1.832,8.116,3.664,16.232,4.541,20.134,9.028,40.277,5.5,24.5,10.949,49.026c1.494,6.758,3.03,13.5,4.465,20.283q3.092,14.618,6.187,29.231c1.515,7.161,2.934,14.363,4.4,21.549q2.169,10.671,4.348,21.338,2.061,10.105,4.117,20.211-1.512-5.472-3.022-10.94c-2.211-8.008-4.381-16.033-6.571-24.049-1.677-6.144-3.4-12.262-5.131-18.38q-2.255-7.983-4.507-15.965c-.6-2.106-1.182-4.224-1.788-6.322-4.2-14.495-8.368-29.007-12.662-43.455q-3.988-13.41-7.972-26.82c-.675-2.267-1.374-4.521-2.061-6.775q-2.408-7.881-4.813-15.762-4.469-14.637-8.98-29.24c-1.287-4.19-2.6-8.364-3.9-12.542-1.476-5.131-2.937-10.275-4.483-15.359a2.859,2.859,0,0,0-.8-1.127l-.057-.047-.222-.619a2,2,0,0,0-2.49-1.428,2.17,2.17,0,0,0-.975.8,3.722,3.722,0,0,0-.648,2.2c.063,1,.1,2,.213,2.991.039.356.078.712.12,1.064.138.83.291,1.657.468,2.474.5,2.474,1.188,4.877,1.854,7.267.612,2.19,1.218,4.381,1.833,6.563q2.088,7.385,4.171,14.783c.783,2.771,1.545,5.555,2.352,8.313q1.728,5.9,3.454,11.8c1.98,6.754,3.991,13.495,5.911,20.278q1.157,4.08,2.307,8.156,1.157,4.945,2.31,9.885,1.922,8.224,3.841,16.435l1.233,5.284c.132.555.267,1.11.387,1.674q2.925,13.823,5.857,27.646c.465,2.208.954,4.4,1.4,6.618q1.265,6.343,2.532,12.69c1.428,7.165,2.919,14.313,4.237,21.524q2.016,11.052,4.033,22.1c.276,1.5.519,3,.762,4.517q1.013,6.222,2.022,12.457.378,2.332.759,4.669c.09.568.189,1.131.264,1.7q.747,5.517,1.488,11.042c.189,1.4.375,2.8.567,4.207.12.9.2,1.809.3,2.707.426,3.936.87,7.864,1.293,11.8.021.292.045.585.066.877-.15-.233-.294-.475-.435-.716-.405-.771-.783-1.555-1.152-2.368-.576-1.275-1.065-2.635-1.557-3.983s-.96-2.72-1.449-4.08c-.549-1.538-1.119-3.059-1.662-4.6-.867-2.466-1.686-4.966-2.481-7.483a3.7,3.7,0,0,0,1.164-3.631c-.327-1.589-.624-3.191-1-4.762-.165-.691-.333-1.385-.5-2.076q-.995-4.176-1.992-8.355c-.657-2.746-1.308-5.5-1.959-8.258-1.752-7.436-3.487-14.885-5.272-22.312q-3.2-13.308-6.406-26.625c-.615-2.547-1.287-5.072-1.929-7.605q-2.061-8.122-4.126-16.245c-.687-2.7-1.347-5.4-2.052-8.088q-1.328-5.046-2.655-10.08c-2.019-7.665-4.009-15.338-6.052-22.99q-3.619-13.531-7.237-27.074c-1.863-6.966-3.814-13.889-5.737-20.821-2.385-8.593-4.792-17.168-7.285-25.7q-2.138-7.315-4.27-14.647c-1.575-5.432-3.105-10.889-4.729-16.283a2.808,2.808,0,0,0-.765-1.08,1.668,1.668,0,0,0-1.074-.407,1.869,1.869,0,0,0-.834.093,5.906,5.906,0,0,0-.744.47,2.692,2.692,0,0,0-.372.386c-1.029-3.271-2.07-6.546-3.06-9.847a2.835,2.835,0,0,0-.786-1.11,1.654,1.654,0,0,0-1.683-.309,2.482,2.482,0,0,0-1.308,1.419,4.044,4.044,0,0,0-.219,2.381c2.382,8.3,4.648,16.643,6.94,24.986-.138-.47-.276-.945-.414-1.415q-.6-2.059-1.194-4.118c-.459-1.58-.963-3.123-1.479-4.669a2.805,2.805,0,0,0-.786-1.11,1.647,1.647,0,0,0-1.686-.305,2.506,2.506,0,0,0-1.308,1.415,4.38,4.38,0,0,0-.222,2.381c.132.9.279,1.784.453,2.665.186.814.387,1.627.6,2.432.414,1.623.891,3.212,1.362,4.8q1.013,3.4,2.058,6.792.968,3.14,1.938,6.283,2.57,8.332,5.14,16.664,4.316,13.995,8.569,28.024l7.036,24.842c.6,2.123,1.224,4.237,1.791,6.372q1.661,6.247,3.321,12.487c1.812,6.817,3.64,13.63,5.434,20.46q3.452,13.169,6.91,26.341,1.143,4.366,2.262,8.745.752,3.578,1.5,7.16.671,3.2,1.3,6.423l3.79,19.486c.906,4.656,1.7,9.355,2.532,14.041q.59,3.3,1.176,6.6c.159.886.285,1.788.429,2.682q.428,2.707.861,5.411c.237,1.5.48,2.987.708,4.483-.117-.326-.234-.648-.348-.974-.42-1.2-.822-2.419-1.224-3.635-1.6-4.826-3.051-9.737-4.555-14.613q-3.637-12.209-7.258-24.439c-2.007-6.754-3.895-13.592-5.83-20.393q-6.427-22.619-12.785-45.285c-.627-2.233-1.278-4.449-1.923-6.673q-2.286-7.951-4.582-15.9-2.538-8.809-5.11-17.584-3.889-13.169-7.774-26.333c-.771-2.614-1.59-5.2-2.385-7.8q-2.435-7.925-4.87-15.851c-.228-.737-.453-1.479-.681-2.22-.282-1-.564-1.991-.873-2.966q-2.988-9.444-5.974-18.9-1.1-3.5-2.211-6.991c-.531-1.686-1.116-3.347-1.677-5.012q-1.233-3.661-2.469-7.334l-.792-2.441c-.828-2.542-1.68-5.072-2.469-7.644-.249-.9-.486-1.822-.78-2.695a14.523,14.523,0,0,0-.777-2.042c-.156-.305-.327-.6-.5-.886a2.017,2.017,0,0,0-.888-.729,1.523,1.523,0,0,0-1.554.288,2.947,2.947,0,0,0-.924,1.695l-.072.763a3.718,3.718,0,0,0,.276,1.432c1,3.127,1.986,6.266,3.024,9.368q1.247,3.724,2.484,7.432,1.386,4.137,2.766,8.266c.291.877.591,1.75.87,2.635q4.073,12.972,8.146,25.931,3.519,12.425,7.045,24.858c.579,2.047,1.176,4.085,1.725,6.152q1.679,6.356,3.357,12.72,1.985,7.519,3.979,15.054c.474,1.8.942,3.589,1.4,5.394q3.5,13.938,7.009,27.875c.552,2.207,1.062,4.44,1.59,6.665q1.913,8.065,3.823,16.122c.57,2.394,1.152,4.784,1.7,7.182q1.634,7.182,3.264,14.359,2.655,11.669,5.26,23.346.995,4.411,1.968,8.83.662,2.993,1.329,5.983-2.187-7.328-4.375-14.651c-.957-3.2-1.851-6.453-2.778-9.677q-2.21-7.7-4.423-15.4-2.831-9.864-5.71-19.706c-1.839-6.33-3.664-12.656-5.524-18.982q-4.213-14.313-8.425-28.63c-1.89-6.419-3.886-12.766-5.836-19.147q-2.241-7.315-4.48-14.622c-.519-1.682-1.035-3.369-1.566-5.038q-4.406-13.817-8.812-27.625-8.4-26.337-16.9-52.607c.063.216.129.432.2.648-.216-.686-.411-1.39-.579-2.1l-.276-1.072q-.252-.845-.507-1.691c-.12-.318-.24-.635-.366-.953l-.762-1.4a4.3,4.3,0,0,0-1.089-1,1.522,1.522,0,0,0-2.034,0,3.468,3.468,0,0,0-.924,3.216c.519,2.657,1.008,5.322,1.56,7.966.144.7.291,1.326.465,1.991q.819,3.159,1.641,6.3,1.737,6.667,3.475,13.325c.156.606.33,1.212.5,1.809q.891,3.165,1.779,6.334,2.205,7.849,4.408,15.7c1.815,6.466,3.688,12.9,5.548,19.338,1.881,6.521,3.808,13.025,5.62,19.592q3.943,14.268,7.885,28.536c.489,1.775.951,3.559,1.41,5.356q1.989,7.7,3.979,15.4,2.457,9.533,4.9,19.075,3.105,12.228,6.208,24.448,2.156,8.5,4.321,16.995-1.823-6-3.637-11.995-2.682-8.841-5.377-17.664-4.118-13.448-8.239-26.892c-.627-2.042-1.3-4.059-1.95-6.089q-2.489-7.76-4.984-15.529-1.913-5.955-3.823-11.91c-.621-1.936-1.275-3.851-1.917-5.771q-4.217-12.635-8.428-25.257c-.486-1.445-1.005-2.868-1.509-4.3q-1.908-5.447-3.817-10.9-1.449-4.125-2.892-8.254c-.564-1.61-1.173-3.182-1.764-4.771-1.965-5.279-3.9-10.58-5.929-15.813-1.02-2.627-2.028-5.267-3.054-7.885q-.887-2.256-1.767-4.517c-.24-.614-.48-1.224-.72-1.839-.519-1.33-1.1-2.618-1.656-3.919-.432-1-1.278-1.513-2.082-1.2a2.078,2.078,0,0,0-1.1,1.2,3.683,3.683,0,0,0-.189,2c.042.267.081.534.123.8a13.078,13.078,0,0,0,.474,1.936c.372,1.364.837,2.686,1.3,4,.8,2.267,1.719,4.449,2.493,6.737q1.1,3.222,2.187,6.449l5.05,14.885c.1.318.2.644.291.962q.468,1.519.933,3.046,1.481,4.83,2.955,9.656,2.111,6.908,4.225,13.817,3.5,12.571,7,25.155c1.764,6.334,3.469,12.7,5.182,19.062,1.806,6.707,3.628,13.393,5.395,20.122q1.98,7.557,3.964,15.1-5.77-18.228-11.585-36.43c-4.126-12.936-8.2-25.914-12.311-38.853q-11.652-36.716-23.293-73.444c-.414-1.424-.8-2.86-1.23-4.275a12.947,12.947,0,0,0-.75-1.9,8.649,8.649,0,0,0-1.152-1.78,1.709,1.709,0,0,0-2.574-.47,2.819,2.819,0,0,0-.762,1.076,4.319,4.319,0,0,0-.213,2.309c.345,2.453.663,4.911,1.068,7.343.45,2.707,1.044,5.373,1.617,8.029q.887,4.1,1.839,8.169,1.773,7.506,3.547,15.016c.6,2.525,1.176,5.063,1.8,7.576q1.683,6.75,3.37,13.491,5.855,23.452,11.666,46.933c.636,2.563,1.212,5.148,1.818,7.724q1.944,8.262,3.889,16.524c.645,2.746,1.314,5.483,1.935,8.237q1.242,5.479,2.478,10.961c1.629,7.216,3.246,14.44,4.9,21.655l1.935,8.453q-1.472-5.192-2.946-10.381-2.565-9.037-5.179-18.037-2.331-8.027-4.666-16.058c-.747-2.576-1.485-5.165-2.247-7.728q-6.526-22.009-13.088-44-2.012-6.705-4.021-13.423c-.681-2.263-1.341-4.546-2.037-6.8q-3.4-10.925-6.781-21.88c-1.881-6.076-3.856-12.105-5.8-18.147q-1.188-3.693-2.391-7.377-.9-2.79-1.812-5.584c-.363-1.119-.705-2.241-1.053-3.373-.324-1.063-.693-2.076-1.083-3.093a22.455,22.455,0,0,0-1.143-2.28,2.728,2.728,0,0,0-.747-1.059,1.574,1.574,0,0,0-1.608-.292,2.357,2.357,0,0,0-1.248,1.352,4.3,4.3,0,0,0-.21,2.271c.174,1.322.336,2.652.516,3.974s.489,2.593.768,3.873c.561,2.568,1.248,5.076,1.935,7.58q1.04,3.82,2.094,7.631,2,7.207,4,14.406,2.736,9.851,5.425,19.719,2.192,8.059,4.384,16.109c.582,2.144,1.179,4.271,1.743,6.432q3.65,14.02,7.3,28.019c1.584,6.08,3.135,12.169,4.693,18.253q2.016,7.868,4.027,15.728c.5,1.936,1.005,3.877,1.485,5.822q3.448,13.982,6.892,27.977.477,1.932.948,3.873-1.391-5.18-2.787-10.351c-2.073-7.673-4.12-15.359-6.217-23.02-4.012-14.652-8-29.3-12.071-43.912q-3.556-12.787-7.117-25.562c-2.178-7.83-4.4-15.639-6.61-23.456-1.251-4.44-2.514-8.872-3.739-13.33q-3.2-11.65-6.4-23.3c-1.626-5.923-3.183-11.893-4.771-17.842q-.954-3.584-1.893-7.182c-.468-1.767-.93-3.529-1.4-5.3-.222-.852-.417-1.712-.6-2.576-.234-1.089-.486-2.135-.792-3.19a11.6,11.6,0,0,0-.705-1.957,2.912,2.912,0,0,0-.8-1.131,1.691,1.691,0,0,0-1.719-.314,2.529,2.529,0,0,0-1.338,1.445,4.247,4.247,0,0,0-.222,2.436c2.535,10.5,5.2,20.935,7.816,31.392,1.947,7.758,3.856,15.537,5.782,23.3.6,2.4,1.209,4.8,1.782,7.207q1.422,5.981,2.844,11.957,1.863,7.836,3.727,15.673c.447,1.864.9,3.724,1.305,5.61q3.146,14.5,6.286,28.985c.411,1.89.8,3.792,1.179,5.695q1.562,7.9,3.12,15.8,1.022,5.161,2.04,10.321c.672,3.411,1.278,6.843,1.914,10.262q2.039,10.887,4.066,21.766,2.349,12.692,4.7,25.384c1.47,7.932,2.9,15.906,4.342,23.85.522,2.868,1.014,5.754,1.515,8.626q.689,3.921,1.371,7.838c.2,1.135.411,2.267.6,3.407.561,3.483,1.137,6.974,1.707,10.457l-.069-.208c-.525-1.644-1.023-3.313-1.524-4.97l.036.127c-.882-2.949-1.773-5.9-2.6-8.877q-.779-2.822-1.557-5.639-2.142-7.747-4.288-15.5-.414-1.513-.834-3.017c-.285-1.042-.537-2.114-.8-3.169q-1.976-7.8-3.955-15.6-2.475-9.743-4.927-19.5l-4.072-16.177c-.525-2.085-1.041-4.173-1.581-6.25q-3.623-13.969-7.255-27.956c-1.716-6.622-3.541-13.215-5.326-19.816-1.206-4.453-2.415-8.923-3.622-13.376-.576-2.123-1.209-4.229-1.824-6.334q-2.309-7.906-4.621-15.812c-.735-2.517-1.431-5.072-2.229-7.555q-2.3-7.182-4.609-14.38c-.6-1.877-1.2-3.762-1.806-5.644-.384-1.2-.813-2.373-1.221-3.559-1.344-3.885-2.658-7.8-4.039-11.656q-1.3-3.623-2.592-7.241c-.414-1.165-.825-2.326-1.233-3.5-.378-1.106-.789-2.178-1.23-3.237-.213-.462-.444-.907-.69-1.339l-.513-.936q-.626-2.39-1.248-4.775-.459-1.748-.915-3.5c-.255-.97-.513-1.936-.774-2.907q-1.062-4.373-2.136-8.741a3.087,3.087,0,0,0-.936-1.716,1.535,1.535,0,0,0-1.566-.288c-1.1.424-1.683,2.013-1.422,3.534.4,2.347,1.035,4.623,1.629,6.885.426,1.619.858,3.233,1.284,4.851.447,1.7.894,3.4,1.338,5.1q.549,2.091,1.1,4.178c.036.6.075,1.2.144,1.788.045.36.087.72.129,1.085q.216,1.328.51,2.631c.549,2.627,1.341,5.165,2.055,7.711.453,1.614.9,3.233,1.353,4.843q1.8,6.394,3.6,12.783c1.617,6.5,3.189,13.008,4.771,19.528q2.358,9.7,4.69,19.41,1.454,6.095,2.9,12.19l4.492,20.49c.447,2.046.87,4.106,1.3,6.169,1.131,5.432,2.262,10.885,3.391,16.325.555,2.665,1.134,5.33,1.662,8.016q1.274,6.47,2.547,12.953,1.368,6.959,2.736,13.927c.5,2.521.936,5.055,1.4,7.58.816,4.479,1.632,8.94,2.454,13.423.417,2.3.87,4.6,1.257,6.906q1.841,10.893,3.673,21.8c.363,2.152.672,4.326,1,6.491q.873,5.8,1.746,11.584c.132.873.243,1.75.36,2.627l-.327-1.254q-1.845-7.061-3.691-14.113c-.651-2.487-1.251-5.008-1.875-7.512q-1.98-7.989-3.967-15.978c-3.283-13.224-6.337-26.541-9.58-39.785q-3.551-14.5-7.1-29.011c-.426-1.729-.867-3.44-1.311-5.156q-1.944-7.525-3.892-15.05c-1.659-6.428-3.292-12.868-5-19.261q-3.776-14.084-7.549-28.176c-1.065-3.97-2.157-7.949-3.237-11.919-1.365-5.017-2.7-10.067-4.1-15.071q-2.318-8.256-4.63-16.5-1.161-4.15-2.343-8.288c-.345-1.22-.693-2.445-1.026-3.678-.339-1.271-.63-2.555-1.014-3.8a20.555,20.555,0,0,0-.669-2c-.093-.2-.189-.394-.282-.589-.207-.381-.417-.758-.627-1.14a2.024,2.024,0,0,0-.888-.733,1.515,1.515,0,0,0-1.545.288,3.448,3.448,0,0,0-.927,3.207c.591,2.873,1.131,5.771,1.839,8.588.612,2.453,1.227,4.894,1.839,7.343.816,3.241,1.614,6.478,2.445,9.715q3.177,12.387,6.358,24.782,5.815,22.664,11.48,45.4,1.683,6.724,3.364,13.444c.555,2.216,1.065,4.453,1.59,6.682q1.926,8.148,3.856,16.3c.585,2.483,1.2,4.94,1.746,7.449q2.849,13.1,5.695,26.2c.651,2.987,1.242,5.987,1.863,8.982q1.508,7.309,3.021,14.613,2.574,12.444,5.188,24.859.675,3.216,1.347,6.436c-.609-1.894-1.218-3.792-1.824-5.682-.48-1.5-.993-2.991-1.449-4.512q-3.862-12.838-7.729-25.668l.039.136q-3.988-13.346-7.978-26.7c-.081-.271-.162-.547-.246-.822l-.024-.093c-.063-.2-.123-.4-.183-.6l-.006-.017c-.057-.2-.117-.394-.174-.593l-.072-.237c.042.148.087.3.132.449l-.012-.042v0c-2.43-8.139-4.8-16.283-7.207-24.426q-2.75-9.33-5.449-18.694c-2-6.911-3.979-13.825-6.022-20.719q-3.731-12.6-7.462-25.193c-1.494-5.029-3.045-10.025-4.573-15.033q-1.818-5.974-3.643-11.936-2.232-7.252-4.462-14.508-1.121-3.629-2.238-7.262-.612-1.983-1.227-3.962c-.2-.631-.39-1.258-.585-1.894-.381-1.229-.822-2.428-1.242-3.635a1.808,1.808,0,0,0-2.256-1.3,2.881,2.881,0,0,0-1.467,2.724c0,.453-.006.911-.006,1.369.054.657.129,1.313.234,1.962a35.774,35.774,0,0,0,.738,3.572c.387,1.627.822,3.224,1.23,4.839q.689,2.72,1.368,5.436,1.6,6.362,3.2,12.724c.219.869.468,1.729.7,2.589q1,3.712,2,7.411,1.868,6.915,3.739,13.834,3.1,11.484,6.241,22.965c1.815,6.682,3.586,13.385,5.362,20.083q3.187,12.025,6.352,24.07c-.324-1.089-.651-2.182-.981-3.267q-3.8-12.527-7.612-25.062-5.387-17.751-10.739-35.493Q71.1,194.636,66.1,177.62c-1.749-6-3.508-12-5.224-18.016-.852-3-1.731-5.978-2.562-8.991-1.167-4.237-2.331-8.478-3.526-12.7a3.379,3.379,0,0,0-.54-1.309,1.849,1.849,0,0,0-1.479-.869c-1.113,0-2.142,1.347-2.1,2.962l.024.822c.027.542.069,1.085.132,1.623.219,1.288.471,2.551.756,3.813.57,2.534,1.3,5,1.941,7.5.348,1.356.714,2.7,1.068,4.046q2,7.55,3.994,15.092c2.022,7.656,4.093,15.283,6.142,22.922q2.664,9.934,5.317,19.867c1.767,6.61,3.55,13.215,5.284,19.846Q78.814,247.56,82.3,260.9c.7,2.682,1.329,5.394,1.992,8.084q2,8.122,4,16.232c.4,1.627.807,3.258,1.2,4.889q-1.206-4.214-2.421-8.419-6.927-23.909-13.9-47.776c-1.878-6.406-3.73-12.834-5.659-19.206q-4.1-13.518-8.194-27.019c-.732-2.419-1.5-4.839-2.244-7.262q-2.426-7.817-4.846-15.639c-2.055-6.627-4.048-13.3-6.049-19.969q-1.589-5.5-3.168-10.991c-.393-1.364-.756-2.746-1.131-4.114s-.738-2.729-1.1-4.1c-.348-1.335-.7-2.669-1.053-4a3.224,3.224,0,0,0-.96-1.771,1.59,1.59,0,0,0-1.617-.3c-1.077.415-1.8,2.1-1.467,3.644.225,1.013.438,2.034.7,3.034q.365,1.43.726,2.856,1.008,3.934,2.016,7.872c.744,2.915,1.536,5.8,2.316,8.69Q44.3,156.329,47.175,167l4.288,15.889c.615,2.271,1.248,4.538,1.836,6.826q3.533,13.741,7.066,27.464c.486,1.877.948,3.754,1.41,5.635q1.913,7.8,3.829,15.6,2.39,9.749,4.783,19.461,5.972,24.278,11.957,48.556,3.542,14.363,6.973,28.778c.465,1.936.93,3.877,1.38,5.822.573,2.5,1.188,5,1.722,7.521.423,1.991.864,3.979,1.281,5.97-1.1-2.542-2.127-5.139-3.165-7.728-.651-1.623-1.284-3.241-1.914-4.885q-2.75-7.182-5.5-14.376c-.813-2.123-1.626-4.237-2.4-6.389q-2.52-7.061-5.047-14.126-1.139-3.2-2.283-6.4c-.324-.907-.66-1.8-.972-2.72q-1.728-5.059-3.463-10.109c-2.319-6.771-4.651-13.529-6.943-20.312q-3.839-11.364-7.681-22.727-1.994-8.11-4.027-16.19-3.286-12.946-6.571-25.888c-1.971-7.766-4-15.512-6-23.261-.6-2.347-1.23-4.673-1.86-7q-2.057-7.62-4.117-15.236c-.948-3.512-1.974-6.978-2.976-10.457-.7-2.428-1.4-4.843-2.094-7.266-.417-1.445-.84-2.881-1.257-4.322-.306-1.055-.627-2.106-.948-3.157-.423-1.4-.894-2.75-1.428-4.068a1.721,1.721,0,0,0-2.136-1.233,2.169,2.169,0,0,0-1.134,1.233,3.564,3.564,0,0,0-.192,2.055c1.038,4.008,2.187,7.974,3.307,11.94q1.5,5.332,3.009,10.673,3.448,12.209,6.862,24.452,1.562,5.6,3.069,11.224-.491-1.538-.981-3.08c-.2-.64-.411-1.288-.615-1.932-.324-1.03-.633-2.072-.951-3.106-.216-.691-.444-1.364-.693-2.034-.24-.593-.5-1.178-.762-1.746-.48-1.063-1.353-1.627-2.235-1.284-1.038.4-1.662,1.962-1.377,3.432.207,1.093.414,2.186.63,3.275.24,1.229.546,2.432.843,3.635.621,2.559,1.317,5.068,2,7.593.51,1.877,1.02,3.762,1.533,5.635q2.012,7.334,4.03,14.673c.726,2.644,1.485,5.267,2.232,7.9q2.111,7.43,4.219,14.855c2.145,7.546,4.339,15.075,6.508,22.609,2.1,7.309,4.126,14.664,6.178,22,1.866,6.665,3.625,13.385,5.41,20.092,1.851,6.961,3.649,13.944,5.449,20.931q.563,2.174,1.128,4.343.383,2.008.753,4.012c.186,1.025.372,2.055.561,3.08q-.923-2.523-1.839-5.042c-1.053-2.881-2.118-5.758-3.123-8.673-2.487-7.19-4.993-14.376-7.435-21.592s-4.9-14.427-7.312-21.66c-2.433-7.3-4.852-14.584-7.33-21.85-1.2-3.517-2.394-7.016-3.592-10.533-.561-1.64-1.107-3.288-1.683-4.919q-2.939-8.4-5.875-16.779c-1.512-4.322-3.066-8.61-4.582-12.936q-1.413-4.023-2.829-8.05-.536-1.544-1.065-3.1c-.606-1.754-1.224-3.491-1.863-5.224a1.7,1.7,0,0,0-2.109-1.212,2.7,2.7,0,0,0-1.371,2.546,8.7,8.7,0,0,0,.042,2c.057.428.111.852.168,1.28q.207,1.277.5,2.525c.3,1.394.648,2.763.96,4.157.438,1.966.873,3.919,1.311,5.881q.959,4.309,1.923,8.618,1.463,6.508,2.925,12.995c.624,2.758,1.2,5.534,1.791,8.309q.716,3.362,1.434,6.724c.174.8.345,1.593.5,2.39q1.17,6.114,2.343,12.224c.222,1.157.4,2.33.588,3.5q.549,3.343,1.1,6.686c.228,1.377.408,2.758.606,4.135.168,1.165.345,2.33.516,3.5-.447-1.051-.846-2.14-1.251-3.22-.771-2.063-1.5-4.165-2.187-6.279l-3.186-9.762q-1.251-4.207-2.5-8.415c-.75-2.517-1.437-5.063-2.133-7.605-.771-2.822-1.53-5.635-2.277-8.47-.3-1.119-.591-2.246-.9-3.36l-.81-2.949c-.177-.64-.348-1.3-.546-1.924-.279-.949-.555-1.907-.819-2.864a2.158,2.158,0,0,0-.627-1.148,1.019,1.019,0,0,0-1.05-.195,2.145,2.145,0,0,0-.951,2.368c.171,1.174.333,2.347.5,3.517.072.5.2,1,.306,1.487.246,1.178.477,2.356.738,3.529.321,1.428.7,2.822,1.056,4.233.249,1.008.483,2.021.75,3.017.738,2.792,1.509,5.559,2.265,8.343.534,1.958,1.122,3.885,1.7,5.822q.657,2.205,1.311,4.411c.27.907.519,1.835.813,2.733q1.242,3.813,2.481,7.622c.387,1.186.774,2.377,1.164,3.559.279.869.591,1.712.891,2.568q.837,2.377,1.737,4.7c.507,1.305,1.083,2.551,1.584,3.86.2.547.42,1.085.657,1.6.213.415.432.826.654,1.229a4.33,4.33,0,0,0,1.677,1.648,3.256,3.256,0,0,0,2.025-.114,1.814,1.814,0,0,0,.825-.678,3.238,3.238,0,0,0,.546-1.86l-.039-2.08c-.018-.991-.144-1.987-.237-2.97-.144-1.458-.387-2.9-.588-4.339q-.441-3.121-.882-6.25c-.2-1.364-.438-2.72-.66-4.076-.345-2.106-.687-4.2-1.032-6.309-.18-1.1-.411-2.195-.621-3.292-.459-2.4-.918-4.809-1.377-7.211-.2-1.063-.39-2.148-.615-3.2q-.59-2.784-1.188-5.563c-.7-3.309-1.374-6.639-2.115-9.927q-1.287-5.7-2.574-11.389c2.508,7.012,4.975,14.042,7.45,21.071,1.038,2.949,2.025,5.936,3.039,8.906,1.38,4.051,2.766,8.118,4.147,12.173,1.092,3.212,2.145,6.453,3.213,9.686q2.012,6.05,4.015,12.084,4.8,14.459,9.73,28.829c1.653,4.822,3.279,9.66,5,14.444l3.709,10.334c.531,1.475,1.068,2.936,1.587,4.415.249.72.516,1.424.8,2.123a19.461,19.461,0,0,0,.921,1.949c.258.487.531.953.825,1.4l.366.4a6.841,6.841,0,0,0,1.191,1.127,1.389,1.389,0,0,0,1.566.2q.279,1.023.555,2.046.783,2.892,1.566,5.779c.294,1.085.555,2.169.792,3.279l.285,1.072a9.478,9.478,0,0,0,.576,1.589,3.79,3.79,0,0,0,.921,1.212,1.382,1.382,0,0,0,1.842,0,3.116,3.116,0,0,0,.837-2.907c-.687-3.118-1.359-6.25-2.082-9.351q-.891-3.8-1.776-7.6-1.1-4.665-2.181-9.334c-1.725-7.461-3.427-14.944-5.182-22.4q-1.715-7.29-3.433-14.575c-.624-2.657-1.23-5.322-1.863-7.978q.653,1.907,1.3,3.813c.846,2.479,1.665,4.97,2.538,7.427q2.12,5.974,4.24,11.94,2.2,6.2,4.4,12.4c.192.542.393,1.076.6,1.614l2.355,6.2q2.529,6.661,5.056,13.317c1,2.631,2.055,5.237,3.1,7.834q1.409,3.489,2.961,6.851c1.068,2.33,2.313,4.466,3.553,6.627l.546.975a1.688,1.688,0,0,0,2.946,0c.114-.195.231-.39.345-.58a5.828,5.828,0,0,0,.579-1.216,6.505,6.505,0,0,0,.291-2.5c-.024-.271-.051-.538-.072-.8a16.547,16.547,0,0,0-.432-2.093c-.111-.47-.2-.915-.288-1.381-.384-1.962-.744-3.936-1.155-5.881q-.7-3.311-1.41-6.627c-.363-1.712-.765-3.4-1.158-5.1-1.617-7-3.3-13.974-5-20.935q-5.486-22.473-11.024-44.908-5.855-23.865-11.7-47.713,4.8,16.385,9.562,32.8c2.244,7.792,4.525,15.563,6.736,23.371q3.754,13.213,7.5,26.426,1.994,7.029,3.973,14.08,1.908,6.8,3.823,13.605c.627,2.229,1.236,4.47,1.884,6.69l6.439,22.062c1.671,5.716,3.388,11.4,5.026,17.13.189.682.384,1.369.579,2.046.069.233.138.462.207.691a2.682,2.682,0,0,0,.732,1.038,1.542,1.542,0,0,0,1.575.288,2.315,2.315,0,0,0,1.224-1.326,3.861,3.861,0,0,0,.2-2.224c-2.007-8.131-4.09-16.207-6.142-24.32-1.9-7.491-3.748-15.012-5.6-22.533-.876-3.546-1.7-7.114-2.547-10.669q-1.427-5.987-2.856-11.97c-1.986-8.317-3.916-16.673-5.866-25.007-.477-2.03-.975-4.055-1.473-6.084q-1.953-7.944-3.91-15.893-1.206-4.906-2.406-9.809c-.144-.572-.294-1.14-.444-1.7q2.723,8.974,5.446,17.944,3.659,12.444,7.312,24.88c1.878,6.377,3.694,12.783,5.521,19.185,1.929,6.783,3.871,13.558,5.776,20.359,2.109,7.55,4.21,15.118,6.346,22.651q1.715,6.07,3.436,12.139c.375,1.326.747,2.644,1.122,3.962.885,3.135,1.851,6.233,2.781,9.351a2.585,2.585,0,0,0,.7.987,1.476,1.476,0,0,0,1.98,0,2.945,2.945,0,0,0,.9-1.652c.054-.22.105-.436.159-.652a5.357,5.357,0,0,0-.024-1.881,17.711,17.711,0,0,0-.57-3c-.264-1.042-.537-2.072-.774-3.127q-.864-3.832-1.728-7.652c-.867-3.839-1.821-7.635-2.739-11.448-1.8-7.5-3.766-14.918-5.674-22.363-.885-3.466-1.818-6.911-2.73-10.364-.966-3.648-1.92-7.3-2.889-10.94q-3.119-11.707-6.238-23.431c-4.03-15.135-8-30.312-12.017-45.455Q89.627,237.48,87,227.761q1.517,5.091,3.039,10.186c2.055,6.885,4.024,13.808,6.028,20.715q2.709,9.349,5.446,18.7c2.406,8.19,4.789,16.389,7.219,24.566l.147.491a3.131,3.131,0,0,0,.15.5l.06.2a2.932,2.932,0,0,0,.159.53q5.77,19.41,11.546,38.836,1.917,6.419,3.835,12.847c.645,2.161,1.332,4.3,2.01,6.445q2.192,6.9,4.378,13.8c.435,1.369.879,2.729,1.308,4.1.66,2.093,1.284,4.186,2.046,6.216a24.568,24.568,0,0,0,1.3,2.8,9.117,9.117,0,0,0,1.341,1.852,1.924,1.924,0,0,0,.852.7,1.455,1.455,0,0,0,1.485-.275,2.475,2.475,0,0,0,.69-.979,3.869,3.869,0,0,0,.2-2.1c-.231-1.538-.444-3.08-.744-4.593-.249-1.267-.5-2.529-.753-3.8-.318-1.619-.651-3.233-.981-4.843-.756-3.665-1.512-7.313-2.277-10.974q-2.7-12.876-5.389-25.748-2.466-11.809-4.906-23.638c-1.248-6.034-2.553-12.042-3.862-18.046l.615,2.53c.564,2.313,1.14,4.618,1.692,6.944q3.25,13.671,6.5,27.341c2.454,10.321,5.032,20.562,7.564,30.841,1.191,4.851,2.481,9.652,3.727,14.478q1.026,3.947,2.04,7.889c.591,2.28,1.122,4.584,1.707,6.864.333,1.3.738,2.555,1.161,3.8a20.325,20.325,0,0,0,.822,1.949,10.088,10.088,0,0,0,1.4,2.085,1.591,1.591,0,0,0,1.854.691,2.713,2.713,0,0,0,1.4-2.593c-.084-1.725-.141-3.462-.333-5.165-.126-1.106-.255-2.22-.381-3.33-.189-1.64-.369-3.279-.585-4.915-.5-3.771-.945-7.559-1.512-11.309l-2.232-14.847c-.45-2.97-.978-5.906-1.476-8.86-.819-4.843-1.638-9.7-2.457-14.537-.087-.521-.177-1.042-.27-1.559q1.76,7.213,3.487,14.444c1.491,6.271,3,12.537,4.477,18.821q1.337,5.682,2.67,11.347c.4,1.682.792,3.36,1.188,5.046.7,2.97,1.491,5.894,2.247,8.838a3.152,3.152,0,0,0,.492,1.195,1.9,1.9,0,0,0,.849.695,1.746,1.746,0,0,0,2.169-1.241,4.942,4.942,0,0,0,.477-1.941c-.006-.339-.012-.678-.021-1.017a17.374,17.374,0,0,0-.219-1.771c-.075-.343-.15-.695-.228-1.038-.174-.686-.327-1.377-.462-2.08-.039-.191-.069-.39-.108-.581-.459-2.513-.924-5.034-1.386-7.542-.732-3.966-1.548-7.915-2.322-11.864-.624-3.178-1.308-6.322-1.977-9.482q-.824-3.909-1.65-7.822c-.27-1.28-.519-2.563-.81-3.826-1.839-7.983-3.673-15.935-5.515-23.918-.168-.716-.354-1.419-.534-2.131q-.873-3.489-1.746-6.974-1.958-7.786-3.907-15.579c-1.8-7.19-3.673-14.33-5.518-21.5-1.68-6.525-3.349-13.033-5-19.571-1.845-7.292-3.661-14.609-5.554-21.876l-6.814-26.2c-.237-.9-.5-1.8-.747-2.7q-1.1-3.985-2.205-7.966-.671-2.434-1.344-4.864c-.171-.712-.342-1.419-.51-2.131q1.98,6.069,3.958,12.143,3.614,12.145,7.207,24.278c.558,1.877,1.083,3.758,1.6,5.652q2.093,7.62,4.18,15.236,1.652,6.025,3.3,12.042c.606,2.212,1.167,4.44,1.749,6.665q3.376,12.914,6.757,25.842c.771,2.953,1.494,5.932,2.241,8.893q2.052,8.135,4.1,16.262,2.516,9.978,5.044,19.961,1.733,6.87,3.469,13.741c.612,2.415,1.3,4.813,1.95,7.2,3.13,11.444,6.166,22.952,9.656,34.176.426,1.373.885,2.724,1.308,4.1a68.419,68.419,0,0,0,2.022,7.067c.2.441.417.86.651,1.267a4.05,4.05,0,0,0,.786,1.03,2.16,2.16,0,0,0,.912.75l.411.1a2.291,2.291,0,0,0,2.406-.767,3.314,3.314,0,0,0,.585-1.987c-.117-1.271-.231-2.551-.348-3.822-.066-.7-.123-1.436-.219-2.127-.129-.932-.258-1.864-.387-2.8-.273-1.953-.516-3.923-.819-5.868q-.981-6.33-1.971-12.652c-.174-1.144-.39-2.271-.585-3.411q-.738-4.258-1.47-8.521c-.5-2.864-.978-5.741-1.5-8.6-1.434-7.9-2.847-15.834-4.306-23.723l-5.02-27.117q-2.165-11.669-4.354-23.337c-.453-2.407-.882-4.813-1.356-7.211q-1.35-6.858-2.706-13.719t-2.706-13.715c-.429-2.178-.921-4.33-1.389-6.487l-.573-2.648.006.021c1.713,6.169,3.445,12.309,5.134,18.495q3.947,14.421,7.885,28.828c1.785,6.521,3.523,13.037,5.284,19.562q5.54,20.554,10.988,41.167c1.518,5.724,3.1,11.427,4.654,17.118q1.431,5.25,2.862,10.491c.261.953.54,1.877.816,2.818q1.044,3.6,2.127,7.186c.654,2.157,1.35,4.292,2.064,6.406.825,2.441,1.806,4.745,2.757,7.088a1.889,1.889,0,0,0,2.346,1.348,2.043,2.043,0,0,0,.921-.754,3.523,3.523,0,0,0,.609-2.072c-.081-1-.174-1.983-.282-2.974-.069-.377-.138-.754-.21-1.131q-.239-1.131-.516-2.237c-.252-1.034-.507-2.063-.75-3.1-.585-2.483-1.17-4.974-1.755-7.457q-1.323-5.631-2.67-11.249-2.781-11.694-5.551-23.392-2.8-11.8-5.6-23.583c-1.641-6.894-3.355-13.741-5.047-20.6-1.575-6.377-3.133-12.762-4.759-19.109q-3.632-14.192-7.267-28.384c-1.827-7.122-3.7-14.19-5.551-21.287q-1.638-6.3-3.282-12.592c-.534-2.055-1.1-4.076-1.653-6.114q-1.3-4.767-2.589-9.537c.528,1.724,1.041,3.462,1.56,5.195q3.718,12.368,7.435,24.74,3.61,12.183,7.222,24.363,2.606,8.79,5.158,17.626,2.318,8.014,4.636,16.029c.7,2.415,1.413,4.83,2.1,7.258q3.727,13.22,7.453,26.435,2.156,7.652,4.315,15.308c1.716,6.08,3.454,12.139,5.137,18.24q3.083,11.148,6.16,22.3c.753,2.716,1.449,5.453,2.178,8.182,1.185,4.466,2.361,8.919,3.5,13.41a3.308,3.308,0,0,0,.993,1.826,1.646,1.646,0,0,0,1.668.309c1.14-.445,1.812-2.148,1.509-3.758-.819-4.36-1.821-8.648-2.772-12.952q-1.31-5.93-2.634-11.851-2.5-11.211-5.05-22.418c-1.716-7.61-3.484-15.2-5.224-22.8q-2.844-12.419-5.692-24.825-2.507-10.95-4.963-21.914-1.17-5.173-2.343-10.359c-.663-2.936-1.38-5.856-2.07-8.783q-1.94-8.249-3.889-16.5c-.57-2.415-1.116-4.856-1.716-7.258q-3.407-13.709-6.817-27.422-4.091-16.442-8.224-32.854c-.312-1.241-.6-2.474-.9-3.724q-.954-4.01-1.908-8.029,2.921,9.082,5.812,18.185,6.206,19.467,12.371,38.908,7.642,24.17,15.308,48.315,6.8,21.4,13.505,42.866c.687,2.186,1.347,4.381,2.022,6.576q2.061,6.718,4.126,13.427,2.3,7.5,4.624,14.978c1.959,6.3,3.892,12.609,5.875,18.884q3.938,12.47,7.864,24.956a2.676,2.676,0,0,0,.738,1.034,1.542,1.542,0,0,0,1.575.292,2.337,2.337,0,0,0,1.221-1.326,4.085,4.085,0,0,0,.207-2.229c-.036-.22-.069-.441-.1-.661-.2-.8-.408-1.585-.633-2.36-.228-.814-.462-1.614-.69-2.419-.237-.847-.477-1.695-.714-2.538-.5-1.779-1-3.567-1.509-5.339q-1.661-5.841-3.325-11.677c-1.155-4.055-2.289-8.114-3.433-12.164-.744-2.631-1.491-5.267-2.208-7.906q-2.1-7.671-4.186-15.334c-.657-2.4-1.317-4.784-1.95-7.19q-3.411-13.016-6.826-26.032-3.141-11.961-6.325-23.9c-1.683-6.364-3.412-12.707-5.137-19.05-1.839-6.762-3.646-13.554-5.539-20.287q-1.422-5.046-2.847-10.1,2.057,6.127,4.117,12.258c.555,1.644,1.092,3.3,1.623,4.962q2.3,7.156,4.606,14.317,2.259,7.029,4.516,14.046.77,2.4,1.512,4.822,4.33,14.173,8.665,28.346c1.932,6.33,3.814,12.66,5.716,19q2.3,7.671,4.606,15.334c.57,1.907,1.161,3.792,1.746,5.695q1.764,5.752,3.529,11.5c1.335,4.351,2.658,8.715,4.042,13.041q1.764,5.51,3.526,11.025.594,1.85,1.188,3.7c.681,2.131,1.476,4.182,2.232,6.262a1.81,1.81,0,0,0,2.256,1.3,2.277,2.277,0,0,0,1.2-1.3,4.068,4.068,0,0,0,.2-2.174c-.063-.436-.12-.873-.18-1.309a21.809,21.809,0,0,0-.456-2.474c-.255-1.178-.567-2.343-.855-3.5-.213-.843-.417-1.682-.627-2.525q-.95-3.794-1.905-7.584c-.975-3.906-1.989-7.8-2.988-11.7q-2.93-11.446-5.878-22.91-5.765-22.486-11.477-45.018-2.385-9.381-4.807-18.753-2.115-8.167-4.234-16.338-.783-3.025-1.569-6.055c-.21-.814-.411-1.64-.63-2.441q-3.574-12.889-7.147-25.782c-.678-2.453-1.332-4.911-2.037-7.351q-1.548-5.345-3.1-10.711-2.961-10.232-5.926-20.465c-.432-1.5-.849-3.013-1.272-4.517q2.8,8.644,5.575,17.291,2.439,7.607,4.882,15.207c.57,1.771,1.143,3.534,1.692,5.326q5.054,16.48,10.106,32.955c4.126,14.075,8.284,28.146,12.35,42.256,2.259,7.838,4.546,15.647,6.772,23.5q3.713,13.092,7.429,26.189c1.509,5.317,3.081,10.605,4.633,15.906q1.305,4.462,2.607,8.919c.294,1,.609,1.991.915,2.991.579,1.89,1.155,3.784,1.77,5.652a52.973,52.973,0,0,0,2.1,5.339,28.859,28.859,0,0,0,2.076,3.5,1.647,1.647,0,0,0,1.98.742,2,2,0,0,0,.9-.742,3.425,3.425,0,0,0,.6-2.029c-.069-1.051-.123-2.093-.228-3.135-.036-.394-.072-.788-.111-1.182-.126-.864-.276-1.72-.447-2.576-.267-1.453-.591-2.894-.894-4.334q-.8-3.82-1.6-7.644c-.768-3.665-1.6-7.313-2.4-10.97-1.779-8.067-3.6-16.118-5.413-24.172-1.671-7.419-3.382-14.821-5.074-22.232q4.654,16.569,9.337,33.117c.477,1.695.984,3.36,1.476,5.042q2.039,6.94,4.081,13.872,1.328,4.525,2.658,9.046c.936,3.186,1.905,6.343,2.868,9.508q.936,3.089,1.917,6.148c.732,2.288,1.539,4.525,2.292,6.8.321,1.093.621,2.195.933,3.3a30.681,30.681,0,0,0,1.464,4.195q.351.648.711,1.284a5.861,5.861,0,0,0,.846,1.046,2.573,2.573,0,0,0,.969.763c.171.038.345.072.519.106a1.944,1.944,0,0,0,1.152.038,2,2,0,0,0,1.518-.886,3.6,3.6,0,0,0,.627-2.144c-.1-1.263-.2-2.525-.3-3.779-.057-.7-.117-1.474-.21-2.161-.129-.919-.255-1.835-.384-2.754-.057-.415-.111-.83-.168-1.246.186.733.369,1.47.555,2.208.384,1.538.807,3.055,1.224,4.572l.222.75a2.94,2.94,0,0,0,.792,1.119,1.686,1.686,0,0,0,1.7.318,2.529,2.529,0,0,0,1.323-1.436,4.576,4.576,0,0,0,.222-2.411l-.051-.39q.954,3.025,1.968,6c.759,2.241,1.578,4.432,2.34,6.665.705,2.059,1.419,4.1,2.226,6.08.4.962.858,1.864,1.326,2.763.261.491.534.966.816,1.436a8.414,8.414,0,0,0,1.131,1.542,7.309,7.309,0,0,0,1.125,1.085c.5.369.978.758,1.458,1.165,1.164.966,2.847.106,3.165-1.818.135-.83.276-1.665.414-2.491.069-.7.135-1.394.2-2.093a25.6,25.6,0,0,0-.081-2.669c-.063-1.144-.213-2.313-.33-3.453-.384-4.034-.819-8.055-1.239-12.08-.045-.436-.117-.877-.177-1.313-.147-1.08-.291-2.165-.435-3.241q-.581-4.322-1.161-8.635c-.132-1.008-.252-2.03-.411-3.025q-.473-2.879-.936-5.758-1.211-7.436-2.418-14.859c-.441-2.72-.975-5.411-1.467-8.118q-1.472-8.046-2.94-16.092c-.864-4.737-1.8-9.444-2.751-14.147q3.114,11.758,6.226,23.507c1.1,4.169,2.121,8.385,3.18,12.575,1.017,4.051,2.052,8.093,3.027,12.164.327,1.415.651,2.83.981,4.25q1.742,7.538,3.484,15.063c1.233,5.326,2.391,10.69,3.688,15.978a3.293,3.293,0,0,0,1.011,1.86,1.656,1.656,0,0,0,1.689.309c1.143-.445,1.875-2.2,1.536-3.817-.912-4.364-1.866-8.686-2.856-13.016-.825-3.614-1.644-7.245-2.5-10.864q-1.589-6.692-3.177-13.385c-.234-.991-.492-1.953-.738-2.936-.669-2.661-1.335-5.309-2-7.961-.627-2.491-1.254-4.974-1.884-7.466-.285-1.14-.558-2.284-.858-3.415q-.5-1.881-1-3.762-.819-3.387-1.638-6.771-.558-2.313-1.143-4.614c1.134,4.021,2.265,8.05,3.361,12.088q3.637,13.366,7.273,26.731c2.079,7.639,4.177,15.228,6.271,22.859.846,3.1,1.812,6.131,2.73,9.186q1.022,3.394,2.04,6.792c.942,3.127,2.112,6.093,3.21,9.118a2.418,2.418,0,0,0,1.311,1.419,1.769,1.769,0,0,0,2.133-.8,9.234,9.234,0,0,0,.729-1.4,6.8,6.8,0,0,0,.318-2.538l-.081-.83a11.916,11.916,0,0,0-.387-2.025c-.171-.716-.366-1.381-.507-2.11q-.68-3.578-1.365-7.156c-.762-3.991-1.572-7.966-2.358-11.944-1.347-6.8-2.745-13.558-4.129-20.329q-5.158-25.231-10.286-50.442c-1.416-6.953-2.919-13.885-4.39-20.821-1.362-6.44-2.709-12.906-4.129-19.325q-5.531-25-11.117-50.014-5.338-23.808-10.664-47.637-2.606-11.643-5.242-23.274c-.54-2.39-1.1-4.792-1.608-7.194q.274.864.546,1.729,1.971,6.343,3.94,12.677c.864,2.771,1.749,5.517,2.583,8.3q1.215,4.061,2.433,8.131,3.25,10.874,6.505,21.761c-.072-.233-.141-.466-.21-.7q3.583,12.355,7.153,24.693,1.467,5.065,2.937,10.131c.66,2.284,1.257,4.6,1.887,6.894,2.553,9.343,5.113,18.719,7.663,28.045.516,1.9,1,3.813,1.494,5.724q2.043,7.881,4.093,15.783,5.81,22.391,11.5,44.87c.744,2.915,1.449,5.843,2.175,8.771q1.976,7.964,3.949,15.931c1.824,7.347,3.6,14.724,5.395,22.092q.963,3.953,1.938,7.894c.642,2.568,1.284,5.148,1.926,7.72.213.852.426,1.712.639,2.555.351,1.411.8,2.784,1.206,4.161a2.8,2.8,0,0,0,.777,1.1,1.635,1.635,0,0,0,1.671.309c1.122-.436,1.848-2.174,1.515-3.767-1.647-7.8-3.421-15.541-5.143-23.321-.792-3.551-1.557-7.122-2.373-10.665q-1.661-7.22-3.322-14.465c-1.779-7.741-3.664-15.431-5.518-23.138-.6-2.466-1.179-4.949-1.8-7.411q-1.719-6.858-3.441-13.711c-1.662-6.635-3.322-13.253-5.026-19.855q-3.3-12.794-6.616-25.6c-.792-3.059-1.623-6.1-2.439-9.152-1.437-5.4-2.883-10.826-4.324-16.228-.63-2.373-1.236-4.733-1.893-7.089-1.1-3.953-2.19-7.872-3.291-11.821-1.584-5.682-3.163-11.334-4.741-17-1.185-4.254-2.391-8.47-3.574-12.707q.414,1.15.828,2.309,1.287,3.578,2.571,7.144c.333.936.681,1.864,1.005,2.809,1.257,3.669,2.523,7.36,3.778,11.025,2.187,6.368,4.4,12.711,6.529,19.117q4.712,14.217,9.418,28.422c1.491,4.5,2.937,9.029,4.393,13.563q4.145,12.933,8.3,25.863c.414,1.292.807,2.585,1.206,3.89q1.886,6.19,3.772,12.385,3.232,10.626,6.463,21.24,3.569,12.12,7.132,24.223c.9,3.063,1.8,6.1,2.706,9.177.861,2.928,1.683,5.877,2.523,8.813,2.136,7.47,4.3,14.944,6.412,22.41q2.066,7.3,4.135,14.592c.825,2.915,1.635,5.817,2.49,8.7.546,1.852,1.1,3.712,1.65,5.567.387,1.313.747,2.661,1.17,3.953.438,1.33.879,2.669,1.317,4l.69,2.1c.5,1.521,1.1,2.978,1.65,4.461.669,1.784,2.631,2.169,3.6.653a5.033,5.033,0,0,0,.831-1.813c.024-.292.054-.585.081-.877a12.5,12.5,0,0,0-.105-1.78c-.144-.674-.312-1.352-.426-2.038-.087-.538-.18-1.08-.27-1.623-.348-2.089-.714-4.19-1.077-6.284-.705-4.038-1.437-8.055-2.16-12.084-.732-4.072-1.506-8.114-2.262-12.173-.537-2.9-1.1-5.813-1.65-8.7q-1.445-7.531-2.892-15.046c-.5-2.572-1.032-5.131-1.551-7.686q-1.656-8.148-3.3-16.283c-.42-2.064-.834-4.127-1.272-6.178q-3.088-14.433-6.175-28.879-.45-2.11-.912-4.212,3.052,10.677,6.1,21.363c.822,2.877,1.62,5.8,2.427,8.686q2.25,8.053,4.5,16.1,2.732,9.787,5.533,19.55c1.473,5.173,2.91,10.4,4.444,15.529q1.607,5.377,3.219,10.77c.879,2.936,1.74,5.881,2.64,8.8.549,1.847,1.092,3.695,1.689,5.521.351,1.072.768,2.085,1.2,3.093.1.186.2.373.306.555a17.085,17.085,0,0,0,1.014,1.733,1.6,1.6,0,0,0,1.92.716,2.825,2.825,0,0,0,1.446-2.686c-.018-1.013-.033-2.017-.141-3.021-.129-1.2-.294-2.4-.474-3.589-.153-1.008-.3-2.03-.444-3.038-.279-1.915-.543-3.839-.843-5.745q-.563-3.572-1.119-7.139c-.216-1.369-.42-2.737-.657-4.1q-1.269-7.347-2.535-14.685c-.5-2.885-1.035-5.737-1.56-8.6-1.365-7.444-2.724-14.88-4.141-22.312q-2.16-11.325-4.327-22.643c-1.827-9.512-3.679-19.117-5.509-28.634-1.278-6.656-2.646-13.292-3.985-19.935q1.409,5.237,2.8,10.474,6.607,24.787,13.163,49.594c1.3,4.9,2.541,9.809,3.8,14.728q1.728,6.756,3.457,13.516c.462,1.8.939,3.6,1.377,5.406q2.745,11.243,5.482,22.49c1.542,6.322,2.994,12.681,4.549,18.995a3.1,3.1,0,0,0,.939,1.724,1.542,1.542,0,0,0,1.575.292c1.071-.415,1.725-2.034,1.425-3.551q-2.313-11.682-4.528-23.452-2.331-12.33-4.711-24.672c-.678-3.513-1.329-7.055-2.037-10.559-.777-3.851-1.548-7.682-2.325-11.537-1.4-6.957-2.781-13.927-4.243-20.867q-3.051-14.516-6.106-29.049c-1.491-7.076-3.066-14.122-4.606-21.185-1.368-6.279-2.724-12.584-4.126-18.838q-3.281-14.618-6.553-29.21c-1.011-4.5-2.118-8.966-3.18-13.427l-.381-1.6q2.444,8.167,4.888,16.325c-.036-.127-.075-.254-.111-.381q3.727,12.5,7.447,24.994c2.082,7,4.1,14.033,6.139,21.054q.918,3.159,1.833,6.309c.216.746.444,1.487.645,2.237q1.562,5.847,3.124,11.694c1.851,6.923,3.733,13.825,5.5,20.791q5.1,20.077,10.268,40.12,2.21,8.586,4.465,17.156c.66,2.517,1.335,5.034,2.007,7.546.435,1.614.87,3.224,1.3,4.843.453,1.678.888,3.364,1.359,5.038.192.644.384,1.284.585,1.919.324,1.055.777,2.051,1.176,3.051a1.863,1.863,0,0,0,2.307,1.326,2.92,2.92,0,0,0,1.5-2.779c-.012-.449-.024-.894-.036-1.343q0-1.335-.138-2.665c-.087-1.169-.261-2.322-.417-3.474l-.033-.225c1.4,4.89,2.805,9.762,4.219,14.656q1.157,4,2.313,8.012c.606,2.1,1.185,4.237,1.776,6.343.4,1.415.837,2.805,1.3,4.173q.4,1.125.873,2.2c.129.237.258.479.387.72a13.381,13.381,0,0,0,.75,1.275,1.646,1.646,0,0,0,2.508.458,3.572,3.572,0,0,0,.951-3.3c-.267-1.517-.516-3.025-.837-4.521-.258-1.216-.516-2.428-.777-3.644l-.27-1.271.165.47q1.517,4.3,3.163,8.525c.624,1.6,1.293,3.165,1.968,4.724.5,1.148.939,2.343,1.389,3.529.453,1.2.936,2.373,1.467,3.512a16.4,16.4,0,0,0,1.611,2.695q.446.5.9.991a4.1,4.1,0,0,0,1.011.72,7.03,7.03,0,0,0,1.056.237l1.173-.165c.189-.038.372-.072.561-.11a2.091,2.091,0,0,0,.924-.758,3.509,3.509,0,0,0,.615-2.093c-.207-2.4-.39-4.784-.732-7.161-.327-2.284-.765-4.55-1.194-6.8-.414-2.207-.834-4.423-1.254-6.627q-.5-2.644-1-5.3c-.321-1.682-.693-3.36-1.035-5.025q-.486-2.351-.96-4.707a1.412,1.412,0,0,0,.486-.1,2.939,2.939,0,0,0,1.491-2.762c.015-.339.024-.678.039-1.017a16.783,16.783,0,0,0-.132-2.237c-.1-1.072-.252-2.118-.414-3.174-.381-2.462-1-4.856-1.542-7.254-.384-1.695-.735-3.411-1.1-5.118q-1.679-7.862-3.364-15.719c-.507-2.373-1-4.745-1.533-7.11q-1.544-6.883-3.084-13.779-1.589-7.074-3.174-14.16c-.408-1.826-.852-3.635-1.293-5.445q-3.506-14.433-7.009-28.875c-.405-1.661-.837-3.3-1.272-4.953q-1.935-7.372-3.877-14.741l-.141-.534q1.9,5.249,3.8,10.5c.66,1.813,1.329,3.631,1.968,5.453q2.093,6.025,4.192,12.05,3.691,10.6,7.375,21.194,7.5,21.64,14.993,43.311,3.524,10.182,7.033,20.346c1.56,4.508,3.166,8.961,4.762,13.457q.644,1.818,1.284,3.635,2.034,8.5,4.081,17,2.538,10.556,5.146,21.092,1.778,7.2,3.558,14.4c.807,3.271,1.647,6.5,2.5,9.745.717,2.737,1.5,5.444,2.328,8.122.9,2.9,2.043,5.618,3.123,8.393a1.467,1.467,0,0,0,2.676.487c.135-.182.27-.364.405-.551.2-.352.393-.716.573-1.089.06-.195.12-.4.177-.593l.159-1.665c-.024-.356-.045-.712-.066-1.068-.048-.6-.123-1.186-.222-1.771-.114-.792-.246-1.483-.339-2.279-.285-2.39-.573-4.8-.858-7.186-.468-3.97-1.05-7.915-1.587-11.864-.072-.513-.141-1.021-.216-1.534.267.174.534.339.8.5.744.4,1.494.771,2.229,1.191a1.559,1.559,0,0,0,1.644-.3,3.266,3.266,0,0,0,.975-1.8c.249-.987.51-1.957.741-2.949a18.161,18.161,0,0,0,.3-3.161c-.006-.453-.006-.907-.012-1.36q-.059-1.379-.162-2.75c-.027-.466-.057-1.085-.093-1.61q-.252-3.832-.5-7.665c-.081-1.22-.147-2.445-.258-3.652-.231-2.445-.459-4.881-.69-7.326s-.459-4.889-.693-7.343c-.1-1.034-.192-2.055-.315-3.089l-.141-1.208a1.364,1.364,0,0,0,.63-.089,1.9,1.9,0,0,0,.846-.7,3.084,3.084,0,0,0,.5-1.195c.3-1.186.642-2.356.978-3.529.1-.394.2-.784.306-1.178.027-.11.054-.216.078-.326.126.475.255.953.384,1.432.2.737.384,1.462.591,2.191,1.239,4.335,2.475,8.648,3.715,12.982.942,3.288,1.863,6.588,2.839,9.864.756,2.584,1.5,5.186,2.316,7.732.507,1.585,1.107,3.093,1.749,4.576a26.768,26.768,0,0,0,1.86,3.271,1.448,1.448,0,0,0,1.734.648,2.541,2.541,0,0,0,1.308-2.432c-.066-1.271-.135-2.538-.24-3.809-.093-1.165-.282-2.3-.456-3.453-.234-1.538-.51-3.068-.774-4.6-.441-2.559-.882-5.11-1.323-7.673-.621-3.6-1.293-7.178-1.947-10.758-1.518-8.292-3.093-16.567-4.66-24.85-1.476-7.792-3.045-15.588-4.573-23.376q-2.1-10.671-4.234-21.325-4.663-23.407-9.433-46.738c-.534-2.648-1.146-5.25-1.716-7.868q-1.823-8.338-3.64-16.66c-.744-3.4-1.485-6.783-2.226-10.186-.132-.6-.279-1.169-.417-1.763q-.72-3.051-1.443-6.1c-2.058-8.707-4.111-17.393-6.175-26.121-.681-2.868-1.4-5.69-2.091-8.542q-1.994-8.135-3.982-16.249c-.612-2.508-1.206-5.017-1.845-7.521q-1.481-5.815-2.961-11.622-1.886-7.4-3.772-14.8,1.962,5.783,3.913,11.571,3.178,9.412,6.325,18.821,2.583,7.728,5.176,15.469c.7,2.089,1.413,4.186,2.1,6.275q4.285,13.15,8.575,26.312c.93,2.852,1.86,5.711,2.787,8.555.807,2.466,1.563,4.974,2.343,7.453q4.339,13.785,8.674,27.562c2.109,6.716,4.162,13.469,6.241,20.2,2.043,6.618,4.093,13.194,6.088,19.846,2.664,8.876,5.323,17.719,7.984,26.6q2.169,7.525,4.321,15.046c1.236,4.3,2.5,8.584,3.7,12.91,1.647,5.945,3.313,11.936,4.963,17.893.4,1.428.783,2.851,1.167,4.288l.054.2.285,1.1q.945,3.648,1.9,7.292a2.807,2.807,0,0,0,.843,1.551,1.386,1.386,0,0,0,1.416.263,2.856,2.856,0,0,0,1.284-3.19c-.192-.8-.4-1.593-.618-2.385-1.833-7.042-3.679-14.075-5.47-21.117q-3.051-12.006-6.073-23.994c-3.532-14.071-7-28.193-10.6-42.256q-6.431-25.174-12.893-50.4-5.72-22.314-11.36-44.628c-.57-2.241-1.164-4.449-1.749-6.686q-2.111-8.046-4.219-16.092c-1.614-6.148-3.241-12.313-4.885-18.452q-2.169-8.078-4.33-16.143c-.615-2.292-1.251-4.589-1.836-6.894q-1.656-6.521-3.313-13.046.977,2.688,1.944,5.377c2.706,7.449,5.323,14.974,7.96,22.473.735,2.089,1.473,4.169,2.169,6.3q2.291,7,4.582,14,2.043,6.247,4.087,12.491c.645,1.97,1.239,3.97,1.851,5.949q4.384,14.192,8.767,28.388,1.017,3.406,2.031,6.817l.444,1.682c.618,2.335,1.206,4.686,1.8,7.029q2.061,8.059,4.123,16.113c.639,2.491,1.29,4.974,1.908,7.47q1.544,6.235,3.084,12.465,2.6,10.531,5.221,21.049c1.9,7.559,3.76,15.143,5.716,22.672q2.394,9.2,4.786,18.41c1.23,4.724,2.505,9.427,3.76,14.139q1.841,6.934,3.724,13.838.869,3.229,1.749,6.444c.372,1.369.732,2.7,1.005,4.118a9.674,9.674,0,0,0,.972,3,3.306,3.306,0,0,0,.765,1.072,2.107,2.107,0,0,0,1.329.373c1.152.072,1.992-1.644,1.7-3.152-.615-3.191-1.173-6.411-1.893-9.559l-1.566-6.83q-.9-3.934-1.8-7.872c-.294-1.28-.558-2.576-.882-3.843q-3.259-12.749-6.5-25.5c-.507-1.979-1.041-3.94-1.572-5.906q-2.115-7.843-4.24-15.694-1.494-5.536-2.991-11.071c-.648-2.4-1.35-4.784-2.025-7.173q-2.457-8.694-4.918-17.38-.995-3.515-1.992-7.033c-.231-.822-.459-1.652-.7-2.47l.042.14q-1.2-4.029-2.4-8.063-1.7-6.642-3.4-13.275c-1.7-6.656-3.469-13.287-5.221-19.918q-2.615-9.9-5.224-19.791-3.6-13.639-7.192-27.286-2.16-8.23-4.318-16.444.315.922.633,1.843c2.589,7.516,5.119,15.067,7.666,22.613,4.39,13.008,8.869,25.964,13.265,38.968q4.217,12.47,8.434,24.939c.915,2.716,1.785,5.432,2.676,8.152q2.606,7.919,5.212,15.855c.894,2.716,1.809,5.415,2.682,8.152,1.017,3.207,2.04,6.4,3.063,9.614q2.5,7.855,5.008,15.707c.669,2.093,1.347,4.169,1.992,6.279q4.357,14.2,8.7,28.413c-.054-.191-.111-.377-.168-.568q6.629,22.251,13.322,44.489c-.057-.191-.117-.385-.174-.58.894,3.042,1.734,6.118,2.715,9.1a3.1,3.1,0,0,0,.1.305l0,0h0a2.28,2.28,0,0,0,.642.949,1.3,1.3,0,0,0,1.338.246,1.988,1.988,0,0,0,1.038-1.127,3.236,3.236,0,0,0,.174-1.89Q527.4,386.214,521.5,363.43c-1.911-7.415-3.8-14.842-5.743-22.232q-3.452-13.124-6.91-26.231c-.672-2.555-1.413-5.093-2.118-7.622q-2.237-8.053-4.477-16.1c-.708-2.538-1.392-5.106-2.127-7.639-.891-3.059-1.785-6.139-2.679-9.211q2.223,5.548,4.444,11.1c.483,1.2.93,2.428,1.4,3.644q1.481,3.877,2.967,7.762c1.233,3.229,2.409,6.5,3.6,9.762q1.895,5.212,3.745,10.448,2.048,5.828,4.135,11.635c.606,1.7,1.23,3.394,1.848,5.084.342.936.681,1.86,1.005,2.809.1.326.21.648.315.975a7.7,7.7,0,0,0,.783,1.746,5.1,5.1,0,0,0,1.3,1.411.726.726,0,0,0,.963,0,1.488,1.488,0,0,0,.471-1.161c-.123-1.39-.234-2.784-.363-4.173-.1-1.03-.261-2.03-.432-3.042-.438-2.589-1.038-5.131-1.629-7.656-.558-2.373-1.134-4.728-1.746-7.08q-1.962-7.563-3.928-15.126c-.339-1.3-.681-2.614-1.02-3.919-.258-.992-.576-1.953-.864-2.932q-2.259-7.646-4.516-15.287c-.573-1.945-1.146-3.881-1.716-5.822-.207-.695-.4-1.4-.627-2.08q-1.994-6.108-3.988-12.2-2.142-6.559-4.285-13.118c-.777-2.385-1.638-4.712-2.463-7.063q-2.3-6.521-4.582-13.046c-.7-1.987-1.368-4-2.1-5.966q-3.92-10.487-7.831-20.969c-.759-2.03-1.578-4.025-2.373-6.029q-2.282-5.764-4.564-11.516c-.243-.61-.5-1.212-.75-1.813l-2.592-6.178q-.819-1.958-1.641-3.911c-.732-1.75-1.464-3.5-2.214-5.233-.9-2.08-1.917-4.029-2.931-6a2.185,2.185,0,0,0-.6-.847,1.313,1.313,0,0,0-.849-.322c-.63,0-1.1.47-1.449,1.169-.144.292-.288.58-.432.873-.168.479-.321.966-.465,1.466a13.166,13.166,0,0,0-.09,1.724c.024.58.069,1.161.129,1.741a21.052,21.052,0,0,0,.366,2.233c.174.767.366,1.525.582,2.263.345,1.263.744,2.5,1.125,3.737.3,1.055.588,2.114.864,3.182.444,1.729.93,3.436,1.416,5.144.786,2.758,1.62,5.483,2.46,8.211q1.562,5.11,3.129,10.207,2.547,8.281,5.089,16.558,2.4,7.817,4.777,15.656a.279.279,0,0,0-.294.055.7.7,0,0,0-.141.754c.78,1.589,1.473,3.267,2.178,4.928.3.987.6,1.979.9,2.966,1.908,6.419,3.838,12.834,5.71,19.278q3.592,12.336,7.183,24.681c.237.822.459,1.652.69,2.483.627,2.254,1.254,4.517,1.881,6.771q2.219,7.989,4.441,15.974c.6,2.157,1.215,4.3,1.785,6.466q.527,2,1.053,4.008l-2.085-6.529c-2.178-6.8-4.312-13.626-6.541-20.393Q493.49,280,488.914,266.114c-2.088-6.351-4.255-12.652-6.394-18.973q-3.227-9.527-6.457-19.05-3.924-11.516-7.852-23.032c-1.953-5.724-3.862-11.478-5.788-17.219q-3-8.955-6.043-17.88-1.265-3.724-2.556-7.44-.927-2.663-1.851-5.33c-.318-.915-.615-1.839-.912-2.763-.129-.386-.255-.771-.381-1.157a17.039,17.039,0,0,0-.894-2.169,11.872,11.872,0,0,0-1.335-2.093,1.453,1.453,0,0,0-2.2-.4,2.365,2.365,0,0,0-.651.919,3.69,3.69,0,0,0-.183,1.974c.162,1.174.315,2.347.471,3.517.162,1.216.39,2.394.633,3.58.513,2.534,1.152,5.017,1.791,7.487.732,2.847,1.485,5.686,2.229,8.525q1.872,7.137,3.745,14.27c.168.636.336,1.275.5,1.911l-.117-.36q-.99-3.038-1.971-6.072c-.417-1.284-.873-2.538-1.314-3.8q-3.173-9.158-6.346-18.321c-1.674-4.83-3.406-9.622-5.11-14.431q-1.017-2.86-2.025-5.72-.779-2.2-1.557-4.4c-.726-2.059-1.494-4.084-2.25-6.118a1.5,1.5,0,0,0-2.739-.5c-.1.14-.2.28-.3.419a9.163,9.163,0,0,0-.5.958c-.06.2-.117.4-.177.6-.06.547-.1,1.1-.138,1.648a15.5,15.5,0,0,0,.207,2.716,22.718,22.718,0,0,0,.711,3.195c.288,1.089.627,2.157.939,3.233.228.788.354,1.339.552,2.14.129.5.255,1,.381,1.508q1.9,7.525,3.8,15.046c.636,2.525,1.254,5.063,1.926,7.572q1.782,6.673,3.565,13.338c1.749,6.538,3.514,13.071,5.23,19.63q3.7,14.122,7.4,28.24c.48,1.835.942,3.673,1.41,5.512q1.989,7.83,3.976,15.643,2.372,9.311,4.744,18.617,5.482,21.374,10.952,42.747-1.656-5.345-3.316-10.681-2.651-8.548-5.32-17.084-4.528-14.363-9.058-28.718c-1.848-5.86-3.775-11.669-5.674-17.495q-2.471-7.582-4.945-15.169c-.633-1.941-1.257-3.885-1.9-5.817q-4.406-13.213-8.821-26.431-6.971-20.872-14-41.709-1.112-3.318-2.229-6.627-1.008-3.006-2.016-6.008c-.759-2.254-1.557-4.479-2.346-6.711a1.845,1.845,0,0,0-1.608-1.305c-.846,0-1.548.809-1.794,1.932-.048.225-.1.453-.147.678-.063.458-.117.924-.153,1.39.033.394.06.792.093,1.191.048.64.126,1.275.231,1.9a29.668,29.668,0,0,0,.81,3.534c.309,1.182.675,2.343,1.02,3.508.492,1.682.909,3.411,1.353,5.118q1.994,7.671,3.988,15.351c1.857,7.156,3.663,14.342,5.488,21.52q1.476,5.809,2.953,11.622c.633,2.5,1.227,5.017,1.842,7.525q1.985,8.129,3.973,16.249c.7,2.847,1.416,5.686,2.091,8.546q3.088,13.061,6.172,26.117.68,2.885,1.362,5.775c.168.695.345,1.39.5,2.1q1.112,5.091,2.229,10.181,1.818,8.326,3.643,16.66c.573,2.619,1.185,5.229,1.722,7.864q2.759,13.575,5.521,27.147,4.159,20.427,8.191,40.9c1.536,7.792,3.112,15.563,4.6,23.371,1.572,8.275,3.154,16.546,4.678,24.842.591,3.233,1.2,6.461,1.773,9.707q.311,1.76.621,3.53c-.117-.381-.237-.763-.357-1.14q-1.584-5.364-3.166-10.724-1.071-3.635-2.145-7.258c-.324-1.1-.669-2.191-.972-3.3q-1.778-6.47-3.561-12.944c-.165-2.008-.429-4-.693-5.983-.177-1.339-.369-2.669-.552-4-.249-1.8-.468-3.618-.705-5.428-.735-5.576-1.68-11.105-2.655-16.6-.489-2.754-1-5.5-1.506-8.249-.126-.678-.249-1.343-.384-2.013q-2.912-14.255-5.821-28.507c-.4-1.953-.771-3.924-1.215-5.86q-1.359-5.892-2.718-11.792-2.921-12.667-5.836-25.329c-.138-.589-.291-1.169-.435-1.754q-.7-2.815-1.4-5.635-2-8.065-4.009-16.139-1.692-6.832-3.388-13.66-.554-2.231-1.134-4.432-3.587-13.556-7.165-27.1c-1.065-4.343-2.13-8.694-3.2-13.025-.456-1.856-.912-3.72-1.368-5.58-.162-.665-.318-1.364-.5-2.021-2.406-8.771-4.8-17.5-7.2-26.257-.438-1.6-.864-3.229-1.323-4.826q-1.247-4.322-2.5-8.66-3.605-12.527-7.249-25.015c-.063-.212-.129-.424-.192-.636a2.414,2.414,0,0,0-.675-.953,1.423,1.423,0,0,0-1.452-.271,2.156,2.156,0,0,0-1.128,1.225,3.5,3.5,0,0,0-.258,1.343,3.853,3.853,0,0,0,.066.708h0l0,0a3.427,3.427,0,0,0,.156.555q4.366,15.33,8.743,30.655c2,7.016,3.88,14.109,5.8,21.172q1.643,6.031,3.282,12.054c.567,2.089,1.041,4.233,1.557,6.343q3.461,14.217,6.925,28.426c.441,1.826.822,3.682,1.224,5.525q1.706,7.836,3.415,15.669,1.566,7.175,3.13,14.351c.348,1.589.681,3.174,1,4.775Q439,281.073,441.99,296.12c.408,2.047.846,4.084,1.212,6.152q.891,4.97,1.776,9.953c-1.725-6.144-3.487-12.27-5.23-18.4q-2.142-7.538-4.288-15.071c-.5-1.763-1-3.534-1.512-5.288q-4.078-13.811-8.149-27.625c-.837-2.839-1.668-5.678-2.529-8.5q-2.962-9.686-5.929-19.376-4.055-13.264-8.08-26.549-1.746-5.853-3.481-11.7c-.4-1.343-.783-2.69-1.173-4.038-.762-2.635-1.53-5.258-2.349-7.86a2.253,2.253,0,0,0-.618-.873,1.307,1.307,0,0,0-1.323-.242,2.694,2.694,0,0,0-1.2,2.983c.288,1.551.531,3.131.879,4.661q.243,1.074.486,2.14.954,4.214,1.914,8.427t1.935,8.4q2.669,11.414,5.341,22.821c1.881,8,3.784,15.982,5.62,24q.9,3.921,1.8,7.847c.288,1.254.594,2.5.864,3.767q1.422,6.673,2.853,13.342c.588,2.775,1.206,5.533,1.761,8.321l2.79,14.02c1.248,6.283,2.5,12.558,3.724,18.846l-.153-.5q-2.462-8-4.924-15.995c-1.713-5.563-3.418-11.092-5.146-16.651q-4.42-14.179-8.827-28.341-3.033-9.743-6.115-19.427-1.953-6.19-3.907-12.393c-.471-1.5-.924-2.991-1.416-4.487q-3.583-10.912-7.162-21.8c-.933-2.839-1.86-5.665-2.8-8.508-.618-1.877-1.275-3.729-1.911-5.58-1.476-4.3-2.943-8.584-4.42-12.88-1-2.907-2.037-5.8-2.937-8.775-.549-1.873-1.1-3.741-1.728-5.559a26.081,26.081,0,0,0-1.242-2.885c-.255-.475-.519-.941-.786-1.4a5.787,5.787,0,0,0-1-.945,1.383,1.383,0,0,0-1.845,0,3.1,3.1,0,0,0-.837,2.911c2.205,8.766,4.519,17.478,6.835,26.176q2.939,11.052,5.941,22.071c1.782,6.55,3.568,13.08,5.329,19.639q3.952,14.745,7.906,29.477c1.512,5.64,2.958,11.309,4.423,16.965q3.421,13.245,6.841,26.477c.5,1.949.99,3.924,1.482,5.877q1.944,7.728,3.895,15.469,1.9,7.519,3.793,15.05c.438,1.741.885,3.47,1.311,5.233,3.129,12.855,6.289,25.7,9.379,38.578q-4.222-12.145-8.449-24.287-8.245-23.687-16.518-47.366c-.78-2.233-1.542-4.491-2.349-6.711q-1.895-5.205-3.787-10.427-2.732-7.512-5.464-15.029c-.7-1.924-1.389-3.847-2.1-5.762q-4.384-11.681-8.761-23.371-.756-2.758-1.515-5.521c-.654-2.385-1.281-4.788-1.962-7.156q-1.427-4.989-2.853-9.974-2.98-10.429-5.968-20.855-.648-2.275-1.326-4.538-1.4-5.129-2.805-10.254c-.525-1.919-1.077-3.822-1.635-5.712q-2.268-7.652-4.537-15.3c-.93-3.14-1.845-6.271-2.808-9.389q-1.292-4.207-2.589-8.41c-.354-1.148-.708-2.292-1.062-3.44-.306-1-.645-1.962-.99-2.94a1.766,1.766,0,0,0-2.205-1.263,2.226,2.226,0,0,0-1.167,1.263,3.57,3.57,0,0,0-.2,2.127c1.629,5.462,3.246,10.944,4.927,16.385q1.125,3.654,2.25,7.317l5.059,17.122c.582,1.966,1.11,3.957,1.653,5.945q1.944,7.131,3.892,14.262a1.451,1.451,0,0,0-1.32-.157,2.234,2.234,0,0,0-1.158,1.258,3.919,3.919,0,0,0-.195,2.11c.045.305.087.606.132.911a14.931,14.931,0,0,0,.456,2.1c.261,1.025.57,2.038.882,3.038.852,2.72,1.776,5.389,2.622,8.118q1.566,5.262,3.132,10.529,1.076,3.61,2.145,7.216c.324,1.093.663,2.178.972,3.275q3.56,12.622,7.126,25.24.81,2.879,1.581,5.775,2.07,7.7,4.144,15.423,1.377,5.129,2.751,10.249c.216.8.4,1.606.6,2.411q.9,3.578,1.782,7.152c1.7,6.8,3.427,13.588,5.059,20.422q1.157,5.383,2.316,10.779,5.14,23.916,10.238,47.857,1.139,5.351,2.289,10.69c.768,3.585,1.566,7.16,2.3,10.758q1.418,6.921,2.829,13.846c.735,3.585,1.386,7.2,2.061,10.813.633,3.373,1.308,6.741,1.812,10.156-.486-1.081-.927-2.2-1.368-3.33-.813-2.076-1.722-4.067-2.571-6.11-2.142-5.135-3.988-10.5-5.872-15.825-1.179-3.334-2.253-6.737-3.37-10.114-2.211-6.694-4.456-13.368-6.622-20.1q-1.319-5.745-2.637-11.508c-.78-3.4-1.611-6.8-2.418-10.207-1.656-6.987-3.286-13.957-4.978-20.927-2.319-9.563-4.63-19.083-6.952-28.655-1.7-7-3.465-13.961-5.2-20.943q-1.715-6.9-3.43-13.8c-.405-1.64-.846-3.275-1.29-4.9q-3.979-14.548-7.951-29.083c-.39-1.428-.774-2.868-1.2-4.267q-1.431-4.659-2.868-9.351c-2.244-7.317-4.495-14.668-6.742-21.99-.543-1.775-1.155-3.5-1.737-5.25q-2.165-6.508-4.324-13-1.467-4.417-2.931-8.817c-.3-.911-.627-1.792-.948-2.695q-1.328-3.762-2.7-7.5c-.768-2.08-1.569-4.114-2.391-6.144-.855-2.11-1.833-4.072-2.8-6.076a2.49,2.49,0,0,0-.69-.975,1.444,1.444,0,0,0-1.479-.275,2.184,2.184,0,0,0-1.152,1.25,3.569,3.569,0,0,0-.192,2.093c.426,1.572.843,3.152,1.314,4.7.357,1.174.717,2.339,1.074,3.508.489,1.593.972,3.165,1.458,4.767,1.227,4.084,2.46,8.186,3.691,12.275q1.62,5.625,3.231,11.258c.921,3.191,1.863,6.351,2.745,9.559q3.583,12.984,7.162,25.977.756,2.746,1.476,5.5l.318,1.2-2.457-8.377c-.723-2.457-1.494-4.89-2.244-7.33q-3.7-12.069-7.408-24.138c-.315-1.03-.678-2.034-1.014-3.051q-1.157-3.464-2.307-6.936-2.025-6.1-4.057-12.207c-.273-.826-.576-1.635-.864-2.453q-1.278-3.572-2.55-7.144-.855-2.39-1.707-4.784c-.72-2.021-1.4-4.068-2.142-6.072a32.7,32.7,0,0,0-1.4-3.2c-.537-1.076-1.173-2.072-1.758-3.093a1.989,1.989,0,0,0-.873-.72,1.414,1.414,0,0,0-1.053,0,2.842,2.842,0,0,0-1.452,2.695,62.086,62.086,0,0,0,.282,6.894c.342,2.585.8,5.106,1.335,7.622s1.167,5.021,1.776,7.516c.33,1.364.636,2.737.969,4.093q1.535,6.3,3.069,12.588c1.638,6.724,3.283,13.436,4.885,20.168q3.214,13.467,6.418,26.935c.576,2.428,1.1,4.885,1.644,7.326q1.85,8.243,3.7,16.486,2,8.9,3.952,17.829,3.033,13.938,6.067,27.884c.483,2.216.936,4.445,1.4,6.665q1.733,8.262,3.466,16.516,1.152,5.485,2.3,10.97c.591,2.813,1.137,5.644,1.7,8.47l.768,3.818c-.435-1.64-.879-3.275-1.314-4.915q-2.165-8.1-4.324-16.211Q355.085,303.3,349.3,281.8c-.777-2.89-1.593-5.75-2.388-8.622L342.438,257q-2.48-8.942-5-17.855-3.151-11.084-6.3-22.172c-.267-.945-.528-1.886-.789-2.835q-.729-3.032-1.464-6.08c-.48-1.987-1-3.974-1.506-5.957q-1.728-6.838-3.463-13.669c-.624-2.462-1.227-4.936-1.869-7.377q-1.508-5.688-3.006-11.368c-.483-1.83-.966-3.648-1.449-5.478-.669-2.538-1.431-5.038-2.16-7.546-.066-.22-.132-.441-.2-.665a2.552,2.552,0,0,0-.7-.987,1.473,1.473,0,0,0-1.506-.275c-1.041.4-1.629,1.932-1.365,3.394.561,3.093,1.416,6.063,2.175,9.067.66,2.606,1.314,5.19,1.977,7.8.882,3.483,1.806,6.94,2.715,10.4.8,3.055,1.578,6.114,2.421,9.156q1.976,7.137,3.949,14.287l.252.919c.531,2.14,1.029,4.3,1.548,6.44q1.967,8.186,3.943,16.372.675,2.822,1.356,5.639c.144.6.294,1.2.429,1.813q1.283,5.809,2.562,11.618,1.773,8.046,3.547,16.084c.429,1.958.876,3.907,1.272,5.881q2.9,14.516,5.809,29.028c1.365,6.83,2.652,13.69,3.964,20.541q1.962,10.213,3.913,20.427,2.066,10.862,4.132,21.719c.567,2.966,1.089,5.953,1.632,8.923q1.17,6.413,2.34,12.817c.444,2.428.846,4.873,1.266,7.309q.9,5.288,1.812,10.571c.24,1.39.438,2.8.657,4.19l.042.28q-1.755-5.834-3.51-11.665-3.529-12.311-7.042-24.621c-1.992-6.953-3.919-13.923-5.872-20.893q-2.579-9.19-5.188-18.38-3.889-13.575-7.771-27.151c-3.775-13.19-7.621-26.354-11.414-39.531q-1.517-5.256-3.027-10.516c-.144-.64-.291-1.28-.435-1.919-.405-1.775-.8-3.568-1.23-5.339q-1.548-6.356-3.1-12.711c-1.311-5.373-2.616-10.728-3.922-16.1-.513-2.093-.987-4.19-1.539-6.271q-3.655-13.722-7.306-27.447c-.549-2.068-1.083-4.127-1.659-6.194q-1.836-6.591-3.67-13.173t-3.676-13.177c-.777-2.788-1.563-5.559-2.349-8.338-.669-2.373-1.362-4.724-2.076-7.076-.381-1.25-.789-2.483-1.194-3.72-.489-1.479-1.137-2.877-1.713-4.288a1.978,1.978,0,0,0-2.451-1.411c-1.122.432-1.854,2.169-1.518,3.771.825,3.911,1.7,7.8,2.6,11.669-.09-.025-.18-.042-.27-.059a1.57,1.57,0,0,0-1.128,0,2.162,2.162,0,0,0-.936.771,3.464,3.464,0,0,0-.546,1.326,4.182,4.182,0,0,0,0,1.593c.042.394.081.792.123,1.191.222,2.394.438,4.784.738,7.165.168,1.36.429,2.695.672,4.029s.519,2.64.8,3.949c.552,2.635,1.179,5.237,1.806,7.834.315,1.3.636,2.6.954,3.9.216.886.426,1.8.654,2.678q1.476,5.65,2.955,11.309c1.794,6.86,3.559,13.724,5.41,20.545q3.713,13.677,7.426,27.346c.585,2.161,1.137,4.347,1.7,6.521q2.088,8.027,4.183,16.054,1.386,5.326,2.775,10.652c.639,2.453,1.236,4.919,1.857,7.381q3.249,12.953,6.508,25.914,5.626,22.416,11.228,44.84c1.2,4.839,2.436,9.66,3.6,14.516q1.647,6.908,3.3,13.808l-1.386-4.818c-1.776-6.173-3.6-12.3-5.413-18.448q-2.291-7.754-4.579-15.491c-.6-2.025-1.191-4.059-1.806-6.08q-4.127-13.531-8.263-27.066-1.31-4.3-2.625-8.605c-.75-2.457-1.569-4.881-2.352-7.322q-4.519-14.052-9.034-28.1c-2.016-6.271-4.132-12.486-6.2-18.719q-2.16-6.514-4.324-13.025c-.561-1.691-1.11-3.394-1.686-5.072q-3.875-11.281-7.744-22.554c-.63-1.839-1.251-3.69-1.905-5.517q-2.174-6.076-4.357-12.148c-.87-2.424-1.743-4.851-2.634-7.258q-1.22-3.292-2.439-6.589c-.237-.64-.477-1.284-.714-1.924-.729-1.97-1.587-3.86-2.388-5.779a2.409,2.409,0,0,0-1.26-1.369,1.707,1.707,0,0,0-2.055.767c-.138.225-.276.449-.408.674a5.955,5.955,0,0,0-.615,1.309,4.609,4.609,0,0,0-.276,1.241c-1.824-6.038-3.7-12.042-5.557-18.058q-3.011-9.743-6.163-19.41-.959-2.949-1.92-5.9-1.314-4.036-2.7-8.012a2.915,2.915,0,0,0-.8-1.119,1.706,1.706,0,0,0-1.11-.424c-.306.038-.609.093-.909.157Zm170.066,19.855,0,.017h0l0-.017Zm18.255,6.466.1.347-.087-.292-.015-.055ZM333.35,178.683q-1.179-4.837-2.364-9.694c-.552-2.254-1.08-4.517-1.629-6.779-.321-1.313-.63-2.627-.93-3.949q.585,1.608,1.167,3.216,1.769,4.868,3.535,9.745c.219.606.411,1.22.612,1.826q.846,2.517,1.689,5.038,1.931,5.752,3.862,11.508c-.363-.843-.753-1.665-1.14-2.487-.474-1.008-1.284-1.559-2.136-1.229a1.784,1.784,0,0,0-.75.589q-.959-3.89-1.914-7.783Zm-24.436,57.526q-2.79-10.283-5.587-20.571c-1.062-3.928-2.145-7.838-3.178-11.783-1.878-7.182-3.766-14.4-5.644-21.583-.63-2.411-1.26-4.83-1.854-7.262-.774-3.161-1.548-6.326-2.271-9.512.066.208.135.419.2.627q2.03,6.483,4.048,12.995.518,2.078,1.038,4.152c3.679,14.77,7.441,29.5,11.18,44.243.639,2.517,1.224,5.059,1.842,7.6.2.83.4,1.657.6,2.487-.123-.466-.246-.928-.372-1.39Zm156.852-67.724c.723,1.568,1.419,3.165,2.115,4.762q1.422,3.248,2.838,6.5c.651,1.487,1.3,2.97,1.947,4.457.582,1.339,1.1,2.707,1.656,4.059q2.6,6.381,5.2,12.758c.273.661.519,1.33.774,2q1.278,3.343,2.559,6.69l4.924,12.864c.936,2.445,1.785,4.953,2.679,7.44q2.673,7.461,5.353,14.931c.378,1.059.762,2.127,1.14,3.186.324.9.615,1.843.918,2.758q2.579,7.773,5.164,15.55,1.067,3.216,2.133,6.415c.216.648.441,1.3.636,1.957,2.49,8.3,5,16.66,7.486,24.956l-.111-.369q2.039,7.7,4.075,15.406c.5,1.868.993,3.758,1.491,5.631.333,1.263.627,2.538.942,3.809.42,1.682.816,3.364,1.2,5.063s.711,3.4,1.011,5.127c.069.4.129.8.183,1.2-.237-.623-.471-1.25-.714-1.873q-.684-1.76-1.368-3.525c-.621-1.593-1.215-3.195-1.818-4.8-1.386-3.716-2.751-7.427-4.12-11.165q-3.655-9.972-7.489-19.8c-1.338-3.407-2.643-6.839-4.024-10.216q-2.556-6.254-5.107-12.491-1.319-3.216-2.631-6.428-2.3-7.906-4.636-15.787c-1.083-3.652-2.151-7.338-3.256-10.974q-2.016-6.642-4.039-13.3c-1.629-5.364-3.274-10.7-4.924-16.058q-1.715-5.58-3.427-11.135c-1.542-5.012-3.1-10.033-4.615-15.071q-1.121-3.807-2.154-7.652c-.315-1.182-.624-2.356-.966-3.517-.282-.949-.582-1.894-.873-2.843l.174.58c-.114-.364-.225-.733-.33-1.106ZM432.89,366.273c-3.394-14.185-6.9-28.32-10.346-42.472-.585-2.4-1.206-4.792-1.809-7.186q-2.016-7.976-4.027-15.969c-1.584-6.292-3.144-12.6-4.765-18.876q-3.7-14.344-7.4-28.685-2.088-8.1-4.228-16.185-6.679-25.041-13.391-50.069-.8-2.981-1.6-5.957c1.875,5.58,3.685,11.2,5.524,16.808,1.968,6,3.955,11.982,5.857,18.02q4.478,14.23,8.959,28.452c1.968,6.254,3.9,12.52,5.851,18.787,2.067,6.635,4.147,13.262,6.193,19.91q4.285,13.925,8.572,27.863c.657,2.127,1.3,4.271,1.968,6.389q1.773,5.567,3.55,11.139l3.961,12.444q1.787,9.2,3.577,18.389c1.536,7.889,3.027,15.8,4.543,23.689,1.443,7.55,2.832,15.122,4.237,22.681.5,2.64,1,5.267,1.461,7.915l2.592,14.948.018.106c-1.446-3.61-2.805-7.3-4.168-10.97-.735-1.979-1.485-3.957-2.2-5.953q-1.013-2.847-2.037-5.7-2.192-6.139-4.387-12.283-3.254-13.62-6.511-27.236Zm-58.1-74.881c-.159-.695-.336-1.381-.507-2.072q-.783-3.209-1.572-6.423-2.021-8.262-4.039-16.524-.743-3.025-1.485-6.059c-.2-.809-.381-1.627-.594-2.432q-1.26-4.773-2.517-9.542-2.138-8.1-4.276-16.211c-.648-2.449-1.278-4.911-1.944-7.355q-1.863-6.839-3.721-13.686.851,2.777,1.7,5.55,2.637,8.624,5.272,17.249,3.349,12.311,6.706,24.613l2.769,10.156c.132.487.243.979.366,1.466q.689,2.79,1.38,5.576,3.47,14.027,6.946,28.057c.516,2.093,1.014,4.195,1.521,6.292q1.674,6.934,3.348,13.863l-6.922-21.749q-1.215-5.383-2.43-10.771Zm64.021,45.476c-2.667-13.719-5.269-27.494-8-41.2q-1.634-8.192-3.264-16.4c-.564-2.83-1.1-5.69-1.7-8.5q-1.485-6.934-2.97-13.855c-.621-2.907-1.236-5.834-1.9-8.72q-2.727-11.834-5.5-23.613-1.539-6.521-3.076-13.029,4.577,14.681,9.124,29.4,3.573,12.069,7.15,24.109,1.485,5,2.97,10.016c.648,2.182,1.257,4.419,1.881,6.618q4.051,14.262,8.1,28.515c1.836,6.47,3.613,12.969,5.419,19.465q1.287,4.646,2.586,9.279,1.967,12.59,3.931,25.18c.09.589.168,1.178.246,1.767q.464,3.4.924,6.8,1.1,8.148,2.205,16.3c.063.458.126.915.186,1.369l-.633-1.661c-1.113-2.923-2.148-5.894-3.2-8.868q-1.3-3.655-2.589-7.313c-.429-1.2-.876-2.407-1.284-3.618-1.218-3.6-2.427-7.186-3.639-10.783q-2.169-6.425-4.336-12.847c-.741-2.191-1.419-4.415-2.121-6.622-.147-.458-.291-.911-.435-1.364l-.081-.424ZM18.685,227.282l.069.233-.069-.233ZM156.436,231.6l.06.208-.06-.208ZM27.861,260.034l.078.267-.078-.267Zm353.985,81.444c-2-7.677-3.943-15.363-5.914-23.054-.576-2.258-1.14-4.521-1.743-6.758q-1.827-6.8-3.655-13.605-1.773-6.578-3.54-13.169c-.654-2.432-1.4-4.83-2.1-7.245-1.458-4.991-2.9-10-4.366-14.982q2.435,7.372,4.87,14.732,2.241,8.078,4.489,16.168.689,2.5,1.35,5.008c1.329,4.987,2.661,9.991,3.994,14.978,1.689,6.339,3.358,12.681,5.086,18.99.183.665.366,1.335.549,2l3.378,15.673c.21.966.417,1.936.624,2.9q-1.512-5.822-3.021-11.643Zm-345.2-57.25h0l.024.047-.024-.047Zm211.328,3.262,3.718,14.376q1.364,5.281,2.673,10.593-.81-2.841-1.617-5.682-2.106-8.377-4.213-16.757c-.186-.843-.375-1.686-.561-2.53Zm205.457,48.569c-.3-1.936-.618-3.847-.96-5.762q-2.417-13.486-4.834-26.964.887,3.889,1.776,7.779c.624,2.741,1.293,5.462,1.845,8.241,1.2,6.021,2.409,12.084,3.61,18.113q1.49,7.468,2.97,14.906c.1.513.2,1.106.276,1.542q.49,2.758.972,5.512.761,4.366,1.467,8.749-2.417-8.841-4.852-17.677-1.139-7.214-2.271-14.44ZM457.4,436.9c-.171-1.08-.327-2.169-.516-3.233-.792-4.55-1.581-9.08-2.373-13.626-.543-3.127-1.056-6.262-1.638-9.385q-2.385-12.787-4.774-25.587c-.6-3.241-1.242-6.487-1.86-9.724q-.707-3.7-1.419-7.4l.81,2.4c.684,2.025,1.4,4.034,2.112,6.046q2.124,6,4.243,12c.252.72.519,1.424.786,2.131q1.2,3.165,2.4,6.33c.561,1.491,1.122,2.983,1.7,4.457.387.987.747,2,1.14,2.983.141.314.276.627.417.941.189.377.384.746.582,1.11q.342,2.993.69,5.983c.081.678.156,1.347.237,2.025l1.4,15.291c.2,2.135.288,4.288.423,6.432.1,1.538.2,3.076.288,4.61.042.627.078,1.254.114,1.885.066.911.123,1.83.162,2.75a21.206,21.206,0,0,1-.024,2.271c-.024.182-.051.36-.081.538l-.312-.157a5.226,5.226,0,0,1-.666-.546c-.333-.4-.651-.818-.954-1.263q-.5-.737-.963-1.538-.535-1.017-1.035-2.068L457.4,436.9Zm-62.491-66.487.447,1.4c.111.356.225.712.339,1.068l.318,1.386q-.554-1.926-1.1-3.852ZM462.12,396.5c-.3-2.6-.594-5.224-.948-7.809q-.995-7.283-1.992-14.571.423,1.564.843,3.127,1.737,6.438,3.456,12.855c.069.619.138,1.233.2,1.852.1,1.233.189,2.462.249,3.7a43.708,43.708,0,0,1-.075,4.817l-.135.941a21.311,21.311,0,0,1-.6,2.347c.063-.212.129-.424.192-.631-.1.318-.2.636-.3.949q-.441-3.788-.888-7.58Zm-338.4-9.745.009.131-.015-.131ZM288.7,405.609c.024.237.048.475.069.716l-.069-.716Zm171.173,8.076.024.258-.024-.258Zm-6.214,38.082q-1.967-7.913-3.943-15.821-.648-2.6-1.29-5.2c.663,1.686,1.35,3.36,2.049,5.017.75,1.78,1.542,3.534,2.289,5.322.57,1.364,1.146,2.729,1.746,4.068q.3.667.618,1.309l.873,5.555c.648,4.131,1.17,8.3,1.74,12.453.213,1.568.414,3.135.612,4.707l.075.585-.117-.385c-1.689-5.788-3.181-11.7-4.654-17.6ZM461.946,448l.273.161v.008c-.093-.055-.183-.11-.273-.169ZM347.158,231.9l-.084-.275.084.275Z" transform="translate(0 0)" fill="#d1d1d1"/>
    </g>
    <g id="Group_2426" data-name="Group 2426" transform="translate(347.422 70.5) rotate(25)">
      <g id="Group_2402" data-name="Group 2402" transform="translate(345.447 127.65) rotate(-8)">
        <path id="Path_206" data-name="Path 206" d="M.345,2.035c-.11-.344-.22-.686-.331-1.029C-.07.74.236.615.426.562c11.08-3.039,23.69,6.705,23.992,18.046.171,6.407-4.513,14.115-10.691,16.433-2.808,1.052-5.74.255-6.576-2.825-1-3.67,1.42-6.3,4.919-5.312,4.559,1.283,7.1,6.371,8.276,10.531a47.971,47.971,0,0,1,.626,22.508,73.374,73.374,0,0,1-3.529,11.7c-1.2,3.08-3.515,6.267-4.228,9.457-.163.731-2.294.193-2.123-.568.674-3.016,2.761-5.815,3.918-8.687a73.159,73.159,0,0,0,3.84-12.468c1.565-7.57,1.524-16.14-1.033-23.541-.677-1.961-1.569-4.285-3.211-5.673C8.8,25.245,6.191,35.9,14.163,32.706c3.324-1.334,6.669-6.825,7.568-9.993a16.354,16.354,0,0,0-2.275-13.24A16.828,16.828,0,0,0,13.865,3.9c-1.12-.658-12.227-4.188-11.4-1.6C2.7,3.03.577,2.752.345,2.035Z" transform="translate(0 0)" fill="#474546"/>
      </g>
      <g id="Group_2415" data-name="Group 2415" transform="translate(434.226 456.406) rotate(90)">
        <path id="Path_206-2" data-name="Path 206" d="M.177,1.045C.121.869.065.693.007.516-.036.38.121.316.219.289,5.91-1.272,12.387,3.733,12.542,9.558c.088,3.291-2.318,7.25-5.491,8.441-1.442.54-2.948.131-3.378-1.451-.512-1.885.729-3.234,2.527-2.729,2.342.659,3.648,3.272,4.251,5.409a24.64,24.64,0,0,1,.322,11.561A37.687,37.687,0,0,1,8.96,36.8c-.618,1.582-1.805,3.219-2.172,4.858-.084.376-1.178.1-1.09-.292.346-1.549,1.418-2.987,2.012-4.462a37.577,37.577,0,0,0,1.972-6.4A23.438,23.438,0,0,0,9.151,18.4,6.591,6.591,0,0,0,7.5,15.49C4.52,12.967,3.18,18.44,7.274,16.8c1.707-.685,3.425-3.506,3.887-5.133a8.4,8.4,0,0,0-1.168-6.8A8.643,8.643,0,0,0,7.121,2C6.546,1.667.841-.147,1.268,1.182c.121.374-.972.232-1.091-.137Z" transform="translate(0 0)" fill="#474546"/>
      </g>
      <g id="Group_2403" data-name="Group 2403" transform="translate(42.441 64.138) rotate(109)">
        <path id="Path_207" data-name="Path 207" d="M0,19.12c.915-3.592,3-7.438,4.651-10.774C6.04,5.537,7.614,2.038,10.07,0" transform="translate(13.014 12.602)" fill="none" stroke="#474546" stroke-width="1"/>
        <path id="Path_208" data-name="Path 208" d="M3.729,18.389C4.257,11.977,1.227,6.159,0,0" transform="translate(34.442 5.222)" fill="none" stroke="#474546" stroke-width="1"/>
        <path id="Path_209" data-name="Path 209" d="M.3,9.571C-2.292,6.234,12.6,3.205,18.622,0" transform="matrix(-0.995, -0.105, 0.105, -0.995, 18.52, 11.465)" fill="none" stroke="#474546" stroke-width="1"/>
      </g>
      <g id="Group_2404" data-name="Group 2404" transform="matrix(0.208, -0.978, 0.978, 0.208, 419.501, 412.459)">
        <path id="Path_207-2" data-name="Path 207" d="M0,8.651A26.9,26.9,0,0,1,2.1,3.777,11.469,11.469,0,0,1,4.556,0" transform="translate(0 3.339)" fill="none" stroke="#f5f6fa" stroke-width="1.5"/>
        <path id="Path_208-2" data-name="Path 208" d="M1.687,8.32C1.926,5.419.555,2.787,0,0" transform="translate(9.695 0)" fill="none" stroke="#f5f6fa" stroke-width="1.5"/>
      </g>
      <path id="Path_210" data-name="Path 210" d="M19.494,35.955a93.676,93.676,0,0,0-7.53-19.047C8.658,10.636,4.184,5.642,0,0" transform="translate(205.029 525.792) rotate(172)" fill="none" stroke="#474546" stroke-width="1.5"/>
      <path id="Path_211" data-name="Path 211" d="M8.134,15A39.086,39.086,0,0,0,4.992,7.054,55.282,55.282,0,0,0,0,0" transform="translate(220.163 521.782) rotate(146)" fill="none" stroke="#474546" stroke-width="1.5"/>
      <g id="Group_2427" data-name="Group 2427" transform="matrix(-0.914, 0.407, -0.407, -0.914, 29.248, 230.2)">
        <path id="Path_206-3" data-name="Path 206" d="M.177,1.045C.121.869.065.693.007.516-.036.38.121.316.219.289,5.91-1.272,12.387,3.733,12.542,9.558c.088,3.291-2.318,7.25-5.491,8.441-1.442.54-2.948.131-3.378-1.451-.512-1.885.729-3.234,2.527-2.729,2.342.659,3.648,3.272,4.251,5.409a24.64,24.64,0,0,1,.322,11.561A37.687,37.687,0,0,1,8.96,36.8c-.618,1.582-1.805,3.219-2.172,4.858-.084.376-1.178.1-1.09-.292.346-1.549,1.418-2.987,2.012-4.462a37.577,37.577,0,0,0,1.972-6.4A23.438,23.438,0,0,0,9.151,18.4,6.591,6.591,0,0,0,7.5,15.49C4.52,12.967,3.18,18.44,7.274,16.8c1.707-.685,3.425-3.506,3.887-5.133a8.4,8.4,0,0,0-1.168-6.8A8.643,8.643,0,0,0,7.121,2C6.546,1.667.841-.147,1.268,1.182c.121.374-.972.232-1.091-.137Z" transform="translate(0 0)" fill="#474546"/>
      </g>
    </g>
  </g>
</svg>
