<svg xmlns="http://www.w3.org/2000/svg" width="27.5" height="27.5" viewBox="0 0 27.5 27.5">
  <g id="Group_4365" data-name="Group 4365" transform="translate(20680.75 1691.75)">
    <g id="Group_4362" data-name="Group 4362">
      <g id="Group_3741" data-name="Group 3741" transform="translate(-21917 -1998.274)">
        <g id="Group_3740" data-name="Group 3740">
          <path id="Stroke_4" data-name="Stroke 4" d="M.5,13.5C.5,3.376,3.376.5,13.5.5s13,2.876,13,13-2.876,13-13,13S.5,23.624.5,13.5Z" transform="translate(1236.5 306.774)" fill="#fcc155" stroke="#fcc155" stroke-linecap="round" stroke-linejoin="round" stroke-miterlimit="10" stroke-width="1.5"/>
        </g>
        <path id="Fill_1" data-name="Fill 1" d="M3.1,5.9a.5.5,0,0,1-.255-.07L.242,4.274A.5.5,0,0,1,0,3.846V.5a.5.5,0,0,1,1,0V3.563L3.357,4.971A.5.5,0,0,1,3.1,5.9" transform="translate(1249.039 316.831)" fill="#fcc155"/>
      </g>
    </g>
    <path id="Icon_awesome-clipboard-list" data-name="Icon awesome-clipboard-list" d="M11.45,2.181H8.724a2.181,2.181,0,0,0-4.362,0H1.636A1.636,1.636,0,0,0,0,3.817v12a1.636,1.636,0,0,0,1.636,1.636H11.45a1.636,1.636,0,0,0,1.636-1.636v-12A1.636,1.636,0,0,0,11.45,2.181ZM3.271,14.449a.818.818,0,1,1,.818-.818A.816.816,0,0,1,3.271,14.449Zm0-3.271a.818.818,0,1,1,.818-.818A.816.816,0,0,1,3.271,11.177Zm0-3.271a.818.818,0,1,1,.818-.818A.816.816,0,0,1,3.271,7.906ZM6.543,1.363a.818.818,0,1,1-.818.818A.816.816,0,0,1,6.543,1.363ZM10.9,13.9a.273.273,0,0,1-.273.273H5.725a.273.273,0,0,1-.273-.273v-.545a.273.273,0,0,1,.273-.273h4.907a.273.273,0,0,1,.273.273Zm0-3.271a.273.273,0,0,1-.273.273H5.725a.273.273,0,0,1-.273-.273v-.545a.273.273,0,0,1,.273-.273h4.907a.273.273,0,0,1,.273.273Zm0-3.271a.273.273,0,0,1-.273.273H5.725a.273.273,0,0,1-.273-.273V6.816a.273.273,0,0,1,.273-.273h4.907a.273.273,0,0,1,.273.273Z" transform="translate(-20673.543 -1686.724)" fill="#fff"/>
  </g>
</svg>
