<?xml version="1.0" encoding="UTF-8"?>
<svg id="Layer_1" data-name="Layer 1" xmlns="http://www.w3.org/2000/svg" xmlns:xlink="http://www.w3.org/1999/xlink" viewBox="0 0 112 112">
  <defs>
    <style>
      .cls-1 {
        fill: #f4e0a7;
      }

      .cls-1, .cls-2, .cls-3 {
        fill-rule: evenodd;
      }

      .cls-4 {
        fill: url(#linear-gradient-2);
      }

      .cls-5 {
        fill: #fff;
      }

      .cls-6 {
        fill: #c2c1c2;
      }

      .cls-7 {
        fill: #dbdbdb;
      }

      .cls-8, .cls-9 {
        fill: #bfbfbf;
      }

      .cls-10 {
        fill: #eec56d;
      }

      .cls-11 {
        fill: #646463;
      }

      .cls-12, .cls-13, .cls-9 {
        isolation: isolate;
      }

      .cls-12, .cls-13, .cls-14 {
        fill: #a5a5a6;
      }

      .cls-12, .cls-9 {
        opacity: .54;
      }

      .cls-15 {
        fill: #e2e2e2;
      }

      .cls-16 {
        opacity: .24;
      }

      .cls-17 {
        fill: #4b4b4b;
      }

      .cls-18 {
        fill: #cccbcb;
      }

      .cls-19 {
        fill: #e1ecda;
      }

      .cls-20 {
        mask: url(#mask-2);
      }

      .cls-21 {
        fill: #d06532;
      }

      .cls-22 {
        fill: url(#linear-gradient-6);
      }

      .cls-23 {
        fill: #b2b2b2;
      }

      .cls-24 {
        fill: #d7d7d8;
      }

      .cls-25 {
        mask: url(#mask-3);
      }

      .cls-13 {
        opacity: .33;
      }

      .cls-26 {
        fill: #cac9ca;
      }

      .cls-27 {
        mask: url(#mask-5);
      }

      .cls-28 {
        opacity: .15;
      }

      .cls-29 {
        fill: #e3ab89;
      }

      .cls-30 {
        fill: #e5e5e5;
      }

      .cls-31 {
        fill: #b7d2a3;
      }

      .cls-32 {
        mask: url(#mask-4);
      }

      .cls-33 {
        fill: url(#linear-gradient-5);
      }

      .cls-34 {
        fill: #bf7f24;
      }

      .cls-35 {
        fill: none;
      }

      .cls-2 {
        fill: #457a70;
      }

      .cls-36 {
        fill: #e1a02f;
      }

      .cls-37 {
        mask: url(#mask-6);
      }

      .cls-38 {
        fill: url(#linear-gradient-7);
      }

      .cls-39 {
        fill: #9b9b9b;
      }

      .cls-40 {
        fill: #f5f4f5;
      }

      .cls-41 {
        fill: #d4d4d5;
      }

      .cls-42 {
        fill: #d67c44;
      }

      .cls-43 {
        mask: url(#mask-1);
      }

      .cls-44 {
        mask: url(#mask);
      }

      .cls-45 {
        fill: #f1f1f1;
      }

      .cls-46 {
        fill: #adacac;
      }

      .cls-47 {
        fill: url(#linear-gradient-3);
      }

      .cls-48 {
        fill: #a8a8a8;
      }

      .cls-49 {
        fill: url(#linear-gradient);
      }

      .cls-3 {
        fill: #4d887f;
      }

      .cls-50 {
        fill: #75ae4e;
      }

      .cls-51 {
        fill: #cdcdcd;
      }

      .cls-52 {
        fill: #eee;
      }

      .cls-53 {
        fill: url(#linear-gradient-4);
      }

      .cls-54 {
        opacity: .29;
      }
    </style>
    <clipPath id="clippath">
      <rect class="cls-35" x="-40.02" y="0" width="192.04" height="112"/>
    </clipPath>
    <clipPath id="clippath-1">
      <rect class="cls-35" x="-46.45" y="-54.41" width="204.9" height="220.82" transform="translate(-22.41 67.14) rotate(-53.08)"/>
    </clipPath>
    <linearGradient id="linear-gradient" x1="-3563.71" y1="4064.83" x2="-3588.57" y2="4158.65" gradientTransform="translate(-3506.8 -4084.87) rotate(-180) scale(1 -1)" gradientUnits="userSpaceOnUse">
      <stop offset="0" stop-color="#fff"/>
      <stop offset="1" stop-color="#000"/>
    </linearGradient>
    <mask id="mask" x="2.09" y="0" width="149.94" height="112" maskUnits="userSpaceOnUse">
      <rect class="cls-49" x="2.09" y="0" width="149.94" height="112"/>
    </mask>
    <linearGradient id="linear-gradient-2" x1="-3512.93" y1="4193.14" x2="-3667.67" y2="4149.05" xlink:href="#linear-gradient"/>
    <mask id="mask-1" x="56" y="48.75" width="96.02" height="63.25" maskUnits="userSpaceOnUse">
      <rect class="cls-4" x="56" y="48.75" width="96.02" height="63.25"/>
    </mask>
    <linearGradient id="linear-gradient-3" x1="-3533.09" y1="4533.61" x2="-3570.32" y2="4632.15" gradientTransform="translate(-3506.8 -4590.02) rotate(-180) scale(1 -1)" xlink:href="#linear-gradient"/>
    <mask id="mask-2" x="-40.02" y="0" width="192.04" height="44.49" maskUnits="userSpaceOnUse">
      <rect class="cls-47" x="-40.02" y="0" width="192.04" height="44.49"/>
    </mask>
    <linearGradient id="linear-gradient-4" x1="-3595.17" y1="4094.7" x2="-3652.41" y2="4166.06" xlink:href="#linear-gradient"/>
    <mask id="mask-3" x="98.8" y="0" width="53.22" height="112" maskUnits="userSpaceOnUse">
      <rect class="cls-53" x="98.8" y="0" width="53.22" height="112"/>
    </mask>
    <linearGradient id="linear-gradient-5" x1="-3608.95" y1="4126.01" x2="-3645.03" y2="4200.57" xlink:href="#linear-gradient"/>
    <mask id="mask-4" x="98.8" y="66.42" width="53.22" height="45.58" maskUnits="userSpaceOnUse">
      <rect class="cls-33" x="98.8" y="66.42" width="53.22" height="45.58"/>
    </mask>
    <linearGradient id="linear-gradient-6" x1="-4348.74" y1="4066.13" x2="-4415.29" y2="4192.69" gradientTransform="translate(-4391.12 -4084.87) rotate(-180) scale(1 -1)" xlink:href="#linear-gradient"/>
    <mask id="mask-5" x="-40.02" y="0" width="73.88" height="112" maskUnits="userSpaceOnUse">
      <rect class="cls-22" x="-40.02" y="0" width="73.88" height="112"/>
    </mask>
    <linearGradient id="linear-gradient-7" x1="-3796.46" y1="4056.81" x2="-3914.32" y2="4157.03" gradientTransform="translate(-3863.12 -4084.87) rotate(-180) scale(1 -1)" xlink:href="#linear-gradient"/>
    <mask id="mask-6" x="-40.02" y="0" width="144.43" height="112" maskUnits="userSpaceOnUse">
      <rect class="cls-38" x="-40.02" y="0" width="144.43" height="112"/>
    </mask>
  </defs>
  <g class="cls-28">
    <g id="Layer_1-2" data-name="Layer 1">
      <g>
        <g class="cls-44">
          <polygon class="cls-3" points="152.02 0 152.02 112 2.09 112 152.02 0"/>
        </g>
        <g class="cls-43">
          <polygon class="cls-3" points="152.02 48.75 152.02 112 56 112 152.02 48.75"/>
        </g>
        <g class="cls-20">
          <polygon class="cls-1" points="-40.02 0 152.02 0 -40.02 44.49 -40.02 0"/>
        </g>
        <g class="cls-25">
          <polygon class="cls-2" points="152.02 66.42 98.8 112 152.02 0 152.02 66.42"/>
        </g>
        <g class="cls-32">
          <polygon class="cls-2" points="98.8 112 152.02 66.42 152.02 112 98.8 112"/>
        </g>
        <g class="cls-27">
          <polygon class="cls-1" points="-40.02 0 33.86 112 -40.02 112 -40.02 0"/>
        </g>
        <g class="cls-37">
          <polygon class="cls-1" points="8.86 74.1 -40.02 112 -40.02 0 104.41 0 8.86 74.1"/>
        </g>
      </g>
    </g>
  </g>
  <g>
    <rect class="cls-8" x="82.77" y="8.94" width="10.53" height="92.46"/>
    <rect class="cls-15" x="82.77" y="8.94" width="10.53" height="8.64"/>
    <g>
      <rect class="cls-51" x="89.33" y="17.58" width=".35" height="2.36"/>
      <rect class="cls-51" x="89.33" y="20.65" width=".35" height="5.36"/>
      <rect class="cls-51" x="89.33" y="29.8" width=".35" height="5.36"/>
      <rect class="cls-51" x="89.33" y="38.95" width=".35" height="5.36"/>
      <rect class="cls-51" x="89.33" y="57.25" width=".35" height="5.36"/>
      <rect class="cls-51" x="89.33" y="48.1" width=".35" height="5.36"/>
      <rect class="cls-51" x="89.33" y="66.4" width=".35" height="2.85"/>
      <rect class="cls-46" x="88.62" y="26.73" width=".02" height="2.36"/>
      <rect class="cls-46" x="88.62" y="45.03" width=".02" height="2.36"/>
      <rect class="cls-46" x="88.62" y="35.88" width=".02" height="2.36"/>
      <rect class="cls-46" x="88.62" y="63.33" width=".02" height="2.36"/>
      <rect class="cls-46" x="88.62" y="54.18" width=".02" height="2.36"/>
      <rect class="cls-46" x="88.62" y="29.8" width=".35" height="5.36"/>
      <rect class="cls-46" x="88.62" y="20.65" width=".35" height="5.36"/>
      <rect class="cls-46" x="88.62" y="48.1" width=".35" height="5.36"/>
      <rect class="cls-46" x="88.62" y="38.95" width=".35" height="5.36"/>
      <rect class="cls-46" x="88.62" y="17.58" width=".35" height="2.36"/>
      <rect class="cls-46" x="88.62" y="57.25" width=".35" height="5.36"/>
      <rect class="cls-46" x="88.62" y="66.4" width=".35" height="2.85"/>
      <rect class="cls-46" x="88.97" y="17.58" width=".36" height="2.36"/>
      <rect class="cls-46" x="88.97" y="29.8" width=".36" height="5.36"/>
      <rect class="cls-46" x="88.97" y="57.25" width=".36" height="5.36"/>
      <rect class="cls-46" x="88.97" y="38.95" width=".36" height="5.36"/>
      <rect class="cls-46" x="88.97" y="48.1" width=".36" height="5.36"/>
      <rect class="cls-46" x="88.97" y="20.65" width=".36" height="5.36"/>
      <rect class="cls-46" x="88.97" y="66.4" width=".36" height="2.85"/>
      <rect class="cls-46" x="89.68" y="19.93" width="3.61" height=".72"/>
      <rect class="cls-46" x="82.78" y="19.93" width="5.84" height=".72"/>
      <rect class="cls-46" x="89.33" y="19.93" width=".35" height=".72"/>
      <rect class="cls-46" x="88.62" y="19.93" width=".35" height=".72"/>
      <rect class="cls-46" x="88.97" y="19.93" width=".36" height=".72"/>
      <rect class="cls-46" x="89.77" y="26.01" width="3.52" height=".72"/>
      <rect class="cls-46" x="83.92" y="26.71" width="4.7" height=".02"/>
      <rect class="cls-46" x="88.62" y="26.71" width=".02" height=".02"/>
      <rect class="cls-46" x="83.92" y="29.08" width="4.7" height=".01"/>
      <rect class="cls-46" x="89.77" y="29.08" width="3.52" height=".72"/>
      <rect class="cls-46" x="88.62" y="29.08" width=".02" height=".01"/>
      <rect class="cls-46" x="89.77" y="35.16" width="3.52" height=".72"/>
      <rect class="cls-46" x="83.92" y="35.86" width="4.7" height=".01"/>
      <rect class="cls-46" x="88.62" y="35.86" width=".02" height=".01"/>
      <rect class="cls-46" x="89.77" y="38.23" width="3.52" height=".72"/>
      <rect class="cls-46" x="83.92" y="38.23" width="4.7" height=".02"/>
      <rect class="cls-46" x="88.62" y="38.23" width=".02" height=".02"/>
      <rect class="cls-46" x="89.77" y="44.31" width="3.52" height=".72"/>
      <rect class="cls-46" x="83.92" y="45.01" width="4.7" height=".01"/>
      <rect class="cls-46" x="88.62" y="45.01" width=".02" height=".01"/>
      <rect class="cls-46" x="83.92" y="47.38" width="4.7" height=".01"/>
      <rect class="cls-46" x="89.77" y="47.38" width="3.52" height=".72"/>
      <rect class="cls-46" x="88.62" y="47.38" width=".02" height=".01"/>
      <rect class="cls-46" x="83.92" y="54.16" width="4.7" height=".02"/>
      <rect class="cls-46" x="89.77" y="53.46" width="3.52" height=".72"/>
      <rect class="cls-46" x="88.62" y="54.16" width=".02" height=".02"/>
      <rect class="cls-46" x="83.92" y="56.53" width="4.7" height=".01"/>
      <rect class="cls-46" x="89.77" y="56.53" width="3.52" height=".72"/>
      <rect class="cls-46" x="88.62" y="56.53" width=".02" height=".01"/>
      <rect class="cls-46" x="89.77" y="62.61" width="3.52" height=".72"/>
      <rect class="cls-46" x="83.92" y="63.31" width="4.7" height=".01"/>
      <rect class="cls-46" x="88.62" y="63.31" width=".02" height=".01"/>
      <rect class="cls-46" x="83.92" y="65.68" width="4.7" height=".02"/>
      <rect class="cls-46" x="89.77" y="65.68" width="3.52" height=".72"/>
      <rect class="cls-46" x="88.62" y="65.68" width=".02" height=".02"/>
      <rect class="cls-45" x="89.68" y="26.73" width=".09" height="2.36"/>
      <rect class="cls-45" x="83.48" y="26.73" width=".44" height="2.36"/>
      <rect class="cls-45" x="89.33" y="26.73" width=".35" height="2.36"/>
      <rect class="cls-45" x="89.68" y="26.01" width=".09" height=".72"/>
      <rect class="cls-45" x="83.48" y="26.71" width=".44" height=".02"/>
      <rect class="cls-45" x="89.33" y="26.01" width=".35" height=".72"/>
      <rect class="cls-45" x="83.48" y="29.08" width=".44" height=".01"/>
      <rect class="cls-45" x="89.68" y="29.08" width=".09" height=".72"/>
      <rect class="cls-45" x="89.33" y="29.08" width=".35" height=".72"/>
      <rect class="cls-45" x="83.48" y="35.88" width=".44" height="2.36"/>
      <rect class="cls-45" x="89.68" y="35.88" width=".09" height="2.36"/>
      <rect class="cls-45" x="89.33" y="35.88" width=".35" height="2.36"/>
      <rect class="cls-45" x="83.48" y="35.86" width=".44" height=".01"/>
      <rect class="cls-45" x="89.68" y="35.16" width=".09" height=".72"/>
      <rect class="cls-45" x="89.33" y="35.16" width=".35" height=".72"/>
      <rect class="cls-45" x="89.68" y="38.23" width=".09" height=".72"/>
      <rect class="cls-45" x="83.48" y="38.23" width=".44" height=".02"/>
      <rect class="cls-45" x="89.33" y="38.23" width=".35" height=".72"/>
      <rect class="cls-45" x="89.68" y="45.03" width=".09" height="2.36"/>
      <rect class="cls-45" x="83.48" y="45.03" width=".44" height="2.36"/>
      <rect class="cls-45" x="89.33" y="45.03" width=".35" height="2.36"/>
      <rect class="cls-45" x="83.48" y="45.01" width=".44" height=".01"/>
      <rect class="cls-45" x="89.68" y="44.31" width=".09" height=".72"/>
      <rect class="cls-45" x="89.33" y="44.31" width=".35" height=".72"/>
      <rect class="cls-45" x="89.68" y="47.38" width=".09" height=".72"/>
      <rect class="cls-45" x="83.48" y="47.38" width=".44" height=".01"/>
      <rect class="cls-45" x="89.33" y="47.38" width=".35" height=".72"/>
      <rect class="cls-45" x="89.68" y="54.18" width=".09" height="2.36"/>
      <rect class="cls-45" x="83.48" y="54.18" width=".44" height="2.36"/>
      <rect class="cls-45" x="89.33" y="54.18" width=".35" height="2.36"/>
      <rect class="cls-45" x="89.68" y="53.46" width=".09" height=".72"/>
      <rect class="cls-45" x="83.48" y="54.16" width=".44" height=".02"/>
      <rect class="cls-45" x="89.33" y="53.46" width=".35" height=".72"/>
      <rect class="cls-45" x="83.48" y="56.53" width=".44" height=".01"/>
      <rect class="cls-45" x="89.68" y="56.53" width=".09" height=".72"/>
      <rect class="cls-45" x="89.33" y="56.53" width=".35" height=".72"/>
      <rect class="cls-45" x="83.48" y="63.33" width=".44" height="2.36"/>
      <rect class="cls-45" x="89.68" y="63.33" width=".09" height="2.36"/>
      <rect class="cls-45" x="89.33" y="63.33" width=".35" height="2.36"/>
      <rect class="cls-45" x="83.48" y="63.31" width=".44" height=".01"/>
      <rect class="cls-45" x="89.68" y="62.61" width=".09" height=".72"/>
      <rect class="cls-45" x="89.33" y="62.61" width=".35" height=".72"/>
      <rect class="cls-45" x="89.68" y="65.68" width=".09" height=".72"/>
      <rect class="cls-45" x="83.48" y="65.68" width=".44" height=".02"/>
      <rect class="cls-45" x="89.33" y="65.68" width=".35" height=".72"/>
      <rect class="cls-7" x="82.78" y="26.73" width=".44" height="2.36"/>
      <rect class="cls-7" x="88.63" y="26.73" width=".33" height="2.36"/>
      <rect class="cls-7" x="88.97" y="26.73" width=".1" height="2.36"/>
      <rect class="cls-7" x="82.78" y="26.01" width=".44" height=".72"/>
      <rect class="cls-7" x="88.63" y="26.71" width=".33" height=".02"/>
      <rect class="cls-7" x="88.97" y="26.71" width=".1" height=".02"/>
      <rect class="cls-7" x="82.78" y="29.08" width=".44" height=".72"/>
      <rect class="cls-7" x="88.63" y="29.08" width=".33" height=".01"/>
      <rect class="cls-7" x="88.97" y="29.08" width=".1" height=".01"/>
      <rect class="cls-7" x="83.22" y="26.73" width=".26" height="2.36"/>
      <rect class="cls-7" x="89.07" y="26.73" width=".26" height="2.36"/>
      <polygon class="cls-7" points="83.48 26.73 83.48 26.71 83.92 26.71 88.62 26.71 88.62 26.01 83.22 26.01 83.22 26.73 83.48 26.73"/>
      <polygon class="cls-7" points="88.63 26.71 88.97 26.71 88.97 26.01 88.62 26.01 88.62 26.71 88.63 26.71"/>
      <polygon class="cls-7" points="89.07 26.73 89.33 26.73 89.33 26.01 88.97 26.01 88.97 26.71 89.07 26.71 89.07 26.73"/>
      <polygon class="cls-7" points="83.92 29.1 83.48 29.1 83.48 29.08 83.22 29.08 83.22 29.79 88.62 29.79 88.62 29.1 83.92 29.1"/>
      <polygon class="cls-7" points="88.63 29.1 88.62 29.1 88.62 29.79 88.97 29.79 88.97 29.1 88.63 29.1"/>
      <polygon class="cls-7" points="89.33 29.08 89.07 29.08 89.07 29.1 88.97 29.1 88.97 29.79 89.33 29.79 89.33 29.08"/>
      <rect class="cls-7" x="82.78" y="35.88" width=".44" height="2.36"/>
      <rect class="cls-7" x="88.63" y="35.88" width=".33" height="2.36"/>
      <rect class="cls-7" x="88.97" y="35.88" width=".1" height="2.36"/>
      <rect class="cls-7" x="82.78" y="35.16" width=".44" height=".72"/>
      <rect class="cls-7" x="88.63" y="35.86" width=".33" height=".01"/>
      <rect class="cls-7" x="88.97" y="35.86" width=".1" height=".01"/>
      <rect class="cls-7" x="82.78" y="38.23" width=".44" height=".72"/>
      <rect class="cls-7" x="88.63" y="38.23" width=".33" height=".02"/>
      <rect class="cls-7" x="88.97" y="38.23" width=".1" height=".02"/>
      <rect class="cls-7" x="83.22" y="35.88" width=".26" height="2.36"/>
      <rect class="cls-7" x="89.07" y="35.88" width=".26" height="2.36"/>
      <polygon class="cls-7" points="83.48 35.88 83.48 35.86 83.92 35.86 88.62 35.86 88.62 35.16 83.22 35.16 83.22 35.88 83.48 35.88"/>
      <polygon class="cls-7" points="88.63 35.86 88.97 35.86 88.97 35.16 88.62 35.16 88.62 35.86 88.63 35.86"/>
      <polygon class="cls-7" points="89.07 35.88 89.33 35.88 89.33 35.16 88.97 35.16 88.97 35.86 89.07 35.86 89.07 35.88"/>
      <polygon class="cls-7" points="83.92 38.25 83.48 38.25 83.48 38.23 83.22 38.23 83.22 38.95 88.62 38.95 88.62 38.25 83.92 38.25"/>
      <polygon class="cls-7" points="88.63 38.25 88.62 38.25 88.62 38.95 88.97 38.95 88.97 38.25 88.63 38.25"/>
      <polygon class="cls-7" points="89.33 38.23 89.07 38.23 89.07 38.25 88.97 38.25 88.97 38.95 89.33 38.95 89.33 38.23"/>
      <rect class="cls-7" x="82.78" y="45.03" width=".44" height="2.36"/>
      <rect class="cls-7" x="88.63" y="45.03" width=".33" height="2.36"/>
      <rect class="cls-7" x="88.97" y="45.03" width=".1" height="2.36"/>
      <rect class="cls-7" x="82.78" y="44.31" width=".44" height=".72"/>
      <rect class="cls-7" x="88.63" y="45.01" width=".33" height=".01"/>
      <rect class="cls-7" x="88.97" y="45.01" width=".1" height=".01"/>
      <rect class="cls-7" x="82.78" y="47.38" width=".44" height=".72"/>
      <rect class="cls-7" x="88.63" y="47.38" width=".33" height=".01"/>
      <rect class="cls-7" x="88.97" y="47.38" width=".1" height=".01"/>
      <rect class="cls-7" x="83.22" y="45.03" width=".26" height="2.36"/>
      <rect class="cls-7" x="89.07" y="45.03" width=".26" height="2.36"/>
      <polygon class="cls-7" points="83.48 45.03 83.48 45.01 83.92 45.01 88.62 45.01 88.62 44.31 83.22 44.31 83.22 45.03 83.48 45.03"/>
      <polygon class="cls-7" points="88.63 45.01 88.97 45.01 88.97 44.31 88.62 44.31 88.62 45.01 88.63 45.01"/>
      <polygon class="cls-7" points="89.07 45.03 89.33 45.03 89.33 44.31 88.97 44.31 88.97 45.01 89.07 45.01 89.07 45.03"/>
      <polygon class="cls-7" points="83.92 47.4 83.48 47.4 83.48 47.38 83.22 47.38 83.22 48.1 88.62 48.1 88.62 47.4 83.92 47.4"/>
      <polygon class="cls-7" points="88.97 47.4 88.63 47.4 88.62 47.4 88.62 48.1 88.97 48.1 88.97 47.4"/>
      <polygon class="cls-7" points="89.33 47.38 89.07 47.38 89.07 47.4 88.97 47.4 88.97 48.1 89.33 48.1 89.33 47.38"/>
      <rect class="cls-7" x="82.78" y="54.18" width=".44" height="2.36"/>
      <rect class="cls-7" x="88.63" y="54.18" width=".33" height="2.36"/>
      <rect class="cls-7" x="88.97" y="54.18" width=".1" height="2.36"/>
      <rect class="cls-7" x="82.78" y="53.46" width=".44" height=".72"/>
      <rect class="cls-7" x="88.63" y="54.16" width=".33" height=".02"/>
      <rect class="cls-7" x="88.97" y="54.16" width=".1" height=".02"/>
      <rect class="cls-7" x="82.78" y="56.53" width=".44" height=".72"/>
      <rect class="cls-7" x="88.63" y="56.53" width=".33" height=".01"/>
      <rect class="cls-7" x="88.97" y="56.53" width=".1" height=".01"/>
      <rect class="cls-7" x="83.22" y="54.18" width=".26" height="2.36"/>
      <rect class="cls-7" x="89.07" y="54.18" width=".26" height="2.36"/>
      <polygon class="cls-7" points="83.48 54.18 83.48 54.16 83.92 54.16 88.62 54.16 88.62 53.46 83.22 53.46 83.22 54.18 83.48 54.18"/>
      <polygon class="cls-7" points="88.63 54.16 88.97 54.16 88.97 53.46 88.62 53.46 88.62 54.16 88.63 54.16"/>
      <polygon class="cls-7" points="89.07 54.18 89.33 54.18 89.33 53.46 88.97 53.46 88.97 54.16 89.07 54.16 89.07 54.18"/>
      <polygon class="cls-7" points="83.92 56.55 83.48 56.55 83.48 56.53 83.22 56.53 83.22 57.25 88.62 57.25 88.62 56.55 83.92 56.55"/>
      <polygon class="cls-7" points="88.63 56.55 88.62 56.55 88.62 57.25 88.97 57.25 88.97 56.55 88.63 56.55"/>
      <polygon class="cls-7" points="89.33 56.53 89.07 56.53 89.07 56.55 88.97 56.55 88.97 57.25 89.33 57.25 89.33 56.53"/>
      <rect class="cls-7" x="82.78" y="63.33" width=".44" height="2.36"/>
      <rect class="cls-7" x="88.63" y="63.33" width=".33" height="2.36"/>
      <rect class="cls-7" x="88.97" y="63.33" width=".1" height="2.36"/>
      <rect class="cls-7" x="82.78" y="62.61" width=".44" height=".72"/>
      <rect class="cls-7" x="88.63" y="63.31" width=".33" height=".01"/>
      <rect class="cls-7" x="88.97" y="63.31" width=".1" height=".01"/>
      <rect class="cls-7" x="82.78" y="65.68" width=".44" height=".72"/>
      <rect class="cls-7" x="88.63" y="65.68" width=".33" height=".02"/>
      <rect class="cls-7" x="88.97" y="65.68" width=".1" height=".02"/>
      <rect class="cls-7" x="83.22" y="63.33" width=".26" height="2.36"/>
      <rect class="cls-7" x="89.07" y="63.33" width=".26" height="2.36"/>
      <polygon class="cls-7" points="83.48 63.33 83.48 63.31 83.92 63.31 88.62 63.31 88.62 62.61 83.22 62.61 83.22 63.33 83.48 63.33"/>
      <polygon class="cls-7" points="88.63 63.31 88.97 63.31 88.97 62.61 88.62 62.61 88.62 63.31 88.63 63.31"/>
      <polygon class="cls-7" points="89.07 63.33 89.33 63.33 89.33 62.61 88.97 62.61 88.97 63.31 89.07 63.31 89.07 63.33"/>
      <polygon class="cls-7" points="83.92 65.7 83.48 65.7 83.48 65.68 83.22 65.68 83.22 66.4 88.62 66.4 88.62 65.7 83.92 65.7"/>
      <polygon class="cls-7" points="88.63 65.7 88.62 65.7 88.62 66.4 88.97 66.4 88.97 65.7 88.63 65.7"/>
      <polygon class="cls-7" points="89.33 65.68 89.07 65.68 89.07 65.7 88.97 65.7 88.97 66.4 89.33 66.4 89.33 65.68"/>
      <rect class="cls-51" x="89.33" y="90.63" width=".35" height="5.36"/>
      <rect class="cls-51" x="89.33" y="81.48" width=".35" height="5.36"/>
      <rect class="cls-51" x="89.33" y="99.78" width=".35" height="1.62"/>
      <rect class="cls-51" x="89.33" y="70.11" width=".35" height="1.5"/>
      <rect class="cls-51" x="89.33" y="72.32" width=".35" height="5.36"/>
      <rect class="cls-51" x="89.33" y="69.25" width=".35" height=".86"/>
      <rect class="cls-46" x="88.62" y="78.4" width=".02" height="2.36"/>
      <rect class="cls-46" x="88.62" y="90.63" width=".35" height="5.36"/>
      <rect class="cls-46" x="88.62" y="87.55" width=".02" height="2.36"/>
      <rect class="cls-46" x="88.62" y="99.78" width=".35" height="1.62"/>
      <rect class="cls-46" x="88.62" y="70.11" width=".35" height="1.5"/>
      <rect class="cls-46" x="88.62" y="81.48" width=".35" height="5.36"/>
      <rect class="cls-46" x="88.62" y="96.7" width=".02" height="2.36"/>
      <rect class="cls-46" x="88.62" y="72.32" width=".35" height="5.36"/>
      <rect class="cls-46" x="88.62" y="69.25" width=".35" height=".86"/>
      <rect class="cls-46" x="88.97" y="99.78" width=".36" height="1.62"/>
      <rect class="cls-46" x="88.97" y="90.63" width=".36" height="5.36"/>
      <rect class="cls-46" x="88.97" y="70.11" width=".36" height="1.5"/>
      <rect class="cls-46" x="88.97" y="72.32" width=".36" height="5.36"/>
      <rect class="cls-46" x="88.97" y="81.48" width=".36" height="5.36"/>
      <rect class="cls-46" x="88.97" y="69.25" width=".36" height=".86"/>
      <rect class="cls-46" x="89.68" y="71.61" width="3.61" height=".72"/>
      <rect class="cls-46" x="82.78" y="71.61" width="5.84" height=".72"/>
      <rect class="cls-46" x="89.33" y="71.61" width=".35" height=".72"/>
      <rect class="cls-46" x="88.62" y="71.61" width=".35" height=".72"/>
      <rect class="cls-46" x="88.97" y="71.61" width=".36" height=".72"/>
      <rect class="cls-46" x="83.92" y="78.39" width="4.7" height=".01"/>
      <rect class="cls-46" x="89.77" y="77.69" width="3.52" height=".72"/>
      <rect class="cls-46" x="88.62" y="78.39" width=".02" height=".01"/>
      <rect class="cls-46" x="89.77" y="80.76" width="3.52" height=".72"/>
      <rect class="cls-46" x="83.92" y="80.76" width="4.7" height=".02"/>
      <rect class="cls-46" x="88.62" y="80.76" width=".02" height=".02"/>
      <rect class="cls-46" x="89.77" y="86.84" width="3.52" height=".72"/>
      <rect class="cls-46" x="83.92" y="87.54" width="4.7" height=".01"/>
      <rect class="cls-46" x="88.62" y="87.54" width=".02" height=".01"/>
      <rect class="cls-46" x="89.77" y="89.91" width="3.52" height=".72"/>
      <rect class="cls-46" x="83.92" y="89.91" width="4.7" height=".01"/>
      <rect class="cls-46" x="88.62" y="89.91" width=".02" height=".01"/>
      <rect class="cls-46" x="89.77" y="95.99" width="3.52" height=".72"/>
      <rect class="cls-46" x="83.92" y="96.69" width="4.7" height=".02"/>
      <rect class="cls-46" x="88.62" y="96.69" width=".02" height=".02"/>
      <rect class="cls-46" x="89.77" y="99.06" width="3.52" height=".72"/>
      <rect class="cls-46" x="83.92" y="99.06" width="4.7" height=".01"/>
      <rect class="cls-46" x="88.62" y="99.06" width=".02" height=".01"/>
      <rect class="cls-45" x="83.48" y="78.4" width=".44" height="2.36"/>
      <rect class="cls-45" x="89.68" y="78.4" width=".09" height="2.36"/>
      <rect class="cls-45" x="89.33" y="78.4" width=".35" height="2.36"/>
      <rect class="cls-45" x="89.68" y="77.69" width=".09" height=".72"/>
      <rect class="cls-45" x="83.48" y="78.39" width=".44" height=".01"/>
      <rect class="cls-45" x="89.33" y="77.69" width=".35" height=".72"/>
      <rect class="cls-45" x="83.48" y="80.76" width=".44" height=".02"/>
      <rect class="cls-45" x="89.68" y="80.76" width=".09" height=".72"/>
      <rect class="cls-45" x="89.33" y="80.76" width=".35" height=".72"/>
      <rect class="cls-45" x="89.68" y="87.55" width=".09" height="2.36"/>
      <rect class="cls-45" x="83.48" y="87.55" width=".44" height="2.36"/>
      <rect class="cls-45" x="89.33" y="87.55" width=".35" height="2.36"/>
      <rect class="cls-45" x="83.48" y="87.54" width=".44" height=".01"/>
      <rect class="cls-45" x="89.68" y="86.84" width=".09" height=".72"/>
      <rect class="cls-45" x="89.33" y="86.84" width=".35" height=".72"/>
      <rect class="cls-45" x="83.48" y="89.91" width=".44" height=".01"/>
      <rect class="cls-45" x="89.68" y="89.91" width=".09" height=".72"/>
      <rect class="cls-45" x="89.33" y="89.91" width=".35" height=".72"/>
      <rect class="cls-45" x="83.48" y="96.7" width=".44" height="2.36"/>
      <rect class="cls-45" x="89.68" y="96.7" width=".09" height="2.36"/>
      <rect class="cls-45" x="89.33" y="96.7" width=".35" height="2.36"/>
      <rect class="cls-45" x="83.48" y="96.69" width=".44" height=".02"/>
      <rect class="cls-45" x="89.68" y="95.99" width=".09" height=".72"/>
      <rect class="cls-45" x="89.33" y="95.99" width=".35" height=".72"/>
      <rect class="cls-45" x="83.48" y="99.06" width=".44" height=".01"/>
      <rect class="cls-45" x="89.68" y="99.06" width=".09" height=".72"/>
      <rect class="cls-45" x="89.33" y="99.06" width=".35" height=".72"/>
      <rect class="cls-7" x="82.78" y="78.4" width=".44" height="2.36"/>
      <rect class="cls-7" x="88.63" y="78.4" width=".33" height="2.36"/>
      <rect class="cls-7" x="88.97" y="78.4" width=".1" height="2.36"/>
      <rect class="cls-7" x="82.78" y="77.69" width=".44" height=".72"/>
      <rect class="cls-7" x="88.63" y="78.39" width=".33" height=".01"/>
      <rect class="cls-7" x="88.97" y="78.39" width=".1" height=".01"/>
      <rect class="cls-7" x="82.78" y="80.76" width=".44" height=".72"/>
      <rect class="cls-7" x="88.63" y="80.76" width=".33" height=".02"/>
      <rect class="cls-7" x="88.97" y="80.76" width=".1" height=".02"/>
      <rect class="cls-7" x="83.22" y="78.4" width=".26" height="2.36"/>
      <rect class="cls-7" x="89.07" y="78.4" width=".26" height="2.36"/>
      <polygon class="cls-7" points="83.48 78.4 83.48 78.39 83.92 78.39 88.62 78.39 88.62 77.69 83.22 77.69 83.22 78.4 83.48 78.4"/>
      <polygon class="cls-7" points="88.63 78.39 88.97 78.39 88.97 77.69 88.62 77.69 88.62 78.39 88.63 78.39"/>
      <polygon class="cls-7" points="89.07 78.4 89.33 78.4 89.33 77.69 88.97 77.69 88.97 78.39 89.07 78.39 89.07 78.4"/>
      <polygon class="cls-7" points="83.92 80.77 83.48 80.77 83.48 80.76 83.22 80.76 83.22 81.48 88.62 81.48 88.62 80.77 83.92 80.77"/>
      <polygon class="cls-7" points="88.63 80.77 88.62 80.77 88.62 81.48 88.97 81.48 88.97 80.77 88.63 80.77"/>
      <polygon class="cls-7" points="89.33 80.76 89.07 80.76 89.07 80.77 88.97 80.77 88.97 81.48 89.33 81.48 89.33 80.76"/>
      <rect class="cls-7" x="82.78" y="87.55" width=".44" height="2.36"/>
      <rect class="cls-7" x="88.63" y="87.55" width=".33" height="2.36"/>
      <rect class="cls-7" x="88.97" y="87.55" width=".1" height="2.36"/>
      <rect class="cls-7" x="82.78" y="86.84" width=".44" height=".72"/>
      <rect class="cls-7" x="88.63" y="87.54" width=".33" height=".01"/>
      <rect class="cls-7" x="88.97" y="87.54" width=".1" height=".01"/>
      <rect class="cls-7" x="82.78" y="89.91" width=".44" height=".72"/>
      <rect class="cls-7" x="88.63" y="89.91" width=".33" height=".01"/>
      <rect class="cls-7" x="88.97" y="89.91" width=".1" height=".01"/>
      <rect class="cls-7" x="83.22" y="87.55" width=".26" height="2.36"/>
      <rect class="cls-7" x="89.07" y="87.55" width=".26" height="2.36"/>
      <polygon class="cls-7" points="83.48 87.55 83.48 87.54 83.92 87.54 88.62 87.54 88.62 86.84 83.22 86.84 83.22 87.55 83.48 87.55"/>
      <polygon class="cls-7" points="88.63 87.54 88.97 87.54 88.97 86.84 88.62 86.84 88.62 87.54 88.63 87.54"/>
      <polygon class="cls-7" points="89.07 87.55 89.33 87.55 89.33 86.84 88.97 86.84 88.97 87.54 89.07 87.54 89.07 87.55"/>
      <polygon class="cls-7" points="83.92 89.92 83.48 89.92 83.48 89.91 83.22 89.91 83.22 90.63 88.62 90.63 88.62 89.92 83.92 89.92"/>
      <polygon class="cls-7" points="88.63 89.92 88.62 89.92 88.62 90.63 88.97 90.63 88.97 89.92 88.63 89.92"/>
      <polygon class="cls-7" points="89.33 89.91 89.07 89.91 89.07 89.92 88.97 89.92 88.97 90.63 89.33 90.63 89.33 89.91"/>
      <rect class="cls-7" x="82.78" y="96.7" width=".44" height="2.36"/>
      <rect class="cls-7" x="88.63" y="96.7" width=".33" height="2.36"/>
      <rect class="cls-7" x="88.97" y="96.7" width=".1" height="2.36"/>
      <rect class="cls-7" x="82.78" y="95.99" width=".44" height=".72"/>
      <rect class="cls-7" x="88.63" y="96.69" width=".33" height=".02"/>
      <rect class="cls-7" x="88.97" y="96.69" width=".1" height=".02"/>
      <rect class="cls-7" x="82.78" y="99.06" width=".44" height=".72"/>
      <rect class="cls-7" x="88.63" y="99.06" width=".33" height=".01"/>
      <rect class="cls-7" x="88.97" y="99.06" width=".1" height=".01"/>
      <rect class="cls-7" x="83.22" y="96.7" width=".26" height="2.36"/>
      <rect class="cls-7" x="89.07" y="96.7" width=".26" height="2.36"/>
      <polygon class="cls-7" points="83.48 96.7 83.48 96.69 83.92 96.69 88.62 96.69 88.62 95.99 83.22 95.99 83.22 96.7 83.48 96.7"/>
      <polygon class="cls-7" points="88.63 96.69 88.97 96.69 88.97 95.99 88.62 95.99 88.62 96.69 88.63 96.69"/>
      <polygon class="cls-7" points="89.07 96.7 89.33 96.7 89.33 95.99 88.97 95.99 88.97 96.69 89.07 96.69 89.07 96.7"/>
      <polygon class="cls-7" points="83.92 99.08 83.48 99.08 83.48 99.06 83.22 99.06 83.22 99.78 88.62 99.78 88.62 99.08 83.92 99.08"/>
      <polygon class="cls-7" points="88.97 99.08 88.63 99.08 88.62 99.08 88.62 99.78 88.97 99.78 88.97 99.08"/>
      <polygon class="cls-7" points="89.33 99.06 89.07 99.06 89.07 99.08 88.97 99.08 88.97 99.78 89.33 99.78 89.33 99.06"/>
    </g>
    <rect class="cls-9" x="82.77" y="8.94" width="10.53" height="92.46"/>
    <rect class="cls-39" x="16.93" y="8.94" width="65.84" height="92.46"/>
    <rect class="cls-41" x="16.93" y="8.94" width="65.84" height="8.64"/>
    <g>
      <rect class="cls-51" x="23.12" y="17.58" width=".72" height="52.53"/>
      <rect class="cls-51" x="29.81" y="17.58" width=".72" height="52.53"/>
      <rect class="cls-51" x="36.5" y="17.58" width=".72" height="52.53"/>
      <rect class="cls-51" x="43.19" y="17.58" width=".72" height="52.53"/>
      <rect class="cls-51" x="49.88" y="17.58" width=".72" height="56.18"/>
      <rect class="cls-51" x="56.57" y="17.58" width=".72" height="52.53"/>
      <rect class="cls-51" x="63.26" y="17.58" width=".72" height="52.53"/>
      <rect class="cls-51" x="69.95" y="17.58" width=".72" height="52.53"/>
      <rect class="cls-51" x="76.64" y="17.58" width=".72" height="52.53"/>
    </g>
    <rect class="cls-11" x="11.02" y="101.39" width="87.41" height="1.67"/>
    <polygon class="cls-41" points="16.93 99.17 15.57 101.39 16.93 101.39 47.07 101.39 47.07 99.17 16.93 99.17"/>
    <polygon class="cls-15" points="45.71 101.39 47.07 101.39 47.07 99.17 45.71 101.39"/>
    <g>
      <rect class="cls-46" x="22.77" y="17.58" width=".72" height="52.53"/>
      <rect class="cls-46" x="29.46" y="17.58" width=".72" height="52.53"/>
      <rect class="cls-46" x="36.15" y="17.58" width=".72" height="52.53"/>
      <rect class="cls-46" x="16.93" y="19.93" width="65.85" height=".72"/>
      <rect class="cls-46" x="16.93" y="26.01" width="65.85" height=".72"/>
      <rect class="cls-46" x="42.84" y="17.58" width=".72" height="52.53"/>
      <rect class="cls-46" x="49.53" y="17.58" width=".72" height="56.18"/>
      <rect class="cls-46" x="56.22" y="17.58" width=".72" height="52.53"/>
      <rect class="cls-46" x="62.91" y="17.58" width=".72" height="52.53"/>
      <rect class="cls-46" x="69.6" y="17.58" width=".72" height="52.53"/>
      <rect class="cls-46" x="76.29" y="17.58" width=".72" height="52.53"/>
      <rect class="cls-46" x="16.93" y="29.08" width="65.85" height=".72"/>
      <rect class="cls-46" x="16.93" y="35.16" width="52.53" height=".72"/>
      <rect class="cls-46" x="16.93" y="38.23" width="52.53" height=".72"/>
      <rect class="cls-46" x="16.93" y="44.31" width="52.53" height=".72"/>
      <rect class="cls-46" x="16.93" y="47.38" width="52.53" height=".72"/>
      <rect class="cls-46" x="16.93" y="53.46" width="52.53" height=".72"/>
      <rect class="cls-46" x="16.93" y="56.53" width="52.53" height=".72"/>
      <rect class="cls-46" x="16.93" y="62.61" width="52.53" height=".72"/>
      <rect class="cls-46" x="16.93" y="65.68" width="52.53" height=".72"/>
    </g>
    <g>
      <path class="cls-45" d="M23.22,26.71v2.39h-5.15v-2.39h5.15Zm.7-.7h-6.55v3.79h6.55v-3.79h0Z"/>
      <path class="cls-45" d="M36.6,26.71v2.39h-6v-2.39h6Zm.7-.7h-7.4v3.79h7.4v-3.79h0Z"/>
      <path class="cls-45" d="M49.94,26.71v2.39h-5.97v-2.39h5.97Zm.7-.7h-7.37v3.79h7.37v-3.79h0Z"/>
      <path class="cls-45" d="M63.33,26.71v2.39h-5.97v-2.39h5.97Zm.7-.7h-7.37v3.79h7.37v-3.79h0Z"/>
      <path class="cls-45" d="M76.71,26.71v2.39h-5.97v-2.39h5.97Zm.7-.7h-7.37v3.79h7.37v-3.79h0Z"/>
      <path class="cls-45" d="M23.22,35.86v2.39h-5.15v-2.39h5.15Zm.7-.7h-6.55v3.79h6.55v-3.79h0Z"/>
      <path class="cls-45" d="M36.6,35.86v2.39h-6v-2.39h6Zm.7-.7h-7.4v3.79h7.4v-3.79h0Z"/>
      <path class="cls-45" d="M49.94,35.86v2.39h-5.97v-2.39h5.97Zm.7-.7h-7.37v3.79h7.37v-3.79h0Z"/>
      <path class="cls-45" d="M23.22,45.01v2.39h-5.15v-2.39h5.15Zm.7-.7h-6.55v3.79h6.55v-3.79h0Z"/>
      <path class="cls-45" d="M36.6,45.01v2.39h-6v-2.39h6Zm.7-.7h-7.4v3.79h7.4v-3.79h0Z"/>
      <path class="cls-45" d="M49.94,45.01v2.39h-5.97v-2.39h5.97Zm.7-.7h-7.37v3.79h7.37v-3.79h0Z"/>
      <path class="cls-45" d="M23.22,54.16v2.39h-5.15v-2.39h5.15Zm.7-.7h-6.55v3.79h6.55v-3.79h0Z"/>
      <path class="cls-45" d="M36.6,54.16v2.39h-6v-2.39h6Zm.7-.7h-7.4v3.79h7.4v-3.79h0Z"/>
      <path class="cls-45" d="M49.94,54.16v2.39h-5.97v-2.39h5.97Zm.7-.7h-7.37v3.79h7.37v-3.79h0Z"/>
      <path class="cls-45" d="M23.22,63.31v2.39h-5.15v-2.39h5.15Zm.7-.7h-6.55v3.79h6.55v-3.79h0Z"/>
      <path class="cls-45" d="M36.6,63.31v2.39h-6v-2.39h6Zm.7-.7h-7.4v3.79h7.4v-3.79h0Z"/>
      <path class="cls-45" d="M49.94,63.31v2.39h-5.97v-2.39h5.97Zm.7-.7h-7.37v3.79h7.37v-3.79h0Z"/>
    </g>
    <g>
      <path class="cls-7" d="M22.78,26.71v2.39h-5.15v-2.39h5.15Zm.7-.7h-6.55v3.79h6.55v-3.79h0Z"/>
      <path class="cls-7" d="M36.16,26.71v2.39h-6v-2.39h6Zm.7-.7h-7.4v3.79h7.4v-3.79h0Z"/>
      <path class="cls-7" d="M49.51,26.71v2.39h-5.97v-2.39h5.97Zm.7-.7h-7.37v3.79h7.37v-3.79h0Z"/>
      <path class="cls-7" d="M62.89,26.71v2.39h-5.97v-2.39h5.97Zm.7-.7h-7.37v3.79h7.37v-3.79h0Z"/>
      <path class="cls-7" d="M76.27,26.71v2.39h-5.97v-2.39h5.97Zm.7-.7h-7.37v3.79h7.37v-3.79h0Z"/>
      <path class="cls-7" d="M22.78,35.86v2.39h-5.15v-2.39h5.15Zm.7-.7h-6.55v3.79h6.55v-3.79h0Z"/>
      <path class="cls-7" d="M36.16,35.86v2.39h-6v-2.39h6Zm.7-.7h-7.4v3.79h7.4v-3.79h0Z"/>
      <path class="cls-7" d="M49.51,35.86v2.39h-5.97v-2.39h5.97Zm.7-.7h-7.37v3.79h7.37v-3.79h0Z"/>
      <path class="cls-7" d="M22.78,45.01v2.39h-5.15v-2.39h5.15Zm.7-.7h-6.55v3.79h6.55v-3.79h0Z"/>
      <path class="cls-7" d="M36.16,45.01v2.39h-6v-2.39h6Zm.7-.7h-7.4v3.79h7.4v-3.79h0Z"/>
      <path class="cls-7" d="M49.51,45.01v2.39h-5.97v-2.39h5.97Zm.7-.7h-7.37v3.79h7.37v-3.79h0Z"/>
      <path class="cls-7" d="M22.78,54.16v2.39h-5.15v-2.39h5.15Zm.7-.7h-6.55v3.79h6.55v-3.79h0Z"/>
      <path class="cls-7" d="M36.16,54.16v2.39h-6v-2.39h6Zm.7-.7h-7.4v3.79h7.4v-3.79h0Z"/>
      <path class="cls-7" d="M49.51,54.16v2.39h-5.97v-2.39h5.97Zm.7-.7h-7.37v3.79h7.37v-3.79h0Z"/>
      <path class="cls-7" d="M22.78,63.31v2.39h-5.15v-2.39h5.15Zm.7-.7h-6.55v3.79h6.55v-3.79h0Z"/>
      <path class="cls-7" d="M36.16,63.31v2.39h-6v-2.39h6Zm.7-.7h-7.4v3.79h7.4v-3.79h0Z"/>
      <path class="cls-7" d="M49.51,63.31v2.39h-5.97v-2.39h5.97Zm.7-.7h-7.37v3.79h7.37v-3.79h0Z"/>
    </g>
    <g class="cls-54">
      <polygon class="cls-24" points="16.93 17.58 16.93 50 49.34 17.59 16.93 17.58"/>
      <polygon class="cls-46" points="49.34 17.59 16.93 50 16.93 61.74 61.1 17.58 49.34 17.59"/>
      <polygon class="cls-5" points="82.79 17.58 79.9 17.58 23.72 73.76 29.36 73.76 82.79 20.33 82.79 17.58"/>
      <polygon class="cls-24" points="61.1 17.58 16.93 61.74 16.93 73.76 23.72 73.76 79.9 17.58 61.1 17.58"/>
      <polygon class="cls-11" points="82.79 20.33 29.36 73.76 82.79 73.76 82.79 20.33"/>
    </g>
    <g>
      <rect class="cls-11" x="22.38" y="87.68" width="4.38" height="11.31"/>
      <path class="cls-6" d="M22.57,87.87h4v10.93h-4v-10.93h0Zm-.38-.38v11.69h4.76v-11.69h-4.76Z"/>
    </g>
    <g>
      <rect class="cls-11" x="26.78" y="87.68" width="4.38" height="11.31"/>
      <path class="cls-6" d="M26.97,87.87h4v10.93h-4v-10.93h0Zm-.38-.38v11.69h4.76v-11.69h-4.76Z"/>
    </g>
    <g>
      <rect class="cls-11" x="33.32" y="87.68" width="4.38" height="11.31"/>
      <path class="cls-6" d="M33.51,87.87h4v10.93h-4v-10.93h0Zm-.38-.38v11.69h4.76v-11.69h-4.76Z"/>
    </g>
    <g>
      <rect class="cls-11" x="37.72" y="87.68" width="4.38" height="11.31"/>
      <path class="cls-6" d="M37.92,87.87h4v10.93h-4v-10.93h0Zm-.38-.38v11.69h4.76v-11.69h-4.76Z"/>
    </g>
    <g>
      <rect class="cls-11" x="31.14" y="87.68" width="2.19" height="11.31"/>
      <path class="cls-6" d="M31.33,87.87h1.81v10.93h-1.81v-10.93h0Zm-.38-.38v11.69h2.57v-11.69h-2.57Z"/>
    </g>
    <g>
      <rect class="cls-11" x="22.38" y="83.31" width="19.73" height="2.19"/>
      <path class="cls-6" d="M41.91,83.5v1.81H22.57v-1.81h19.35Zm.38-.38H22.19v2.57h20.1v-2.57h0Z"/>
    </g>
    <g>
      <rect class="cls-11" x="22.38" y="81.14" width="19.73" height="2.19"/>
      <path class="cls-6" d="M41.91,81.33v1.81H22.57v-1.81h19.35Zm.38-.38H22.19v2.57h20.1v-2.57h0Z"/>
    </g>
    <g>
      <rect class="cls-11" x="22.38" y="78.97" width="19.73" height="2.19"/>
      <path class="cls-6" d="M41.91,79.16v1.81H22.57v-1.81h19.35Zm.38-.38H22.19v2.57h20.1v-2.57h0Z"/>
    </g>
    <polygon class="cls-6" points="33.14 93.52 33.52 93.52 33.52 93.14 30.95 93.14 30.95 93.52 31.33 93.52 33.14 93.52"/>
    <g class="cls-16">
      <polygon class="cls-5" points="31.8 87.49 22.18 97.1 22.18 98.81 33.51 87.49 31.8 87.49"/>
      <polygon class="cls-26" points="33.51 87.49 22.18 98.81 22.18 99.18 29.96 99.18 41.65 87.49 33.51 87.49"/>
    </g>
    <g class="cls-16">
      <polygon class="cls-5" points="40.43 78.79 33.52 85.69 35.23 85.69 42.13 78.79 40.43 78.79"/>
      <polygon class="cls-26" points="42.13 78.79 35.23 85.69 42.29 85.69 42.29 78.79 42.13 78.79"/>
    </g>
    <polygon class="cls-12" points="16.93 76.76 16.93 88.59 35.24 88.59 47.07 76.76 16.93 76.76"/>
    <g>
      <polygon class="cls-18" points="91.49 72.92 95.66 72.92 99.78 43.05 95.62 43.05 91.49 72.92"/>
      <polygon class="cls-48" points="87.34 43.05 87.34 72.92 91.49 72.92 95.62 43.05 87.34 43.05"/>
      <polygon class="cls-41" points="100.98 34.41 99.78 43.05 99.78 43.05 100.98 34.41"/>
      <polygon class="cls-41" points="96.81 34.41 95.62 43.05 99.78 43.05 100.98 34.41 96.81 34.41"/>
      <polygon class="cls-8" points="95.62 43.05 96.81 34.41 87.34 34.41 87.34 43.05 95.62 43.05"/>
    </g>
    <g>
      <rect class="cls-15" x="85.35" y="34.41" width="1.99" height="66.98"/>
      <rect class="cls-41" x="53.37" y="34.41" width="31.99" height="66.98"/>
      <g>
        <polygon class="cls-13" points="83.14 63.77 54.82 63.77 54.82 57.24 55.86 56.19 83.14 57.24 84.19 62.72 83.14 63.77"/>
        <polygon class="cls-13" points="83.14 53.97 54.82 53.97 54.82 47.44 55.86 46.4 83.14 47.44 84.19 52.93 83.14 53.97"/>
        <polygon class="cls-13" points="83.14 44.18 54.82 44.18 54.82 37.65 55.86 36.6 83.14 37.65 84.19 43.13 83.14 44.18"/>
        <polygon class="cls-13" points="83.14 73.56 54.82 73.56 54.82 67.03 55.86 65.99 83.14 67.03 84.19 72.52 83.14 73.56"/>
        <rect class="cls-11" x="55.86" y="56.19" width="27.47" height="6.53"/>
        <rect class="cls-14" x="83.34" y="56.19" width=".85" height="6.53"/>
        <rect class="cls-31" x="55.86" y="36.6" width="27.47" height="6.53"/>
        <rect class="cls-42" x="55.86" y="46.4" width="27.47" height="6.53"/>
        <rect class="cls-30" x="55.86" y="65.99" width="13.09" height="6.53"/>
        <rect class="cls-36" x="70.25" y="65.99" width="13.09" height="6.53"/>
        <rect class="cls-19" x="83.34" y="36.6" width=".85" height="6.53"/>
        <rect class="cls-29" x="83.34" y="46.4" width=".85" height="6.53"/>
        <rect class="cls-10" x="83.34" y="65.99" width=".85" height="6.53"/>
        <rect class="cls-40" x="68.94" y="65.99" width=".85" height="6.53"/>
        <rect class="cls-17" x="57.71" y="57.79" width="12.08" height=".36"/>
        <rect class="cls-23" x="57.38" y="67.9" width="10.07" height=".36"/>
        <rect class="cls-34" x="71.78" y="67.74" width="10.07" height=".36"/>
        <rect class="cls-23" x="57.38" y="68.7" width="10.07" height=".36"/>
        <rect class="cls-17" x="57.71" y="58.5" width="23.79" height=".36"/>
        <rect class="cls-21" x="57.71" y="48.33" width="23.79" height=".36"/>
        <rect class="cls-50" x="57.71" y="39.69" width="23.79" height=".36"/>
        <rect class="cls-21" x="57.71" y="49.05" width="23.79" height=".36"/>
        <rect class="cls-21" x="57.71" y="49.82" width="10.39" height=".36"/>
        <rect class="cls-21" x="71.1" y="49.82" width="10.39" height=".36"/>
        <rect class="cls-21" x="71.1" y="50.54" width="10.39" height=".36"/>
        <rect class="cls-17" x="57.71" y="59.22" width="23.79" height=".36"/>
      </g>
    </g>
    <g>
      <rect class="cls-52" x="63.21" y="99.17" width="12.3" height="2.22"/>
      <rect class="cls-5" x="75.51" y="99.17" width="1.63" height="2.22"/>
      <polygon class="cls-12" points="61.58 100.8 61.58 101.39 63.21 101.39 63.21 99.17 61.58 100.8"/>
    </g>
    <rect class="cls-30" x="14.84" y="70.11" width="30.47" height="6.65"/>
    <rect class="cls-41" x="45.31" y="73.76" width="8.06" height="3.01"/>
    <rect class="cls-40" x="45.31" y="70.11" width="1.75" height="6.65"/>
    <polygon class="cls-12" points="51.62 36.16 51.62 101.39 53.37 101.39 53.37 34.41 51.62 36.16"/>
  </g>
</svg>