<svg xmlns="http://www.w3.org/2000/svg" width="15.17" height="11.423" viewBox="0 0 15.17 11.423">
  <path id="people-multiple-svgrepo-com" d="M20.515,17a1.6,1.6,0,1,1-1.6,1.6A1.6,1.6,0,0,1,20.515,17Zm-1.6,5.225c-.214.107-.566,1.037-.373,1.162L17.5,23.2c.708-.256.85-.685.907-1.467l-.055-.486c.233-.194.576-.621.881-.621H21.8a1.261,1.261,0,0,1,.822.333l.15.553c0,.653.5.85,1.018,1.166l-.727-.015a1.109,1.109,0,0,0-.525.113,1.755,1.755,0,0,0-.416-.548l.036.812a4.577,4.577,0,0,0-1.018,1.8l-.117.582-.344.013A4.362,4.362,0,0,1,20,25.379a3.714,3.714,0,0,0-1.15-1.7Zm-2.385-2.234a1.6,1.6,0,1,1-1.6,1.6A1.6,1.6,0,0,1,16.527,19.991Zm-1.6,5.225c-.214.107-.641.962-.641.962a4.04,4.04,0,0,0-.321,1.6L13,27.461l.321-1.6s.641-2.244,1.924-2.244h2.565c1.283,0,1.924,2.244,1.924,2.244l.321,1.6-.962.321a4.04,4.04,0,0,0-.321-1.6s-.428-.855-.641-.962l.13,2.912a4.342,4.342,0,0,1-3.459-.137Zm9.719-5.832a1.674,1.674,0,0,1,1.6,1.66,1.536,1.536,0,0,1-1.6,1.546,1.674,1.674,0,0,1-1.6-1.66A1.536,1.536,0,0,1,24.643,19.384Zm-1.6,5.168c-.214.1-.641.939-.641.939a3.943,3.943,0,0,0-.321,1.592l-.962-.355.321-1.592s.641-2.222,1.924-2.176l2.565.091c1.283.046,1.924,2.313,1.924,2.313l.321,1.615-.962.286a4.138,4.138,0,0,0-.321-1.615,3.9,3.9,0,0,0-.641-.985l.13,2.917a4.243,4.243,0,0,1-1.572.238,4.418,4.418,0,0,1-1.886-.5Z" transform="translate(-13 -17)" fill="#acacac"/>
</svg>
