<svg xmlns="http://www.w3.org/2000/svg" width="27.5" height="27.5" viewBox="0 0 27.5 27.5">
  <g id="Group_7739" data-name="Group 7739" transform="translate(-1487.488 -7258.44)">
    <g id="Group_7735" data-name="Group 7735" transform="translate(22314.176 9532.916)" opacity="0.8">
      <path id="Stroke_4" data-name="Stroke 4" d="M.5,13.5C.5,3.376,3.376.5,13.5.5s13,2.876,13,13-2.876,13-13,13S.5,23.624.5,13.5Z" transform="translate(-20826.438 -2274.226)" fill="#ff4f17" stroke="#ff4f17" stroke-linecap="round" stroke-linejoin="round" stroke-miterlimit="10" stroke-width="1.5"/>
    </g>
    <path id="icons8_resume" d="M7,2V18.037H19.55V2Zm3.293,4.508a3.538,3.538,0,0,0,0-.361.668.668,0,0,1-.266-.41.315.315,0,0,1-.15-.281.287.287,0,0,1,.075-.193c-.147-.568-.083-1.158.677-1.171a.444.444,0,0,1,.389.192c.528,0,.391.737.312.979a.347.347,0,0,1,.065.221.335.335,0,0,1-.15.253.59.59,0,0,1-.256.409,3.218,3.218,0,0,0,0,.362c.15.4,1.153.29,1.2,1.07h-3.1C9.138,6.8,10.142,6.912,10.293,6.508ZM14.321,14.9H9.44a.349.349,0,0,1,0-.7h4.881a.349.349,0,1,1,0,.7Zm-5.229-2.44a.348.348,0,0,1,.349-.349h3.835a.349.349,0,0,1,0,.7H9.44A.348.348,0,0,1,9.092,12.459Zm5.229-1.743H9.44a.349.349,0,0,1,0-.7h4.881a.349.349,0,1,1,0,.7ZM17.11,14.9H16.064a.349.349,0,0,1,0-.7H17.11a.349.349,0,0,1,0,.7Zm0-2.092H16.064a.349.349,0,0,1,0-.7H17.11a.349.349,0,0,1,0,.7Zm0-2.092H16.064a.349.349,0,0,1,0-.7H17.11a.349.349,0,0,1,0,.7Zm0-3.486H14.321a.349.349,0,0,1,0-.7H17.11a.349.349,0,0,1,0,.7Zm0-1.743H14.321a.349.349,0,0,1,0-.7H17.11a.349.349,0,0,1,0,.7Z" transform="translate(1487.963 7262.172)" fill="#fff"/>
  </g>
</svg>
