<svg xmlns="http://www.w3.org/2000/svg" width="351.557" height="376.557" viewBox="0 0 351.557 376.557">
  <path id="Path_814" data-name="Path 814" d="M447.757,281.485c-8.474-39.359-22.8-69.524-47.064-104.894-9.295-14.583-21.323-29.161-36.091-45.426-11.876-13.292-25.894-27.679-42.584-43.7-2.064-2.016-4.65-4.545-6.4-6.317-2.989-3.042-4.167-.509-4.167-.509l-3.477,6.339-.248.434c-19.119,35.331-22.421,37.578-15.856,42.622-96.23,44.3-106.076,174.97-102.8,191.23-19.336,7.387-63.814,7.931-79.009,7.9a5.215,5.215,0,0,0-5.215,5.215v73.391a5.215,5.215,0,0,0,5.51,5.184c72.179-4.384,105.5-19.553,127.368-28.3,31.72-12.336,25.7-11.771,54.138,0,4.918,2.246,10.385,4.489,15.855,7.292a169.729,169.729,0,0,1,56.866,40.937c1.465,1.5,2.929,3.45,4.4,5.049L377.8,448.5a4.829,4.829,0,0,0,7.431,0l8.824-10.594c2.526-3.116,4.641-5.732,6.653-8.408,44.674-59.461,49.193-106.732,49.224-113.072C449.929,310.007,450.572,294.564,447.757,281.485ZM219.7,251.733c1.095-7.852,8.2-17.946,18.594-29.157,15.86-17.381,41.558-39.82,54.68-20.753,7.656,6.727,12.032,16.26,14.774,25.234,4.923,19.632,2.172,38.134,2.733,37.578a9.621,9.621,0,0,0-2.733,2.238C277.11,288.745,215.867,291.548,219.7,251.733ZM404.52,334.167a31.86,31.86,0,0,0-3.827,2.242c-7.657,3.368-21.323,1.686-36.091-2.242a347.128,347.128,0,0,1-45.383-17.941c-6.561-2.807-10.393-5.049-11.484-7.292-1.095-1.682-1.095-3.368,0-5.609,3.281-7.848,18.046-21.293,28.983-52.713,1.095-3.363,4.919-16.26,4.919-28.036,0-12.341,1.095-28.044,10.942-8.416,1.09,3.367,6.009,10.655,12.023,20.752,11.488,19.063,27.344,45.982,36.091,66.735C407.8,318.463,411.082,331.363,404.52,334.167Z" transform="translate(-96.976 -81.471) rotate(1)" fill="#2d2c2c" opacity="0.1"/>
</svg>
