<svg xmlns="http://www.w3.org/2000/svg" width="15.697" height="17.107" viewBox="0 0 15.697 17.107">
  <path id="Path_1091" data-name="Path 1091" d="M752.264,412.813h-.5a.3.3,0,0,0-.122.026v-1.667a1,1,0,0,0-2.006,0v1.647a.331.331,0,0,0-.055-.006H742.7a.287.287,0,0,0-.076.011v-1.652a1,1,0,0,0-2.006,0v1.66a.291.291,0,0,0-.1-.019h-.5a1.73,1.73,0,0,0-1.728,1.728v11.007a1.73,1.73,0,0,0,1.728,1.728h12.241a1.73,1.73,0,0,0,1.728-1.728V414.541A1.731,1.731,0,0,0,752.264,412.813Zm-2.063-1.641a.441.441,0,0,1,.882,0v3.018a.441.441,0,1,1-.882,0Zm-9.016,0a.441.441,0,0,1,.882,0v3.018a.441.441,0,1,1-.882,0Zm12.2,14.376a1.12,1.12,0,0,1-1.119,1.118H740.023a1.12,1.12,0,0,1-1.118-1.118V414.541a1.12,1.12,0,0,1,1.118-1.119h.194v.6a1.4,1.4,0,1,0,2.791,0v-.6h6.271v.6a1.4,1.4,0,0,0,2.792,0v-.6h.193a1.12,1.12,0,0,1,1.119,1.119Z" transform="translate(-738.295 -410.17)" fill="#fba303"/>
</svg>
