<svg xmlns="http://www.w3.org/2000/svg" width="191.54" height="192.5" viewBox="0 0 191.54 192.5">
  <g id="Group_2366" data-name="Group 2366" transform="translate(-91.5 -285.5)">
    <path id="Fill_3" data-name="Fill 3" d="M7.043,39.514a3.477,3.477,0,0,1-3.48,3.48H3.512A3.514,3.514,0,0,1,0,39.473V28.784C0,11.016,11.094,0,28.789,0H63.281C81.054,0,92.065,11.016,92.065,28.8V63.322c0,17.732-11.011,28.743-28.784,28.743H28.743C11.011,92.065,0,81.054,0,63.309a3.521,3.521,0,0,1,7.043,0c0,13.966,7.692,21.7,21.741,21.7H63.281c14.008,0,21.741-7.692,21.741-21.7V28.784c0-14.008-7.687-21.741-21.741-21.741h-34.5c-14.008,0-21.741,7.733-21.741,21.741v10.73Z" transform="translate(147.506 338)" fill="#474546" stroke="#fff" stroke-width="5"/>
    <rect id="Search_Field" data-name="Search Field" width="70.52" height="69.196" rx="18" transform="translate(158.279 349.435)" fill="#474546" stroke="#fff" stroke-width="1" opacity="0.03"/>
    <rect id="Search_Field-2" data-name="Search Field" width="20.079" height="19" rx="7" transform="translate(107.961 383.5)" fill="#474546" stroke="#fff" stroke-width="1"/>
    <rect id="Search_Field-3" data-name="Search Field" width="20.079" height="19" rx="7" transform="translate(138.961 286)" fill="#474546" stroke="#fff" stroke-width="1"/>
    <rect id="Search_Field-4" data-name="Search Field" width="9.079" height="9" rx="3" transform="translate(128.039 425.5)" fill="#474546" stroke="#fff" stroke-width="1"/>
    <rect id="Search_Field-5" data-name="Search Field" width="9.079" height="9" rx="3" transform="translate(235.461 457.5)" fill="#474546" stroke="#fff" stroke-width="1"/>
    <rect id="Search_Field-6" data-name="Search Field" width="9.079" height="9" rx="3" transform="translate(250.461 306.5)" fill="#474546" stroke="#fff" stroke-width="1"/>
    <rect id="Search_Field-7" data-name="Search Field" width="9.079" height="9" rx="3" transform="translate(273.461 393)" fill="#474546" stroke="#fff" stroke-width="1"/>
    <rect id="Search_Field-8" data-name="Search Field" width="9.079" height="9" rx="3" transform="translate(172.461 323)" fill="#474546" stroke="#fff" stroke-width="1"/>
    <rect id="Search_Field-9" data-name="Search Field" width="5.079" height="5" rx="2.5" transform="translate(98.039 420.5)" fill="#474546" stroke="#fff" stroke-width="1"/>
    <rect id="Search_Field-10" data-name="Search Field" width="5.079" height="5" rx="2.5" transform="translate(242 422.5)" fill="#474546" stroke="#fff" stroke-width="1"/>
    <rect id="Search_Field-11" data-name="Search Field" width="5.079" height="5" rx="2.5" transform="translate(272 352.5)" fill="#474546" stroke="#fff" stroke-width="1"/>
    <rect id="Search_Field-12" data-name="Search Field" width="5.079" height="5" rx="2.5" transform="translate(92 342.5)" fill="#474546" stroke="#fff" stroke-width="1"/>
    <rect id="Search_Field-13" data-name="Search Field" width="5.079" height="5" rx="2.5" transform="translate(172 472.5)" fill="#474546" stroke="#fff" stroke-width="1"/>
    <rect id="Search_Field-14" data-name="Search Field" width="5.079" height="5" rx="2.5" transform="translate(202 302.5)" fill="#474546" stroke="#fff" stroke-width="1"/>
    <path id="Path_34201" d="M20.727,13.331H13.448v7.216a2.122,2.122,0,0,1-4.244,0V13.331H1.924a2.125,2.125,0,0,1,0-4.23H9.181V1.907a2.147,2.147,0,0,1,4.267,0V9.1h7.279a2.125,2.125,0,0,1,0,4.23Z" transform="translate(182.4 373.988)" fill="#474546"/>
  </g>
</svg>
