<svg xmlns="http://www.w3.org/2000/svg" width="191.54" height="192.5" viewBox="0 0 191.54 192.5">
  <g id="Group_2164" data-name="Group 2164" transform="translate(-85.461 -298.5)">
    <rect id="Search_Field" data-name="Search Field" width="70.52" height="69.196" rx="18" transform="translate(155.24 358.435)" fill="#474546" stroke="#fff" stroke-width="1" opacity="0.03"/>
    <path id="Fill_3" data-name="Fill 3" d="M7.043,39.514a3.477,3.477,0,0,1-3.48,3.48H3.512A3.514,3.514,0,0,1,0,39.473V28.784C0,11.016,11.094,0,28.789,0H63.281C81.054,0,92.065,11.016,92.065,28.8V63.322c0,17.732-11.011,28.743-28.784,28.743H28.743C11.011,92.065,0,81.054,0,63.309a3.521,3.521,0,0,1,7.043,0c0,13.966,7.692,21.7,21.741,21.7H63.281c14.008,0,21.741-7.692,21.741-21.7V28.784c0-14.008-7.687-21.741-21.741-21.741h-34.5c-14.008,0-21.741,7.733-21.741,21.741v10.73Z" transform="translate(141.467 351)" fill="#474546" stroke="#fff" stroke-width="5"/>
    <rect id="Search_Field-2" data-name="Search Field" width="5.079" height="5" rx="2.5" transform="translate(235.961 435.5)" fill="#474546" stroke="#fff" stroke-width="1"/>
    <rect id="Search_Field-3" data-name="Search Field" width="20.079" height="19" rx="7" transform="translate(101.922 396.5)" fill="#474546" stroke="#fff" stroke-width="1"/>
    <rect id="Search_Field-4" data-name="Search Field" width="20.079" height="19" rx="7" transform="translate(132.922 299)" fill="#474546" stroke="#fff" stroke-width="1"/>
    <rect id="Search_Field-5" data-name="Search Field" width="9.079" height="9" rx="3" transform="translate(122 440.5)" fill="#474546" stroke="#fff" stroke-width="1"/>
    <rect id="Search_Field-6" data-name="Search Field" width="9.079" height="9" rx="3" transform="translate(229.422 470.5)" fill="#474546" stroke="#fff" stroke-width="1"/>
    <rect id="Search_Field-7" data-name="Search Field" width="9.079" height="9" rx="3" transform="translate(244.422 319.5)" fill="#474546" stroke="#fff" stroke-width="1"/>
    <rect id="Search_Field-8" data-name="Search Field" width="9.079" height="9" rx="3" transform="translate(267.422 406)" fill="#474546" stroke="#fff" stroke-width="1"/>
    <rect id="Search_Field-9" data-name="Search Field" width="9.079" height="9" rx="3" transform="translate(166.422 336)" fill="#474546" stroke="#fff" stroke-width="1"/>
    <rect id="Search_Field-10" data-name="Search Field" width="5.079" height="5" rx="2.5" transform="translate(92 435.5)" fill="#474546" stroke="#fff" stroke-width="1"/>
    <rect id="Search_Field-11" data-name="Search Field" width="5.079" height="5" rx="2.5" transform="translate(265.961 365.5)" fill="#474546" stroke="#fff" stroke-width="1"/>
    <rect id="Search_Field-12" data-name="Search Field" width="5.079" height="5" rx="2.5" transform="translate(85.961 355.5)" fill="#474546" stroke="#fff" stroke-width="1"/>
    <rect id="Search_Field-13" data-name="Search Field" width="5.079" height="5" rx="2.5" transform="translate(135.961 365.5)" fill="#474546" stroke="#fff" stroke-width="1"/>
    <rect id="Search_Field-14" data-name="Search Field" width="5.079" height="5" rx="2.5" transform="translate(165.961 485.5)" fill="#474546" stroke="#fff" stroke-width="1"/>
    <rect id="Search_Field-15" data-name="Search Field" width="5.079" height="5" rx="2.5" transform="translate(195.961 315.5)" fill="#474546" stroke="#fff" stroke-width="1"/>
    <path id="Fill_3-2" data-name="Fill 3" d="M22.459,0H8.88C3.571,0,0,3.728,0,9.272v12.8c0,5.529,3.571,9.256,8.88,9.256H22.459c5.309,0,8.865-3.728,8.865-9.256V9.272C31.324,3.728,27.769,0,22.459,0" transform="translate(171.838 381.088)" fill="none" stroke="#474546" stroke-width="1.5"/>
    <path id="Fill_1" data-name="Fill 1" d="M7.322,13.922a1.184,1.184,0,0,1-.6-.164L.572,10.09A1.18,1.18,0,0,1,0,9.079v-7.9a1.175,1.175,0,1,1,2.349,0V8.412l5.576,3.325a1.175,1.175,0,0,1-.6,2.185" transform="translate(185.775 388.802)" fill="#474546"/>
  </g>
</svg>
