<svg xmlns="http://www.w3.org/2000/svg" width="19.28" height="15.611" viewBox="0 0 19.28 15.611">
  <g id="Group_2931" data-name="Group 2931" transform="translate(-867.694 -224.252)">
    <path id="Path_1099" data-name="Path 1099" d="M878.379,224.252H868a.326.326,0,0,0-.306.335v12.658a.326.326,0,0,0,.306.335h7.666v1.928c0,.232.268.446.46.289l.648-.528.477-.388c.041-.033.1-.07.151-.1a.57.57,0,0,1,.083.065,5.918,5.918,0,0,0,.46.378l.706.579a.227.227,0,0,0,.344-.031.314.314,0,0,0,.116-.258v-1.928h7.556a.271.271,0,0,0,.207-.089l.011-.012.005-.006a.325.325,0,0,0,.083-.229V224.587a.326.326,0,0,0-.306-.335h-8.289Zm-2.713,12.658h-7.36V224.922h7.36Zm2.834,1.931-.952-.78a.272.272,0,0,0-.309,0l-.962.783V224.922H878.5Zm.612-13.92h7.249V236.91h-7.249Z" fill="#fba303"/>
    <path id="Path_1100" data-name="Path 1100" d="M871.187,230.85h4.324c.262,0,.263-.447,0-.447h-4.324C870.925,230.4,870.924,230.85,871.187,230.85Z" transform="translate(-1.49 -2.781)" fill="#fba303"/>
    <path id="Path_1101" data-name="Path 1101" d="M871.187,234.278h4.324c.262,0,.263-.447,0-.447h-4.324C870.925,233.831,870.924,234.278,871.187,234.278Z" transform="translate(-1.49 -4.33)" fill="#fba303"/>
    <path id="Path_1102" data-name="Path 1102" d="M871.187,237.705h4.324c.262,0,.263-.447,0-.447h-4.324C870.925,237.258,870.924,237.705,871.187,237.705Z" transform="translate(-1.49 -5.88)" fill="#fba303"/>
    <path id="Path_1103" data-name="Path 1103" d="M871.187,241.133h4.324c.262,0,.263-.447,0-.447h-4.324C870.925,240.686,870.924,241.133,871.187,241.133Z" transform="translate(-1.49 -7.429)" fill="#fba303"/>
    <path id="Path_1104" data-name="Path 1104" d="M895.538,230.4h-4.324c-.262,0-.263.447,0,.447h4.324C895.8,230.85,895.8,230.4,895.538,230.4Z" transform="translate(-10.543 -2.781)" fill="#fba303"/>
    <path id="Path_1105" data-name="Path 1105" d="M895.538,233.831h-4.324c-.262,0-.263.447,0,.447h4.324C895.8,234.278,895.8,233.831,895.538,233.831Z" transform="translate(-10.543 -4.33)" fill="#fba303"/>
    <path id="Path_1106" data-name="Path 1106" d="M895.538,237.258h-4.324c-.262,0-.263.447,0,.447h4.324C895.8,237.705,895.8,237.258,895.538,237.258Z" transform="translate(-10.543 -5.88)" fill="#fba303"/>
    <path id="Path_1107" data-name="Path 1107" d="M895.538,240.686h-4.324c-.262,0-.263.447,0,.447h4.324C895.8,241.133,895.8,240.686,895.538,240.686Z" transform="translate(-10.543 -7.429)" fill="#fba303"/>
  </g>
</svg>
