<svg xmlns="http://www.w3.org/2000/svg" width="17.825" height="17.825" viewBox="0 0 17.825 17.825">
  <g id="Group_1162" data-name="Group 1162" transform="translate(-1632.796 -1276.783)">
    <g id="Iconly_Bold_Download" data-name="Iconly/Bold/Download" transform="translate(1632.796 1276.783)">
      <g id="Download" transform="translate(1.485 1.857)">
        <path id="Download-2" data-name="Download" d="M6.855,3.558V.58A.571.571,0,0,1,7.994.5L8,.58V3.558h3.55a3.362,3.362,0,0,1,3.3,3.253l0,.16v3.743a3.364,3.364,0,0,1-3.143,3.394l-.155,0H3.3A3.35,3.35,0,0,1,0,10.86L0,10.7V6.964a3.366,3.366,0,0,1,3.136-3.4l.154,0H6.855V8.314L5.667,7.086a.561.561,0,0,0-.81,0,.62.62,0,0,0-.06.763l.06.073,2.161,2.24a.554.554,0,0,0,.754.053l.055-.053L9.99,7.922a.606.606,0,0,0,0-.836.561.561,0,0,0-.746-.057l-.064.057L8,8.314V3.558Z" fill="#fff"/>
      </g>
    </g>
  </g>
</svg>
