<svg xmlns="http://www.w3.org/2000/svg" width="25.5" height="25.5" viewBox="0 0 25.5 25.5">
  <g id="Group_1162" data-name="Group 1162" transform="translate(-1676.791 -1274.52)">
    <g id="Iconly_Curved_More_Circle" data-name="Iconly/Curved/More Circle" transform="translate(1677.541 1275.27)">
      <g id="More_Circle" data-name="More Circle">
        <path id="Stroke_4" data-name="Stroke 4" d="M0,12C0,3,3,0,12,0S24,3,24,12,21,24,12,24,0,21,0,12Z" transform="translate(0 0)" fill="#db143d" stroke="#db143d" stroke-linecap="round" stroke-linejoin="round" stroke-miterlimit="10" stroke-width="1.5"/>
      </g>
    </g>
    <g id="Iconly_Bold_Download" data-name="Iconly/Bold/Download" transform="translate(1681.418 1278.471)">
      <g id="Download" transform="translate(1.354 1.692)">
        <path id="Download-2" data-name="Download" d="M6.247,3.242V.529A.521.521,0,0,1,7.285.458l0,.071V3.242h3.235a3.064,3.064,0,0,1,3.009,2.964l0,.146V9.764a3.066,3.066,0,0,1-2.864,3.093l-.141,0H3.005A3.053,3.053,0,0,1,0,9.9L0,9.75v-3.4a3.067,3.067,0,0,1,2.858-3.1l.141,0H6.247V7.576L5.164,6.458a.511.511,0,0,0-.738,0,.565.565,0,0,0-.054.7l.054.067L6.4,9.261a.5.5,0,0,0,.687.048l.051-.048L9.1,7.22a.553.553,0,0,0,0-.762.511.511,0,0,0-.679-.052l-.058.052L7.29,7.576V3.243Z" fill="#f5f6fa"/>
      </g>
    </g>
  </g>
</svg>
