<svg xmlns="http://www.w3.org/2000/svg" width="12.095" height="10.749" viewBox="0 0 12.095 10.749">
  <path id="Icon_awesome-edit" data-name="Icon awesome-edit" d="M8.454,1.752l1.894,1.894a.205.205,0,0,1,0,.29L5.762,8.522l-1.949.216a.408.408,0,0,1-.451-.451l.216-1.949L8.164,1.752A.205.205,0,0,1,8.454,1.752Zm3.4-.481L10.831.246a.821.821,0,0,0-1.159,0L8.928.99a.205.205,0,0,0,0,.29l1.894,1.894a.205.205,0,0,0,.29,0l.743-.743a.821.821,0,0,0,0-1.159Zm-3.792,6V9.412H1.344V2.693H6.169a.258.258,0,0,0,.178-.073l.84-.84a.252.252,0,0,0-.178-.43h-6A1.008,1.008,0,0,0,0,2.357V9.748a1.008,1.008,0,0,0,1.008,1.008H8.4A1.008,1.008,0,0,0,9.407,9.748V6.434a.252.252,0,0,0-.43-.178l-.84.84A.258.258,0,0,0,8.063,7.274Z" transform="translate(0 -0.007)" fill="#ffb52d"/>
</svg>
