<svg xmlns="http://www.w3.org/2000/svg" width="19.674" height="11.435" viewBox="0 0 19.674 11.435">
  <g id="Group_2942" data-name="Group 2942" transform="translate(-734.023 -92.162)">
    <path id="Path_1113" data-name="Path 1113" d="M736.721,98.342a.8.8,0,0,0-.468,1.259l-.332,1.967a.29.29,0,0,0,.286.338h1.36a.29.29,0,0,0,.287-.329l-.284-2.051a.792.792,0,0,0-.27-1.084V97.378l1.792.777V102.6a1,1,0,0,0,.994.995h8.175a1,1,0,0,0,.994-.995V97.883l4.267-1.851a.29.29,0,0,0-.021-.54l-9.706-3.313a.287.287,0,0,0-.2,0c-3.323,1.258-8.78,3.265-9.287,3.295a.29.29,0,0,0-.113.556l2.523,1.094Zm-.171,2.984.3-1.77a.29.29,0,0,0-.1-.271.216.216,0,1,1,.354-.166.214.214,0,0,1-.054.142.289.289,0,0,0-.068.23l.253,1.835Zm12.125,1.276a.415.415,0,0,1-.414.415h-8.175a.415.415,0,0,1-.415-.415v-4.2l4.073,1.768a.289.289,0,0,0,.231,0l4.7-2.039Zm-13.482-6.771c2.1-.654,7.138-2.551,8.513-3.071l8.9,3.038-8.744,3.793-5.774-2.5,4.875-.644a1.756,1.756,0,0,0,.9.212c.672,0,1.179-.268,1.179-.623s-.507-.622-1.179-.622c-.58,0-1.036.2-1.15.482l-5.658.746Zm7.778.2c0-.136.347-.332.889-.332s.889.2.889.332-.347.332-.889.332S742.971,96.168,742.971,96.033Z" transform="translate(0 0)" fill="#fba303"/>
  </g>
</svg>
