<svg xmlns="http://www.w3.org/2000/svg" width="12.863" height="14.018" viewBox="0 0 12.863 14.018">
  <g id="Group_2981" data-name="Group 2981" transform="translate(-738.295 -410.17)">
    <path id="Path_1154" data-name="Path 1154" d="M749.742,412.336h-.408a.249.249,0,0,0-.1.021v-1.366a.822.822,0,0,0-1.643,0v1.349a.271.271,0,0,0-.045,0h-5.637a.234.234,0,0,0-.062.009v-1.354a.822.822,0,0,0-1.643,0v1.36a.239.239,0,0,0-.083-.016h-.408a1.418,1.418,0,0,0-1.416,1.416v9.02a1.418,1.418,0,0,0,1.416,1.416h10.031a1.418,1.418,0,0,0,1.416-1.416v-9.02A1.418,1.418,0,0,0,749.742,412.336Zm-1.691-1.345a.361.361,0,1,1,.722,0v2.473a.361.361,0,1,1-.722,0Zm-7.388,0a.361.361,0,1,1,.722,0v2.473a.361.361,0,1,1-.722,0Zm10,11.781a.918.918,0,0,1-.917.916H739.711a.918.918,0,0,1-.916-.916v-9.02a.918.918,0,0,1,.916-.917h.159v.489a1.144,1.144,0,1,0,2.287,0v-.489H747.3v.489a1.144,1.144,0,0,0,2.288,0v-.489h.158a.918.918,0,0,1,.917.917Z" transform="translate(0 0)" fill="#fba303"/>
    <path id="Path_1155" data-name="Path 1155" d="M751.742,426.17H741.373a.25.25,0,0,0-.25.25v6.128a.86.86,0,0,0,.86.859h9.15a.86.86,0,0,0,.859-.859V426.42A.249.249,0,0,0,751.742,426.17Zm-.25,6.378a.36.36,0,0,1-.359.359h-9.15a.36.36,0,0,1-.36-.359v-5.878h9.87Z" transform="translate(-1.81 -10.238)" fill="#fba303"/>
  </g>
</svg>
