<svg xmlns="http://www.w3.org/2000/svg" width="22.182" height="15.179" viewBox="0 0 22.182 15.179">
  <g id="Group_2926" data-name="Group 2926" transform="translate(-929.672 -545.672)">
    <path id="Path_1094" data-name="Path 1094" d="M951.559,551.062l-2.671-.614v-4.394a.381.381,0,0,0-.381-.381H930.053a.381.381,0,0,0-.381.381v9.911a.381.381,0,0,0,.381.381h1.61l-.009.041a.381.381,0,0,0,.286.457l.2.046,17.2,3.955a.362.362,0,0,0,.424-.279l1.716-7.454.367-1.593a.381.381,0,0,0-.286-.457Zm-2.671,2.8.009,0-.009.04Zm-7.044,2.977a2.845,2.845,0,0,0,1.515-.437c.029-.018.054-.038.082-.057h4.886l-.186.809c-.059-.006-.117-.009-.175-.01a2.073,2.073,0,0,0-1.832,1.058,2.255,2.255,0,0,0-.137.3l-9.359-2.154h3.6c.073.049.147.095.223.136.057.032.116.062.175.09a2.809,2.809,0,0,0,.565.194A2.86,2.86,0,0,0,941.844,556.839Zm-.444-.494h.889A2.417,2.417,0,0,1,941.4,556.345Zm-10.965-.762v-9.149h17.692v9.149Zm18.674,4.43-15.935-3.667h2.4a.177.177,0,0,0,.135.15l10.37,2.387a.162.162,0,0,0,.04.005.178.178,0,0,0,.171-.13,1.721,1.721,0,0,1,1.636-1.257,1.789,1.789,0,0,1,.326.027.177.177,0,0,0,.2-.135l.254-1.1a.387.387,0,0,0,.075-.06.377.377,0,0,0,.109-.265v-.473l.392-1.7a.177.177,0,0,0-.125-.211,1.711,1.711,0,0,1-.267-.1v-2.247l2.129.49Z" fill="#fba303"/>
    <path id="Path_1095" data-name="Path 1095" d="M948.342,549.863a1.81,1.81,0,0,1-1.69-1.754.187.187,0,0,0-.187-.177H935.446a.187.187,0,0,0-.187.177,1.81,1.81,0,0,1-1.69,1.754.187.187,0,0,0-.177.187V554a.186.186,0,0,0,.177.186,1.812,1.812,0,0,1,1.69,1.755.188.188,0,0,0,.187.178h11.018a.188.188,0,0,0,.187-.178,1.812,1.812,0,0,1,1.69-1.755.187.187,0,0,0,.177-.186V550.05A.187.187,0,0,0,948.342,549.863Zm-.2,3.969a2.183,2.183,0,0,0-1.852,1.915H935.618a2.183,2.183,0,0,0-1.852-1.915V550.22a2.183,2.183,0,0,0,1.852-1.915h10.675a2.183,2.183,0,0,0,1.852,1.915Z" transform="translate(-1.676 -1.018)" fill="#fba303"/>
    <path id="Path_1096" data-name="Path 1096" d="M944.891,549.816a3.06,3.06,0,1,0,2.971,3.059A3.019,3.019,0,0,0,944.891,549.816Zm0,5.644a2.587,2.587,0,1,1,2.5-2.585A2.545,2.545,0,0,1,944.891,555.46Z" transform="translate(-5.517 -1.867)" fill="#fba303"/>
  </g>
</svg>
