<svg xmlns="http://www.w3.org/2000/svg" width="30.499" height="30.499" viewBox="0 0 30.499 30.499">
  <g id="Group_2366"  transform="translate(-1057.251 -213.25)">
    <g id="Group_2034"  transform="translate(0 3.5)">
      <g id="Group_1807"  transform="translate(1058.001 210.5)">
        <path id="Stroke_4"  d="M0,14.5C0,3.626,3.626,0,14.5,0S29,3.626,29,14.5,25.373,29,14.5,29,0,25.373,0,14.5Z" transform="translate(0 0)" fill="#acacac" stroke="#acacac" stroke-linecap="round" stroke-linejoin="round" stroke-miterlimit="10" stroke-width="1.5"/>
      </g>
    </g>
    <g id="invoice_2_"  transform="translate(1016.348 220.071)">
      <g id="Group_852"  transform="translate(50.526)">
        <path id="Path_114"  d="M61.41.38a.619.619,0,0,0-.673.1l-.97.859a.069.069,0,0,1-.092,0L58.355.16a.628.628,0,0,0-.839,0L56.2,1.339a.07.07,0,0,1-.093,0L54.787.16a.628.628,0,0,0-.839,0l-1.32,1.18a.07.07,0,0,1-.093,0L51.565.482a.624.624,0,0,0-1.039.471V13.829a.625.625,0,0,0,1.04.471l.97-.859a.069.069,0,0,1,.092,0l1.319,1.18a.628.628,0,0,0,.839,0l1.318-1.179a.07.07,0,0,1,.093,0l1.318,1.179a.628.628,0,0,0,.839,0l1.32-1.18a.07.07,0,0,1,.093,0l.971.859a.624.624,0,0,0,1.038-.471V.953A.619.619,0,0,0,61.41.38ZM52.84,5.015h3.48a.28.28,0,1,1,0,.559H52.84a.28.28,0,0,1,0-.559Zm6.624,4.752H52.84a.28.28,0,0,1,0-.559h6.624a.28.28,0,0,1,0,.559Zm0-2.1H52.84a.28.28,0,0,1,0-.559h6.624a.28.28,0,0,1,0,.559Z" transform="translate(-50.526 1.038)" fill="#fff"/>
      </g>
    </g>
  </g>
</svg>
