<svg xmlns="http://www.w3.org/2000/svg" width="12.402" height="13.255" viewBox="0 0 12.402 13.255">
  <g id="Group_2934" data-name="Group 2934" transform="translate(-805.029 -671.715)">
    <path id="Path_1108" data-name="Path 1108" d="M816.537,679.129a4.526,4.526,0,0,0-3.344-.825,3.608,3.608,0,1,0-4.2-.1,3.423,3.423,0,0,0-3.957,2.318.289.289,0,0,0-.011.076v4.1a.274.274,0,0,0,.274.274h11.854a.274.274,0,0,0,.274-.274v-3.9c0-.005,0-.01,0-.016A2.532,2.532,0,0,0,816.537,679.129Zm-8.465-3.807a3.093,3.093,0,1,1,3.107,3.092h-.03A3.1,3.1,0,0,1,808.073,675.323Zm3.038,4.191h.264l.392.808-.535,1.04-.4-.785Zm-.325-.55a.184.184,0,0,1,.184-.184h.52a.184.184,0,0,1,0,.368h-.52A.185.185,0,0,1,810.786,678.964Zm.963.482a.547.547,0,0,0,.291-.482.538.538,0,0,0-.019-.137,3.544,3.544,0,0,0,.627-.217l-.671,1.3Zm-1,.019-.163.622-.71-1.4a3.506,3.506,0,0,0,.559.165.547.547,0,0,0,.315.61Zm6.136,4.956H805.577v-3.784c.686-2.288,3.155-1.952,3.736-1.839l1.673,3.29a.274.274,0,0,0,.244.15h0a.274.274,0,0,0,.244-.149l1.662-3.232a4.1,4.1,0,0,1,3.035.679,1.986,1.986,0,0,1,.712,1.267Z" transform="translate(0)" fill="#fba303"/>
  </g>
</svg>
