<svg xmlns="http://www.w3.org/2000/svg" width="23.22" height="48.065" viewBox="0 0 23.22 48.065">
  <g id="Group_1764" data-name="Group 1764" transform="translate(-7 8.271)">
    <g id="Iconly_Bulk_Bookmark" data-name="Iconly/Bulk/Bookmark" transform="translate(7)">
      <g id="Bookmark" transform="translate(0)">
        <path id="Bookmark_2" data-name="Bookmark 2" d="M22.9-.289C2.7-.776,0-.289,0-.289S-.01,27.652,0,28.674L22.9,17.619Z" transform="translate(0.004 -7.766)" fill="#fcc155" opacity="0.995"/>
        <path id="Bookmark-2" data-name="Bookmark" d="M16.064,26.122H7.1c-3.917,0-7.1-1.547-7.1-5.5V12.032c0-1.044.589-1.689,2.138-2.411L21.005.2A1.467,1.467,0,0,1,23.04.79a1.53,1.53,0,0,1,.179.709V20.617C23.181,24.575,19.994,26.122,16.064,26.122Z" transform="translate(0 13.672)"/>
        <g id="Star" transform="translate(5.451 -1.715)">
          <path id="Star-2" data-name="Star" d="M9.55,7.091a.66.66,0,0,0-.191.582l.533,2.952a.648.648,0,0,1-.27.648.66.66,0,0,1-.7.048L6.263,9.935a.678.678,0,0,0-.3-.079H5.8a.487.487,0,0,0-.162.054L2.981,11.3a.7.7,0,0,1-.426.066.667.667,0,0,1-.534-.762l.534-2.952a.671.671,0,0,0-.191-.587L.2,4.967a.648.648,0,0,1-.161-.678.674.674,0,0,1,.533-.45l2.982-.433a.667.667,0,0,0,.528-.365L5.393.348a.624.624,0,0,1,.12-.162L5.567.144a.4.4,0,0,1,.1-.078L5.729.042,5.831,0h.253a.671.671,0,0,1,.528.36L7.942,3.042a.667.667,0,0,0,.5.365l2.982.433a.68.68,0,0,1,.546.45.652.652,0,0,1-.174.678Z" transform="translate(0)" fill="#2d2c2c"/>
        </g>
      </g>
    </g>
    <g id="Iconly_Light-Outline_Document" data-name="Iconly/Light-Outline/Document" transform="translate(13.032 23.208)">
      <g id="Document">
        <path id="Combined_Shape" data-name="Combined Shape" d="M0,8.792V3.236A3,3,0,0,1,3.151,0L7.8,0a3.036,3.036,0,0,1,3.176,3.236V8.792a3.006,3.006,0,0,1-3.151,3.236H3.176A3.036,3.036,0,0,1,0,8.792ZM3.154.909A2.111,2.111,0,0,0,.906,3.236V8.792a2.114,2.114,0,0,0,2.269,2.331l4.646,0a2.11,2.11,0,0,0,2.247-2.328V3.236A2.113,2.113,0,0,0,7.8.906Zm.167,8.138a.453.453,0,1,1,0-.906H7.682a.453.453,0,1,1,0,.906Zm0-2.53a.453.453,0,1,1,0-.906H7.682a.453.453,0,1,1,0,.906Zm3-2.523a.453.453,0,1,1,0-.906H7.985a.453.453,0,1,1,0,.906Z" fill="#fff"/>
      </g>
    </g>
  </g>
</svg>
