<svg xmlns="http://www.w3.org/2000/svg" xmlns:xlink="http://www.w3.org/1999/xlink" width="95.832" height="17.032" viewBox="0 0 95.832 17.032">
  <defs>
    <linearGradient id="linear-gradient" x1="0.908" y1="1.032" x2="-0.383" y2="0.36" gradientUnits="objectBoundingBox">
      <stop offset="0" stop-color="#00a0ff"/>
      <stop offset="0.007" stop-color="#00a1ff"/>
      <stop offset="0.26" stop-color="#00beff"/>
      <stop offset="0.512" stop-color="#00d2ff"/>
      <stop offset="0.76" stop-color="#00dfff"/>
      <stop offset="1" stop-color="#00e3ff"/>
    </linearGradient>
    <linearGradient id="linear-gradient-2" x1="1.077" y1="0.729" x2="-1.307" y2="0.729" gradientUnits="objectBoundingBox">
      <stop offset="0" stop-color="#ffe000"/>
      <stop offset="0.409" stop-color="#ffbd00"/>
      <stop offset="0.775" stop-color="orange"/>
      <stop offset="1" stop-color="#ff9c00"/>
    </linearGradient>
    <linearGradient id="linear-gradient-3" x1="0.864" y1="-0.023" x2="-0.499" y2="-1.789" gradientUnits="objectBoundingBox">
      <stop offset="0" stop-color="#ff3a44"/>
      <stop offset="1" stop-color="#c31162"/>
    </linearGradient>
    <linearGradient id="linear-gradient-4" x1="-0.186" y1="2.701" x2="0.423" y2="1.909" gradientUnits="objectBoundingBox">
      <stop offset="0" stop-color="#32a071"/>
      <stop offset="0.069" stop-color="#2da771"/>
      <stop offset="0.476" stop-color="#15cf74"/>
      <stop offset="0.801" stop-color="#06e775"/>
      <stop offset="1" stop-color="#00f076"/>
    </linearGradient>
  </defs>
  <g id="Group_2457" data-name="Group 2457" transform="translate(-1002 -463.84)">
    <path id="Path_829" data-name="Path 829" d="M65.179,21.292a3.752,3.752,0,0,0-3.835,3.835,3.806,3.806,0,0,0,3.835,3.835,3.752,3.752,0,0,0,3.835-3.835A3.7,3.7,0,0,0,65.179,21.292Zm0,6.064a2.326,2.326,0,0,1,0-4.637,2.16,2.16,0,0,1,2.14,2.319A2.214,2.214,0,0,1,65.179,27.356Zm-8.294-6.064a3.752,3.752,0,0,0-3.835,3.835,3.806,3.806,0,0,0,3.835,3.835,3.752,3.752,0,0,0,3.835-3.835A3.7,3.7,0,0,0,56.885,21.292Zm0,6.064a2.326,2.326,0,0,1,0-4.637,2.16,2.16,0,0,1,2.14,2.319A2.214,2.214,0,0,1,56.885,27.356Zm-9.9-4.905v1.605h3.835a3.372,3.372,0,0,1-.892,2.051,3.947,3.947,0,0,1-2.943,1.159,4.152,4.152,0,0,1-4.192-4.281,4.207,4.207,0,0,1,4.192-4.281,4.422,4.422,0,0,1,2.943,1.159l1.159-1.159A5.715,5.715,0,0,0,47.075,17.1,6.016,6.016,0,0,0,41.1,22.986a6.016,6.016,0,0,0,5.975,5.886,5.132,5.132,0,0,0,4.1-1.694A5.369,5.369,0,0,0,52.6,23.432a3.344,3.344,0,0,0-.089-.981ZM87.475,23.7a3.465,3.465,0,0,0-3.211-2.408A3.592,3.592,0,0,0,80.7,25.126a3.732,3.732,0,0,0,3.746,3.835,3.658,3.658,0,0,0,3.121-1.694l-1.249-.892a2.174,2.174,0,0,1-1.873,1.07,1.935,1.935,0,0,1-1.873-1.159l5.083-2.14-.178-.446ZM82.3,24.948a2.166,2.166,0,0,1,1.962-2.23,1.577,1.577,0,0,1,1.427.8ZM78.111,28.6h1.694V17.457H78.111Zm-2.675-6.51a2.936,2.936,0,0,0-2.051-.892,3.832,3.832,0,0,0-3.656,3.835,3.693,3.693,0,0,0,3.656,3.746,2.561,2.561,0,0,0,1.962-.892h.089v.535a2.027,2.027,0,0,1-3.924.892l-1.427.624a3.679,3.679,0,0,0,3.389,2.23c1.962,0,3.567-1.159,3.567-3.924V21.47H75.435v.624Zm-1.962,5.262a2.326,2.326,0,0,1,0-4.637,2.146,2.146,0,0,1,2.051,2.319A2.146,2.146,0,0,1,73.473,27.356Zm21.76-9.9H91.22V28.6h1.694V24.413h2.319a3.482,3.482,0,1,0,0-6.956Zm.089,5.351H92.915V18.973h2.408a1.959,1.959,0,0,1,1.962,1.873,2.041,2.041,0,0,1-1.962,1.962ZM105.579,21.2a3,3,0,0,0-2.943,1.694l1.516.624a1.575,1.575,0,0,1,1.516-.8,1.676,1.676,0,0,1,1.784,1.427v.089a3.537,3.537,0,0,0-1.694-.446c-1.605,0-3.211.892-3.211,2.5a2.613,2.613,0,0,0,2.765,2.5,2.51,2.51,0,0,0,2.14-1.07h.089V28.6h1.605V24.324a3.375,3.375,0,0,0-3.567-3.121Zm-.178,6.154c-.535,0-1.338-.268-1.338-.981,0-.892.981-1.159,1.784-1.159a3.449,3.449,0,0,1,1.516.357A2.077,2.077,0,0,1,105.4,27.356Zm9.364-5.886-1.873,4.816H112.8L110.84,21.47h-1.784L112,28.248l-1.694,3.746H112l4.548-10.523ZM99.782,28.6h1.694V17.457H99.782Z" transform="translate(981.284 448.7)" fill="#fff"/>
    <g id="Group_2456" data-name="Group 2456" transform="translate(1002 463.84)">
      <path id="Path_822" data-name="Path 822" d="M10.265,7.5A1.294,1.294,0,0,0,10,8.426V23.049a1.309,1.309,0,0,0,.331.926l.066.066,8.2-8.2V15.7Z" transform="translate(-10 -7.267)" fill="url(#linear-gradient)"/>
      <path id="Path_823" data-name="Path 823" d="M25.613,21.424,22.9,18.711v-.2L25.613,15.8l.066.066,3.242,1.853a1.01,1.01,0,0,1,0,1.919Z" transform="translate(-14.365 -10.075)" fill="url(#linear-gradient-2)"/>
      <path id="Path_824" data-name="Path 824" d="M21.45,22.779,18.671,20,10.4,28.271c.331.331.794.331,1.389.066l9.66-5.558" transform="translate(-10.135 -11.496)" fill="url(#linear-gradient-3)"/>
      <path id="Path_825" data-name="Path 825" d="M21.45,12.88l-9.66-5.492a1.072,1.072,0,0,0-1.389.066l8.271,8.2L21.45,12.88Z" transform="translate(-10.135 -7.155)" fill="url(#linear-gradient-4)"/>
      <path id="Path_826" data-name="Path 826" d="M21.383,24.1l-9.594,5.426a1.082,1.082,0,0,1-1.323,0l-.066.066.066.066a1.082,1.082,0,0,0,1.323,0Z" transform="translate(-10.135 -12.883)" opacity="0.2"/>
      <path id="Path_827" data-name="Path 827" d="M10.265,28.138A1.294,1.294,0,0,1,10,27.212v.066a1.309,1.309,0,0,0,.331.926v-.066h-.066ZM24.556,20.86l-3.308,1.853.066.066,3.242-1.853A1.1,1.1,0,0,0,25.218,20C25.218,20.331,24.953,20.6,24.556,20.86Z" transform="translate(-10 -11.496)" opacity="0.12"/>
      <path id="Path_828" data-name="Path 828" d="M11.654,7.447l12.9,7.344c.4.265.662.529.662.86a1.1,1.1,0,0,0-.662-.926l-12.9-7.344C10.728,6.851,10,7.248,10,8.307v.066C10,7.381,10.728,6.917,11.654,7.447Z" transform="translate(-10 -7.147)" fill="#fff" opacity="0.25"/>
    </g>
  </g>
</svg>
