<svg xmlns="http://www.w3.org/2000/svg" width="26" height="26" viewBox="0 0 26 26">
  <g id="Group_7974" data-name="Group 7974" transform="translate(12038 -17.81)">
    <g id="Group_7973" data-name="Group 7973" transform="translate(8781 3073.536)">
      <g id="Group_826" data-name="Group 826" transform="translate(-21151.5 -3368.226)">
        <path id="Stroke_4" data-name="Stroke 4" d="M.5,13.5C.5,3.376,3.376.5,13.5.5s13,2.876,13,13-2.876,13-13,13S.5,23.624.5,13.5Z" transform="translate(332 312)" fill="#ff007f"/>
      </g>
    </g>
    <g id="switch-svgrepo-com" transform="translate(-12032.455 23.767)">
      <path id="Path_1481" data-name="Path 1481" d="M11.811,1.007a.589.589,0,1,1,.832-.834l1.333,1.338.008.008a1.182,1.182,0,0,1,0,1.665l-1.335,1.34a.589.589,0,0,1-.831-.834l.752-.754H3.761a.587.587,0,0,0-.587.587V7.63A.587.587,0,1,1,2,7.63V3.522A1.761,1.761,0,0,1,3.761,1.761h8.8Z" transform="translate(-0.413)" fill="#fff"/>
      <path id="Path_1482" data-name="Path 1482" d="M13.326,10.587a.587.587,0,0,0-1.174,0V14.7a.587.587,0,0,1-.587.587h-8.8l.751-.754a.589.589,0,1,0-.832-.834L1.348,15.033l-.008.008a1.182,1.182,0,0,0,0,1.665l1.335,1.34a.589.589,0,0,0,.831-.834l-.752-.754h8.807A1.761,1.761,0,0,0,13.326,14.7Z" transform="translate(0 -4.13)" fill="#fff"/>
    </g>
  </g>
</svg>
