<svg xmlns="http://www.w3.org/2000/svg" width="365.812" height="545.568" viewBox="0 0 365.812 545.568">
  <g id="Group_2426" data-name="Group 2426" transform="translate(83.322 -62.956) rotate(25)">
    <g id="Group_2402" data-name="Group 2402" transform="translate(345.447 127.65) rotate(-8)">
      <path id="Path_206" data-name="Path 206" d="M.345,2.035c-.11-.344-.22-.686-.331-1.029C-.07.74.236.615.426.562c11.08-3.039,23.69,6.705,23.992,18.046.171,6.407-4.513,14.115-10.691,16.433-2.808,1.052-5.74.255-6.576-2.825-1-3.67,1.42-6.3,4.919-5.312,4.559,1.283,7.1,6.371,8.276,10.531a47.971,47.971,0,0,1,.626,22.508,73.374,73.374,0,0,1-3.529,11.7c-1.2,3.08-3.515,6.267-4.228,9.457-.163.731-2.294.193-2.123-.568.674-3.016,2.761-5.815,3.918-8.687a73.159,73.159,0,0,0,3.84-12.468c1.565-7.57,1.524-16.14-1.033-23.541-.677-1.961-1.569-4.285-3.211-5.673C8.8,25.245,6.191,35.9,14.163,32.706c3.324-1.334,6.669-6.825,7.568-9.993a16.354,16.354,0,0,0-2.275-13.24A16.828,16.828,0,0,0,13.865,3.9c-1.12-.658-12.227-4.188-11.4-1.6C2.7,3.03.577,2.752.345,2.035Z" transform="translate(0 0)" fill="#474546"/>
    </g>
    <g id="Group_2415" data-name="Group 2415" transform="translate(434.226 456.406) rotate(90)">
      <path id="Path_206-2" data-name="Path 206" d="M.177,1.045C.121.869.065.693.007.516-.036.38.121.316.219.289,5.91-1.272,12.387,3.733,12.542,9.558c.088,3.291-2.318,7.25-5.491,8.441-1.442.54-2.948.131-3.378-1.451-.512-1.885.729-3.234,2.527-2.729,2.342.659,3.648,3.272,4.251,5.409a24.64,24.64,0,0,1,.322,11.561A37.687,37.687,0,0,1,8.96,36.8c-.618,1.582-1.805,3.219-2.172,4.858-.084.376-1.178.1-1.09-.292.346-1.549,1.418-2.987,2.012-4.462a37.577,37.577,0,0,0,1.972-6.4A23.438,23.438,0,0,0,9.151,18.4,6.591,6.591,0,0,0,7.5,15.49C4.52,12.967,3.18,18.44,7.274,16.8c1.707-.685,3.425-3.506,3.887-5.133a8.4,8.4,0,0,0-1.168-6.8A8.643,8.643,0,0,0,7.121,2C6.546,1.667.841-.147,1.268,1.182c.121.374-.972.232-1.091-.137Z" transform="translate(0 0)" fill="#474546"/>
    </g>
    <g id="Group_2403" data-name="Group 2403" transform="translate(42.441 64.138) rotate(109)">
      <path id="Path_207" data-name="Path 207" d="M0,19.12c.915-3.592,3-7.438,4.651-10.774C6.04,5.537,7.614,2.038,10.07,0" transform="translate(13.014 12.602)" fill="none" stroke="#474546" stroke-width="1"/>
      <path id="Path_208" data-name="Path 208" d="M3.729,18.389C4.257,11.977,1.227,6.159,0,0" transform="translate(34.442 5.222)" fill="none" stroke="#474546" stroke-width="1"/>
      <path id="Path_209" data-name="Path 209" d="M.3,9.571C-2.292,6.234,12.6,3.205,18.622,0" transform="matrix(-0.995, -0.105, 0.105, -0.995, 18.52, 11.465)" fill="none" stroke="#474546" stroke-width="1"/>
    </g>
    <g id="Group_2404" data-name="Group 2404" transform="matrix(0.208, -0.978, 0.978, 0.208, 419.501, 412.459)">
      <path id="Path_207-2" data-name="Path 207" d="M0,8.651A26.9,26.9,0,0,1,2.1,3.777,11.469,11.469,0,0,1,4.556,0" transform="translate(0 3.339)" fill="none" stroke="#f5f6fa" stroke-width="1.5"/>
      <path id="Path_208-2" data-name="Path 208" d="M1.687,8.32C1.926,5.419.555,2.787,0,0" transform="translate(9.695 0)" fill="none" stroke="#f5f6fa" stroke-width="1.5"/>
    </g>
    <path id="Path_210" data-name="Path 210" d="M19.494,35.955a93.676,93.676,0,0,0-7.53-19.047C8.658,10.636,4.184,5.642,0,0" transform="translate(205.029 525.792) rotate(172)" fill="none" stroke="#474546" stroke-width="1.5"/>
    <path id="Path_211" data-name="Path 211" d="M8.134,15A39.086,39.086,0,0,0,4.992,7.054,55.282,55.282,0,0,0,0,0" transform="translate(220.163 521.782) rotate(146)" fill="none" stroke="#474546" stroke-width="1.5"/>
    <g id="Group_2427" data-name="Group 2427" transform="matrix(-0.914, 0.407, -0.407, -0.914, 29.248, 230.2)">
      <path id="Path_206-3" data-name="Path 206" d="M.177,1.045C.121.869.065.693.007.516-.036.38.121.316.219.289,5.91-1.272,12.387,3.733,12.542,9.558c.088,3.291-2.318,7.25-5.491,8.441-1.442.54-2.948.131-3.378-1.451-.512-1.885.729-3.234,2.527-2.729,2.342.659,3.648,3.272,4.251,5.409a24.64,24.64,0,0,1,.322,11.561A37.687,37.687,0,0,1,8.96,36.8c-.618,1.582-1.805,3.219-2.172,4.858-.084.376-1.178.1-1.09-.292.346-1.549,1.418-2.987,2.012-4.462a37.577,37.577,0,0,0,1.972-6.4A23.438,23.438,0,0,0,9.151,18.4,6.591,6.591,0,0,0,7.5,15.49C4.52,12.967,3.18,18.44,7.274,16.8c1.707-.685,3.425-3.506,3.887-5.133a8.4,8.4,0,0,0-1.168-6.8A8.643,8.643,0,0,0,7.121,2C6.546,1.667.841-.147,1.268,1.182c.121.374-.972.232-1.091-.137Z" transform="translate(0 0)" fill="#474546"/>
    </g>
  </g>
</svg>
