<svg xmlns="http://www.w3.org/2000/svg" width="12.644" height="12.157" viewBox="0 0 12.644 12.157">
  <path id="Icon_ionic-ios-heart-empty" data-name="Icon ionic-ios-heart-empty" d="M12.615,3.938h-.03A3.458,3.458,0,0,0,9.7,5.518a3.458,3.458,0,0,0-2.887-1.58h-.03a3.436,3.436,0,0,0-3.4,3.434,7.4,7.4,0,0,0,1.453,4.033A25.46,25.46,0,0,0,9.7,16.095a25.46,25.46,0,0,0,4.869-4.69,7.4,7.4,0,0,0,1.453-4.033A3.436,3.436,0,0,0,12.615,3.938ZM13.879,10.9A23.312,23.312,0,0,1,9.7,15.025,23.346,23.346,0,0,1,5.515,10.9,6.557,6.557,0,0,1,4.226,7.372a2.579,2.579,0,0,1,2.559-2.58h.027a2.548,2.548,0,0,1,1.249.328,2.656,2.656,0,0,1,.924.866.854.854,0,0,0,1.429,0,2.682,2.682,0,0,1,.924-.866,2.548,2.548,0,0,1,1.249-.328h.027a2.579,2.579,0,0,1,2.559,2.58A6.64,6.64,0,0,1,13.879,10.9Z" transform="translate(-3.375 -3.938)" fill="#757575"/>
</svg>
