<svg xmlns="http://www.w3.org/2000/svg" width="26" height="26" viewBox="0 0 26 26">
  <g id="Layer_2" data-name="Layer 2" transform="translate(0.5 0.5)">
    <g id="Layer_1" data-name="Layer 1">
      <rect id="Rectangle_1" data-name="Rectangle 1" width="25" height="25" rx="7" fill="none" stroke="#474546" stroke-width="1"/>
      <path id="Path_1" data-name="Path 1" d="M122.393,89.979a14.206,14.206,0,0,0-2.408-5.366,17.68,17.68,0,0,0-1.846-2.324c-.608-.68-1.325-1.416-2.179-2.235-.106-.1-.238-.233-.327-.323-.153-.156-.213-.026-.213-.026l-.178.324-.013.022c-.978,1.808-1.147,1.922-.811,2.181-4.923,2.267-5.427,8.952-5.259,9.783a15.453,15.453,0,0,1-4.042.4.267.267,0,0,0-.267.267V96.44a.267.267,0,0,0,.282.265,17.845,17.845,0,0,0,6.516-1.448c1.623-.631,1.315-.6,2.77,0,.252.115.531.23.811.373a8.683,8.683,0,0,1,2.909,2.094c.075.077.15.177.225.258l.451.54a.247.247,0,0,0,.38,0l.452-.542c.129-.159.237-.293.34-.43a11.255,11.255,0,0,0,2.518-5.785A8.557,8.557,0,0,0,122.393,89.979Zm-11.668-1.522a3.345,3.345,0,0,1,.951-1.492c.811-.889,2.126-2.037,2.8-1.062a2.763,2.763,0,0,1,.756,1.291,7.035,7.035,0,0,1,.14,1.922.492.492,0,0,0-.14.114C113.663,90.351,110.53,90.494,110.726,88.457Zm9.456,4.217a1.626,1.626,0,0,0-.2.115,3.249,3.249,0,0,1-1.846-.115,17.759,17.759,0,0,1-2.322-.918c-.336-.144-.532-.258-.588-.373a.265.265,0,0,1,0-.287,12.107,12.107,0,0,0,1.483-2.7,5.235,5.235,0,0,0,.252-1.434c0-.631.056-1.435.56-.431a10.342,10.342,0,0,0,.615,1.062,30.554,30.554,0,0,1,1.846,3.414C120.349,91.871,120.517,92.531,120.181,92.675Z" transform="translate(-101.301 -77.118)" fill="#474546"/>
    </g>
  </g>
</svg>
