<svg xmlns="http://www.w3.org/2000/svg" width="35.969" height="35.969" viewBox="0 0 35.969 35.969">
  <g id="Group_2787" data-name="Group 2787" transform="translate(-1603 -246.193)">
    <path id="Stroke_4" data-name="Stroke 4" d="M.5,18.484C.5,4.479,4.479.5,18.484.5S36.469,4.479,36.469,18.484,32.49,36.469,18.484,36.469.5,32.49.5,18.484Z" transform="translate(1602.5 245.693)" fill="#db143d"/>
    <path id="Home" d="M5.454,15.23V12.742A1.163,1.163,0,0,1,6.62,11.59H8.985a1.163,1.163,0,0,1,1.174,1.151h0v2.5a1,1,0,0,0,.985.989H12.72a2.818,2.818,0,0,0,2.845-2.789h0V6.359a1.973,1.973,0,0,0-.788-1.545L9.386.556a2.625,2.625,0,0,0-3.231,0L.788,4.821A1.958,1.958,0,0,0,0,6.367v7.07a2.818,2.818,0,0,0,2.845,2.789H4.421a1.007,1.007,0,0,0,1.017-1h0" transform="translate(1613.2 256.064)" fill="none" stroke="#fff" stroke-linecap="round" stroke-linejoin="round" stroke-miterlimit="10" stroke-width="1.5"/>
  </g>
</svg>
