<svg xmlns="http://www.w3.org/2000/svg" width="23.525" height="23.525" viewBox="0 0 23.525 23.525">
  <g id="Group_1920" data-name="Group 1920" transform="translate(-1297.175 -406)">
    <g id="Group_1410" data-name="Group 1410" transform="translate(-198 -20)">
      <g id="Group_1407" data-name="Group 1407" transform="translate(1479.175 47.7)">
        <path id="Stroke_3" data-name="Stroke 3" d="M0,11.763C0,2.941,2.941,0,11.763,0S23.525,2.941,23.525,11.763,20.584,23.525,11.763,23.525,0,20.584,0,11.763Z" transform="translate(16 378.3)" fill="#fcc155"/>
      </g>
    </g>
    <g id="telephone_3_" data-name="telephone (3)" transform="translate(1302.52 409.387)">
      <path id="Path_143" data-name="Path 143" d="M4.953,5.019A8.733,8.733,0,0,0,3.57,5.2a1.652,1.652,0,0,0-.845.4,2.659,2.659,0,0,1,.04.547V6.4H0A3.84,3.84,0,0,1,.627,4.565a2.118,2.118,0,0,1,1.239-.776q.787-.186,1.073-.241a12.17,12.17,0,0,1,1.386-.17q.734-.049,2.1-.049c1.339,0,2.281.027,2.82.082a8.528,8.528,0,0,1,1.684.355,2.507,2.507,0,0,1,1.3.831,3.788,3.788,0,0,1,.61,1.8H10.113V6.271a4.87,4.87,0,0,1,.031-.667,1.67,1.67,0,0,0-.875-.41,8.605,8.605,0,0,0-1.317-.18c-.467-.029-.973-.044-1.525-.044Q5.734,4.968,4.953,5.019ZM2.764,6.609V7.08a.3.3,0,0,1-.334.339H.277a.26.26,0,0,1-.182-.11A.347.347,0,0,1,0,7.08V6.609ZM1.073,12.755V10.547a1.7,1.7,0,0,1,.094-.608,2.181,2.181,0,0,1,.318-.531L3.876,6.161V5.472H4.908l.048.689H7.832V5.472H9v.744l2.47,3.193a1.975,1.975,0,0,1,.345.537,1.969,1.969,0,0,1,.068.6v2.208q0,.667-.541.667H1.564Q1.073,13.423,1.073,12.755ZM8.273,9.1q.774-.372.774-.9t-.778-.88A4.294,4.294,0,0,0,6.426,6.96a4.286,4.286,0,0,0-1.859.372q-.779.372-.779.875,0,.526.775.9a4.258,4.258,0,0,0,1.862.372A4.227,4.227,0,0,0,8.273,9.1ZM12.836,7.08a.392.392,0,0,1-.075.235.209.209,0,0,1-.163.1H10.4a.273.273,0,0,1-.194-.093.337.337,0,0,1-.093-.246V6.609h2.724V7.08Z" transform="translate(0)" fill="#f5f6fa"/>
    </g>
  </g>
</svg>
