<svg id="Group_2422" data-name="Group 2422" xmlns="http://www.w3.org/2000/svg" width="142.313" height="184.106" viewBox="0 0 142.313 184.106">
  <g id="Group_2412" data-name="Group 2412" transform="matrix(0.974, 0.225, -0.225, 0.974, 36.885, 0)">
    <path id="Path_214" data-name="Path 214" d="M108.042,53c-.151-4.434-.331-8.866-.42-13.3q-.137-6.821-.115-13.644c.014-3.254.162-6.508.259-9.763a5.86,5.86,0,0,1,.13-.8,1.467,1.467,0,0,0-1.448-1.8c-2.5-.176-5.005-.358-7.6-.545.071-1.266.2-2.5.2-3.741-.011-1.957-.069-3.916-.2-5.868-.083-1.257-.753-1.784-1.981-1.884C92.8,1.327,88.736.927,84.667.64c-2.9-.2-5.8-.26-8.7-.4C75.152.2,74.341.081,73.53,0H71.643c-1.2.162-2.393.372-3.6.474-1.875.16-3.761.2-5.633.378q-3.806.364-7.6.872c-2.371.313-4.738.665-7.092,1.082C46.7,2.988,46.6,3.212,46.6,4.258c0,.9.033,1.807.036,2.71.006,2.154,0,4.308,0,6.551-.506.074-.922.154-1.342.192-2.774.253-5.552.469-8.323.751-4.292.437-8.58.912-12.869,1.38-5.579.608-11.161,1.195-16.734,1.853-2.249.266-4.48.7-6.756,1.06,0,.641-.007,1.217,0,1.792.035,2.632.087,5.263.106,7.9C.739,31.014.8,33.589.785,36.16c-.068.1-.133.192-.206.284a.055.055,0,0,0,.077.077c.044-.038.083-.079.125-.118-.007.8-.02,1.6-.047,2.4C.525,45.088.184,51.36.348,57.652.461,62.008.207,66.371.242,70.73c.039,4.83.255,9.658.33,14.489.087,5.615.147,11.232.135,16.848,0,.139,0,.278-.005.417a1.35,1.35,0,0,0-.162.552.078.078,0,0,0,.153.021l0-.005c-.026,1.308-.089,2.617-.148,3.925a.094.094,0,0,0,0,.011c-.062,1.382-.117,2.765-.11,4.147.029,5.659-.147,11.31-.377,16.962-.11,2.7-.043,5.419.017,8.127.074,3.377.244,6.751.332,10.127.058,2.239.046,4.478.066,6.718.014,1.492.461,2.682,2.066,3.152,1.089.319,2.145.747,3.234,1.066l.029.008-.007.026a.172.172,0,0,0,.313.132l.034-.06q4.954,1.448,9.921,2.852a120.7,120.7,0,0,0,17.291,3.5c.716.093,1.564.555,2.252-.213.065-.073.3,0,.452.013.548.031,1.1.083,1.643.091q8.185.118,16.37.222a18.76,18.76,0,0,0,5.794-.845c2.884-.885,5.789-1.7,8.693-2.522.98-.277,1.987-.462,2.976-.711,3.692-.928,7.386-1.841,11.069-2.8s7.389-1.856,11.015-3c4.152-1.309,8.226-2.863,12.337-4.3,1.4-.489,1.723-.878,1.516-2.351a12.06,12.06,0,0,1-.167-3.837,1.241,1.241,0,0,0,.006-.236c-.035-2.514-.093-5.027-.1-7.541q-.043-12.836-.05-25.672c0-3.416.033-6.833.146-10.246.147-4.471.445-8.936.571-13.407.118-4.2.092-8.407.146-12.61a15.867,15.867,0,0,1,.179-1.6V54.012A8.024,8.024,0,0,1,108.042,53ZM95.213,3.074c2.3-.062,2.244-.058,2.447,2.359a47.311,47.311,0,0,1-.444,8.721c-7.634,1.1-15.318,1.438-22.929,2.907a43.244,43.244,0,0,0-1.03-10.629c.673-.117,1.232-.244,1.8-.306,3.159-.349,6.321-.68,9.482-1.019,2.614-.281,5.231-.543,7.841-.858a17.612,17.612,0,0,0,2.405-.538C94.916,3.675,94.99,3.417,95.213,3.074Zm-45.225.238c1.834-.152,3.671-.274,5.5-.462,4.218-.434,8.428-.964,12.652-1.326a53.984,53.984,0,0,1,6.114-.052c2.59.074,5.18.229,7.767.39,1.912.118,3.821.3,5.731.457-3.924.792-7.9.965-11.77,1.961,1.358-.118,2.718-.211,4.072-.36,2.928-.322,5.869-.569,8.77-1.052a15.163,15.163,0,0,1,4.787.171c-3.458.337-6.93.569-10.369,1.04S76.368,5.263,73.019,5.855V17.308c-2.1.094-4.162-.37-6.352-.49.068-1.873.142-3.69.2-5.508v0a7.925,7.925,0,0,0,1.557-2.072,8.985,8.985,0,0,1,1.143-1.475c.3-.3.632-.458.745-.876.011-.038-.048-.066-.066-.028-.19.4-.8.746-1.109,1.069a9.858,9.858,0,0,0-.8.979c-.5.683-.95,1.382-1.475,2.039-.005-.387-.025-.775-.047-1.162-.027-.464-.268-.674-.753-.711-1.344-.1-2.687-.217-4.031-.329.174-.312.415-.592.588-.905a8.945,8.945,0,0,1,.917-1.5c.033-.038-.022-.095-.056-.056a9.084,9.084,0,0,0-.96,1.5c-.194.334-.468.613-.628.952-.8-.066-1.6-.127-2.4-.193.689-.66,1.386-1.309,1.3-2.226-.012-.127-.211-.131-.2,0,.067.907-.73,1.54-1.45,2.2q-.952-.077-1.9-.151c.121-.21.245-.42.381-.624.3-.446.659-.85.927-1.317.23-.4.242-.351-.012-.727-.081-.119-.275-.007-.194.113.351.524-.807,1.609-1.067,2.029-.1.169-.2.337-.3.5l-.542-.043a6.778,6.778,0,0,1,.443-.837,8.55,8.55,0,0,0,1.294-2.207c3.84.456,7.677.931,11.516,1.4a3.073,3.073,0,0,0,2.323-.369,5.475,5.475,0,0,0-2.749-.841c-2.853-.28-5.712-.5-8.567-.757-.811-.073-1.622-.153-2.433-.228,0-.039,0-.074,0-.114-.008-.128-.2-.131-.2,0,0,.033-.006.062-.007.095q-2.989-.276-5.978-.56c.006-.034.017-.063.022-.1.021-.156-.255-.194-.276-.038-.006.038-.016.073-.023.11L51.3,3.8c-.449-.043-.89-.165-1.335-.25Zm4.13,8.921c-.2-.858-.374-1.725-.568-2.658q.143-.319.29-.634c.626-.018,1.253-.014,1.88.006-.029.056-.056.114-.087.169a14.424,14.424,0,0,1-1.505,1.915.1.1,0,0,0,.142.142,7.542,7.542,0,0,0,1.49-1.59A5.768,5.768,0,0,0,56.1,8.96c.153.007.305.008.458.017a6.056,6.056,0,0,1-.731.938c-.066.067.024.2.1.135A3.825,3.825,0,0,0,56.849,9q.835.051,1.672.129a1.676,1.676,0,0,0-.458,1.437c.019.1.165.07.169-.023a2.224,2.224,0,0,1,.643-1.379c2.322.225,4.659.555,7.035.74A10.889,10.889,0,0,1,66,11.006c-.034,1.216-.091,2.431-.14,3.646-.027.686-.349,1.413.552,1.967l-.286.2L53.761,15.454A4.725,4.725,0,0,0,54.117,12.234ZM51.688,5.361a.106.106,0,0,0-.056.2c.45.144-.26.889-.358,1.031a4.318,4.318,0,0,0-.415.777,13.825,13.825,0,0,1-1.7,3.071c-.553.739-1.014,1.52-1.582,2.248a4.088,4.088,0,0,0-.238.336c-.007-.166-.009-.331,0-.5s.014-.328.019-.492c.851-1.5,1.838-2.917,2.658-4.439A21.069,21.069,0,0,1,51.3,5.449a5.369,5.369,0,0,0,.585-1c1.088.181,2.184.315,3.284.442l.326.038a5.17,5.17,0,0,1-1,2.374c-.189.3-.364.6-.533.9l-.75.011c.518-.933,1.213-2.4.482-3.106a.1.1,0,0,0-.135.135c.593.607.048,1.862-.616,2.974-.1,0-.205,0-.31,0-.008.18-.017.356-.025.534-.38.585-.745,1.085-.915,1.355a24.117,24.117,0,0,0-2.564,4.618,14.961,14.961,0,0,0-1.681-.168c-.022-.346-.055-.673-.081-.991a14.59,14.59,0,0,1,1.536-2.234,17.852,17.852,0,0,0,1.868-2.9,8.6,8.6,0,0,1,.8-1.809,2.435,2.435,0,0,0,.46-.687C52.131,5.6,52.043,5.45,51.688,5.361Zm4.041,2.876c-.5-.037-1-.04-1.509-.033a7.61,7.61,0,0,0,1.493-3.247c.73.085,1.461.175,2.191.261a12.441,12.441,0,0,1-1.474,2.3,6.683,6.683,0,0,0-.382.742Zm-2.312.712c.052,0,.1,0,.155,0-.037.072-.073.146-.11.219Zm-2.3,2.763c.467-.817.98-1.606,1.466-2.411-.023.5-.047.991-.07,1.482a10.444,10.444,0,0,1-.712.863,1.566,1.566,0,0,0-.5,1.149c0,.093.132.089.142,0,.078-.694.6-1.066,1.046-1.505l-.181,3.829a20.519,20.519,0,0,1-2.9-.346C50.051,13.81,50.552,12.71,51.122,11.713Zm2.157.085c.5,1.107.5,1.313,0,3.36ZM47.639,3.552a2.494,2.494,0,0,1,.6.035,24.235,24.235,0,0,0,3.367.816,10.471,10.471,0,0,1-.894,1.385c-.494.746-.886,1.556-1.322,2.336-.64,1.145-1.442,2.2-2.014,3.383.033-.877.066-1.754.1-2.63.325-.433.72-.838.958-1.2.355-.546.577-1.169.911-1.726a4.378,4.378,0,0,0,.73-1.3.116.116,0,0,0-.223-.061,14.924,14.924,0,0,1-1.25,2.175,9.4,9.4,0,0,1-.857,1.357c-.079.106-.165.217-.252.331.047-1.071.1-2.141.138-3.212C47.657,4.692,47.639,4.146,47.639,3.552ZM7.377,18.634c5.548-.536,11.1-1.044,16.643-1.6,3.593-.363,7.174-.832,10.766-1.195,2.5-.252,5.007-.4,7.511-.6.821-.068,1.641-.162,2.458-.269a3.179,3.179,0,0,1,2.487.31,1.779,1.779,0,0,0,.781.236c2.093.3,4.185.6,6.282.862q6.889.876,13.781,1.721c1.481.184,2.96.381,4.445.514.677.061,1.386.188,1.925-.533.181-.242.72-.254,1.1-.3,3-.349,6.007-.681,9.011-1.018q4.8-.538,9.6-1.077c.936-.106,1.868-.257,2.806-.322a8.418,8.418,0,0,1,1.447.154l.412-1.325,5.535.668.006.2c-2.766.47-5.525.992-8.3,1.4-4.466.651-8.94,1.24-13.414,1.828-7.586,1-15.187,1.893-22.756,3a71.55,71.55,0,0,1-8.324.367c-4.2.127-8.4.15-12.6.22a4.871,4.871,0,0,1-2.519-.376,5.236,5.236,0,0,0-1.811-.474c-4.054-.486-8.1-1.027-12.171-1.371-2.5-.211-5.025-.066-7.537-.147-2.777-.09-5.551-.256-8.326-.389q-.018-.151-.036-.3A6.622,6.622,0,0,1,7.377,18.634ZM27.8,113.5a17.852,17.852,0,0,1,2.411-4.318c.964-1.541,1.893-3.093,2.747-4.7s1.815-3.107,2.681-4.683a11.02,11.02,0,0,0,.492-1.171c.014.876.027,1.751.042,2.627a.1.1,0,0,0-.122.087c-.087,1.525-1.233,2.868-1.955,4.143-.8,1.405-1.517,2.837-2.409,4.186s-1.482,2.827-2.332,4.183c-.408.65-.951,1.177-1.378,1.807-.149.22-.284.447-.417.675q-.041-5.506-.083-11.012c0-.006.008-.006.009-.013a5.254,5.254,0,0,1,.988-1.627,7.669,7.669,0,0,0,.7-1.4,32.421,32.421,0,0,1,2.066-3.663c1.5-2.49,2.583-5.207,4.145-7.665.065-.1-.1-.2-.163-.1C33.572,93.411,32.4,96.227,30.8,98.8a27.629,27.629,0,0,0-2.029,3.665c-.346.8-.991,1.483-1.3,2.3q-.016-2.07-.032-4.14a.119.119,0,0,0,.063-.032,15,15,0,0,0,1.962-3.1c.773-1.275,1.643-2.474,2.37-3.78.683-1.227,1.453-2.4,2.179-3.6.7-1.155,1.066-2.618,1.924-3.648.083-.1-.059-.242-.143-.142a20.792,20.792,0,0,0-1.627,2.992c-.744,1.264-1.612,2.452-2.349,3.721-.76,1.308-1.559,2.563-2.4,3.823-.725,1.089-1.232,2.287-1.985,3.358q-.014-1.842-.028-3.684c.344-.47.677-.95,1.019-1.42.887-1.222,1.684-2.5,2.51-3.761.776-1.186,1.6-2.315,2.3-3.554.327-.585.717-1.117.991-1.731.318-.711.56-1.453.872-2.166.044-.1-.1-.192-.151-.089-.351.761-.62,1.566-1,2.314-.3.593-.712,1.117-1.042,1.693-.765,1.337-1.716,2.545-2.547,3.839C29.5,93,28.6,94.289,27.669,95.578l-.264.369q-.011-1.474-.022-2.948c.046-.1.094-.194.145-.281,1.007-1.7,2.342-3.223,3.441-4.864,1.017-1.52,2.2-3.043,3.08-4.644A17.256,17.256,0,0,0,35.873,80.1q.068,2.5.123,4.995c.059,2.962.047,5.926.072,8.889a32,32,0,0,1-1.691,3.292c-.879,1.351-1.692,2.735-2.522,4.117s-1.583,2.747-2.323,4.164a14.265,14.265,0,0,1-1.008,1.682c-.373.525-.546,1.16-.93,1.668-.076.1.09.227.174.134a7,7,0,0,0,.742-1.272c.346-.588.766-1.107,1.087-1.717.774-1.471,1.521-2.93,2.371-4.36.822-1.384,1.607-2.788,2.473-4.146a29.621,29.621,0,0,0,1.63-3.189c0,.331,0,.662.008.993.013.927.03,1.854.045,2.781a9.462,9.462,0,0,0-.421.854,13.025,13.025,0,0,1-1.124,1.953c-.92,1.484-1.733,3.026-2.588,4.548s-1.818,3-2.741,4.49c-.666,1.074-1.573,2.2-1.675,3.5C27.564,113.6,27.767,113.624,27.8,113.5Zm-2.3,31.027.615-1.006q-.008.827-.015,1.654,0,.19,0,.38c-.06.1-.12.2-.188.291s.083.211.166.128c.006-.005.01-.012.016-.018-.056,1.883-.621,2.372-2.738,2.322,0-2.053-.013-4.013,0-5.973.03-3.731.12-7.463.1-11.194-.021-4.947-.061-9.9-.206-14.841-.085-2.9-.407-5.8-.583-8.694-.066-1.1-.059-2.2-.022-3.3.1-2.944.246-5.886.335-8.83a6.268,6.268,0,0,0-.367-2.244,2.746,2.746,0,0,0-.194.657c-.165,4.121-.376,8.242-.442,12.365-.028,1.759.353,3.522.368,5.284.032,3.81-.069,7.621-.086,11.431-.015,3.258.011,6.516.019,9.775,0,.385,0,.77,0,1.232l-8.4-.937v-4.363c.233-.445.469-.888.7-1.335.808-1.58,1.623-3.154,2.468-4.714.333-.615.685-1.212,1.047-1.806.186.028.374.06.56.087a22.9,22.9,0,0,0,2.568.22c.2.006.415-.269.622-.416-.188-.212-.349-.573-.568-.612-.837-.151-1.679-.269-2.522-.38a10.264,10.264,0,0,1,1.176-1.857c.161-.182-.1-.451-.269-.269a13.369,13.369,0,0,0-1.324,2.072l-.786-.1c-.775-.1-1.557-.188-2.375-.281.148-.256.293-.514.451-.768.437-.7.785-1.451,1.21-2.161a6.924,6.924,0,0,0,1.051-1.994.068.068,0,0,0-.131-.036,12.353,12.353,0,0,1-1.5,2.447c-.439.748-.864,1.484-1.353,2.2-.058.085-.112.173-.169.259l-.949-.109c-.18-3.48-.467-6.941-.475-10.488.077-.151.158-.3.234-.453q.345-.7.7-1.4c1.145.091,2.227.174,3.3.276.936.088,1.868.222,2.8.323a1.37,1.37,0,0,0,.694-.018c.2-.1.325-.352.483-.538-.168-.128-.324-.344-.506-.37-1.437-.206-2.877-.4-4.321-.55-.629-.068-1.264-.114-1.931-.16.448-.869.912-1.731,1.409-2.562a23.176,23.176,0,0,0,1.173-2.6,4.961,4.961,0,0,0,.643-1.756c.008-.22-.328-.217-.34,0a9.2,9.2,0,0,1-1.082,2.538c-.366.863-.851,1.6-1.285,2.418-.337.638-.667,1.282-1,1.926-.3-.021-.6-.042-.919-.066-.03-1.184-.04-2.367-.043-3.552.254-.545.512-1.088.784-1.623.34-.669.548-1.359.837-2.05.273-.652.771-1.12.78-1.847a.16.16,0,0,0-.321,0c-.015.584-.385.906-.631,1.374a10.486,10.486,0,0,0-.416,1.049c-.294.749-.685,1.442-1.035,2.162,0-2.627.026-5.271-.024-7.974,1.278-.069,2.519-.2,3.756-.18a21.631,21.631,0,0,1,2.907.344,3.829,3.829,0,0,0,2.214-.131,3.876,3.876,0,0,0-.982-.428c-1.641-.094-3.283-.178-4.926-.206a19.3,19.3,0,0,1-6.512-.747,18.015,18.015,0,0,0-2.78-.56,4.684,4.684,0,0,1,1.254-.467c-.017.011-.031.025-.05.035-.107.06-.031.212.08.19a.87.87,0,0,0,.519-.314,8.316,8.316,0,0,1,1.425-.022c-.038.056-.078.11-.113.169A.133.133,0,0,0,10.3,91c.1-.1.206-.2.309-.3.448.036.9.083,1.345.113.228.015.456.024.683.036-.074.121.1.233.2.145.046-.04.09-.085.135-.128.282.014.564.031.846.043a1.016,1.016,0,0,0-.016.279.076.076,0,0,0,.149.02c.036-.1.078-.2.123-.29q1.044.04,2.088.072c-.037.049-.078.1-.114.147-.057.08.058.2.138.138.115-.084.223-.181.333-.273.525.017,1.05.038,1.575.061-.019.027-.041.053-.061.08-.05.069.051.172.12.12s.151-.125.225-.188c.175.008.35.013.525.022,1.8.1,3.6.27,5.4.417a5.37,5.37,0,0,1,.69.168l-1.8,1.227c1.154.115,2.064-.766,3.324-.479.026.522.064,1.044.1,1.567a1.565,1.565,0,0,1-.65.783.086.086,0,0,0,.066.157,1.29,1.29,0,0,0,.613-.442c.032.554.056,1.107.049,1.661,0,.263-.008.525-.011.788-.1.135-.211.27-.321.4a1.375,1.375,0,0,0-.453.892.1.1,0,0,0,.195.026,2,2,0,0,1,.572-.847c-.094,7.434-.225,14.867-.316,22.3-.01.858-.017,1.716-.027,2.574a1.328,1.328,0,0,1-.114.077c-.152.077-.038.281.108.257h0q-.113,10.118-.2,20.236a9.864,9.864,0,0,0-.758,1.606C25.333,144.552,25.455,144.6,25.5,144.528Zm-5.338,3.581a.1.1,0,0,0-.148-.02l-1.076-.146A3.007,3.007,0,0,0,19,147.31c0-.054-.09-.07-.1-.013a4.056,4.056,0,0,1-.14.622l-4.927-.667V134.274a43.546,43.546,0,0,1,8.427.95c-.06,4.312-.12,8.646-.183,13.145Zm-9.266,9.157c.86-1.457,1.866-2.836,2.75-4.283a23.8,23.8,0,0,0,2.018-4.367q1.316.185,2.629.382c-.715,1.272-1.869,2.393-2.627,3.562-.6.921-1.137,1.877-1.708,2.814a12.424,12.424,0,0,0-1.3,2.32Q11.776,157.484,10.894,157.266Zm5.474-5.169a30.43,30.43,0,0,0,2.172-3.062q.606.091,1.211.187a12.628,12.628,0,0,1-2.821,4.686,10.981,10.981,0,0,0-1.281,1.989,16.992,16.992,0,0,0-1.247,2.211q-.706-.165-1.412-.334C14.2,155.94,15.136,153.921,16.368,152.1Zm-4.359-5.011c0-.02,0-.038,0-.058-.015-.138-.225-.146-.221,0,0,.011,0,.021,0,.032l-6.921-.8c-.068-4.565-.135-9.018-.2-13.557l3.456.569a.128.128,0,0,0,.2.033l2.3.378a10.793,10.793,0,0,0-1.438,3.761c-.022.209.307.244.36.049a18.369,18.369,0,0,1,1.628-3.719l1.361.224v13.152ZM1.673,118.8c.027-2.221-.066-4.442-.095-6.664A14.122,14.122,0,0,1,2.692,109.3c.058-.135-.141-.253-.2-.117a19.014,19.014,0,0,0-.921,2.228c0-.126,0-.253,0-.379,0-.5.005-.995.009-1.492a1.684,1.684,0,0,0,.387-.737c.163-.488.4-.928.585-1.406a7.4,7.4,0,0,0,.71-2.949c-.008-.131-.211-.132-.205,0a6.91,6.91,0,0,1-.646,2.567c-.146.4-.357.742-.512,1.133-.131.329-.173.683-.316,1,.013-1.192.032-2.384.052-3.575.1-.274.193-.558.3-.842a16.678,16.678,0,0,1,1.063-2c.276-.534.477-1.106.72-1.656-.082,1.968-.162,3.936-.2,5.9q-.091,4.76-.12,9.522a6.228,6.228,0,0,0-.83,1.956c-.244.751-.159,2.351-.87,2.807-.1.066-.039.246.087.206.717-.231.775-1.339.879-1.944a9.528,9.528,0,0,1,.732-2.551q-.008,1.933,0,3.866a9.965,9.965,0,0,1-.789,1.489,8.882,8.882,0,0,0-.58,1.018c-.172.405-.2.833-.409,1.232a.118.118,0,0,0,.2.119l.243-.188c.062-.027.013-.107-.042-.1l-.047.006c.149-.341.195-.7.357-1.06.206-.453.512-.875.758-1.308.106-.188.211-.377.308-.569,0,.038,0,.075,0,.112.006.846.016,1.692.025,2.538l-.136.257a13.713,13.713,0,0,1-.917,1.3,9.777,9.777,0,0,0-.923,1.755C1.5,124.567,1.638,121.684,1.673,118.8ZM20.694,20.768c.136.006.272.018.407.025a5.251,5.251,0,0,1-.838,1.448c-.5.783-1.165,1.43-1.734,2.157-.608.778-1.152,1.606-1.756,2.387a15.222,15.222,0,0,0-1.11,1.332q-.914,0-1.83-.01c.169-.221.313-.409.366-.493.472-.755.882-1.566,1.32-2.343.543-.962,1.879-1.951,1.808-3.171a.071.071,0,0,0-.142,0c0,.854-.671,1.412-1.194,1.977a10.923,10.923,0,0,0-1.154,1.772,23.3,23.3,0,0,1-1.261,2.077c-.047.06-.094.118-.141.177-.556-.006-1.112-.01-1.668-.008-.143,0-.287,0-.431,0,.178-.261.319-.566.488-.823a13.381,13.381,0,0,1,1.218-1.3,7.183,7.183,0,0,0,.711-1.2c.8-1.394,2.947-2.2,2.707-4.081-.008-.063-.105-.068-.1,0,.083,1.809-1.938,2.489-2.783,3.81a9.73,9.73,0,0,1-.748,1.255c-.3.347-.695.606-.992.956-.376.442-.583.953-.937,1.376a12.361,12.361,0,0,0-2.186.1l-.256.041c1.378-1.389,2.545-3.1,3.785-4.591.635-.766,2.06-1.952,2.264-3.11C16.567,20.616,18.631,20.68,20.694,20.768ZM35.858,79.541a.1.1,0,0,0-.091.089,5.058,5.058,0,0,1-1.256,2.231c-.374.531-.624,1.127-.98,1.67-.883,1.348-1.839,2.659-2.738,4-.928,1.384-1.947,2.705-2.906,4.067-.173.246-.348.487-.509.736q0-.293,0-.585c-.006-.8-.209-1.059-1.01-1.157-1.52-.187-3.042-.441-4.568-.478l-.118,0a1.661,1.661,0,0,0,.815-.648c.19-.281.179-.626.344-.925a8.7,8.7,0,0,1,.649-.912,8.255,8.255,0,0,0,1.472-.34c.4-.129.769-.315,1.215.013.361.264.687.024.771-.4a7.638,7.638,0,0,0,.147-1.285c0-.089,0-.177.005-.266a.08.08,0,0,0,.1-.014,12.773,12.773,0,0,0,2.023-2.909c.756-1.257,1.547-2.487,2.365-3.7,1.477-2.2,2.711-4.546,4.078-6.812.017.767.038,1.533.058,2.3-.552.9-.794,2.055-1.343,2.942-.423.684-.984,1.269-1.411,1.95-.438.7-.816,1.437-1.252,2.14-1.735,2.8-3.868,5.668-4.966,8.795-.039.113.133.181.19.08,1.625-2.872,3.216-5.74,4.942-8.555.83-1.355,1.636-2.682,2.511-4.005a30.506,30.506,0,0,0,1.335-3.073Q35.787,77.012,35.858,79.541ZM11.292,90.016A15.009,15.009,0,0,0,12.4,88.74c.542-.711.841-1.563,1.365-2.281q.85.115,1.7.233a7.875,7.875,0,0,1-1.05,1.739c-.439.519-.846,1.06-1.236,1.616Q12.237,90.037,11.292,90.016Zm-2.169.109a18.982,18.982,0,0,1,1.387-2.164,15.241,15.241,0,0,0,1.229-1.778l1.733.235c-.478.675-.8,1.448-1.313,2.1-.42.535-.953.988-1.42,1.489A13.137,13.137,0,0,0,9.122,90.125Zm-2.03.267c.142-.242.26-.5.4-.76.3-.552.71-1.025.966-1.6.326-.732.688-1.43,1.033-2.142.553.07,1.107.137,1.66.213l.306.041a16.67,16.67,0,0,1-1.085,1.514,19.161,19.161,0,0,0-1.241,1.7c-.144.258-.244.549-.379.813C8.2,90.248,7.646,90.332,7.092,90.392Zm1.595,41.979c.547-1.345,1.294-2.678,1.923-3.955.758-1.54,1.4-3.126,2.181-4.653,0,1.981-.036,3.959-.085,5.949-.528.98-1.055,1.961-1.558,2.954Zm5.192-10.717q.364-.709.742-1.411,1.529.249,3.021.481c-.275.428-.547.857-.8,1.3-.976,1.715-1.9,3.457-2.813,5.206-.05.1-.1.19-.15.284Zm0-1.017v-.515l.264.043C14.052,120.321,13.965,120.479,13.879,120.637ZM12.149,124c-.849,1.627-1.565,3.356-2.346,5.019a23.507,23.507,0,0,0-1.535,3.3l-3.6-.431c-.288-4.439-.17-8.931-.19-13.482l8.251,1.285c.034,1.019.052,2.035.059,3.049C12.577,123.162,12.366,123.582,12.149,124Zm.506-5.16-4.8-.612a8.539,8.539,0,0,1,1.22-1.994,18.786,18.786,0,0,0,1.577-2.522c.62-1.313,1.323-2.572,2.005-3.845Zm-.154-9.8c-.488.857-1.016,1.689-1.445,2.579-.448.929-.8,1.912-1.327,2.8-.656,1.109-1.923,2.431-2.127,3.779l-3.09-.394c-.086-4.138-.047-8.231.069-12.346l6.272.922c-.786,1.545-1.767,2.986-2.481,4.569-.3.668-.514,1.362-.774,2.045a10.036,10.036,0,0,0-.9,2.171c-.019.152.2.157.25.034.317-.838.863-1.569,1.187-2.417a23.846,23.846,0,0,1,1.118-2.586c.662-1.266,1.386-2.486,2.039-3.752l1.366.2v2.113C12.6,108.849,12.553,108.943,12.5,109.036Zm-.705-3.621c.011-.024.023-.046.034-.069.287-.622.568-1.248.85-1.874v2.034Zm.885-2.893q-.652,1.431-1.338,2.846l-6.658-.685V91.663l8,1.759ZM8.12,84.675c-.005.023-.014.044-.019.067L6.883,84.6a8.974,8.974,0,0,0,.324-1.278c.023-.134-.179-.194-.207-.057a7.638,7.638,0,0,1-.409,1.3l-1.963-.226c-.068-4.543-.134-9-.2-13.551l3.563.584a3.688,3.688,0,0,0-.44,1.2c-.018.143.189.146.234.032a11.23,11.23,0,0,1,.566-1.177l2.425.4c-.016.034-.034.066-.049.1a8.777,8.777,0,0,1-1.177,2.244c-.11.13.065.312.19.189a8.793,8.793,0,0,0,1.574-2.447l.985.161V85.224l-.278-.032a1.434,1.434,0,0,0-.011-.2c-.018-.135-.23-.143-.218,0a1.258,1.258,0,0,1,0,.178l-1.868-.215c.032-.074.067-.145.1-.219.044-.1-.134-.18-.184-.077s-.095.18-.141.27l-1.36-.157c0-.011.006-.022.008-.032C8.372,84.592,8.154,84.529,8.12,84.675Zm-3.886-28.2,8.2,1.3v5.379q-.28.484-.563.966c-.894,1.506-1.722,3.051-2.6,4.568a15.18,15.18,0,0,0-.843,1.764l-3.992-.483C4.137,65.473,4.276,60.981,4.235,56.476ZM21.848,86.045a.112.112,0,0,0-.192.1.786.786,0,0,1,.01.283l-5.592-.758a3.527,3.527,0,0,0,.109-.386.058.058,0,0,0-.112-.031c-.049.129-.1.261-.155.4l-2.294-.311V72.313c1.472.109,2.834.168,4.185.32s2.711.4,4.218.629C21.967,77.462,21.909,81.666,21.848,86.045ZM11.316,70.805l-2.483-.3c.065-.131.133-.261.192-.393.324-.723.738-1.387,1.129-2.074.768-1.348,1.513-2.709,2.276-4.059v4.576c-.207.467-.4.941-.636,1.393C11.643,70.239,11.479,70.522,11.316,70.805Zm.708-.284c.15-.264.28-.536.407-.809V70.94l-.593-.072C11.9,70.752,11.96,70.634,12.024,70.522Zm1.637-8.746c.507-.924,1.016-1.846,1.595-2.728.117-.178.228-.36.337-.542.888.158,1.776.321,2.666.466-.554.985-1.307,1.922-1.9,2.826-.845,1.3-1.58,2.628-2.342,3.973-.115.2-.237.4-.36.6Zm.822-2.087c-.282.445-.554.9-.822,1.351V58.318a5.552,5.552,0,0,1,.893.007c.255.042.51.088.764.132C15.036,58.864,14.749,59.269,14.483,59.688ZM9.193,85.852a17.4,17.4,0,0,0-.921,1.775,12.286,12.286,0,0,1-.929,1.546c-.245.407-.445.838-.666,1.259a9.349,9.349,0,0,1-1.432.014c.18-.261.409-.492.609-.764A11.7,11.7,0,0,0,6.9,87.866c.332-.687.8-1.42,1.122-2.165C8.415,85.75,8.8,85.8,9.193,85.852Zm5.736,2.437a4.966,4.966,0,0,0,.464-1c.077-.195.163-.385.251-.574l.978.138a9.889,9.889,0,0,0-.6.79,19.22,19.22,0,0,1-1.129,1.629c-.181.227-.43.5-.646.784l-.541,0C14.151,89.482,14.557,88.845,14.93,88.288Zm.478.741c.335-.447.609-.933.915-1.4.168-.257.375-.493.569-.736q1.184.17,2.365.356c-.482.651-.974,1.3-1.5,1.914-.262.308-.542.6-.818.9q-1.169,0-2.338-.009C14.86,89.711,15.145,89.379,15.407,89.029Zm4.09-1.74c.522.084,1.045.167,1.566.257-.368.442-.811.847-1.051,1.117-.4.454-.794.928-1.173,1.411l-1.374,0A25.63,25.63,0,0,0,19.5,87.289Zm1.326.879c.141-.168.32-.367.492-.581a7.158,7.158,0,0,0,1.941.068,4.433,4.433,0,0,0-.768,1.173,1.629,1.629,0,0,1-1.024,1.16.075.075,0,0,0-.039.121q-1.045-.022-2.09-.03C19.852,89.45,20.323,88.765,20.823,88.167ZM34.351,44.35a9.851,9.851,0,0,1-2.031,3.58c-.409.575-.9,1.091-1.3,1.673-.417.611-.678,1.311-1.061,1.943a37.593,37.593,0,0,1-2.691,3.508q0-4.928,0-9.855c1.313-1.456,2.307-3.207,3.47-4.774a44.69,44.69,0,0,0,4.667-6.7c.064-.131-.13-.247-.2-.115A44.427,44.427,0,0,1,30.7,39.938c-1.176,1.569-2.244,3.222-3.433,4.78q0-1.232,0-2.464c.589-.858,1.332-1.587,1.887-2.475.708-1.132,1.54-2.115,2.33-3.187,1.464-1.988,3.27-3.675,4.226-6,.061-.148-.178-.21-.239-.066-1.02,2.417-3.02,4.235-4.575,6.3-.368.489-.813.9-1.187,1.383-.412.529-.692,1.144-1.071,1.695-.394.572-.95,1.084-1.372,1.664,0-.39,0-.781,0-1.171,0-.781-.014-1.562-.021-2.343.3-.468.576-.963.885-1.417.877-1.287,1.947-2.347,2.937-3.533a8.679,8.679,0,0,0,.958-1.656,10.563,10.563,0,0,1,1.467-1.9c.9-1.047,1.61-2.216,2.416-3.332-.225,3.493-.228,6.989-.216,10.49a.113.113,0,0,0-.188-.028c-1.711,1.944-2.816,4.281-4.288,6.392-1.452,2.082-3.027,3.926-3.907,6.357-.043.118.139.189.2.084a35.178,35.178,0,0,1,1.935-3.4c.674-.91,1.365-1.761,2.008-2.7,1.466-2.152,2.519-4.574,4.227-6.558a.129.129,0,0,0,.013-.023q0,.51,0,1.02c.011,3.1.133,6.2.184,9.3a.053.053,0,0,0-.055.031,23.082,23.082,0,0,1-2.255,3.43q-1.221,1.874-2.553,3.673c-.792,1.066-1.541,2.158-2.289,3.256-.488.716-1.029,1.393-1.559,2.077q0-.895,0-1.789h.1q0-1.117,0-2.234a25.546,25.546,0,0,0,3.246-4.342,40.064,40.064,0,0,1,2.25-3.472,9.437,9.437,0,0,0,1.8-3.375C34.589,44.27,34.377,44.209,34.351,44.35Zm-7.188,16a20.693,20.693,0,0,0,1.692-2.31c.848-1.252,1.674-2.512,2.555-3.741.907-1.264,1.755-2.564,2.569-3.889a19.436,19.436,0,0,0,1.9-3.1c.021,1.33.026,2.66,0,3.991a.1.1,0,0,0-.1.038c-.9,1.052-1.527,2.287-2.45,3.329a22.086,22.086,0,0,0-2.276,2.984c-.759,1.212-1.617,2.377-2.427,3.557-.466.678-1.013,1.32-1.464,2.013Q27.163,61.786,27.163,60.347Zm8.42,2.308a31.785,31.785,0,0,0-1.624,3.059c-.866,1.412-1.771,2.8-2.607,4.228-.757,1.3-1.523,2.526-2.18,3.877-.367.756-.809,2.159-1.527,2.632a.088.088,0,0,0,.088.151c.709-.329,1.117-1.366,1.449-2.015.618-1.209,1.183-2.4,1.9-3.557.919-1.5,1.775-3.04,2.687-4.544.665-1.1,1.074-2.509,1.815-3.574-.009,1.5-.01,3.005,0,4.507,0,.216.008.432.01.648a9.126,9.126,0,0,1-.968,1.728c-.9,1.377-1.687,2.807-2.506,4.23-.789,1.371-1.8,2.6-2.586,3.989-.328.584-.676,1.156-.976,1.755a3.9,3.9,0,0,1-1.2,1.747c-.1.056-.033.221.077.184.907-.3,1.245-1.4,1.666-2.16a39.054,39.054,0,0,1,2.69-4.372c.957-1.294,1.653-2.821,2.477-4.207.418-.7.92-1.373,1.3-2.1.016-.03.028-.063.043-.093.012.9.024,1.8.043,2.7-1.387,2.248-2.632,4.583-4.109,6.776-.785,1.166-1.566,2.329-2.3,3.528a35.761,35.761,0,0,1-2.14,3.374c.033-1.531.061-3.063.062-4.6q0-3.773,0-7.546c2.178-2.13,3.127-5.376,4.941-7.8.978-1.306,1.662-2.776,2.6-4.109.286-.408.615-.811.916-1.231Q35.591,61.264,35.583,62.655Zm-1.456-1.191c-.879,1.275-1.6,2.608-2.536,3.846-1.7,2.236-2.859,4.819-4.429,7.149q0-2.285,0-4.571a19.354,19.354,0,0,0,1.818-2.037c.879-1.294,1.614-2.687,2.531-3.955a32.747,32.747,0,0,0,2.7-3.584c.314-.588.549-1.2.893-1.772a2.75,2.75,0,0,0,.52-1.445c0-.054-.08-.053-.083,0a5.819,5.819,0,0,1-1.05,2.187A12.452,12.452,0,0,1,33.447,59.1c-.865,1.164-1.893,2.183-2.693,3.4-.832,1.263-1.567,2.6-2.479,3.8a11.3,11.3,0,0,1-1.113,1.152q0-1.738,0-3.476c1.35-2.011,2.814-3.95,4.1-6A30.125,30.125,0,0,1,33.78,54.6c.785-.938,1.33-2.038,2.1-2.985-.014.712-.036,1.424-.069,2.136-.09,1.919-.146,3.84-.184,5.762C35.156,60.193,34.573,60.817,34.127,61.464ZM36.046,24.31q-.074.818-.128,1.635a.129.129,0,0,0-.158.041c-.9,1.227-1.688,2.487-2.707,3.626a10,10,0,0,0-1.142,1.381A13.488,13.488,0,0,1,30.717,33c-.841.972-1.729,1.855-2.49,2.9-.357.489-.673,1.007-.995,1.52q-.038-3.807-.094-7.614a1.321,1.321,0,0,0-.17-.781c.684-.952,1.235-2.044,1.955-2.94.969-1.206,1.83-2.445,2.753-3.68.031-.041-.036-.091-.07-.054-1.1,1.219-2.072,2.587-3.121,3.854a27.282,27.282,0,0,0-1.835,2.6,2.786,2.786,0,0,0-.666-.138c-.434-.048-.868-.1-1.3-.148a5.279,5.279,0,0,1,.476-.611,8.712,8.712,0,0,0,.7-.674c.321-.416.454-.935.786-1.349.252-.314.556-.579.8-.9a15.465,15.465,0,0,0,1.337-1.918c.3-.55.807-.877.96-1.491l.446.048c1.637.173,3.262.476,4.89.736a10.6,10.6,0,0,1,1.081.294C36.121,23.233,36.094,23.773,36.046,24.31Zm-7.238-1.752a7.329,7.329,0,0,0-.385.7,14.923,14.923,0,0,1-1.514,1.931A10.5,10.5,0,0,0,25.775,26.8c-.282.449-.71.714-1.023,1.129a3.9,3.9,0,0,0-.329.553c-.548-.063-1.1-.125-1.643-.181a11.4,11.4,0,0,0,2.108-3.2c.663-1.177,2-2.2,2.327-3.545a.093.093,0,0,0-.179-.049c-.359,1.251-1.637,2.177-2.321,3.268a25.622,25.622,0,0,1-2.181,3.445.1.1,0,0,0-.019.053c-.7-.069-1.4-.126-2.1-.165a6.956,6.956,0,0,0,.884-1.153c.54-.8,1.227-1.458,1.826-2.212s1.194-1.487,1.766-2.243a2.236,2.236,0,0,0,.585-1.385c1.366.133,2.731.283,4.1.429C29.416,22.06,29.1,22.178,28.808,22.558Zm-4.99.9c-.5.6-.977,1.227-1.513,1.8A23.98,23.98,0,0,0,20.122,28.1c-.545-.025-1.092-.038-1.639-.033a14.17,14.17,0,0,1,1.172-1.412c.593-.734,1.11-1.51,1.655-2.278.651-.917,2.121-2.178,2.219-3.425.615.05,1.231.1,1.846.162C25.251,22.047,24.393,22.767,23.819,23.456Zm-1.9-.28c-.6.7-1.113,1.428-1.677,2.157-.517.669-1.071,1.3-1.616,1.942a3.317,3.317,0,0,0-.552.8c-.14,0-.278,0-.418.009-.54.022-1.08.032-1.62.036.441-.544.975-1.031,1.386-1.6.667-.919,1.3-1.855,2.022-2.733a13.751,13.751,0,0,0,1.327-1.915c.247-.431.56-.637.542-1.067.685.036,1.37.077,2.054.132A6.148,6.148,0,0,1,21.92,23.175ZM9.5,28.671c1.088.165,2.178.28,3.271.361a2.55,2.55,0,0,0-.146.294c-.041.1.062.2.156.2l.248.013a.112.112,0,0,0,.056-.206c-.048-.023-.009-.129.077-.278,1.871.124,3.747.149,5.624.137a28.7,28.7,0,0,1,6.058.566l-1.886,1.22.108.214,3.128-.915c.068.632.157,1.082.157,1.531q.006,3.464-.015,6.928c-.129.168-.263.333-.407.491-.073.08.024.228.122.158a3.379,3.379,0,0,0,.283-.23c0,.338,0,.677-.005,1.015q-.026,2.892-.058,5.785l-.045.054a.079.079,0,0,0,.043.132q-.034,2.9-.085,5.806c-.028,1.521-.07,3.042-.113,4.563a4.156,4.156,0,0,0-.756,1.368.128.128,0,0,0,.233.1c.157-.271.328-.533.5-.791-.057,2.022-.111,4.045-.127,6.067-.054,6.715-.036,13.43-.06,20.144,0,.777-.075,1.553-.119,2.389l-2.68.767c0-.588,0-.97,0-1.352.064-4.909.191-9.818.179-14.726Q23.22,61.94,22.987,53.4c-.071-2.625-.4-5.243-.568-7.866-.067-1.056-.047-2.121-.011-3.18.1-2.943.248-5.884.337-8.827a19.531,19.531,0,0,0-.17-2.192l-.264-.01a9.216,9.216,0,0,0-.14.966c-.16,3.845-.32,7.691-.453,11.537a13.051,13.051,0,0,0,.116,2.114,71.4,71.4,0,0,1,.286,10c-.058,4.985-.053,9.971-.08,14.956,0,.378-.044.756-.066,1.129L13.661,71.1V67.284c.262-.422.533-.838.777-1.271.816-1.453,1.626-2.88,2.505-4.3.543-.874,1.209-1.751,1.707-2.683.1.016.207.034.311.049a12.617,12.617,0,0,0,2.109.088c.179,0,.516-.272.5-.361a1.191,1.191,0,0,0-.406-.607,1.081,1.081,0,0,0-.553-.164c-.493-.058-.986-.114-1.48-.17a.188.188,0,0,0-.336-.039l-2.62-.3c.078-.128.156-.255.239-.381a2.755,2.755,0,0,0,.627-1.206c.008-.073-.11-.087-.127-.017a5.627,5.627,0,0,1-.945,1.581l-1.9-.219a5.132,5.132,0,0,1-.5-.124c-.226-3.879-.563-7.788-.47-11.88.1-.166.2-.335.3-.5,1.428.128,2.772.241,4.111.374.975.1,1.945.261,2.922.334.654.049.666-.006.846-.928l-7.266-.819c.293-.505.587-1.011.9-1.506.875-1.381,1.516-3.114,2.749-4.219.164-.147-.077-.385-.241-.241-1.184,1.043-1.83,2.611-2.663,3.923-.417.657-.816,1.325-1.218,1.99l-.377-.042V40.453l.154-.235a11.532,11.532,0,0,0,.967-1.891,12.816,12.816,0,0,0,.856-2.088.141.141,0,0,0-.271-.075,16.275,16.275,0,0,1-.935,2.066,11.55,11.55,0,0,1-.771,1.48V31.194c.5-.019,1.033-.049,1.568-.056a16.346,16.346,0,0,1,5.493.356,2.152,2.152,0,0,0,1.5-.261c-.132-.1-.257-.288-.4-.3-1.088-.115-2.179-.237-3.272-.283-2.117-.089-4.237-.118-6.354-.2a5.821,5.821,0,0,1-1.151-.232c-1.213-.3-2.424-.607-3.547-.889A4.948,4.948,0,0,1,9.5,28.671Zm2.922,2.849v9.313c-.577.857-1.119,1.706-1.623,2.6l-6.308-.649V29.752Zm0,10.07V43.6l-1.168-.12C11.621,42.833,12.015,42.212,12.419,41.591Zm-2.156,2.821,0,0c-.782,1.517-1.626,3-2.431,4.5-.666,1.246-.865,2.687-1.67,3.862-.075.109.088.225.179.138,1-.963,1.173-2.409,1.769-3.608.813-1.637,1.766-3.206,2.6-4.834l1.722.253v.713c-.172.26-.343.521-.525.775-1.046,1.459-1.6,3.126-2.57,4.617-.756,1.167-1.715,2.244-1.8,3.7a.136.136,0,0,0,.266.036c.307-1.568,1.51-2.667,2.274-4.01a47.613,47.613,0,0,1,2.343-4.242l.011-.017V56.922l-8.169-1.05c-.047-4.153-.044-8.254.093-12.331ZM1.856,41.007c.644-.429.818-1.314,1.322-1.876.1-.109.216-.207.325-.311q-.025.58-.05,1.16c-.36.58-.686,1.19-1.07,1.75a7.184,7.184,0,0,0-.53,1.068Q1.854,41.9,1.856,41.007ZM3.519,38.44a1.4,1.4,0,0,1-.22.312,5.533,5.533,0,0,0-.5.519c-.336.468-.62.963-.945,1.437q0-1.072,0-2.143c.328-.571.66-1.138,1-1.708.292-.486.523-1,.779-1.5Q3.588,36.9,3.519,38.44ZM1.851,43.561c0-.087,0-.175,0-.262.028-.042.058-.082.083-.126a18.884,18.884,0,0,1,.9-1.671,7.941,7.941,0,0,0,.594-1.047q-.041.94-.076,1.881c-.688.74-.819,1.79-1.473,2.566l-.032.038Q1.852,44.25,1.851,43.561ZM1.659,92.778c.024-2.041.189-4.08.25-6.121.044-1.448.075-2.9.015-4.348-.247-5.964-.241-11.926-.146-17.894.059-3.692.074-7.384.077-11.076a3.684,3.684,0,0,1,.539-1.014.1.1,0,0,0-.165-.1c-.119.2-.26.4-.374.6q0-2.131,0-4.263a5.844,5.844,0,0,0,.429-.728,6.764,6.764,0,0,0,.641-2.046c.006-.055-.087-.068-.1-.013a7.964,7.964,0,0,1-.973,2.378q0-1.381,0-2.763c.154-.2.315-.409.479-.635.455-.629.569-1.426,1.011-2.056-.03.829-.055,1.658-.07,2.487-.09,4.906-.143,9.813-.11,14.72.045,6.634.178,13.269.3,19.9.025,1.45.111,2.9.23,4.348.061.749.168.956.688,1.071-.8,1.165-1.305,2.515-2.156,3.654-.074.1.08.2.164.126a5.648,5.648,0,0,0,1.228-1.966,19.76,19.76,0,0,1,.968-1.775c.082.013.168.026.268.038.443.057.886.11,1.329.165-.431.857-.942,1.686-1.387,2.483C4.039,89.3,2.927,90.512,2.5,92.011a.1.1,0,0,0,.181.077c1.135-2.182,2.859-4.255,3.856-6.571l1.17.145c-.2.349-.426.688-.606,1.047-.371.744-.7,1.485-1.148,2.193a14.6,14.6,0,0,0-1.117,1.5c-.066-.008-.132-.015-.2-.026a.616.616,0,0,0-.726.608,11.941,11.941,0,0,0-.072,1.289c0,.519.019,1.038.034,1.557-.192.357-.435.69-.622,1.063-.337.671-.662,1.359-.986,2.037-.183.383-.4.788-.6,1.2C1.648,96.348,1.637,94.563,1.659,92.778Zm10.064,39.957c.093-.173.186-.346.274-.515.225-.428.452-.855.678-1.283q-.024.951-.048,1.907Zm1.6-25.194c0-.285.005-.569.014-.855l.418.033Q13.536,107.131,13.319,107.541ZM1.777,32.135C1.659,27.974,1.4,23.818,1.2,19.66a2.063,2.063,0,0,1,.1-.387,16.592,16.592,0,0,1,2.143.133,67.923,67.923,0,0,0,8.084.953c-.429.515-.92.979-1.3,1.531a18.33,18.33,0,0,1-1.6,2.414,7.593,7.593,0,0,0-1.262,1.433,15.568,15.568,0,0,1-1.193,2.206c-.075.094.021.26.14.181a3.06,3.06,0,0,0,1.06-1.508,6.823,6.823,0,0,1,1.5-2.071A8.957,8.957,0,0,0,10.11,22.63a20.7,20.7,0,0,1,1.59-2.172.076.076,0,0,0,0-.087q1.3.083,2.6.143A4.582,4.582,0,0,1,13.118,22.2c-.674.752-1.344,1.5-1.994,2.276A29.357,29.357,0,0,0,8.01,28.3a12.834,12.834,0,0,1-3.5.181,1.3,1.3,0,0,0-.164-.008c.08-.145.16-.29.252-.429.025-.038-.034-.071-.06-.035-.11.152-.2.312-.3.472-.358.044-.556.288-.585.718-.01.143-.018.286-.026.428a8.148,8.148,0,0,1-.431.747,4.626,4.626,0,0,0-.935,1.868c-.009.065.086.1.1.028a7.01,7.01,0,0,1,1.074-2.024c.065-.106.12-.217.178-.326-.006.151-.012.3-.011.452.014,1.529.094,3.06.049,4.587,0,.027,0,.053,0,.08-.342.558-.622,1.156-.98,1.71-.261.405-.55.8-.813,1.2q0-1.456-.021-2.912c.2-.259.414-.507.615-.78A12.069,12.069,0,0,0,3.28,32.67a1.65,1.65,0,0,0,.178-.981.02.02,0,0,0-.04,0,5.39,5.39,0,0,1-1.447,2.824c-.051.055-.095.117-.143.175C1.815,33.836,1.8,32.985,1.777,32.135ZM3.621,97.9a18.265,18.265,0,0,1-1.953,3.333q0-1.284-.007-2.568c.405-.888.889-1.766,1.282-2.561.31-.628.567-1.25.93-1.849l.009-.016c.018.678.029,1.355.009,2.032-.043,1.467-.1,2.934-.166,4.4a.086.086,0,0,0-.1.049c-.251.519-.443,1.061-.686,1.583-.269.579-.661,1.081-.947,1.649a7.411,7.411,0,0,0-.347.839c.012-.827.022-1.653.026-2.48,0-.237,0-.475,0-.712a5.462,5.462,0,0,0,.384-.459,21.58,21.58,0,0,0,1.766-3.125C3.883,97.886,3.686,97.771,3.621,97.9ZM1.432,128.089a13.752,13.752,0,0,1,1.21-2.354,11.677,11.677,0,0,0,.777-1.261c.008.783.014,1.566.024,2.35a5.19,5.19,0,0,0-.884,1.557c-.264.583-.718,1.077-.615,1.75.015.1.173.074.172-.023a4.854,4.854,0,0,1,.727-1.788,5.214,5.214,0,0,1,.605-1.146q.074,5.593.186,11.185a13.8,13.8,0,0,0-.909,1.762c-.286.621-.5,1.278-.833,1.873-.033.059-.063.107-.092.153-.012-.838-.023-1.676-.04-2.514-.064-3.138-.347-6.273-.352-9.41C1.406,129.512,1.42,128.8,1.432,128.089Zm.607,26.691c-.052-.563-.127-1.025-.133-1.489-.03-2.634-.044-5.269-.069-7.9l.136-.018a.086.086,0,0,0,.079-.061,15.418,15.418,0,0,1,1.485-3.017c.067-.133-.132-.25-.2-.117-.272.538-.6,1.041-.894,1.569-.1.184-.2.371-.282.565a3.719,3.719,0,0,1-.326.883Q1.824,144,1.81,142.808s0-.006,0-.01c.042-.385.494-.875.652-1.233.223-.505.409-1.025.634-1.53.17-.381.345-.764.542-1.132q.027,1.423.052,2.846c.027,1.491.152,2.98.231,4.469a.928.928,0,0,0,.951.973q3.3.4,6.6.844c-.276.488-.674.951-.939,1.346-.6.894-1.2,1.788-1.745,2.714-.784,1.32-1.669,2.61-2.392,3.974C4.953,155.648,3.5,155.206,2.039,154.78Zm7.571-3.312c.547-.9,1.133-1.781,1.705-2.667.15-.232.313-.474.445-.728l.238.032,1.541.214c-.149.314-.272.643-.417.968a14.244,14.244,0,0,1-1.651,2.408c-.571.8-1.027,1.681-1.572,2.5-.445.668-1.014,1.912-1.724,2.325a.1.1,0,0,0-.032.039c-.437-.119-.875-.239-1.311-.365Q8.194,153.816,9.61,151.468Zm-1.121,5.184a2.074,2.074,0,0,0,.858-.948c.574-.933,1.224-1.812,1.778-2.76.533-.91,1.2-1.7,1.775-2.579a18.54,18.54,0,0,0,.924-2.007l1.635.229a33,33,0,0,1-2.306,4.519,28.687,28.687,0,0,1-1.613,2.467,9.3,9.3,0,0,0-1.019,1.6c-.449-.112-.9-.222-1.347-.336C8.945,156.778,8.717,156.713,8.489,156.652Zm6.157,1.512c.525-.783.992-1.561,1.447-2.394a18.981,18.981,0,0,1,1.9-2.613,10.4,10.4,0,0,0,2-3.9c.556.088,1.112.176,1.667.27.039.007.078.01.117.016-.315.591-.643,1.176-.918,1.785a6.464,6.464,0,0,1-.9,1.565,7.875,7.875,0,0,0-.783,1.029c-.518.887-.894,1.768-1.491,2.616a6.576,6.576,0,0,0-1.055,2.081Q15.642,158.4,14.646,158.164ZM106.815,19a97.791,97.791,0,0,0-.487,12c-.041,4.2.01,8.408.1,12.611.073,3.611.332,7.22.361,10.831.041,5.185-.041,10.371-.093,15.557-.049,5.027-.078,10.054-.2,15.078-.149,5.968-.431,11.933-.584,17.9-.137,5.337-.275,10.674-.115,16.019.138,4.592-.024,9.193-.017,13.79.006,4.085.052,8.169.1,12.254.011.931.094,1.862.146,2.825-.512.185-.912.332-1.313.474-3.512,1.24-7.023,2.488-10.54,3.713-1.407.49-2.815.995-4.252,1.382C84.114,155,78.3,156.519,72.5,158.057c-4.1,1.085-8.175,2.225-12.162,3.671-.405.147-.791.347-1.191.511-.571.234-1.129.562-1.772.17a.82.82,0,0,0-.459-.033c-5.57.523-11.142.007-16.714.022-1.1,0-2.2.085-3.3.122-.419.014-.84,0-1.385,0,.114-.937.233-1.781.316-2.629.136-1.4.333-2.81.357-4.217.137-7.815.23-15.63.335-23.445.013-.982,0-1.964.016-2.945.043-3.023.094-6.046.138-9.069a7.564,7.564,0,0,0-.172-2.014c-.126,1.392-.291,2.782-.375,4.176a.127.127,0,0,0-.111.115c-.119,1.2-1.2,2.187-1.863,3.14-.673.971-1.275,1.982-1.873,3-1.209,2.058-2.473,4.089-3.585,6.2a.131.131,0,0,0,.225.132c1.406-2.249,2.739-4.546,4.062-6.844A35.206,35.206,0,0,1,35,125a8,8,0,0,0,1.087-1.707c-.273,5.1-.538,10.21-.76,15.318-.133,3.06-.175,6.125-.255,9.188-.078,2.983-.146,5.967-.234,8.95-.018.626-.088,1.253-.156,1.877-.142,1.32-.3,2.638-.462,4.078-.92-.256-1.846-.543-2.786-.769q-2.8-.673-5.617-1.289c-2.338-.517-4.686-.99-7.019-1.524l-1.88-.43a22.993,22.993,0,0,1,1.211-2.08c.608-.846.92-1.79,1.462-2.666a16.839,16.839,0,0,0,1.369-2.025c.348-.786.737-1.553,1.1-2.331A7.131,7.131,0,0,0,25,149.268a2.658,2.658,0,0,1,.944-.208,19.642,19.642,0,0,1-1.056,1.793c-.514.914-1.108,1.778-1.648,2.676-1.068,1.779-2.273,3.456-3.238,5.3-.045.085.066.181.138.106a17.479,17.479,0,0,0,1.771-2.763c.637-.985,1.269-1.961,1.882-2.962.578-.944,1.117-1.906,1.682-2.857a10.818,10.818,0,0,0,.7-1.248,1.135,1.135,0,0,1,.271.122c.357.223.68-.029.754-.462a6.425,6.425,0,0,0,.1-.936c.03-1.387.062-2.775.079-4.162a6.365,6.365,0,0,1,.337-.64c.68-1.1,1.468-2.1,2.112-3.239,1.552-2.75,3.195-5.45,4.765-8.191a.157.157,0,0,0-.271-.159c-1.562,2.676-3.193,5.314-4.736,8-.631,1.1-1.311,2.089-2.022,3.131-.063.093-.119.189-.176.285,0-.146.005-.293.006-.44q0-.482,0-.964c.355-.5.732-.993,1.037-1.531.928-1.64,1.809-3.324,2.684-4.994.351-.67.667-1.343.962-2.038a27.041,27.041,0,0,1,1.343-2.372c.4-.737.658-1.538,1.036-2.286a10.887,10.887,0,0,0,.994-2.03.154.154,0,0,0-.3-.082,14.112,14.112,0,0,1-1.109,2.25,24.6,24.6,0,0,1-1.082,2.3c-.912,1.5-1.6,3.064-2.434,4.612-.878,1.625-1.685,3.37-2.685,4.92-.146.228-.3.454-.45.68q0-4.032,0-8.063l.086-.093a.1.1,0,0,0-.086-.175v-.069a10.66,10.66,0,0,1,1.652-2.559c.876-1.3,1.94-2.484,2.75-3.824.893-1.478,2.034-2.847,2.786-4.4.784-1.616,1.718-3.167,2.522-4.779.076-.152-.151-.286-.228-.134-.867,1.711-1.833,3.362-2.706,5.065a20.263,20.263,0,0,1-1.627,2.348c-.524.744-.918,1.564-1.443,2.308-.881,1.247-1.832,2.448-2.722,3.69-.257.358-.67.831-.983,1.331v-2.775a8.86,8.86,0,0,0,1.493-2.176c.516-.778,1.066-1.533,1.582-2.312s1.214-1.441,1.769-2.207c.613-.848.888-1.843,1.535-2.678a11.068,11.068,0,0,0,1.284-2.2c.592-1.278,1.906-2.484,1.729-3.991-.011-.1-.162-.1-.156,0,.1,1.461-1.362,2.906-1.985,4.167a15.331,15.331,0,0,1-1.533,2.336c-.492.667-.676,1.488-1.172,2.167-.459.628-1.022,1.17-1.485,1.8s-.843,1.3-1.3,1.926a15.106,15.106,0,0,0-1.044,1.612,7.876,7.876,0,0,1-.722,1.214q0-3.456,0-6.913c.053-.121.1-.241.151-.352a35.479,35.479,0,0,1,1.815-3.661,62.771,62.771,0,0,0,4.08-7.645c.051-.126-.167-.219-.22-.093a50.375,50.375,0,0,1-3.789,6.885c-.681,1.1-1.25,2.245-1.833,3.4-.073.144-.139.306-.2.473v-.7h.187q-.011-1.433-.022-2.865c.286-.435.551-.883.876-1.3a18.324,18.324,0,0,0,1.223-1.594c.946-1.514,1.659-3.154,2.616-4.667s1.684-3.175,2.61-4.716a9.024,9.024,0,0,0,1.294-2.805q.059,3.229.126,6.458a6.043,6.043,0,0,0,.389,2.114,1.747,1.747,0,0,0,.209-.524c.042-.863.055-1.727.072-2.591.074-3.81.218-7.62.2-11.428C37.162,90.89,37,85.9,36.928,80.916c-.039-2.9-.007-5.792.163-8.69l.539,9.808c.843-3.15.122-15.2-.359-17.144-.125.911-.231,1.548-.295,2.19-.062.624-.081,1.253-.153,1.881,0-3.144.02-6.288-.006-9.432-.023-2.788-.11-5.575-.146-8.363-.083-6.48-.191-12.959-.211-19.439-.009-2.936.168-5.872.265-8.946l20,.275c0,1.651-.02,3.133,0,4.615.125,7.934.162,15.871.427,23.8.186,5.55-.131,11.076-.354,16.607A114.153,114.153,0,0,0,56.928,82.2a31.171,31.171,0,0,1-.113,3.293,12.389,12.389,0,0,0,.194,2.84,9.774,9.774,0,0,0,.219-1.211c.306-5.332.627-10.66.594-16.007-.052-8.682-.015-17.365-.037-26.048q-.017-6.483-.114-12.966c-.039-2.67-.088-5.343-.254-8.007a1.4,1.4,0,0,1,1.454-1.684c4.332-.478,8.668-.92,13-1.437,2.22-.265,4.419-.7,6.638-.984,3.116-.4,6.253-.639,9.361-1.09,5.865-.851,11.715-1.806,17.571-2.712.53-.082,1.068-.122,1.77-.2C107.063,17.092,106.942,18.048,106.815,19Z" transform="translate(0 0)" fill="#474546"/>
    <path id="Path_215" data-name="Path 215" d="M17.43,2.12a3.857,3.857,0,0,0-.182-.765,1.036,1.036,0,0,0-.281.69c-.075,2-.2,4-.2,6,.015,4.988.127,9.977.136,14.965.008,4.634-.022,9.268-.119,13.9-.09,4.318-.375,8.633-.423,12.951-.071,6.319.013,12.641-.008,18.961-.017,5.143-.122,10.286-.132,15.429-.006,3.3.118,6.6.129,9.9.009,2.592-.069,5.184-.1,7.777-.071,5.3-.129,10.606-.225,15.908a6.674,6.674,0,0,1-.387,1.571c-.015.054-.12.082-.233.156l-.6-.2a3.338,3.338,0,0,1-.043-.389q.119-8.362.242-16.723c.079-5.577.306-11.158.178-16.73-.086-3.764-.366-7.524-.245-11.3.052-1.607.085-3.216.119-4.824,0-.035-.083-.072-.14-.118l-.2.857L9.206,71.283V66.628l5.513-.816.291.934a92.778,92.778,0,0,0,.69-9.658c.05-3.882-.1-7.767-.15-11.651-.054-4.24-.088-8.48-.137-12.721q-.056-4.968-.127-9.935l-.148,0c-.061.734-.122,1.468-.188,2.261l-2.631.324a1.743,1.743,0,0,0,.4-.813c.033-.219-.3-.316-.338-.093a2.238,2.238,0,0,1-.522.963l-3.171.391c-.068-1.592-.176-3.015-.138-4.463,1.193-.173,2.239-.332,3.286-.474s2.068-.261,3.121-.393l.179.934.19,0q.1-10.112.2-20.2a3.956,3.956,0,0,0,.8-.363.851.851,0,0,0,.3-.543c.008-.084-.27-.229-.439-.287a1.119,1.119,0,0,0-.463-.006c-1.483.159-2.971.287-4.447.5-3.265.461-6.519,1-9.789,1.422A1.117,1.117,0,0,0,.346,3,9.773,9.773,0,0,0,.268,7.773a3.308,3.308,0,0,1,.1.929c0,2.787.009,5.574-.041,8.361C.239,22.047.047,27.031.019,32.015,0,35.824.173,39.633.241,43.442c.053,2.985.189,5.974.09,8.955C.121,58.679-.135,64.954.083,71.244c.17,4.906.166,9.817.256,14.725C.456,92.291.65,98.612.7,104.935c.044,5.851-.067,11.7-.093,17.556,0,.656.1,1.312.172,2.126.669-.045,1.14-.035,1.595-.113,2.319-.4,4.627-.866,6.952-1.226a29.957,29.957,0,0,0,6.04-1.521,2.513,2.513,0,0,0,1.273-.929,4.632,4.632,0,0,0,.56-2.016c.187-4.785.357-9.573.449-14.361.079-4.123.088-8.247.058-12.37-.047-6.432-.166-12.863-.231-19.294-.039-3.806-.033-7.612-.044-11.419-.016-5.7-.069-11.393-.026-17.089.02-2.668.271-5.334.333-8,.063-2.707,0-5.416.033-8.124.067-6.442.277-12.882-.137-19.322C17.488,6.6,17.5,4.356,17.43,2.12ZM14.078,77.46v4.121l-2.2.527c.171-.271.335-.547.537-.826.134-.186-.171-.357-.305-.179-.277.369-.436.764-.72,1.122l-2.294.55V79.614q.315-.572.616-1.153Zm-12,33.37c-.065-1.017-.153-1.908-.168-2.8-.012-.7.066-1.4.107-2.166l3.966-1.05c-.043.069-.084.139-.128.208a7.958,7.958,0,0,0-1.632,3.806.146.146,0,0,0,.285.038A14.492,14.492,0,0,1,6.6,104.816c.042-.064.08-.13.12-.2l.845-.223v3.081c-.451.715-.936,1.406-1.38,2.139ZM3.691,98.437a.126.126,0,0,0,.237-.008c0-.019.013-.035.018-.054l3.909-.949a24.76,24.76,0,0,1-.071,3.86c-.38.791-.734,1.578-1.134,2.35l-4.6,1.241c-.2-1.995-.148-3.927-.212-5.99ZM7.98,96.391l-3.628.932c.2-.427.431-.843.625-1.288.336-.772.614-1.568.947-2.341.271-.628.519-1.266.771-1.9l1.285-.342Zm-.31,6.971-.312.084q.174-.36.336-.726C7.683,102.934,7.674,103.147,7.669,103.362Zm-.107,5.112v.736l-.592.175C7.166,109.079,7.365,108.776,7.562,108.473ZM8.6,109.793l5.1-1.353V114.3l-5.329,1.548C8.449,113.713,8.521,111.8,8.6,109.793Zm.065-.89v-2.274c.069-.135.139-.271.2-.41.394-.857.828-1.7,1.307-2.52,1.153-.334,2.355-.566,3.618-.838v4.64Zm0-3.461v-1.227c.258-.106.52-.2.783-.289C9.166,104.424,8.91,104.932,8.663,105.442ZM8.117,89.8a.783.783,0,0,1-.606.878l-.407.11c.21-.5.428-1,.675-1.486.113-.222.233-.438.35-.656C8.125,89.031,8.12,89.415,8.117,89.8ZM9,97.142l1.043-.25c-.388.711-.762,1.431-1.131,2.153C8.939,98.414,8.968,97.783,9,97.142Zm-1.9-7.6c-.222.469-.43.946-.634,1.426-1.084.295-2.176.593-3.306.9a32.094,32.094,0,0,1,1.457-3.442c.62-1.378,1.248-2.752,1.923-4.1l1.475-.4a9.657,9.657,0,0,1,.154,1.165c0,.84-.012,1.68-.022,2.52C7.77,88.239,7.407,88.875,7.093,89.538ZM1.57,92.3V85.668l4.364-1.184c-.789,1.578-1.516,3.186-2.247,4.791A14.13,14.13,0,0,0,2.54,92.034Zm5.481-8.98c.085-.162.167-.327.253-.488.2-.366.4-.73.6-1.093v1.33Zm3.413.006a18.3,18.3,0,0,0-.892,1.731c-.127.255-.267.5-.4.752V83.645ZM9.1,78.775V78.6l.11-.025C9.172,78.643,9.134,78.709,9.1,78.775ZM7.863,61.345l.231-.061V65.2q-.3.473-.57.961l-2.5.451c.057-.135.115-.268.176-.4.706-1.5,1.712-2.833,2.415-4.332C7.7,61.7,7.781,61.523,7.863,61.345ZM12.722,8.7c-.119.529-.616.839-.833,1.316a11.6,11.6,0,0,1-.824,1.808c-.72,1.079-1.4,2.2-2.058,3.315l-.478.083V11.4A28.494,28.494,0,0,0,10,8.943Zm.2-.018,1.58-.138v5.634l-4.924.86.033-.058a31.493,31.493,0,0,0,2.249-3.822A7.737,7.737,0,0,1,12.431,9.7a2.2,2.2,0,0,0,.5-.98C12.937,8.705,12.928,8.7,12.925,8.687Zm-3.779,45.6V49.1l5.311-1.144v5.481Zm1.486.574a5.653,5.653,0,0,1-.93,1.555,6.717,6.717,0,0,0-.484.884V55.083ZM9.1,48.14V43.483l5.422-1.019V47Zm5.419-6.665c-.848.18-1.716.38-2.59.547s-1.769.3-2.8.481a44.589,44.589,0,0,1-.2-4.7l5.6-.793Zm-.113-5.34-4.915.7c.335-.534.679-1.063,1.051-1.581A16.452,16.452,0,0,0,11.7,33.1c.09-.176.191-.343.3-.509l2.407-.18Zm-4.592-.7c-.327.444-.627.906-.918,1.373V32.821l2.579-.193A31.443,31.443,0,0,1,9.811,35.439Zm-1.8,1.581-1.538.25c.505-1.2.96-2.419,1.5-3.607C8.026,34.783,8.01,35.88,8.015,37.02Zm-.067-4.867-6.5.78V27.754l6.5-1.031ZM1.406,21.58V16.724l4.208-.456a12.183,12.183,0,0,0-.675,1.313c-.528,1.265-.649,2.634-1.5,3.754Zm.013.529,4.448-.395c-.006.014-.009.028-.015.041a5.889,5.889,0,0,0-.516,1.627c-.018.184.267.212.315.042a18.608,18.608,0,0,1,.723-1.756L7.8,21.542v4.393L1.419,27.07Zm6.349-1.3-1.128.136a14.252,14.252,0,0,1,.708-1.788c.139-.274.28-.547.421-.82Zm-1.205-1.14a13.7,13.7,0,0,0-.456,1.34l-2.318.28c.835-.892,1.013-2.186,1.44-3.3a14.119,14.119,0,0,1,.9-1.783l1.636-.177v1.242A26.037,26.037,0,0,0,6.563,19.673Zm-.02-4.25c.408-.86.7-1.769,1.149-2.612.052-.1.107-.194.161-.291v2.741ZM9.551,9c-.317.56-.669,1.105-1.022,1.651V9.07l1.032-.09Zm-1.7,2.722c-.245.4-.479.811-.684,1.232-.369.758-.647,1.557-1.015,2.315-.036.073-.076.143-.113.215l-4.7.582V9.955l6.515-.841ZM7.843,32.87c-.054.108-.109.214-.16.323-.642,1.362-1.145,2.785-1.747,4.164l-4.424.718c-.073-1.57-.141-3.038-.218-4.693ZM5.548,38.217v0c-.319.657-.682,1.291-.936,1.978-.235.635-.206,1.722-.635,2.252a.157.157,0,0,0,.222.222,2.15,2.15,0,0,0,.545-1.306A10.1,10.1,0,0,1,5.7,38.979c.14-.277.271-.556.4-.838l1.964-.27v.358q-.347.622-.686,1.25A19.3,19.3,0,0,0,6.4,41.4a10.487,10.487,0,0,1-.625,1.716l-4.069.735c-.162-1.735-.125-3.349-.142-5.088ZM8.06,39.278V42.7l-1.789.323a6.651,6.651,0,0,0,.388-.977,16.456,16.456,0,0,1,1.148-2.318C7.891,39.58,7.976,39.43,8.06,39.278ZM1.8,50.544l6.178-1.229v5.126l-6.35,1.254C1.443,53.988,1.835,52.345,1.8,50.544Zm.049-.849V44.573l6.246-.939c.052,1.632-.018,3.131-.1,4.738Zm7.693,7.936c.424-.935,1.323-1.795,1.468-2.832l3.462-.549c.093,1.6.181,3.1.277,4.744l-2.475.556a.152.152,0,0,0-.156-.241l-.169.029a.143.143,0,0,0-.076.225c-.024.03-.046.063-.07.093l-2.581.58v-1.89C9.324,58.108,9.429,57.869,9.537,57.631Zm1.586,3c-.09.137-.18.273-.271.4-.367.516-.7,1.059-1.051,1.583l-.588.866V61.041ZM8.018,71.54l-3.382.783a10.079,10.079,0,0,1,.86-1.6,43.63,43.63,0,0,0,2.2-3.854l.355-.059A35.652,35.652,0,0,1,8.018,71.54Zm7.09-6.562-5.9.923v-1.58q.382-.586.772-1.169c.409-.614.783-1.253,1.2-1.86.164-.238.316-.5.468-.771l3.07-.651C14.856,61.63,14.977,63.242,15.109,64.979Zm-.587-33.393-1.971.186c.091-.133.183-.266.27-.4.442-.685,1.161-1.722.969-2.582a.165.165,0,0,0-.272-.071l-.233.2c-.131.112.047.347.186.242h0a6.693,6.693,0,0,1-1.48,2.668v0l-3.175.3V32c.662-1.182,1.4-2.324,2-3.537.354-.707.557-1.509.913-2.214l3.163-.378A54.531,54.531,0,0,1,14.522,31.586ZM11.3,26.3c-.323.7-.558,1.434-.92,2.12-.484.915-1.033,1.794-1.56,2.685V26.6ZM8.6,20.6V16.77c.164-.3.33-.6.5-.9l5.381-.947c.149,1.648.288,3.184.434,4.793ZM8.548,1.94l6.212-.723c.21,2.226-.232,4.3-.208,6.5l-4.2.354a6.388,6.388,0,0,1,.462-1.475,3.985,3.985,0,0,0,.74-1.54c.017-.15-.246-.187-.267-.036-.093.7-.608,1.091-.886,1.695A11.979,11.979,0,0,0,9.929,8.1l-1.359.114C8.279,6.109,8.641,4.1,8.548,1.94ZM1.19,2.908,8.2,2.032c-.1,2.087-.2,4.1-.3,6.209l-6.716,1ZM1.5,56.45l6.547-1.2V59.9c-.106.234-.214.466-.323.7L.912,62.585C1.115,60.478,1.3,58.519,1.5,56.45ZM.9,63.169l6.4-1.676c-.108.217-.215.435-.327.647-.687,1.3-1.548,2.5-2.178,3.835-.115.244-.22.491-.321.739L.844,67.37A16.662,16.662,0,0,1,.9,63.169Zm3.276,4.285a10.241,10.241,0,0,1-1.049,2.109c-.089.129.1.264.21.162a6.307,6.307,0,0,0,1.387-2.363l2.348-.391c-.736,1.363-1.555,2.656-2.326,4a8.655,8.655,0,0,0-.674,1.486L1,73.166C.8,71.48.867,69.83.783,68.019ZM.921,73.988l2.9-.644a7.451,7.451,0,0,0-.161,1.08.148.148,0,0,0,.289.039c.094-.415.208-.823.341-1.224l3.632-.806a48.932,48.932,0,0,1,.03,5.5L1.3,79.64C1.17,77.716,1.05,75.929.921,73.988Zm.514,6.5,6.474-1.623v2c-.5.87-1,1.742-1.473,2.631l-5,1.461Zm.214,12.643.822-.219a2.241,2.241,0,0,0,.074.442c.033.12.245.141.264,0,.026-.189.061-.374.1-.558l3.136-.833c-.291.718-.574,1.44-.865,2.155a30.321,30.321,0,0,0-1.307,3.327l-1.9.487A11.788,11.788,0,0,1,1.649,93.132Zm5.689,28.434c-.828.147-1.667.277-2.5.451a1.954,1.954,0,0,0-1.194.529c-.384.393-1.2.36-1.988.553.118-1.64.225-3.1.335-4.624l5.344-1.308Zm.072-5.476-5.337,1.463v-5.969l3.532-.972a8.047,8.047,0,0,0-.43.915,8.286,8.286,0,0,1-.648,1.741c-.076.114.081.286.2.2a1.948,1.948,0,0,0,.632-.966,14.3,14.3,0,0,1,.994-2.09l1.061-.291Zm.124,6.464-.046-.227,1.217-.267.038.157Zm.921-1.625v-4.063l5.159-1.458c.062,1.387.118,2.658.168,3.791Zm2.876.745-1.538.4A1.541,1.541,0,0,1,11.331,121.674Zm.041-.012c.058-.116.089-.293.173-.324.758-.273,1.527-.516,2.293-.768l.091.281Zm2.458-19.884-2.912.744c.168-.246.335-.494.515-.731a4.792,4.792,0,0,0,.784-1.467c.212-.65.618-1.232.766-1.886a.16.16,0,0,0-.309-.085c-.161.584-.59,1.118-.8,1.707a7.033,7.033,0,0,1-1.181,1.925c-.175.233-.338.478-.5.723l-1.471.376c.045-.978.088-1.916.131-2.843.595-1.166,1.186-2.335,1.793-3.494l3.391-.813C13.965,98,13.9,99.821,13.831,101.778Zm.227-6.867-2.705.654c.15-.226.3-.452.453-.687.389-.605.43-1.442.88-1.984.16-.192-.113-.472-.278-.278a3.623,3.623,0,0,0-.582,1.307,9.05,9.05,0,0,1-1.115,1.8l-1.6.387V91.165l4.951-1.34Zm.036-6L9.168,90.2V86.771c.337-.6.669-1.207.97-1.832a11.7,11.7,0,0,1,.973-1.774l2.921-.722C14.28,84.624,14.061,86.714,14.094,88.909Zm.164-12.417-4.012.9c.279-.607.52-1.22.758-1.85a20.459,20.459,0,0,0,1.118-2.209.144.144,0,0,0-.277-.077,5.307,5.307,0,0,1-.735,1.193,7.249,7.249,0,0,0-.435,1c-.277.7-.58,1.379-.909,2.049l-.632.142v-5.46l5.6-1.173C14.566,72.929,14.415,74.669,14.258,76.491Z" transform="translate(63.929 26.073)" fill="#474546"/>
    <path id="Path_216" data-name="Path 216" d="M17.7,10.176c-.158-2.506-.136-5.023-.22-7.534a10.957,10.957,0,0,0-.223-1.4l-.3.027c-.06,2.233-.221,4.469-.161,6.7q.267,9.959.052,19.915c-.074,3.221-.012,6.445-.093,9.665-.074,2.944-.336,5.884-.373,8.827-.066,5.382-.012,10.765-.035,16.149-.03,7.072-.107,14.144-.124,21.217-.01,4.241.1,8.484.078,12.726-.043,7.068-.158,14.137-.226,21.206a2.963,2.963,0,0,1-.541,1.838c-.573.033-.866-.143-.809-.737.064-.664.1-1.332.113-2,.122-7.619.261-15.237.344-22.857.038-3.453.1-6.917-.1-10.36a114.445,114.445,0,0,1-.039-11.773c.044-1.016.007-2.035.007-3.113-.116.5-.219.948-.331,1.438-1.864.364-3.655.874-5.5,1.1V66.6l5.59-.823c.074.444.128.764.213,1.275.072-.314.11-.426.121-.54A109.584,109.584,0,0,0,15.66,54.17c-.156-6.6-.171-13.2-.242-19.794-.033-3.1-.055-6.208-.088-9.313a2.432,2.432,0,0,0-.04-.377c-.014-.4-.035-.8-.018-1.2a19.637,19.637,0,0,0,.162-4.4l-.006,0a.14.14,0,0,0-.041-.054V1.379C15.824.881,16.7,1.072,16.675.1a6.1,6.1,0,0,0-1.031-.09C14.628.09,13.611.19,12.6.331,8.87.852,5.144,1.415,1.409,1.905a1.028,1.028,0,0,0-1.037.9A10.3,10.3,0,0,0,.206,7.47,4.776,4.776,0,0,1,.33,8.637Q.306,17.652.262,26.669c0,.707-.034,1.414-.06,2.12-.066,1.766-.218,3.533-.189,5.3C.086,38.68.3,43.273.337,47.867c.025,2.9-.181,5.808-.246,8.713C-.086,64.556.069,72.529.266,80.5c.121,4.87-.061,9.75.155,14.614.2,4.556.345,9.108.314,13.666S.611,117.9.57,122.452a19.018,19.018,0,0,0,.208,2.061,10.052,10.052,0,0,0,1.348-.009c1.589-.244,3.178-.495,4.758-.79a47.942,47.942,0,0,0,8.479-1.964c.528-.2,1.093-.37,1.288-.931a8.456,8.456,0,0,0,.555-2.262c.11-2.078.084-4.162.154-6.242.082-2.432.3-4.862.3-7.293-.01-6.715-.118-13.43-.164-20.146q-.1-14.082-.16-28.163c-.039-6.4-.061-12.8.318-19.2.171-2.9.045-5.814.072-8.722C17.78,22.588,18.087,16.384,17.7,10.176ZM14.142,88.863,9.884,89.989c.154-.2.308-.4.458-.609a30.326,30.326,0,0,1,2.253-3.127.16.16,0,0,0-.227-.227,16.989,16.989,0,0,0-2.211,2.851c-.316.445-.652.872-.99,1.3v-4.8c.162-.239.327-.478.5-.723.335-.468.655-.938.981-1.4l3.363-.817C14.348,84.606,14.021,86.666,14.142,88.863ZM8.58,109.782l5.093-1.37V114.3l-5.294,1.533C8.447,113.772,8.511,111.847,8.58,109.782Zm.1-.906v-.857c.422-.553.844-1.107,1.237-1.678a7.884,7.884,0,0,0,1.336-2.383.193.193,0,0,0-.373-.1,8.384,8.384,0,0,1-1.531,2.57c-.219.3-.445.589-.67.882v-3.238L13.73,102.8v4.686ZM7.5,108.865c-.1.135-.2.274-.293.412l-5.194,1.556v-4.976l5.521-1.486v4.449ZM3.888,98.871a3.67,3.67,0,0,1,.212-.557l3.547-.866a16.934,16.934,0,0,1-.108,5.921l-5.549,1.5c-.031-1.049-.07-2-.083-2.953-.014-.976,0-1.953,0-3.067l1.756-.429a2.372,2.372,0,0,0-.074.408C3.572,99.006,3.843,99.034,3.888,98.871ZM1.572,92.283v-6.63l6.5-1.786v2.426a11.713,11.713,0,0,0-.693,1.273c-.581,1.257-1.3,2.449-1.983,3.658Zm6.121-4.331c.121-.263.248-.512.377-.758v3.288l-2.021.56C6.62,90.025,7.207,89.011,7.693,87.953ZM4.77,97.188c.329-.467.686-.914.982-1.327.767-1.071,1.5-2.178,2.224-3.28v3.791ZM8.7,103.07c.1-2.069.2-3.939.3-5.944l4.922-1.2c.154,2-.079,3.881-.06,5.827Zm.346-6.993c0-1.563,0-2.964,0-4.366a.692.692,0,0,1,.612-.731c1.43-.373,2.856-.761,4.38-1.168v5.107ZM9.167,84.69V83.612l.936-.227c-.152.21-.3.42-.455.634C9.486,84.248,9.325,84.47,9.167,84.69Zm4.929-3.15-2.661.648c.273-.349.558-.69.871-1.018.133-.14-.077-.352-.213-.213-.424.437-.811.892-1.181,1.358l-1.853.451V78.585L14.1,77.447ZM8.02,71.519l-1.994.461c.067-.142.129-.277.182-.387a28.034,28.034,0,0,1,1.659-3.084c.05-.077.1-.154.153-.231Zm6.5-62.973v5.623l-5.172.887c.1-.154.2-.308.3-.459A19.383,19.383,0,0,0,11.2,12.246c.327-.667.574-1.353.952-2,.22-.374.844-1.4.048-1.49-.11-.013-.149.159-.056.206.4.207-2,4-3.373,6.188l-.225.038V11.1c.359-.711.7-1.427,1.037-2.148ZM9.08,48.123V46.049c.687-1.016,1.424-2,2.148-2.994l3.31-.618V46.96Zm5.346-.174v5.476l-5.312.84V49.079ZM5.06,48.984c.364-.7.71-1.416,1.078-2.117.583-1.111,1.237-2.175,1.873-3.252h.007v3.144c-.449.632-.916,1.252-1.365,1.883ZM3.892,19.912a5.105,5.105,0,0,1,.89-1.514c.391-.635.649-1.352.985-2.018.028-.055.057-.11.085-.165L7.751,16v.867c-.7,1.4-1.529,2.714-2.305,4.071-.025.044-.056.091-.083.136l-3.98.482V16.711l3.88-.431c-.091.192-.186.382-.274.575a13.792,13.792,0,0,1-.9,1.758,2.477,2.477,0,0,0-.514,1.257A.159.159,0,0,0,3.892,19.912ZM7.8,15.254l-1.555.189q.76-1.478,1.555-2.938Zm-1.119,4.59c.378-.631.723-1.283,1.066-1.936v2.879L6.012,21C6.234,20.612,6.457,20.226,6.685,19.844Zm7.1,18.827-.179.024c-.062.008-.1.093-.035.129a35.209,35.209,0,0,1-2.238,3.289c-.736.124-1.493.242-2.272.387v-.735c.451-.815.9-1.632,1.38-2.428.3-.5.651-.969.915-1.486.077-.15.145-.3.211-.454l2.9-.409v4.424A19.06,19.06,0,0,1,11.983,42,24.728,24.728,0,0,0,13.9,38.86C13.934,38.785,13.891,38.657,13.788,38.67Zm.581-2.559-2.338.335a2.612,2.612,0,0,1,.287-.384c.146-.16-.09-.4-.238-.239a4.262,4.262,0,0,0-.51.688L8.859,36.9V32.806l5.511-.42Zm-5.3,1.637,2-.281a12.3,12.3,0,0,1-.67,1.251c-.469.725-.9,1.474-1.327,2.225ZM4.523,49.1l-2.691.579V44.563l5.64-.865A51.021,51.021,0,0,0,4.523,49.1ZM9.08,43.456l1.491-.278c-.568.789-1.1,1.529-1.491,2.07ZM8.822,32.109V26.575l5.517-.666a17.611,17.611,0,0,0,.078,1.856.038.038,0,0,0,.076,0c.069-.631.123-1.263.177-1.9l.055-.007a8.758,8.758,0,0,0-.14,1.9.174.174,0,0,0,.236.134c-.083,1.212-.218,2.4-.234,3.647Zm5.935-7.086-.013.005c.005-.051.009-.1.014-.154C14.759,24.925,14.757,24.974,14.757,25.024Zm.065-3.714c-.039.678-.2,1.336-.3,2.006-.085.607-.137,1.214-.166,1.822-.106.016-.216.028-.328.036-.665.054-1.327.142-1.99.217l-3.389.386V21.289l6.194-.812C14.843,20.754,14.838,21.032,14.822,21.31Zm.045-1.606-6.259.867V16.3c.077-.14.154-.28.233-.418l5.711-.992c.036.865.042,1.633.1,2.4.054.648.147,1.3.239,2C14.884,19.426,14.873,19.565,14.867,19.7ZM7.8,11.444c-.206.38-.413.761-.62,1.145-.521.969-1.052,1.942-1.55,2.929l-4.29.523V9.933L7.8,9.087ZM4.915,21.769A5.078,5.078,0,0,0,3.856,24.1a.166.166,0,0,0,.325.044,6.786,6.786,0,0,1,1.135-1.969c.094-.152.182-.308.273-.462l2.195-.183c.02.692.05,1.405.06,2.119.011.7,0,1.4,0,2.249L1.455,27.055c-.068-1.682-.133-3.3-.2-4.98Zm3.024,4.949v5.429l-6.534.75V27.732Zm.025,6.138V37L1.5,38.046l-.2-4.7Zm.046,5v4.828l-6.258,1.14c-.193-1.674-.2-3.289-.232-5.08ZM1.8,50.53l2.329-.473c-.068.175-.14.347-.2.524-.039.112.125.17.184.078.143-.223.275-.452.406-.681l1.433-.291c-.72,1.156-.876,2.572-1.724,3.662a.112.112,0,0,0,.159.159c.957-.826,1.179-2.077,1.741-3.152.143-.274.305-.539.475-.8l1.345-.274v5.148L1.525,55.685Zm5.545-2.037c.225-.3.452-.6.675-.9v.758ZM9.228,60.186V55.061l5.175-.832A45.794,45.794,0,0,1,14.72,59l-4.1.884c.087-.119.174-.237.266-.354.747-.952,1.041-2.2,1.888-3.068.157-.146-.077-.378-.236-.235-.97.872-1.353,2.236-2.173,3.245-.148.182-.287.369-.422.558ZM8.061,66.033l-1.519.277c.478-.811,1-1.589,1.519-2.376Zm1.2-4.017c.227-.381.453-.761.691-1.135,1.03-.295,2.1-.5,3.2-.7-.909,1.218-1.648,2.522-2.6,3.72-.451.57-.88,1.161-1.3,1.759ZM14.891,65l-5.2.8c.315-.453.629-.908.952-1.351.507-.7,1.061-1.33,1.508-2.07.428-.708.813-1.431,1.3-2.1a.12.12,0,0,0,0-.149c.416-.077.838-.155,1.267-.24C14.708,61.662,15.288,63.264,14.891,65ZM8.552,1.914,14.8,1.2c.1,2.261-.226,4.337-.241,6.483L10,8.079c.553-1.119,1.194-2.134,1.652-3.312.055-.143-.151-.2-.228-.1l-.4.491a.059.059,0,0,0,.072.092c-.239.466-.447.948-.731,1.391-.315.492-.608.967-.87,1.478L8.552,8.2ZM9.071,9q-.256.53-.525,1.05V9.042ZM1.187,2.88l7-.861C8.1,4.122,8.012,6.1,7.924,8.2L1.187,9.224ZM1.5,56.42l6.527-1.191V60.5L.9,62.554C1.109,60.436,1.3,58.5,1.5,56.42ZM.826,63.625a.936.936,0,0,1,.594-.6c2.145-.593,4.3-1.141,6.641-1.751V63.06c-.025.038-.048.077-.072.115-.705,1.085-1.4,2.145-2.062,3.247l-5.088.926A16.029,16.029,0,0,1,.826,63.625ZM.731,68.007l4.722-.786A8.23,8.23,0,0,0,3.889,70.63c-.011.151.22.176.26.035a16.756,16.756,0,0,1,1.929-3.548l1.942-.324v.648L8,67.466A19.081,19.081,0,0,0,6.154,70.6c-.164.371-.343.962-.586,1.484l-4.6,1.063C.884,71.386.81,69.759.731,68.007Zm.192,5.947,3.851-.843a.115.115,0,0,0,.124.17,1.032,1.032,0,0,0,.5-.305l2.565-.562V77.9L1.283,79.613C1.157,77.633,1.044,75.845.923,73.953Zm.524,10.971V80.448l6.465-1.593v4.2Zm3.393,7.334c-.148.3-.29.6-.422.9a14.84,14.84,0,0,0-.794,1.689.12.12,0,0,0,.217.092A10.938,10.938,0,0,0,4.8,93.5c.22-.479.441-.949.684-1.415l2.5-.669v.3c-.134.182-.27.363-.4.551-.883,1.3-1.785,2.588-2.676,3.884-.243.354-.535.767-.783,1.2l-2.389.608c-.07-1.705-.132-3.215-.2-4.815Zm2.467,29.286-1.571.311a3.494,3.494,0,0,0-2.063.7c-.41.389-1.235.34-2.025.521.117-1.6.225-3.069.339-4.629l5.321-1.292ZM2.06,117.531v-5.968l4.439-1.22c-.764,1.219-1.458,2.48-2.311,3.648-.091.124.106.269.21.162a22.592,22.592,0,0,0,2.767-3.993l.373-.1c-.011.344-.023.678-.034,1.014a.187.187,0,0,0-.3.112,17.742,17.742,0,0,1-1.295,2.556,13.39,13.39,0,0,1-1.155,2.51c-.087.127.1.248.2.157a5.544,5.544,0,0,0,1.263-2.176c.344-.841.968-1.6,1.259-2.46-.049,1.443-.1,2.846-.147,4.318Zm6.471-.721,5.144-1.444V119.2l-5.1,1.681A10.823,10.823,0,0,1,8.531,116.81Zm2.531,5.035-1.87.245C9.941,121.776,10.467,121.47,11.061,121.845Zm2.507-.885c-.829.3-1.664.591-2.5.884h0c-.069-.426.291-.5.559-.594a12.251,12.251,0,0,1,2.614-.632A6.181,6.181,0,0,1,13.568,120.96Zm.688-44.491L9.108,77.628V72.172l5.553-1.179C14.7,72.881,14.339,74.626,14.256,76.469Z" transform="translate(85.99 23.382)" fill="#474546"/>
    <path id="Path_217" data-name="Path 217" d="M2.121,0l-.28,0c-.244,2.775-.6,5.546-.7,8.326-.083,2.27.249,4.554.194,6.827-.117,4.868-.359,9.733-.562,14.6C.523,35.759.2,41.762.025,47.768-.062,50.785.1,53.81.182,56.831a10.164,10.164,0,0,0,.306,1.632l.256-.02a5.33,5.33,0,0,0,.173-.859q.095-2.413.151-4.827c.118-5.341.169-10.684.356-16.023.224-6.4.631-12.788.822-19.186.1-3.49-.088-6.988-.122-10.482C2.1,4.711,2.121,2.355,2.121,0Z" transform="translate(54.732 98.212)" fill="#474546"/>
    <path id="Path_218" data-name="Path 218" d="M.636,9.377A53.35,53.35,0,0,0,.144,0C.328,6.285-.328,12.569.23,18.846A70.044,70.044,0,0,0,.636,9.377Z" transform="translate(37.675 106.32)" fill="#474546"/>
    <path id="Path_219" data-name="Path 219" d="M.628,10.422C.679,6.949.639,3.474.639,0,.575,7-.585,13.987.385,20.987.788,17.467.576,13.941.628,10.422Z" transform="translate(57.124 115.998)" fill="#474546"/>
    <path id="Path_220" data-name="Path 220" d="M.4,18.134C.406,12.718.479,7.3.525,1.887.531,1.258.526.629.526,0A13.961,13.961,0,0,0,.1,3.237C.012,9.118-.147,15,.316,20.876c.118,1.506.019,3.028.019,4.543a5.554,5.554,0,0,0,.283-1.3C.572,22.12.4,20.127.4,18.134Z" transform="translate(37.2 24.861)" fill="#474546"/>
    <path id="Path_221" data-name="Path 221" d="M0,0V4.188H0Q0,2.1,0,.014L0,.008V0Z" transform="translate(37.534 50.28)" fill="#474546"/>
    <path id="Path_222" data-name="Path 222" d="M.284,12.717C.834,11.345.91,1.188.379,0-.087,5.784-.129,11.38.284,12.717Z" transform="translate(57.043 144.815)" fill="#474546"/>
    <path id="Path_223" data-name="Path 223" d="M.292,13.307Q.473,6.653.654,0a68.252,68.252,0,0,0-.6,13.323Z" transform="translate(55.593 31.226)" fill="#474546"/>
    <path id="Path_224" data-name="Path 224" d="M0,0Q.121,2.58.241,5.159l.277-.016L.151.027Z" transform="translate(37.902 135.504)" fill="#474546"/>
    <path id="Path_225" data-name="Path 225" d="M0,.012v4.17l.215-.018c0-.7.022-1.391-.006-2.085S.106.693.051,0Z" transform="translate(55.703 55.048)" fill="#474546"/>
    <path id="Path_226" data-name="Path 226" d="M.171,0,0,.038V3.557l.171,0Z" transform="translate(37.507 91.64)" fill="#474546"/>
    <path id="Path_227" data-name="Path 227" d="M11.259.522c-2.3.224-4.61.392-6.9.689A14.433,14.433,0,0,0,0,2.273c.238,2.192-.3,4.386.287,6.5a2.253,2.253,0,0,0,.481.09c2.492-.278,4.987-.538,7.474-.853,2.877-.364,5.745-.791,8.622-1.158.668-.085,1.033-.417,1.029-1.043-.011-1.6-.015-3.21-.149-4.805-.08-.956-.269-1.059-1.228-.986C14.761.153,13.012.351,11.259.522ZM.941,7.929.567,2.372A72.114,72.114,0,0,1,8.1,1.681c.1,1.714.193,3.344.289,5ZM8.427,2.391q-.043-.336-.085-.671A1.95,1.95,0,0,1,8.637,1.7c.051.228.08.462.114.694ZM9.6,7.064C9.422,5.2,9.25,3.433,9.072,1.6c.412-.138.621.053.648.488.031.508.047,1.017.043,1.525A8.152,8.152,0,0,0,9.99,6.633C10.132,7.012,9.9,7.116,9.6,7.064ZM16.858.957a15.265,15.265,0,0,1,.091,4.388c-.144-1.3-.258-2.327-.371-3.356l-.286,0c-.1,1.18-.2,2.361-.3,3.629L10.669,6.788c-.076-.985-.106-1.839-.217-2.683s-.3-1.665-.472-2.571C12.236,1.3,14.475.711,16.858.957Z" transform="translate(75.844 5.875)" fill="#474546"/>
    <path id="Path_228" data-name="Path 228" d="M.107,9.54A67.4,67.4,0,0,0,.807,0,34.283,34.283,0,0,0,.107,9.54Z" transform="translate(20.972 32.654)" fill="#474546"/>
    <path id="Path_229" data-name="Path 229" d="M.2,9.545A88.773,88.773,0,0,0,.875,0C.11,2.818-.256,7.945.2,9.545Z" transform="translate(21.192 94.458)" fill="#474546"/>
    <path id="Path_230" data-name="Path 230" d="M.6,5.575c.14-.3.124-.613.288-.927A7.412,7.412,0,0,1,1.6,3.715C2.452,2.586,2.866,1.208,3.765.1c.044-.054-.032-.132-.077-.077a22.581,22.581,0,0,0-1.9,3.09C1.481,3.624,1,4.016.711,4.545.469,4.993.541,5.664.029,5.926a.061.061,0,0,0,.047.112A.7.7,0,0,0,.6,5.575Z" transform="translate(1.685 19.788)" fill="#474546"/>
    <path id="Path_231" data-name="Path 231" d="M.128,8.3c1.295-1.316,1.859-3.151,2.8-4.7C3.648,2.42,4.9,1.554,4.935.063c0-.086-.124-.083-.132,0C4.649,1.623,3.215,2.54,2.5,3.837,1.7,5.3.782,6.731.009,8.2A.076.076,0,0,0,.128,8.3Z" transform="translate(1.953 20.346)" fill="#474546"/>
    <path id="Path_232" data-name="Path 232" d="M.04,7.064A.081.081,0,0,0,.1,7.212c.916-.193,1.46-1.709,1.776-2.459C2.612,3.018,4.151,1.836,4.946.126,4.99.031,4.853-.053,4.8.042c-.137.266-.246.217-.4.431-.323.46-.466.961-.829,1.412-.435.539-.972.994-1.362,1.57C1.5,4.517,1.244,6.383.04,7.064Z" transform="translate(3.639 21.171)" fill="#474546"/>
    <path id="Path_233" data-name="Path 233" d="M1.09,7.139C1.7,6.158,2.507,5.3,3.2,4.375c.567-.748,1.156-1.488,1.7-2.247.434-.6,1.135-1.2,1.278-1.951C6.22,0,5.95-.078,5.912.1A6.954,6.954,0,0,1,4.371,2.3c-.457.526-.842,1.023-1.251,1.592C2.6,4.614,1.994,5.3,1.448,6.008,1.059,6.514.6,7.587.062,7.925a.129.129,0,0,0,.1.235C.649,8.072.854,7.515,1.09,7.139Z" transform="translate(27.28 22.807)" fill="#474546"/>
    <path id="Path_234" data-name="Path 234" d="M3.288,5.389c-.6.764-1.107,1.59-1.651,2.393A9.518,9.518,0,0,0,0,10.538a.088.088,0,0,0,.16.067c1.288-1.772,2.368-3.7,3.726-5.43C4.548,4.336,5.212,3.5,5.924,2.709S7.092.993,7.79.214C7.9.1,7.723-.079,7.614.039c-.708.766-1.2,1.684-1.9,2.46C4.87,3.43,4.063,4.4,3.288,5.389Z" transform="translate(27.602 23.667)" fill="#474546"/>
    <path id="Path_235" data-name="Path 235" d="M7.948.036c-1.492,1.746-2.784,3.643-4.1,5.524S1.469,9.485.033,11.3c-.105.133.065.318.192.192,1.485-1.472,2.351-3.448,3.487-5.178A64.827,64.827,0,0,1,8.1.19C8.191.084,8.04-.071,7.948.036Z" transform="translate(27.279 40.6)" fill="#474546"/>
    <path id="Path_236" data-name="Path 236" d="M6.81.037C5.93,2.285,4.183,4.107,3.2,6.3c-.569,1.27-1.015,2.6-1.575,3.873-.259.591-.56,1.152-.852,1.726a13.254,13.254,0,0,1-.757,1.638c-.06.086.075.19.145.112A3.867,3.867,0,0,0,.8,12.509c.307-.68.686-1.322.988-2.006C2.336,9.252,2.8,7.968,3.314,6.7c.938-2.332,2.8-4.246,3.6-6.634C6.938,0,6.836-.027,6.81.037Z" transform="translate(29.287 109.47)" fill="#474546"/>
    <path id="Path_237" data-name="Path 237" d="M1.318,4.116A29.717,29.717,0,0,0,2.705.14a.115.115,0,0,0-.19-.11L2.271.218c-.1.074.031.239.13.169a4.141,4.141,0,0,0-.236.638c-.168.422-.372.827-.549,1.246a10.808,10.808,0,0,0-.385,1.063C1.01,4.05.792,5.5.046,5.857c-.1.046-.024.179.069.163C.822,5.9,1.128,4.677,1.318,4.116Z" transform="translate(5.603 148.426)" fill="#474546"/>
    <path id="Path_238" data-name="Path 238" d="M5.959,3.655A24.155,24.155,0,0,1,7.848.255C7.964.111,7.762-.1,7.642.049A19.708,19.708,0,0,0,5.858,3.174c-.713,1.275-1.6,2.444-2.315,3.719C2.867,8.1,2.1,9.268,1.466,10.5A17.824,17.824,0,0,1,.448,12.4,1.868,1.868,0,0,0,0,13.406c-.009.154.211.168.256.035a8.742,8.742,0,0,1,.869-1.375c.318-.549.558-1.139.857-1.7.626-1.167,1.329-2.3,1.976-3.455C4.581,5.8,5.324,4.761,5.959,3.655Z" transform="translate(22.201 146.03)" fill="#474546"/>
    <path id="Path_239" data-name="Path 239" d="M7.557.227A.152.152,0,0,0,7.3.074C5.883,2.5,4.322,4.873,3.113,7.411c-.608,1.276-1.3,2.5-1.978,3.74A6.651,6.651,0,0,0,0,13.687c-.005.1.125.116.176.047a27.975,27.975,0,0,0,1.586-2.887c.652-1.175,1.26-2.36,1.843-3.571C4.771,4.853,6.231,2.566,7.557.227Z" transform="translate(25.904 144.904)" fill="#474546"/>
    <path id="Path_240" data-name="Path 240" d="M6.747.132c.123,2.536-2.241,4.689-3.357,6.8C2.668,8.3,1.8,9.6,1.112,10.985c-.3.6-.408,1.264-.7,1.868A3.06,3.06,0,0,0,0,13.95c-.014.131.2.154.227.031a10.593,10.593,0,0,1,.736-1.495,22.859,22.859,0,0,1,1.1-2.351c.754-1.327,1.435-2.7,2.206-4.019C5.363,4.242,7.177,2.466,7.021.132,7.01-.043,6.739-.045,6.747.132Z" transform="translate(27.856 145.204)" fill="#474546"/>
    <path id="Path_241" data-name="Path 241" d="M.291,10.321a6.985,6.985,0,0,1,1.3-2.7c.5-.815,1.058-1.584,1.616-2.359C4.372,3.639,5.488,1.98,6.507.256a.172.172,0,0,0-.3-.173c-1.192,2-2.53,3.9-3.893,5.786C1.7,6.72,1.153,7.611.622,8.516a2.711,2.711,0,0,0-.6,1.841C.053,10.518.277,10.463.291,10.321Z" transform="translate(27.817 136.707)" fill="#474546"/>
    <path id="Path_242" data-name="Path 242" d="M0,.311a.025.025,0,0,0,.05,0l0-.282A.03.03,0,0,0,0,.029Z" transform="translate(30.762 145.308)" fill="#474546"/>
    <path id="Path_243" data-name="Path 243" d="M2.309.06A6.635,6.635,0,0,0,.769,2.883a7.611,7.611,0,0,0-.7,3.854.145.145,0,0,0,.277,0C.86,4.68.963,1.933,2.615.366,2.818.173,2.514-.129,2.309.06Z" transform="translate(30.022 154.148)" fill="#474546"/>
    <path id="Path_244" data-name="Path 244" d="M.121,5.726C.335,4.673,1.631,3.87,2.3,3.108A29.482,29.482,0,0,1,4.625.121c.071-.063-.032-.162-.1-.1C3.331,1.011,2.7,2.446,1.6,3.514c-.6.582-1.49,1.3-1.6,2.2C-.007,5.778.107,5.793.121,5.726Z" transform="translate(45.112 31.056)" fill="#474546"/>
    <path id="Path_245" data-name="Path 245" d="M5.9.048A5.159,5.159,0,0,1,4.6,1.888,16.225,16.225,0,0,0,3.231,3.544C2.194,4.764,1.005,5.842.015,7.1c-.047.06.03.144.086.086A49.438,49.438,0,0,0,3.638,3.42,16.493,16.493,0,0,1,5.106,1.731,4.448,4.448,0,0,0,6.06.141C6.107.034,5.951-.061,5.9.048Z" transform="translate(44.27 33.85)" fill="#474546"/>
    <path id="Path_246" data-name="Path 246" d="M.141,4.665A23.137,23.137,0,0,0,2.243,1.9,2.813,2.813,0,0,0,3,.07C2.983-.038,2.8-.014,2.806.1c.069.718-.577,1.437-.964,1.994C1.257,2.935.632,3.745.014,4.567-.041,4.64.079,4.731.141,4.665Z" transform="translate(45.09 38.926)" fill="#474546"/>
    <path id="Path_247" data-name="Path 247" d="M.117,3.64c.483-.11.662-.607.848-1.013.373-.813.844-1.577,1.244-2.377C2.3.061,2.02-.106,1.924.084,1.591.747,1.231,1.4.917,2.069.687,2.56.556,3.2.046,3.471-.049,3.522.018,3.663.117,3.64Z" transform="translate(43.107 45.058)" fill="#474546"/>
    <path id="Path_248" data-name="Path 248" d="M4.008,3.781A15.14,15.14,0,0,1,6,1.461,2.284,2.284,0,0,0,6.941.082c.012-.093-.15-.116-.166-.022-.137.819-1.044,1.262-1.583,1.8A19.593,19.593,0,0,0,3.539,3.954c-.654.87-1.237,1.787-1.968,2.6A22.917,22.917,0,0,0,.015,8.781c-.058.081.068.171.135.1.742-.741,1.317-1.712,1.986-2.528S3.368,4.628,4.008,3.781Z" transform="translate(41.137 64.037)" fill="#474546"/>
    <path id="Path_249" data-name="Path 249" d="M6.78.027c-.544.474-.917,1.1-1.432,1.607-.62.611-1.192,1.266-1.811,1.877A28.073,28.073,0,0,0,.013,7.391c-.047.068.049.17.118.118A10.905,10.905,0,0,0,1.619,5.843c.658-.753,1.4-1.434,2.106-2.143C4.3,3.122,4.819,2.5,5.394,1.923,5.941,1.377,6.361.684,6.93.177,7.032.086,6.882-.061,6.78.027Z" transform="translate(41.985 68.247)" fill="#474546"/>
    <path id="Path_250" data-name="Path 250" d="M.136,7.553A2.378,2.378,0,0,0,1.23,6.63c.517-.637,1.01-1.3,1.525-1.935C3.963,3.192,5.173,1.686,6.39.2c.091-.11-.064-.27-.159-.159C5.12,1.346,3.979,2.653,2.9,4c-.512.64-1.045,1.261-1.547,1.909a4.661,4.661,0,0,1-1.3,1.45A.108.108,0,0,0,.136,7.553Z" transform="translate(41.683 72.462)" fill="#474546"/>
    <path id="Path_251" data-name="Path 251" d="M5.564.1c-.009-.137-.223-.139-.215,0,.066,1.138-1.226,2.032-1.964,2.739A44.3,44.3,0,0,0,.027,6.236a.1.1,0,0,0,.143.143C1.54,5.229,2.712,3.833,4,2.6,4.677,1.957,5.634,1.126,5.564.1Z" transform="translate(41.973 77.27)" fill="#474546"/>
    <path id="Path_252" data-name="Path 252" d="M4.286.04c-.526.626-1.14,1.14-1.7,1.726a3.561,3.561,0,0,0-.522.9C1.745,3.225,1.2,3.53.8,4.017c-.344.42-.474.953-.781,1.4-.088.126.117.288.216.166.4-.489.555-1.085.99-1.549a8.342,8.342,0,0,0,.956-.959,9.2,9.2,0,0,1,.8-1.222C3.476,1.3,3.989.78,4.454.208,4.549.091,4.385-.078,4.286.04Z" transform="translate(42.214 82.326)" fill="#474546"/>
    <path id="Path_253" data-name="Path 253" d="M.031,3.177c-.055.015-.03.091.023.083l.233-.039a.054.054,0,0,0,.038-.038C.49,2,1.588,1.2,2.116.175c.068-.132-.132-.249-.2-.117a18.019,18.019,0,0,1-1.1,1.649,4.517,4.517,0,0,0-.461.833C.277,2.739.292,3.106.031,3.177Z" transform="translate(41.748 90.229)" fill="#474546"/>
    <path id="Path_254" data-name="Path 254" d="M.231,6.431a26.023,26.023,0,0,0,2.7-3.4A17.617,17.617,0,0,1,4.372,1.2,1.867,1.867,0,0,0,5.063.169C5.094,0,4.843-.074,4.8.1c-.147.609-.913,1.095-1.295,1.568-.347.429-.67.877-1.006,1.314Q1.248,4.613.024,6.271C-.068,6.4.127,6.531.231,6.431Z" transform="translate(42.498 100.364)" fill="#474546"/>
    <path id="Path_255" data-name="Path 255" d="M6.807.037a6.993,6.993,0,0,1-.8.856c-.392.437-.745.905-1.146,1.338-.569.615-1.109,1.259-1.614,1.927-.98,1.3-1.813,3.071-3.2,4-.1.066-.04.236.084.2C1.341,8,2.342,6.053,2.982,5.1A25.59,25.59,0,0,1,5.171,2.271c.293-.327.562-.645.824-.993A8.033,8.033,0,0,0,6.938.114.076.076,0,0,0,6.807.037Z" transform="translate(41.685 102.678)" fill="#474546"/>
    <path id="Path_256" data-name="Path 256" d="M3.9.04A10.369,10.369,0,0,0,1.66,2.9C1.174,4.036.2,5.084,0,6.324c-.009.055.073.08.086.024.249-1.115,1.18-1.874,1.637-2.892A6.7,6.7,0,0,1,2.785,1.6c.411-.479.867-.921,1.3-1.382C4.2.1,4.014-.081,3.9.04Z" transform="translate(42.874 109.109)" fill="#474546"/>
    <path id="Path_257" data-name="Path 257" d="M.123.092A28.663,28.663,0,0,0,.083,4.6a.135.135,0,0,0,.271,0A28.643,28.643,0,0,0,.315.092.1.1,0,0,0,.123.092Z" transform="translate(42.417 117.608)" fill="#474546"/>
    <path id="Path_258" data-name="Path 258" d="M2.483.061A20.429,20.429,0,0,1,.023,3.578c-.066.07.025.2.108.14A9.912,9.912,0,0,0,2.475.568.557.557,0,0,0,2.707.155.123.123,0,0,0,2.483.061Z" transform="translate(68.212 8.308)" fill="#474546"/>
    <path id="Path_259" data-name="Path 259" d="M.159,1.208C.171.831.17.456.167.08A.083.083,0,0,0,0,.08C0,.456,0,.831.01,1.208A.074.074,0,0,0,.159,1.208Z" transform="translate(3.072 131.72)" fill="#474546"/>
    <path id="Path_260" data-name="Path 260" d="M.512.134a2.479,2.479,0,0,1-.5,1.651c-.058.076.065.163.13.1A2.3,2.3,0,0,0,.789.134.139.139,0,0,0,.512.134Z" transform="translate(1.941 146.048)" fill="#474546"/>
    <path id="Path_261" data-name="Path 261" d="M.693,8.137a.122.122,0,0,0,.149.085c1.05-.351.842-2.269.86-3.115.031-1.45.574-3.5-.62-4.634C1.01.4.914.506.975.58c.79.971.6,2.4.539,3.562-.049.873.034,1.756-.081,2.625a1.738,1.738,0,0,1-.19.777c-.3.385-.24.2-.49-.045C.1,6.851.309,5.483.43,4.709A14.307,14.307,0,0,0,.716.253a.032.032,0,0,0,.06,0L.806.075A.061.061,0,1,0,.685.059c-.1,1.672-.351,3.292-.6,4.946A4.8,4.8,0,0,0,.031,6.412,12.692,12.692,0,0,0,.693,8.137Z" transform="translate(60.219 30.317)" fill="#474546"/>
    <path id="Path_262" data-name="Path 262" d="M1.592.2C1.341-.139.972.044.635.089a.117.117,0,0,0,0,.235c.168.013.478-.01.614.106.209.178.038.569-.054.769s-.207.46-.429.524a1.109,1.109,0,0,1-.661-.166c-.08-.035-.151.077-.07.12a1.2,1.2,0,0,0,.807.235c.31-.079.528-.428.669-.69A.941.941,0,0,0,1.592.2Z" transform="translate(59.767 49.531)" fill="#474546"/>
    <path id="Path_263" data-name="Path 263" d="M.2.42A.21.21,0,0,0,.2,0,.21.21,0,0,0,.2.42Z" transform="translate(60.481 48.964)" fill="#474546"/>
    <path id="Path_264" data-name="Path 264" d="M3.445,2.72c.137-.022.087-.211-.03-.224a5.771,5.771,0,0,0-1.684.128c-.557.1-.823.292-1.067-.256-.233-.523.045-.672.5-.948A7.878,7.878,0,0,1,4.543.123a.051.051,0,0,0,0-.1,5.345,5.345,0,0,0-2.761.8A2.9,2.9,0,0,0,.127,2C-.71,3.823,2.844,2.818,3.445,2.72Z" transform="translate(41.194 16.671)" fill="#474546"/>
    <path id="Path_265" data-name="Path 265" d="M1.764,6.547c-.034-.682-.121-1.36-.115-2.044.012-1.376.224-2.751.155-4.127a.033.033,0,0,0-.066,0,45.006,45.006,0,0,0-.395,4.979C1.361,5.9,1.393,6.448,1.4,7c0,.29.135,1.354-.1,1.556C.618,9.129.272,5.873.337,5.413c.128-.9.278-1.824.357-2.732C.77,1.8.925.964,1.023.095c.014-.127-.183-.125-.2,0A16.858,16.858,0,0,0,.5,1.906,19.263,19.263,0,0,1,.24,4.19,10.238,10.238,0,0,0,.015,6.5c.053.6.227,2.6,1.19,2.545C2.08,8.99,1.789,7.054,1.764,6.547Z" transform="translate(58.914 89.687)" fill="#474546"/>
    <path id="Path_266" data-name="Path 266" d="M.594.094C.536.384.489.663.406.951c-.053.184-.1.369-.138.557A2.416,2.416,0,0,1,.251.692a.1.1,0,0,0-.192,0C.045,1.068-.164,1.737.3,1.935a.162.162,0,0,0,.233-.1c.143-.5.59-1.258.3-1.777A.132.132,0,0,0,.594.094Z" transform="translate(61.374 79.783)" fill="#474546"/>
    <path id="Path_267" data-name="Path 267" d="M.912.247C.718.292.663.49.6.656.568.756.535.861.5.964.487.83.493.693.473.566a.881.881,0,0,0-.3-.538C.079-.061-.063.08.031.173c.34.338.181.866.241,1.3.019.145.218.167.307.081A1.639,1.639,0,0,0,.943.95c.082-.2.219-.422.127-.638A.142.142,0,0,0,.912.247Z" transform="translate(59.735 111.113)" fill="#474546"/>
  </g>
</svg>
