<svg xmlns="http://www.w3.org/2000/svg" width="14.638" height="13.009" viewBox="0 0 14.638 13.009">
  <path id="Icon_awesome-edit" data-name="Icon awesome-edit" d="M10.231,2.119l2.292,2.292a.248.248,0,0,1,0,.351l-5.55,5.55-2.358.262a.494.494,0,0,1-.546-.546L4.33,7.669l5.55-5.55A.248.248,0,0,1,10.231,2.119Zm4.117-.582L13.108.3a.994.994,0,0,0-1.4,0l-.9.9a.248.248,0,0,0,0,.351L13.1,3.839a.248.248,0,0,0,.351,0l.9-.9a.994.994,0,0,0,0-1.4ZM9.758,8.8v2.587H1.626V3.257h5.84a.312.312,0,0,0,.216-.089L8.7,2.152a.3.3,0,0,0-.216-.521H1.22A1.22,1.22,0,0,0,0,2.851V11.8a1.22,1.22,0,0,0,1.22,1.22h8.945a1.22,1.22,0,0,0,1.22-1.22V7.786a.306.306,0,0,0-.521-.216L9.847,8.586A.312.312,0,0,0,9.758,8.8Z" transform="translate(0 -0.007)" fill="#ffb52d"/>
</svg>
