<svg xmlns="http://www.w3.org/2000/svg" width="42" height="39.001" viewBox="0 0 42 39.001">
  <path id="icons8-messages" d="M25,6C13.526,6,4,13.714,4,23.438c0,6.173,4.005,11.9,10.3,15,0,0,0,0,0,0,.023.011.018-.008.008.023a19.733,19.733,0,0,1-2.131,3.971,1,1,0,0,0,1.119,1.522,17.144,17.144,0,0,0,6.492-3.627h0a24.8,24.8,0,0,0,2.766.42,14.47,14.47,0,0,0,9.287,3.242,15.465,15.465,0,0,0,3.5-.4,11.97,11.97,0,0,0,3.234,1.361,1,1,0,0,0,1.17-1.48,9.035,9.035,0,0,1-.77-1.268c3.677-2.007,5.975-5.441,5.975-9.205a9.366,9.366,0,0,0-.5-2.982A14.862,14.862,0,0,0,46,23.438C46,13.714,36.474,6,25,6Zm0,2c10.582,0,19,7.033,19,15.438a12.657,12.657,0,0,1-.727,4.18A13.719,13.719,0,0,0,31.842,22c-7.123,0-13.106,4.826-13.106,10.994a9.6,9.6,0,0,0,1.707,5.422c-.082-.016-.165-.028-.246-.045l-.006,0a2.031,2.031,0,0,0-.41-.043,1.994,1.994,0,0,0-1.383.566h0a13.806,13.806,0,0,1-3.182,2.055,17.035,17.035,0,0,0,1-1.873,2.038,2.038,0,0,0-1.029-2.43C9.459,33.825,6,28.744,6,23.438,6,15.033,14.418,8,25,8Zm6.842,16c6.227,0,11.105,4.14,11.105,8.994,0,2.976-1.8,5.774-4.988,7.488l0,0a1.844,1.844,0,0,0-.885,1.705,5.672,5.672,0,0,1-.625-.252l0,0a1.895,1.895,0,0,0-1.535-.3,13.473,13.473,0,0,1-3.068.355c-6.227,0-11.106-4.142-11.106-9S25.615,24,31.842,24ZM26.7,31.057a1.976,1.976,0,1,0,1.976,1.976A1.975,1.975,0,0,0,26.7,31.057Zm5.533,0a1.976,1.976,0,1,0,1.976,1.976,1.975,1.975,0,0,0-1.976-1.976Zm5.533,0a1.976,1.976,0,1,0,1.976,1.976,1.975,1.975,0,0,0-1.976-1.976Z" transform="translate(-4 -6)"/>
</svg>
