<svg xmlns="http://www.w3.org/2000/svg" width="18.031" height="12.483" viewBox="0 0 18.031 12.483">
  <g id="Icon_ionic-ios-mail" data-name="Icon ionic-ios-mail" transform="translate(-3.375 -7.875)">
    <path id="Path_1201" data-name="Path 1201" d="M21.259,10.34,16.6,15.091a.084.084,0,0,0,0,.121l3.264,3.476a.562.562,0,0,1,0,.8.565.565,0,0,1-.8,0l-3.251-3.463a.089.089,0,0,0-.126,0l-.793.806A3.49,3.49,0,0,1,12.4,17.878,3.56,3.56,0,0,1,9.864,16.8L9.1,16.023a.089.089,0,0,0-.126,0L5.724,19.486a.565.565,0,0,1-.8,0,.562.562,0,0,1,0-.8l3.264-3.476a.092.092,0,0,0,0-.121L3.522,10.34a.085.085,0,0,0-.147.061v9.506a1.391,1.391,0,0,0,1.387,1.387H20.02a1.391,1.391,0,0,0,1.387-1.387V10.4A.087.087,0,0,0,21.259,10.34Z" transform="translate(0 -0.935)" fill="#acacac"/>
    <path id="Path_1202" data-name="Path 1202" d="M12.717,15.811a2.357,2.357,0,0,0,1.695-.711l6.8-6.922a1.362,1.362,0,0,0-.858-.3H5.084a1.353,1.353,0,0,0-.858.3l6.8,6.922A2.357,2.357,0,0,0,12.717,15.811Z" transform="translate(-0.326)" fill="#acacac"/>
  </g>
</svg>
