<svg xmlns="http://www.w3.org/2000/svg" width="13.948" height="13.948" viewBox="0 0 13.948 13.948">
  <path id="Icon_awesome-download" data-name="Icon awesome-download" d="M5.884,0H8.064a.652.652,0,0,1,.654.654V5.231h2.389a.544.544,0,0,1,.384.929L7.347,10.306a.528.528,0,0,1-.744,0L2.455,6.16a.544.544,0,0,1,.384-.929H5.231V.654A.652.652,0,0,1,5.884,0Zm8.064,10.243v3.051a.652.652,0,0,1-.654.654H.654A.652.652,0,0,1,0,13.294V10.243a.652.652,0,0,1,.654-.654h4l1.335,1.335a1.4,1.4,0,0,0,1.978,0L9.3,9.589h4A.652.652,0,0,1,13.948,10.243Zm-3.378,2.4a.545.545,0,1,0-.545.545A.546.546,0,0,0,10.57,12.641Zm1.744,0a.545.545,0,1,0-.545.545A.546.546,0,0,0,12.314,12.641Z" fill="#acacac"/>
</svg>
