<svg xmlns="http://www.w3.org/2000/svg" width="14.11" height="14.111" viewBox="0 0 14.11 14.111">
  <path id="Icon_awesome-phone" data-name="Icon awesome-phone" d="M13.6.677,10.731.016A.666.666,0,0,0,9.973.4L8.65,3.486a.66.66,0,0,0,.19.772l1.67,1.367a10.214,10.214,0,0,1-4.883,4.883L4.26,8.838a.661.661,0,0,0-.772-.19L.4,9.97a.669.669,0,0,0-.386.761L.678,13.6a.661.661,0,0,0,.645.513A12.786,12.786,0,0,0,14.11,1.322.661.661,0,0,0,13.6.677Z" transform="translate(0.001 0.001)" fill="#acacac"/>
</svg>
