<?xml version="1.0" encoding="utf-8"?>
<!-- Generator: Adobe Illustrator 25.4.1, SVG Export Plug-In . SVG Version: 6.00 Build 0)  -->
<svg version="1.1" id="Iconly_Bold_Arrow_-_Left_Square"
	 xmlns="http://www.w3.org/2000/svg" xmlns:xlink="http://www.w3.org/1999/xlink" x="0px" y="0px" viewBox="0 0 24 24"
	 style="enable-background:new 0 0 24 24;" xml:space="preserve">
<g id="Arrow_-_Left_Square" transform="translate(2 2)">
	<path id="Arrow_-_Left_Square-2" d="M5.9,20h8.2c3.5,0,5.9-2.3,5.9-5.7V5.7C20,2.3,17.6,0,14.1,0H5.9C2.4,0,0,2.3,0,5.7v8.7
		C0,17.7,2.4,20,5.9,20z M10.3,5.5c0.2,0,0.4,0.1,0.5,0.2l3.8,3.8c0.3,0.3,0.3,0.8,0,1.1l-3.8,3.8c-0.3,0.3-0.8,0.3-1.1,0
		c-0.3-0.3-0.3-0.8,0-1.1l2.5-2.5H5.9c-0.4,0-0.7-0.3-0.8-0.8c0-0.4,0.3-0.7,0.7-0.8c0,0,0,0,0,0h6.3L9.8,6.8
		C9.7,6.6,9.6,6.4,9.6,6.3c0-0.2,0.1-0.4,0.2-0.5C9.9,5.6,10.1,5.5,10.3,5.5z"/>
</g>
</svg>
