<svg xmlns="http://www.w3.org/2000/svg" width="24" height="24" viewBox="0 0 24 24">
  <g id="Group_2785" data-name="Group 2785" transform="translate(-324 -184.12)">
    <path id="Stroke_4" data-name="Stroke 4" d="M0,12C0,3,3,0,12,0S24,3,24,12,21,24,12,24,0,21,0,12Z" transform="translate(324 184.12)" fill="#acacac"/>
    <path id="Path_88" data-name="Path 88" d="M281.435,338.363l-.386-2.1,2.7-1.172V338.5H281.46Zm-.461-2.511-.432-2.343,3.211-1.393v2.529Zm-.507-2.754-.414-2.261,3.7-1.608v2.443Zm-.489-2.672-.479-2.6-.022-.114.1-.061,3.933-2.268.243-.139v3.547Zm10.173-1.514,4.008.946L294,330.89,289.736,333Zm3.772,2.461-.268,1.74-4.133,1.986.164-1.629Zm-.339,2.218-.279,1.8-4,1.8.168-1.633Zm-.354,2.279-.4,2.629h-3.651l.086-.839Zm-9.091-12.034-.011,5.565,5.726-.59.246-2.468Zm-.011,5.965,0,1.443,5.54-.511.15-1.518Zm-.007,1.843v1.5l5.344-.4.157-1.6Zm0,1.9-.011,4.969h4.783l.532-5.365Z" transform="translate(49.184 -135.055)" fill="#f5f6fa" fill-rule="evenodd"/>
  </g>
</svg>
