<svg xmlns="http://www.w3.org/2000/svg" width="17.374" height="14.924" viewBox="0 0 17.374 14.924">
  <g id="Group_2965" data-name="Group 2965" transform="translate(-218.527 -86.901)">
    <path id="Path_1131" data-name="Path 1131" d="M238.86,103.444a.321.321,0,0,0-.376.255l-.27,1.42a.321.321,0,0,0,.255.375l.548.1a3.786,3.786,0,0,0,.183.881l-.462.314a.321.321,0,0,0-.085.446l.812,1.2a.322.322,0,0,0,.446.085l.462-.314a3.8,3.8,0,0,0,.752.495l-.1.548a.321.321,0,0,0,.255.376l1.42.27a.3.3,0,0,0,.06.006.321.321,0,0,0,.315-.261l.1-.548a3.783,3.783,0,0,0,.881-.183l.314.462a.321.321,0,0,0,.446.085l1.2-.812a.321.321,0,0,0,.085-.447l-.314-.462a3.8,3.8,0,0,0,.5-.752l.548.1a.322.322,0,0,0,.376-.255l.27-1.42a.321.321,0,0,0-.255-.376l-.548-.1a3.808,3.808,0,0,0-.183-.881l.462-.314a.322.322,0,0,0,.085-.447l-.812-1.2a.321.321,0,0,0-.446-.085l-.462.314a3.806,3.806,0,0,0-.752-.495l.1-.548a.321.321,0,0,0-.255-.376l-1.42-.27a.318.318,0,0,0-.241.05.322.322,0,0,0-.135.205l-.1.548a3.808,3.808,0,0,0-.881.183l-.314-.462a.322.322,0,0,0-.447-.085l-1.2.812a.322.322,0,0,0-.085.446l.314.462a3.787,3.787,0,0,0-.495.752Zm1.032.591a3.171,3.171,0,0,1,.65-.987.322.322,0,0,0,.035-.4l-.275-.4.664-.451.275.4a.323.323,0,0,0,.389.117,3.157,3.157,0,0,1,1.156-.24.322.322,0,0,0,.31-.261l.091-.48.788.151-.091.48a.321.321,0,0,0,.192.357,3.158,3.158,0,0,1,.987.649.321.321,0,0,0,.4.035l.4-.275.451.664-.4.275a.321.321,0,0,0-.117.388,3.161,3.161,0,0,1,.24,1.157.322.322,0,0,0,.261.31l.48.091-.151.788-.48-.091a.321.321,0,0,0-.357.192,3.162,3.162,0,0,1-.649.987.321.321,0,0,0-.035.4l.275.4-.664.451-.275-.405a.322.322,0,0,0-.388-.117,3.172,3.172,0,0,1-1.157.241.321.321,0,0,0-.31.261l-.091.48-.788-.15.092-.48a.322.322,0,0,0-.192-.357,3.157,3.157,0,0,1-.987-.649.321.321,0,0,0-.4-.035l-.4.275-.451-.664.4-.275a.322.322,0,0,0,.117-.388,3.172,3.172,0,0,1-.241-1.157.321.321,0,0,0-.261-.31l-.48-.091.15-.788.48.091A.321.321,0,0,0,239.892,104.035Z" transform="translate(-11.578 -8.077)" fill="#fba303"/>
    <path id="Path_1132" data-name="Path 1132" d="M245.734,110.859h0a2.309,2.309,0,1,0-1.477-.97A2.3,2.3,0,0,0,245.734,110.859Zm-1.2-2.581a1.667,1.667,0,0,1,1.633-1.354A1.669,1.669,0,0,1,247.8,108.9a1.666,1.666,0,0,1-1.949,1.324h0a1.666,1.666,0,0,1-1.324-1.949Z" transform="translate(-14.902 -11.401)" fill="#fba303"/>
    <path id="Path_1133" data-name="Path 1133" d="M218.736,92.9a.321.321,0,0,0,.364.273l.552-.079a3.786,3.786,0,0,0,.459.774l-.335.448a.321.321,0,0,0,.065.45l1.156.866a.321.321,0,0,0,.45-.065l.335-.447a3.816,3.816,0,0,0,.872.224l.079.552a.321.321,0,0,0,.125.212.325.325,0,0,0,.193.064.341.341,0,0,0,.045,0l1.43-.205a.321.321,0,0,0,.273-.364l-.08-.553a3.794,3.794,0,0,0,.774-.46l.447.335a.321.321,0,0,0,.45-.064l.866-1.157a.321.321,0,0,0-.064-.45l-.447-.335a3.817,3.817,0,0,0,.223-.872l.552-.079a.322.322,0,0,0,.273-.364l-.205-1.43a.322.322,0,0,0-.364-.273l-.552.079a3.789,3.789,0,0,0-.459-.774l.335-.447a.321.321,0,0,0-.065-.45l-1.156-.866a.322.322,0,0,0-.45.065l-.335.448a3.817,3.817,0,0,0-.872-.224l-.079-.552a.321.321,0,0,0-.364-.272l-1.431.205a.322.322,0,0,0-.272.364l.079.552a3.79,3.79,0,0,0-.774.46l-.447-.335a.322.322,0,0,0-.45.065l-.866,1.157a.322.322,0,0,0,.064.45l.448.335a3.766,3.766,0,0,0-.224.872l-.552.079a.321.321,0,0,0-.272.364Zm1.91-3.751a.321.321,0,0,0,.405-.016,3.174,3.174,0,0,1,1.016-.6.32.32,0,0,0,.208-.347l-.07-.483.795-.114.069.483a.322.322,0,0,0,.3.275,3.173,3.173,0,0,1,1.145.293.321.321,0,0,0,.393-.1l.293-.392.643.481-.294.392a.321.321,0,0,0,.016.405,3.169,3.169,0,0,1,.6,1.016.322.322,0,0,0,.348.208l.483-.07.114.795-.483.069a.322.322,0,0,0-.275.3,3.187,3.187,0,0,1-.293,1.145.321.321,0,0,0,.1.393l.392.293-.481.643-.392-.294a.321.321,0,0,0-.4.016,3.165,3.165,0,0,1-1.016.6.322.322,0,0,0-.209.348l.07.484-.794.114-.07-.484a.321.321,0,0,0-.3-.275,3.168,3.168,0,0,1-1.145-.293.322.322,0,0,0-.393.1l-.293.392-.642-.481.294-.392a.322.322,0,0,0-.016-.405,3.162,3.162,0,0,1-.6-1.016.322.322,0,0,0-.348-.208l-.483.069-.114-.794.484-.07a.321.321,0,0,0,.275-.3,3.159,3.159,0,0,1,.294-1.145.322.322,0,0,0-.1-.393l-.392-.293.481-.642Z" fill="#fba303"/>
    <path id="Path_1134" data-name="Path 1134" d="M226.484,97.169a2.36,2.36,0,0,0,.33-.023,2.309,2.309,0,1,0-.33.023Zm1.651-2.546a1.667,1.667,0,1,1-1.648-1.43A1.669,1.669,0,0,1,228.135,94.622Z" transform="translate(-3.323 -3.323)" fill="#fba303"/>
  </g>
</svg>
