<svg xmlns="http://www.w3.org/2000/svg" width="27.5" height="27.5" viewBox="0 0 27.5 27.5">
  <g id="Group_2394" data-name="Group 2394" transform="translate(-331.75 -311.75)">
    <path id="Stroke_4" data-name="Stroke 4" d="M.5,13.5C.5,3.376,3.376.5,13.5.5s13,2.876,13,13-2.876,13-13,13S.5,23.624.5,13.5Z" transform="translate(332 312)" fill="#acacac" stroke="#acacac" stroke-linecap="round" stroke-linejoin="round" stroke-miterlimit="10" stroke-width="1.5"/>
    <g id="invoice_2_" data-name="invoice (2)" transform="translate(288.973 316.797)">
      <g id="Group_852" data-name="Group 852" transform="translate(50.526)">
        <path id="Path_114" data-name="Path 114" d="M61.41.38a.619.619,0,0,0-.673.1l-.97.859a.069.069,0,0,1-.092,0L58.355.16a.628.628,0,0,0-.839,0L56.2,1.339a.07.07,0,0,1-.093,0L54.787.16a.628.628,0,0,0-.839,0l-1.32,1.18a.07.07,0,0,1-.093,0L51.565.482a.624.624,0,0,0-1.039.471V13.829a.625.625,0,0,0,1.04.471l.97-.859a.069.069,0,0,1,.092,0l1.319,1.18a.628.628,0,0,0,.839,0l1.318-1.179a.07.07,0,0,1,.093,0l1.318,1.179a.628.628,0,0,0,.839,0l1.32-1.18a.07.07,0,0,1,.093,0l.971.859a.624.624,0,0,0,1.038-.471V.953A.619.619,0,0,0,61.41.38ZM52.84,5.015h3.48a.28.28,0,1,1,0,.559H52.84a.28.28,0,0,1,0-.559Zm6.624,4.752H52.84a.28.28,0,0,1,0-.559h6.624a.28.28,0,0,1,0,.559Zm0-2.1H52.84a.28.28,0,0,1,0-.559h6.624a.28.28,0,0,1,0,.559Z" transform="translate(-50.526 1.038)" fill="#fff"/>
      </g>
    </g>
  </g>
</svg>
