<svg id="Group_2909" data-name="Group 2909" xmlns="http://www.w3.org/2000/svg" width="19.364" height="18" viewBox="0 0 19.364 18">
  <path id="Path_1081" data-name="Path 1081" d="M1013.256,286.135h-4.412v-2.706a.719.719,0,0,0-.791-.638,1.052,1.052,0,0,0-.138.009.9.9,0,0,0-.128-.009h-6.053a.718.718,0,0,0-.79.638v2.706h-4.413a1.321,1.321,0,0,0-1.32,1.32V293.4a1.32,1.32,0,0,0,1.239,1.316v4.755a1.258,1.258,0,0,0,1.183,1.32h14.52a1.258,1.258,0,0,0,1.183-1.32v-4.755a1.32,1.32,0,0,0,1.239-1.316v-5.946A1.322,1.322,0,0,0,1013.256,286.135Zm-11.654-2.658a.326.326,0,0,1,.162-.027.355.355,0,0,0,.057,0h5.965a.24.24,0,0,1,.052.006.33.33,0,0,0,.141,0,.346.346,0,0,1,.206.021v3.249a.292.292,0,0,1-.133.029.3.3,0,0,1-.133-.028v-2.492a.329.329,0,0,0-.329-.329H1002.2a.329.329,0,0,0-.329.329v2.492a.3.3,0,0,1-.133.028.291.291,0,0,1-.133-.029Zm5.66,1.086v1.572h-4.738v-1.572Zm5.417,14.908a.607.607,0,0,1-.526.662h-14.52a.607.607,0,0,1-.525-.662v-4.75h5.165v.6a1.321,1.321,0,0,0,1.32,1.32h2.354a1.322,1.322,0,0,0,1.32-1.32v-.6h5.412Zm-9.749-4.15v-1.858a.663.663,0,0,1,.662-.662h2.354a.664.664,0,0,1,.663.662v1.858a.663.663,0,0,1-.663.662h-2.354A.663.663,0,0,1,1002.932,295.321Zm10.987-1.92a.663.663,0,0,1-.662.662h-5.989v-.6a1.322,1.322,0,0,0-1.32-1.32h-2.354a1.321,1.321,0,0,0-1.32,1.32v.6h-5.742a.663.663,0,0,1-.662-.662v-5.946a.663.663,0,0,1,.662-.662h4.415a.811.811,0,0,0,1.576,0h4.742a.812.812,0,0,0,1.577,0h4.414a.663.663,0,0,1,.662.662Z" transform="translate(-995.213 -282.791)" fill="#fba303"/>
  <path id="Path_1082" data-name="Path 1082" d="M1013.036,305.824a1.156,1.156,0,1,0-1.156-1.156A1.157,1.157,0,0,0,1013.036,305.824Zm0-1.982a.826.826,0,1,1-.826.826A.827.827,0,0,1,1013.036,303.842Z" transform="translate(-1003.479 -293.067)" fill="#fba303"/>
</svg>
