<svg xmlns="http://www.w3.org/2000/svg" width="19.009" height="11.401" viewBox="0 0 19.009 11.401">
  <path id="Icon_ionic-ios-laptop" data-name="Icon ionic-ios-laptop" d="M18.223,17.989V8.552a.685.685,0,0,0-.681-.677H3.7a.683.683,0,0,0-.681.677v9.437h-1.9a1.149,1.149,0,0,0,.748.9,5.252,5.252,0,0,0,1.948.388H17.431a5.243,5.243,0,0,0,1.912-.348,1.194,1.194,0,0,0,.784-.938h-1.9Zm-7.6-9.8a.158.158,0,1,1-.158.158A.159.159,0,0,1,10.622,8.192Zm-6.888.641H17.51a.079.079,0,0,1,.079.079v8.364a.079.079,0,0,1-.079.079H3.735a.079.079,0,0,1-.079-.079V8.912A.077.077,0,0,1,3.735,8.833ZM12.3,18.306H8.948a.472.472,0,0,1-.384-.3h4.117A.393.393,0,0,1,12.3,18.306Z" transform="translate(-1.118 -7.875)" fill="#acacac"/>
</svg>
