<svg xmlns="http://www.w3.org/2000/svg" width="91.43" height="12.482" viewBox="0 0 91.43 12.482">
  <g id="metro_logo" data-name="metro logo" transform="translate(-964.992 -223.271)">
    <g id="Group_2470" data-name="Group 2470" transform="translate(972.57 223.271)">
      <path id="Path_838" data-name="Path 838" d="M.4.271,83.84.307v12.4H2.79l-2.783-.5C-.115,11.606.4.271.4.271Z" transform="translate(0.012 -0.271)" fill="#fcc155"/>
      <path id="Path_340" data-name="Path 340" d="M77.63,26.315c0,.54,2.672.407,3.714,1.15v-3.2C79.676,24.335,77.63,25.444,77.63,26.315Z" transform="translate(-63.354 -21.775)" fill="#2d2c2c"/>
      <path id="Path_341" data-name="Path 341" d="M1.972,3.218a.241.241,0,0,1,.422.229C.28,8.438,2.6,9.872,5.025,9.872c2.868,0,4.386-1.285,4.386-2.237S5.528,6.72,5.528,5.255A7.761,7.761,0,0,1,10.573,0H.647A.646.646,0,0,0,0,.648V11.773a.647.647,0,0,0,.647.647H3.48C.743,11.721-1.83,8.912,1.972,3.218Z" transform="translate(6.384 0.019)" fill="#2d2c2c"/>
      <path id="Path_342" data-name="Path 342" d="M59.4,80.847h5.567V76.17A10.557,10.557,0,0,1,59.4,80.847Z" transform="translate(-46.976 -68.407)" fill="#2d2c2c"/>
      <g id="Group_423" data-name="Group 423" transform="translate(19.558 0.019)">
        <path id="Path_343" data-name="Path 343" d="M227.63,3.33V0h-1.82a19.454,19.454,0,0,0,1.82,3.33Z" transform="translate(-216.026)" fill="#2d2c2c"/>
        <path id="Path_344" data-name="Path 344" d="M133.193,9.613c2.215.05,6.344-2.082,6.344-3.727,0-1.674-1.945-2.811-1.842-3.253A22.721,22.721,0,0,1,139.1,0H129.57V9.2a17.663,17.663,0,0,0,3.623.416Z" transform="translate(-129.57)" fill="#2d2c2c"/>
        <path id="Path_345" data-name="Path 345" d="M192.066,65.734a.248.248,0,0,0-.4.083,11.5,11.5,0,0,1-5.394,5.592h5.839V65.775Z" transform="translate(-180.505 -58.988)" fill="#2d2c2c"/>
        <path id="Path_346" data-name="Path 346" d="M129.57,93.68v2.894H134a20.153,20.153,0,0,1-4.429-2.894Z" transform="translate(-129.57 -84.156)" fill="#2d2c2c"/>
      </g>
      <g id="Group_424" data-name="Group 424" transform="translate(32.726 0.019)">
        <path id="Path_347" data-name="Path 347" d="M325.49,6.341A8.932,8.932,0,0,1,324.045,7.7a.548.548,0,0,0-.152.706,6.507,6.507,0,0,0,1.758,2.272c.122-1.932-.59-3.741.061-3.984.551-.2,1.076.344,3.135.517V0h-3.064C327.245,2.494,327.212,4.3,325.49,6.341Z" transform="translate(-317.243)" fill="#2d2c2c"/>
        <path id="Path_348" data-name="Path 348" d="M308.21,33.769a3.024,3.024,0,0,0,.2.79.728.728,0,0,0,.924.453.332.332,0,0,0,.041-.015,6.679,6.679,0,0,0,1.915-1c.082-.305-.256-1.343-.765-1.343S308.215,33.248,308.21,33.769Z" transform="translate(-303.217 -29.331)" fill="#2d2c2c"/>
        <path id="Path_349" data-name="Path 349" d="M354.2,93.158a.343.343,0,0,0-.53.322,7.371,7.371,0,0,0,.692,2.575h1.3V93.836A5.528,5.528,0,0,1,354.2,93.158Z" transform="translate(-344.056 -83.636)" fill="#2d2c2c"/>
        <path id="Path_350" data-name="Path 350" d="M261.887,6.686a4.036,4.036,0,0,0,.854-.131A7.714,7.714,0,0,1,266.755.02H259.13v5.2A4.338,4.338,0,0,0,261.887,6.686Z" transform="translate(-259.127 -0.018)" fill="#2d2c2c"/>
        <path id="Path_351" data-name="Path 351" d="M263.461,82.087a.433.433,0,0,0-.508-.242,5.325,5.325,0,0,1-1.322.183A4.382,4.382,0,0,1,259.1,80.91v4.2h6.359A11.7,11.7,0,0,1,263.461,82.087Z" transform="translate(-259.1 -72.684)" fill="#2d2c2c"/>
      </g>
      <g id="Group_425" data-name="Group 425" transform="translate(45.897 0.019)">
        <path id="Path_352" data-name="Path 352" d="M398.721,95.207s-.285,1.2-1.281,1.2-1.692-.976-2.891-.976-2.44,1.078-3.66,1.017a1.206,1.206,0,0,1-1.188-1.22V95.2a1.739,1.739,0,0,1-1.04.59v2.154h11.6V95.931A3.947,3.947,0,0,1,398.721,95.207Z" transform="translate(-388.66 -85.521)" fill="#2d2c2c"/>
        <path id="Path_353" data-name="Path 353" d="M391.506,5.631c.558.286-1.1,2.306.959,2.078a3.024,3.024,0,0,0,2.982-2.44.132.132,0,1,1,.263.013h0c.131.976.491,2.27,1.474,2.27.961,0,1.241-1.255,1.322-2.047a.115.115,0,0,1,.123-.1.117.117,0,0,1,.1.071A3.08,3.08,0,0,0,400.294,7.1V0h-11.6V7.255C390.765,7.111,391.1,5.425,391.506,5.631Zm2.931-4.086.852-.851a.3.3,0,0,1,.432,0l.851.851a.3.3,0,0,1,0,.433l-.851.851a.3.3,0,0,1-.432,0l-.852-.851a.305.305,0,0,1,0-.433ZM393.319,3.68l.823-.823a.327.327,0,0,1,.462,0l.813.813a.327.327,0,0,0,.462,0l.813-.813a.325.325,0,0,1,.461,0l.82.823a.328.328,0,0,1,0,.462l-.823.821a.323.323,0,0,1-.46,0h0l-.813-.813a.327.327,0,0,0-.462,0l-.813.813a.325.325,0,0,1-.461,0h0l-.823-.821a.326.326,0,0,1,0-.462h0Z" transform="translate(-388.687)" fill="#2d2c2c"/>
      </g>
      <g id="Group_426" data-name="Group 426" transform="translate(59.063 0.019)">
        <path id="Path_354" data-name="Path 354" d="M573.459,69.125c-.132-.254-1.739-.356-1.739,0a2.253,2.253,0,0,0,1.435,1.577C573.419,70.7,573.6,69.39,573.459,69.125Z" transform="translate(-566.276 -61.89)" fill="#2d2c2c"/>
        <path id="Path_355" data-name="Path 355" d="M518.3,7.429c5.022,0,4.582-5.037,8.527-2.963a2.524,2.524,0,0,0-.462,1.722c.3,1.1,1.611,2.12,3.434,2.492V0H518.2V7.422C518.235,7.422,518.268,7.429,518.3,7.429Z" transform="translate(-518.197)" fill="#2d2c2c"/>
        <path id="Path_356" data-name="Path 356" d="M588.7,99.11l-1.83,2.338H591.5v-.635A6.01,6.01,0,0,1,588.7,99.11Z" transform="translate(-579.885 -89.034)" fill="#2d2c2c"/>
        <path id="Path_357" data-name="Path 357" d="M521.508,96.27a6,6,0,0,1-3.338.813V98.9H523.9A16.9,16.9,0,0,1,521.508,96.27Z" transform="translate(-518.17 -86.483)" fill="#2d2c2c"/>
      </g>
      <path id="Path_358" data-name="Path 358" d="M722.767,51.313c.516-.895-1.554-3.681-2.178-4.183a4.467,4.467,0,0,1-.95,3.227S722.345,52.046,722.767,51.313Z" transform="translate(-640.094 -42.319)" fill="#2d2c2c"/>
      <path id="Path_359" data-name="Path 359" d="M650.427,8.709s-.176-5.233,3.382-7.124A3.422,3.422,0,0,1,654.282.06H647.74V8.886A14.861,14.861,0,0,0,650.427,8.709Z" transform="translate(-575.503 -0.034)" fill="#2d2c2c"/>
      <path id="Path_360" data-name="Path 360" d="M722,6.037V0H717.49A24.234,24.234,0,0,1,722,6.037Z" transform="translate(-638.161 0.019)" fill="#2d2c2c"/>
      <path id="Path_361" data-name="Path 361" d="M746.45,98.273h1.569v-2.7Q747.3,96.961,746.45,98.273Z" transform="translate(-664.177 -85.835)" fill="#2d2c2c"/>
      <path id="Path_362" data-name="Path 362" d="M653.292,102.39a12.429,12.429,0,0,1-5.5,1.6h-.05v.414h9.411A8.688,8.688,0,0,0,653.292,102.39Z" transform="translate(-575.503 -91.961)" fill="#2d2c2c"/>
      <path id="Path_363" data-name="Path 363" d="M688.727,43.607a3.684,3.684,0,0,0-1.657,1.884c-.007.438.57.929,1.291.929a1.763,1.763,0,0,0,1.572-1.118,2.2,2.2,0,0,0-.526-1.553.508.508,0,0,0-.679-.141Z" transform="translate(-610.834 -39.089)" fill="#2d2c2c"/>
    </g>
    <g id="Tehran_Metro_Logo" transform="translate(964.992 223.271)">
      <g id="black">
        <path id="Path_839" data-name="Path 839" d="M12.332.511A.51.51,0,0,0,11.823,0H.509A.51.51,0,0,0,0,.511v11.46a.51.51,0,0,0,.509.511H11.823a.51.51,0,0,0,.509-.511Z" fill="#2d2c2c"/>
      </g>
      <g id="yellow" transform="translate(0.691 0.764)">
        <path id="Path_840" data-name="Path 840" d="M29.869,21.437A.435.435,0,0,0,29.435,21h-10a.435.435,0,0,0-.433.437V31.513a.435.435,0,0,0,.433.437h10a.435.435,0,0,0,.433-.437Z" transform="translate(-19 -21)" fill="#fcc155"/>
      </g>
      <g id="Layer_6" transform="translate(5.929 6.257)">
        <path id="Path_841" data-name="Path 841" d="M166.092,172.436a.562.562,0,0,0-.546-.436h-2.11a.437.437,0,0,0-.437.436v2.11a.437.437,0,0,0,.437.436h2.692a.441.441,0,0,0,.338-.188.463.463,0,0,0,.084-.352Z" transform="translate(-163 -172)" fill="#2d2c2c"/>
      </g>
      <g id="Layer_5" transform="translate(1.055 1.091)">
        <g id="Group_2471" data-name="Group 2471">
          <path id="Path_842" data-name="Path 842" d="M31.526,31.564,29,37.439v2.419a.436.436,0,0,0,.437.437h9.422a.436.436,0,0,0,.437-.437v-.582L37.312,30H32.2l-.485,1.128h4.892l1.559,7.244a.3.3,0,0,1-.3.322H33.947a.4.4,0,0,1-.4-.391v-.336a.4.4,0,0,0-.4-.4h-3.07c-.1,0-.12-.071-.116-.172a.612.612,0,0,1,.056-.23l2.058-4.546h3.618V31.564H32.565" transform="translate(-29 -30)" fill="#2d2c2c"/>
          <path id="Path_843" data-name="Path 843" d="M109.045,61" transform="translate(-106.133 -59.872)" fill="#2d2c2c"/>
        </g>
      </g>
    </g>
  </g>
</svg>
