<svg xmlns="http://www.w3.org/2000/svg" width="163.811" height="12" viewBox="0 0 163.811 12">
  <g id="Layer_2" data-name="Layer 2" transform="translate(0 0)">
    <g id="Layer_1" data-name="Layer 1" transform="translate(0 0)">
      <g id="Group_437" data-name="Group 437" transform="translate(0 0)">
        <g id="Group_428" data-name="Group 428">
          <g id="Group_422" data-name="Group 422">
            <path id="Path_340" data-name="Path 340" d="M77.63,26.245c0,.521,2.581.393,3.588,1.111v-3.1C79.606,24.333,77.63,25.4,77.63,26.245Z" transform="translate(-70.006 -21.877)" fill="#474546"/>
            <path id="Path_341" data-name="Path 341" d="M1.905,3.108a.233.233,0,0,1,.408.221c-2.043,4.822.2,6.207,2.542,6.207,2.77,0,4.237-1.241,4.237-2.161S5.34,6.492,5.34,5.076A7.5,7.5,0,0,1,10.214,0H.625A.624.624,0,0,0,0,.626V11.372A.625.625,0,0,0,.625,12H3.362C.718,11.322-1.768,8.609,1.905,3.108Z" transform="translate(0 0)" fill="#474546"/>
            <path id="Path_342" data-name="Path 342" d="M59.4,80.688h5.378V76.17A10.2,10.2,0,0,1,59.4,80.688Z" transform="translate(-53.566 -68.69)" fill="#474546"/>
          </g>
          <g id="Group_423" data-name="Group 423" transform="translate(12.725 0)">
            <path id="Path_343" data-name="Path 343" d="M227.568,3.216V0H225.81a18.791,18.791,0,0,0,1.758,3.216Z" transform="translate(-216.359)" fill="#474546"/>
            <path id="Path_344" data-name="Path 344" d="M133.07,9.286c2.14.048,6.128-2.011,6.128-3.6,0-1.617-1.879-2.715-1.78-3.143A21.953,21.953,0,0,1,138.777,0H129.57V8.884a17.062,17.062,0,0,0,3.5.4Z" transform="translate(-129.57)" fill="#474546"/>
            <path id="Path_345" data-name="Path 345" d="M191.869,65.732a.24.24,0,0,0-.388.081,11.112,11.112,0,0,1-5.211,5.4h5.64V65.771Z" transform="translate(-180.702 -59.215)" fill="#474546"/>
            <path id="Path_346" data-name="Path 346" d="M129.57,93.68v2.8h4.278a19.467,19.467,0,0,1-4.278-2.8Z" transform="translate(-129.57 -84.48)" fill="#474546"/>
          </g>
          <g id="Group_424" data-name="Group 424" transform="translate(25.446 0)">
            <path id="Path_347" data-name="Path 347" d="M325.433,6.125a8.624,8.624,0,0,1-1.4,1.316.529.529,0,0,0-.147.682,6.285,6.285,0,0,0,1.7,2.195c.118-1.866-.57-3.614.059-3.849.532-.2,1.039.332,3.029.5V0h-2.96C327.129,2.409,327.1,4.152,325.433,6.125Z" transform="translate(-317.467)" fill="#474546"/>
            <path id="Path_348" data-name="Path 348" d="M308.21,33.731a2.919,2.919,0,0,0,.2.763.7.7,0,0,0,.893.438l.039-.015a6.451,6.451,0,0,0,1.85-.97c.08-.295-.247-1.3-.738-1.3S308.215,33.227,308.21,33.731Z" transform="translate(-303.387 -29.444)" fill="#474546"/>
            <path id="Path_349" data-name="Path 349" d="M354.184,93.156a.331.331,0,0,0-.512.311,7.119,7.119,0,0,0,.669,2.488h1.252V93.811A5.34,5.34,0,0,1,354.184,93.156Z" transform="translate(-344.383 -83.958)" fill="#474546"/>
            <path id="Path_350" data-name="Path 350" d="M261.793,6.459a3.9,3.9,0,0,0,.825-.127A7.452,7.452,0,0,1,266.5.02H259.13V5.047A4.19,4.19,0,0,0,261.793,6.459Z" transform="translate(-259.127 -0.018)" fill="#474546"/>
            <path id="Path_351" data-name="Path 351" d="M263.313,82.047a.418.418,0,0,0-.491-.234,5.144,5.144,0,0,1-1.277.177,4.233,4.233,0,0,1-2.445-1.08v4.053h6.143A11.3,11.3,0,0,1,263.313,82.047Z" transform="translate(-259.1 -72.964)" fill="#474546"/>
          </g>
          <g id="Group_425" data-name="Group 425" transform="translate(38.169 0)">
            <path id="Path_352" data-name="Path 352" d="M398.379,95.207s-.275,1.158-1.237,1.158-1.634-.943-2.793-.943-2.357,1.041-3.535.982a1.165,1.165,0,0,1-1.148-1.178V95.2a1.68,1.68,0,0,1-1,.57v2.081h11.209V95.906A3.813,3.813,0,0,1,398.379,95.207Z" transform="translate(-388.66 -85.851)" fill="#474546"/>
            <path id="Path_353" data-name="Path 353" d="M391.41,5.44c.539.276-1.059,2.227.926,2.007a2.921,2.921,0,0,0,2.88-2.357.128.128,0,1,1,.254.013h0c.127.943.474,2.193,1.424,2.193.928,0,1.2-1.212,1.277-1.977a.111.111,0,0,1,.119-.1.113.113,0,0,1,.093.069A2.975,2.975,0,0,0,399.9,6.861V0H388.69V7.008C390.694,6.869,391.021,5.24,391.41,5.44Zm2.831-3.947.823-.822a.295.295,0,0,1,.417,0l.822.822a.295.295,0,0,1,0,.418l-.822.822a.295.295,0,0,1-.417,0l-.823-.822a.295.295,0,0,1,0-.418Zm-1.08,2.062.8-.8a.316.316,0,0,1,.446,0l.786.786a.316.316,0,0,0,.446,0l.786-.786a.314.314,0,0,1,.445,0l.793.8a.316.316,0,0,1,0,.446l-.794.794a.312.312,0,0,1-.444,0h0l-.786-.786a.316.316,0,0,0-.446,0l-.786.786a.314.314,0,0,1-.445,0h0l-.8-.794a.315.315,0,0,1,0-.446h0Z" transform="translate(-388.687)" fill="#474546"/>
          </g>
          <g id="Group_426" data-name="Group 426" transform="translate(50.888 0)">
            <path id="Path_354" data-name="Path 354" d="M573.4,69.117c-.128-.246-1.68-.344-1.68,0a2.176,2.176,0,0,0,1.386,1.523C573.361,70.64,573.534,69.373,573.4,69.117Z" transform="translate(-566.461 -62.129)" fill="#474546"/>
            <path id="Path_355" data-name="Path 355" d="M518.3,7.176c4.852,0,4.426-4.865,8.237-2.862a2.438,2.438,0,0,0-.446,1.664c.295,1.067,1.557,2.048,3.317,2.407V0H518.2V7.169C518.233,7.169,518.266,7.176,518.3,7.176Z" transform="translate(-518.197)" fill="#474546"/>
            <path id="Path_356" data-name="Path 356" d="M588.638,99.11l-1.768,2.259h4.469v-.614A5.805,5.805,0,0,1,588.638,99.11Z" transform="translate(-580.123 -89.377)" fill="#474546"/>
            <path id="Path_357" data-name="Path 357" d="M521.394,96.27a5.791,5.791,0,0,1-3.224.786v1.758H523.7a16.33,16.33,0,0,1-2.307-2.544Z" transform="translate(-518.17 -86.816)" fill="#474546"/>
          </g>
          <g id="Group_427" data-name="Group 427" transform="translate(63.613 0)">
            <path id="Path_358" data-name="Path 358" d="M722.661,51.17c.5-.864-1.5-3.556-2.1-4.04a4.315,4.315,0,0,1-.917,3.117S722.253,51.878,722.661,51.17Z" transform="translate(-712.579 -42.501)" fill="#474546"/>
            <path id="Path_359" data-name="Path 359" d="M650.336,8.415s-.17-5.055,3.267-6.881A3.306,3.306,0,0,1,654.06.06h-6.32V8.585A14.356,14.356,0,0,0,650.336,8.415Z" transform="translate(-647.74 -0.054)" fill="#474546"/>
            <path id="Path_360" data-name="Path 360" d="M721.849,5.832V0H717.49a23.411,23.411,0,0,1,4.359,5.832Z" transform="translate(-710.64)" fill="#474546"/>
            <path id="Path_361" data-name="Path 361" d="M746.45,98.181h1.515V95.57Q747.273,96.913,746.45,98.181Z" transform="translate(-736.756 -86.184)" fill="#474546"/>
            <path id="Path_362" data-name="Path 362" d="M653.1,102.39a12.007,12.007,0,0,1-5.315,1.544h-.048v.4h9.091A8.392,8.392,0,0,0,653.1,102.39Z" transform="translate(-647.74 -92.335)" fill="#474546"/>
            <path id="Path_363" data-name="Path 363" d="M688.67,43.6a3.559,3.559,0,0,0-1.6,1.82c-.007.423.551.9,1.247.9a1.7,1.7,0,0,0,1.518-1.08,2.128,2.128,0,0,0-.509-1.5.491.491,0,0,0-.656-.137Z" transform="translate(-683.207 -39.258)" fill="#474546"/>
          </g>
        </g>
        <g id="Group_436" data-name="Group 436" transform="translate(76.378 0)">
          <g id="Group_429" data-name="Group 429" transform="translate(0 0.005)">
            <path id="Path_364" data-name="Path 364" d="M855.34,26.245c0,.521,2.582.393,3.588,1.111v-3.1C857.316,24.333,855.34,25.4,855.34,26.245Z" transform="translate(-847.717 -21.882)" fill="#474546"/>
            <path id="Path_365" data-name="Path 365" d="M837.12,80.688H842.5V76.17A10.2,10.2,0,0,1,837.12,80.688Z" transform="translate(-831.286 -68.694)" fill="#474546"/>
            <path id="Path_366" data-name="Path 366" d="M779.624,3.153a.233.233,0,0,1,.408.221c-2.044,4.824.2,6.207,2.542,6.207,2.77,0,4.237-1.241,4.237-2.161s-3.753-.884-3.753-2.3A7.5,7.5,0,0,1,787.934.05H777.72V12.042h3.367C778.435,11.367,775.954,8.654,779.624,3.153Z" transform="translate(-777.72 -0.05)" fill="#474546"/>
          </g>
          <g id="Group_430" data-name="Group 430" transform="translate(50.807)">
            <path id="Path_367" data-name="Path 367" d="M1370.017,51.17c.5-.864-1.5-3.556-2.1-4.04a4.322,4.322,0,0,1-.912,3.117S1369.609,51.878,1370.017,51.17Z" transform="translate(-1359.935 -42.501)" fill="#474546"/>
            <path id="Path_368" data-name="Path 368" d="M1297.656,8.415s-.169-5.055,3.267-6.881a3.3,3.3,0,0,1,.458-1.473h-6.321V8.585A14.357,14.357,0,0,0,1297.656,8.415Z" transform="translate(-1295.06 -0.054)" fill="#474546"/>
            <path id="Path_369" data-name="Path 369" d="M1393.78,98.181h1.515V95.57a29.875,29.875,0,0,1-1.515,2.611Z" transform="translate(-1384.085 -86.184)" fill="#474546"/>
            <path id="Path_370" data-name="Path 370" d="M1369.153,5.832V0h-4.363a23.363,23.363,0,0,1,4.363,5.832Z" transform="translate(-1357.942)" fill="#474546"/>
            <path id="Path_371" data-name="Path 371" d="M1300.424,102.39a12.008,12.008,0,0,1-5.316,1.544h-.048v.4h9.092A8.378,8.378,0,0,0,1300.424,102.39Z" transform="translate(-1295.06 -92.335)" fill="#474546"/>
            <path id="Path_372" data-name="Path 372" d="M1336,43.6a3.55,3.55,0,0,0-1.6,1.82c-.007.423.551.9,1.247.9a1.7,1.7,0,0,0,1.518-1.08,2.127,2.127,0,0,0-.509-1.5A.491.491,0,0,0,1336,43.6Z" transform="translate(-1330.536 -39.254)" fill="#474546"/>
          </g>
          <g id="Group_431" data-name="Group 431" transform="translate(63.568)">
            <path id="Path_373" data-name="Path 373" d="M1429.033,2.712a.393.393,0,0,1,.04-.4L1430.783,0H1425V12h5.229C1430.177,5.7,1429.337,3.353,1429.033,2.712Z" transform="translate(-1425)" fill="#474546"/>
            <path id="Path_374" data-name="Path 374" d="M1483.492,0c1.541,7.252.33,10.691-.411,12h5.506V0Z" transform="translate(-1477.376)" fill="#474546"/>
          </g>
          <g id="Group_432" data-name="Group 432" transform="translate(76.224)">
            <path id="Path_375" data-name="Path 375" d="M1557.378,9.286c2.141.048,6.129-2.011,6.129-3.6,0-1.617-1.879-2.715-1.78-3.143A21.984,21.984,0,0,1,1563.086,0h-9.206V8.884A17.042,17.042,0,0,0,1557.378,9.286Z" transform="translate(-1553.879)" fill="#474546"/>
            <path id="Path_376" data-name="Path 376" d="M1614.44,0c.944,1.52,2.327,4.5,1.13,6.928A11.3,11.3,0,0,1,1610.5,12h5.023a.624.624,0,0,0,.625-.624V.627a.625.625,0,0,0-.625-.627Z" transform="translate(-1604.938 0)" fill="#474546"/>
            <path id="Path_377" data-name="Path 377" d="M1553.87,93.68v2.8h4.279a19.472,19.472,0,0,1-4.279-2.8Z" transform="translate(-1553.87 -84.48)" fill="#474546"/>
          </g>
          <g id="Group_433" data-name="Group 433" transform="translate(25.361)">
            <path id="Path_378" data-name="Path 378" d="M1036.1,7.176c4.851,0,4.425-4.865,8.236-2.862a2.437,2.437,0,0,0-.445,1.664c.295,1.067,1.557,2.048,3.318,2.407V0H1036V7.176Z" transform="translate(-1035.996)" fill="#474546"/>
            <path id="Path_379" data-name="Path 379" d="M1091.189,69.117c-.127-.246-1.679-.344-1.679,0a2.177,2.177,0,0,0,1.385,1.523C1091.147,70.64,1091.326,69.373,1091.189,69.117Z" transform="translate(-1084.251 -62.129)" fill="#474546"/>
            <path id="Path_380" data-name="Path 380" d="M1039.184,96.27a5.794,5.794,0,0,1-3.224.786v1.758h5.53a16.278,16.278,0,0,1-2.306-2.544Z" transform="translate(-1035.96 -86.816)" fill="#474546"/>
            <path id="Path_381" data-name="Path 381" d="M1106.388,99.11l-1.768,2.259h4.469v-.614A5.813,5.813,0,0,1,1106.388,99.11Z" transform="translate(-1097.877 -89.377)" fill="#474546"/>
          </g>
          <g id="Group_434" data-name="Group 434" transform="translate(38.126)">
            <path id="Path_382" data-name="Path 382" d="M1172.245,87.51a9.12,9.12,0,0,1-6.3,2.88v.522h11.209V90.45C1172.854,90.1,1172.245,87.51,1172.245,87.51Z" transform="translate(-1165.94 -78.916)" fill="#474546"/>
            <path id="Path_383" data-name="Path 383" d="M1166.394,8.52c3.669,0,5.193-1.839,6-3.634a.331.331,0,0,1,.632.117c.173,2.972,1.975,3.437,4.125,3.505V0H1165.94V8.515Zm4.91-7.006.943-.942a.339.339,0,0,1,.478,0l.942.942a.339.339,0,0,1,0,.478l-.942.942a.337.337,0,0,1-.478,0l-.943-.942a.338.338,0,0,1,0-.478Z" transform="translate(-1165.94)" fill="#474546"/>
          </g>
          <g id="Group_435" data-name="Group 435" transform="translate(12.681)">
            <path id="Path_384" data-name="Path 384" d="M912.631,10.24c-3.673,0-2.1-5.055-3.673-10.007l.18-.233h-2.3V12h11.211V10.24Z" transform="translate(-906.84)" fill="#474546"/>
            <path id="Path_385" data-name="Path 385" d="M946.042,3.51c-.06,2.616.939,3.664,2.414,3.664h4.793V0H945.87A15,15,0,0,1,946.042,3.51Z" transform="translate(-942.037)" fill="#474546"/>
          </g>
        </g>
      </g>
    </g>
  </g>
</svg>
