<svg xmlns="http://www.w3.org/2000/svg" width="22.629" height="22.629" viewBox="0 0 22.629 22.629">
  <g id="Layer_2" data-name="Layer 2" transform="translate(3.096 2.749)">
    <g id="Layer_1" data-name="Layer 1" transform="translate(-2.596 -2.249)">
      <rect id="Rectangle_1" data-name="Rectangle 1" width="21.629" height="21.629" rx="7" transform="translate(0 0)" fill="none" stroke="#474546" stroke-width="1"/>
      <path id="Path_1" data-name="Path 1" d="M119.987,88.563a12.257,12.257,0,0,0-2.078-4.63,15.255,15.255,0,0,0-1.593-2.005c-.524-.587-1.143-1.222-1.88-1.929-.091-.089-.205-.2-.283-.279-.132-.134-.184-.022-.184-.022l-.153.28-.011.019c-.844,1.56-.99,1.659-.7,1.882-4.248,1.956-4.683,7.724-4.538,8.442a13.334,13.334,0,0,1-3.488.349.23.23,0,0,0-.23.23v3.24a.23.23,0,0,0,.243.229,15.4,15.4,0,0,0,5.622-1.249c1.4-.545,1.134-.52,2.39,0,.217.1.458.2.7.322a7.492,7.492,0,0,1,2.51,1.807c.065.066.129.152.194.223l.389.466a.213.213,0,0,0,.328,0l.39-.468c.111-.138.2-.253.294-.371a9.712,9.712,0,0,0,2.173-4.991A7.383,7.383,0,0,0,119.987,88.563ZM109.92,87.25a2.886,2.886,0,0,1,.821-1.287c.7-.767,1.835-1.758,2.414-.916a2.384,2.384,0,0,1,.652,1.114,6.071,6.071,0,0,1,.121,1.659.425.425,0,0,0-.121.1C112.454,88.884,109.751,89.007,109.92,87.25Zm8.159,3.639a1.4,1.4,0,0,0-.169.1,2.8,2.8,0,0,1-1.593-.1,15.326,15.326,0,0,1-2-.792c-.29-.124-.459-.223-.507-.322a.229.229,0,0,1,0-.248,10.446,10.446,0,0,0,1.279-2.327,4.517,4.517,0,0,0,.217-1.238c0-.545.048-1.238.483-.372a8.927,8.927,0,0,0,.531.916,26.365,26.365,0,0,1,1.593,2.946C118.223,90.2,118.368,90.765,118.078,90.889Z" transform="translate(-101.731 -77.466)" fill="#474546"/>
    </g>
  </g>
</svg>
