<svg xmlns="http://www.w3.org/2000/svg" width="262" height="236.25" viewBox="0 0 262 236.25">
  <g id="Group_90" data-name="Group 90" transform="translate(-46.27 -309.75)">
    <g id="Group_88" data-name="Group 88" transform="translate(6.039 11.25)">
      <g id="Group_82" data-name="Group 82">
        <g id="Group_81" data-name="Group 81" transform="translate(-15.754 -72.712)">
          <path id="Fill_3" data-name="Fill 3" d="M7.043,39.514a3.477,3.477,0,0,1-3.48,3.48H3.512A3.514,3.514,0,0,1,0,39.473V28.784C0,11.016,11.094,0,28.789,0H63.281C81.054,0,92.065,11.016,92.065,28.8V63.322c0,17.732-11.011,28.743-28.784,28.743H28.743C11.011,92.065,0,81.054,0,63.309a3.521,3.521,0,0,1,7.043,0c0,13.966,7.692,21.7,21.741,21.7H63.281c14.008,0,21.741-7.692,21.741-21.7V28.784c0-14.008-7.687-21.741-21.741-21.741h-34.5c-14.008,0-21.741,7.733-21.741,21.741v10.73Z" transform="translate(157.222 423.712)" fill="#474546" stroke="#fff" stroke-width="5"/>
        </g>
        <rect id="Search_Field" data-name="Search Field" width="70.52" height="69.196" rx="18" transform="translate(152.24 362.434)" fill="#474546" stroke="#fff" stroke-width="1" opacity="0.03"/>
      </g>
      <g id="Group_83" data-name="Group 83" opacity="0.18">
        <rect id="Search_Field-2" data-name="Search Field" width="20.079" height="19" rx="7" transform="translate(101.921 396.5)" fill="#474546" stroke="#fff" stroke-width="1"/>
        <rect id="Search_Field-3" data-name="Search Field" width="20.079" height="19" rx="7" transform="translate(132.921 299)" fill="#474546" stroke="#fff" stroke-width="1"/>
        <rect id="Search_Field-4" data-name="Search Field" width="9.079" height="9" rx="3" transform="translate(122 440.5)" fill="#474546" stroke="#fff" stroke-width="1"/>
        <rect id="Search_Field-5" data-name="Search Field" width="9.079" height="9" rx="3" transform="translate(229.421 470.5)" fill="#474546" stroke="#fff" stroke-width="1"/>
        <rect id="Search_Field-6" data-name="Search Field" width="9.079" height="9" rx="3" transform="translate(244.421 319.5)" fill="#474546" stroke="#fff" stroke-width="1"/>
        <rect id="Search_Field-7" data-name="Search Field" width="9.079" height="9" rx="3" transform="translate(267.421 406)" fill="#474546" stroke="#fff" stroke-width="1"/>
        <rect id="Search_Field-8" data-name="Search Field" width="9.079" height="9" rx="3" transform="translate(166.421 336)" fill="#474546" stroke="#fff" stroke-width="1"/>
        <rect id="Search_Field-9" data-name="Search Field" width="5.079" height="5" rx="2.5" transform="translate(92 435.5)" fill="#474546" stroke="#fff" stroke-width="1"/>
        <rect id="Search_Field-10" data-name="Search Field" width="5.079" height="5" rx="2.5" transform="translate(235.961 435.5)" fill="#474546" stroke="#fff" stroke-width="1"/>
        <rect id="Search_Field-11" data-name="Search Field" width="5.079" height="5" rx="2.5" transform="translate(265.961 365.5)" fill="#474546" stroke="#fff" stroke-width="1"/>
        <rect id="Search_Field-12" data-name="Search Field" width="5.079" height="5" rx="2.5" transform="translate(85.961 355.5)" fill="#474546" stroke="#fff" stroke-width="1"/>
        <rect id="Search_Field-13" data-name="Search Field" width="5.079" height="5" rx="2.5" transform="translate(135.961 365.5)" fill="#474546" stroke="#fff" stroke-width="1"/>
        <rect id="Search_Field-14" data-name="Search Field" width="5.079" height="5" rx="2.5" transform="translate(165.961 485.5)" fill="#474546" stroke="#fff" stroke-width="1"/>
        <rect id="Search_Field-15" data-name="Search Field" width="5.079" height="5" rx="2.5" transform="translate(195.961 315.5)" fill="#474546" stroke="#fff" stroke-width="1"/>
      </g>
      <path id="Path_19" data-name="Path 19" d="M1466.971,536.621v-5.852" transform="translate(-1322 -130)" fill="none" stroke="#474546" stroke-linecap="round" stroke-width="2"/>
      <g id="Iconly_Bulk_Time_Square" data-name="Iconly/Bulk/Time Square" transform="translate(171.838 381.088)">
        <g id="Time_Square" data-name="Time Square">
          <path id="Fill_3-2" data-name="Fill 3" d="M22.459,0H8.88C3.571,0,0,3.728,0,9.272v12.8c0,5.529,3.571,9.256,8.88,9.256H22.459c5.309,0,8.865-3.728,8.865-9.256V9.272C31.324,3.728,27.769,0,22.459,0" fill="none" stroke="#474546" stroke-width="1.5"/>
          <path id="Fill_1" data-name="Fill 1" d="M7.322,13.922a1.184,1.184,0,0,1-.6-.164L.572,10.09A1.18,1.18,0,0,1,0,9.079v-7.9a1.175,1.175,0,1,1,2.349,0V8.412l5.576,3.325a1.175,1.175,0,0,1-.6,2.185" transform="translate(13.937 7.714)" fill="#474546"/>
        </g>
      </g>
    </g>
    <text id="لیــست_تــاریخچه_بـــازدید_های_شما_خــــالی_اســت" data-name="لیــست تــاریخچه بـــازدید‌های شما خــــالی اســت" transform="translate(46.27 542)" fill="#474546" font-size="14" font-family="SegoeUI, Segoe UI"><tspan x="0" y="0">لیــست تــاریخچه بـــازدید‌های شما خــــالی اســت</tspan></text>
  </g>
</svg>
