<svg xmlns="http://www.w3.org/2000/svg" width="283" height="237.25" viewBox="0 0 283 237.25">
  <g id="Group_90" data-name="Group 90" transform="translate(-39.77 -309.75)">
    <g id="Group_88" data-name="Group 88" transform="translate(6.039 11.25)">
      <g id="Group_82" data-name="Group 82">
        <g id="Group_81" data-name="Group 81" transform="translate(-15.754 -72.712)">
          <path id="Fill_3" data-name="Fill 3" d="M7.043,39.514a3.477,3.477,0,0,1-3.48,3.48H3.512A3.514,3.514,0,0,1,0,39.473V28.784C0,11.016,11.094,0,28.789,0H63.281C81.054,0,92.065,11.016,92.065,28.8V63.322c0,17.732-11.011,28.743-28.784,28.743H28.743C11.011,92.065,0,81.054,0,63.309a3.521,3.521,0,0,1,7.043,0c0,13.966,7.692,21.7,21.741,21.7H63.281c14.008,0,21.741-7.692,21.741-21.7V28.784c0-14.008-7.687-21.741-21.741-21.741h-34.5c-14.008,0-21.741,7.733-21.741,21.741v10.73Z" transform="translate(157.222 423.712)" fill="#474546" stroke="#fff" stroke-width="5"/>
        </g>
        <rect id="Search_Field" data-name="Search Field" width="70.52" height="69.196" rx="18" transform="translate(152.24 362.434)" fill="#474546" stroke="#fff" stroke-width="1" opacity="0.03"/>
      </g>
      <g id="Group_83" data-name="Group 83" opacity="0.18">
        <rect id="Search_Field-2" data-name="Search Field" width="20.079" height="19" rx="7" transform="translate(101.921 396.5)" fill="#474546" stroke="#fff" stroke-width="1"/>
        <rect id="Search_Field-3" data-name="Search Field" width="20.079" height="19" rx="7" transform="translate(132.921 299)" fill="#474546" stroke="#fff" stroke-width="1"/>
        <rect id="Search_Field-4" data-name="Search Field" width="9.079" height="9" rx="3" transform="translate(122 440.5)" fill="#474546" stroke="#fff" stroke-width="1"/>
        <rect id="Search_Field-5" data-name="Search Field" width="9.079" height="9" rx="3" transform="translate(229.421 470.5)" fill="#474546" stroke="#fff" stroke-width="1"/>
        <rect id="Search_Field-6" data-name="Search Field" width="9.079" height="9" rx="3" transform="translate(244.421 319.5)" fill="#474546" stroke="#fff" stroke-width="1"/>
        <rect id="Search_Field-7" data-name="Search Field" width="9.079" height="9" rx="3" transform="translate(267.421 406)" fill="#474546" stroke="#fff" stroke-width="1"/>
        <rect id="Search_Field-8" data-name="Search Field" width="9.079" height="9" rx="3" transform="translate(166.421 336)" fill="#474546" stroke="#fff" stroke-width="1"/>
        <rect id="Search_Field-9" data-name="Search Field" width="5.079" height="5" rx="2.5" transform="translate(92 435.5)" fill="#474546" stroke="#fff" stroke-width="1"/>
        <rect id="Search_Field-10" data-name="Search Field" width="5.079" height="5" rx="2.5" transform="translate(235.961 435.5)" fill="#474546" stroke="#fff" stroke-width="1"/>
        <rect id="Search_Field-11" data-name="Search Field" width="5.079" height="5" rx="2.5" transform="translate(265.961 365.5)" fill="#474546" stroke="#fff" stroke-width="1"/>
        <rect id="Search_Field-12" data-name="Search Field" width="5.079" height="5" rx="2.5" transform="translate(85.961 355.5)" fill="#474546" stroke="#fff" stroke-width="1"/>
        <rect id="Search_Field-13" data-name="Search Field" width="5.079" height="5" rx="2.5" transform="translate(135.961 365.5)" fill="#474546" stroke="#fff" stroke-width="1"/>
        <rect id="Search_Field-14" data-name="Search Field" width="5.079" height="5" rx="2.5" transform="translate(165.961 485.5)" fill="#474546" stroke="#fff" stroke-width="1"/>
        <rect id="Search_Field-15" data-name="Search Field" width="5.079" height="5" rx="2.5" transform="translate(195.961 315.5)" fill="#474546" stroke="#fff" stroke-width="1"/>
      </g>
      <path id="Path_19" data-name="Path 19" d="M1466.971,536.621v-5.852" transform="translate(-1322 -130)" fill="none" stroke="#474546" stroke-linecap="round" stroke-width="2"/>
      <g id="Iconly_Curved_Bookmark" data-name="Iconly/Curved/Bookmark" transform="translate(176.5 382.032)">
        <g id="Bookmark">
          <path id="Stroke_2" data-name="Stroke 2" d="M11.7,0C1.7,0,.007,1.459.007,13.2.007,26.34-.239,29.75,2.26,29.75s6.576-5.768,9.437-5.768,6.94,5.768,9.437,5.768,2.253-3.41,2.253-16.552C23.387,1.459,21.7,0,11.7,0Z" transform="translate(0 0)" fill="none" stroke="#2d2c2c" stroke-linecap="round" stroke-linejoin="round" stroke-miterlimit="10" stroke-width="2"/>
          <path id="Stroke_1" data-name="Stroke 1" d="M0,.5H10.733" transform="translate(6.33 10.019)" fill="none" stroke="#2d2c2c" stroke-linecap="round" stroke-linejoin="round" stroke-miterlimit="10" stroke-width="2"/>
        </g>
      </g>
    </g>
    <text id="لیــست_آگـــهی_های_نــشان_شده_شما_خــــالی_اســت" data-name="لیــست  آگـــهی‌های نــشان شده  شما خــــالی اســت" transform="translate(39.77 543)" fill="#474546" font-size="14" font-family="SegoeUI, Segoe UI"><tspan x="0" y="0" xml:space="preserve">لیــست  آگـــهی‌های نــشان شده  شما خــــالی اســت</tspan></text>
  </g>
</svg>
