<svg xmlns="http://www.w3.org/2000/svg" width="27.5" height="27.5" viewBox="0 0 27.5 27.5">
  <g id="Group_4317" data-name="Group 4317" transform="translate(21195.75 4151.476)">
    <g id="Group_4315" data-name="Group 4315" transform="translate(-21527.5 -4463.226)">
      <path id="Stroke_4" data-name="Stroke 4" d="M.5,13.5C.5,3.376,3.376.5,13.5.5s13,2.876,13,13-2.876,13-13,13S.5,23.624.5,13.5Z" transform="translate(332 312)" fill="#db143d" stroke="#db143d" stroke-linecap="round" stroke-linejoin="round" stroke-miterlimit="10" stroke-width="1.5"/>
    </g>
    <g id="exit-svgrepo-com" transform="translate(-21188 -4146)">
      <g id="Group_4316" data-name="Group 4316">
        <path id="Path_1213" data-name="Path 1213" d="M14,16.364V19.5a.5.5,0,0,1-.5.5h-9a.5.5,0,0,1-.5-.5V4.5A.5.5,0,0,1,4.5,4h9a.5.5,0,0,1,.5.5V7.636" transform="translate(-4 -4)" fill="none" stroke="#fff" stroke-linecap="round" stroke-linejoin="round" stroke-width="2"/>
      </g>
      <path id="Path_1214" data-name="Path 1214" d="M10,12H21m0,0-3,3.5M21,12,18,8.5" transform="translate(-4 -4)" fill="none" stroke="#fff" stroke-linecap="round" stroke-linejoin="round" stroke-width="2"/>
    </g>
  </g>
</svg>
