<svg xmlns="http://www.w3.org/2000/svg" viewBox="0 0 500 650"><defs><style>.cls-1,.cls-3{fill:#fff;}.cls-2,.cls-5{fill:none;stroke:#fff;stroke-miterlimit:10;}.cls-2{stroke-width:2px;}.cls-3{fill-rule:evenodd;}.cls-4{fill:#48b7a2;}</style></defs><g id="Layer_2" data-name="Layer 2"><g id="Layer_1-2" data-name="Layer 1"><path class="cls-1" d="M498,2V648H2V2H498m2-2H0V650H500Z"/><rect class="cls-1" x="121.38" y="109.35" width="257.24" height="38.57" rx="4.67"/><polyline class="cls-2" points="442.62 26.69 482.64 26.69 482.64 631.29 13.86 631.29 13.86 26.69 61.06 26.69"/><path class="cls-1" d="M134.54,28a22.16,22.16,0,0,1,1.12-5.7A15.09,15.09,0,0,1,139,16.2a5.23,5.23,0,0,1,1.32-.8,1.4,1.4,0,0,0,.29-.09H126.43v9.88C128.66,27,131.42,29.29,134.54,28Z"/><path class="cls-1" d="M139,21.77c-.08.13-.16.22-.24.34-1.12,1.44-2,3-.7,3.38a2,2,0,0,0,.94.17,4.87,4.87,0,0,0,1.32-.09,9.2,9.2,0,0,0,2-.59c1.52-.63,2.72-1.56,2.26-2.61a2.6,2.6,0,0,0-2.26-1.74,3.82,3.82,0,0,0-2,.3A3.35,3.35,0,0,0,139,21.77Z"/><path class="cls-1" d="M149.29,34.69c-1.4-.55-1.65.05-1.45,1.82.17,1.14.7,3.89,1.9,5.28h2.55V36.22c-1-.46-1.73-.94-2.26-1.15A6.45,6.45,0,0,0,149.29,34.69Z"/><path class="cls-1" d="M150,15.31h-6.51A5.57,5.57,0,0,1,147.35,19a6.2,6.2,0,0,1-.49,5,24.39,24.39,0,0,1-4.49,6,7.07,7.07,0,0,1-2,1.52.75.75,0,0,1-.29.09l.29.63a24.07,24.07,0,0,0,2,3,10.4,10.4,0,0,0,2.3,2.24c2.64,1.69.91-3.3.46-6.13-.54-3.37.61-3.12,2.1-3,.7.08,1.73.46,2.8.71.78.17,1.47.49,2.26.7V15.31Z"/><path class="cls-1" d="M140.35,39.8c-.41-.38-.86-.76-1.32-1.22a11.64,11.64,0,0,1-2.59-4c-.66-1.4-.25-1.48-2.23-.81a8.4,8.4,0,0,1-7.78-2.32V41.79h16.88c-.24-.17-.57-.34-.94-.59A16.52,16.52,0,0,1,140.35,39.8Z"/><path class="cls-1" d="M88.1,23c-.5.59-.58,1.14,0,1.56a.86.86,0,0,0,.2.13c2.89,2.15,7.79,0,6.92,5.19a16.15,16.15,0,0,1-2.88,6.55,13.23,13.23,0,0,1-4.24,3.88,11,11,0,0,1-4.49,1.44H96.13V19.54C94.56,19.16,89.5,21.22,88.1,23Z"/><path class="cls-1" d="M70.31,33.68v5.66a2.41,2.41,0,0,0,2.41,2.41h6.16a21.83,21.83,0,0,1-4.29-1.57A7.24,7.24,0,0,1,70.31,33.68Z"/><path class="cls-1" d="M92.17,32c.17-.59-.32-1.22-1.56-1.69-.82-.34-1.73-.59-2.51-.84A11.15,11.15,0,0,1,84.64,28c-.91-.59-1.11-2.11-.41-3.54A24.69,24.69,0,0,1,88.1,18.4a11.52,11.52,0,0,1,4.45-3.13H72.72a2.41,2.41,0,0,0-2.41,2.41h0V31.87a22,22,0,0,1,4.28-8.49c.41-.55.87-1.1,1.36-1.69.66-1,1.36-.63.78.17a27.19,27.19,0,0,0-2.14,3.55c-1.4,2.82-1.81,5.61,0,8.15.21.25.41.54.66.8,3.09,2.7,8.81,2.4,12.85.72A7.91,7.91,0,0,0,92.17,32Z"/><path class="cls-1" d="M237.36,33.68v8.07h8.56a21.74,21.74,0,0,1-4.28-1.57A7.24,7.24,0,0,1,237.36,33.68Z"/><path class="cls-1" d="M259.18,32c.13-.59-.37-1.22-1.6-1.69-.83-.34-1.69-.59-2.52-.84a10.81,10.81,0,0,1-3.45-1.4c-.91-.59-1.12-2.11-.42-3.54a25,25,0,0,1,3.87-6.08,11.52,11.52,0,0,1,4.45-3.13H237.36v16.6a22,22,0,0,1,4.28-8.49c.41-.55.87-1.1,1.36-1.69.66-1,1.36-.63.82.17a24,24,0,0,0-2.18,3.55c-1.4,2.82-1.81,5.61,0,8.15.21.25.41.54.66.8,3.09,2.7,8.73,2.4,12.76.72A8.22,8.22,0,0,0,259.18,32Z"/><path class="cls-1" d="M255.06,23c-.49.59-.57,1.14,0,1.56l.21.13c2.88,2.15,7.78,0,6.92,5.19a16.48,16.48,0,0,1-2.88,6.55,12.94,12.94,0,0,1-4.25,3.88,10.91,10.91,0,0,1-4.44,1.44h12.47V19.54C261.53,19.16,256.46,21.22,255.06,23Z"/><path class="cls-1" d="M99.13,36.6c-.41-.43-1.07-1-1.07-1.14v6.33h10c-1.11,0-3.09-1.06-5-2.28A39.89,39.89,0,0,1,99.13,36.6Z"/><path class="cls-1" d="M106.3,36a19.56,19.56,0,0,0,8.6-3.46A14.91,14.91,0,0,0,119.39,28a2.89,2.89,0,0,0,.29-.55c.16-.34.29-.89-.29-2.28a.24.24,0,0,0-.08-.21c-.62-1.18-4.57-5.11-3.17-6.5a29.47,29.47,0,0,0,2.22-3.09H98.06V35.08a17.39,17.39,0,0,0,5,.92A25,25,0,0,0,106.3,36Z"/><path class="cls-1" d="M121.29,29.25c-.37.76-1,2.19-1.9,3.76a22,22,0,0,1-2.76,3.88,16.87,16.87,0,0,1-1.73,1.65,38.89,38.89,0,0,1-4.9,3.25h14V30.35c-.41-.47-.74-.76-1-1.06C121.53,28,121.78,28.15,121.29,29.25Z"/><path class="cls-1" d="M119.39,15.31h-.45c.12,0,.29.3.45.68l.25.55a38.74,38.74,0,0,0,4.28,6.54V15.31Z"/><path class="cls-1" d="M299.7,35.75c-1.57,1-1.61,1.48-2.8,1.82a38,38,0,0,1-4.08.88v3.26h12C302.13,40.65,301.1,34.57,299.7,35.75Z"/><path class="cls-1" d="M308.18,33.68a15.07,15.07,0,0,0,.25-3c-1-.25-1.9-.5-2.64-.63-1.19-.17-2.06-.08-2.63.72a2.62,2.62,0,0,0,.16,1,6.21,6.21,0,0,0,2.47,3,.28.28,0,0,1,.17.08C307.32,35.46,308,34.82,308.18,33.68Z"/><path class="cls-1" d="M305.79,15.23h-13V32.29c4.12-.59,6.92-3.25,8.36-4.48s2.55-3,4.61-3.8a6.19,6.19,0,0,1,1.28-.34c1.23-.25,4.2.64,3.58,1.36-.78,2.4-1.11,3-.41,4.13,1.44,2.28,5.06,4.23,8.4,4.35V15.23Z"/><path class="cls-1" d="M306.62,41.71h12v-2c-2.27,0-3.25-.21-6-2.54C310.69,36.3,309.37,41.75,306.62,41.71Z"/><path class="cls-1" d="M195,15.23H182V32.29c4.12-.59,6.92-3.25,8.36-4.48s2.55-3,4.61-3.8a6.19,6.19,0,0,1,1.28-.34c1.23-.25,4.2.64,3.58,1.36-.78,2.4-1.11,3-.41,4.13,1.44,2.28,5.06,4.23,8.4,4.35V15.23Z"/><path class="cls-1" d="M197.34,33.68c.24-2.49.33-3,.24-3-1-.25-1.89-.5-2.63-.63-1.2-.17-2.06-.08-2.64.72a2.63,2.63,0,0,0,.17,1,6.21,6.21,0,0,0,2.47,3,.25.25,0,0,1,.16.08C196.47,35.46,197.17,34.82,197.34,33.68Z"/><path class="cls-1" d="M188.85,35.75c-1.56,1-1.6,1.48-2.79,1.82a38,38,0,0,1-4.08.88v3.26h12C191.28,40.65,190.25,34.57,188.85,35.75Z"/><path class="cls-1" d="M195.77,41.71h12v-2c-2.27,0-3.26-.21-6-2.54C199.85,36.3,198.53,41.75,195.77,41.71Z"/><path class="cls-1" d="M354.67,33c-.25-1.22.49-11.06,7.74-14.4-.5-.38-.25-.54,1.19-3.2v-.09H348.33V33.56S352.9,33.64,354.67,33Z"/><path class="cls-1" d="M363.6,38.28c-.41-.21-.82-.38-1.19-.54-2.14-.89-1.69-.93-4.08,0a26.86,26.86,0,0,1-10,2.15v1.9h19.93c-.13-.13-.25-.3-.38-.42A12.72,12.72,0,0,0,363.6,38.28Z"/><path class="cls-1" d="M363.6,25.87a4.08,4.08,0,0,0-1.11-1.9c-1-1.44-2.92.25-4.12,1.56a5.13,5.13,0,0,0-1.4,2.2c-.28,3,4.33,2.78,6.63,1.14a.68.68,0,0,1,.21-.17A10.34,10.34,0,0,0,363.6,25.87Z"/><path class="cls-1" d="M370.89,33.94c.49-.22.25-1.19-.29-2.45a45.6,45.6,0,0,0-2.72-5,15,15,0,0,1-.9-1.56c-.74-1.48-.82-.3-.82.63a7.54,7.54,0,0,1-.37,2.11,17.48,17.48,0,0,1-2.19,4,.42.42,0,0,0,0,.43,1.94,1.94,0,0,0,.87.54A25.77,25.77,0,0,0,367.88,34a4.76,4.76,0,0,0,2.72.16Z"/><path class="cls-1" d="M370.6,15.31h-6c1.28,1.23,2.35,2.33,3.25,3.34a25.68,25.68,0,0,1,2.72,3.42,26.42,26.42,0,0,1,3.58,8V15.31Z"/><path class="cls-1" d="M370.6,41.11c-.16.22-.33.43-.53.68h4.11v-8C373.69,33.85,374.06,36.51,370.6,41.11Z"/><path class="cls-1" d="M225,38.28c-.42-.21-.83-.38-1.16-.54-2.18-.89-1.73-.93-4.11,0a26.86,26.86,0,0,1-10,2.15v1.9h19.93c-.13-.13-.25-.3-.37-.42A12.53,12.53,0,0,0,225,38.28Z"/><path class="cls-1" d="M216,33c-.21-1.22.49-11.06,7.78-14.4-.49-.38-.29-.54,1.16-3.2v-.09H209.66V33.56S214.26,33.64,216,33Z"/><path class="cls-1" d="M225,25.87a4.1,4.1,0,0,0-1.12-1.9c-1-1.44-2.92.25-4.11,1.56a4.84,4.84,0,0,0-1.4,2.2c-.29,3,4.32,2.78,6.63,1.14a.55.55,0,0,1,.2-.17A8.7,8.7,0,0,0,225,25.87Z"/><path class="cls-1" d="M232,41.11c-.17.22-.33.43-.54.68h4.08v-8C235.05,33.85,235.42,36.51,232,41.11Z"/><path class="cls-1" d="M232.25,33.94c.5-.22.29-1.19-.28-2.45a45.6,45.6,0,0,0-2.72-5,13.5,13.5,0,0,1-.91-1.56c-.74-1.48-.82-.3-.82.63a6.33,6.33,0,0,1-.37,2.11,17.44,17.44,0,0,1-2.18,4,.38.38,0,0,0,0,.43c.08.16.37.33.86.54A26.46,26.46,0,0,0,229.25,34a4.76,4.76,0,0,0,2.72.16Z"/><path class="cls-1" d="M232,15.31h-6c1.28,1.23,2.35,2.33,3.26,3.34A25.4,25.4,0,0,1,232,22.11a27.3,27.3,0,0,1,3.54,8.11V15.31Z"/><path class="cls-1" d="M278.08,39.3c-3.05-.38-4.16-1.82-5.23-4.44-1.27-5-.2-6.08-2.39-17.22-.24-1,.13-1.14,1.28-2.41H265V41.71h25.82V38.79a61.7,61.7,0,0,1-9,.72A26,26,0,0,1,278.08,39.3Z"/><path class="cls-1" d="M281.83,15.23h-9a5.7,5.7,0,0,1,1.2,2.28c.9,4.73,0,12.33,2.26,14.48.91,1.14,2.51,1.57,5.56,1.52a8.29,8.29,0,0,0,1.36-.08,46.29,46.29,0,0,0,7.7-.76V15.23Z"/><path class="cls-1" d="M335.93,35.2c-.08-.12-.16-.29-.24-.42-.62-1.1-.87-1.06-1.61-.25a23.68,23.68,0,0,1-2.68,2.11c-3.41,2.57-7.86,3.08-10.78,3.12v2h25.81V40C346.51,39.51,338.94,40.1,335.93,35.2Z"/><path class="cls-1" d="M335.69,15.27H320.62V33.56c2.75-.26,9.88,1,14.65-7.61a5.91,5.91,0,0,1,.42-.88c.9-1.27,1.35,1.86,1.44,3.63,2.26,4.39,5.23,4.77,9.3,4.81V15.27Zm.08,5.49h-.08a17.65,17.65,0,0,1-2.19-1.86c-.57-.59-.78-.8.17-1.86.25-.25,1.44-1.39,2-1.43a.2.2,0,0,1,.27.09s0,0,0,0c.83.85,1.4,1.57,2.43,2.66A23.45,23.45,0,0,1,335.77,20.76Z"/><path class="cls-3" d="M386.17,18.82c.57-.68,2.3-3.3,2.8-3.55H376.12V41.75h12.11c-.42-7.9-.33-9.55-1.57-16.43-1-5.62-1.19-4.94-.49-6.5Zm15.73-3.55h-12c1.44,3.46,2.43,13.09,1,21.66a13,13,0,0,1-1.77,4.82H401.9V15.27Z"/><path class="cls-1" d="M408.48,15.27h-4.61V35.58c1.53.42.7.13,1.61.38a23.22,23.22,0,0,0,3,.47c5.07.59,10.92.08,16-5.7,2.1-3.13,1.77-3.85.25-6.13-1.2-1.81-1.32-1.47-2.8-3.21-1.28-.67,1.6-3.54,2.92-5.06,2.55,1.69,3.71,6.33,3.46,10.51,0,3.55-1.15,9.84-10.91,14.91h9.86a2.41,2.41,0,0,0,2.41-2.41h0V17.68a2.41,2.41,0,0,0-2.41-2.41H408.48Z"/><path class="cls-1" d="M406.34,38.2a16.89,16.89,0,0,1-2.47-1.9v5.45h9.27a33.26,33.26,0,0,1-4.66-2.24Z"/><path class="cls-1" d="M178.77,15.23H168.62l.29.13L171.34,18a24,24,0,0,1-2.64,2.4l-2.26-1.9c-.58-.59-.78-.8.16-1.86.25-.25,1.44-1.39,2-1.43H154.23V30.7c1.81.88,3.5.8,4.61-1,.33-1.1,2.06-2.07,1.15-.3-2.31,4.14,2.88,4,6,1.82a4.76,4.76,0,0,0,2.1-3c.17-1.1,1.07-1.52,1-.21,0,1.73.62,3.67,2.23,4.39a3.12,3.12,0,0,0,.94.25c1.24.13,3-1.77,3-4-.13-.8.74-1.27,1,.13.37,1.18,2.22,3.71,3.74,3.46v-17ZM166,24.9,163.71,23c-.57-.6-.78-.81.17-1.86.25-.26,1.44-1.4,2-1.44l.29.13,2.42,2.66A25.66,25.66,0,0,1,166,24.9Zm5.53,0L169.24,23c-.58-.6-.78-.81.17-1.86.24-.26,1.44-1.4,2-1.44l.29.13,2.43,2.66a24.94,24.94,0,0,1-2.62,2.41Z"/><path class="cls-1" d="M176.26,37.56c-1.28-1.27-1.16.08-1.32.67-.37,1.69-2,1.73-3.58,1.27a10.73,10.73,0,0,1-1.12-.42,9.7,9.7,0,0,0-4.2-1.27,10.47,10.47,0,0,0-2.3.34c-1.16.46-3.75,2.19-6.38,1-.42-.25-1.12-.95-1.53-1.25-.53,0-1.07-.76-1.6-.76V41.7H180V38.86A6.17,6.17,0,0,1,176.26,37.56Z"/><path class="cls-4" d="M227.33,138.93h-3.78V128.52a28.1,28.1,0,0,0-.44-4.84,42.63,42.63,0,0,0-1.34-5.46l3.84-1.29,1.24,4.88V122a.74.74,0,0,0,0,.21.22.22,0,0,1,0,.16v.18a.43.43,0,0,0,0,.16V123c.1.89.18,1.81.24,2.75s.09,1.86.09,2.74Z"/><path class="cls-4" d="M247.82,139q-1.48-2.61-2.56-4.77a34.94,34.94,0,0,1-1.71-3.92c-.08-.2-.18-.5-.3-.91s-.27-.9-.45-1.49l-.94-3.46c-.21.87-.45,1.79-.73,2.75s-.57,2-.9,3a24.58,24.58,0,0,1-1.59,3.69c-.73,1.45-1.66,3.14-2.81,5.08l-.87-.5-1-.54-1-.51-.75-.38c1.36-2.29,2.47-4.23,3.34-5.84a41.26,41.26,0,0,0,1.9-3.9,38.82,38.82,0,0,0,1.6-4.7q.72-2.59,1.28-5.75h3c.21,1.29.48,2.57.81,3.86s.68,2.54,1.08,3.76.84,2.4,1.3,3.52,1,2.17,1.46,3.13l.93,1.67,1.24,2.21.19.38.24.44c.09.15.17.29.26.41s0,.08.08.16a1.15,1.15,0,0,0,.12.25l.12.25.07.13Z"/><path class="cls-4" d="M261.56,138.93h-3.78V128.52a29.13,29.13,0,0,0-.44-4.84,42.63,42.63,0,0,0-1.34-5.46l3.84-1.29,1.24,4.88a.49.49,0,0,1,0,.17v.21a.22.22,0,0,1,0,.16.54.54,0,0,0,0,.18.43.43,0,0,0,0,.16v.12a.81.81,0,0,0,0,.22c.1.89.18,1.81.24,2.75s.09,1.86.09,2.74Z"/><path class="cls-4" d="M278.86,138.93H275.1V128.31a11.64,11.64,0,0,1-1.65.39,9.16,9.16,0,0,1-1.57.14,4.93,4.93,0,0,1-3.81-1.45,5.67,5.67,0,0,1-1.36-4,7.76,7.76,0,0,1,.4-2.57,6.3,6.3,0,0,1,1.17-2,5.56,5.56,0,0,1,4.24-1.93,5.26,5.26,0,0,1,1.62.29,10.73,10.73,0,0,1,1.8.8,5.79,5.79,0,0,1,2.17,3.41,24.26,24.26,0,0,1,.75,6.68Zm-7-14.34a4.7,4.7,0,0,0,1.29-.21,7.36,7.36,0,0,0,1.5-.64c0-.23-.1-.49-.15-.77s-.1-.59-.17-.93v.09a1.47,1.47,0,0,0-.41-.55,1.64,1.64,0,0,0-.66-.33h0l-.14-.06h-.63a1.59,1.59,0,0,1-.3-.06,3.24,3.24,0,0,0-.86.19,1.56,1.56,0,0,0-.59.39h0a2.37,2.37,0,0,0-.67,1.62,1.15,1.15,0,0,0,.45,1,2.12,2.12,0,0,0,1.33.26Z"/><rect class="cls-5" x="329.46" y="162" width="147.11" height="64.29"/><rect class="cls-5" x="177.37" y="162" width="147.11" height="64.29"/><rect class="cls-1" x="25.29" y="162" width="147.11" height="64.29"/><rect class="cls-5" x="329.46" y="232.71" width="147.11" height="64.29"/><rect class="cls-5" x="177.37" y="232.71" width="147.11" height="64.29"/><rect class="cls-5" x="25.29" y="232.71" width="147.11" height="64.29"/><rect class="cls-5" x="329.46" y="303.43" width="147.11" height="64.29"/><rect class="cls-1" x="177.37" y="303.43" width="147.11" height="135"/><rect class="cls-5" x="25.29" y="303.43" width="147.11" height="64.29"/><rect class="cls-5" x="329.46" y="374.14" width="147.11" height="64.29"/><rect class="cls-5" x="25.29" y="374.14" width="147.11" height="64.29"/><rect class="cls-5" x="329.46" y="444.86" width="147.11" height="64.29"/><rect class="cls-5" x="177.37" y="444.86" width="147.11" height="64.29"/><rect class="cls-5" x="25.29" y="444.86" width="147.11" height="64.29"/><rect class="cls-1" x="25.29" y="515.57" width="451.29" height="102.86"/><line class="cls-2" x1="450.82" y1="180.86" x2="355.21" y2="180.86"/><line class="cls-2" x1="450.82" y1="194.14" x2="355.21" y2="194.14"/><line class="cls-2" x1="450.82" y1="207.43" x2="355.21" y2="207.43"/><line class="cls-2" x1="450.82" y1="251.57" x2="355.21" y2="251.57"/><line class="cls-2" x1="450.82" y1="264.86" x2="355.21" y2="264.86"/><line class="cls-2" x1="450.82" y1="278.14" x2="355.21" y2="278.14"/><line class="cls-2" x1="298.73" y1="180.86" x2="203.13" y2="180.86"/><line class="cls-2" x1="298.73" y1="194.14" x2="203.13" y2="194.14"/><line class="cls-2" x1="298.73" y1="207.43" x2="203.13" y2="207.43"/><line class="cls-2" x1="143.93" y1="251.57" x2="48.33" y2="251.57"/><line class="cls-2" x1="143.93" y1="264.86" x2="48.33" y2="264.86"/><line class="cls-2" x1="143.93" y1="278.14" x2="48.33" y2="278.14"/><line class="cls-2" x1="298.73" y1="251.57" x2="203.13" y2="251.57"/><line class="cls-2" x1="298.73" y1="264.86" x2="203.13" y2="264.86"/><line class="cls-2" x1="298.73" y1="278.14" x2="203.13" y2="278.14"/><line class="cls-2" x1="298.73" y1="463.71" x2="203.13" y2="463.71"/><line class="cls-2" x1="298.73" y1="477" x2="203.13" y2="477"/><line class="cls-2" x1="298.73" y1="490.29" x2="203.13" y2="490.29"/><line class="cls-2" x1="450.82" y1="322.29" x2="355.21" y2="322.29"/><line class="cls-2" x1="450.82" y1="335.57" x2="355.21" y2="335.57"/><line class="cls-2" x1="450.82" y1="348.86" x2="355.21" y2="348.86"/><line class="cls-2" x1="450.82" y1="393" x2="355.21" y2="393"/><line class="cls-2" x1="450.82" y1="406.29" x2="355.21" y2="406.29"/><line class="cls-2" x1="450.82" y1="419.57" x2="355.21" y2="419.57"/><line class="cls-2" x1="450.82" y1="463.71" x2="355.21" y2="463.71"/><line class="cls-2" x1="450.82" y1="477" x2="355.21" y2="477"/><line class="cls-2" x1="450.82" y1="490.29" x2="355.21" y2="490.29"/><line class="cls-2" x1="146.64" y1="322.29" x2="51.04" y2="322.29"/><line class="cls-2" x1="146.64" y1="335.57" x2="51.04" y2="335.57"/><line class="cls-2" x1="146.64" y1="348.86" x2="51.04" y2="348.86"/><line class="cls-2" x1="146.64" y1="393" x2="51.04" y2="393"/><line class="cls-2" x1="146.64" y1="406.29" x2="51.04" y2="406.29"/><line class="cls-2" x1="146.64" y1="419.57" x2="51.04" y2="419.57"/><line class="cls-2" x1="146.64" y1="463.71" x2="51.04" y2="463.71"/><line class="cls-2" x1="146.64" y1="477" x2="51.04" y2="477"/><line class="cls-2" x1="146.64" y1="490.29" x2="51.04" y2="490.29"/><path class="cls-4" d="M158.72,81.76a8.59,8.59,0,0,1-4-.71c-.35-.27-.68-.56-1-.86-.53-.46-1.34-1.21-2.44-2.23a7.7,7.7,0,0,1-2.8,3.21,7.49,7.49,0,0,1-3.92,1A7.06,7.06,0,0,1,139.29,80a7.51,7.51,0,0,1-2.07-5.55,6.08,6.08,0,0,1,.26-1.69,10.66,10.66,0,0,1,.76-1.81,15.16,15.16,0,0,1,1.19-1.87c.46-.64,1-1.27,1.55-1.92l-.19-.23a2.2,2.2,0,0,0-.2-.23L140,66l3.23-3.35L154.39,74.4c.39.44.72.79,1,1.06A5.7,5.7,0,0,0,156,76h0a7.53,7.53,0,0,0,2.74.51Zm-11.17-7.07a1.88,1.88,0,0,0-.15-.74,2.1,2.1,0,0,0-.38-.6L145.7,72c-.44-.44-.88-.88-1.31-1.29l-.16.15-.14.17-.89.88c-.23.21-.42.4-.56.55a6.62,6.62,0,0,0-.69,1.18,2.09,2.09,0,0,0,.58,2.71h0a2.85,2.85,0,0,0,2,.64,3.33,3.33,0,0,0,2.14-.71,4.71,4.71,0,0,0,.64-.83A1.7,1.7,0,0,0,147.55,74.69Z"/><path class="cls-4" d="M171.76,81.76h-1.49a11.67,11.67,0,0,1-3-.35,6.69,6.69,0,0,1-2.25-1,8.36,8.36,0,0,1-1.21.83,3.35,3.35,0,0,1-1,.41,45.68,45.68,0,0,1-5.23.15V76.49h2.92c1.08,0,1.73-.2,1.94-.6a3.93,3.93,0,0,0,.32-2V57h4.45V74.54a2,2,0,0,0,.23,1,1.57,1.57,0,0,0,.66.64h0a23.52,23.52,0,0,0,3.65.28Z"/><path class="cls-4" d="M193.5,81.76a9.69,9.69,0,0,1-4.19-.76,4,4,0,0,1-2.13-2.08.9.9,0,0,0-.08-.21c0-.12-.09-.21-.11-.28a.47.47,0,0,1-.05-.1.43.43,0,0,1,0-.16,1.33,1.33,0,0,0-.1-.34v-.06c-.72.42-1.44.82-2.14,1.18s-1.37.69-2,1-1.19.54-1.71.74-.89.32-1.35.45a20.42,20.42,0,0,1-3.3.43c-1.47.1-3.35.17-5.63.21V76.49H174a17.47,17.47,0,0,0,3.67-.39,19.68,19.68,0,0,0,3.44-1.1h0l.69-.35,1.12-.6c.46-.24,1-.55,1.68-.92s1.45-.82,2.36-1.35a4.94,4.94,0,0,0-1.64-.73,16.64,16.64,0,0,0-2-.06H182l-2.62-.07h-1.69c-.65,0-1.28,0-1.9,0l-.66-5.15h9.4q3.84,0,5.75,2.22t2,6.71l-2.82,1.56a5.49,5.49,0,0,0,1.45.23c.67,0,1.55.07,2.65.07Zm-6.41-3.08.09.24-.11-.15Z"/><path class="cls-4" d="M209.7,74.18a10.59,10.59,0,0,1-.43,3.12,7.8,7.8,0,0,1-1.21,2.41,6.87,6.87,0,0,1-2.24,1.91,6,6,0,0,1-2.78.65,6.23,6.23,0,0,1-2.1-.37,8.7,8.7,0,0,1-2-1,21.68,21.68,0,0,1-6.45.86V76.49a18.55,18.55,0,0,0,2.42-.09,4.19,4.19,0,0,0,1.21-.24,5.93,5.93,0,0,0,.06-.84V73.94a10.24,10.24,0,0,1,1.92-6.07,6.12,6.12,0,0,1,5-2.17,5.88,5.88,0,0,1,5,2.74A10.06,10.06,0,0,1,209.7,74.18Zm-4-.21c0-2.08-.88-3.12-2.65-3.12s-2.71,1.08-2.71,3.24c0,2,.9,2.93,2.71,2.93s2.64-1,2.64-3Z"/><path class="cls-4" d="M245.94,83.57q0,5.88-3.89,8.48a10,10,0,0,1-2.54,1.23,9.49,9.49,0,0,1-2.8.41h-5.53a8.23,8.23,0,0,1-6.42-3,10.4,10.4,0,0,1-2.5-7.09V75.29h4.22v8.65a4,4,0,0,0,.45,1.78,6.35,6.35,0,0,0,1.16,1.61v-.06a5.45,5.45,0,0,0,1.71.88,6.84,6.84,0,0,0,2.11.33h4.65a6.48,6.48,0,0,0,1.9-.28,5.08,5.08,0,0,0,1.6-.83h0a5.69,5.69,0,0,0,1.23-1.49,3.12,3.12,0,0,0,.44-1.52c0-.69-.69-1.19-2-1.5h0l-.56-.06h-5.76v-7a7,7,0,0,1,1.92-5.17,6.51,6.51,0,0,1,4.85-2.09h4.8l.11,5.08h-4.79A2.23,2.23,0,0,0,238,74.84h0a5.71,5.71,0,0,0-.2,1c-.06.5-.11,1.1-.14,1.83a27.08,27.08,0,0,1,3.19.21,11.42,11.42,0,0,1,2.17.43,4.27,4.27,0,0,1,2.17,1.89A6.91,6.91,0,0,1,245.94,83.57Z"/><path class="cls-4" d="M264.62,81.76a7.26,7.26,0,0,1-2.22-.3,4.5,4.5,0,0,1-1.63-.9,15,15,0,0,1-.76,3.68,12.06,12.06,0,0,1-1.56,3,9.17,9.17,0,0,1-3.13,2.64,8.72,8.72,0,0,1-4.07.94H246.3l-.88-5.27h5.64a5.9,5.9,0,0,0,2-.32,5,5,0,0,0,1.65-.9,6,6,0,0,0,1.18-1.52,3.5,3.5,0,0,0,.44-1.64V68.76h4.48v6c0,1,1.29,1.62,3.85,1.71Z"/><path class="cls-4" d="M273.05,80.63l-.19-.17a5.6,5.6,0,0,1-3.76,1.3h-5.25V76.49h3.46a4.46,4.46,0,0,0,3.29-1.2,6.28,6.28,0,0,0,.85-2.52l.7-5.19,4.27.66-1,7.28h0a5.75,5.75,0,0,1-.13,1.17,5.66,5.66,0,0,1-.32.9l.19.17a5.6,5.6,0,0,1,3.76-1.3h5.25v5.27h-3.46a4.46,4.46,0,0,0-3.3,1.27,6.3,6.3,0,0,0-.86,2.52l-.7,5.19L271.58,90l1-7.28h0a6.06,6.06,0,0,1,.15-1.2A3.94,3.94,0,0,1,273.05,80.63Z"/><path class="cls-4" d="M316.74,81.76a13.41,13.41,0,0,1-3.34-.36h0a3.24,3.24,0,0,1-1-.54,6.18,6.18,0,0,1-1-.91,5.78,5.78,0,0,1-1.9,1.68,4.88,4.88,0,0,1-2.22.51,5.75,5.75,0,0,1-2.44-.61,12,12,0,0,1-2.52-1.71,7.86,7.86,0,0,1-2.42,1.74,6.9,6.9,0,0,1-2.83.58,5.35,5.35,0,0,1-2.54-.64,7.76,7.76,0,0,1-2.24-1.79,6.57,6.57,0,0,1-3.89,1.84,47.66,47.66,0,0,1-5.21.19V76.49h3.46a5,5,0,0,0,2.54-.43A2,2,0,0,0,290,74.2V68.76h4.34v6.17a1.66,1.66,0,0,0,.21.75,2.45,2.45,0,0,0,.56.72A2.75,2.75,0,0,0,297,77c1.36,0,2-.47,2-1.41V68.76h4.44v6.12a2.11,2.11,0,0,0,.81,1.5,2.6,2.6,0,0,0,1.91.64c1.33,0,2-.47,2-1.41V68.76h4.44v6.42c0,.37.34.72,1,1h0a22.13,22.13,0,0,0,3.14.32ZM299.14,63.7a2.35,2.35,0,0,1-.81,1.77,2.87,2.87,0,0,1-.84.54,2.64,2.64,0,0,1-1,.18,3.13,3.13,0,0,1-1.94-.61,2.29,2.29,0,0,1-.94-1.88q0-2.31,2.67-2.31C298.19,61.39,299.14,62.16,299.14,63.7Zm1-2.74a3.16,3.16,0,0,1-1.1-.17,3.3,3.3,0,0,1-.89-.47,2.39,2.39,0,0,1-.94-1.85c0-1.57.91-2.35,2.73-2.35a3.3,3.3,0,0,1,1.81.53,2,2,0,0,1,1,1.71,2.86,2.86,0,0,1-.19,1,3.55,3.55,0,0,1-.49.84,2.49,2.49,0,0,1-.86.57,2.56,2.56,0,0,1-1.06.23Zm6.23,2.74a2.31,2.31,0,0,1-.79,1.77,2.63,2.63,0,0,1-1.84.72,3.55,3.55,0,0,1-1.12-.18,2.73,2.73,0,0,1-.91-.51,2.08,2.08,0,0,1-.62-.79,2.29,2.29,0,0,1-.23-1c0-1.54.88-2.31,2.63-2.31,1.93,0,2.89.76,2.89,2.3Z"/><path class="cls-4" d="M336.51,81.76a12.17,12.17,0,0,1-1.91-.12,5.57,5.57,0,0,1-1.28-.31,3.42,3.42,0,0,1-.82-.59,7.11,7.11,0,0,1-.84-.9,6.51,6.51,0,0,1-2.2,1.8,6.17,6.17,0,0,1-2.8.63,5.91,5.91,0,0,1-2.86-.87,7.68,7.68,0,0,1-.95-.66,5,5,0,0,1-.82-.84,4.18,4.18,0,0,1-2.12,1.34,13.49,13.49,0,0,1-3.79.52V76.49c2.13,0,3.34-.12,3.62-.35l-.06.24a2.48,2.48,0,0,0,.13-.76V74a11.26,11.26,0,0,1,.43-3.27,7.55,7.55,0,0,1,1.22-2.5,7.27,7.27,0,0,1,2.32-1.84,6.77,6.77,0,0,1,3-.66,5.87,5.87,0,0,1,4.89,2.57,10.36,10.36,0,0,1,1.65,5.67,10.39,10.39,0,0,0,.06,1.37,1.4,1.4,0,0,0,.22.62,1,1,0,0,0,.48.36,2.51,2.51,0,0,0,.72.11l1.68.13Zm-7.31-7.92q0-3-2.58-3c-1.72,0-2.62,1.09-2.62,3.25,0,2,.89,2.93,2.67,2.93S329.2,76,329.2,73.84Z"/><path class="cls-4" d="M358.88,76.12a7.07,7.07,0,0,1-.49,2.61A7.27,7.27,0,0,1,357,81a7.75,7.75,0,0,1-2.1,1.63,5,5,0,0,1-2.3.57,10.18,10.18,0,0,1-3.31-.68,25.46,25.46,0,0,1-4.14-2,12.87,12.87,0,0,1-2.49.86,11.62,11.62,0,0,1-2.63.33h-4.39V76.49h4.14a8,8,0,0,1-.85-2,8.59,8.59,0,0,1-.26-2.08,6.65,6.65,0,0,1,1.73-4.79,6,6,0,0,1,4.5-1.92,4.87,4.87,0,0,1,1.2.15l3.44-3.16Q358.89,71.6,358.88,76.12Zm-11.72-3.48a1.7,1.7,0,0,0-.77-1.36,2.67,2.67,0,0,0-1.86-.6,1.35,1.35,0,0,0-1.19.47,1.64,1.64,0,0,0-.39.61,1.93,1.93,0,0,0-.1.63,2,2,0,0,0,.62,1.44A5.52,5.52,0,0,0,345.24,75a4.37,4.37,0,0,0,1.43-1.06A2,2,0,0,0,347.16,72.64Zm7,3.74a3.63,3.63,0,0,0-.68-1.76,20.08,20.08,0,0,0-2.09-2.68,3.53,3.53,0,0,1,0,.46v.46a6.53,6.53,0,0,1-1.26,4.42,10.56,10.56,0,0,0,1.09.34,5.29,5.29,0,0,0,1,.13c1.32,0,1.93-.46,1.93-1.37Z"/></g></g></svg>