<svg xmlns="http://www.w3.org/2000/svg" width="23.525" height="23.525" viewBox="0 0 23.525 23.525">
  <g id="Group_1921" data-name="Group 1921" transform="translate(-1090.175 -406.475)">
    <g id="Group_1411" data-name="Group 1411" transform="translate(-405 -19.525)">
      <g id="Group_1407" data-name="Group 1407" transform="translate(1479.175 47.7)">
        <path id="Stroke_3" data-name="Stroke 3" d="M0,11.763C0,2.941,2.941,0,11.763,0S23.525,2.941,23.525,11.763,20.584,23.525,11.763,23.525,0,20.584,0,11.763Z" transform="translate(16 378.3)" fill="#8886ec"/>
      </g>
    </g>
    <g id="Iconly_Bold_Message" data-name="Iconly/Bold/Message" transform="translate(1094.938 411.737)">
      <g id="Message" transform="translate(1.167 1.75)">
        <path id="Message-2" data-name="Message" d="M8.714,10.5H2.952A2.952,2.952,0,0,1,0,7.554V2.946A2.952,2.952,0,0,1,2.952,0H8.714A2.97,2.97,0,0,1,10.8.864a2.923,2.923,0,0,1,.864,2.082V7.554A2.952,2.952,0,0,1,8.714,10.5ZM2.353,3.06a.428.428,0,0,0-.312.131A.446.446,0,0,0,2,3.774l.077.076L4.731,5.921a1.825,1.825,0,0,0,1.138.4,1.855,1.855,0,0,0,1.142-.4L9.643,3.815l.047-.047a.452.452,0,0,0-.007-.583.485.485,0,0,0-.308-.152H9.35a.443.443,0,0,0-.3.117l-2.63,2.1a.913.913,0,0,1-.581.21.929.929,0,0,1-.585-.21L2.625,3.15A.454.454,0,0,0,2.353,3.06Z" fill="#f5f6fa"/>
      </g>
    </g>
  </g>
</svg>
