<svg xmlns="http://www.w3.org/2000/svg" xmlns:xlink="http://www.w3.org/1999/xlink" width="218" height="51" viewBox="0 0 218 51">
  <defs>
    <clipPath id="clip-path">
      <rect id="Mask" width="218" height="51" rx="18" transform="translate(-0.001)" fill="#fff" stroke="#707070" stroke-width="1" stroke-dasharray="11"/>
    </clipPath>
    <clipPath id="clip-path-2">
      <rect id="Mask-2" data-name="Mask" width="223" height="95" transform="translate(0 0)" fill="#fff"/>
    </clipPath>
  </defs>
  <g id="Map" transform="translate(0.001)" clip-path="url(#clip-path)">
    <g id="Map-2" data-name="Map" transform="translate(0 -9)">
      <g id="Map-3" data-name="Map" transform="translate(0 0)">
        <rect id="Mask-3" data-name="Mask" width="223" height="95" transform="translate(0 0)" fill="#e8e8ec" opacity="0.47"/>
        <g id="Map-4" data-name="Map" clip-path="url(#clip-path-2)">
          <path id="Map-5" data-name="Map" d="M94.922,488h0l-10.189,0-3.612-3.612A7.808,7.808,0,0,0,68.028,488H51.643l-6.449-6.449a8,8,0,0,0-11.314,0L27.43,488H0V466.019l11.813,11.812a8,8,0,0,0,11.314,0L47.9,453.053a8,8,0,0,0,0-11.314l-17.56-17.56a8,8,0,0,0-11.314,0L0,443.21V433l24.137-24.136a8.01,8.01,0,0,0,0-11.314l-6.944-6.944a8,8,0,0,0-11.314,0L0,396.486V386.294l.815-.814a8.009,8.009,0,0,0,0-11.313L0,373.352V363.16l29.231,29.231a8,8,0,0,0,11.313,0L64.9,368.038a8,8,0,0,0,0-11.314L18.889,310.715a8,8,0,0,0-11.314,0L0,318.29v-10.2l9.712-9.711a8.01,8.01,0,0,0,0-11.314l-6.944-6.944A7.941,7.941,0,0,0,0,278.313V267.128l14.8,14.8a8,8,0,0,0,11.314,0l9.492-9.492a8.01,8.01,0,0,0,0-11.314l-26.9-26.9a7.946,7.946,0,0,0-5.656-2.343,7.968,7.968,0,0,0-3.051.6V215.27l7.169,7.169a8,8,0,0,0,11.314,0l4.821-4.821a8.01,8.01,0,0,0,0-11.314L0,183V172.773l28.385,28.385a8,8,0,0,0,11.314,0l23.5-23.5a8,8,0,0,0,0-11.314L13.8,116.933a8,8,0,0,0-11.314,0L0,119.418V109.194l17.8-17.8a8.009,8.009,0,0,0,0-11.313L0,62.274V52.082l3.769,3.769a8,8,0,0,0,11.314,0L25.425,45.51a8,8,0,0,0,0-11.314L0,8.772V0H2.839A8,8,0,0,0,4.875,3.457l49.83,49.83a8,8,0,0,0,11.314,0l4.821-4.822a8,8,0,0,0,0-11.313L33.689,0H43.88L83.968,40.088a8,8,0,0,0,11.314,0l27.326-27.325a8.01,8.01,0,0,0,0-11.314L121.159,0h24.368L132.145,13.382a8.01,8.01,0,0,0,0,11.314l31.572,31.572a8,8,0,0,0,11.314,0l15.437-15.437a8,8,0,0,0,0-11.314L160.952,0h10.19l5.713,5.713a7.948,7.948,0,0,0,5.657,2.343,7.944,7.944,0,0,0,5.656-2.343L193.882,0h10.19L193.239,10.832a8.009,8.009,0,0,0,0,11.313L225,53.906V64.658a7.993,7.993,0,0,0-1.451-1.981L206.838,45.966a8,8,0,0,0-11.314,0L180.088,61.4a8,8,0,0,0,0,11.313L196.8,89.427a8,8,0,0,0,11.314,0L223.549,73.99A8,8,0,0,0,225,72.009V82.7L213.165,94.534a8.01,8.01,0,0,0,0,11.314L225,117.683v10.658a8.006,8.006,0,0,0-9.535,1.341l-4.822,4.822a8,8,0,0,0,0,11.314l6.521,6.52A8.006,8.006,0,0,0,225,154.379v17.165a8.011,8.011,0,0,0-8.263,1.909l-33.27,33.27a8.01,8.01,0,0,0,0,11.314l11.615,11.615a8,8,0,0,0,11.314,0l18.6-18.6v10.209l-.784.784a8,8,0,0,0,0,11.314l.784.784v10.191l-5.859-5.859a8,8,0,0,0-11.313,0L177.106,269.2a8,8,0,0,0,0,11.313l37.516,37.516a8,8,0,0,0,10.379.8v10.382l-15.215,15.215a8.01,8.01,0,0,0,0,11.314L225,370.953v10.173l-30.466-30.466a8,8,0,0,0-11.314,0L169.482,364.4a8.01,8.01,0,0,0,0,11.314L201.9,408.135a8,8,0,0,0,11.314,0L225,396.352v10.137l-6.754,6.755a8,8,0,0,0,0,11.314L225,431.312v10.208l-.767-.767a8,8,0,0,0-11.314,0l-2.274,2.273a8.009,8.009,0,0,0,0,11.314L225,468.695v7.6l-42.769-42.769a8,8,0,0,0-11.314,0l-38.366,38.365a8,8,0,0,0,0,11.314L137.34,488l-10.213,0a8,8,0,0,0-10.567,0H106.32l20.914-20.915a8,8,0,0,0,0-11.312l-8.644-8.644a8,8,0,0,0-11.313,0L86.32,468.084a8.009,8.009,0,0,0,0,11.314l8.6,8.6ZM58.629,455.833a7.949,7.949,0,0,0-5.657,2.343L48.151,463a8,8,0,0,0,0,11.314l5.245,5.245a8,8,0,0,0,11.314,0l4.821-4.821a8.01,8.01,0,0,0,0-11.314l-5.245-5.245A7.947,7.947,0,0,0,58.629,455.833Zm-1.273-66.719a7.95,7.95,0,0,0-5.657,2.343L35.413,407.744a8.009,8.009,0,0,0,0,11.314l39.215,39.215a8,8,0,0,0,11.314,0l16.286-16.285a8.009,8.009,0,0,0,0-11.314L63.013,391.458A7.947,7.947,0,0,0,57.356,389.114Zm66.609-8.074a7.95,7.95,0,0,0-5.657,2.343L97.351,404.339a8.009,8.009,0,0,0,0,11.314l34.97,34.97a8,8,0,0,0,11.313,0l20.956-20.957a8,8,0,0,0,0-11.313l-34.97-34.97A7.947,7.947,0,0,0,123.965,381.04Zm34.79-2.55a7.948,7.948,0,0,0-5.657,2.343l-2.274,2.273a8.01,8.01,0,0,0,0,11.314l43.462,43.462a8,8,0,0,0,11.314,0l2.273-2.274a8.01,8.01,0,0,0,0-11.314l-43.461-43.461A7.948,7.948,0,0,0,158.755,378.49ZM94.691,351.717a7.949,7.949,0,0,0-5.657,2.344L68.077,375.017a8.011,8.011,0,0,0,0,11.314l12.89,12.889a8,8,0,0,0,11.313,0l20.957-20.957a8.01,8.01,0,0,0,0-11.314l-12.89-12.889A7.946,7.946,0,0,0,94.691,351.717Zm49.215-16.148a7.946,7.946,0,0,0-5.657,2.344L121.963,354.2a8.009,8.009,0,0,0,0,11.314l12.465,12.464a8,8,0,0,0,11.314,0l16.286-16.286a8.009,8.009,0,0,0,0-11.314l-12.464-12.464A7.948,7.948,0,0,0,143.906,335.57ZM62.872,319.846a7.948,7.948,0,0,0-5.657,2.343l-2.7,2.7a8,8,0,0,0,0,11.313l15.437,15.438a8,8,0,0,0,11.314,0l2.7-2.7a8,8,0,0,0,0-11.314L68.528,322.188A7.945,7.945,0,0,0,62.872,319.846ZM95.54,287.125a7.949,7.949,0,0,0-5.657,2.343L73.6,305.753a8.01,8.01,0,0,0,0,11.314l32,32a8,8,0,0,0,11.314,0l16.286-16.285a8.009,8.009,0,0,0,0-11.314l-32-32A7.946,7.946,0,0,0,95.54,287.125Zm72.972,40.715a7.808,7.808,0,0,0-5.519,13.326l4.245,4.246a7.806,7.806,0,1,0,11.04-11.039l-4.246-4.246A7.755,7.755,0,0,0,168.513,327.84Zm21.213-21.168a7.947,7.947,0,0,0-5.656,2.343l-4.822,4.822a8.009,8.009,0,0,0,0,11.314l14.162,14.163a8,8,0,0,0,11.314,0l4.822-4.822a8.009,8.009,0,0,0,0-11.314l-14.163-14.163A7.947,7.947,0,0,0,189.726,306.672ZM166.392,283.3a7.947,7.947,0,0,0-5.657,2.343L139.777,306.6a8,8,0,0,0,0,11.314l6.945,6.945a8,8,0,0,0,11.313,0L178.993,303.9a8,8,0,0,0,0-11.313l-6.945-6.945A7.948,7.948,0,0,0,166.392,283.3ZM46.325,275.225a7.95,7.95,0,0,0-5.657,2.343l-16.71,16.71a8.01,8.01,0,0,0,0,11.314L38.12,319.756a8,8,0,0,0,11.314,0l16.71-16.71a8,8,0,0,0,0-11.314L51.981,277.568A7.947,7.947,0,0,0,46.325,275.225Zm70-9.774a7.949,7.949,0,0,0-5.657,2.343l-4.821,4.822a8,8,0,0,0,0,11.313l17.56,17.561a8,8,0,0,0,11.314,0l4.821-4.821a8,8,0,0,0,0-11.314l-17.56-17.561A7.947,7.947,0,0,0,116.328,265.451Zm-63.64-63.744a7.948,7.948,0,0,0-5.657,2.343l-23.5,23.5a8.009,8.009,0,0,0,0,11.314L70.81,286.151a8,8,0,0,0,11.314,0l23.5-23.5a8,8,0,0,0,0-11.314L58.345,204.051A7.948,7.948,0,0,0,52.688,201.707Zm86.975,20.822a7.946,7.946,0,0,0-5.657,2.344L117.3,241.584a8,8,0,0,0,0,11.314l27.326,27.326a8,8,0,0,0,11.314,0l16.711-16.711a8.009,8.009,0,0,0,0-11.314L145.32,224.873A7.948,7.948,0,0,0,139.663,222.53Zm33.516-1.274a7.948,7.948,0,0,0-5.657,2.343l-1,1a8,8,0,0,0,0,11.314L177.714,247.1a8,8,0,0,0,11.313,0l1-1a8,8,0,0,0,0-11.313L178.836,223.6A7.948,7.948,0,0,0,173.179,221.255Zm-64.063-29.323a7.949,7.949,0,0,0-5.657,2.343l-16.71,16.711a8.01,8.01,0,0,0,0,11.314l14.163,14.162a8,8,0,0,0,11.314,0l16.71-16.71a8.009,8.009,0,0,0,0-11.314l-14.163-14.163A7.947,7.947,0,0,0,109.116,191.933Zm35.214-35.271A7.949,7.949,0,0,0,138.673,159L119.84,177.839a8,8,0,0,0,0,11.313l30.3,30.3a8,8,0,0,0,11.314,0l18.834-18.834a8,8,0,0,0,0-11.313l-30.3-30.3A7.947,7.947,0,0,0,144.33,156.662ZM73.9,180.459a7.949,7.949,0,0,0-5.657,2.343l-4.821,4.821a8.009,8.009,0,0,0,0,11.314l6.944,6.944a8,8,0,0,0,11.314,0l4.821-4.821a8.009,8.009,0,0,0,0-11.314L79.559,182.8A7.947,7.947,0,0,0,73.9,180.459Zm15.274-48.445a7.948,7.948,0,0,0-5.657,2.343L68.082,149.794a8.009,8.009,0,0,0,0,11.313l23.505,23.5a8,8,0,0,0,11.314,0l15.436-15.436a8,8,0,0,0,0-11.314l-23.5-23.505A7.946,7.946,0,0,0,89.176,132.014Zm110.308,16.148a7.947,7.947,0,0,0-5.657,2.344l-15.437,15.437a8,8,0,0,0,0,11.313l6.945,6.944a8,8,0,0,0,11.314,0l15.436-15.436a8.009,8.009,0,0,0,0-11.314l-6.945-6.945A7.947,7.947,0,0,0,199.484,148.162Zm-33.942-12.749a7.947,7.947,0,0,0-5.657,2.343l-4.821,4.821a8.009,8.009,0,0,0,0,11.314l6.944,6.944a8,8,0,0,0,11.314,0l4.821-4.821a8,8,0,0,0,0-11.314l-6.944-6.944A7.948,7.948,0,0,0,165.543,135.414ZM125.662,95.467a7.947,7.947,0,0,0-5.656,2.343L99.9,117.918a8.009,8.009,0,0,0,0,11.313L123.4,152.736a8,8,0,0,0,11.314,0l20.107-20.108a8,8,0,0,0,0-11.313L131.318,97.81A7.946,7.946,0,0,0,125.662,95.467ZM75.6,87.818a7.947,7.947,0,0,0-5.657,2.343L39.219,120.883a8.009,8.009,0,0,0,0,11.314l12.464,12.465a8,8,0,0,0,11.314,0l30.723-30.723a8.01,8.01,0,0,0,0-11.314L81.256,90.161A7.948,7.948,0,0,0,75.6,87.818ZM157.482,63.6a7.947,7.947,0,0,0-5.657,2.344L136.389,81.375a8.011,8.011,0,0,0,0,11.314l47.283,47.282a8,8,0,0,0,11.314,0l15.436-15.436a8,8,0,0,0,0-11.314L163.139,65.938A7.946,7.946,0,0,0,157.482,63.6ZM28.507,94.192a7.949,7.949,0,0,0-5.657,2.343l-3.973,3.973a8,8,0,0,0,0,11.313l3.972,3.973a8,8,0,0,0,11.314,0l3.973-3.973a8.009,8.009,0,0,0,0-11.314l-3.973-3.973A7.946,7.946,0,0,0,28.507,94.192ZM81.538,51.272a7.948,7.948,0,0,0-5.657,2.343L71.06,58.436a8,8,0,0,0,0,11.314L98.811,97.5a8,8,0,0,0,11.314,0l4.821-4.821a8,8,0,0,0,0-11.314L87.2,53.615A7.95,7.95,0,0,0,81.538,51.272ZM36.143,48.3a7.951,7.951,0,0,0-5.657,2.343L20.145,60.981a8.009,8.009,0,0,0,0,11.314l23.08,23.08a8,8,0,0,0,11.314,0L64.879,85.034a8,8,0,0,0,0-11.314L41.8,50.64A7.947,7.947,0,0,0,36.143,48.3Zm85.276-20.823a7.948,7.948,0,0,0-5.657,2.343L100.326,45.254a8,8,0,0,0,0,11.314l19.683,19.683a8,8,0,0,0,11.314,0l15.437-15.437a8,8,0,0,0,0-11.314L127.076,29.817A7.948,7.948,0,0,0,121.419,27.474Z" transform="translate(-1 -196)" fill="#fff"/>
        </g>
      </g>
    </g>
  </g>
</svg>
