<svg xmlns="http://www.w3.org/2000/svg" width="27.5" height="27.5" viewBox="0 0 27.5 27.5">
  <g id="Group_4379" data-name="Group 4379" transform="translate(20826.688 2423.476)">
    <g id="Group_4370" data-name="Group 4370">
      <g id="Group_826" data-name="Group 826" transform="translate(-21158.438 -2735.226)">
        <path id="Stroke_4" data-name="Stroke 4" d="M.5,13.5C.5,3.376,3.376.5,13.5.5s13,2.876,13,13-2.876,13-13,13S.5,23.624.5,13.5Z" transform="translate(332 312)" fill="#acacac" stroke="#acacac" stroke-linecap="round" stroke-linejoin="round" stroke-miterlimit="10" stroke-width="1.5"/>
      </g>
    </g>
    <path id="Path_1230" data-name="Path 1230" d="M4.818,3.394a4.277,4.277,0,0,1,3.586,0A4.609,4.609,0,0,1,9.9,4.5a.651.651,0,0,0,.966,0,4.359,4.359,0,0,1,6.579,0,5.332,5.332,0,0,1,0,7.027l-5.2,5.749a2.515,2.515,0,0,1-3.732,0l-5.2-5.749A5.066,5.066,0,0,1,2.34,9.9a5.425,5.425,0,0,1,0-3.783A5.067,5.067,0,0,1,3.321,4.5,4.61,4.61,0,0,1,4.818,3.394Z" transform="translate(-20823.32 -2419.734)" fill="#fff" fill-rule="evenodd"/>
  </g>
</svg>
