<svg xmlns="http://www.w3.org/2000/svg" xmlns:xlink="http://www.w3.org/1999/xlink" width="178.635" height="191.338" viewBox="0 0 178.635 191.338">
  <defs>
    <clipPath id="clip-path">
      <path id="Path_125"  d="M279.089,182.209c-4.306-20-11.587-35.327-23.914-53.3-4.723-7.41-10.835-14.818-18.339-23.082-6.035-6.754-13.157-14.064-21.638-22.2-1.049-1.024-2.363-2.31-3.253-3.21-1.519-1.546-2.117-.258-2.117-.258l-1.767,3.221-.126.221c-9.715,17.953-11.393,19.094-8.057,21.657-48.9,22.512-53.9,88.907-52.233,97.169-9.825,3.754-32.425,4.03-40.147,4.012a2.65,2.65,0,0,0-2.65,2.65v37.292a2.65,2.65,0,0,0,2.8,2.634c36.676-2.228,53.606-9.936,64.719-14.378,16.118-6.268,13.057-5.981,27.509,0,2.5,1.141,5.277,2.281,8.057,3.7a86.244,86.244,0,0,1,28.9,20.8c.745.764,1.488,1.753,2.234,2.566l4.478,5.368a2.454,2.454,0,0,0,3.776,0l4.484-5.383c1.283-1.583,2.358-2.912,3.38-4.272,22.7-30.213,25-54.233,25.012-57.455C280.193,196.7,280.52,188.855,279.089,182.209ZM163.206,167.091c.556-3.99,4.169-9.119,9.448-14.816,8.059-8.832,21.117-20.234,27.784-10.545,3.89,3.418,6.114,8.262,7.507,12.822,2.5,9.975,1.1,19.377,1.388,19.094a4.889,4.889,0,0,0-1.388,1.137C192.379,185.9,161.261,187.322,163.206,167.091Zm93.914,41.886a16.194,16.194,0,0,0-1.945,1.139c-3.891,1.711-10.835.857-18.339-1.139a176.388,176.388,0,0,1-23.06-9.117c-3.334-1.426-5.281-2.566-5.835-3.705a2.631,2.631,0,0,1,0-2.85c1.667-3.988,9.17-10.819,14.727-26.785a51.988,51.988,0,0,0,2.5-14.246c0-6.271.556-14.25,5.56-4.277.554,1.711,3.053,5.414,6.109,10.545,5.837,9.686,13.894,23.365,18.339,33.91C258.787,201,260.454,207.553,257.12,208.978Z" transform="translate(752.525 573.478) rotate(1)" fill="#fff" opacity="0.609"/>
    </clipPath>
  </defs>
  <g id="Mask_Group_48"  transform="translate(-852.683 -654.949)" opacity="0.083" clip-path="url(#clip-path)">
    <path id="Search_Field"  d="M20,0h99a0,0,0,0,1,0,0V294a0,0,0,0,1,0,0H20A20,20,0,0,1,0,274V20A20,20,0,0,1,20,0Z" transform="translate(879 613)" fill="#fff" stroke="rgba(71,69,70,0.11)" stroke-width="1"/>
  </g>
</svg>
