<svg id="Iconly_Light-Outline_Category" data-name="Iconly/Light-Outline/Category" xmlns="http://www.w3.org/2000/svg" width="17.499" height="17.499" viewBox="0 0 17.499 17.499">
  <g id="Category">
    <path id="Combined_Shape" data-name="Combined Shape" d="M10.414,16.567c-.542-.672-.542-1.589-.542-2.858l.673-.023H9.872c0-2.576.162-3.814,3.814-3.814S17.5,11.11,17.5,13.685c0,1.283,0,2.209-.542,2.881-.623.775-1.758.933-3.272.933S11.037,17.341,10.414,16.567Zm.8-2.881v.023a4.053,4.053,0,0,0,.243,2.014c.237.295.944.431,2.224.431s1.987-.137,2.225-.432a4.049,4.049,0,0,0,.243-2.014c0-2.3,0-2.489-2.468-2.489S11.218,11.4,11.218,13.685ZM.542,16.567C0,15.895,0,14.978,0,13.708l.673-.023H0C0,11.11.162,9.872,3.814,9.872s3.814,1.238,3.814,3.814c0,1.283,0,2.209-.542,2.881-.624.775-1.759.933-3.272.933S1.165,17.341.542,16.567Zm.8-2.881v.023a4.053,4.053,0,0,0,.243,2.014c.237.295.944.431,2.224.431s1.987-.137,2.225-.432a4.049,4.049,0,0,0,.243-2.014c0-2.3,0-2.489-2.468-2.489S1.346,11.4,1.346,13.685Zm9.067-6.991c-.542-.672-.542-1.589-.542-2.858l.673-.023H9.872C9.872,1.238,10.034,0,13.685,0S17.5,1.238,17.5,3.814c0,1.283,0,2.209-.542,2.881-.623.775-1.758.933-3.272.933S11.037,7.47,10.414,6.695Zm.8-2.881v.023a4.053,4.053,0,0,0,.243,2.014c.237.294.944.431,2.224.431s1.987-.137,2.225-.432a4.049,4.049,0,0,0,.243-2.014c0-2.3,0-2.489-2.468-2.489S11.218,1.533,11.218,3.814ZM.542,6.695C0,6.023,0,5.106,0,3.837l.673-.023H0C0,1.238.162,0,3.814,0S7.628,1.238,7.628,3.814c0,1.283,0,2.209-.542,2.881-.624.775-1.759.933-3.272.933S1.165,7.47.542,6.695Zm.8-2.881v.023A4.053,4.053,0,0,0,1.59,5.851c.237.294.944.431,2.224.431S5.8,6.145,6.039,5.85a4.049,4.049,0,0,0,.243-2.014c0-2.3,0-2.489-2.468-2.489S1.346,1.533,1.346,3.814Z" fill="#2d2c2c"/>
  </g>
</svg>
