<svg xmlns="http://www.w3.org/2000/svg" width="36.494" height="36.494" viewBox="0 0 36.494 36.494">
  <g id="Group_2368"  transform="translate(-106.428 -607.496)">
    <g id="profile" transform="translate(106.428 607.496)">
      <g id="Group_1178"  transform="translate(81.572 11.441)">
        <g id="Group_816"  transform="translate(0 0)">
          <g id="Group_1614"  transform="translate(1 -10)">
            <path id="Stroke_4"  d="M0,18.247C0,4.563,4.563,0,18.247,0S36.494,4.563,36.494,18.247,31.931,36.494,18.247,36.494,0,31.931,0,18.247Z" transform="translate(-82.572 -1.441)" fill="#db143d"/>
          </g>
        </g>
      </g>
    </g>
    <g id="Iconly_Light-Outline_Category"  transform="translate(115.035 616.289)">
      <g id="Category">
        <path id="Combined_Shape"  d="M11.6,18.46c-.6-.749-.6-1.77-.6-3.185l.75-.025H11c0-2.87.181-4.25,4.25-4.25s4.25,1.38,4.25,4.25c0,1.429,0,2.461-.6,3.21-.694.863-1.959,1.04-3.646,1.04S12.3,19.323,11.6,18.46Zm.9-3.21v.025a4.516,4.516,0,0,0,.271,2.245c.265.329,1.052.481,2.479.481s2.214-.153,2.48-.481A4.512,4.512,0,0,0,18,15.274c0-2.564,0-2.774-2.75-2.774S12.5,12.708,12.5,15.25ZM.6,18.46C0,17.711,0,16.69,0,15.275l.75-.025H0C0,12.38.181,11,4.25,11S8.5,12.38,8.5,15.25c0,1.429,0,2.461-.6,3.21-.695.863-1.96,1.04-3.646,1.04S1.3,19.323.6,18.46Zm.9-3.21v.025a4.516,4.516,0,0,0,.271,2.245c.264.329,1.052.481,2.479.481s2.214-.153,2.479-.481A4.512,4.512,0,0,0,7,15.274C7,12.71,7,12.5,4.25,12.5S1.5,12.708,1.5,15.25ZM11.6,7.46C11,6.711,11,5.69,11,4.275l.75-.025H11C11,1.38,11.181,0,15.25,0S19.5,1.38,19.5,4.25c0,1.429,0,2.462-.6,3.21C18.2,8.323,16.936,8.5,15.25,8.5S12.3,8.323,11.6,7.46Zm.9-3.21v.025a4.516,4.516,0,0,0,.271,2.245c.265.328,1.052.481,2.479.481s2.214-.153,2.48-.482A4.512,4.512,0,0,0,18,4.274C18,1.71,18,1.5,15.25,1.5S12.5,1.708,12.5,4.25ZM.6,7.46C0,6.711,0,5.69,0,4.275L.75,4.25H0C0,1.38.181,0,4.25,0S8.5,1.38,8.5,4.25c0,1.429,0,2.462-.6,3.21C7.2,8.323,5.936,8.5,4.25,8.5S1.3,8.323.6,7.46Zm.9-3.21v.025A4.516,4.516,0,0,0,1.771,6.52C2.035,6.847,2.823,7,4.25,7s2.214-.153,2.479-.482A4.512,4.512,0,0,0,7,4.274C7,1.71,7,1.5,4.25,1.5S1.5,1.708,1.5,4.25Z" fill="#fff"/>
      </g>
    </g>
  </g>
</svg>
