<svg xmlns="http://www.w3.org/2000/svg" width="22" height="22" viewBox="0 0 22 22">
  <g id="Layer_2" data-name="Layer 2" transform="translate(1.975 214.207)">
    <g id="Layer_1" data-name="Layer 1" transform="translate(-1.475 -213.248)">
      <rect id="Rectangle_1" data-name="Rectangle 1" width="21" height="21" rx="7" transform="translate(0 -0.459)" fill="#fff" stroke="#474546" stroke-width="1"/>
      <g id="refresh_2_" data-name="refresh (2)" transform="translate(17.415 4.109) rotate(90)">
        <g id="Group_521" data-name="Group 521" transform="translate(8.56 9.656)">
          <g id="Group_520" data-name="Group 520" transform="translate(0 0)">
            <path id="Path_21" data-name="Path 21" d="M.222.351A2.651,2.651,0,0,0,.5.131a.508.508,0,0,1,.68.755,3.653,3.653,0,0,1-.388.305A.508.508,0,1,1,.222.351Z" fill="#474546"/>
          </g>
        </g>
        <g id="Group_523" data-name="Group 523" transform="translate(0.934 0.934)">
          <g id="Group_522" data-name="Group 522">
            <path id="Path_22" data-name="Path 22" d="M0,5.449A5.41,5.41,0,0,1,5.356,0a5.387,5.387,0,0,1,5.314,4.783.508.508,0,0,1-1.01.12,4.37,4.37,0,0,0-4.3-3.887,4.392,4.392,0,0,0-4.34,4.433A4.42,4.42,0,0,0,4.279,9.738l-.614-.877A.508.508,0,1,1,4.5,8.278L5.772,10.1l0,0a.5.5,0,0,1,.032.056c.005.01.012.021.017.031s.01.03.014.045a.511.511,0,0,1,.016.05c0,.011,0,.023,0,.035a.508.508,0,0,1,.007.065s0,0,0,.006,0,.023,0,.035a.486.486,0,0,1-.006.058c0,.016-.008.031-.012.047s-.009.032-.015.047a.479.479,0,0,1-.022.044c-.007.014-.014.029-.023.043s-.02.027-.03.04-.019.025-.03.037a.5.5,0,0,1-.042.038c-.009.007-.016.016-.025.023L3.869,12.1a.508.508,0,0,1-.6-.822l.763-.556A5.437,5.437,0,0,1,0,5.449Z" fill="#474546"/>
          </g>
        </g>
        <g id="Group_525" data-name="Group 525" transform="translate(10.173 7.565)">
          <g id="Group_524" data-name="Group 524" transform="translate(0 0)">
            <path id="Path_23" data-name="Path 23" d="M.012.8C.014.788.018.779.02.77A.492.492,0,0,1,.045.7l0-.009A3.248,3.248,0,0,0,.191.345a.508.508,0,1,1,.962.327,4.188,4.188,0,0,1-.171.418l0,.005a.5.5,0,0,1-.065.113l-.02.024a.505.505,0,0,1-.087.082L.8,1.324a.514.514,0,0,1-.118.058l-.032.01a.5.5,0,0,1-.135.021h0a.509.509,0,0,1-.5-.407.5.5,0,0,1,0-.21Z" fill="#474546"/>
          </g>
        </g>
      </g>
    </g>
  </g>
</svg>
