<svg xmlns="http://www.w3.org/2000/svg" width="16.146" height="20.146" viewBox="0 0 16.146 20.146">
  <g id="Iconly_Curved_Filter" data-name="Iconly/Curved/Filter" transform="translate(0.75 0.75)">
    <g id="Filter">
      <path id="Stroke_1" data-name="Stroke 1" d="M5.933.447H0" transform="translate(0 8.683)" fill="none" stroke="#2d2c2c" stroke-linecap="round" stroke-linejoin="round" stroke-miterlimit="10" stroke-width="1.5"/>
      <path id="Stroke_1-2" data-name="Stroke 1" d="M0,.447H5.933" transform="translate(8.713 15.698)" fill="none" stroke="#2d2c2c" stroke-linecap="round" stroke-linejoin="round" stroke-miterlimit="10" stroke-width="1.5"/>
      <path id="Stroke_3" data-name="Stroke 3" d="M0,2.5C0,4.376.624,5,2.495,5S4.99,4.376,4.99,2.5,4.366,0,2.495,0,0,.625,0,2.5Z" transform="translate(9.656 6.631)" fill="none" stroke="#2d2c2c" stroke-linecap="round" stroke-linejoin="round" stroke-miterlimit="10" stroke-width="1.5"/>
      <path id="Stroke_3-2" data-name="Stroke 3" d="M4.99,2.5C4.99,4.376,4.366,5,2.495,5S0,4.376,0,2.5.624,0,2.495,0,4.99.625,4.99,2.5Z" transform="translate(0 13.646)" fill="none" stroke="#2d2c2c" stroke-linecap="round" stroke-linejoin="round" stroke-miterlimit="10" stroke-width="1.5"/>
      <path id="Stroke_5" data-name="Stroke 5" d="M0,.447H5.932" transform="translate(8.714 2.054)" fill="none" stroke="#2d2c2c" stroke-linecap="round" stroke-linejoin="round" stroke-miterlimit="10" stroke-width="1.5"/>
      <path id="Stroke_7" data-name="Stroke 7" d="M4.991,2.5C4.991.625,4.367,0,2.5,0S0,.625,0,2.5.624,5,2.5,5,4.991,4.376,4.991,2.5Z" fill="none" stroke="#2d2c2c" stroke-linecap="round" stroke-linejoin="round" stroke-miterlimit="10" stroke-width="1.5"/>
    </g>
  </g>
</svg>
