<svg xmlns="http://www.w3.org/2000/svg" width="23.423" height="23.42" viewBox="0 0 23.423 23.42">
  <g id="Group_2308" data-name="Group 2308" transform="translate(-194.963 -621.68)">
    <path id="Path_197" data-name="Path 197" d="M115.638,86a8.736,8.736,0,0,0-1.481-3.3,10.872,10.872,0,0,0-1.135-1.429c-.374-.418-.815-.871-1.34-1.375-.065-.063-.146-.143-.2-.2-.094-.1-.131-.016-.131-.016l-.109.2-.008.014c-.6,1.112-.705,1.182-.5,1.341-3.027,1.394-3.337,5.5-3.234,6.016a9.5,9.5,0,0,1-2.486.248.164.164,0,0,0-.164.164v2.309a.164.164,0,0,0,.173.163,10.973,10.973,0,0,0,4.007-.89c1-.388.808-.37,1.7,0,.155.071.327.141.5.229a5.34,5.34,0,0,1,1.789,1.288c.046.047.092.109.138.159l.277.332a.152.152,0,0,0,.234,0l.278-.333c.079-.1.146-.18.209-.265a6.921,6.921,0,0,0,1.549-3.557A5.262,5.262,0,0,0,115.638,86Zm-7.175-.936a2.057,2.057,0,0,1,.585-.917c.5-.547,1.307-1.253,1.72-.653a1.7,1.7,0,0,1,.465.794,4.325,4.325,0,0,1,.086,1.182.3.3,0,0,0-.086.07C110.269,86.232,108.343,86.32,108.463,85.067Zm5.815,2.593a1,1,0,0,0-.12.071,2,2,0,0,1-1.135-.071,10.922,10.922,0,0,1-1.428-.564c-.206-.088-.327-.159-.361-.229a.163.163,0,0,1,0-.176,7.445,7.445,0,0,0,.912-1.658,3.219,3.219,0,0,0,.155-.882c0-.388.034-.882.344-.265a6.351,6.351,0,0,0,.378.653,18.793,18.793,0,0,1,1.135,2.1C114.381,87.167,114.484,87.572,114.278,87.661Z" transform="translate(95.963 548.262)" fill="#fff" opacity="0.5"/>
    <path id="house" d="M17.933,23.457H5.49A5.5,5.5,0,0,1,0,17.967v-7.7A5.522,5.522,0,0,1,2.161,5.9L8.382,1.159a5.5,5.5,0,0,1,6.659,0,19.592,19.592,0,0,1,3.827,3.207,1.175,1.175,0,0,1-.528.968.915.915,0,0,1-.961-.092L13.931,2.614a3.669,3.669,0,0,0-4.439,0L3.27,7.359a3.681,3.681,0,0,0-1.44,2.91v7.7a3.664,3.664,0,0,0,3.66,3.66H17.933a3.664,3.664,0,0,0,3.66-3.66v-7.7a3.683,3.683,0,0,0-1.424-2.92.915.915,0,1,1,1.11-1.455,5.523,5.523,0,0,1,2.144,4.375v7.7A5.5,5.5,0,0,1,17.933,23.457Z" transform="translate(194.963 621.643)" fill="#fff" opacity="0.5"/>
  </g>
</svg>
