<svg xmlns="http://www.w3.org/2000/svg" width="22.501" height="22.501" viewBox="0 0 22.501 22.501">
  <g id="Group_2034" data-name="Group 2034" transform="translate(-1057.251 -209.75)">
    <g id="Group_1807" data-name="Group 1807" transform="translate(1058.001 210.5)">
      <path id="Stroke_4" data-name="Stroke 4" d="M0,10.5C0,2.626,2.626,0,10.5,0S21,2.626,21,10.5,18.375,21,10.5,21,0,18.375,0,10.5Z" transform="translate(0 0)" fill="#db143d" stroke="#db143d" stroke-linecap="round" stroke-linejoin="round" stroke-miterlimit="10" stroke-width="1.5"/>
    </g>
    <path id="Arrow_-_Up_2" data-name="Arrow - Up 2" d="M3.358.131c.027.02.144.1.24.167a8.093,8.093,0,0,1,1.9,2.06,1.349,1.349,0,0,1,.158.419.556.556,0,0,1-.1.318.851.851,0,0,1-.426.283c-.124.036-.494.091-.5.091a14.907,14.907,0,0,1-1.792.086,17.248,17.248,0,0,1-1.737-.076,5.094,5.094,0,0,1-.625-.121A.645.645,0,0,1,0,2.8v-.02a1.454,1.454,0,0,1,.193-.47A8.113,8.113,0,0,1,2.06.293,2.584,2.584,0,0,1,2.321.121,1.036,1.036,0,0,1,2.822,0a1.086,1.086,0,0,1,.536.131" transform="translate(1065.676 217.382)" fill="#f5f6fa"/>
    <path id="Arrow_-_Up_2-2" data-name="Arrow - Up 2" d="M3.358.112c.027.017.144.082.24.142a7.466,7.466,0,0,1,1.9,1.76,1.056,1.056,0,0,1,.158.358.43.43,0,0,1-.1.272.871.871,0,0,1-.426.241c-.124.03-.494.078-.5.078a17.423,17.423,0,0,1-1.792.073c-.694,0-1.326-.026-1.737-.065a5.877,5.877,0,0,1-.625-.1C.179,2.774,0,2.588,0,2.39V2.373a1.154,1.154,0,0,1,.193-.4A7.5,7.5,0,0,1,2.06.25,2.656,2.656,0,0,1,2.321.1a1.18,1.18,0,0,1,.5-.1,1.237,1.237,0,0,1,.536.112" transform="translate(1065.676 221.582)" fill="#f5f6fa" opacity="0.465"/>
  </g>
</svg>
