<svg xmlns="http://www.w3.org/2000/svg" width="81.294" height="25.031" viewBox="0 0 81.294 25.031">
  <g id="XMLID_1_" transform="translate(-464 81.7)">
    <g id="XMLID_8_" transform="translate(492.432 -77.827)">
      <path id="XMLID_13_" d="M827.614,17.385V20.65a1.713,1.713,0,0,1-.352,1.168,1.2,1.2,0,0,1-.92.392,1.137,1.137,0,0,1-.9-.392,1.7,1.7,0,0,1-.352-1.168V16.729a12.967,12.967,0,0,0-.064-1.44,1.626,1.626,0,0,0-.336-.84,1.086,1.086,0,0,0-.88-.328,1.549,1.549,0,0,0-1.584.824,5.806,5.806,0,0,0-.384,2.369v3.313a1.668,1.668,0,0,1-.352,1.152,1.257,1.257,0,0,1-1.825,0,1.7,1.7,0,0,1-.36-1.152V13.608a1.5,1.5,0,0,1,.32-1.048,1.067,1.067,0,0,1,.84-.36,1.172,1.172,0,0,1,.84.336,1.271,1.271,0,0,1,.336.928V13.7A4.189,4.189,0,0,1,823,12.576a3.615,3.615,0,0,1,1.624-.36,3.265,3.265,0,0,1,1.584.368,2.89,2.89,0,0,1,1.1,1.112,4.2,4.2,0,0,1,1.336-1.12,3.436,3.436,0,0,1,1.576-.36,3.612,3.612,0,0,1,1.736.392,2.532,2.532,0,0,1,1.088,1.136,5.233,5.233,0,0,1,.32,2.1v4.8a1.713,1.713,0,0,1-.352,1.168,1.2,1.2,0,0,1-.92.392,1.164,1.164,0,0,1-.912-.392,1.7,1.7,0,0,1-.36-1.152V16.529a10.562,10.562,0,0,0-.064-1.272,1.5,1.5,0,0,0-.36-.808,1.2,1.2,0,0,0-.9-.328,1.624,1.624,0,0,0-.92.288,1.944,1.944,0,0,0-.68.776A5.861,5.861,0,0,0,827.614,17.385Z" transform="translate(-819.3 -8.559)" fill="#0091ea"/>
      <path id="XMLID_12_" d="M1014.653,22.591l.224-.552-3.017-7.6a2.611,2.611,0,0,1-.272-.952,1.166,1.166,0,0,1,.16-.584,1.111,1.111,0,0,1,.448-.432,1.218,1.218,0,0,1,.592-.16,1.014,1.014,0,0,1,.808.336,3.243,3.243,0,0,1,.48.96l2.073,6.05,1.969-5.626a9.949,9.949,0,0,1,.424-1.072,1.244,1.244,0,0,1,.4-.52,1.1,1.1,0,0,1,.592-.136,1.228,1.228,0,0,1,.544.144.9.9,0,0,1,.392.4,1.061,1.061,0,0,1,.136.528c-.024.12-.064.272-.12.488a6.38,6.38,0,0,1-.2.632l-3.2,8.386a10.024,10.024,0,0,1-.808,1.736,2.574,2.574,0,0,1-1.048.96,3.85,3.85,0,0,1-1.76.336,4.229,4.229,0,0,1-1.624-.232.867.867,0,0,1-.544-.856.849.849,0,0,1,.256-.656,1.068,1.068,0,0,1,.76-.232,1.656,1.656,0,0,1,.392.056,2.158,2.158,0,0,0,.4.056,1.379,1.379,0,0,0,.664-.128,1.235,1.235,0,0,0,.432-.432A5.076,5.076,0,0,0,1014.653,22.591Z" transform="translate(-995.936 -8.651)" fill="#0091ea"/>
      <path id="XMLID_11_" d="M1157.846-20.785l-2.169-3.561-1.336,1.264v1.953a1.5,1.5,0,0,1-.368,1.088,1.19,1.19,0,0,1-.856.384,1.079,1.079,0,0,1-.888-.384,1.722,1.722,0,0,1-.328-1.112V-31.628a2.039,2.039,0,0,1,.32-1.248,1.034,1.034,0,0,1,.9-.424,1.115,1.115,0,0,1,.9.392,1.685,1.685,0,0,1,.328,1.144v5.954l2.761-2.9a7.256,7.256,0,0,1,.784-.744,1.119,1.119,0,0,1,.656-.2,1.031,1.031,0,0,1,.76.3.966.966,0,0,1,.3.728c0,.36-.328.84-.992,1.44l-1.3,1.2,2.521,3.961c.192.3.32.52.4.664a.824.824,0,0,1,.12.432,1.264,1.264,0,0,1-.32.92,1.1,1.1,0,0,1-.84.336.97.97,0,0,1-.688-.24A4.841,4.841,0,0,1,1157.846-20.785Z" transform="translate(-1125.285 33.3)" fill="#0091ea"/>
      <path id="XMLID_10_" d="M1274.606,17.442H1269.8a3.3,3.3,0,0,0,.336,1.472,2.255,2.255,0,0,0,.864.96,2.368,2.368,0,0,0,1.2.328,2.643,2.643,0,0,0,1.52-.432,4.16,4.16,0,0,0,.624-.48c.192-.176.448-.392.752-.688a.832.832,0,0,1,.544-.16.873.873,0,0,1,.616.208.716.716,0,0,1,.232.584,1.569,1.569,0,0,1-.264.776,2.973,2.973,0,0,1-.784.856,4.643,4.643,0,0,1-1.32.68,5.6,5.6,0,0,1-1.832.264,4.877,4.877,0,0,1-3.673-1.344A5.016,5.016,0,0,1,1267.3,16.8a5.942,5.942,0,0,1,.328-2.025,4.337,4.337,0,0,1,.944-1.6,3.978,3.978,0,0,1,1.528-1.016,5.572,5.572,0,0,1,2.009-.36,4.807,4.807,0,0,1,2.465.6,4.064,4.064,0,0,1,2.049,3.529,1.243,1.243,0,0,1-.528,1.2A2.863,2.863,0,0,1,1274.606,17.442Zm-4.809-1.4h4.449a3.021,3.021,0,0,0-.68-1.889,2.043,2.043,0,0,0-1.56-.624,1.947,1.947,0,0,0-1.5.632A3.288,3.288,0,0,0,1269.8,16.041Z" transform="translate(-1231.45 -8.191)" fill="#0091ea"/>
      <path id="XMLID_9_" d="M1398.245-25.839h.264v-1.472c0-.392.008-.712.032-.928a1.23,1.23,0,0,1,.184-.584,1.151,1.151,0,0,1,.416-.416,1.2,1.2,0,0,1,.6-.16,1.25,1.25,0,0,1,.848.352,1.1,1.1,0,0,1,.32.568,5.7,5.7,0,0,1,.064.952v1.672h.9a1.185,1.185,0,0,1,.792.24.824.824,0,0,1,.272.632.7.7,0,0,1-.392.688,2.6,2.6,0,0,1-1.12.2h-.456v4.513a6.473,6.473,0,0,0,.04.888,1,1,0,0,0,.208.5.738.738,0,0,0,.568.192,3.252,3.252,0,0,0,.584-.072,3.189,3.189,0,0,1,.568-.072.788.788,0,0,1,.544.24.809.809,0,0,1,.24.592.988.988,0,0,1-.648.912,4.268,4.268,0,0,1-1.865.32,3.146,3.146,0,0,1-1.744-.392,1.793,1.793,0,0,1-.776-1.072,7.075,7.075,0,0,1-.184-1.825v-4.713h-.328a1.165,1.165,0,0,1-.808-.256.8.8,0,0,1-.272-.632.784.784,0,0,1,.3-.632A1.263,1.263,0,0,1,1398.245-25.839Z" transform="translate(-1350.864 29.712)" fill="#0091ea"/>
    </g>
    <g id="XMLID_2_" transform="translate(464 -81.7)">
      <g id="XMLID_3_" transform="translate(0 0)">
        <circle id="XMLID_7_" cx="12.515" cy="12.515" r="12.515" fill="#0091ea"/>
        <g id="XMLID_4_" transform="translate(4.617 6.778)">
          <path id="XMLID_6_" d="M537.272,7.249a4.449,4.449,0,0,0-7.786-2.737,4.449,4.449,0,0,0-7.778,2.6,1.183,1.183,0,0,0-.008.168V12.3a1.11,1.11,0,0,0,1.112,1.112h.024a1.11,1.11,0,0,0,1.112-1.112V7.441h.008a2.209,2.209,0,0,1,4.417,0h.008v4.105a1.11,1.11,0,0,0,1.112,1.112h.024a1.11,1.11,0,0,0,1.112-1.112V7.433a2.209,2.209,0,0,1,4.417.008h.008v4.873a1.1,1.1,0,0,0,1.1,1.1h.024a1.1,1.1,0,0,0,1.1-1.1V7.249Z" transform="translate(-521.7 -3)" fill="#fff"/>
          <path id="XMLID_5_" d="M584.329,138.407c-.056-.08-.216.08-.216.08a5.291,5.291,0,0,1-6.45,0s-.16-.168-.216-.08.032.256.032.256a4.32,4.32,0,0,0,6.8,0A.237.237,0,0,0,584.329,138.407Z" transform="translate(-572.966 -127.548)" fill="#fff"/>
        </g>
      </g>
    </g>
  </g>
</svg>
