<svg xmlns="http://www.w3.org/2000/svg" width="27.5" height="27.5" viewBox="0 0 27.5 27.5">
  <g id="Group_4376" data-name="Group 4376" transform="translate(20826.688 2324.476)">
    <path id="Stroke_4" data-name="Stroke 4" d="M.5,13.5C.5,3.376,3.376.5,13.5.5s13,2.876,13,13-2.876,13-13,13S.5,23.624.5,13.5Z" transform="translate(-20826.438 -2324.226)" fill="#474546" stroke="#474546" stroke-linecap="round" stroke-linejoin="round" stroke-miterlimit="10" stroke-width="1.5"/>
    <g id="curriculum-vitae-resume-svgrepo-com" transform="translate(-20880.779 -2318.104)">
      <g id="Group_4373" data-name="Group 4373" transform="translate(70.517 0.238)">
        <g id="Group_4372" data-name="Group 4372" transform="translate(0)">
          <path id="Path_1218" data-name="Path 1218" d="M334.879,7.93v2.593h2.593Z" transform="translate(-334.879 -7.93)" fill="#fff"/>
        </g>
      </g>
      <g id="Group_4375" data-name="Group 4375" transform="translate(65.542 1.995)">
        <g id="Group_4374" data-name="Group 4374" transform="translate(0)">
          <path id="Path_1219" data-name="Path 1219" d="M170.819,66.613l-.448-.157a.141.141,0,0,0-.1,0c-.1.037-.225.085-.306.11a.614.614,0,0,1-.188.029h-.406a.268.268,0,0,0-.1.05s-.007.009-.011.012a.262.262,0,0,0-.046.05.335.335,0,0,0-.045.1v.8a1.048,1.048,0,0,0,.344.749l.01.007h0l.007.005c.036.025.066.046.094.068a.959.959,0,0,0,.394.215.216.216,0,0,1,.039,0,.527.527,0,0,0,.33-.107.768.768,0,0,0,.075-.06,1.711,1.711,0,0,1,.173-.136l.021-.014a.974.974,0,0,0,.337-.762v-.772A.275.275,0,0,0,170.819,66.613Z" transform="translate(-169.172 -66.448)" fill="#fff"/>
        </g>
      </g>
      <g id="Group_4377" data-name="Group 4377" transform="translate(65.738 4.712)">
        <g id="Group_4376-2" data-name="Group 4376" transform="translate(0)">
          <path id="Path_1220" data-name="Path 1220" d="M175.911,157.11l-.2-.136.241.438.049-.066h0l.027-.037.06-.081Z" transform="translate(-175.707 -156.974)" fill="#fff"/>
        </g>
      </g>
      <g id="Group_4379" data-name="Group 4379" transform="translate(65.316 1.233)">
        <g id="Group_4378" data-name="Group 4378" transform="translate(0)">
          <path id="Path_1221" data-name="Path 1221" d="M163.723,41.433a.238.238,0,0,1-.16-.333.11.11,0,0,0,0-.013l-.03-.007H162.26a.624.624,0,0,0-.623.614l.016-.012c.019-.015.037-.029.056-.042s.025-.018.038-.026.041-.023.061-.032l.034-.017c.023-.01.044-.017.065-.024l.025-.008a.6.6,0,0,1,.08-.017l.03,0h.429a.142.142,0,0,0,.043-.007c.074-.024.192-.068.282-.1a.615.615,0,0,1,.106-.03l.028,0a.616.616,0,0,1,.082-.007h0c.019,0,.038,0,.058,0s.029,0,.044,0a.608.608,0,0,1,.1.026l.451.159a.809.809,0,0,1,.129.061c.015.009.027.018.04.027a.792.792,0,0,1,.066.048l.012.009v-.061A.271.271,0,0,0,163.723,41.433Z" transform="translate(-161.637 -41.081)" fill="#fff"/>
        </g>
      </g>
      <g id="Group_4381" data-name="Group 4381" transform="translate(63.923 4.869)">
        <g id="Group_4380" data-name="Group 4380" transform="translate(0)">
          <path id="Path_1222" data-name="Path 1222" d="M120.156,162.829a.333.333,0,0,0-.215-.258l-1.019-.369-.46.837a.237.237,0,0,1-.193.123h-.016a.238.238,0,0,1-.192-.1l-.313-.426-.031.042h0l-.011.015h0l-.269.367a.238.238,0,0,1-.192.1h-.016a.238.238,0,0,1-.193-.123l-.46-.837-1.019.369a.334.334,0,0,0-.215.258l-.125.755.019.023h5.026l.019-.023Z" transform="translate(-115.217 -162.202)" fill="#fff"/>
        </g>
      </g>
      <g id="Group_4383" data-name="Group 4383" transform="translate(62.335)">
        <g id="Group_4382" data-name="Group 4382" transform="translate(0)">
          <path id="Path_1223" data-name="Path 1223" d="M70.279,3.307a.238.238,0,0,1-.238-.238V0H62.335V14.756H73.348V3.307ZM63.453,6.174l.125-.755A.81.81,0,0,1,64.1,4.79l1.21-.438h0l.214-.077V4.228a1.588,1.588,0,0,1-.459-1.065v-.15A.332.332,0,0,0,65,2.821a.726.726,0,0,1-.159-.454V1.856a1.1,1.1,0,0,1,1.1-1.1h1.3a.228.228,0,0,1,.045,0,.513.513,0,0,1,.387.262.452.452,0,0,1,.048.184.764.764,0,0,1,.35.538.264.264,0,0,1,0,.03V2.47a.575.575,0,0,1-.088.3,1.218,1.218,0,0,0-.144.4s0,.007,0,.011a1.51,1.51,0,0,1-.454,1.028v.063l.214.077h0l1.21.438a.809.809,0,0,1,.523.628l.125.755a.495.495,0,0,1-.489.576H63.942a.5.5,0,0,1-.489-.576Zm7.019,7.259H63.684a.238.238,0,1,1,0-.476h6.787a.238.238,0,0,1,0,.476ZM72,12.164H63.684a.238.238,0,1,1,0-.476H72a.238.238,0,0,1,0,.476Zm0-1.27H63.684a.238.238,0,1,1,0-.476H72a.238.238,0,0,1,0,.476Zm0-1.27H63.684a.238.238,0,1,1,0-.476H72a.238.238,0,0,1,0,.476Zm0-1.27H63.684a.238.238,0,0,1,0-.476H72a.238.238,0,0,1,0,.476Z" transform="translate(-62.335)" fill="#fff"/>
        </g>
      </g>
      <g id="Group_4385" data-name="Group 4385" transform="translate(66.794 4.713)">
        <g id="Group_4384" data-name="Group 4384" transform="translate(0)">
          <path id="Path_1224" data-name="Path 1224" d="M210.861,157.23l.136.186.241-.438Z" transform="translate(-210.861 -156.978)" fill="#fff"/>
        </g>
      </g>
    </g>
  </g>
</svg>
