<svg xmlns="http://www.w3.org/2000/svg" width="27.5" height="27.5" viewBox="0 0 27.5 27.5">
  <g id="Group_3734" data-name="Group 3734" transform="translate(19506.75 4327.476)">
    <path id="Stroke_4" data-name="Stroke 4" d="M.5,13.5C.5,3.376,3.376.5,13.5.5s13,2.876,13,13-2.876,13-13,13S.5,23.624.5,13.5Z" transform="translate(-19506.5 -4327.226)" fill="#fcc155" stroke="#fcc155" stroke-linecap="round" stroke-linejoin="round" stroke-miterlimit="10" stroke-width="1.5"/>
    <path id="bag-svgrepo-com" d="M17.065,11.109V14.12A25.123,25.123,0,0,1,8.533,15.5,25.123,25.123,0,0,1,0,14.12V11.109a1.007,1.007,0,0,1,1-1H5.144V9.352A2.147,2.147,0,0,1,7.277,7.219h2.51A2.147,2.147,0,0,1,11.92,9.352v.753H16.06a1.007,1.007,0,0,1,1,1ZM6.4,9.352v.753h4.267V9.352a.889.889,0,0,0-.879-.879H7.278A.889.889,0,0,0,6.4,9.352Zm.879,4.593v.5a.237.237,0,0,0,.251.251H9.537a.237.237,0,0,0,.251-.251v-.5a.237.237,0,0,0-.251-.251H7.529A.237.237,0,0,0,7.278,13.945ZM0,20.67V15.2a26.625,26.625,0,0,0,8.533,1.3,26.625,26.625,0,0,0,8.533-1.3V20.67a1.007,1.007,0,0,1-1,1H1A1.007,1.007,0,0,1,0,20.67Zm9.788-2.585v-.5a.237.237,0,0,0-.251-.251H7.529a.237.237,0,0,0-.251.251v.5a.237.237,0,0,0,.251.251H9.536A.237.237,0,0,0,9.788,18.085Z" transform="translate(-19501.531 -4328.172)" fill="#fff"/>
  </g>
</svg>
