<svg xmlns="http://www.w3.org/2000/svg" width="27.5" height="27.5" viewBox="0 0 27.5 27.5">
  <g id="Group_2502" data-name="Group 2502" transform="translate(-1234.25 -114.25)">
    <path id="Stroke_4" data-name="Stroke 4" d="M.5,13.5C.5,3.376,3.376.5,13.5.5s13,2.876,13,13-2.876,13-13,13S.5,23.624.5,13.5Z" transform="translate(1234.5 114.5)" fill="#2d2c2c" stroke="#2d2c2c" stroke-linecap="round" stroke-linejoin="round" stroke-miterlimit="10" stroke-width="1.5"/>
    <g id="Document" transform="translate(1242 121)">
      <path id="Document-2" data-name="Document" d="M8.794,14H3.206C1.169,14,0,12.765,0,10.612V3.381A3.54,3.54,0,0,1,.843.89,3.154,3.154,0,0,1,3.206,0H8.794C10.832,0,12,1.232,12,3.381v7.231a3.528,3.528,0,0,1-.831,2.508A3.124,3.124,0,0,1,8.794,14ZM3.332,9.615a.515.515,0,0,0-.446.262.579.579,0,0,0,0,.588.52.52,0,0,0,.435.256.445.445,0,0,0,.065,0H8.614a.557.557,0,0,0,0-1.1H3.386Zm.054-3.19a.547.547,0,0,0,0,1.092H8.614a.547.547,0,0,0,0-1.092Zm0-3.17v.007h0a.546.546,0,0,0,0,1.091H5.38a.55.55,0,0,0,0-1.1Z" fill="#f5f6fa"/>
    </g>
  </g>
</svg>
