<svg id="Iconly_Bold_Paper" data-name="Iconly/Bold/Paper" xmlns="http://www.w3.org/2000/svg" width="18.522" height="18.522" viewBox="0 0 18.522 18.522">
  <g id="Paper" transform="translate(2.701 1.543)">
    <path id="Paper-2" data-name="Paper" d="M3.607,15.435A3.625,3.625,0,0,1,0,11.8V3.481A3.467,3.467,0,0,1,3.446,0H7.526a.354.354,0,0,1,.351.355V2.84A2.578,2.578,0,0,0,10.43,5.418c.326,0,.613,0,.866,0l.524,0,.4,0c.176,0,.375,0,.553,0a.346.346,0,0,1,.344.347v6.2a3.452,3.452,0,0,1-3.431,3.465Zm.008-4.908a.583.583,0,0,0,.573.579H8.344a.583.583,0,0,0,.573-.579.573.573,0,0,0-.573-.572H4.188A.573.573,0,0,0,3.615,10.527Zm0-3.851a.573.573,0,0,0,.573.571H6.77a.573.573,0,0,0,.573-.571A.583.583,0,0,0,6.77,6.1H4.188A.583.583,0,0,0,3.615,6.676ZM10.533,4.29A1.557,1.557,0,0,1,8.991,2.734V.7A.365.365,0,0,1,9.62.442L12.7,3.673a.368.368,0,0,1-.263.622H11.9C11.416,4.3,10.92,4.294,10.533,4.29Z" fill="#d1d1d1"/>
  </g>
</svg>
