<svg xmlns="http://www.w3.org/2000/svg" width="27.5" height="27.5" viewBox="0 0 27.5 27.5">
  <g id="Group_826" data-name="Group 826" transform="translate(0.75 0.75)">
    <path id="Stroke_4" data-name="Stroke 4" d="M.5,13.5C.5,3.376,3.376.5,13.5.5s13,2.876,13,13-2.876,13-13,13S.5,23.624.5,13.5Z" transform="translate(-0.5 -0.5)" fill="#00c39c" stroke="#00c39c" stroke-linecap="round" stroke-linejoin="round" stroke-miterlimit="10" stroke-width="1.5"/>
    <g id="Iconly_Curved_Bookmark" data-name="Iconly/Curved/Bookmark" transform="translate(7.5 5.5)">
      <g id="Bookmark">
        <path id="Stroke_2" data-name="Stroke 2" d="M5.848,0C.848,0,0,.73,0,6.6,0,13.17-.12,14.875,1.13,14.875s3.288-2.884,4.719-2.884,3.47,2.884,4.719,2.884S11.694,13.17,11.694,6.6C11.694.73,10.849,0,5.848,0Z" transform="translate(0)" fill="#fff"/>
        <path id="Stroke_1" data-name="Stroke 1" d="M0,.5H5.367" transform="translate(3.165 4.759)" fill="none" stroke="#00c39c" stroke-linecap="round" stroke-linejoin="round" stroke-miterlimit="10" stroke-width="1.5"/>
      </g>
    </g>
  </g>
</svg>
