<svg xmlns="http://www.w3.org/2000/svg" width="18.44" height="12.234" viewBox="0 0 18.44 12.234">
  <g id="Group_2969" data-name="Group 2969" transform="translate(-737.547 -481.54)">
    <path id="Path_1135" data-name="Path 1135" d="M755.986,498.38a5.967,5.967,0,0,0-1.553-4.183.319.319,0,0,0-.41-.018,3.043,3.043,0,0,1-3.662,0,.319.319,0,0,0-.411.007,4.783,4.783,0,0,0-1,1.378.32.32,0,0,0-.321.039,3.007,3.007,0,0,1-3.663,0,.318.318,0,0,0-.3-.056,4.245,4.245,0,0,0-.969-1.354.319.319,0,0,0-.41-.018,3.043,3.043,0,0,1-3.662,0,.319.319,0,0,0-.411.007,5.769,5.769,0,0,0-1.668,4.179.32.32,0,0,0,.32.324l5.126,0a6.859,6.859,0,0,0-.107,1.1.321.321,0,0,0,.092.229.318.318,0,0,0,.227.095h7.065a.319.319,0,0,0,.319-.308,6.617,6.617,0,0,0-.082-1.116h5.159A.319.319,0,0,0,755.986,498.38Zm-12.847-.329H738.2a5.373,5.373,0,0,1,1.258-3.2,3.619,3.619,0,0,0,3.984-.012,3.858,3.858,0,0,1,.732,1.183A5.759,5.759,0,0,0,743.139,498.051Zm.4,1.427a5.373,5.373,0,0,1,1.258-3.2,3.62,3.62,0,0,0,3.984-.012,5.318,5.318,0,0,1,1.165,3.211Zm6.844-1.426a5.181,5.181,0,0,0-.949-2.006,4.918,4.918,0,0,1,.76-1.193,3.619,3.619,0,0,0,3.984-.012,5.322,5.322,0,0,1,1.165,3.211Z" transform="translate(0 -6.341)" fill="#fba303"/>
    <path id="Path_1136" data-name="Path 1136" d="M752.981,481.54a3.015,3.015,0,0,1-5.4,1.426,3,3,0,0,0-2.136.886,3.181,3.181,0,0,0-.22.248,3.019,3.019,0,1,0-2.982,3.481h0a3,3,0,0,0,2.135-.886,3.068,3.068,0,0,0,.221-.248,3.023,3.023,0,0,0,2.982,2.56h0a3.015,3.015,0,0,1,5.4-1.426h0a3.021,3.021,0,0,0,0-6.042Zm-9.051,4.7a2.367,2.367,0,0,1-1.683.7h0a2.387,2.387,0,1,1,1.684-.7Zm5.339,1.426a2.365,2.365,0,0,1-1.683.7h0a2.386,2.386,0,1,1,1.684-.7Zm5.4-1.426a2.366,2.366,0,0,1-1.683.7h0a2.387,2.387,0,1,1,1.684-.7Z" transform="translate(-0.847 0)" fill="#fba303"/>
  </g>
</svg>
