<svg xmlns="http://www.w3.org/2000/svg" width="8.687" height="8.836" viewBox="0 0 8.687 8.836">
  <path id="Arrow_-_Left_2" data-name="Arrow - Left 2" d="M.321,3.585C.37,3.542.555,3.36.728,3.21A19.227,19.227,0,0,1,5.762.247,4.576,4.576,0,0,1,6.786,0a1.927,1.927,0,0,1,.778.161,1.481,1.481,0,0,1,.691.666,6.337,6.337,0,0,1,.223.783,15.015,15.015,0,0,1,.21,2.8A17.349,17.349,0,0,1,8.5,7.128a5.491,5.491,0,0,1-.3.977,1.6,1.6,0,0,1-1.37.73H6.786a4.8,4.8,0,0,1-1.148-.3A19.2,19.2,0,0,1,.715,5.615,4.477,4.477,0,0,1,.3,5.207,1.183,1.183,0,0,1,0,4.423a1.246,1.246,0,0,1,.321-.838" fill="#fba303"/>
</svg>
