<svg xmlns="http://www.w3.org/2000/svg" width="18.96" height="13.219" viewBox="0 0 18.96 13.219">
  <g id="Group_2977" data-name="Group 2977" transform="translate(-216.147 -672.115)">
    <path id="Path_1141" data-name="Path 1141" d="M234.777,677.474h-5.738v-5.03a.329.329,0,0,0-.329-.329h-6.163a.329.329,0,0,0-.329.329v2.183h-5.742a.329.329,0,0,0-.329.329v10.048a.329.329,0,0,0,.329.329h18.3a.329.329,0,0,0,.329-.329v-7.2A.329.329,0,0,0,234.777,677.474Zm-3.584,4.469h1.1v2.865h-1.1Zm3.255,2.734h-1.763v-2.932a.2.2,0,0,0-.2-.2H231a.2.2,0,0,0-.2.2v2.932h-1.763v-6.544h5.413Zm-17.643-9.39h5.413v9.39h-1.763v-2.932a.2.2,0,0,0-.2-.2h-1.492a.2.2,0,0,0-.2.2v2.932h-1.763Zm2.158,6.656h1.1v2.865h-1.1Zm9.413-4.14v6.873h-1.892v-2.932a.2.2,0,0,0-.2-.2H224.8a.2.2,0,0,0-.2.2v2.932h-1.722v-11.9h5.5v4.99A.328.328,0,0,0,228.377,677.8Zm-3.384,7v-2.865h1.1v2.865Z" fill="#fba303"/>
    <path id="Path_1142" data-name="Path 1142" d="M236.273,676.839H234.8a.2.2,0,0,0-.2.2v1.474a.2.2,0,0,0,.2.2h1.474a.2.2,0,0,0,.2-.2v-1.474A.2.2,0,0,0,236.273,676.839Zm-.2,1.474H235v-1.079h1.079Z" transform="translate(-11.004 -2.817)" fill="#fba303"/>
    <path id="Path_1143" data-name="Path 1143" d="M241.817,676.839h-1.474a.2.2,0,0,0-.2.2v1.474a.2.2,0,0,0,.2.2h1.474a.2.2,0,0,0,.2-.2v-1.474A.2.2,0,0,0,241.817,676.839Zm-.2,1.474h-1.08v-1.079h1.08Z" transform="translate(-14.309 -2.817)" fill="#fba303"/>
    <path id="Path_1144" data-name="Path 1144" d="M236.273,682.818H234.8a.2.2,0,0,0-.2.2v1.474a.2.2,0,0,0,.2.2h1.474a.2.2,0,0,0,.2-.2v-1.474A.2.2,0,0,0,236.273,682.818Zm-.2,1.474H235v-1.079h1.079Z" transform="translate(-11.004 -6.382)" fill="#fba303"/>
    <path id="Path_1145" data-name="Path 1145" d="M241.817,682.818h-1.474a.2.2,0,0,0-.2.2v1.474a.2.2,0,0,0,.2.2h1.474a.2.2,0,0,0,.2-.2v-1.474A.2.2,0,0,0,241.817,682.818Zm-.2,1.474h-1.08v-1.079h1.08Z" transform="translate(-14.309 -6.382)" fill="#fba303"/>
    <path id="Path_1146" data-name="Path 1146" d="M236.273,688.8H234.8a.2.2,0,0,0-.2.2v1.474a.2.2,0,0,0,.2.2h1.474a.2.2,0,0,0,.2-.2v-1.474A.2.2,0,0,0,236.273,688.8Zm-.2,1.474H235v-1.079h1.079Z" transform="translate(-11.004 -9.946)" fill="#fba303"/>
    <path id="Path_1147" data-name="Path 1147" d="M241.817,688.8h-1.474a.2.2,0,0,0-.2.2v1.474a.2.2,0,0,0,.2.2h1.474a.2.2,0,0,0,.2-.2v-1.474A.2.2,0,0,0,241.817,688.8Zm-.2,1.474h-1.08v-1.079h1.08Z" transform="translate(-14.309 -9.946)" fill="#fba303"/>
    <path id="Path_1148" data-name="Path 1148" d="M219.592,684.687h1.474a.2.2,0,0,0,.2-.2v-1.474a.2.2,0,0,0-.2-.2h-1.474a.2.2,0,0,0-.2.2v1.474A.2.2,0,0,0,219.592,684.687Zm.2-1.474h1.079v1.079H219.79Z" transform="translate(-1.937 -6.382)" fill="#fba303"/>
    <path id="Path_1149" data-name="Path 1149" d="M225.136,684.687h1.474a.2.2,0,0,0,.2-.2v-1.474a.2.2,0,0,0-.2-.2h-1.474a.2.2,0,0,0-.2.2v1.474A.2.2,0,0,0,225.136,684.687Zm.2-1.474h1.079v1.079h-1.079Z" transform="translate(-5.242 -6.382)" fill="#fba303"/>
    <path id="Path_1150" data-name="Path 1150" d="M221.066,690.665a.2.2,0,0,0,.2-.2v-1.474a.2.2,0,0,0-.2-.2h-1.474a.2.2,0,0,0-.2.2v1.474a.2.2,0,0,0,.2.2Zm-1.277-1.474h1.079v1.079H219.79Z" transform="translate(-1.937 -9.946)" fill="#fba303"/>
    <path id="Path_1151" data-name="Path 1151" d="M225.136,690.665h1.474a.2.2,0,0,0,.2-.2v-1.474a.2.2,0,0,0-.2-.2h-1.474a.2.2,0,0,0-.2.2v1.474A.2.2,0,0,0,225.136,690.665Zm.2-1.474h1.079v1.079h-1.079Z" transform="translate(-5.242 -9.946)" fill="#fba303"/>
    <path id="Path_1152" data-name="Path 1152" d="M249.884,690.665h1.474a.2.2,0,0,0,.2-.2v-1.474a.2.2,0,0,0-.2-.2h-1.474a.2.2,0,0,0-.2.2v1.474A.2.2,0,0,0,249.884,690.665Zm.2-1.474h1.079v1.079h-1.079Z" transform="translate(-19.998 -9.946)" fill="#fba303"/>
    <path id="Path_1153" data-name="Path 1153" d="M255.428,690.665H256.9a.2.2,0,0,0,.2-.2v-1.474a.2.2,0,0,0-.2-.2h-1.474a.2.2,0,0,0-.2.2v1.474A.2.2,0,0,0,255.428,690.665Zm.2-1.474H256.7v1.079h-1.079Z" transform="translate(-23.304 -9.946)" fill="#fba303"/>
  </g>
</svg>
