<svg xmlns="http://www.w3.org/2000/svg" width="27.5" height="27.5" viewBox="0 0 27.5 27.5">
  <g id="Group_2366" data-name="Group 2366" transform="translate(-331.25 -492.25)">
    <path id="Stroke_4" data-name="Stroke 4" d="M.5,13.5C.5,3.376,3.376.5,13.5.5s13,2.876,13,13-2.876,13-13,13S.5,23.624.5,13.5Z" transform="translate(331.5 492.5)" fill="#8886ec" stroke="#8886ec" stroke-linecap="round" stroke-linejoin="round" stroke-miterlimit="10" stroke-width="1.5"/>
    <g id="Iconly_Bulk_Lock" data-name="Iconly/Bulk/Lock" transform="translate(338.615 498.479)">
      <g id="Lock" transform="translate(0 0)">
        <path id="Fill_1" data-name="Fill 1" d="M8.987,9.3H3.013A2.972,2.972,0,0,1,0,6.378V2.923A2.972,2.972,0,0,1,3.013,0H8.987A2.972,2.972,0,0,1,12,2.923V6.378A2.972,2.972,0,0,1,8.987,9.3ZM6,3.269a.616.616,0,0,0-.624.605V5.419a.628.628,0,0,0,1.255,0V3.874A.619.619,0,0,0,6,3.269Z" transform="translate(0 4.7)" fill="#fff"/>
        <path id="Fill_4" data-name="Fill 4" d="M7.8,3.777V4.807a2.954,2.954,0,0,0-.789-.1H6.542V3.777A2.6,2.6,0,0,0,3.9,1.217,2.607,2.607,0,0,0,1.255,3.763V4.7H.8a2.715,2.715,0,0,0-.8.111V3.777A3.844,3.844,0,0,1,3.888,0,3.84,3.84,0,0,1,7.8,3.777" transform="translate(2.102)" fill="#fff"/>
      </g>
    </g>
  </g>
</svg>
