<svg xmlns="http://www.w3.org/2000/svg" width="23.525" height="23.525" viewBox="0 0 23.525 23.525">
  <g id="Group_1409" data-name="Group 1409" transform="translate(-1495.175 -426)">
    <g id="Group_1407" data-name="Group 1407" transform="translate(1479.175 47.7)">
      <path id="Stroke_3" data-name="Stroke 3" d="M0,11.763C0,2.941,2.941,0,11.763,0S23.525,2.941,23.525,11.763,20.584,23.525,11.763,23.525,0,20.584,0,11.763Z" transform="translate(16 378.3)" fill="#00c39c"/>
      <path id="Stroke_1" data-name="Stroke 1" d="M3.421,7.981C-.719,3.841-.13,1.945.306,1.334c.056-.1,1.438-2.167,2.919-.954C6.9,3.408,2.248,2.98,5.335,6.068S7.995,4.5,11.022,8.177c1.214,1.482-.855,2.864-.953,2.919C9.458,11.533,7.561,12.121,3.421,7.981Z" transform="translate(22.061 384.121)" fill="#fff"/>
    </g>
  </g>
</svg>
