<svg xmlns="http://www.w3.org/2000/svg" width="23.939" height="23.939" viewBox="0 0 23.939 23.939">
  <g id="Group_2785" data-name="Group 2785" transform="translate(-114.5 -4.193)">
    <path id="Stroke_4" data-name="Stroke 4" d="M.5,12.47C.5,3.148,3.148.5,12.47.5s11.97,2.648,11.97,11.97-2.648,11.97-11.97,11.97S.5,21.791.5,12.47Z" transform="translate(114 3.693)" fill="rgba(219,20,61,0.1)"/>
    <path id="Home" d="M3.63,10.136V8.48a.774.774,0,0,1,.776-.766H5.98a.774.774,0,0,1,.782.766h0v1.661a.665.665,0,0,0,.656.658H8.466A1.875,1.875,0,0,0,10.36,8.943h0V4.232A1.313,1.313,0,0,0,9.835,3.2L6.247.37A1.747,1.747,0,0,0,4.1.37L.525,3.209A1.3,1.3,0,0,0,0,4.237V8.943A1.875,1.875,0,0,0,1.894,10.8H2.943a.67.67,0,0,0,.677-.663h0" transform="translate(121.289 10.764)" fill="none" stroke="#db143d" stroke-linecap="round" stroke-linejoin="round" stroke-miterlimit="10" stroke-width="1"/>
  </g>
</svg>
