<svg xmlns="http://www.w3.org/2000/svg" width="30.499" height="30.499" viewBox="0 0 30.499 30.499">
  <g id="Group_2034" data-name="Group 2034" transform="translate(-1057.251 -209.75)">
    <g id="Group_1807" data-name="Group 1807" transform="translate(1058.001 210.5)">
      <path id="Stroke_4" data-name="Stroke 4" d="M0,14.5C0,3.626,3.626,0,14.5,0S29,3.626,29,14.5,25.373,29,14.5,29,0,25.373,0,14.5Z" transform="translate(0 0)" fill="#db143d" stroke="#db143d" stroke-linecap="round" stroke-linejoin="round" stroke-miterlimit="10" stroke-width="1.5"/>
    </g>
    <path id="Arrow_-_Up_2" data-name="Arrow - Up 2" d="M4.637.181c.038.028.2.132.332.23A11.175,11.175,0,0,1,7.586,3.256a1.863,1.863,0,0,1,.218.579.768.768,0,0,1-.142.439,1.176,1.176,0,0,1-.588.39c-.171.049-.683.126-.692.126a20.584,20.584,0,0,1-2.475.119,23.817,23.817,0,0,1-2.4-.1,7.034,7.034,0,0,1-.863-.167A.891.891,0,0,1,0,3.862V3.835a2.007,2.007,0,0,1,.266-.648A11.2,11.2,0,0,1,2.845.4a3.568,3.568,0,0,1,.36-.237A1.43,1.43,0,0,1,3.9,0a1.5,1.5,0,0,1,.74.181" transform="translate(1068.599 220.002)" fill="#f5f6fa"/>
    <path id="Arrow_-_Up_2-2" data-name="Arrow - Up 2" d="M4.637.155c.038.024.2.113.332.2A10.309,10.309,0,0,1,7.586,2.782a1.458,1.458,0,0,1,.218.494.594.594,0,0,1-.142.375,1.2,1.2,0,0,1-.588.333c-.171.042-.683.107-.692.107a24.059,24.059,0,0,1-2.475.1c-.958,0-1.831-.036-2.4-.089a8.115,8.115,0,0,1-.863-.143C.247,3.83,0,3.574,0,3.3V3.276a1.594,1.594,0,0,1,.266-.554A10.351,10.351,0,0,1,2.845.345a3.667,3.667,0,0,1,.36-.2A1.63,1.63,0,0,1,3.9,0a1.708,1.708,0,0,1,.74.155" transform="translate(1068.599 225.802)" fill="#f5f6fa" opacity="0.465"/>
  </g>
</svg>
