<svg xmlns="http://www.w3.org/2000/svg" width="20.741" height="21.261" viewBox="0 0 20.741 21.261">
  <path id="push-pin" d="M9.484,7.924a5.473,5.473,0,0,0-.531-.467l-.7-4.035h.758a.405.405,0,0,0,.405-.405V2.026A2.029,2.029,0,0,0,7.388,0H3.875A2.029,2.029,0,0,0,1.848,2.026v.991a.405.405,0,0,0,.405.405H3.03l-.7,4.035a5.512,5.512,0,0,0-.531.467A5.361,5.361,0,0,0,.215,11.768v.274a.405.405,0,0,0,.405.405H5.235v5.037a.405.405,0,0,0,.81,0V12.446h4.615a.405.405,0,0,0,.405-.405V11.77A5.363,5.363,0,0,0,9.484,7.924Zm-6.825-5.9A1.217,1.217,0,0,1,3.875.811H7.388A1.217,1.217,0,0,1,8.6,2.026v.585H2.659Zm1.194,1.4H7.428l.6,3.463a5.528,5.528,0,0,0-4.779,0ZM1.027,11.636A4.625,4.625,0,0,1,8.911,8.5a4.556,4.556,0,0,1,1.344,3.138Zm0,0" transform="translate(12.164 0.209) rotate(42)" fill="#db143d" stroke="#db143d" stroke-width="0.5"/>
</svg>
