<svg xmlns="http://www.w3.org/2000/svg" width="30.499" height="30.499" viewBox="0 0 30.499 30.499">
  <g id="Group_2034" data-name="Group 2034" transform="translate(-1057.251 -209.75)">
    <g id="Group_1807" data-name="Group 1807" transform="translate(1058.001 210.5)">
      <path id="Stroke_4" data-name="Stroke 4" d="M0,14.5C0,3.626,3.626,0,14.5,0S29,3.626,29,14.5,25.373,29,14.5,29,0,25.373,0,14.5Z" transform="translate(0 0)" fill="#db143d" stroke="#db143d" stroke-linecap="round" stroke-linejoin="round" stroke-miterlimit="10" stroke-width="1.5"/>
    </g>
    <g id="Group_665" data-name="Group 665" transform="translate(728.916 -357.585)">
      <g id="Iconly_Curved_Delete" data-name="Iconly/Curved/Delete" transform="translate(332.085 571.085)">
        <g id="Delete" transform="translate(3.838 2.472)">
          <path id="Stroke_1" data-name="Stroke 1" d="M12.076,0c0,7.3,1.051,10.6-6.019,10.6s-6-3.3-6-10.6" transform="translate(1.288 6.229)" fill="none" stroke="#fff" stroke-linecap="round" stroke-linejoin="round" stroke-miterlimit="10" stroke-width="1.5"/>
          <path id="Stroke_3" data-name="Stroke 3" d="M14.708.476H0" transform="translate(0 2.953)" fill="none" stroke="#fff" stroke-linecap="round" stroke-linejoin="round" stroke-miterlimit="10" stroke-width="1.5"/>
          <path id="Stroke_5" data-name="Stroke 5" d="M6.26,3.429A2.921,2.921,0,0,0,3.14,0,2.92,2.92,0,0,0,.021,3.429" transform="translate(4.213)" fill="none" stroke="#fff" stroke-linecap="round" stroke-linejoin="round" stroke-miterlimit="10" stroke-width="1.5"/>
        </g>
      </g>
    </g>
  </g>
</svg>
