<svg xmlns="http://www.w3.org/2000/svg" width="34.999" height="34.999" viewBox="0 0 34.999 34.999">
  <g id="Group_1387" data-name="Group 1387" transform="translate(-1301 -350.5)">
    <path id="Stroke_4" data-name="Stroke 4" d="M0,17.5C0,4.376,4.376,0,17.5,0S35,4.376,35,17.5,30.623,35,17.5,35,0,30.623,0,17.5Z" transform="translate(1301 350.5)" fill="#db143d"/>
    <g id="Iconly_Curved_Bookmark" data-name="Iconly/Curved/Bookmark" transform="translate(1311.65 359.562)">
      <g id="Bookmark">
        <path id="Stroke_2" data-name="Stroke 2" d="M6.848,0C.993,0,0,.828,0,7.486c0,7.454-.144,9.389,1.319,9.389S5.173,13.6,6.848,13.6s4.063,3.272,5.525,3.272,1.319-1.934,1.319-9.389C13.693.828,12.7,0,6.848,0Z" transform="translate(0 0)" fill="none" stroke="#f5f6fa" stroke-linecap="round" stroke-linejoin="round" stroke-miterlimit="10" stroke-width="1.5"/>
        <path id="Stroke_1" data-name="Stroke 1" d="M0,.5H6.284" transform="translate(3.706 5.466)" fill="none" stroke="#f5f6fa" stroke-linecap="round" stroke-linejoin="round" stroke-miterlimit="10" stroke-width="1.5"/>
      </g>
    </g>
  </g>
</svg>
