<svg id="Iconly_Bulk_Arrow_-_Left_2" data-name="Iconly/Bulk/Arrow - Left 2" xmlns="http://www.w3.org/2000/svg" width="6" height="7" viewBox="0 0 6 7">
  <g id="Arrow_-_Left_2" data-name="Arrow - Left 2" transform="translate(6) rotate(90)">
    <path id="Fill_1" data-name="Fill 1" d="M2.839.129,5.3,4.237a.267.267,0,0,1-.015.3,7.767,7.767,0,0,1-.838.972,3.159,3.159,0,0,1-.326.287A.986.986,0,0,1,3.5,6a1.062,1.062,0,0,1-.665-.221c-.033-.033-.18-.161-.3-.281A13.083,13.083,0,0,1,.193,2,2.753,2.753,0,0,1,0,1.3,1.19,1.19,0,0,1,.127.756,1.1,1.1,0,0,1,.652.282,5.282,5.282,0,0,1,1.276.128,10.031,10.031,0,0,1,2.6,0a.268.268,0,0,1,.239.128" fill="#db143d"/>
    <path id="Fill_4" data-name="Fill 4" d="M.038.4A.265.265,0,0,1,.278,0c.491.022.924.059,1.246.1A4.235,4.235,0,0,1,2.3.313a1.07,1.07,0,0,1,.578.948v.033a2.756,2.756,0,0,1-.239.8A8.369,8.369,0,0,1,2.113,3.1a.264.264,0,0,1-.454,0Z" transform="translate(4.127 0.003)" fill="#db143d" opacity="0.4"/>
  </g>
</svg>
