<svg xmlns="http://www.w3.org/2000/svg" width="36.499" height="36.499" viewBox="0 0 36.499 36.499">
  <g id="Group_1807"  transform="translate(-1330.251 -209.75)">
    <path id="Stroke_4"  d="M0,17.5C0,4.376,4.376,0,17.5,0S35,4.376,35,17.5,30.623,35,17.5,35,0,30.623,0,17.5Z" transform="translate(1331.001 210.5)" fill="#db143d" stroke="#db143d" stroke-linecap="round" stroke-linejoin="round" stroke-miterlimit="10" stroke-width="1.5"/>
    <g id="Iconly_Curved_Location"  transform="translate(1340.063 218.137)">
      <g id="Location">
        <path id="Stroke_1"  d="M5.479,2.74a2.74,2.74,0,1,0-2.74,2.739A2.74,2.74,0,0,0,5.479,2.74Z" transform="translate(5.49 5.709)" fill="none" stroke="#f5f6fa" stroke-linecap="round" stroke-linejoin="round" stroke-miterlimit="10" stroke-width="1.5"/>
        <path id="Stroke_3"  d="M8.218,19.725C5.042,19.725,0,14.2,0,8.327A8.273,8.273,0,0,1,8.218,0a8.274,8.274,0,0,1,8.219,8.327C16.437,14.2,11.4,19.725,8.218,19.725Z" fill="none" stroke="#f5f6fa" stroke-linecap="round" stroke-linejoin="round" stroke-miterlimit="10" stroke-width="1.5"/>
      </g>
    </g>
  </g>
</svg>
