<svg xmlns="http://www.w3.org/2000/svg" width="27.5" height="27.5" viewBox="0 0 27.5 27.5">
  <g id="Group_7738" data-name="Group 7738" transform="translate(-1487.488 -7222.388)">
    <g id="Group_7734" data-name="Group 7734" transform="translate(22314.176 9496.863)" opacity="0.8">
      <path id="Stroke_4" data-name="Stroke 4" d="M.5,13.5C.5,3.376,3.376.5,13.5.5s13,2.876,13,13-2.876,13-13,13S.5,23.624.5,13.5Z" transform="translate(-20826.438 -2274.226)" fill="#e27a8f" stroke="#e27a8f" stroke-linecap="round" stroke-linejoin="round" stroke-miterlimit="10" stroke-width="1.5"/>
    </g>
    <path id="icons8_cv" d="M13.617,3a2.027,2.027,0,0,0-2,1.8h-1.6A2.022,2.022,0,0,0,8,6.819V18.952a2.022,2.022,0,0,0,2.022,2.022H20.357a2.022,2.022,0,0,0,2.022-2.022V6.819A2.022,2.022,0,0,0,20.357,4.8h-1.6a2.027,2.027,0,0,0-2-1.8Zm0,1.348h3.145a.674.674,0,0,1,0,1.348H13.617a.674.674,0,0,1,0-1.348ZM15.19,9.291a1.8,1.8,0,1,1-1.8,1.8A1.8,1.8,0,0,1,15.19,9.291Zm-2.78,4.943h5.562a.815.815,0,0,1,.814.814v.188c0,.864-1.143,2.143-3.595,2.143s-3.595-1.279-3.595-2.143v-.188A.815.815,0,0,1,12.409,14.234Z" transform="translate(1486.049 7224.151)" fill="#fff"/>
  </g>
</svg>
