<svg xmlns="http://www.w3.org/2000/svg" width="14.048" height="15.55" viewBox="0 0 14.048 15.55">
  <g id="Group_2917" data-name="Group 2917" transform="translate(-678.821 -479.752)">
    <path id="Path_1086" data-name="Path 1086" d="M683.283,486.377a4.463,4.463,0,1,0,4.213,5.934c.3.012.577.016.8.016,1.37,0,4.557-.145,4.557-1.489v-1.815a.609.609,0,0,0,.013-.123.573.573,0,0,0-.013-.116V487.31a.613.613,0,0,0,.013-.123.574.574,0,0,0-.013-.116v-1.642a.6.6,0,0,0,.013-.123.577.577,0,0,0-.037-.2.75.75,0,0,0,.024-.185v-1.815a.613.613,0,0,0,.013-.123.568.568,0,0,0-.013-.116v-1.643a.588.588,0,0,0-.026-.33.572.572,0,0,0-.24-.326c-.931-.789-3.9-.816-4.291-.816s-3.36.027-4.291.816a.57.57,0,0,0-.24.325.582.582,0,0,0-.026.331v1.643a.564.564,0,0,0-.013.116.6.6,0,0,0,.013.123v1.815a.777.777,0,0,0,.024.185.575.575,0,0,0-.024.323v.972A4.476,4.476,0,0,0,683.283,486.377Zm9.052,4.425c0,.012,0,.023,0,.032v.015c-.026.5-1.827.905-4.037.905-.219,0-.434,0-.645-.013a4.441,4.441,0,0,0,.092-.9c0-.079,0-.157-.006-.235.206.005.4.008.558.008a9.29,9.29,0,0,0,4.037-.689Zm0-1.714c0,.011,0,.023,0,.032v.014c-.026.5-1.827.906-4.037.906-.214,0-.422,0-.628-.012a4.424,4.424,0,0,0-.472-1.329c.417.024.8.032,1.1.032a9.291,9.291,0,0,0,4.037-.689Zm0-4.2c0,.011,0,.023,0,.032v.014c-.026.5-1.827.906-4.037.906s-4.012-.405-4.037-.906a.254.254,0,0,0,0-.028v-1.064a12.176,12.176,0,0,0,8.075,0ZM688.3,480.41c2.292,0,3.712.425,3.952.691-.24.266-1.66.691-3.952.691s-3.712-.425-3.952-.691C684.586,480.836,686.007,480.41,688.3,480.41Zm0,2.04a11.092,11.092,0,0,0,4.037-.646V483c0,.011,0,.023,0,.032v.015c-.026.5-1.827.906-4.037.906s-4.012-.405-4.037-.906a.263.263,0,0,0,0-.029V481.8A11.1,11.1,0,0,0,688.3,482.451Zm0,4.2a11.1,11.1,0,0,0,4.037-.646v1.2c0,.012,0,.023,0,.032v.015c-.026.5-1.827.905-4.037.905-.531,0-1.036-.024-1.5-.066a4.471,4.471,0,0,0-2.537-1.608v-.477A11.109,11.109,0,0,0,688.3,486.655Zm-1.124,4.185a3.891,3.891,0,1,1-3.891-3.891A3.9,3.9,0,0,1,687.175,490.84Z" transform="translate(0)" fill="#fba303"/>
    <path id="Path_1087" data-name="Path 1087" d="M681.468,497.448a3.007,3.007,0,1,0,3.006-3.007A3.01,3.01,0,0,0,681.468,497.448Zm5.632,0a2.626,2.626,0,1,1-2.626-2.626A2.629,2.629,0,0,1,687.1,497.448Z" transform="translate(-1.191 -6.609)" fill="#fba303"/>
    <path id="Path_1088" data-name="Path 1088" d="M685.674,496.3v.322a1.071,1.071,0,0,0-.4.264.964.964,0,0,0-.26.667.933.933,0,0,0,.075.374,1,1,0,0,0,.348.41,2.265,2.265,0,0,0,.487.25.8.8,0,0,1,.268.152.145.145,0,0,1,.032.045.107.107,0,0,1,.008.047.1.1,0,0,1-.037.083.3.3,0,0,1-.189.053.815.815,0,0,1-.466-.139l-.113-.075a.191.191,0,0,0-.285.095l-.178.5a.19.19,0,0,0,.069.219l.065.047a1.29,1.29,0,0,0,.386.178c.053.015.106.028.16.039v.283a.191.191,0,0,0,.191.19h.487a.191.191,0,0,0,.191-.19v-.335a1.087,1.087,0,0,0,.442-.3,1.012,1.012,0,0,0,.25-.669,1.06,1.06,0,0,0-.06-.364.99.99,0,0,0-.314-.435,1.819,1.819,0,0,0-.479-.273l-.02-.008a1.246,1.246,0,0,1-.322-.168.091.091,0,0,1-.024-.028.069.069,0,0,1,0-.025.058.058,0,0,1,.015-.042.232.232,0,0,1,.152-.039.77.77,0,0,1,.252.04.824.824,0,0,1,.152.07l.107.062a.191.191,0,0,0,.273-.1l.185-.489a.191.191,0,0,0-.082-.232l-.077-.045a1.379,1.379,0,0,0-.423-.16V496.3a.191.191,0,0,0-.19-.19h-.483A.191.191,0,0,0,685.674,496.3Zm.381.463V496.5h.1v.241a.19.19,0,0,0,.172.19,1.093,1.093,0,0,1,.376.1l-.049.129a1.1,1.1,0,0,0-.133-.054,1.167,1.167,0,0,0-.375-.059.58.58,0,0,0-.416.146.435.435,0,0,0-.131.315.42.42,0,0,0,.039.188.459.459,0,0,0,.117.151,1.6,1.6,0,0,0,.439.239h0a1.48,1.48,0,0,1,.392.219.62.62,0,0,1,.2.27.694.694,0,0,1,.037.235.631.631,0,0,1-.156.418h0a.743.743,0,0,1-.391.227.191.191,0,0,0-.145.185v.285h-.107v-.258a.19.19,0,0,0-.174-.19,1.337,1.337,0,0,1-.26-.049,1.02,1.02,0,0,1-.218-.089l.047-.133a1.273,1.273,0,0,0,.583.147.644.644,0,0,0,.437-.141.482.482,0,0,0,.173-.373.492.492,0,0,0-.039-.2.523.523,0,0,0-.112-.163,1.166,1.166,0,0,0-.4-.239,1.9,1.9,0,0,1-.407-.206.627.627,0,0,1-.219-.252.551.551,0,0,1-.043-.221.583.583,0,0,1,.157-.406.72.72,0,0,1,.359-.2A.191.191,0,0,0,686.056,496.767Z" transform="translate(-2.759 -7.361)" fill="#fba303"/>
  </g>
</svg>
