<svg xmlns="http://www.w3.org/2000/svg" width="27.5" height="27.5" viewBox="0 0 27.5 27.5">
  <g id="Group_7741" data-name="Group 7741" transform="translate(-1486.488 -7330.546)">
    <g id="Group_7737" data-name="Group 7737" transform="translate(22313.176 9605.021)" opacity="0.8">
      <path id="Stroke_4" data-name="Stroke 4" d="M.5,13.5C.5,3.376,3.376.5,13.5.5s13,2.876,13,13-2.876,13-13,13S.5,23.624.5,13.5Z" transform="translate(-20826.438 -2274.226)" fill="#61db44" stroke="#61db44" stroke-linecap="round" stroke-linejoin="round" stroke-miterlimit="10" stroke-width="1.5"/>
    </g>
    <path id="icons8_stack_of_money" d="M4,5v9.448H20.2V5ZM6.64,6.35H17.556a1.009,1.009,0,0,0,1.29,1.29v4.168a1.009,1.009,0,0,0-1.29,1.29H6.64a1.009,1.009,0,0,0-1.29-1.29V7.64A1.009,1.009,0,0,0,6.64,6.35ZM12.1,7.7a2.025,2.025,0,1,0,2.025,2.025A2.035,2.035,0,0,0,12.1,7.7ZM8.049,9.049a.675.675,0,1,0,.675.675A.675.675,0,0,0,8.049,9.049Zm4.049,0a.675.675,0,1,1-.675.675A.665.665,0,0,1,12.1,9.049Zm4.049,0a.675.675,0,1,0,.675.675A.675.675,0,0,0,16.147,9.049ZM4,15.8v1.35H20.2V15.8Zm0,2.7v1.35H20.2V18.5Z" transform="translate(1488.14 7331.873)" fill="#fff"/>
  </g>
</svg>
