<svg xmlns="http://www.w3.org/2000/svg" width="27.5" height="27.5" viewBox="0 0 27.5 27.5">
  <g id="Group_4388" data-name="Group 4388" transform="translate(-189.25 -6.024)">
    <g id="Group_826" data-name="Group 826" transform="translate(-142.5 -306.226)">
      <path id="Stroke_4" data-name="Stroke 4" d="M.5,13.5C.5,3.376,3.376.5,13.5.5s13,2.876,13,13-2.876,13-13,13S.5,23.624.5,13.5Z" transform="translate(332 312.5)" fill="#44e65f" stroke="#44e65f" stroke-linecap="round" stroke-linejoin="round" stroke-miterlimit="10" stroke-width="1.5"/>
    </g>
    <path id="Icon_ionic-ios-send" data-name="Icon ionic-ios-send" d="M20.72,4.54,4.71,11.518a.367.367,0,0,0,.013.667l4.331,2.447a.7.7,0,0,0,.8-.079l8.539-7.362c.057-.048.192-.14.244-.087s-.031.188-.079.244L11.169,15.67a.7.7,0,0,0-.07.833l2.83,4.54a.368.368,0,0,0,.663-.009l6.62-16.01A.367.367,0,0,0,20.72,4.54Z" transform="translate(189.695 7.609)" fill="#fff"/>
  </g>
</svg>
