<svg xmlns="http://www.w3.org/2000/svg" width="81" height="86" viewBox="0 0 81 86">
  <g id="Group_2531" data-name="Group 2531" transform="translate(-771 -622)">
    <g id="Rectangle_486" data-name="Rectangle 486" transform="translate(771 622)" fill="none" stroke="#acacac" stroke-width="1">
      <rect width="81" height="86" rx="12" stroke="none"/>
      <rect x="0.5" y="0.5" width="80" height="85" rx="11.5" fill="none"/>
    </g>
    <g id="Group_2530" data-name="Group 2530" transform="translate(221.209 666.576)">
      <path id="Path_4346" data-name="Path 4346" d="M585.836-37.5A21.4,21.4,0,0,1,590.4-38a22.709,22.709,0,0,1,3.772.434,26.864,26.864,0,0,1,3.043.8,22.66,22.66,0,0,1,2.645,1.12,23.592,23.592,0,0,1,3.854,2.57,19.514,19.514,0,0,1,3.474,3.686,20.307,20.307,0,0,1,1.565,2.418,19.367,19.367,0,0,1,1.939,5.174,20.971,20.971,0,0,1,.614,5.119,21.666,21.666,0,0,1-.586,4.249A19.493,19.493,0,0,1,609.1-7.793a22.274,22.274,0,0,1-2.747,4.146,4,4,0,0,1,.8.655,3.719,3.719,0,0,1,.818,1.5c.035.24.168.482.1.727a3.31,3.31,0,0,1-.216.74c-.972,1.795-1.774,3.672-2.659,5.509a9.338,9.338,0,0,1-1.274,2.066,3.931,3.931,0,0,1-.77.609,11.7,11.7,0,0,1-3.05.955,4.054,4.054,0,0,1-1.663.05,5.35,5.35,0,0,1-1.857-.627,3.533,3.533,0,0,1-.807-.678,4.156,4.156,0,0,1-.522-.813,15.17,15.17,0,0,0-1.779-.572,13.565,13.565,0,0,0-5.609,0,16.094,16.094,0,0,0-2.151.717,7.981,7.981,0,0,1-.525.763,3.841,3.841,0,0,1-.895.758,2.538,2.538,0,0,1-.941.384,4.718,4.718,0,0,1-1.776.22,15.422,15.422,0,0,1-2.414-.538,3.9,3.9,0,0,1-1.146-.5,6.416,6.416,0,0,1-.849-.7,11.055,11.055,0,0,1-1.072-1.737q-1.5-2.69-3.007-5.38a4.446,4.446,0,0,1-.2-.734,1.126,1.126,0,0,1,.048-.589,5.427,5.427,0,0,1,.257-.9,4.679,4.679,0,0,1,.578-.9,2.4,2.4,0,0,1,.6-.524,21.834,21.834,0,0,1-1.562-1.99,19.291,19.291,0,0,1-3.164-7.05,19.485,19.485,0,0,1-.583-3.773,15.6,15.6,0,0,1,.1-3.242,24.035,24.035,0,0,1,.647-3.3,19.2,19.2,0,0,1,2.215-5.216,22.465,22.465,0,0,1,3.091-3.966,22.268,22.268,0,0,1,3.454-2.8,19.654,19.654,0,0,1,5.161-2.443c.7-.216,1.41-.376,2.12-.541Zm2.662.432a21.474,21.474,0,0,0-4.3.827,19.6,19.6,0,0,0-5.168,2.41,20.749,20.749,0,0,0-3.676,3.059,21.122,21.122,0,0,0-2.851,3.829,19.237,19.237,0,0,0-2.092,5.332,19.047,19.047,0,0,0-.472,2.861,13.618,13.618,0,0,0-.05,2.719,20.411,20.411,0,0,0,.793,4.592A20,20,0,0,0,575.8-2.886a2.153,2.153,0,0,0-.989.408A2.871,2.871,0,0,0,573.7-.448a1.484,1.484,0,0,0,.217.684q1.712,3.06,3.422,6.122a2.579,2.579,0,0,0,.586.792,4.151,4.151,0,0,0,.785.584,11.606,11.606,0,0,0,3.045.767,4.874,4.874,0,0,0,1.522-.229,2.985,2.985,0,0,0,1.764-1.622c.034-.129.175-.151.278-.2a14.614,14.614,0,0,1,3.071-.912,13.539,13.539,0,0,1,5.413.173,15.894,15.894,0,0,1,2.128.71,2.487,2.487,0,0,0,1.467,1.61,6.289,6.289,0,0,0,1.13.314,3.833,3.833,0,0,0,1.42-.042,10.546,10.546,0,0,0,2.723-.835,2.347,2.347,0,0,0,.8-.686,8.9,8.9,0,0,0,.942-1.6c.824-1.707,1.575-3.448,2.452-5.129a2.544,2.544,0,0,0,.392-.974,2.509,2.509,0,0,0-.221-.737,2.728,2.728,0,0,0-1.311-1.363,3.736,3.736,0,0,0-.89-.192,19.388,19.388,0,0,0,1.914-2.312,19.359,19.359,0,0,0,2.316-4.248A21.431,21.431,0,0,0,610.25-14.3c.117-.737.153-1.482.218-2.224a20.848,20.848,0,0,0-.555-5.029A19.233,19.233,0,0,0,608-26.6a10.145,10.145,0,0,0-.567-.965,20.521,20.521,0,0,0-3.6-4.3,21.149,21.149,0,0,0-3.872-2.758,7.758,7.758,0,0,0-.943-.484,20.43,20.43,0,0,0-5.5-1.743,24.926,24.926,0,0,0-3.011-.309,19.958,19.958,0,0,0-2.014.089Z" transform="translate(0)" fill="#707070" fill-rule="evenodd"/>
      <path id="Path_4347" data-name="Path 4347" d="M613.755-8.536a22.672,22.672,0,0,1,3.737-.411c.585-.016,1.168.046,1.751.084A19.615,19.615,0,0,1,634.656.855a19.04,19.04,0,0,1,1.865,4.429,20.432,20.432,0,0,1,.725,5.571,24.771,24.771,0,0,1-.3,2.813,19.176,19.176,0,0,1-4.035,8.852A19.759,19.759,0,0,1,629,26.181a8.158,8.158,0,0,0-.707.509,7.267,7.267,0,0,0,1.534-.277c.431-.115.856-.25,1.279-.395.128-.252.245-.511.377-.761.031-.077.12-.093.188-.123a1.68,1.68,0,0,1,1.367.035,2.148,2.148,0,0,1,.928,1.139c.041.116.115.248.036.366-.887,1.641-1.643,3.349-2.436,5.037-.263.545-.511,1.1-.824,1.616a2.407,2.407,0,0,1-.892.968,9.044,9.044,0,0,1-2.964.829,3.327,3.327,0,0,1-1.633-.266,1.786,1.786,0,0,1-1.11-1.16c-.046-.135-.034-.336-.2-.383a15.052,15.052,0,0,0-4.746-1.188,14.83,14.83,0,0,0-7.155,1.344,2.912,2.912,0,0,1-.68,1.107,2.826,2.826,0,0,1-1.925.674,9.217,9.217,0,0,1-2.82-.668,2.714,2.714,0,0,1-.714-.523,2.243,2.243,0,0,1-.455-.665q-1.537-2.755-3.078-5.508a6.412,6.412,0,0,1-.42-.8,2.079,2.079,0,0,1,.36-1.025,1.635,1.635,0,0,1,1.288-.773,1.874,1.874,0,0,1,.737.141c.072.229.147.457.229.683.657.231,1.315.458,1.971.691a3.451,3.451,0,0,0,.468.15,1.14,1.14,0,0,0,.3-.127,19.768,19.768,0,0,1-6.567-6.741,19.041,19.041,0,0,1-2.572-8.275c-.013-.253-.032-.505-.06-.757a16.455,16.455,0,0,1,.08-2.235A19.11,19.11,0,0,1,601.4-.3a19.637,19.637,0,0,1,12.352-8.232ZM615-8.111A19,19,0,0,0,601.508.7a18.492,18.492,0,0,0-2.735,8.666c0,.548-.074,1.095-.02,1.642A18.36,18.36,0,0,0,600.07,17.3a18.878,18.878,0,0,0,6.055,7.941c.582.456,1.21.845,1.828,1.25.082-.027.163-.053.245-.078,0-.046-.008-.091-.012-.135a14.742,14.742,0,0,1-1.61-1.064,18.791,18.791,0,0,1-3.841-3.848,18.184,18.184,0,0,1-3.578-10.144,8.217,8.217,0,0,1,0-1.225,18,18,0,0,1,1.818-7.448A18.609,18.609,0,0,1,616.695-7.868a12.569,12.569,0,0,1,1.482-.016,18.178,18.178,0,0,1,5.313.906,18.663,18.663,0,0,1,10.715,9.065,18.226,18.226,0,0,1,1.647,12.293,18.007,18.007,0,0,1-1.775,4.785,18.65,18.65,0,0,1-6.471,6.894l.178.173a18.949,18.949,0,0,0,3.3-2.631,18.761,18.761,0,0,0,4.785-8.059,18.994,18.994,0,0,0,.724-5.218c-.038-.637-.032-1.277-.116-1.911A18.554,18.554,0,0,0,633.5.193a19,19,0,0,0-18.5-8.3Zm-2.534,1.051A18.519,18.519,0,0,0,604.319-2.1a18.12,18.12,0,0,0-2.776,21.477,18.612,18.612,0,0,0,6.716,6.864.794.794,0,0,0,.329.079c.013-.119.094-.26.011-.368a1.166,1.166,0,0,0-.49-.311,4.733,4.733,0,0,1-.963-.618c-.521-.387-1.053-.756-1.58-1.134.033-.1.061-.2.084-.3a9.052,9.052,0,0,1-1.061-.682,2.754,2.754,0,0,1-.83-1.187,1.657,1.657,0,0,0-.419-.539c-.354-.357-.735-.688-1.059-1.075a.981.981,0,0,1,.331-.146c.133-.032.289-.016.389-.13a4.857,4.857,0,0,1-1.1-1.235,25.6,25.6,0,0,1-1.3-2.79c-.108-.231-.243-.448-.343-.682.2-.015.408-.011.612-.006-.132-.267-.331-.495-.461-.762a7.074,7.074,0,0,1-.367-1.278,17.538,17.538,0,0,1-.163-3.373l.215.071a10.6,10.6,0,0,0,.011-1.788,1.86,1.86,0,0,1,.04-.649c.2-.651.45-1.285.613-1.946.084-.283,0-.613.221-.844l.262.059a5.78,5.78,0,0,1,.4-1.865,6.275,6.275,0,0,1,1.041-1.5A2.327,2.327,0,0,0,602.951.8a3.656,3.656,0,0,0,.476-.018c-.006-.072-.012-.144-.018-.216.06-.038.138-.066.144-.15a3.115,3.115,0,0,1,.4-.922c.539-.832,1.364-1.432,1.887-2.277l.3.013c.1.3.192.605.295.905.24-.2.441-.433.684-.625a2.1,2.1,0,0,1,1.305-.567,1.45,1.45,0,0,1-.39,1.169c-.178.235-.443.424-.506.728a1.712,1.712,0,0,1,.92.168c-.221.207-.529.308-.7.565a14.89,14.89,0,0,1-1.74,2.02c-.186.147-.161.407-.25.607a7.925,7.925,0,0,1-.868,1.518,12.189,12.189,0,0,1-1.2,1.489c.023.08.049.16.079.239a19.368,19.368,0,0,0-.64,2.482c-.108.537-.237,1.071-.316,1.614l.174.03a6.689,6.689,0,0,0-.048,2.153,15.439,15.439,0,0,1,.113,2.446c.072.036.2.023.21.13a14.6,14.6,0,0,0,2.27,5.059c.243.353.561.65.773,1.025a5.114,5.114,0,0,0,.872,1.2,22,22,0,0,1,1.936,1.509,7.8,7.8,0,0,1,1.548,2.168c.649-.12,1.249-.417,1.891-.569a24.433,24.433,0,0,1,5.305-.66,26.821,26.821,0,0,1,5.909.635,23.111,23.111,0,0,1,1.576-1.808,1.46,1.46,0,0,0,.689-.227,1.754,1.754,0,0,0,.474-.641,1.8,1.8,0,0,0,.417.065c.356-.218.493-.649.8-.923a1.228,1.228,0,0,1,.557-.289c.075-.606.62-1.019.688-1.626l.238.01c0,.038.013.113.018.151l.1.082a2.344,2.344,0,0,0,.57-1.1c.082-.036.216-.018.236-.13a8.076,8.076,0,0,0,.52-1.542,1.2,1.2,0,0,0,.319-.374,7.648,7.648,0,0,0,.481-1.312,18.724,18.724,0,0,0,.6-2.976l.18-.021a6.226,6.226,0,0,0-.151-1.223q.125-.028.251-.053a8.609,8.609,0,0,1-.1-1.788,8,8,0,0,0-.538-2.262l.2-.072a1.511,1.511,0,0,0-.49-.938l.3-.079a18.93,18.93,0,0,0-1.481-2.678c.038-.077.077-.153.116-.229a5.712,5.712,0,0,1-1-1.069l.111-.146A6.062,6.062,0,0,0,628.056.291a.855.855,0,0,0-.153-.435,3.658,3.658,0,0,0-.626-.455c-.005-.117.034-.252-.05-.35a3.111,3.111,0,0,0-1.1-.827l.08-.116a2.22,2.22,0,0,0-1.006-.6c0-.05,0-.1,0-.149.16-.1.319-.207.472-.32-.119-.449-.587-.7-.679-1.158a4.479,4.479,0,0,1,1.189.2,7.081,7.081,0,0,1-.109-.754,3.61,3.61,0,0,1,1.167.632c.075-.12.143-.246.208-.372a1.835,1.835,0,0,1,.372.267,22.689,22.689,0,0,1,1.54,1.7c.094.143.277.1.422.107a1.84,1.84,0,0,0,1.038,1.127,9.031,9.031,0,0,0,.7,1.346c.1.021.2.04.3.059.146.487.276,1.095.8,1.31a4.391,4.391,0,0,0,.506,1.4l.3.018a8.759,8.759,0,0,1,.419,1.305l.281.018a7.771,7.771,0,0,0,.14,1.579l.228.02c.062.538.1,1.078.145,1.619l.246.013c0,.556,0,1.112,0,1.668l.279.047c-.049.615-.152,1.224-.2,1.838l.207.047c-.1.519-.24,1.03-.306,1.555l.142.055c-.049.2-.119.4-.188.6-.136.394-.225.8-.325,1.206l.2.066a4.683,4.683,0,0,1-.6,1.438c-.147.2-.046.472-.131.7a9.317,9.317,0,0,1-1.007,1.869,5.594,5.594,0,0,0-.723,1.355l.128.089a21.892,21.892,0,0,1-2.211,2.6c-.088.071-.006.179,0,.267a3.075,3.075,0,0,1-1.29.951c.039.1.086.19.123.289-.355.253-.771.407-1.125.66a1.117,1.117,0,0,0-.057.405,6.564,6.564,0,0,1-1,.581,1.166,1.166,0,0,0,.191.184c.188.014.387-.064.557.052a18.448,18.448,0,0,0,5.229-4.9,18.135,18.135,0,0,0,2.667-15.73,18.344,18.344,0,0,0-5.432-8.506,18.534,18.534,0,0,0-17.54-3.915Zm13.881,2.616a.864.864,0,0,0,.378.818c.054-.076.023-.27.144-.264a3.741,3.741,0,0,0,.424.455,1.182,1.182,0,0,0-.946-1.009Zm-1.086.5a1.764,1.764,0,0,0,.9.969c.079.052.174.02.261.018-.236-.257-.545-.431-.788-.681a3.8,3.8,0,0,1,.945.312.573.573,0,0,0,.29.029,2,2,0,0,0-1.613-.648Zm2.266-.017a2.3,2.3,0,0,0,.2.915c.026.082.11.117.174.165-.04-.2-.1-.4-.125-.6.191.181.3.459.556.561a.84.84,0,0,0-.048-.365,1.781,1.781,0,0,0-.759-.675Zm-.749.912c-.02.587.5,1,.965,1.257a7.63,7.63,0,0,0-.488-.952,1.372,1.372,0,0,0,.764.256,1.1,1.1,0,0,0-.616-.5,3.009,3.009,0,0,0-.625-.059Zm1.836.177c-.011.3-.024.61-.016.916l.231.03c-.006-.17-.011-.339-.01-.509.24.163.328.482.594.608a2.36,2.36,0,0,0-.649-1.052l-.151.008Zm-3.02.188c0,.076,0,.152,0,.229.192.1.353.331.594.293a1.569,1.569,0,0,0,.306-.066,4.036,4.036,0,0,0-.5-.232c.178-.067.361-.12.541-.184a.807.807,0,0,0-.938-.04Zm-18.509.617c.23-.1.451-.22.688-.3-.107.288-.3.533-.415.816a1.56,1.56,0,0,0,.842-1.2c-.41.144-.914.251-1.115.685Zm-1.5,0a13.348,13.348,0,0,0-1.51,1.773,2.58,2.58,0,0,0-.343.82l.1.009c.025-.112.049-.224.075-.336l.279.025q.345-.411.7-.813a4.376,4.376,0,0,1,1.272-.983,1.37,1.37,0,0,0-.181-.88,1.543,1.543,0,0,0-.393.383Zm20.985.127c-.013.046-.04.138-.054.184a3.525,3.525,0,0,0,1.122.8.64.64,0,0,0,.516-.047,5.015,5.015,0,0,0-.915-.548c.161-.024.324-.044.483-.083a1.624,1.624,0,0,0-.587-.329,1.348,1.348,0,0,0-.564.023Zm1.521.009a3.631,3.631,0,0,0,.238.554c.091.18.214.375.44.386a2.47,2.47,0,0,0-.339-.535c.248.149.458.351.695.518a.7.7,0,0,0,.341.1.712.712,0,0,0-.252-.506,2.538,2.538,0,0,0-1.122-.519Zm1.552.99c.036.1.156.128.238.182a3.81,3.81,0,0,0-.091-.543l.187.01a2.843,2.843,0,0,0,.481.813,1.877,1.877,0,0,0-.429-1.165.879.879,0,0,0-.351-.261,1.7,1.7,0,0,0-.036.964Zm-23.965-.076a6.5,6.5,0,0,0-1.252,1.4,1.723,1.723,0,0,0-.237.588,1.985,1.985,0,0,0,.5-.263c.512-.4.784-1.02,1.3-1.414.078-.068.19-.038.285-.05a10.884,10.884,0,0,1-.79.871,3.041,3.041,0,0,0-.9,1.514,2.956,2.956,0,0,0,.808-.492,9.646,9.646,0,0,0,.684-.8,3.106,3.106,0,0,0,.727-1.219,2.652,2.652,0,0,0,.2-.853,2.721,2.721,0,0,0-1.329.719Zm1.425.091c-.177.33-.381.646-.582.962a3.725,3.725,0,0,0-.555,1.145,1.821,1.821,0,0,0,.271-.2,17.278,17.278,0,0,0,1.411-1.61,1.107,1.107,0,0,0,.176-.3,4.044,4.044,0,0,0-.721,0Zm20.5.233a1.361,1.361,0,0,0,.865.728c.118.051.224-.026.316-.092a3.22,3.22,0,0,0-.7-.394c.243-.013.487,0,.731.006a2.514,2.514,0,0,0-.3-.359c-.308.024-.613.076-.92.11Zm1.591.007a2.253,2.253,0,0,0,.659,1.21c.108-.322-.2-.557-.314-.824a1.441,1.441,0,0,1,.635.521h.182a1.629,1.629,0,0,0-.39-.583,1.98,1.98,0,0,0-.772-.324Zm1.54.036a4.243,4.243,0,0,0,.021.812l.159-.042c.211.131.256.4.416.581a.581.581,0,0,0,.029-.31,2.914,2.914,0,0,0-.425-.927c-.036-.079-.13-.084-.2-.114ZM628.577.3a2.685,2.685,0,0,0,1.139,1.147c.113.093.264.06.4.058-.255-.268-.6-.418-.877-.665a2.133,2.133,0,0,1,.8.288c.006-.1.083-.231-.011-.313A2.021,2.021,0,0,0,628.577.3ZM630.314.6a1.821,1.821,0,0,0,.333.866.475.475,0,0,0,.187.119,4.5,4.5,0,0,0-.272-.619c.239.125.37.4.646.463-.019-.474-.475-.746-.893-.828Zm1.306.1a1.54,1.54,0,0,0,.045,1.209,2.488,2.488,0,0,0,.1-.418l.13,0a.68.68,0,0,0,.2.424,1.286,1.286,0,0,0-.478-1.217Zm-29.4,1.4a6.881,6.881,0,0,0-.721,2.156l.353-.024a21.66,21.66,0,0,1,1.164-2.182,2.094,2.094,0,0,0,.179-1.022,2.132,2.132,0,0,0-.974,1.072Zm1.694-.531a8.234,8.234,0,0,0-1.509,1.888,1.986,1.986,0,0,0-.342,1.242c.026.082.03.213.142.216.557-.805.8-1.783,1.342-2.6a.771.771,0,0,1,.159-.158,1.422,1.422,0,0,1-.215,1,7.531,7.531,0,0,0-.823,1.649,1.941,1.941,0,0,0,.045.578,1.939,1.939,0,0,0,.642-.821,13.266,13.266,0,0,0,.939-2.51,3.826,3.826,0,0,0,.15-.864,2.174,2.174,0,0,0-.529.377Zm25.808.111a2.2,2.2,0,0,0,.776.932.5.5,0,0,0,.347.088c-.223-.268-.532-.444-.755-.711.322.077.54.385.887.4a.5.5,0,0,0-.179-.448,1.993,1.993,0,0,0-1.076-.261Zm1.471.09a2.184,2.184,0,0,0,.336,1.235.7.7,0,0,0,.183.18,1.719,1.719,0,0,0-.247-.869c.3.059.352.469.631.545a1.974,1.974,0,0,0-.9-1.091Zm1.212.253a7.07,7.07,0,0,0-.006,1.417l.183.074q-.009-.261-.017-.522h.195c.021.179.04.359.077.535a.571.571,0,0,0,.065-.212,2.919,2.919,0,0,0-.3-1.007.888.888,0,0,0-.2-.286Zm-27.837.255c-.255.259-.185.663-.354.966a3.234,3.234,0,0,0-.5,1.246l.251.081a11.623,11.623,0,0,0,1.415-2.5,1.774,1.774,0,0,0-.812.209Zm25.993.7a1.537,1.537,0,0,0,.625.906,1.235,1.235,0,0,0,.664.316c-.118-.338-.452-.512-.679-.765.177.018.353.05.531.068a1.526,1.526,0,0,0-.494-.443,1.128,1.128,0,0,0-.647-.082Zm1.527.422a2.279,2.279,0,0,0,.308,1.259,2.521,2.521,0,0,0-.093-.864l.165-.132a1.594,1.594,0,0,0-.381-.263Zm1.106-.017a3.187,3.187,0,0,0-.076,1.1c.1-.075.2-.149.3-.22,0,.178.007.356.017.535l.15-.086a2.419,2.419,0,0,0-.22-1.305l-.17-.022Zm-.715.455c.015.093.032.187.05.281l.224-.057c-.089-.078-.18-.153-.275-.224Zm-1.117.445A1.94,1.94,0,0,0,632.423,5.7c.021-.443-.419-.666-.67-.963a2.854,2.854,0,0,1,.424.168l.106-.05c-.123-.183-.225-.408-.437-.5a4.027,4.027,0,0,0-.477-.064Zm-30.282.572c-.123,1.046-.585,2.011-.765,3.045a2.854,2.854,0,0,0,.24,1.892c.067-.621.01-1.246.032-1.869a1.3,1.3,0,0,1,.187-.528,5.654,5.654,0,0,0,.675-1.9.586.586,0,0,0-.37-.636Zm32.454,1.045.2-.077a2.208,2.208,0,0,0,.205.252,2.682,2.682,0,0,0-.139-1.173,1.4,1.4,0,0,0-.269,1ZM632.716,5a4.177,4.177,0,0,0,.089,1.322l.187-.006c-.018-.274-.057-.545-.073-.819l.221-.09A.589.589,0,0,0,632.716,5Zm-31.107.942a5,5,0,0,0-.642,1.838,6.169,6.169,0,0,0-.025,2.139l.2-.079a13.54,13.54,0,0,1,.65-3.333c.005-.109.121-.122.2-.164a5.289,5.289,0,0,1-.185,1.517,7.952,7.952,0,0,0-.242,1.952c.347-.126.48-.508.589-.827a10.558,10.558,0,0,0,.3-2.538c.03-.423.032-.848.037-1.272a1.748,1.748,0,0,0-.884.767Zm30.178-.2c.043.1.063.234.161.3a2.183,2.183,0,0,0,.573.259c-.028-.183-.042-.4-.209-.52a1.368,1.368,0,0,0-.526-.044Zm1.355.041a.737.737,0,0,0,.2.457,3.97,3.97,0,0,0-.052-.453l-.143,0Zm-30.177.141c-.094.062-.223.123-.215.256-.072.7-.161,1.389-.239,2.083a6.955,6.955,0,0,0-.076,1.034.568.568,0,0,0,.213-.238,8.136,8.136,0,0,0,.373-1.342q.2-.971.355-1.953a1.688,1.688,0,0,0-.412.16Zm29.152.512a1.782,1.782,0,0,0,.083.207c.046.111.187.074.282.094-.069-.094-.141-.185-.212-.276l-.153-.025Zm1.788,1.072c.065-.084.127-.17.19-.256l.161.029a3.149,3.149,0,0,0,.018.43.311.311,0,0,0,.081-.2,3.858,3.858,0,0,0-.092-1.139,1.308,1.308,0,0,0-.36,1.134Zm-1.832-.6a2.434,2.434,0,0,0,.33,1.1l.195-.017a3.379,3.379,0,0,0-.306-.612h.208a3.1,3.1,0,0,0,.21.308c.121-.039.146-.165.179-.272a1.748,1.748,0,0,0-.816-.506ZM633.1,8.4c.049-.048.12-.085.126-.161a4.718,4.718,0,0,0,.062-.934l.139.063c.111.231.171.483.261.722l.129-.02a.611.611,0,0,0,.012-.239,1.912,1.912,0,0,0-.619-.955A2.765,2.765,0,0,0,633.1,8.4Zm.924.739.18.071c.018-.052.036-.1.055-.155l.171.054c0,.139,0,.278,0,.418a2.3,2.3,0,0,0,.209-1.475,1.248,1.248,0,0,0-.616,1.088Zm-.733.61a1.1,1.1,0,0,0,.285-.7c.07-.023.139-.046.21-.067-.044-.251-.091-.545-.35-.668-.062.477-.115.956-.145,1.437Zm-.856-1.339a1.319,1.319,0,0,0,.049.432,1.812,1.812,0,0,1,.535.24c0-.093,0-.186,0-.278a2.616,2.616,0,0,0-.583-.394Zm.073.509c.053.21.089.471.3.587a.53.53,0,0,0-.3-.587Zm-.025.675a9.932,9.932,0,0,0,.122.994.634.634,0,0,0,.1.255,2.123,2.123,0,0,0,.014-.665c.208.037.242.272.355.415l.139-.15a1.077,1.077,0,0,0-.734-.849Zm1.714.676a.461.461,0,0,0-.034.517c.074-.111.139-.228.2-.345l.214-.024a5.019,5.019,0,0,0-.06.71,1.9,1.9,0,0,0,.209-1.4,1.563,1.563,0,0,0-.533.543ZM600.065,10c-.018.655.022,1.309.048,1.964a6.75,6.75,0,0,0,.659,2.619l.125.014c-.075-.327-.152-.653-.2-.985a8,8,0,0,1,.08-2.559.688.688,0,0,0,0-.358c-.125-.315-.333-.668-.709-.7Zm1.245.031a11.381,11.381,0,0,0-.47,2.727,4.938,4.938,0,0,0,.519,2.085c.019.086.115.085.18.115.235-1.192-.246-2.369-.221-3.563h.16c.091.806.053,1.621.156,2.426a1.79,1.79,0,0,0,.235.677,1.2,1.2,0,0,0,.239-.68,7.631,7.631,0,0,0-.142-2.059,7.933,7.933,0,0,0-.467-1.72l-.19-.007Zm1.141.1a2.489,2.489,0,0,0-.294.821,4.418,4.418,0,0,0,.1,2.014c.077.214.133.472.351.589-.052.373-.1.746-.129,1.122l.14-.019a5.1,5.1,0,0,0,.224-1.372c.039-1.067-.2-2.117-.228-3.181l-.164.025Zm31.117-.05a1.723,1.723,0,0,0-.121.468l.278.143c.039.3.083.608.147.909a.565.565,0,0,0,.211-.462l-.094-.071a1.529,1.529,0,0,0-.422-.986Zm-.17.689a2.132,2.132,0,0,0-.06.589l.112-.074a3.963,3.963,0,0,0,.049-.588l-.1.073Zm-1,.218a9.681,9.681,0,0,0,.179,1.285.378.378,0,0,0,.146.222c0-.234-.039-.466-.06-.7l.188.011c.068.166.135.332.21.5.087-.111.2-.242.138-.394a1.8,1.8,0,0,0-.8-.921Zm1.574,1.439a1.078,1.078,0,0,0,.479-.584l.18.017a10.147,10.147,0,0,0-.38,1.027.9.9,0,0,0,.33-.385,3.593,3.593,0,0,0,.237-1,1.02,1.02,0,0,0-.846.93Zm-.591.1.193.075c.021.247,0,.495.026.742a.782.782,0,0,0,.213-.329,3.754,3.754,0,0,0-.075-1.148l-.184-.052a1.231,1.231,0,0,0-.173.712Zm-.948.036a2.169,2.169,0,0,0-.223,1.494l.112-.012a3.332,3.332,0,0,0-.049-.756l.25-.046a2.133,2.133,0,0,0,.182.677.789.789,0,0,0,.174-.2,1.734,1.734,0,0,0-.448-1.156Zm1.323,1.176c-.078.085-.049.2-.04.3a.953.953,0,0,1,.531-.392c-.055.293-.168.573-.214.868a3.308,3.308,0,0,0,.528-1.388c-.385-.018-.615.327-.806.607Zm-.48-.191a3.7,3.7,0,0,0-.651,1.447,2.341,2.341,0,0,0,.582-.771l.3-.007c-.039-.138-.1-.269-.131-.408a1.464,1.464,0,0,1,.1-.186l-.2-.075Zm-1.479.6a4.193,4.193,0,0,0,.182,1.55,1.21,1.21,0,0,0-.015-.9l.171,0,.171.357.155-.117a1.4,1.4,0,0,0-.277-.7.753.753,0,0,0-.387-.2Zm1.461.25c-.015.177-.035.354-.046.531.239-.094.2-.39.283-.588l-.237.057Zm-30.488.435a1.106,1.106,0,0,0,.01.574c.221.768.741,1.4,1,2.159a1.841,1.841,0,0,1,.187-.015c.167.135.187.366.293.542-.151-1.24-.949-2.285-1.172-3.508-.121.057-.271.107-.317.248Zm30.692.444c-.337-.016-.673-.008-1.01-.014a1.179,1.179,0,0,0-.356.014c.45,0,.9-.021,1.353.006a1.264,1.264,0,0,0-.263.659,3.622,3.622,0,0,0,.36-.353c.067-.075.183-.041.271-.064-.087.173-.184.341-.275.511l.1.13a.985.985,0,0,0,.251-.325,4.87,4.87,0,0,0,.355-1.071,2.088,2.088,0,0,0-.783.508Zm-31.61-.25a7.961,7.961,0,0,0,.026,1.276,4.171,4.171,0,0,0,.883,2.378,2.092,2.092,0,0,0,.656.563.6.6,0,0,0-.038-.327,11.889,11.889,0,0,1-1-2.293,2.137,2.137,0,0,1-.052-.831c.122.287.219.583.334.874.3.776.666,1.522,1,2.28l.166.026a4.226,4.226,0,0,0-.579-2.159,15.926,15.926,0,0,0-1.288-2,.251.251,0,0,0-.107.216Zm-1.2.276a4.4,4.4,0,0,0,.181.571,26.517,26.517,0,0,0,1.305,2.75l.142.022c-.316-.794-.335-1.666-.619-2.468a1.334,1.334,0,0,0-1.009-.875Zm32.083.159a2.565,2.565,0,0,0-.782,1.636,1.958,1.958,0,0,0,.351-.352.994.994,0,0,1,.168-.527l.2-.029a5.121,5.121,0,0,0-.033.651,1.848,1.848,0,0,0,.307-1.386l-.213.006Zm-1.192.159a8.32,8.32,0,0,0-.321,1.73,4.408,4.408,0,0,0,.182-.693,2.781,2.781,0,0,0,.318.053c.346-.267.17-.748.011-1.072l-.19-.019Zm1,1.953c.157-.039.313-.084.468-.133-.088.252-.22.486-.283.746a3.48,3.48,0,0,0,.893-1.613,1.568,1.568,0,0,0-1.077,1Zm-2.189.87a1.114,1.114,0,0,1,.552-.245,5.26,5.26,0,0,0,.037-.978l-.145-.048a4.114,4.114,0,0,0-.444,1.271Zm1.179-.561c-.134.2-.337.371-.342.626a.966.966,0,0,0,.346-.249c.119-.132.2-.321.39-.361,0,.159-.008.318,0,.478.052-.055.129-.094.155-.169a3.283,3.283,0,0,0,.2-.927,1.567,1.567,0,0,0-.747.6Zm.508.822a1.045,1.045,0,0,0-.459.7,1.644,1.644,0,0,1,.592-.348,3.861,3.861,0,0,0-.375.777,1.514,1.514,0,0,0,.357-.269,3.5,3.5,0,0,0,.762-1.216,1.824,1.824,0,0,0-.877.354Zm-27.3.071a2.743,2.743,0,0,0,.074.923,2.234,2.234,0,0,0,.5.816,9.494,9.494,0,0,1,.83,1.041l.137,0a1.652,1.652,0,0,1-.119-.4,2.135,2.135,0,0,1,.3.4,12.835,12.835,0,0,0-1.25-2.37,1.179,1.179,0,0,0-.471-.413Zm25.7,1.136c.18-.252.343-.55.66-.65a2.854,2.854,0,0,0-.351,1,2.11,2.11,0,0,0,.659-1.435,1.333,1.333,0,0,0-.968,1.085Zm-1.055.147.232,0q.039-.224.081-.445l.212-.029a3.859,3.859,0,0,0-.124.635c.207-.027.265-.248.32-.415a.927.927,0,0,0-.155-.841c-.184.369-.389.727-.565,1.1Zm-26.663-.957c.128.125.267.238.406.351l.143-.117a4.629,4.629,0,0,0-.549-.234Zm1.011.376a4.734,4.734,0,0,0,.715,1.963,6.694,6.694,0,0,0,1.51,1.456.574.574,0,0,0,.359.1c-.571-.728-1.189-1.419-1.754-2.152a1.416,1.416,0,0,1-.122-.242,1.281,1.281,0,0,1,.316.213c.645.629,1.117,1.413,1.779,2.027a.41.41,0,0,0,.051-.271,2.388,2.388,0,0,0-.432-.771,13.156,13.156,0,0,0-1.663-1.777,2.711,2.711,0,0,0-.76-.544Zm25.187.623a1.062,1.062,0,0,0-.158.546.706.706,0,0,1,.117.318,3.4,3.4,0,0,0,.272-.368,1.592,1.592,0,0,0,.077-.648c-.1.045-.248.041-.308.151Zm-26.341.033c.309.461.826.727,1.164,1.163.226.349.379.741.612,1.087a2.558,2.558,0,0,0,.8.786,1.324,1.324,0,0,0,.631.249c-.286-.278-.636-.484-.9-.792.3.111.474.407.767.529a1.181,1.181,0,0,0,.444.081,1.789,1.789,0,0,0-.6-.517,3.55,3.55,0,0,1-.715-.556,15.4,15.4,0,0,0-1.392-1.842.686.686,0,0,0-.816-.188ZM630.391,21a2.15,2.15,0,0,1,.679-.2c-.2.173-.457.318-.519.6.615-.221.96-.81,1.39-1.262a1.337,1.337,0,0,0-1.551.863Zm-1.1.012a.657.657,0,0,0-.2.351.985.985,0,0,0,.448-.107,1.461,1.461,0,0,0,.726-.891,4.525,4.525,0,0,0-.976.647Zm.612.016a1.535,1.535,0,0,0-.24.557,1.063,1.063,0,0,0,.417-.538l-.177-.02Zm-2.065.326a1.987,1.987,0,0,0-.758,1.355,2.378,2.378,0,0,0,.485-.733l.172-.06a5.508,5.508,0,0,0-.132.669c.065-.027.13-.052.2-.075a2.174,2.174,0,0,0,.319-1.231c-.094.022-.211,0-.283.076Zm1.694.587c0,.041-.007.125-.009.167a2.244,2.244,0,0,1,.63-.152c-.22.242-.528.416-.643.739a3.824,3.824,0,0,0,1.261-1.07,1.909,1.909,0,0,0-1.238.317Zm-1.319.327.145.1c.119-.148.246-.314.46-.3-.111.275-.292.519-.376.806a1.608,1.608,0,0,0,.9-1.2,2.414,2.414,0,0,0-1.127.588Zm-20.925-.335a1.661,1.661,0,0,0,.519,1.249,8.789,8.789,0,0,0,1.254.6c.145.094.3,0,.436-.059-.383-.4-.794-.771-1.214-1.131a3.685,3.685,0,0,0-.995-.662Zm18.563,1.586a2.164,2.164,0,0,0,.259-.357l.191-.027q.007.142.018.286a1.047,1.047,0,0,0,.382-.292,1.254,1.254,0,0,0-.1-.6.964.964,0,0,0-.752.991ZM629,22.9a6.38,6.38,0,0,1-.842.234c0,.033,0,.1,0,.134.286-.023.57-.079.856-.1a7.114,7.114,0,0,1-.82.431c.017.06.036.121.055.182a2.758,2.758,0,0,0,1.029-.4c.178-.141.4-.284.426-.531a2.148,2.148,0,0,0-.7.049Zm-2.145.444c-.091.1-.23.187-.239.333.175.061.3-.1.432-.19a1.02,1.02,0,0,1,.434-.224c-.147.283-.346.536-.489.822a.584.584,0,0,0,.375-.332,1.857,1.857,0,0,0,.407-.29,2.126,2.126,0,0,0,.068-.283,2.09,2.09,0,0,1,.172-.19.617.617,0,0,0-.447-.094,1.832,1.832,0,0,0-.713.449Zm-20.192-.291a3.494,3.494,0,0,0,1.02,1.518,4.583,4.583,0,0,0-1.707-.714c0,.047,0,.14,0,.187a27.285,27.285,0,0,0,2.324,1.519.9.9,0,0,0,.6.165,2.3,2.3,0,0,0-.341-.47c.23.143.456.294.7.418a1.024,1.024,0,0,0,.736-.037c-.031-.075-.038-.171-.119-.211a22.887,22.887,0,0,1-2.146-1.5,1.115,1.115,0,0,1,.369.149c.432.288.822.635,1.254.923a1.185,1.185,0,0,0,.911.294,6.567,6.567,0,0,0-2.356-1.924,4.3,4.3,0,0,0-1.233-.316Zm18.129,1.3a1.344,1.344,0,0,0,.2-.328.218.218,0,0,1,.244.162c.108-.056.215-.115.319-.178a2.638,2.638,0,0,0,.015-.711c-.492.073-.736.609-.777,1.054Zm2.52-.233c-.14.091-.312.159-.377.327.189-.017.4-.092.573.014a3.729,3.729,0,0,1-.448.154c0,.038-.01.113-.013.151a2.5,2.5,0,0,0,1.511-.8,1.853,1.853,0,0,0-.719-.091,1.594,1.594,0,0,0-.527.248Zm-1.915.2a1.124,1.124,0,0,0-.528.689c.356-.089.584-.42.944-.5-.1.265-.324.465-.385.747a1.064,1.064,0,0,0,.667-.291,1.827,1.827,0,0,0,.337-.854,2.714,2.714,0,0,0-1.035.206Zm-1.1.027q-.056.112-.109.226l-.161-.011c-.006.054-.011.108-.016.163l.169-.063c.105-.127.288-.157.371-.3-.085-.006-.169-.008-.253-.011Zm-10.877.8a20.067,20.067,0,0,0-5.008,1.867,10.658,10.658,0,0,0-1.555,1.006,4.03,4.03,0,0,0,.431,1.208c.762,1.579,1.662,3.087,2.536,4.605a4.135,4.135,0,0,0,.676-.377,15.449,15.449,0,0,1,5.3-1.787,16.5,16.5,0,0,1,5.99.14,10.412,10.412,0,0,1,3.792,1.613,4.075,4.075,0,0,0,.451.318c.614-.21.546-.536.784-1.052.262-.569.526-1.153.8-1.716.307-.622.63-1.235.947-1.852.11-.215.2-.44.3-.662a1.962,1.962,0,0,1,.141-.231,10.011,10.011,0,0,0-3.866-2.636,16.112,16.112,0,0,0-4.677-1.028,23.13,23.13,0,0,0-7.044.584Zm12.752-.091c0,.048,0,.143,0,.19a4.658,4.658,0,0,1,.529-.067c-.117.084-.237.164-.355.245,0,.047-.007.14-.009.187a1.54,1.54,0,0,0,1.294-.684,7.019,7.019,0,0,0-1.462.129Zm3.186,7.622c.345.053.62.291.956.369.983-2.142,1.976-4.28,2.961-6.421a.643.643,0,0,0-.155-.794,2.665,2.665,0,0,0-1.127-.321c-.871,2.392-1.774,4.772-2.634,7.168Zm-26.863-5.747a7.1,7.1,0,0,0,.354.693c.987,1.829,1.962,3.665,2.956,5.491a3.156,3.156,0,0,1,.993-.438c-.082-.239-.2-.465-.3-.695-.914-2-1.835-4-2.741-6.012a1.5,1.5,0,0,0-1.263.96Zm28-.06a4.188,4.188,0,0,0-.426.8c-1.056,2.284-2.118,4.566-3.164,6.855a1.136,1.136,0,0,0,.728.06,8.988,8.988,0,0,0,1.644-.467l.043-.146a1.494,1.494,0,0,1-.806-.723c-.077-.294.112-.561.214-.824.421-1.039.809-2.091,1.221-3.133a14.515,14.515,0,0,0,.569-1.55,6.948,6.948,0,0,0,.295-.982c-.11.022-.25,0-.318.111Zm-25.593-.055a7.738,7.738,0,0,0,.324.819c.763,1.789,1.6,3.548,2.359,5.338a.692.692,0,0,1-.119.677,1.364,1.364,0,0,1-.768.5.5.5,0,0,0,.215.18,8.171,8.171,0,0,0,1.467.456.983.983,0,0,0,.792-.222c-1.155-2.345-2.3-4.694-3.454-7.039a1.209,1.209,0,0,0-.815-.706Zm1.211,6.748c0,.105.008.21.012.316a1.588,1.588,0,0,0,.8-.243c.172-.141.159-.386.169-.586a1.437,1.437,0,0,0-.979.513Zm22.98-.474c0,.092,0,.184,0,.277a1.1,1.1,0,0,0,.414.263.963.963,0,0,0,.593-.068.8.8,0,0,0-.329-.451,1.135,1.135,0,0,0-.678-.021ZM614.518-.611c.058-.128.212-.089.32-.064a1.108,1.108,0,0,0,.322.706,1.28,1.28,0,0,0,1.716.026c.124-.107.211-.266.381-.305a1.368,1.368,0,0,0,.98.621,1.151,1.151,0,0,0,.844-.345,5.106,5.106,0,0,0,.634-.733l.2,0a1.773,1.773,0,0,1-.431,1.728,1.623,1.623,0,0,1-1.584.082c-.23-.083-.363-.376-.627-.353-.209.128-.333.361-.555.474a1.385,1.385,0,0,1-1.309-.065,1.686,1.686,0,0,1-.9-.959,1.6,1.6,0,0,1,0-.815Zm2.571,1.99c.084-.051.187-.159.279-.062.374.263.74.538,1.11.807a.379.379,0,0,1,.144.351c0,4.312-.017,8.625,0,12.937a13.636,13.636,0,0,0,3.292-4.28,8.339,8.339,0,0,0,.609-5.69,8.877,8.877,0,0,0-.728-1.649c-.412-.837-.846-1.663-1.241-2.508a10.615,10.615,0,0,1,3.194,4.541,8.861,8.861,0,0,1,.028,5.776,10.23,10.23,0,0,1-3.006,4.381,13.843,13.843,0,0,1-1.29.985,1.4,1.4,0,0,0,.881.381,15.318,15.318,0,0,0,1.959.156c.442.02.886-.017,1.325.045a6.59,6.59,0,0,1-2.917.668,22.44,22.44,0,0,1-2.266-.056c-.217.375-.441.746-.655,1.123a.174.174,0,0,1-.3.038c-.275-.387-.493-.811-.776-1.191-.258-.018-.516.051-.775.06a8.528,8.528,0,0,1-2.9-.158,8.3,8.3,0,0,1-1.323-.446,11.128,11.128,0,0,0,3.072-.127,1.73,1.73,0,0,0,.822-.353,9.559,9.559,0,0,1-2.048-1.552c-.079-.08-.15-.166-.22-.252.826-.047,1.654,0,2.481-.023-.837.005-1.674-.021-2.51.015a10.284,10.284,0,0,1-2.509-4.967,8.864,8.864,0,0,1,.633-5.453,9.059,9.059,0,0,1,2.8-3.377,12.162,12.162,0,0,0-1.768,4.964,9.687,9.687,0,0,0,1.205,5.744,13.471,13.471,0,0,0,2.676,3.318c.008-.869-.055-1.735-.061-2.6-.05-.653-.017-1.309-.071-1.962-.016-1.452-.1-2.9-.115-4.356-.079-1.473-.078-2.949-.153-4.423.359-.285.749-.529,1.117-.8Zm4.294.023a7.89,7.89,0,0,1,4.63,2.63,7.763,7.763,0,0,1,1.815,4.38A8.441,8.441,0,0,1,627.341,12a4.755,4.755,0,0,1-.573,1.186,10.112,10.112,0,0,1-1.637,1.959,5.324,5.324,0,0,1-1.473.966l-.015-.175a9.87,9.87,0,0,0,.983-10.9A10.671,10.671,0,0,0,621.382,1.4Zm-8.962.3a1.537,1.537,0,0,1,.848-.164,1.515,1.515,0,0,1-.231.249,11.716,11.716,0,0,0-2.964,3.77,9.176,9.176,0,0,0-.887,3.387,11.552,11.552,0,0,0,1.619,6.315c.175.347.484.607.637.967a5.581,5.581,0,0,1-1.934-1.315,8.791,8.791,0,0,1-1.676-2.41,5.987,5.987,0,0,1-.461-1.168,9.5,9.5,0,0,1-.221-3.028,7.591,7.591,0,0,1,1.526-3.929A8.364,8.364,0,0,1,612.42,1.7Zm4.888,25.2a15.882,15.882,0,0,0,1.872-1.628c.082,0,.164.008.246.014-.035.214-.038.489-.252.611a7.077,7.077,0,0,0-1.01.849,10.967,10.967,0,0,1-1.927,1.529,5.944,5.944,0,0,1-2.677.851c-.656.021-1.312,0-1.968,0a1.148,1.148,0,0,1-.427.653,1.529,1.529,0,0,1-.735.107.765.765,0,0,0-.373.173l-.117-.108a1.333,1.333,0,0,1,.543-.862c.221-.141.493-.059.733-.118a1.308,1.308,0,0,0,.568-.649,9.5,9.5,0,0,0,3.008-.209,8.968,8.968,0,0,0,2.516-1.211Z" transform="translate(-27.512 -27.479)" fill="#707070" fill-rule="evenodd"/>
      <path id="Path_4348" data-name="Path 4348" d="M1050.919,726.873l.171.081a.6.6,0,0,1-.3.731.53.53,0,0,1-.3-.379,2.806,2.806,0,0,1,.43-.433Z" transform="translate(-455.451 -723.51)" fill="#707070" fill-rule="evenodd"/>
      <path id="Path_4349" data-name="Path 4349" d="M1008.021,661.118c.092-.054.178.026.248.078-.082.017-.165.032-.247.046-.092.126-.189.324-.378.287-.1.007-.162-.087-.2-.167.1.02.209.044.314.065.087-.1.138-.247.265-.309Z" transform="translate(-414.732 -661.294)" fill="#707070" fill-rule="evenodd"/>
      <path id="Path_4350" data-name="Path 4350" d="M1058.338,672.9a.329.329,0,0,0,.235.443c.038.014.02.011.063-.027a.907.907,0,0,1,.26-.191c-.128.216-.443.717-.713.734-.239.015-.326-.2-.293-.407a4.891,4.891,0,0,1,.514-1.147,2.522,2.522,0,0,1,.786-1.031,8.274,8.274,0,0,0-.853,1.626Z" transform="translate(-462.446 -670.923)" fill="#707070" fill-rule="evenodd"/>
      <path id="Path_4351" data-name="Path 4351" d="M972.678,662.343a2.016,2.016,0,0,1,.661-.685,9.278,9.278,0,0,0-.925,1.7c-.029.209.034.4.265.441.056.01.064-.016.094-.057a.417.417,0,0,1,.19-.158c.046-.015.024,0-.008.048-.142.232-.575.9-.9.6-.141-.127-.079-.339-.038-.5a3.6,3.6,0,0,1,.355-.772,3.764,3.764,0,0,0-.64.32,3.325,3.325,0,0,1-2.255.037c-.073-.02-.146-.04-.219-.062-.347-.134-1.065-.321-.977-.817a2.4,2.4,0,0,1,.316-.676c.033.294,0,.4.263.6a1.8,1.8,0,0,0,.429.22l.022.009a4.468,4.468,0,0,0,2.328.37,1.519,1.519,0,0,0,1.041-.619Z" transform="translate(-377.68 -661.822)" fill="#707070" fill-rule="evenodd"/>
      <path id="Path_4352" data-name="Path 4352" d="M1062.058,639.731a.853.853,0,0,1,.182.438.648.648,0,0,1-.407.371c-.171-.037-.189-.24-.27-.365a3.612,3.612,0,0,1,.5-.445Z" transform="translate(-465.925 -641.081)" fill="#707070" fill-rule="evenodd"/>
      <path id="Path_4353" data-name="Path 4353" d="M1065,644.933c.361-.078.713-.217,1.074-.3a1.927,1.927,0,0,1-.824.46,13.326,13.326,0,0,1-1.909.386,2.96,2.96,0,0,1-.6.078,1.06,1.06,0,0,1,.53-.277c.574-.136,1.155-.2,1.728-.351Z" transform="translate(-467.038 -645.721)" fill="#707070" fill-rule="evenodd"/>
      <path id="Path_4354" data-name="Path 4354" d="M865.767,704.567a.839.839,0,0,1,.178.43.637.637,0,0,1-.4.365c-.168-.036-.185-.235-.265-.358a3.555,3.555,0,0,1,.487-.437Z" transform="translate(-280.258 -702.411)" fill="#707070" fill-rule="evenodd"/>
      <path id="Path_4355" data-name="Path 4355" d="M851.755,704.888a.84.84,0,0,1,.179.43.637.637,0,0,1-.4.365c-.168-.036-.185-.235-.266-.358a3.547,3.547,0,0,1,.487-.437Z" transform="translate(-267.004 -702.714)" fill="#707070" fill-rule="evenodd"/>
      <path id="Path_4356" data-name="Path 4356" d="M856.442,714.825a.839.839,0,0,1,.178.43.637.637,0,0,1-.4.365c-.168-.036-.185-.235-.265-.358a3.551,3.551,0,0,1,.487-.437Z" transform="translate(-271.437 -712.114)" fill="#707070" fill-rule="evenodd"/>
    </g>
    <text id="بـــانک_ســپه" data-name="بـــانک ســپه" transform="translate(781.751 684.424)" fill="#474546" font-size="11" font-family="SegoeUI, Segoe UI"><tspan x="7.727" y="12">بـــانک ســپه</tspan></text>
  </g>
</svg>
