<svg id="sharing" xmlns="http://www.w3.org/2000/svg" width="14" height="15.48" viewBox="0 0 14 15.48">
  <path id="sharing-2" data-name="sharing" d="M39,7.378a1.993,1.993,0,0,0-1.384.558L35.477,6.61a2.331,2.331,0,0,0,0-1.843l2.139-1.325a2,2,0,1,0-.4-.537L35.128,4.2a2.333,2.333,0,1,0,0,2.979l2.089,1.294A2,2,0,1,0,39,7.378ZM39,.667A1.333,1.333,0,1,1,37.667,2,1.335,1.335,0,0,1,39,.667ZM33.333,7.356A1.667,1.667,0,1,1,35,5.689,1.669,1.669,0,0,1,33.333,7.356ZM39,10.711a1.333,1.333,0,1,1,1.333-1.333A1.335,1.335,0,0,1,39,10.711Z" transform="translate(-29 2)" fill="#474546" stroke="#474546" stroke-width="0.3"/>
</svg>
