<svg xmlns="http://www.w3.org/2000/svg" width="18.441" height="22.831" viewBox="0 0 18.441 22.831">
  <g id="Group_2945" data-name="Group 2945" transform="translate(-292.006 -932.584)">
    <path id="Path_1114" data-name="Path 1114" d="M306.436,940.608a4.024,4.024,0,1,0-3.739-2.569l-4.4,3.03a4.013,4.013,0,1,0,.188,6.454l4.088,2.813a4.01,4.01,0,1,0,1.311-2.026l-4.03-2.772a3.967,3.967,0,0,0-.077-2.56l4.428-3.05A3.992,3.992,0,0,0,306.436,940.608Zm0-7.036a3.025,3.025,0,1,1-3.025,3.024A3.028,3.028,0,0,1,306.436,933.571Zm-10.418,13.819a3.025,3.025,0,1,1,3.025-3.024A3.028,3.028,0,0,1,296.018,947.391Zm10.418.987a3.025,3.025,0,1,1-3.025,3.025A3.028,3.028,0,0,1,306.436,948.378Zm-3.234.661a3.957,3.957,0,0,0-.24.366l-3.77-2.594a4.05,4.05,0,0,0,.248-.362Zm-3.881-6.946a4.115,4.115,0,0,0-.27-.346l4.117-2.834a4.1,4.1,0,0,0,.275.343Z" fill="#272525"/>
  </g>
</svg>
