<svg xmlns="http://www.w3.org/2000/svg" width="20.217" height="26.062" viewBox="0 0 20.217 26.062">
  <g id="sibapp-seeklogo.com" transform="translate(-149.109 -38.124)">
    <path id="Path_833" data-name="Path 833" d="M490.4,41.879a5.352,5.352,0,0,0,1.868-3.736,5.8,5.8,0,0,0-3.991,1.335,5.1,5.1,0,0,0-1.879,3.609A4.786,4.786,0,0,0,490.4,41.879Z" transform="translate(-327.432)" fill="#f5f6fa"/>
    <path id="Path_834" data-name="Path 834" d="M151.84,349.756q.264.342.552.651l2.563-2.06a6.067,6.067,0,1,1,8.656-8.5l-.038-.049c-4.829-5.384-12.232-3.219-12.232-3.219C147.423,345.608,151.84,349.756,151.84,349.756Z" transform="translate(0 -289.836)" fill="#f5f6fa" stroke="#4d4c4e" stroke-miterlimit="10" stroke-width="1.2"/>
    <path id="Path_835" data-name="Path 835" d="M221.592,477.34l.574-1.118-2.632.959-.577-.475a5.978,5.978,0,0,1-5.637-10.106l-.044.041c-5.3,4.755-3.17,12.045-3.17,12.045,8.892,3.859,12.976-.494,12.976-.494.225-.173.437-.354.64-.544Z" transform="translate(-58.317 -416.706)" fill="#f5f6fa" stroke="#4d4c4e" stroke-miterlimit="10" stroke-width="1.2"/>
    <path id="Path_836" data-name="Path 836" d="M349.129,394.148c-.176-.225-.36-.442-.552-.648l-2.552,2.055a6.38,6.38,0,0,1,.525.591,6.045,6.045,0,0,1-9.15,7.878l.044.044c4.81,5.362,12.183,3.208,12.183,3.208C353.53,398.28,349.129,394.148,349.129,394.148Z" transform="translate(-182.525 -345.614)" fill="#f5f6fa" stroke="#4d4c4e" stroke-miterlimit="10" stroke-width="1.2"/>
    <path id="Path_837" data-name="Path 837" d="M310.7,279.48a11.516,11.516,0,0,1,9.177,3.3,6.265,6.265,0,0,1,.695.753,5.993,5.993,0,0,1-.6,8l.044-.041c5.31-4.769,3.175-12.075,3.175-12.075C316.089,276.335,312.046,278.483,310.7,279.48Z" transform="translate(-156.559 -233.11)" fill="#f5f6fa" stroke="#4d4c4e" stroke-miterlimit="10" stroke-width="1.2"/>
  </g>
</svg>
