<svg xmlns="http://www.w3.org/2000/svg" width="10.082" height="7.429" viewBox="0 0 10.082 7.429">
  <path id="Icon_material-view-comfy" data-name="Icon material-view-comfy" d="M4.5,9.623H6.623V7.5H4.5Zm0,2.653H6.623V10.153H4.5Zm2.653,0H9.276V10.153H7.153Zm2.653,0h2.123V10.153H9.806ZM7.153,9.623H9.276V7.5H7.153ZM9.806,7.5V9.623h2.123V7.5Zm2.653,4.776h2.123V10.153H12.46ZM4.5,14.929H6.623V12.806H4.5Zm2.653,0H9.276V12.806H7.153Zm2.653,0h2.123V12.806H9.806Zm2.653,0h2.123V12.806H12.46Zm0-7.429V9.623h2.123V7.5Z" transform="translate(-4.5 -7.5)"/>
</svg>
