<svg id="Component_275_2" data-name="Component 275 – 2" xmlns="http://www.w3.org/2000/svg" xmlns:xlink="http://www.w3.org/1999/xlink" width="23.939" height="23.939" viewBox="0 0 23.939 23.939">
  <defs>
    <clipPath id="clip-path">
      <rect id="Rectangle_517" data-name="Rectangle 517" width="9.822" height="13.525" fill="#db143d"/>
    </clipPath>
  </defs>
  <path id="Stroke_4" data-name="Stroke 4" d="M.5,12.47C.5,3.148,3.148.5,12.47.5s11.97,2.648,11.97,11.97-2.648,11.97-11.97,11.97S.5,21.791.5,12.47Z" transform="translate(-0.5 -0.5)" fill="#e4d0d4"/>
  <g id="Group_2785" data-name="Group 2785" transform="translate(7.059 5.207)">
    <g id="Group_2785-2" data-name="Group 2785" clip-path="url(#clip-path)">
      <path id="Path_5086" data-name="Path 5086" d="M9.309,3.095A1.129,1.129,0,0,0,8.182,2.028H7.351a2.482,2.482,0,0,0-4.881,0H1.639A1.129,1.129,0,0,0,.512,3.095L0,12.333a1.129,1.129,0,0,0,1.127,1.191H8.692A1.129,1.129,0,0,0,9.82,12.333Zm-.232,9.665a.524.524,0,0,1-.385.166H1.129A.529.529,0,0,1,.6,12.366l.51-9.239a.53.53,0,0,1,.529-.5h.789v.589a.613.613,0,1,0,.6,0V2.628H6.794v.589a.613.613,0,1,0,.6,0V2.628h.789a.529.529,0,0,1,.529.5l.51,9.239a.524.524,0,0,1-.144.393M4.91.6A1.887,1.887,0,0,1,6.738,2.028H3.083A1.887,1.887,0,0,1,4.91.6" transform="translate(0)" fill="#db143d"/>
    </g>
  </g>
</svg>
