<svg xmlns="http://www.w3.org/2000/svg" width="16.393" height="15.179" viewBox="0 0 16.393 15.179">
  <g id="Group_2986" data-name="Group 2986" transform="translate(-478.748 -865.303)">
    <path id="Path_1156" data-name="Path 1156" d="M505.2,868.112a.28.28,0,0,0-.05-.076l-.016-.017a.433.433,0,0,0-.422-.125.442.442,0,0,0-.318.317.744.744,0,0,1-.966.513.83.83,0,0,1-.528-.7.154.154,0,0,1,0-.054.814.814,0,0,1,.635-.679.439.439,0,0,0,.339-.293.43.43,0,0,0-.094-.427l-1.058-1.133a.439.439,0,0,0-.219-.126.3.3,0,0,0-.067-.006.435.435,0,0,0-.283.113l-1.008.918a1.257,1.257,0,0,0-.242-.371,1.292,1.292,0,0,0-1.8-.077,1.283,1.283,0,0,0,.289,2.063l-.995.928a.319.319,0,0,0-.049.058.433.433,0,0,0-.088.218.271.271,0,0,0,0,.067.429.429,0,0,0,.109.228l1.043,1.145a.429.429,0,0,0,.418.129.439.439,0,0,0,.32-.314.813.813,0,0,1,.727-.579.165.165,0,0,1,.054,0,.832.832,0,0,1,.659.583.745.745,0,0,1-.59.921.441.441,0,0,0-.342.291.431.431,0,0,0,.09.431l.015.017a.272.272,0,0,0,.072.056l1,1.07a.433.433,0,0,0,.266.135.208.208,0,0,0,.033,0l.037,0a.42.42,0,0,0,.142-.047.432.432,0,0,0,.09-.062l1.092-.995a.275.275,0,0,0,.036-.04.441.441,0,0,0,.065-.383.421.421,0,0,0-.257-.276.728.728,0,0,1-.284-.194.744.744,0,0,1,.075-1.074l.02-.018a.763.763,0,0,1,.542-.224.744.744,0,0,1,.7.536.423.423,0,0,0,.255.279.441.441,0,0,0,.387-.035.263.263,0,0,0,.043-.033l1.08-1.008a.435.435,0,0,0,.126-.218.273.273,0,0,0,.007-.072.433.433,0,0,0-.113-.277Zm-.342,2.133A1.335,1.335,0,1,0,503,871.964l-.85.775-.858-.92a1.283,1.283,0,0,0,.83-1.539,1.371,1.371,0,0,0-1.057-.972.7.7,0,0,0-.25-.012,1.365,1.365,0,0,0-1.115.8l-.832-.913.987-.921a.425.425,0,0,0,.1-.138.436.436,0,0,0,.033-.351.424.424,0,0,0-.254-.265.727.727,0,0,1-.285-.193.739.739,0,0,1,.028-1.033.749.749,0,0,1,1.039.048.733.733,0,0,1,.17.3.424.424,0,0,0,.244.274.5.5,0,0,0,.5-.091l1-.911.843.9a1.364,1.364,0,0,0-.888,1.047.7.7,0,0,0-.009.25,1.369,1.369,0,0,0,.884,1.132,1.281,1.281,0,0,0,1.6-.7l.847.93Z" transform="translate(-11.16)" fill="#fba303"/>
    <path id="Path_1157" data-name="Path 1157" d="M480.479,883.193a.436.436,0,0,0,.435.432h0l5.01-.03a.321.321,0,0,0,.039-.005.439.439,0,0,0,.171.035l1.554-.009a.247.247,0,0,0,.054-.006.439.439,0,0,0,.3-.239.428.428,0,0,0-.005-.381.812.812,0,0,1,.1-.863.156.156,0,0,1,.038-.039.926.926,0,0,1,.53-.181.747.747,0,0,1,.745.741.729.729,0,0,1-.078.335.424.424,0,0,0,0,.378.441.441,0,0,0,.308.237.242.242,0,0,0,.054.005l1.476-.009a.435.435,0,0,0,.434-.438l-.009-1.543a.43.43,0,0,0-.435-.431.443.443,0,0,0-.24.071.745.745,0,0,1-1.059-.279.833.833,0,0,1,.089-.873.151.151,0,0,1,.038-.038.929.929,0,0,1,.532-.182.741.741,0,0,1,.4.114.448.448,0,0,0,.544-.059.426.426,0,0,0,.124-.3l-.009-1.549a.437.437,0,0,0-.438-.432l-1.325.008a1.27,1.27,0,0,0,.069-.423,1.286,1.286,0,0,0-1.283-1.276,1.469,1.469,0,0,0-.829.271,1.3,1.3,0,0,0,.109-.171,1.369,1.369,0,0,0-.133-1.427.688.688,0,0,0-.177-.176,1.4,1.4,0,0,0-1.259-.2l-.008-1.326a.437.437,0,0,0-.438-.433l-1.329.008a1.375,1.375,0,0,0-.208-1.267.692.692,0,0,0-.177-.174,1.476,1.476,0,0,0-.824-.268h0a1.284,1.284,0,0,0-1.284,1.291,1.3,1.3,0,0,0,.078.433l-1.329.008a.435.435,0,0,0-.432.438l.009,1.554a.311.311,0,0,0,.006.053.437.437,0,0,0,.424.347.424.424,0,0,0,.2-.048.831.831,0,0,1,.863.1.162.162,0,0,1,.038.038.831.831,0,0,1,.1.872.746.746,0,0,1-.662.4.732.732,0,0,1-.332-.079.42.42,0,0,0-.188-.045.435.435,0,0,0-.425.352.278.278,0,0,0-.005.054l.009,1.477a.259.259,0,0,0,.028.114c0,.006,0,.013,0,.019l.008,1.27a1.375,1.375,0,0,0-1.267.208.684.684,0,0,0-.174.177,1.37,1.37,0,0,0-.117,1.43,1.283,1.283,0,0,0,1.141.68,1.3,1.3,0,0,0,.433-.078ZM487.956,878a.429.429,0,0,0,.015-.421.812.812,0,0,1,.1-.862.161.161,0,0,1,.038-.039.926.926,0,0,1,.53-.181.744.744,0,0,1,.667,1.076.424.424,0,0,0,.019.416.436.436,0,0,0,.375.208l1.378-.008.008,1.265a1.389,1.389,0,0,0-1.362.166.676.676,0,0,0-.176.178,1.371,1.371,0,0,0-.12,1.428,1.283,1.283,0,0,0,1.672.565l.007,1.265-1.182.007a1.283,1.283,0,0,0-1.216-1.694,1.475,1.475,0,0,0-.837.277.7.7,0,0,0-.176.177,1.379,1.379,0,0,0-.2,1.255l-1.258.007-.009-1.383a.436.436,0,0,0-.434-.434.426.426,0,0,0-.2.049.745.745,0,0,1-1-.311.831.831,0,0,1,.089-.871.143.143,0,0,1,.037-.038.833.833,0,0,1,.869-.1.439.439,0,0,0,.5-.081.431.431,0,0,0,.126-.31l-.008-1.384,1.379-.009A.432.432,0,0,0,487.956,878Zm-.53-.328-1.059.006-.006-1a1.282,1.282,0,0,0,1.239-.231A1.368,1.368,0,0,0,487.426,877.673Zm-6.052-.849a1.281,1.281,0,0,0,1.132-.693,1.37,1.37,0,0,0-.133-1.428.709.709,0,0,0-.177-.176,1.4,1.4,0,0,0-1.255-.2l-.008-1.258,1.384-.008a.437.437,0,0,0,.373-.213.426.426,0,0,0,.012-.419.744.744,0,0,1,.66-1.091h0a.928.928,0,0,1,.522.174.152.152,0,0,1,.038.038.832.832,0,0,1,.1.87.429.429,0,0,0,.017.421.434.434,0,0,0,.374.208l1.384-.009.008,1.379a.433.433,0,0,0,.631.386.828.828,0,0,1,.862.1.145.145,0,0,1,.038.038.829.829,0,0,1,.1.872.745.745,0,0,1-.662.4.733.733,0,0,1-.329-.077.434.434,0,0,0-.626.393l.007,1.257a.453.453,0,0,0-.072.079h0c-.01.014-.018.028-.027.042l-1.324.008a.16.16,0,0,1-.143-.082.171.171,0,0,1,.007-.173,1.086,1.086,0,0,0-.076-1.227.439.439,0,0,0-.106-.1,1.192,1.192,0,0,0-.676-.223,1.013,1.013,0,0,0-.854,1.56.174.174,0,0,1,.008.175.164.164,0,0,1-.143.085l-1.461.009-.006-1.182A1.274,1.274,0,0,0,481.374,876.823Zm-1.338,4.58a.758.758,0,0,1-.662-.395.832.832,0,0,1,.089-.874.133.133,0,0,1,.036-.037.832.832,0,0,1,.87-.1A.434.434,0,0,0,481,879.6l-.007-1.127,1.436-.009a.7.7,0,0,0,.585-1.09.473.473,0,0,1,.064-.59.535.535,0,0,1,.691-.024.554.554,0,0,1,.049.61.7.7,0,0,0,.593,1.081l1.263-.007.006,1a1.4,1.4,0,0,0-1.268.208.692.692,0,0,0-.174.177,1.372,1.372,0,0,0-.119,1.427,1.284,1.284,0,0,0,1.575.6l.007,1.155a.325.325,0,0,0-.03.039l-4.65.027-.009-1.384a.434.434,0,0,0-.213-.373.424.424,0,0,0-.419-.012A.737.737,0,0,1,480.035,881.4Z" transform="translate(0 -3.143)" fill="#fba303"/>
  </g>
</svg>
