<svg xmlns="http://www.w3.org/2000/svg" width="15.869" height="15.87" viewBox="0 0 15.869 15.87">
  <path id="Path_1083" data-name="Path 1083" d="M239.324,105.446a.55.55,0,0,0-.643.437l-.463,2.43a.549.549,0,0,0,.437.643l.938.179a6.48,6.48,0,0,0,.314,1.509l-.791.537a.55.55,0,0,0-.146.764l1.39,2.046a.552.552,0,0,0,.764.146l.791-.538a6.507,6.507,0,0,0,1.287.847l-.178.938a.55.55,0,0,0,.437.643l2.43.463a.522.522,0,0,0,.1.011.55.55,0,0,0,.539-.447l.18-.938a6.476,6.476,0,0,0,1.508-.314l.538.791a.55.55,0,0,0,.764.146l2.046-1.39a.55.55,0,0,0,.146-.765l-.538-.791a6.5,6.5,0,0,0,.848-1.287l.938.178a.551.551,0,0,0,.643-.437l.463-2.43a.55.55,0,0,0-.437-.643l-.938-.179a6.516,6.516,0,0,0-.314-1.509l.791-.537a.55.55,0,0,0,.146-.765l-1.39-2.046a.55.55,0,0,0-.764-.146l-.791.538a6.513,6.513,0,0,0-1.287-.847l.179-.938a.55.55,0,0,0-.437-.643l-2.43-.463a.544.544,0,0,0-.412.085.551.551,0,0,0-.231.352l-.179.938a6.517,6.517,0,0,0-1.509.314l-.537-.791a.551.551,0,0,0-.765-.146l-2.046,1.39a.552.552,0,0,0-.146.764l.538.791a6.483,6.483,0,0,0-.847,1.287Zm1.766,1.011a5.427,5.427,0,0,1,1.112-1.69.55.55,0,0,0,.059-.691l-.471-.693,1.136-.772.471.693a.552.552,0,0,0,.665.2,5.4,5.4,0,0,1,1.979-.412.551.551,0,0,0,.531-.447l.156-.821,1.349.258-.156.821a.549.549,0,0,0,.328.611,5.405,5.405,0,0,1,1.69,1.111.55.55,0,0,0,.691.059l.693-.471.772,1.136-.692.471a.549.549,0,0,0-.2.664,5.41,5.41,0,0,1,.412,1.98.551.551,0,0,0,.447.531l.821.156-.258,1.349-.821-.156a.549.549,0,0,0-.611.328,5.413,5.413,0,0,1-1.111,1.69.55.55,0,0,0-.059.691l.471.693-1.136.772-.471-.693a.55.55,0,0,0-.664-.2,5.429,5.429,0,0,1-1.981.412.55.55,0,0,0-.531.447l-.156.821-1.349-.257.157-.822a.551.551,0,0,0-.329-.611,5.406,5.406,0,0,1-1.69-1.111.55.55,0,0,0-.691-.059l-.693.471-.772-1.136.693-.471a.551.551,0,0,0,.2-.665,5.429,5.429,0,0,1-.412-1.981.55.55,0,0,0-.447-.531l-.821-.156.257-1.349.822.156A.55.55,0,0,0,241.09,106.457Z" transform="translate(-238.208 -100.631)" fill="#fba303"/>
</svg>
