<svg xmlns="http://www.w3.org/2000/svg" width="12.006" height="12.006" viewBox="0 0 12.006 12.006">
  <g id="Group_2476" data-name="Group 2476" transform="translate(-1237.25 -290.896)">
    <path id="Stroke_2" data-name="Stroke 2" d="M0,6c0,4.5,1.5,6,6,6s6-1.5,6-6S10.5,0,6,0,0,1.5,0,6Z" transform="translate(1237.25 290.896)" fill="#474546"/>
    <g id="Iconly_Bold_Star" data-name="Iconly/Bold/Star" transform="translate(1239.964 293.774)">
      <g id="Star">
        <path id="Star-2" data-name="Star" d="M5.236,3.888a.362.362,0,0,0-.1.319l.292,1.618a.355.355,0,0,1-.148.355.362.362,0,0,1-.385.026l-1.457-.76A.372.372,0,0,0,3.27,5.4H3.18a.267.267,0,0,0-.089.03L1.634,6.2a.384.384,0,0,1-.234.036.366.366,0,0,1-.293-.418L1.4,4.2a.368.368,0,0,0-.1-.322L.108,2.724A.355.355,0,0,1,.02,2.352a.369.369,0,0,1,.292-.247l1.635-.237a.366.366,0,0,0,.289-.2L2.957.191A.342.342,0,0,1,3.023.1l.03-.023A.221.221,0,0,1,3.105.036L3.141.023,3.2,0h.138a.368.368,0,0,1,.289.2l.73,1.47a.366.366,0,0,0,.273.2l1.635.237a.373.373,0,0,1,.3.247.357.357,0,0,1-.1.372Z" transform="translate(0)" fill="#f5f6fa"/>
      </g>
    </g>
  </g>
</svg>
