<svg id="Component_274_2" data-name="Component 274 – 2" xmlns="http://www.w3.org/2000/svg" xmlns:xlink="http://www.w3.org/1999/xlink" width="35.969" height="35.969" viewBox="0 0 35.969 35.969">
  <defs>
    <clipPath id="clip-path">
      <rect id="Rectangle_517" data-name="Rectangle 517" width="17.659" height="25.159" transform="translate(3 9)" fill="#f5f6fa" stroke="#f5f6fa" stroke-width="1"/>
    </clipPath>
  </defs>
  <g id="Group_1364" data-name="Group 1364" transform="translate(-1603 -246.193)">
    <path id="Stroke_4" data-name="Stroke 4" d="M.5,18.484C.5,4.479,4.479.5,18.484.5S36.469,4.479,36.469,18.484,32.49,36.469,18.484,36.469.5,32.49.5,18.484Z" transform="translate(1602.5 245.693)" fill="#db143d"/>
  </g>
  <g id="Group_2786" data-name="Group 2786" transform="translate(8.155 2.404)">
    <g id="Group_2785" data-name="Group 2785" transform="translate(-2 -6)" clip-path="url(#clip-path)">
      <path id="Path_5086" data-name="Path 5086" d="M16.026,5.327a1.944,1.944,0,0,0-1.941-1.836H12.655a4.274,4.274,0,0,0-8.4,0H2.822A1.944,1.944,0,0,0,.881,5.327L0,21.232a1.943,1.943,0,0,0,1.941,2.051H14.964A1.943,1.943,0,0,0,16.9,21.232Zm-.4,16.638a.9.9,0,0,1-.662.285H1.943a.911.911,0,0,1-.91-.962l.879-15.9a.912.912,0,0,1,.91-.861H4.179V5.537a1.055,1.055,0,1,0,1.032,0V4.523H11.7V5.537a1.055,1.055,0,1,0,1.032,0V4.523h1.357a.912.912,0,0,1,.91.861l.879,15.9a.9.9,0,0,1-.248.677M8.454,1.032A3.248,3.248,0,0,1,11.6,3.491H5.308A3.248,3.248,0,0,1,8.454,1.032" transform="translate(3.376 10.126)" fill="#f5f6fa" stroke="#f5f6fa" stroke-width="0.3"/>
    </g>
  </g>
</svg>
