<svg xmlns="http://www.w3.org/2000/svg" width="27.5" height="27.5" viewBox="0 0 27.5 27.5">
  <g id="Group_4360" data-name="Group 4360" transform="translate(20679.75 1642.75)">
    <g id="Group_3747" data-name="Group 3747" transform="translate(-21916 -1999.5)">
      <path id="Stroke_4" data-name="Stroke 4" d="M.5,13.5C.5,3.376,3.376.5,13.5.5s13,2.876,13,13-2.876,13-13,13S.5,23.624.5,13.5Z" transform="translate(1236.5 357)" fill="#474546" stroke="#474546" stroke-linecap="round" stroke-linejoin="round" stroke-miterlimit="10" stroke-width="1.5"/>
    </g>
    <path id="Subtraction_20" data-name="Subtraction 20" d="M13.059,15.241H4.151A3.2,3.2,0,0,1,1,11.993V9.877a.58.58,0,0,1,.571-.588A1.151,1.151,0,0,0,2.7,8.122a1.092,1.092,0,0,0-1.132-1.1.564.564,0,0,1-.4-.172A.6.6,0,0,1,1,6.433V4.247A3.2,3.2,0,0,1,4.152,1h8.906a3.2,3.2,0,0,1,3.15,3.247V6.366a.6.6,0,0,1-.167.416.557.557,0,0,1-.4.172,1.168,1.168,0,0,0,0,2.335.58.58,0,0,1,.571.588v2.117A3.2,3.2,0,0,1,13.059,15.241ZM9.088,9.751h0L10.656,12H12.2L10.428,9.48l.113-.047A2.532,2.532,0,0,0,11.668,8.5a2.625,2.625,0,0,0,.4-1.457,2.654,2.654,0,0,0-.4-1.463,2.553,2.553,0,0,0-1.127-.946A4.272,4.272,0,0,0,8.786,4.3H5.618V12h1.43V9.758H8.786c.1,0,.2,0,.3-.007ZM8.72,8.581H7.048V5.512H8.72a2.2,2.2,0,0,1,1.425.4,1.393,1.393,0,0,1,.478,1.133,1.415,1.415,0,0,1-.478,1.133A2.165,2.165,0,0,1,8.72,8.581Z" transform="translate(-20674.605 -1637.12)" fill="#fff" stroke="rgba(0,0,0,0)" stroke-miterlimit="10" stroke-width="1"/>
  </g>
</svg>
