<svg xmlns="http://www.w3.org/2000/svg" width="27.5" height="27.5" viewBox="0 0 27.5 27.5">
  <g id="Group_4378" data-name="Group 4378" transform="translate(20826.688 2473.476)">
    <g id="Group_826" data-name="Group 826" transform="translate(-21158.438 -2785.226)">
      <path id="Stroke_4" data-name="Stroke 4" d="M.5,13.5C.5,3.376,3.376.5,13.5.5s13,2.876,13,13-2.876,13-13,13S.5,23.624.5,13.5Z" transform="translate(332 312)" fill="#00c39c" stroke="#00c39c" stroke-linecap="round" stroke-linejoin="round" stroke-miterlimit="10" stroke-width="1.5"/>
    </g>
    <g id="goodjob-svgrepo-com" transform="translate(-20821.404 -2486.294)">
      <path id="Path_1228" data-name="Path 1228" d="M2.5,228.688H.809A.811.811,0,0,0,0,229.5v7.131a.812.812,0,0,0,.812.812H2.5a.812.812,0,0,0,.812-.812V229.5A.811.811,0,0,0,2.5,228.688Z" transform="translate(0 -203.023)" fill="#fff"/>
      <path id="Path_1229" data-name="Path 1229" d="M156.675,24.494a.814.814,0,0,0-.618-.285h-4.445a.811.811,0,0,1-.762-1.093l1.221-3.3a.843.843,0,0,0-.062-.764.855.855,0,0,0-.7-.329h-.2a1.908,1.908,0,0,0-1.828.978l-4.41,6.09a.815.815,0,0,0-.153.475v7.282a.812.812,0,0,0,.812.812h9.144a.813.813,0,0,0,.8-.682l.015-.092a.767.767,0,0,0-.144-.666.877.877,0,0,0-.658-.276h-.19c-.291,0-.689-.066-.689-.384s.4-.384.689-.384h.579a.811.811,0,0,0,.8-.681l.064-.393a.811.811,0,0,0-.146-.663.89.89,0,0,0-.656-.279h-.027c-.292,0-.69-.035-.69-.384,0-.367.4-.384.69-.384h.416a.711.711,0,0,0,.8-.681l.064-.393a.818.818,0,0,0-.147-.667.878.878,0,0,0-.654-.276h.134c-.291,0-.689,0-.689-.384s.4-.384.689-.384h.255a.811.811,0,0,0,.8-.681l.077-.471A.814.814,0,0,0,156.675,24.494Z" transform="translate(-139.931)" fill="#fff"/>
    </g>
  </g>
</svg>
