<svg xmlns="http://www.w3.org/2000/svg" width="20.5" height="20.5" viewBox="0 0 20.5 20.5">
  <g id="Group_1457" data-name="Group 1457" transform="translate(-432.25 -645.565)">
    <g id="Group_832" data-name="Group 832" transform="translate(433 646.315)">
      <path id="Stroke_4" data-name="Stroke 4" d="M.5,10C.5,2.6,2.6.5,10,.5s9.5,2.1,9.5,9.5-2.1,9.5-9.5,9.5S.5,17.4.5,10Z" transform="translate(-0.5 -0.5)" fill="#8886ec" stroke="#8886ec" stroke-linecap="round" stroke-linejoin="round" stroke-miterlimit="10" stroke-width="1.5"/>
    </g>
    <g id="support_1_" data-name="support (1)" transform="translate(437.385 651.042)">
      <path id="Path_103" data-name="Path 103" d="M64.1,0a3.87,3.87,0,0,0-3.866,3.866V7.434a.892.892,0,1,0,1.784,0V4.461a.893.893,0,0,0-.892-.892.882.882,0,0,0-.285.051,3.268,3.268,0,0,1,6.517,0,.876.876,0,0,0-.285-.048.893.893,0,0,0-.892.892V7.434a.893.893,0,0,0,.892.892.882.882,0,0,0,.3-.055v.352a.3.3,0,0,1-.3.3H64.937a.892.892,0,1,0,0,.595h2.136a.893.893,0,0,0,.892-.892V3.866A3.87,3.87,0,0,0,64.1,0Zm0,0" transform="translate(-59.044)" fill="#fff"/>
      <path id="Path_104" data-name="Path 104" d="M481.883,213.6v3.459a.891.891,0,0,0,.595-.837v-1.784A.891.891,0,0,0,481.883,213.6Zm0,0" transform="translate(-472.367 -209.38)" fill="#fff"/>
      <path id="Path_105" data-name="Path 105" d="M0,214.435v1.784a.891.891,0,0,0,.595.837V213.6a.891.891,0,0,0-.595.837Zm0,0" transform="translate(0 -209.38)" fill="#fff"/>
    </g>
  </g>
</svg>
