<svg xmlns="http://www.w3.org/2000/svg" width="27.5" height="27.5" viewBox="0 0 27.5 27.5">
  <g id="Group_2115" data-name="Group 2115" transform="translate(-511.25 -491.25)">
    <path id="Stroke_4" data-name="Stroke 4" d="M.5,13.5C.5,3.376,3.376.5,13.5.5s13,2.876,13,13-2.876,13-13,13S.5,23.624.5,13.5Z" transform="translate(511.5 491.5)" fill="#fff" stroke="#8886ec" stroke-linecap="round" stroke-linejoin="round" stroke-miterlimit="10" stroke-width="1.5"/>
    <g id="support_1_" data-name="support (1)" transform="translate(518 498.468)">
      <path id="Path_103" data-name="Path 103" d="M65.524,0a5.3,5.3,0,0,0-5.29,5.29v4.883a1.221,1.221,0,1,0,2.442,0V6.1a1.222,1.222,0,0,0-1.221-1.221,1.207,1.207,0,0,0-.39.07,4.472,4.472,0,0,1,8.918,0,1.2,1.2,0,0,0-.39-.066A1.222,1.222,0,0,0,68.373,6.1v4.069a1.222,1.222,0,0,0,1.221,1.221A1.207,1.207,0,0,0,70,11.319V11.8a.407.407,0,0,1-.407.407H66.67a1.221,1.221,0,1,0,0,.814h2.924A1.222,1.222,0,0,0,70.814,11.8V5.29A5.3,5.3,0,0,0,65.524,0Zm0,0" transform="translate(-58.606)" fill="#8886ec"/>
      <path id="Path_104" data-name="Path 104" d="M481.883,213.6v4.733a1.219,1.219,0,0,0,.814-1.146v-2.442a1.219,1.219,0,0,0-.814-1.146Zm0,0" transform="translate(-468.861 -207.826)" fill="#8886ec"/>
      <path id="Path_105" data-name="Path 105" d="M0,214.744v2.442a1.219,1.219,0,0,0,.814,1.146V213.6A1.219,1.219,0,0,0,0,214.744Zm0,0" transform="translate(0 -207.826)" fill="#8886ec"/>
    </g>
  </g>
</svg>
