<svg xmlns="http://www.w3.org/2000/svg" width="16.875" height="15.287" viewBox="0 0 16.875 15.287">
  <path id="Subtraction_10" data-name="Subtraction 10" d="M13.586,15.287h-9.3A3.277,3.277,0,0,1,1,12.029V9.905a.593.593,0,0,1,.6-.59A1.178,1.178,0,0,0,2.777,8.145,1.12,1.12,0,0,0,1.6,7.041.592.592,0,0,1,1,6.451V4.258A3.277,3.277,0,0,1,4.289,1h9.3a3.277,3.277,0,0,1,3.289,3.258V6.383A.581.581,0,0,1,16.7,6.8a.6.6,0,0,1-.42.172,1.172,1.172,0,1,0,0,2.344.593.593,0,0,1,.595.59v2.124A3.277,3.277,0,0,1,13.586,15.287ZM7.54,9.8H9.311L10.533,12H12.5L10.862,9.461A2.378,2.378,0,0,0,11.935,8.5,2.988,2.988,0,0,0,12.3,6.974,2.457,2.457,0,0,0,11.479,5a3.523,3.523,0,0,0-2.332-.7H5.8V12H7.54V9.8ZM9.147,8.349H7.54V5.742H9.147a1.71,1.71,0,0,1,1.116.325,1.184,1.184,0,0,1,.391.962,1.231,1.231,0,0,1-.391.985A1.668,1.668,0,0,1,9.147,8.349Z" transform="translate(-0.5 -0.5)" fill="#707070" stroke="rgba(0,0,0,0)" stroke-miterlimit="10" stroke-width="1"/>
</svg>
