<svg xmlns="http://www.w3.org/2000/svg" width="11.818" height="11.818" viewBox="0 0 11.818 11.818">
  <g id="menu-grid-o" transform="translate(-8 -8)">
    <g id="Group_7609" data-name="Group 7609" transform="translate(8 8)">
      <path id="Path_1393" data-name="Path 1393" d="M10.955,9.477A1.477,1.477,0,1,1,9.477,8,1.477,1.477,0,0,1,10.955,9.477Z" transform="translate(-8 -8)" fill="#fba303"/>
      <path id="Path_1394" data-name="Path 1394" d="M10.955,21.477A1.477,1.477,0,1,1,9.477,20,1.477,1.477,0,0,1,10.955,21.477Z" transform="translate(-8 -15.568)" fill="#fba303"/>
      <path id="Path_1395" data-name="Path 1395" d="M9.477,34.955A1.477,1.477,0,1,0,8,33.477,1.477,1.477,0,0,0,9.477,34.955Z" transform="translate(-8 -23.136)" fill="#fba303"/>
      <path id="Path_1396" data-name="Path 1396" d="M22.955,9.477A1.477,1.477,0,1,1,21.477,8,1.477,1.477,0,0,1,22.955,9.477Z" transform="translate(-15.568 -8)" fill="#fba303"/>
      <path id="Path_1397" data-name="Path 1397" d="M21.477,22.955A1.477,1.477,0,1,0,20,21.477,1.477,1.477,0,0,0,21.477,22.955Z" transform="translate(-15.568 -15.568)" fill="#fba303"/>
      <path id="Path_1398" data-name="Path 1398" d="M22.955,33.477A1.477,1.477,0,1,1,21.477,32,1.477,1.477,0,0,1,22.955,33.477Z" transform="translate(-15.568 -23.136)" fill="#fba303"/>
      <path id="Path_1399" data-name="Path 1399" d="M33.477,10.955A1.477,1.477,0,1,0,32,9.477,1.477,1.477,0,0,0,33.477,10.955Z" transform="translate(-23.136 -8)" fill="#fba303"/>
      <path id="Path_1400" data-name="Path 1400" d="M34.955,21.477A1.477,1.477,0,1,1,33.477,20,1.477,1.477,0,0,1,34.955,21.477Z" transform="translate(-23.136 -15.568)" fill="#fba303"/>
      <path id="Path_1401" data-name="Path 1401" d="M33.477,34.955A1.477,1.477,0,1,0,32,33.477,1.477,1.477,0,0,0,33.477,34.955Z" transform="translate(-23.136 -23.136)" fill="#fba303"/>
    </g>
  </g>
</svg>
