<svg xmlns="http://www.w3.org/2000/svg" width="18.792" height="15.467" viewBox="0 0 18.792 15.467">
  <g id="Group_2914" data-name="Group 2914" transform="translate(-414.232 -478.171)">
    <path id="Path_1085" data-name="Path 1085" d="M428.381,478.171l-1.6,1.6c-.081-.011-.161-.019-.241-.025a2.721,2.721,0,0,0-2.79.526l-.028.025-.393.394a2.592,2.592,0,0,0-2.982-.167l-1.473-1.473-4.643,4.642,1.76,1.76a4.5,4.5,0,0,0,.839,2.415,6.393,6.393,0,0,0,.771.934c.363.368.73.731,1.1,1.1a1.062,1.062,0,0,0,.187,1.484,1.214,1.214,0,0,0,1.4.33.013.013,0,0,1,.014,0c.416.624.8.926,1.215.96.172.167.342.336.515.5a1.609,1.609,0,0,0,1.911.251,1.087,1.087,0,0,0,.449-.5c1.045.877,1.742.893,2.563-.337a.012.012,0,0,1,.014-.005,1.214,1.214,0,0,0,1.4-.33,1.073,1.073,0,0,0,.115-1.583s-.129-.168-.123-.168a.978.978,0,0,0,.775-.407,1.193,1.193,0,0,0-.054-1.612c.189-.19.381-.379.57-.57a6.372,6.372,0,0,0,.771-.934,4.5,4.5,0,0,0,.839-2.415l1.759-1.76Zm-10.5,9.957a4.283,4.283,0,0,1-1.11-1.893,3.327,3.327,0,0,1-.082-.485,3.507,3.507,0,0,1-.013-.415l-1.784-1.785,3.836-3.837,1.23,1.23.081.081-.005.013.594.049.039-.1a2.06,2.06,0,0,1,2.506.29l1.718,1.726a.463.463,0,0,1,0,.651l-.113.113a.461.461,0,0,1-.652,0L422.37,482l-.427.3.475.557.206.207-.606.606a.346.346,0,0,0-.093.16l-.03.031q-1.772,1.775-3.545,3.548A1.825,1.825,0,0,0,417.883,488.128Zm5.7,4.787a.588.588,0,0,1-.479.192,1.025,1.025,0,0,1-.611-.37l-.249-.247a3.739,3.739,0,0,0,.622-.435,1.1,1.1,0,0,0,.449.5,1.579,1.579,0,0,0,.375.154A.443.443,0,0,1,423.581,492.915Zm2.532-.238c-.263.31-.565.337-.95-.02l-.178-.168a1.653,1.653,0,0,0,.239-.19c.221-.213.438-.429.658-.642l.07.07C426.316,492.091,426.363,492.384,426.113,492.678Zm1.836-.96a.629.629,0,0,1-1.038.008l-.543-.543c.3-.292.6-.582.9-.875l.5.5C428.094,491.138,428.149,491.445,427.949,491.718Zm.744-2.151a.614.614,0,0,1-.857.323.991.991,0,0,1-.091-.057c.288-.285.573-.573.859-.859A.558.558,0,0,1,428.693,489.566Zm1.884-5.111a3.313,3.313,0,0,1-.013.415,3.212,3.212,0,0,1-.082.485,4.287,4.287,0,0,1-1.116,1.9c-.729.767-1.493,1.5-2.242,2.249-.785.785-1.567,1.574-2.359,2.353a1.027,1.027,0,0,1-.612.37.587.587,0,0,1-.479-.192.7.7,0,0,1-.114-.589,1.35,1.35,0,0,1,.378-.532c.358-.366.723-.726,1.085-1.089.176-.177.351-.354.525-.533s.724-.593.422-.877c-.278-.26-.676.242-.843.41s-.353.354-.531.528c-.831.811-1.651,1.635-2.5,2.424-.385.357-.687.33-.951.021-.25-.293-.2-.587.161-.95q1.412-1.415,2.827-2.828a.67.67,0,0,0,.27-.421c.018-.15-.036-.282-.19-.305a.549.549,0,0,0-.538.226q-1.664,1.663-3.327,3.326a.629.629,0,0,1-1.038-.008c-.2-.272-.144-.58.181-.9q1.687-1.694,3.382-3.381c.184-.183.329-.389.1-.6s-.4-.023-.566.142q-1.3,1.306-2.606,2.605a1.781,1.781,0,0,1-.379.311.614.614,0,0,1-.857-.323c-.139-.347.039-.567.259-.786q2.162-2.155,4.311-4.322l.59.593a1.033,1.033,0,0,0,1.457,0l.113-.113a1.025,1.025,0,0,0,.035-1.419l-1.309-1.322h0l-.257-.258.349-.351a2.448,2.448,0,0,1,2.8-.261l.387-.387,1.23-1.23,3.837,3.837Z" transform="translate(0 0)" fill="#fba303"/>
  </g>
</svg>
