<svg xmlns="http://www.w3.org/2000/svg" viewBox="0 0 502 652"><defs><style>.cls-1,.cls-5{fill:none;stroke:#fff;stroke-miterlimit:10;}.cls-1{stroke-width:2px;}.cls-2,.cls-3{fill:#fff;}.cls-3{fill-rule:evenodd;}.cls-4{fill:#29235c;}</style></defs><g id="Layer_2" data-name="Layer 2"><g id="Layer_1-2" data-name="Layer 1"><rect class="cls-1" x="1" y="1" width="500" height="650"/><rect class="cls-2" x="122.38" y="110.35" width="257.24" height="38.57" rx="4.67"/><polyline class="cls-1" points="443.62 27.69 483.64 27.69 483.64 632.29 14.86 632.29 14.86 27.69 62.06 27.69"/><path class="cls-2" d="M135.54,29a22.16,22.16,0,0,1,1.12-5.7A15.09,15.09,0,0,1,140,17.2a5.23,5.23,0,0,1,1.32-.8,1.4,1.4,0,0,0,.29-.09H127.43v9.88C129.66,28,132.42,30.29,135.54,29Z"/><path class="cls-2" d="M140,22.77c-.08.13-.16.22-.24.34-1.12,1.44-2,3-.7,3.38a2,2,0,0,0,.94.17,4.87,4.87,0,0,0,1.32-.09,9.2,9.2,0,0,0,2-.59c1.52-.63,2.72-1.56,2.26-2.61a2.6,2.6,0,0,0-2.26-1.74,3.82,3.82,0,0,0-2,.3A3.35,3.35,0,0,0,140,22.77Z"/><path class="cls-2" d="M150.29,35.69c-1.4-.55-1.65.05-1.45,1.82.17,1.14.7,3.89,1.9,5.28h2.55V37.22c-1-.46-1.73-.94-2.26-1.15A6.45,6.45,0,0,0,150.29,35.69Z"/><path class="cls-2" d="M151,16.31h-6.51A5.57,5.57,0,0,1,148.35,20a6.2,6.2,0,0,1-.49,5,24.39,24.39,0,0,1-4.49,6,7.07,7.07,0,0,1-2,1.52.75.75,0,0,1-.29.09l.29.63a24.07,24.07,0,0,0,2,3,10.4,10.4,0,0,0,2.3,2.24c2.64,1.69.91-3.3.46-6.13-.54-3.37.61-3.12,2.1-3,.7.08,1.73.46,2.8.71.78.17,1.47.49,2.26.7V16.31Z"/><path class="cls-2" d="M141.35,40.8c-.41-.38-.86-.76-1.32-1.22a11.64,11.64,0,0,1-2.59-4c-.66-1.4-.25-1.48-2.23-.81a8.4,8.4,0,0,1-7.78-2.32V42.79h16.88c-.24-.17-.57-.34-.94-.59A16.52,16.52,0,0,1,141.35,40.8Z"/><path class="cls-2" d="M89.1,24c-.5.59-.58,1.14,0,1.56a.86.86,0,0,0,.2.13c2.89,2.15,7.79,0,6.92,5.19a16.15,16.15,0,0,1-2.88,6.55,13.23,13.23,0,0,1-4.24,3.88,11,11,0,0,1-4.49,1.44H97.13V20.54C95.56,20.16,90.5,22.22,89.1,24Z"/><path class="cls-2" d="M71.31,34.68v5.66a2.41,2.41,0,0,0,2.41,2.41h6.16a21.83,21.83,0,0,1-4.29-1.57A7.24,7.24,0,0,1,71.31,34.68Z"/><path class="cls-2" d="M93.17,33c.17-.59-.32-1.22-1.56-1.69-.82-.34-1.73-.59-2.51-.84A11.15,11.15,0,0,1,85.64,29c-.91-.59-1.11-2.11-.41-3.54A24.69,24.69,0,0,1,89.1,19.4a11.52,11.52,0,0,1,4.45-3.13H73.72a2.41,2.41,0,0,0-2.41,2.41h0V32.87a22,22,0,0,1,4.28-8.49c.41-.55.87-1.1,1.36-1.69.66-1,1.36-.63.78.17a27.19,27.19,0,0,0-2.14,3.55c-1.4,2.82-1.81,5.61,0,8.15.21.25.41.54.66.8,3.09,2.7,8.81,2.4,12.85.72A7.91,7.91,0,0,0,93.17,33Z"/><path class="cls-2" d="M238.36,34.68v8.07h8.56a21.74,21.74,0,0,1-4.28-1.57A7.24,7.24,0,0,1,238.36,34.68Z"/><path class="cls-2" d="M260.18,33c.13-.59-.37-1.22-1.6-1.69-.83-.34-1.69-.59-2.52-.84a10.81,10.81,0,0,1-3.45-1.4c-.91-.59-1.12-2.11-.42-3.54a25,25,0,0,1,3.87-6.08,11.52,11.52,0,0,1,4.45-3.13H238.36v16.6a22,22,0,0,1,4.28-8.49c.41-.55.87-1.1,1.36-1.69.66-1,1.36-.63.82.17a24,24,0,0,0-2.18,3.55c-1.4,2.82-1.81,5.61,0,8.15.21.25.41.54.66.8,3.09,2.7,8.73,2.4,12.76.72A8.22,8.22,0,0,0,260.18,33Z"/><path class="cls-2" d="M256.06,24c-.49.59-.57,1.14,0,1.56l.21.13c2.88,2.15,7.78,0,6.92,5.19a16.48,16.48,0,0,1-2.88,6.55,12.94,12.94,0,0,1-4.25,3.88,10.91,10.91,0,0,1-4.44,1.44h12.47V20.54C262.53,20.16,257.46,22.22,256.06,24Z"/><path class="cls-2" d="M100.13,37.6c-.41-.43-1.07-1-1.07-1.14v6.33h10c-1.11,0-3.09-1.06-5-2.28A39.89,39.89,0,0,1,100.13,37.6Z"/><path class="cls-2" d="M107.3,37a19.56,19.56,0,0,0,8.6-3.46A14.91,14.91,0,0,0,120.39,29a2.89,2.89,0,0,0,.29-.55c.16-.34.29-.89-.29-2.28a.24.24,0,0,0-.08-.21c-.62-1.18-4.57-5.11-3.17-6.5a29.47,29.47,0,0,0,2.22-3.09H99.06V36.08a17.39,17.39,0,0,0,5,.92A25,25,0,0,0,107.3,37Z"/><path class="cls-2" d="M122.29,30.25c-.37.76-1,2.19-1.9,3.76a22,22,0,0,1-2.76,3.88,16.87,16.87,0,0,1-1.73,1.65,38.89,38.89,0,0,1-4.9,3.25h14V31.35c-.41-.47-.74-.76-1-1.06C122.53,29,122.78,29.15,122.29,30.25Z"/><path class="cls-2" d="M120.39,16.31h-.45c.12,0,.29.3.45.68l.25.55a38.74,38.74,0,0,0,4.28,6.54V16.31Z"/><path class="cls-2" d="M300.7,36.75c-1.57,1-1.61,1.48-2.8,1.82a38,38,0,0,1-4.08.88v3.26h12C303.13,41.65,302.1,35.57,300.7,36.75Z"/><path class="cls-2" d="M309.18,34.68a15.07,15.07,0,0,0,.25-3c-1-.25-1.9-.5-2.64-.63-1.19-.17-2.06-.08-2.63.72a2.62,2.62,0,0,0,.16,1,6.21,6.21,0,0,0,2.47,3,.28.28,0,0,1,.17.08C308.32,36.46,309,35.82,309.18,34.68Z"/><path class="cls-2" d="M306.79,16.23h-13V33.29c4.12-.59,6.92-3.25,8.36-4.48s2.55-3,4.61-3.8a6.19,6.19,0,0,1,1.28-.34c1.23-.25,4.2.64,3.58,1.36-.78,2.4-1.11,3-.41,4.13,1.44,2.28,5.06,4.23,8.4,4.35V16.23Z"/><path class="cls-2" d="M307.62,42.71h12v-2c-2.27,0-3.25-.21-6-2.54C311.69,37.3,310.37,42.75,307.62,42.71Z"/><path class="cls-2" d="M196,16.23H183V33.29c4.12-.59,6.92-3.25,8.36-4.48s2.55-3,4.61-3.8a6.19,6.19,0,0,1,1.28-.34c1.23-.25,4.2.64,3.58,1.36-.78,2.4-1.11,3-.41,4.13,1.44,2.28,5.06,4.23,8.4,4.35V16.23Z"/><path class="cls-2" d="M198.34,34.68c.24-2.49.33-3,.24-3-1-.25-1.89-.5-2.63-.63-1.2-.17-2.06-.08-2.64.72a2.63,2.63,0,0,0,.17,1,6.21,6.21,0,0,0,2.47,3,.25.25,0,0,1,.16.08C197.47,36.46,198.17,35.82,198.34,34.68Z"/><path class="cls-2" d="M189.85,36.75c-1.56,1-1.6,1.48-2.79,1.82a38,38,0,0,1-4.08.88v3.26h12C192.28,41.65,191.25,35.57,189.85,36.75Z"/><path class="cls-2" d="M196.77,42.71h12v-2c-2.27,0-3.26-.21-6-2.54C200.85,37.3,199.53,42.75,196.77,42.71Z"/><path class="cls-2" d="M355.67,34c-.25-1.22.49-11.06,7.74-14.4-.5-.38-.25-.54,1.19-3.2v-.09H349.33V34.56S353.9,34.64,355.67,34Z"/><path class="cls-2" d="M364.6,39.28c-.41-.21-.82-.38-1.19-.54-2.14-.89-1.69-.93-4.08,0a26.86,26.86,0,0,1-10,2.15v1.9h19.93c-.13-.13-.25-.3-.38-.42A12.72,12.72,0,0,0,364.6,39.28Z"/><path class="cls-2" d="M364.6,26.87a4.08,4.08,0,0,0-1.11-1.9c-1-1.44-2.92.25-4.12,1.56a5.13,5.13,0,0,0-1.4,2.2c-.28,3,4.33,2.78,6.63,1.14a.68.68,0,0,1,.21-.17A10.34,10.34,0,0,0,364.6,26.87Z"/><path class="cls-2" d="M371.89,34.94c.49-.22.25-1.19-.29-2.45a45.6,45.6,0,0,0-2.72-5,15,15,0,0,1-.9-1.56c-.74-1.48-.82-.3-.82.63a7.54,7.54,0,0,1-.37,2.11,17.48,17.48,0,0,1-2.19,4,.42.42,0,0,0,0,.43,1.94,1.94,0,0,0,.87.54A25.77,25.77,0,0,0,368.88,35a4.76,4.76,0,0,0,2.72.16Z"/><path class="cls-2" d="M371.6,16.31h-6c1.28,1.23,2.35,2.33,3.25,3.34a25.68,25.68,0,0,1,2.72,3.42,26.42,26.42,0,0,1,3.58,8V16.31Z"/><path class="cls-2" d="M371.6,42.11c-.16.22-.33.43-.53.68h4.11v-8C374.69,34.85,375.06,37.51,371.6,42.11Z"/><path class="cls-2" d="M226,39.28c-.42-.21-.83-.38-1.16-.54-2.18-.89-1.73-.93-4.11,0a26.86,26.86,0,0,1-10,2.15v1.9h19.93c-.13-.13-.25-.3-.37-.42A12.53,12.53,0,0,0,226,39.28Z"/><path class="cls-2" d="M217,34c-.21-1.22.49-11.06,7.78-14.4-.49-.38-.29-.54,1.16-3.2v-.09H210.66V34.56S215.26,34.64,217,34Z"/><path class="cls-2" d="M226,26.87a4.1,4.1,0,0,0-1.12-1.9c-1-1.44-2.92.25-4.11,1.56a4.84,4.84,0,0,0-1.4,2.2c-.29,3,4.32,2.78,6.63,1.14a.55.55,0,0,1,.2-.17A8.7,8.7,0,0,0,226,26.87Z"/><path class="cls-2" d="M233,42.11c-.17.22-.33.43-.54.68h4.08v-8C236.05,34.85,236.42,37.51,233,42.11Z"/><path class="cls-2" d="M233.25,34.94c.5-.22.29-1.19-.28-2.45a45.6,45.6,0,0,0-2.72-5,13.5,13.5,0,0,1-.91-1.56c-.74-1.48-.82-.3-.82.63a6.33,6.33,0,0,1-.37,2.11,17.44,17.44,0,0,1-2.18,4,.38.38,0,0,0,0,.43c.08.16.37.33.86.54A26.46,26.46,0,0,0,230.25,35a4.76,4.76,0,0,0,2.72.16Z"/><path class="cls-2" d="M233,16.31h-6c1.28,1.23,2.35,2.33,3.26,3.34A25.4,25.4,0,0,1,233,23.11a27.3,27.3,0,0,1,3.54,8.11V16.31Z"/><path class="cls-2" d="M279.08,40.3c-3.05-.38-4.16-1.82-5.23-4.44-1.27-5-.2-6.08-2.39-17.22-.24-1,.13-1.14,1.28-2.41H266V42.71h25.82V39.79a61.7,61.7,0,0,1-9,.72A26,26,0,0,1,279.08,40.3Z"/><path class="cls-2" d="M282.83,16.23h-9a5.7,5.7,0,0,1,1.2,2.28c.9,4.73,0,12.33,2.26,14.48.91,1.14,2.51,1.57,5.56,1.52a8.29,8.29,0,0,0,1.36-.08,46.29,46.29,0,0,0,7.7-.76V16.23Z"/><path class="cls-2" d="M336.93,36.2c-.08-.12-.16-.29-.24-.42-.62-1.1-.87-1.06-1.61-.25a23.68,23.68,0,0,1-2.68,2.11c-3.41,2.57-7.86,3.08-10.78,3.12v2h25.81V41C347.51,40.51,339.94,41.1,336.93,36.2Z"/><path class="cls-2" d="M336.69,16.27H321.62V34.56c2.75-.26,9.88,1,14.65-7.61a5.91,5.91,0,0,1,.42-.88c.9-1.27,1.35,1.86,1.44,3.63,2.26,4.39,5.23,4.77,9.3,4.81V16.27Zm.08,5.49h-.08a17.65,17.65,0,0,1-2.19-1.86c-.57-.59-.78-.8.17-1.86.25-.25,1.44-1.39,2-1.43a.2.2,0,0,1,.27.09s0,0,0,0c.83.85,1.4,1.57,2.43,2.66A23.45,23.45,0,0,1,336.77,21.76Z"/><path class="cls-3" d="M387.17,19.82c.57-.68,2.3-3.3,2.8-3.55H377.12V42.75h12.11c-.42-7.9-.33-9.55-1.57-16.43-1-5.62-1.19-4.94-.49-6.5Zm15.73-3.55h-12c1.44,3.46,2.43,13.09,1,21.66a13,13,0,0,1-1.77,4.82H402.9V16.27Z"/><path class="cls-2" d="M409.48,16.27h-4.61V36.58c1.53.42.7.13,1.61.38a23.22,23.22,0,0,0,3,.47c5.07.59,10.92.08,16-5.7,2.1-3.13,1.77-3.85.25-6.13-1.2-1.81-1.32-1.47-2.8-3.21-1.28-.67,1.6-3.54,2.92-5.06,2.55,1.69,3.71,6.33,3.46,10.51,0,3.55-1.15,9.84-10.91,14.91h9.86a2.41,2.41,0,0,0,2.41-2.41h0V18.68a2.41,2.41,0,0,0-2.41-2.41H409.48Z"/><path class="cls-2" d="M407.34,39.2a16.89,16.89,0,0,1-2.47-1.9v5.45h9.27a33.26,33.26,0,0,1-4.66-2.24Z"/><path class="cls-2" d="M179.77,16.23H169.62l.29.13L172.34,19a24,24,0,0,1-2.64,2.4l-2.26-1.9c-.58-.59-.78-.8.16-1.86.25-.25,1.44-1.39,2-1.43H155.23V31.7c1.81.88,3.5.8,4.61-1,.33-1.1,2.06-2.07,1.15-.3-2.31,4.14,2.88,4,6,1.82a4.76,4.76,0,0,0,2.1-3c.17-1.1,1.07-1.52,1-.21,0,1.73.62,3.67,2.23,4.39a3.12,3.12,0,0,0,.94.25c1.24.13,3-1.77,3-4-.13-.8.74-1.27,1,.13.37,1.18,2.22,3.71,3.74,3.46v-17ZM167,25.9,164.71,24c-.57-.6-.78-.81.17-1.86.25-.26,1.44-1.4,2-1.44l.29.13,2.42,2.66A25.66,25.66,0,0,1,167,25.9Zm5.53,0L170.24,24c-.58-.6-.78-.81.17-1.86.24-.26,1.44-1.4,2-1.44l.29.13,2.43,2.66a24.94,24.94,0,0,1-2.62,2.41Z"/><path class="cls-2" d="M177.26,38.56c-1.28-1.27-1.16.08-1.32.67-.37,1.69-2,1.73-3.58,1.27a10.73,10.73,0,0,1-1.12-.42,9.7,9.7,0,0,0-4.2-1.27,10.47,10.47,0,0,0-2.3.34c-1.16.46-3.75,2.19-6.38,1-.42-.25-1.12-.95-1.53-1.25-.53,0-1.07-.76-1.6-.76V42.7H181V39.86A6.17,6.17,0,0,1,177.26,38.56Z"/><path class="cls-4" d="M228.33,139.93h-3.78V129.52a28.1,28.1,0,0,0-.44-4.84,42.63,42.63,0,0,0-1.34-5.46l3.84-1.29,1.24,4.88V123a.74.74,0,0,0,0,.21.22.22,0,0,1,0,.16v.18a.43.43,0,0,0,0,.16V124c.1.89.18,1.81.24,2.75s.09,1.86.09,2.74Z"/><path class="cls-4" d="M248.82,140q-1.48-2.61-2.56-4.77a34.94,34.94,0,0,1-1.71-3.92c-.08-.2-.18-.5-.3-.91s-.27-.9-.45-1.49l-.94-3.46c-.21.87-.45,1.79-.73,2.75s-.57,2-.9,3a24.58,24.58,0,0,1-1.59,3.69c-.73,1.45-1.66,3.14-2.81,5.08l-.87-.5-1-.54-1-.51-.75-.38c1.36-2.29,2.47-4.23,3.34-5.84a41.26,41.26,0,0,0,1.9-3.9,38.82,38.82,0,0,0,1.6-4.7q.72-2.59,1.28-5.75h3c.21,1.29.48,2.57.81,3.86s.68,2.54,1.08,3.76.84,2.4,1.3,3.52,1,2.17,1.46,3.13l.93,1.67,1.24,2.21.19.38.24.44c.09.15.17.29.26.41s0,.08.08.16a1.15,1.15,0,0,0,.12.25l.12.25.07.13Z"/><path class="cls-4" d="M262.56,139.93h-3.78V129.52a29.13,29.13,0,0,0-.44-4.84,42.63,42.63,0,0,0-1.34-5.46l3.84-1.29,1.24,4.88a.49.49,0,0,1,0,.17v.21a.22.22,0,0,1,0,.16.54.54,0,0,0,0,.18.43.43,0,0,0,0,.16v.12a.81.81,0,0,0,0,.22c.1.89.18,1.81.24,2.75s.09,1.86.09,2.74Z"/><path class="cls-4" d="M279.86,139.93H276.1V129.31a11.64,11.64,0,0,1-1.65.39,9.16,9.16,0,0,1-1.57.14,4.93,4.93,0,0,1-3.81-1.45,5.67,5.67,0,0,1-1.36-4,7.76,7.76,0,0,1,.4-2.57,6.3,6.3,0,0,1,1.17-2,5.56,5.56,0,0,1,4.24-1.93,5.26,5.26,0,0,1,1.62.29,10.73,10.73,0,0,1,1.8.8,5.79,5.79,0,0,1,2.17,3.41,24.26,24.26,0,0,1,.75,6.68Zm-7-14.34a4.7,4.7,0,0,0,1.29-.21,7.36,7.36,0,0,0,1.5-.64c0-.23-.1-.49-.15-.77s-.1-.59-.17-.93v.09a1.47,1.47,0,0,0-.41-.55,1.64,1.64,0,0,0-.66-.33h0l-.14-.06h-.63a1.59,1.59,0,0,1-.3-.06,3.24,3.24,0,0,0-.86.19,1.56,1.56,0,0,0-.59.39h0a2.37,2.37,0,0,0-.67,1.62,1.15,1.15,0,0,0,.45,1,2.12,2.12,0,0,0,1.33.26Z"/><rect class="cls-5" x="330.46" y="163" width="147.11" height="64.29"/><rect class="cls-2" x="178.37" y="163" width="147.11" height="64.29"/><rect class="cls-5" x="26.29" y="163" width="147.11" height="64.29"/><rect class="cls-5" x="330.46" y="233.71" width="147.11" height="64.29"/><rect class="cls-5" x="178.37" y="233.71" width="147.11" height="64.29"/><rect class="cls-5" x="26.29" y="233.71" width="147.11" height="64.29"/><rect class="cls-5" x="330.46" y="304.43" width="147.11" height="64.29"/><rect class="cls-5" x="178.37" y="304.43" width="147.11" height="135"/><rect class="cls-5" x="26.29" y="304.43" width="147.11" height="64.29"/><rect class="cls-5" x="330.46" y="375.14" width="147.11" height="64.29"/><rect class="cls-2" x="26.29" y="375.14" width="147.11" height="64.29"/><rect class="cls-5" x="330.46" y="445.86" width="147.11" height="64.29"/><rect class="cls-5" x="178.37" y="445.86" width="147.11" height="64.29"/><rect class="cls-5" x="26.29" y="445.86" width="147.11" height="64.29"/><rect class="cls-2" x="26.29" y="516.57" width="451.29" height="102.86"/><line class="cls-1" x1="451.82" y1="181.86" x2="356.21" y2="181.86"/><line class="cls-1" x1="451.82" y1="195.14" x2="356.21" y2="195.14"/><line class="cls-1" x1="451.82" y1="208.43" x2="356.21" y2="208.43"/><line class="cls-1" x1="451.82" y1="252.57" x2="356.21" y2="252.57"/><line class="cls-1" x1="451.82" y1="265.86" x2="356.21" y2="265.86"/><line class="cls-1" x1="451.82" y1="279.14" x2="356.21" y2="279.14"/><line class="cls-1" x1="451.82" y1="323.29" x2="356.21" y2="323.29"/><line class="cls-1" x1="451.82" y1="336.57" x2="356.21" y2="336.57"/><line class="cls-1" x1="451.82" y1="349.86" x2="356.21" y2="349.86"/><line class="cls-1" x1="144.93" y1="181.86" x2="49.33" y2="181.86"/><line class="cls-1" x1="144.93" y1="195.14" x2="49.33" y2="195.14"/><line class="cls-1" x1="144.93" y1="208.43" x2="49.33" y2="208.43"/><line class="cls-1" x1="299.73" y1="252.57" x2="204.13" y2="252.57"/><line class="cls-1" x1="299.73" y1="265.86" x2="204.13" y2="265.86"/><line class="cls-1" x1="299.73" y1="279.14" x2="204.13" y2="279.14"/><line class="cls-1" x1="299.73" y1="464.71" x2="204.13" y2="464.71"/><line class="cls-1" x1="299.73" y1="478" x2="204.13" y2="478"/><line class="cls-1" x1="299.73" y1="491.29" x2="204.13" y2="491.29"/><line class="cls-1" x1="451.82" y1="394" x2="356.21" y2="394"/><line class="cls-1" x1="451.82" y1="407.29" x2="356.21" y2="407.29"/><line class="cls-1" x1="451.82" y1="420.57" x2="356.21" y2="420.57"/><line class="cls-1" x1="299.73" y1="323.29" x2="204.13" y2="323.29"/><line class="cls-1" x1="299.73" y1="336.57" x2="204.13" y2="336.57"/><line class="cls-1" x1="299.73" y1="349.86" x2="204.13" y2="349.86"/><line class="cls-1" x1="299.73" y1="361.86" x2="204.13" y2="361.86"/><line class="cls-1" x1="299.73" y1="375.14" x2="204.13" y2="375.14"/><line class="cls-1" x1="299.73" y1="388.43" x2="204.13" y2="388.43"/><line class="cls-1" x1="299.73" y1="400.43" x2="204.13" y2="400.43"/><line class="cls-1" x1="299.73" y1="413.71" x2="204.13" y2="413.71"/><line class="cls-1" x1="299.73" y1="427" x2="204.13" y2="427"/><line class="cls-1" x1="451.82" y1="464.71" x2="356.21" y2="464.71"/><line class="cls-1" x1="451.82" y1="478" x2="356.21" y2="478"/><line class="cls-1" x1="451.82" y1="491.29" x2="356.21" y2="491.29"/><line class="cls-1" x1="147.64" y1="323.29" x2="52.04" y2="323.29"/><line class="cls-1" x1="147.64" y1="336.57" x2="52.04" y2="336.57"/><line class="cls-1" x1="147.64" y1="349.86" x2="52.04" y2="349.86"/><line class="cls-1" x1="147.64" y1="464.71" x2="52.04" y2="464.71"/><line class="cls-1" x1="147.64" y1="478" x2="52.04" y2="478"/><line class="cls-1" x1="147.64" y1="491.29" x2="52.04" y2="491.29"/><line class="cls-1" x1="147.64" y1="252.57" x2="52.04" y2="252.57"/><line class="cls-1" x1="147.64" y1="265.86" x2="52.04" y2="265.86"/><line class="cls-1" x1="147.64" y1="279.14" x2="52.04" y2="279.14"/><path class="cls-4" d="M177.54,75.55a7.2,7.2,0,0,1-.62,3,7.43,7.43,0,0,1-1.68,2.36,9,9,0,0,1-2.53,1.63,7.1,7.1,0,0,1-2.84.57,6.89,6.89,0,0,1-5.27-2.33,8.32,8.32,0,0,1-2-5.72,7.94,7.94,0,0,1,1-3.56,17.58,17.58,0,0,1,2.75-3.82l-.24-.27a1.45,1.45,0,0,0-.22-.21l-.17-.18-.19-.21-.18-.18a.52.52,0,0,0-.1-.11l3.43-3.45,7.14,7.31A7.28,7.28,0,0,1,177.54,75.55ZM173,75.28a1.58,1.58,0,0,0-.43-1.07c-.4-.4-.78-.79-1.14-1.18l-1.08-1.15h0l-.25-.26-.22-.25c-1.93,1.89-2.9,3.24-2.9,4.07a1.72,1.72,0,0,0,.25.85,3.54,3.54,0,0,0,.68.86,3.58,3.58,0,0,0,2.3.72,3.45,3.45,0,0,0,1.15-.17,2,2,0,0,0,.81-.51A2.71,2.71,0,0,0,173,75.28Z"/><path class="cls-4" d="M197.54,82.69a7.41,7.41,0,0,1-2.29-.31,4.72,4.72,0,0,1-1.67-.92,14.8,14.8,0,0,1-.79,3.78,12.1,12.1,0,0,1-1.6,3.09A9.43,9.43,0,0,1,188,91.06a9.11,9.11,0,0,1-4.19,1h-5.09l-.91-5.43h5.81a6.17,6.17,0,0,0,2-.33,5.45,5.45,0,0,0,1.69-.92,6.38,6.38,0,0,0,1.22-1.57,3.59,3.59,0,0,0,.45-1.69V69.31h4.61V75.5c0,1.09,1.32,1.67,4,1.76Zm-7.76-17.62a2.47,2.47,0,0,1-.22,1A2.69,2.69,0,0,1,189,67a3,3,0,0,1-.87.54,2.66,2.66,0,0,1-1,.2,3,3,0,0,1-2-.7,2.43,2.43,0,0,1-.93-2c0-1.51.93-2.27,2.77-2.27S189.78,63.56,189.78,65.07Zm3.65-5.43a2.45,2.45,0,0,1-.79,1.87,2.68,2.68,0,0,1-1.89.7,3.34,3.34,0,0,1-2.07-.68,2.38,2.38,0,0,1-.88-1.89c0-1.51.89-2.26,2.66-2.26C192.44,57.38,193.43,58.13,193.43,59.64Zm3.78,5.43a2.56,2.56,0,0,1-.23,1.06,3.11,3.11,0,0,1-.61.87,3.16,3.16,0,0,1-.83.53,2.47,2.47,0,0,1-1,.19,3.14,3.14,0,0,1-1.1-.19,3.79,3.79,0,0,1-.94-.53,2.35,2.35,0,0,1-1-1.93c0-1.51.91-2.27,2.73-2.27s3,.76,3,2.27Z"/><path class="cls-4" d="M201.56,88.38c0,1.57-.89,2.35-2.66,2.35-2,0-3-.78-3-2.35a2.51,2.51,0,0,1,.78-1.86,2.45,2.45,0,0,1,.86-.52,3,3,0,0,1,1.06-.19C200.57,85.81,201.56,86.67,201.56,88.38Zm8.52-12.57a7.84,7.84,0,0,1-.41,2.59,6.82,6.82,0,0,1-1.12,2.07,6.9,6.9,0,0,1-1.93,1.6,4.37,4.37,0,0,1-2.2.62H196V77.26h7.15a2.71,2.71,0,0,0,1.79-.45,2,2,0,0,0,.49-1.55v-6H210Zm-1.14,12.57c0,1.57-.91,2.35-2.72,2.35s-2.93-.78-2.93-2.35a2.58,2.58,0,0,1,.77-1.87,2.85,2.85,0,0,1,1.87-.7C207.94,85.81,208.94,86.67,208.94,88.38Z"/><path class="cls-4" d="M229.4,82.34a9.63,9.63,0,0,1-.74,3.82,9,9,0,0,1-2.18,3,12,12,0,0,1-3.22,2.08,9,9,0,0,1-3.57.74h-5.15l-.68-5.43h5.23a5.72,5.72,0,0,0,4-1.32,5.24,5.24,0,0,0,1-1.2,5.79,5.79,0,0,0,.62-1.39,19.73,19.73,0,0,1-3.67-.4,10,10,0,0,1-2.71-.94,6,6,0,0,1-2.22-2.6,9.84,9.84,0,0,1-.76-4.08c0-3.46.77-5.85,2.33-7.19a7.11,7.11,0,0,1,4.76-1.34,6,6,0,0,1,6.07,4.07,14.63,14.63,0,0,1,.67,3,37,37,0,0,1,.23,4.34Zm-4.59-8c0-1.83-.82-2.74-2.44-2.74-1.09,0-1.76.23-2,.7v-.09a6.58,6.58,0,0,0-.23,1.07,10,10,0,0,0-.1,1.55A2.15,2.15,0,0,0,221.55,77a4,4,0,0,0,1.23.22c.58,0,1.25.08,2,.09Z"/><path class="cls-4" d="M264.84,82.69a8.74,8.74,0,0,1-4.13-.73,10.21,10.21,0,0,1-1.08-.89c-.54-.47-1.37-1.24-2.5-2.29a8,8,0,0,1-2.89,3.3,7.68,7.68,0,0,1-4,1,7.25,7.25,0,0,1-5.37-2.25,7.74,7.74,0,0,1-2.13-5.71,6,6,0,0,1,.28-1.73,10.46,10.46,0,0,1,.78-1.86,14.46,14.46,0,0,1,1.2-1.9c.5-.69,1-1.36,1.59-2l-.19-.24a1.59,1.59,0,0,0-.2-.24l-.64-.66L248.88,63l11.49,12.08a14.81,14.81,0,0,0,1,1.1,5.09,5.09,0,0,0,.66.57h0a7.3,7.3,0,0,0,2.81.52Zm-11.49-7.27a1.82,1.82,0,0,0-.16-.76,2.29,2.29,0,0,0-.39-.63l-1.35-1.35c-.46-.46-.91-.91-1.35-1.33l-.17.15-.14.18-.92.9c-.24.22-.43.41-.58.57a7.67,7.67,0,0,0-.71,1.21,2.6,2.6,0,0,0-.27,1.06,2.51,2.51,0,0,0,.87,1.75h0a2.93,2.93,0,0,0,2.07.66,3.36,3.36,0,0,0,2.2-.73,4.21,4.21,0,0,0,.66-.85,1.63,1.63,0,0,0,.24-.83Z"/><path class="cls-4" d="M287.41,82.69a9.94,9.94,0,0,1-4.31-.78,4.29,4.29,0,0,1-2.2-2.14.57.57,0,0,0-.07-.22,1.48,1.48,0,0,1-.12-.29v-.1a.43.43,0,0,1,0-.16,1.42,1.42,0,0,0-.11-.35v-.07c-.75.44-1.49.84-2.21,1.22s-1.41.71-2,1-1.23.55-1.76.76a14.31,14.31,0,0,1-1.4.46,20.43,20.43,0,0,1-3.39.44q-2.28.15-5.79.22V77.26h3.36a18.44,18.44,0,0,0,3.78-.39,21.45,21.45,0,0,0,3.58-1.1h0l.7-.36,1.16-.62c.47-.26,1.05-.57,1.73-1l2.43-1.38a5.24,5.24,0,0,0-1.69-.75A14.56,14.56,0,0,0,277,71.6h-1.37L273,71.54h-1.74c-.67,0-1.33,0-1.95-.05l-.69-5.3h9.67c2.64,0,4.61.77,5.92,2.29s2,3.82,2.06,6.9l-2.9,1.6a5.34,5.34,0,0,0,1.49.24c.69,0,1.6.07,2.73.07Zm-6.6-3.17.09.25-.11-.16Z"/><path class="cls-4" d="M306.74,82.82a8.92,8.92,0,0,0-2.57-.26l-3.73-.07a8.47,8.47,0,0,1-1.74-.23,7.85,7.85,0,0,1-1.69-.58,13.5,13.5,0,0,1-3.82.76c-1.81.16-4.18.25-7.12.25V77.26h4.46a9,9,0,0,1-.82-1.94,7.46,7.46,0,0,1-.3-2.1,7.68,7.68,0,0,1,.55-3,5.32,5.32,0,0,1,1.56-2.13h0a7.35,7.35,0,0,1,5-1.94,6.19,6.19,0,0,1,2.68.58,6.4,6.4,0,0,1,2.19,1.67,7.28,7.28,0,0,1,1.32,2.29,9.67,9.67,0,0,1-.24,6.56h4.26ZM299.54,60a2.87,2.87,0,0,1-.86,2.09,3,3,0,0,1-2.13.83c-2,0-3-1-3-2.92,0-1.67,1-2.5,2.91-2.5S299.54,58.34,299.54,60ZM299,73.92a1.72,1.72,0,0,0-.23-.8,4.84,4.84,0,0,0-.58-.91h0a2.37,2.37,0,0,0-.78-.59,2.28,2.28,0,0,0-1-.22,2.43,2.43,0,0,0-1.8.63,2.06,2.06,0,0,0-.75,1.41,2.18,2.18,0,0,0,.86,1.53,9.47,9.47,0,0,0,2.41,1.48,7.89,7.89,0,0,0,1.4-1.37A2.06,2.06,0,0,0,299,73.92Z"/><path class="cls-4" d="M337.83,74.58v.87a7.31,7.31,0,0,1-.11.94c0,.31-.1.63-.15.93s-.12.56-.18.8a11.32,11.32,0,0,1-1,2.38,3.8,3.8,0,0,1-1.29,1.44,8.8,8.8,0,0,1-4.11.75h-9.41a6.22,6.22,0,0,1-3.1-.76,6.57,6.57,0,0,1-2.24-2.08c-1.51,1.89-3.13,2.84-4.88,2.84h-4.92V77.26h4.49c1.46,0,2.19-.64,2.19-1.93v-6h4.53V75c0,1.47,1,2.24,2.92,2.31Q325,66.16,331,66.16a4.8,4.8,0,0,1,1.5.28,9.13,9.13,0,0,1,1.57.69,7.15,7.15,0,0,1,2.84,3A9.75,9.75,0,0,1,337.83,74.58Zm-4.52,0a3,3,0,0,0-.9-2.57,1.26,1.26,0,0,0-1-.33,4.28,4.28,0,0,0-2.84,1.44,18.62,18.62,0,0,0-3.09,4.18h6.13c1.15,0,1.7-1,1.7-2.76Z"/></g></g></svg>