<svg xmlns="http://www.w3.org/2000/svg" width="26.5" height="26.5" viewBox="0 0 26.5 26.5">
  <g id="Group_2398" data-name="Group 2398" transform="translate(1 3)">
    <path id="Stroke_3" data-name="Stroke 3" d="M0,12.5C0,21.874,3.126,25,12.5,25S25,21.874,25,12.5,21.874,0,12.5,0,0,3.126,0,12.5Z" transform="translate(-0.25 -2.25)" fill="#fcc155" stroke="#fcc155" stroke-linecap="round" stroke-linejoin="round" stroke-miterlimit="10" stroke-width="1.5"/>
    <g id="Iconly_Bold_Notification" data-name="Iconly/Bold/Notification" transform="translate(4.75 2.75)">
      <g id="Notification" transform="translate(2.188 1.25)">
        <path id="Notification-2" data-name="Notification" d="M4.989,12.479a2.262,2.262,0,0,1-1.071-.458.97.97,0,0,1-.435-.733c0-.315.289-.459.556-.521a16.222,16.222,0,0,1,2.529,0c.267.062.556.206.556.521a.971.971,0,0,1-.434.733,2.272,2.272,0,0,1-1.07.457,2.5,2.5,0,0,1-.32.021A2.292,2.292,0,0,1,4.989,12.479ZM2.352,9.842A2.834,2.834,0,0,1,.54,8.959,2.259,2.259,0,0,1,0,7.472,2.105,2.105,0,0,1,.457,6.028a2.373,2.373,0,0,0,.664-1.781V3.981a3.516,3.516,0,0,1,.8-2.411A4.421,4.421,0,0,1,5.285,0h.056A4.4,4.4,0,0,1,8.758,1.64,3.466,3.466,0,0,1,9.5,3.981v.266a2.43,2.43,0,0,0,.664,1.781,2.1,2.1,0,0,1,.457,1.444,2.259,2.259,0,0,1-.539,1.487,2.837,2.837,0,0,1-1.812.883c-.982.083-1.965.154-2.96.154A26.055,26.055,0,0,1,2.352,9.842Z" fill="#f5f6fa"/>
      </g>
    </g>
  </g>
</svg>
