<svg xmlns="http://www.w3.org/2000/svg" width="90.676" height="97.362" viewBox="0 0 90.676 97.362">
  <path id="Path_193" data-name="Path 193" d="M194.938,132.679c-2.226-10.34-5.991-18.265-12.365-27.558a90.79,90.79,0,0,0-9.482-11.934c-3.12-3.492-6.8-7.272-11.187-11.48-.542-.53-1.222-1.194-1.682-1.66-.785-.8-1.095-.134-1.095-.134l-.913,1.666-.065.114c-5.023,9.282-5.891,9.872-4.166,11.2-25.282,11.64-27.868,45.968-27.006,50.24-5.08,1.941-16.765,2.083-20.758,2.074a1.37,1.37,0,0,0-1.37,1.37v19.281a1.37,1.37,0,0,0,1.448,1.362c18.963-1.152,27.717-5.137,33.462-7.434,8.334-3.241,6.751-3.093,14.223,0,1.292.59,2.728,1.179,4.166,1.916a44.588,44.588,0,0,1,14.94,10.755c.385.395.769.906,1.155,1.327l2.315,2.775a1.268,1.268,0,0,0,1.952,0l2.319-2.783c.663-.819,1.219-1.506,1.748-2.209,11.737-15.621,12.924-28.041,12.932-29.706A43.946,43.946,0,0,0,194.938,132.679Zm-59.916-7.816c.288-2.063,2.155-4.715,4.885-7.66,4.167-4.566,10.918-10.461,14.366-5.452a14.189,14.189,0,0,1,3.881,6.629,36.127,36.127,0,0,1,.718,9.872,2.527,2.527,0,0,0-.718.588C150.106,134.586,134.016,135.323,135.022,124.862Zm48.557,21.657a8.344,8.344,0,0,0-1.006.589c-2.012.885-5.6.443-9.482-.589a91.2,91.2,0,0,1-11.923-4.714c-1.724-.737-2.731-1.327-3.017-1.916a1.36,1.36,0,0,1,0-1.474c.862-2.062,4.741-5.594,7.614-13.849a26.882,26.882,0,0,0,1.292-7.366c0-3.242.288-7.368,2.875-2.211a53.109,53.109,0,0,0,3.159,5.452c3.018,5.008,7.184,12.08,9.482,17.532C184.441,142.394,185.3,145.783,183.58,146.519Z" transform="translate(-104.85 -79.654)" fill="#fff" opacity="0.39"/>
</svg>
