<svg xmlns="http://www.w3.org/2000/svg" width="16.289" height="21.423" viewBox="0 0 16.289 21.423">
  <g id="Group_2937" data-name="Group 2937" transform="translate(-612.03 -995.788)">
    <path id="Path_1109" data-name="Path 1109" d="M627.876,998.06l-3.347-2.123a.957.957,0,0,0-1.319.295l-11.032,17.39a.957.957,0,0,0,.295,1.319l3.347,2.122a.956.956,0,0,0,1.319-.294l11.032-17.39A.957.957,0,0,0,627.876,998.06Zm-.1,1.066-1.619,2.552-1.395-.885a.2.2,0,0,0-.211.332l1.4.885-.6.952-1.395-.885a.2.2,0,0,0-.211.332l1.4.884-.6.952-1.395-.885a.2.2,0,0,0-.211.332l1.4.885-.6.952-2.369-1.5a.2.2,0,0,0-.21.332l2.369,1.5-.6.952-1.395-.885a.2.2,0,0,0-.211.332l1.4.885-.6.952-1.395-.885a.2.2,0,0,0-.211.332l1.4.885-.6.952-1.4-.885a.2.2,0,0,0-.211.333l1.4.885-.6.952-2.37-1.5a.2.2,0,0,0-.211.332l2.369,1.5-.6.952-1.4-.885a.2.2,0,0,0-.21.332l1.395.885-.6.953-1.4-.885a.2.2,0,0,0-.21.332l1.395.885-1.869,2.946a.485.485,0,0,1-.668.149l-3.346-2.123a.483.483,0,0,1-.149-.667l11.032-17.389a.484.484,0,0,1,.668-.149l3.346,2.123A.485.485,0,0,1,627.772,999.125Z" transform="translate(0 0)" fill="#fba303"/>
    <path id="Path_1110" data-name="Path 1110" d="M635.994,999.652a.778.778,0,1,0,.24,1.073A.779.779,0,0,0,635.994,999.652Zm-.159.821a.306.306,0,1,1-.094-.423A.307.307,0,0,1,635.836,1000.474Z" transform="translate(-10.401 -1.71)" fill="#fba303"/>
  </g>
</svg>
