<svg xmlns="http://www.w3.org/2000/svg" width="30" height="30" viewBox="0 0 30 30">
  <g id="Group_2594" data-name="Group 2594" transform="translate(-1034 -482)">
    <path id="Stroke_4" data-name="Stroke 4" d="M.5,15.5C.5,3.819,3.819.5,15.5.5s15,3.319,15,15-3.319,15-15,15S.5,27.181.5,15.5Z" transform="translate(1033.5 481.5)" fill="#fba303"/>
    <g id="Iconly_Curved_Delete" data-name="Iconly/Curved/Delete" transform="translate(1038.381 486.381)">
      <g id="Delete" transform="translate(3.688 2.375)">
        <path id="Stroke_1" data-name="Stroke 1" d="M11.6,0c0,7.017,1.01,10.188-5.783,10.188S.056,7.017.056,0" transform="translate(1.238 5.985)" fill="none" stroke="#f5f6fa" stroke-linecap="round" stroke-linejoin="round" stroke-miterlimit="10" stroke-width="1.5"/>
        <path id="Stroke_3" data-name="Stroke 3" d="M14.132.476H0" transform="translate(0 2.819)" fill="none" stroke="#f5f6fa" stroke-linecap="round" stroke-linejoin="round" stroke-miterlimit="10" stroke-width="1.5"/>
        <path id="Stroke_5" data-name="Stroke 5" d="M6.015,3.3a2.806,2.806,0,0,0-3-3.3,2.806,2.806,0,0,0-3,3.3" transform="translate(4.048)" fill="none" stroke="#f5f6fa" stroke-linecap="round" stroke-linejoin="round" stroke-miterlimit="10" stroke-width="1.5"/>
      </g>
    </g>
  </g>
</svg>
