<svg xmlns="http://www.w3.org/2000/svg" width="39.125" height="39.125" viewBox="0 0 39.125 39.125">
  <g id="Group_808" data-name="Group 808" transform="translate(-291.949 -12.102)">
    <path id="Stroke_3" data-name="Stroke 3" d="M0,19.563C0,4.892,4.892,0,19.563,0S39.125,4.892,39.125,19.563,34.233,39.125,19.563,39.125,0,34.233,0,19.563Z" transform="translate(291.949 12.102)" fill="#474546"/>
    <g id="wrench_1_" data-name="wrench (1)" transform="translate(302.495 22.648)">
      <g id="Group_744" data-name="Group 744" transform="translate(0 0)">
        <g id="Group_743" data-name="Group 743" transform="translate(0)">
          <path id="Path_49" data-name="Path 49" d="M18,2.723a.529.529,0,0,0-.9-.3l-.747.748a1.082,1.082,0,0,1-1.495,0,1.056,1.056,0,0,1,0-1.494L15.612.93a.529.529,0,0,0-.3-.9A3.17,3.17,0,0,0,11.8,3.992L3.991,11.8h0A3.171,3.171,0,0,0,.031,15.314a.529.529,0,0,0,.9.3l.747-.748a1.082,1.082,0,0,1,1.495,0,1.056,1.056,0,0,1,0,1.494l-.747.747a.529.529,0,0,0,.3.9,3.17,3.17,0,0,0,3.51-3.959l7.812-7.811h0A3.171,3.171,0,0,0,18,2.723Z" transform="translate(0 -0.002)" fill="#fcc155"/>
        </g>
      </g>
      <g id="Group_746" data-name="Group 746" transform="translate(9.764 9.764)">
        <g id="Group_745" data-name="Group 745">
          <path id="Path_50" data-name="Path 50" d="M282.311,279.139a3.119,3.119,0,0,0-.81.118l-2.048-2.047-2.242,2.242,2.047,2.048a3.126,3.126,0,0,0-.118.811,3.17,3.17,0,1,0,3.17-3.17Zm1.734,3.064-.314,1.172a.529.529,0,0,1-.374.374l-1.172.314a.528.528,0,0,1-.51-.137l-.858-.858a.528.528,0,0,1-.137-.51l.314-1.172a.529.529,0,0,1,.374-.374l1.172-.314a.525.525,0,0,1,.51.137l.858.858A.527.527,0,0,1,284.044,282.2Z" transform="translate(-277.211 -277.209)" fill="#fcc155"/>
        </g>
      </g>
      <g id="Group_748" data-name="Group 748" transform="translate(0 0)">
        <g id="Group_747" data-name="Group 747" transform="translate(0)">
          <path id="Path_51" data-name="Path 51" d="M6.232,3.96A3.182,3.182,0,0,0,5.411.9,3.247,3.247,0,0,0,.928.9,3.17,3.17,0,0,0,3.99,6.2L6.029,8.27,8.27,6.028ZM4.85,2.981,4.536,4.153a.529.529,0,0,1-.374.374L2.99,4.841A.528.528,0,0,1,2.48,4.7l-.858-.858a.528.528,0,0,1-.137-.51L1.8,2.163a.529.529,0,0,1,.374-.374l1.172-.314a.526.526,0,0,1,.51.137l.858.858A.528.528,0,0,1,4.85,2.981Z" transform="translate(-0.001 0)" fill="#fcc155"/>
        </g>
      </g>
    </g>
  </g>
</svg>
