<svg xmlns="http://www.w3.org/2000/svg" width="39.125" height="39.125" viewBox="0 0 39.125 39.125">
  <g id="Group_808" data-name="Group 808" transform="translate(-291.949 -12.102)">
    <path id="Stroke_3" data-name="Stroke 3" d="M0,19.563C0,4.892,4.892,0,19.563,0S39.125,4.892,39.125,19.563,34.233,39.125,19.563,39.125,0,34.233,0,19.563Z" transform="translate(291.949 12.102)" fill="#474546"/>
    <path id="XMLID_1435_" d="M21.8,78.209,12.18,72.632v-.415a1.316,1.316,0,0,1,.7-1.149,2.9,2.9,0,1,0-4.279-2.552.674.674,0,0,0,1.348,0,1.552,1.552,0,0,1,1.613-1.551,1.553,1.553,0,0,1,.676,2.918,2.662,2.662,0,0,0-1.411,2.334v.415L1.208,78.209a2.423,2.423,0,0,0,1.215,4.52H20.588a2.423,2.423,0,0,0,1.215-4.52ZM20.588,81.38H2.423a1.075,1.075,0,0,1-.539-2L11.505,73.8l9.621,5.575a1.075,1.075,0,0,1-.539,2Z" transform="translate(299.955 -44.242)" fill="#fcc155"/>
  </g>
</svg>
