<svg xmlns="http://www.w3.org/2000/svg" width="39.125" height="39.125" viewBox="0 0 39.125 39.125">
  <g id="Group_808" data-name="Group 808" transform="translate(-291.949 -12.102)">
    <path id="Stroke_3" data-name="Stroke 3" d="M0,19.563C0,4.892,4.892,0,19.563,0S39.125,4.892,39.125,19.563,34.233,39.125,19.563,39.125,0,34.233,0,19.563Z" transform="translate(291.949 12.102)" fill="#474546"/>
    <g id="Group_812" data-name="Group 812" transform="translate(302.588 22.651)">
      <path id="Path_54" data-name="Path 54" d="M17.694,69.765a.807.807,0,0,0-1.039-.773,27.13,27.13,0,0,1-15.617,0A.807.807,0,0,0,0,69.765V80.238a8.847,8.847,0,0,0,17.694,0ZM3.669,77.343a.807.807,0,0,1,.015-.815,2.319,2.319,0,0,1,1.993-1.119h0a2.318,2.318,0,0,1,1.993,1.119.807.807,0,0,1-.689,1.227H4.373A.807.807,0,0,1,3.669,77.343Zm9.551,5.042a6.093,6.093,0,0,1-8.747,0,.807.807,0,0,1,1.158-1.124,4.479,4.479,0,0,0,6.43,0,.807.807,0,0,1,1.158,1.124Zm.8-5.042a.807.807,0,0,1-.7.412H10.712a.807.807,0,0,1-.689-1.227,2.319,2.319,0,0,1,1.993-1.119h0a2.318,2.318,0,0,1,1.993,1.119A.807.807,0,0,1,14.025,77.343Z" transform="translate(0 -68.958)" fill="#fcc155"/>
    </g>
  </g>
</svg>
