<svg xmlns="http://www.w3.org/2000/svg" width="39.125" height="39.125" viewBox="0 0 39.125 39.125">
  <g id="Group_808" data-name="Group 808" transform="translate(-291.949 -12.102)">
    <path id="Stroke_3" data-name="Stroke 3" d="M0,19.563C0,4.892,4.892,0,19.563,0S39.125,4.892,39.125,19.563,34.233,39.125,19.563,39.125,0,34.233,0,19.563Z" transform="translate(291.949 12.102)" fill="#474546"/>
    <path id="Path_88" data-name="Path 88" d="M282.658,347.441l-.627-3.413,4.394-1.9v5.537H282.7Zm-.749-4.081-.7-3.808,5.218-2.263V341.4Zm-.824-4.475-.673-3.674,6.013-2.612v3.97Zm-.795-4.342-.778-4.231-.035-.186.162-.1,6.391-3.685.394-.226v5.763Zm16.53-2.461,6.512,1.538-.261,1.678-6.925,3.43Zm6.129,4-.435,2.827-6.716,3.227.267-2.647Zm-.551,3.6-.453,2.931-6.495,2.926.273-2.653Zm-.575,3.7-.656,4.272h-5.932l.139-1.364Zm-14.772-19.554-.017,9.043,9.3-.958.4-4.011Zm-.017,9.693-.006,2.345,9-.83.244-2.467Zm-.012,2.995v2.438l8.683-.656.255-2.606Zm-.006,3.094L287,347.69h7.772l.865-8.718Z" transform="translate(20.045 -304.661)" fill="#fcc155" fill-rule="evenodd"/>
  </g>
</svg>
