<svg xmlns="http://www.w3.org/2000/svg" width="39.125" height="39.125" viewBox="0 0 39.125 39.125">
  <g id="Group_808" data-name="Group 808" transform="translate(-291.949 -12.102)">
    <path id="Stroke_3" data-name="Stroke 3" d="M0,19.563C0,4.892,4.892,0,19.563,0S39.125,4.892,39.125,19.563,34.233,39.125,19.563,39.125,0,34.233,0,19.563Z" transform="translate(291.949 12.102)" fill="#474546"/>
    <g id="Group_796" data-name="Group 796" transform="translate(194.298 -207.986)">
      <g id="Group_806" data-name="Group 806" transform="translate(101.194 232.448)">
        <g id="Group_798" data-name="Group 798">
          <g id="Group_796-2" data-name="Group 796">
            <path id="Path_89" data-name="Path 89" d="M131.894,241.624a30.79,30.79,0,0,0-.173-3.354l-.037-.352.307-.178c.145-.085.289-.171.434-.258-.763-1-1.906-1.874-2.2-2.615-.28-.7.192-.437.567-.383.226.033.216-.29.216-.29.164.074-2.644-1.258-9.663-1.715a14.6,14.6,0,0,0-11.127,4.3s-.289.327-5.515.622a3.242,3.242,0,0,0-3.351,2.469,3.459,3.459,0,0,1,.464-1.057h1.926s.64.27-.3,1.3a8.515,8.515,0,0,1-2.169.153,6.025,6.025,0,0,0-.068,1.228l2.407.32v.565h1.219a2.886,2.886,0,0,1,.133-.314,3.737,3.737,0,0,1,7.123,1.533H122.9a3.589,3.589,0,0,1,.351-1.533,3.738,3.738,0,0,1,7.043.8l.817-1.039.946.194-.165-.128Zm-10.6-3.457a.153.153,0,0,1-.152.154l-1.9.006a.153.153,0,0,1,0-.307l1.9-.091C121.233,237.929,121.373,237.982,121.3,238.167Zm1.032-.938-9.156.018a.6.6,0,0,1-.071.125.821.821,0,0,1-.624.257h-.21a1.135,1.135,0,0,1-1.038-.381h-.011s0-.007,0-.01-.02-.026-.029-.043c-.115-.229.175-.985.178-.993a1.47,1.47,0,0,1,.772-.92.857.857,0,0,1,.3-.054.642.642,0,0,1,.514.24,12.682,12.682,0,0,1,4.927-1.916,38.516,38.516,0,0,1,4.526-.071Zm7.272.938a.153.153,0,0,1-.151.154l-1.9.006a.153.153,0,0,1,0-.307l1.905-.091C129.537,237.929,129.676,237.982,129.6,238.167Zm-6.7-.918v-3.757s4.924.383,5.934,1.11c0,0,.122,2.4,1.01,2.646Z" transform="translate(-101.194 -232.448)" fill="#fcc155"/>
          </g>
          <g id="Group_797" data-name="Group 797" transform="translate(0.079 7.484)">
            <path id="Path_90" data-name="Path 90" d="M101.412,247.059c-.025.1-.047.2-.064.3C101.365,247.26,101.387,247.159,101.412,247.059Z" transform="translate(-101.348 -247.059)" fill="#fcc155"/>
          </g>
        </g>
        <g id="Group_799" data-name="Group 799" transform="translate(31.071 5.476)">
          <path id="Path_91" data-name="Path 91" d="M162.5,243.418q.17.473.326.957-.135,1.4-.393,2.777c-.134-.106-.268-.21-.4-.312a31.318,31.318,0,0,0-.176-3.413c.162-.1.325-.191.486-.288Z" transform="translate(-161.854 -243.138)" fill="#fcc155"/>
        </g>
        <g id="Group_800" data-name="Group 800" transform="translate(0.051 9.603)">
          <path id="Path_92" data-name="Path 92" d="M101.294,251.2a8.5,8.5,0,0,0,.321,1.546h3.106v-.672h-1.612v-.632Z" transform="translate(-101.294 -251.196)" fill="#fcc155"/>
        </g>
        <g id="Group_801" data-name="Group 801" transform="translate(22.241 7.995)">
          <path id="Path_93" data-name="Path 93" d="M147.82,248.056a3.205,3.205,0,1,0,3.2,3.2A3.2,3.2,0,0,0,147.82,248.056Zm0,5.074a1.87,1.87,0,1,1,1.87-1.87A1.872,1.872,0,0,1,147.82,253.13Z" transform="translate(-144.616 -248.056)" fill="#fcc155"/>
        </g>
        <g id="Group_802" data-name="Group 802" transform="translate(24.911 10.665)">
          <path id="Path_94" data-name="Path 94" d="M150.363,254.339a.534.534,0,1,1,.535-.535A.535.535,0,0,1,150.363,254.339Z" transform="translate(-149.828 -253.27)" fill="#fcc155"/>
        </g>
        <g id="Group_803" data-name="Group 803" transform="translate(3.947 7.995)">
          <path id="Path_95" data-name="Path 95" d="M112.1,248.056a3.205,3.205,0,1,0,3.2,3.2A3.205,3.205,0,0,0,112.1,248.056Zm0,5.074a1.87,1.87,0,1,1,1.87-1.87A1.872,1.872,0,0,1,112.1,253.13Z" transform="translate(-108.899 -248.056)" fill="#fcc155"/>
        </g>
        <g id="Group_804" data-name="Group 804" transform="translate(6.617 10.665)">
          <path id="Path_96" data-name="Path 96" d="M114.647,254.339a.534.534,0,1,1,.535-.535A.535.535,0,0,1,114.647,254.339Z" transform="translate(-114.113 -253.27)" fill="#fcc155"/>
        </g>
        <g id="Group_805" data-name="Group 805" transform="translate(29.224 9.985)">
          <path id="Path_97" data-name="Path 97" d="M160.507,252.216l-1.343-.274-.915,1.164h2.043S160.387,252.749,160.507,252.216Z" transform="translate(-158.249 -251.942)" fill="#fcc155"/>
        </g>
      </g>
      <g id="Group_807" data-name="Group 807" transform="translate(111.435 235.502)">
        <path id="Path_98" data-name="Path 98" d="M122.722,239.87l-.162-1.195c-.029-.215-.29-.329-.569-.227-.6.221-.83,1.475-.8,1.532.158.308.564.287,1.04.284C122.531,240.264,122.751,240.085,122.722,239.87Z" transform="translate(-121.188 -238.41)" fill="#fcc155"/>
      </g>
    </g>
  </g>
</svg>
