<svg xmlns="http://www.w3.org/2000/svg" width="39.125" height="39.125" viewBox="0 0 39.125 39.125">
  <g id="Group_808" data-name="Group 808" transform="translate(-291.949 -12.102)">
    <path id="Stroke_3" data-name="Stroke 3" d="M0,19.563C0,4.892,4.892,0,19.563,0S39.125,4.892,39.125,19.563,34.233,39.125,19.563,39.125,0,34.233,0,19.563Z" transform="translate(291.949 12.102)" fill="#474546"/>
    <g id="Group_783" data-name="Group 783" transform="translate(22455.73 -7526.328)">
      <g id="Group_736" data-name="Group 736" transform="translate(-22157.203 7548.944)">
        <rect id="Rectangle_167" data-name="Rectangle 167" width="22.273" height="15.42" rx="2.905" transform="translate(2.142 0)" fill="#474546" stroke="#fcc155" stroke-miterlimit="10" stroke-width="2"/>
        <rect id="Rectangle_174" data-name="Rectangle 174" width="22.273" height="15.42" rx="2.905" transform="translate(2.142 0)" fill="none"/>
        <rect id="Rectangle_168" data-name="Rectangle 168" width="26.557" height="2.227" rx="1.114" transform="translate(0 17.607)" fill="#fcc155"/>
        <path id="Path_38" data-name="Path 38" d="M733.615,543.554a.607.607,0,1,1-.607-.607A.607.607,0,0,1,733.615,543.554Z" transform="translate(-708.754 -524.834)" fill="#474546"/>
      </g>
    </g>
  </g>
</svg>
