<svg xmlns="http://www.w3.org/2000/svg" width="39.125" height="39.125" viewBox="0 0 39.125 39.125">
  <g id="Group_808" data-name="Group 808" transform="translate(-291.949 -12.102)">
    <path id="Stroke_3" data-name="Stroke 3" d="M0,19.563C0,4.892,4.892,0,19.563,0S39.125,4.892,39.125,19.563,34.233,39.125,19.563,39.125,0,34.233,0,19.563Z" transform="translate(291.949 12.102)" fill="#474546"/>
    <g id="Group_811" data-name="Group 811" transform="translate(300.628 20.344)">
      <path id="Path_47" data-name="Path 47" d="M81.771,11.406v.011a4.392,4.392,0,0,1,.572,2.177v.843a15.1,15.1,0,0,1,5.45-.96,15.428,15.428,0,0,1,5.523.957l.007-.841a4.791,4.791,0,0,1,.589-2.378l.849-5.59a4.732,4.732,0,0,0-1.068-3.863,5.246,5.246,0,0,0-4-1.762H85.976a5.236,5.236,0,0,0-4,1.763A4.736,4.736,0,0,0,80.9,5.626Z" transform="translate(-77.31 0)" fill="#fcc155"/>
      <path id="Path_48" data-name="Path 48" d="M24.834,224c-1.631,0-2.484,1.566-2.484,3.112v.926a1.012,1.012,0,0,1-.423.843.806.806,0,0,1-.764.073,14.21,14.21,0,0,0-5.341-.961,13.985,13.985,0,0,0-5.261.961.806.806,0,0,1-.765-.073,1.016,1.016,0,0,1-.423-.843v-.927A2.906,2.906,0,0,0,6.643,224c-.843,0-1.3,1-1.3,1.507a1.813,1.813,0,0,0,.969,1.547c.054.024.114.05.178.073.485.194,1.388.554,1.388,1.588v2.007c0,.749.161,2.4,1.508,2.706a.477.477,0,0,0-.011.055v1a.5.5,0,0,0,.5.5h.5a.5.5,0,0,0,.5-.5v-1h9.983v1a.5.5,0,0,0,.5.5h.5a.5.5,0,0,0,.5-.5v-1c0-.014-.007-.026-.008-.039,1.229-.235,1.505-1.576,1.505-2.721v-2.007a1.767,1.767,0,0,1,1.382-1.589l.175-.072a1.764,1.764,0,0,0,.9-1.547A1.7,1.7,0,0,0,24.834,224Z" transform="translate(-5.34 -213.518)" fill="#fcc155"/>
    </g>
  </g>
</svg>
