<svg xmlns="http://www.w3.org/2000/svg" width="39.125" height="39.125" viewBox="0 0 39.125 39.125">
  <g id="Group_808" data-name="Group 808" transform="translate(-291.949 -12.102)">
    <path id="Stroke_3" data-name="Stroke 3" d="M0,19.563C0,4.892,4.892,0,19.563,0S39.125,4.892,39.125,19.563,34.233,39.125,19.563,39.125,0,34.233,0,19.563Z" transform="translate(291.949 12.102)" fill="#474546"/>
    <path id="wheel" d="M17.943,7.929l-1.007-.1a7.758,7.758,0,0,0-.272-1.022l.82-.59A.775.775,0,0,0,17.7,5.2l-.62-1.073a.775.775,0,0,0-.992-.32l-.918.415a7.775,7.775,0,0,0-.75-.75l.415-.919a.776.776,0,0,0-.32-.992L13.446.939a.775.775,0,0,0-1.019.219l-.59.82a7.639,7.639,0,0,0-1.022-.272L10.714.7A.775.775,0,0,0,9.94,0H8.7a.774.774,0,0,0-.773.7l-.1,1.007a7.758,7.758,0,0,0-1.022.272l-.59-.819A.775.775,0,0,0,5.2.939l-1.072.619a.775.775,0,0,0-.32.993l.415.918a7.6,7.6,0,0,0-.75.75L2.55,3.8a.775.775,0,0,0-.992.321L.939,5.2a.775.775,0,0,0,.219,1.019l.82.59a7.639,7.639,0,0,0-.272,1.022L.7,7.929A.775.775,0,0,0,0,8.7V9.941a.774.774,0,0,0,.7.773l1.007.1a7.758,7.758,0,0,0,.272,1.022l-.82.59a.775.775,0,0,0-.219,1.019l.619,1.073a.774.774,0,0,0,.992.32l.918-.415a7.775,7.775,0,0,0,.75.75l-.415.919a.776.776,0,0,0,.32.992L5.2,17.7a.773.773,0,0,0,1.019-.219l.59-.82a7.639,7.639,0,0,0,1.022.272l.1,1.007a.777.777,0,0,0,.774.7H9.941a.774.774,0,0,0,.773-.7l.1-1.007a7.758,7.758,0,0,0,1.022-.272l.59.82a.775.775,0,0,0,1.019.219l1.073-.619a.775.775,0,0,0,.32-.992l-.415-.918a7.775,7.775,0,0,0,.75-.75l.919.415a.775.775,0,0,0,.992-.32l.619-1.073a.775.775,0,0,0-.219-1.019l-.82-.59a7.639,7.639,0,0,0,.272-1.022l1.007-.1a.777.777,0,0,0,.7-.774V8.7A.774.774,0,0,0,17.943,7.929ZM9.321,3.884A5.441,5.441,0,0,1,14.7,8.545H11.1A1.943,1.943,0,0,0,9.321,7.379a1.922,1.922,0,0,0-.212.022l-1.8-3.126a5.4,5.4,0,0,1,2.016-.391ZM3.884,9.321A5.428,5.428,0,0,1,5.961,5.054l1.8,3.12a1.909,1.909,0,0,0,0,2.294l-1.8,3.12A5.426,5.426,0,0,1,3.884,9.321Zm5.437,5.437a5.389,5.389,0,0,1-2.016-.392l1.8-3.125a1.89,1.89,0,0,0,.211.022A1.943,1.943,0,0,0,11.1,10.1h3.6A5.441,5.441,0,0,1,9.321,14.759Z" transform="translate(302.191 22.343)" fill="#fcc155"/>
  </g>
</svg>
