<svg xmlns="http://www.w3.org/2000/svg" width="39.125" height="39.125" viewBox="0 0 39.125 39.125">
  <g id="Group_808" data-name="Group 808" transform="translate(-291.949 -12.102)">
    <path id="Stroke_3" data-name="Stroke 3" d="M0,19.563C0,4.892,4.892,0,19.563,0S39.125,4.892,39.125,19.563,34.233,39.125,19.563,39.125,0,34.233,0,19.563Z" transform="translate(291.949 12.102)" fill="#474546"/>
    <g id="world" transform="translate(300.082 12.932)">
      <path id="Path_55" data-name="Path 55" d="M53.983,75.656a6.363,6.363,0,0,1-4.189-2.06c-.617-.551-1.149-1.024-1.578-1.027h-.492l.028-.492a7.989,7.989,0,0,1,7.97-7.541q.249,0,.492.014h.166l.122.113c1.315,1.212,1.341,2.555.08,3.985a16.647,16.647,0,0,1-1.73,1.617A7.371,7.371,0,0,0,53.01,72.2a.759.759,0,0,0-.012.755,2.37,2.37,0,0,0,1.137.83,5.259,5.259,0,0,1,1.282.724h.063l.284.366-.15.579h-.279a3.576,3.576,0,0,1-1.21.2Z" transform="translate(-44.927 -54.253)" fill="#fcc155"/>
      <path id="Path_56" data-name="Path 56" d="M55.8,79.381a7.989,7.989,0,0,1-7.984-7.707l-.016-.5.5.014c.541.014,1.071.488,1.742,1.085a6.049,6.049,0,0,0,4.008,1.992h.141a3.154,3.154,0,0,0,1.193-.211c.089-.047.141-.1.152-.145s.019-.075-.077-.192a3.874,3.874,0,0,0-1.355-.823,2.7,2.7,0,0,1-1.13-.811,1.074,1.074,0,0,1-.108-1.109,7.138,7.138,0,0,1,1.908-2.023,16.59,16.59,0,0,0,1.695-1.585c1.041-1.186,1.172-2.11.469-3.047l-.736-.985,1.2.234a7.942,7.942,0,0,1,3.228,1.453l.26.2-.609,2.018.647.647.949-1.723.431.607a7.934,7.934,0,0,1,1.289,2.895l.077.354-.321.162c-1.247.633-1.289.992-1.369,1.641-.087.7-.2,1.692-2.295,3.436a6.023,6.023,0,0,0-1.453,1.6,2.641,2.641,0,0,0-.3,1.782l.073.448-.431.1A8.025,8.025,0,0,1,55.8,79.381Z" transform="translate(-45.003 -53.123)" fill="none"/>
      <path id="Path_57" data-name="Path 57" d="M251.022,18.839l.4-1.31-1.678-1.58-1.852,3.34-1-1,1.188-3.912-1.425-1.343a.959.959,0,0,1-.246-1.078,1.2,1.2,0,0,1,.635-.635h.023a.959.959,0,0,1,.342-.063.974.974,0,0,1,.7.319L249.45,13l3.917-1.184,1,1-3.34,1.845,1.58,1.676,1.313-.4.813.813-1.592.884-.284.141-.129.263-.9,1.613Z" transform="translate(-231.897 -4.095)" fill="#fcc155"/>
      <path id="Path_58" data-name="Path 58" d="M215.53,181.27a2.9,2.9,0,0,1,.342-1.875,6.261,6.261,0,0,1,1.533-1.678c2.011-1.678,2.11-2.56,2.2-3.27.077-.64.216-1.137,1.308-1.737l.607-.333.075.689a8.1,8.1,0,0,1,.059.98,7.937,7.937,0,0,1-2.344,5.649,8.023,8.023,0,0,1-3.167,1.946l-.532.173Z" transform="translate(-202.866 -155.773)" fill="#fcc155"/>
      <g id="Group_767" data-name="Group 767" transform="translate(0 6.906)">
        <path id="Path_59" data-name="Path 59" d="M52.592,321.881a.352.352,0,0,0,0,.5,8.95,8.95,0,0,0,.731.663.352.352,0,1,0,.5-.5.334.334,0,0,0-.029-.026l-.023-.019c-.234-.195-.469-.4-.684-.619A.351.351,0,0,0,52.592,321.881Z" transform="translate(-49.413 -303.328)" fill="#fcc155"/>
        <path id="Path_60" data-name="Path 60" d="M1.526,157.6h.045a.352.352,0,0,0,.349-.309c.038-.3.089-.612.155-.91a.352.352,0,1,0-.677-.147c-.07.321-.124.647-.164.973A.352.352,0,0,0,1.526,157.6Z" transform="translate(-1.158 -147.166)" fill="#fcc155"/>
        <path id="Path_61" data-name="Path 61" d="M25.322,286.573a.351.351,0,0,0-.122.482h0c.169.281.352.558.546.823a.352.352,0,0,0,.567-.415c-.18-.249-.352-.506-.509-.769a.351.351,0,0,0-.482-.122Z" transform="translate(-23.677 -270.136)" fill="#fcc155"/>
        <path id="Path_62" data-name="Path 62" d="M7.244,245.62a.352.352,0,0,0-.234.436c.094.314.2.628.323.938A.357.357,0,0,0,8,246.728H8c-.113-.284-.216-.577-.3-.872a.352.352,0,0,0-.436-.234Z" transform="translate(-6.585 -231.619)" fill="#fcc155"/>
        <path id="Path_63" data-name="Path 63" d="M12.543,116.3a.352.352,0,0,0,.457-.2h0a8.428,8.428,0,0,1,.377-.842.352.352,0,0,0-.628-.316h0c-.148.293-.284.6-.4.9A.352.352,0,0,0,12.543,116.3Z" transform="translate(-11.601 -108.433)" fill="#fcc155"/>
        <path id="Path_64" data-name="Path 64" d="M.415,203.164H.474a.352.352,0,0,0,.3-.393h0c-.038-.3-.063-.614-.075-.919a.352.352,0,0,0-.7.026,7.688,7.688,0,0,0,.08.985A.352.352,0,0,0,.415,203.164Z" transform="translate(0 -190.108)" fill="#fcc155"/>
        <path id="Path_65" data-name="Path 65" d="M143.642,18.182h.068c.3-.059.609-.1.914-.134a.354.354,0,1,0-.023-.707l-.045,0c-.326.033-.654.08-.977.143a.354.354,0,1,0,.018.708.361.361,0,0,0,.048,0Z" transform="translate(-134.84 -16.729)" fill="#fcc155"/>
        <path id="Path_66" data-name="Path 66" d="M33.853,78.831a.351.351,0,0,0,.286-.145c.18-.248.373-.492.574-.722a.354.354,0,0,0-.512-.489l-.018.02a8.4,8.4,0,0,0-.614.774.352.352,0,0,0,.284.558Z" transform="translate(-31.539 -73.237)" fill="#fcc155"/>
        <path id="Path_67" data-name="Path 67" d="M190.043,17.452h.054a.353.353,0,1,0,.052-.7c-.323-.049-.654-.084-.982-.1a.352.352,0,1,0-.042.7C189.433,17.372,189.741,17.405,190.043,17.452Z" transform="translate(-177.729 -16.074)" fill="#fcc155"/>
        <path id="Path_68" data-name="Path 68" d="M64.614,49.218c.234-.2.483-.384.736-.558a.352.352,0,0,0-.4-.579c-.27.185-.534.387-.788.6a.352.352,0,1,0,.45.541Z" transform="translate(-60.284 -45.616)" fill="#fcc155"/>
        <path id="Path_69" data-name="Path 69" d="M102.16,28.314a.35.35,0,0,0,.15-.035c.277-.131.563-.251.851-.356a.352.352,0,0,0-.185-.677l-.049.016a8.753,8.753,0,0,0-.91.382.352.352,0,0,0,.15.67Z" transform="translate(-95.847 -26.045)" fill="#fcc155"/>
        <path id="Path_70" data-name="Path 70" d="M173.6,373.026a.352.352,0,1,0-.019.7h.293c.234,0,.469,0,.689-.021a.352.352,0,1,0-.045-.7A8.726,8.726,0,0,1,173.6,373.026Z" transform="translate(-163.089 -351.55)" fill="#fcc155"/>
        <path id="Path_71" data-name="Path 71" d="M346.641,240.742a.351.351,0,0,0,.45-.212h0c.11-.309.206-.626.288-.938a.352.352,0,0,0-.671-.211.4.4,0,0,0-.011.047c-.075.3-.166.593-.27.881A.352.352,0,0,0,346.641,240.742Z" transform="translate(-326.111 -225.524)" fill="#fcc155"/>
        <path id="Path_72" data-name="Path 72" d="M351.362,151.808h.059a.352.352,0,0,0,.291-.4c-.054-.324-.122-.649-.2-.966a.352.352,0,0,0-.68.178c.077.3.141.6.192.9A.351.351,0,0,0,351.362,151.808Z" transform="translate(-330.26 -141.793)" fill="#fcc155"/>
        <path id="Path_73" data-name="Path 73" d="M61.642,7.5l-3.734,1.13L56.651,7.3a1.137,1.137,0,0,0-1.294-.307h-.021a1.383,1.383,0,0,0-.752.752,1.271,1.271,0,0,0-.075.277l-.143-.049a.352.352,0,1,0-.216.67h0c.18.059.361.124.541.192a1.343,1.343,0,0,0,.19.234l1.329,1.256-.38,1.254h0a8.261,8.261,0,1,0,1.746,1.683l.6-1.083,1.392,1.313L59.234,14.6a.34.34,0,0,0,.077.347s.687.68.7.7a.34.34,0,0,0,.466-.119l0-.005h0l.917-1.681,1.655-.9a.342.342,0,0,0,.1-.551l-.617-.654a.34.34,0,0,0-.34-.084l-1.12.34L59.766,10.6l2.947-1.641a.342.342,0,0,0,.1-.551l-.827-.827A.343.343,0,0,0,61.642,7.5ZM45.72,12.946a7.527,7.527,0,0,1,5.333-2.2q.235,0,.469.014c1.329,1.226.938,2.344.047,3.352a16.442,16.442,0,0,1-1.688,1.556,7.407,7.407,0,0,0-1.976,2.11c-.361.816-.1,1.554,1.362,2.2a3.832,3.832,0,0,1,1.28.764c.021.026.042,0,.038,0a.141.141,0,0,0-.047.012,2.913,2.913,0,0,1-1.106.19,5.707,5.707,0,0,1-4-1.929c-.7-.626-1.287-1.146-1.894-1.151A7.527,7.527,0,0,1,45.72,12.946Zm12.893,5.34a7.557,7.557,0,0,1-5.216,7.18,2.46,2.46,0,0,1,.288-1.6,5.81,5.81,0,0,1,1.406-1.547c2.164-1.8,2.286-2.813,2.379-3.589.059-.49.1-.856,1.071-1.388a7.645,7.645,0,0,1,.059.938Zm-.438-2.536a7.489,7.489,0,0,1,.258.9c-1.474.75-1.54,1.285-1.629,2.014-.08.656-.183,1.514-2.138,3.146a6.41,6.41,0,0,0-1.571,1.742,3.109,3.109,0,0,0-.352,2.093,7.553,7.553,0,0,1-9.231-7.1c.373,0,.856.443,1.449.97a6.326,6.326,0,0,0,4.494,2.11,3.52,3.52,0,0,0,1.406-.267.7.7,0,0,0,.389-.441.67.67,0,0,0-.169-.612,4.378,4.378,0,0,0-1.533-.959c-.992-.438-1.207-.865-1.013-1.3a7.29,7.29,0,0,1,1.791-1.875,17.064,17.064,0,0,0,1.76-1.641c.98-1.116,1.484-2.344.488-3.664a7.5,7.5,0,0,1,3.047,1.385l-.539,1.779a.342.342,0,0,0,.082.347s.874.867.9.884a.34.34,0,0,0,.466-.119l0-.005h0l.682-1.233A7.541,7.541,0,0,1,58.175,15.749Zm.872-5.532a.34.34,0,0,0-.141.459l.005.009h0c.014.026,1.807,1.934,1.807,1.934a.34.34,0,0,0,.347.091h0l1.132-.342.176.176-1.055.584-.3.15a.337.337,0,0,0-.155.157h0l-.15.3L60.127,14.8l-.171-.188.34-1.123a.34.34,0,0,0-.11-.361l-1.849-1.739a.34.34,0,0,0-.481,0h0c-.023.026-1.688,3.024-1.688,3.024l-.363-.363,1.135-3.739a.34.34,0,0,0-.11-.363L55.348,8.572a.488.488,0,0,1-.134-.563.736.736,0,0,1,.382-.38h.012a.487.487,0,0,1,.549.141l1.406,1.486a.34.34,0,0,0,.347.094h0L61.66,8.218l.363.363Z" transform="translate(-40.265 -6.906)" fill="#fcc155"/>
        <path id="Path_74" data-name="Path 74" d="M327.2,281.012a.352.352,0,0,0-.469.138c-.148.27-.309.534-.483.788a.352.352,0,1,0,.577.406c.183-.272.356-.556.516-.842a.352.352,0,0,0-.124-.481Z" transform="translate(-307.073 -264.91)" fill="#fcc155"/>
        <path id="Path_75" data-name="Path 75" d="M356.651,195.557c.031-.326.045-.656.045-.985v-.049a.351.351,0,0,0-.352-.349h0a.351.351,0,0,0-.361.342s0,0,0,.007v.054c0,.307-.014.617-.042.924a.352.352,0,0,0,.318.382h.033A.351.351,0,0,0,356.651,195.557Z" transform="translate(-335.08 -183.199)" fill="#fcc155"/>
        <path id="Path_76" data-name="Path 76" d="M129.189,366.532a.352.352,0,1,0-.234.663H129c.314.089.638.166.961.234h.066a.354.354,0,1,0,.114-.7.367.367,0,0,0-.048,0A7.236,7.236,0,0,1,129.189,366.532Z" transform="translate(-121.176 -345.438)" fill="#fcc155"/>
        <path id="Path_77" data-name="Path 77" d="M218.959,364.648a7,7,0,0,1-.888.234.352.352,0,1,0,.155.687c.319-.073.64-.162.952-.262a.352.352,0,0,0-.218-.668v.009Z" transform="translate(-205.033 -343.662)" fill="#fcc155"/>
        <path id="Path_78" data-name="Path 78" d="M88.158,348.85a.352.352,0,1,0-.393.583.321.321,0,0,0,.037.022c.284.166.577.321.874.469a.352.352,0,0,0,.3-.638C88.7,349.15,88.423,349,88.158,348.85Z" transform="translate(-82.476 -328.755)" fill="#fcc155"/>
        <path id="Path_79" data-name="Path 79" d="M297.456,317.239a8.529,8.529,0,0,1-.661.645.352.352,0,1,0,.469.525c.234-.218.483-.45.7-.689a.352.352,0,0,0-.513-.481Z" transform="translate(-279.292 -298.951)" fill="#fcc155"/>
        <path id="Path_80" data-name="Path 80" d="M260.772,345.914c-.258.164-.527.319-.8.469a.352.352,0,1,0,.321.626c.291-.15.579-.316.856-.492a.352.352,0,0,0-.361-.6Z" transform="translate(-244.558 -326.009)" fill="#fcc155"/>
      </g>
    </g>
  </g>
</svg>
