<svg id="icon_ads_image_empty_car" data-name="icon/ads/image/empty/car" xmlns="http://www.w3.org/2000/svg" xmlns:xlink="http://www.w3.org/1999/xlink" width="92" height="88" viewBox="0 0 92 88">
  <defs>
    <clipPath id="clip-path">
      <rect id="Search_Field" data-name="Search Field" width="92" height="88" rx="15" transform="translate(38.703 2)" fill="#474546" stroke="#474546" stroke-width="1"/>
    </clipPath>
    <linearGradient id="linear-gradient" x1="0.5" y1="0.081" x2="0.5" y2="0.87" gradientUnits="objectBoundingBox">
      <stop offset="0" stop-color="#474546" stop-opacity="0"/>
      <stop offset="1" stop-color="#474546"/>
    </linearGradient>
  </defs>
  <g id="Group_2577" data-name="Group 2577" transform="translate(-38.703 -2)" clip-path="url(#clip-path)">
    <rect id="Rectangle_497" data-name="Rectangle 497" width="105" height="57" transform="translate(26.703 47)" fill="url(#linear-gradient)"/>
    <g id="Group_2576" data-name="Group 2576" transform="translate(97.594 1)">
      <g id="Iconly_Bulk_Bookmark" data-name="Iconly/Bulk/Bookmark" transform="translate(0)">
        <g id="Bookmark" transform="translate(0)">
          <path id="Bookmark_2" data-name="Bookmark 2" d="M22.9-.334C2.7-.72,0-.334,0-.334S0,.737,0,15.2c0-1.044.589-1.689,2.138-2.411l21.078-8.2Z" transform="translate(0 0.505)" opacity="0.6"/>
          <path id="Bookmark-2" data-name="Bookmark" d="M16.064,26.122H7.1c-3.917,0-7.1-1.547-7.1-5.5V12.032c0-1.044.589-1.689,2.138-2.411L21.005.2A1.467,1.467,0,0,1,23.04.79a1.53,1.53,0,0,1,.179.709V20.617C23.181,24.575,19.994,26.122,16.064,26.122Z" transform="translate(0 3.672)"/>
        </g>
      </g>
      <g id="Iconly_Light-Outline_Document" data-name="Iconly/Light-Outline/Document" transform="translate(6.032 13.208)">
        <g id="Document">
          <path id="Combined_Shape" data-name="Combined Shape" d="M0,8.792V3.236A3,3,0,0,1,3.151,0L7.8,0a3.036,3.036,0,0,1,3.176,3.236V8.792a3.006,3.006,0,0,1-3.151,3.236H3.176A3.036,3.036,0,0,1,0,8.792ZM3.154.909A2.111,2.111,0,0,0,.906,3.236V8.792a2.114,2.114,0,0,0,2.269,2.331l4.646,0a2.11,2.11,0,0,0,2.247-2.328V3.236A2.113,2.113,0,0,0,7.8.906Zm.167,8.138a.453.453,0,1,1,0-.906H7.682a.453.453,0,1,1,0,.906Zm0-2.53a.453.453,0,1,1,0-.906H7.682a.453.453,0,1,1,0,.906Zm3-2.523a.453.453,0,1,1,0-.906H7.985a.453.453,0,1,1,0,.906Z" fill="#fff"/>
        </g>
      </g>
    </g>
    <rect id="Rectangle_498" data-name="Rectangle 498" width="104" height="110" transform="translate(31.703 -6)" fill="#e8e8ec"/>
  </g>
  <path id="Stroke_4" data-name="Stroke 4" d="M.5,20.39C.5,4.9,4.9.5,20.39.5s19.89,4.4,19.89,19.89-4.4,19.89-19.89,19.89S.5,35.879.5,20.39Z" transform="translate(24.721 23.355)" fill="#acacac" opacity="0.27"/>
  <g id="Group_2588" data-name="Group 2588" transform="translate(29.586 37.824)">
    <g id="Group_806" data-name="Group 806" transform="translate(0)">
      <g id="Group_798" data-name="Group 798">
        <g id="Group_796" data-name="Group 796">
          <path id="Path_89" data-name="Path 89" d="M130.085,241.083a28.973,28.973,0,0,0-.162-3.156l-.035-.332.289-.168c.136-.08.272-.161.409-.242-.718-.943-1.794-1.764-2.073-2.461-.264-.658.181-.412.534-.36.213.031.2-.273.2-.273.155.069-2.488-1.183-9.093-1.614a13.742,13.742,0,0,0-10.471,4.05s-.272.308-5.19.585a3.051,3.051,0,0,0-3.153,2.324,3.255,3.255,0,0,1,.437-.995h1.813s.6.255-.285,1.221a8.012,8.012,0,0,1-2.041.144,5.671,5.671,0,0,0-.064,1.156l2.265.3v.532h1.147a2.714,2.714,0,0,1,.125-.3,3.517,3.517,0,0,1,6.7,1.443h10.182a3.377,3.377,0,0,1,.33-1.443,3.518,3.518,0,0,1,6.628.757l.769-.978.89.182-.156-.12Zm-9.973-3.253a.144.144,0,0,1-.143.145l-1.787.006a.144.144,0,0,1,0-.289l1.793-.086C120.052,237.606,120.184,237.656,120.112,237.83Zm.971-.883-8.617.017a.56.56,0,0,1-.067.118.773.773,0,0,1-.587.241h-.2a1.068,1.068,0,0,1-.977-.359h-.01s0-.007,0-.01-.019-.025-.027-.04c-.108-.216.165-.927.168-.935a1.383,1.383,0,0,1,.727-.866.806.806,0,0,1,.281-.051.6.6,0,0,1,.484.226,11.935,11.935,0,0,1,4.637-1.8,36.244,36.244,0,0,1,4.26-.066Zm6.843.883a.144.144,0,0,1-.142.145l-1.788.006a.144.144,0,0,1,0-.289l1.793-.086C127.867,237.606,128,237.656,127.926,237.83Zm-6.305-.864v-3.535s4.634.361,5.584,1.045c0,0,.115,2.262.951,2.49Z" transform="translate(-101.194 -232.448)" fill="#acacac" stroke="rgba(0,0,0,0)" stroke-width="1"/>
        </g>
        <g id="Group_797" data-name="Group 797" transform="translate(0.074 7.043)">
          <path id="Path_90" data-name="Path 90" d="M101.408,247.059c-.023.095-.044.189-.06.285C101.364,247.248,101.385,247.153,101.408,247.059Z" transform="translate(-101.348 -247.059)" fill="#acacac" stroke="rgba(0,0,0,0)" stroke-width="1"/>
        </g>
      </g>
      <g id="Group_799" data-name="Group 799" transform="translate(29.24 5.153)">
        <path id="Path_91" data-name="Path 91" d="M162.461,243.4q.16.445.307.9-.127,1.321-.37,2.614c-.126-.1-.252-.2-.379-.294a29.459,29.459,0,0,0-.166-3.212c.153-.09.306-.179.457-.271Z" transform="translate(-161.854 -243.138)" fill="#acacac" stroke="rgba(0,0,0,0)" stroke-width="1"/>
      </g>
      <g id="Group_800" data-name="Group 800" transform="translate(0.048 9.037)">
        <path id="Path_92" data-name="Path 92" d="M101.294,251.2a8,8,0,0,0,.3,1.455h2.923v-.632H103v-.595Z" transform="translate(-101.294 -251.196)" fill="#acacac" stroke="rgba(0,0,0,0)" stroke-width="1"/>
      </g>
      <g id="Group_801" data-name="Group 801" transform="translate(20.931 7.524)">
        <path id="Path_93" data-name="Path 93" d="M147.632,248.056a3.016,3.016,0,1,0,3.016,3.016A3.016,3.016,0,0,0,147.632,248.056Zm0,4.775a1.759,1.759,0,1,1,1.759-1.76A1.762,1.762,0,0,1,147.632,252.831Z" transform="translate(-144.616 -248.056)" fill="#acacac" stroke="rgba(0,0,0,0)" stroke-width="1"/>
      </g>
      <g id="Group_802" data-name="Group 802" transform="translate(23.443 10.037)">
        <path id="Path_94" data-name="Path 94" d="M150.331,254.276a.5.5,0,1,1,.5-.5A.5.5,0,0,1,150.331,254.276Z" transform="translate(-149.828 -253.27)" fill="#acacac" stroke="rgba(0,0,0,0)" stroke-width="1"/>
      </g>
      <g id="Group_803" data-name="Group 803" transform="translate(3.714 7.524)">
        <path id="Path_95" data-name="Path 95" d="M111.915,248.056a3.016,3.016,0,1,0,3.016,3.016A3.016,3.016,0,0,0,111.915,248.056Zm0,4.775a1.759,1.759,0,1,1,1.76-1.76A1.762,1.762,0,0,1,111.915,252.831Z" transform="translate(-108.899 -248.056)" fill="#acacac" stroke="rgba(0,0,0,0)" stroke-width="1"/>
      </g>
      <g id="Group_804" data-name="Group 804" transform="translate(6.227 10.037)">
        <path id="Path_96" data-name="Path 96" d="M114.615,254.276a.5.5,0,1,1,.5-.5A.5.5,0,0,1,114.615,254.276Z" transform="translate(-114.113 -253.27)" fill="#acacac" stroke="rgba(0,0,0,0)" stroke-width="1"/>
      </g>
      <g id="Group_805" data-name="Group 805" transform="translate(27.502 9.397)">
        <path id="Path_97" data-name="Path 97" d="M160.374,252.2l-1.264-.257-.861,1.1h1.922S160.261,252.7,160.374,252.2Z" transform="translate(-158.249 -251.942)" fill="#acacac" stroke="rgba(0,0,0,0)" stroke-width="1"/>
      </g>
    </g>
    <g id="Group_807" data-name="Group 807" transform="translate(9.638 2.874)">
      <path id="Path_98" data-name="Path 98" d="M122.631,239.784l-.152-1.124c-.027-.2-.273-.31-.535-.214-.565.208-.781,1.388-.753,1.441.148.29.531.27.979.268C122.452,240.155,122.659,239.986,122.631,239.784Z" transform="translate(-121.188 -238.41)" fill="#acacac" stroke="rgba(0,0,0,0)" stroke-width="1"/>
    </g>
  </g>
</svg>
