<svg id="icon_ads_image_empty_companies" data-name="icon/ads/image/empty/companies" xmlns="http://www.w3.org/2000/svg" xmlns:xlink="http://www.w3.org/1999/xlink" width="92" height="88" viewBox="0 0 92 88">
  <defs>
    <clipPath id="clip-path">
      <rect id="Search_Field" data-name="Search Field" width="92" height="88" rx="15" transform="translate(38.703 2)" fill="#474546" stroke="#474546" stroke-width="1"/>
    </clipPath>
    <linearGradient id="linear-gradient" x1="0.5" y1="0.081" x2="0.5" y2="0.87" gradientUnits="objectBoundingBox">
      <stop offset="0" stop-color="#474546" stop-opacity="0"/>
      <stop offset="1" stop-color="#474546"/>
    </linearGradient>
  </defs>
  <g id="Group_2577" data-name="Group 2577" transform="translate(-38.703 -2)" clip-path="url(#clip-path)">
    <rect id="Rectangle_497" data-name="Rectangle 497" width="105" height="57" transform="translate(26.703 47)" fill="url(#linear-gradient)"/>
    <g id="Group_2576" data-name="Group 2576" transform="translate(97.594 1)">
      <g id="Iconly_Bulk_Bookmark" data-name="Iconly/Bulk/Bookmark" transform="translate(0)">
        <g id="Bookmark" transform="translate(0)">
          <path id="Bookmark_2" data-name="Bookmark 2" d="M22.9-.334C2.7-.72,0-.334,0-.334S0,.737,0,15.2c0-1.044.589-1.689,2.138-2.411l21.078-8.2Z" transform="translate(0 0.505)" opacity="0.6"/>
          <path id="Bookmark-2" data-name="Bookmark" d="M16.064,26.122H7.1c-3.917,0-7.1-1.547-7.1-5.5V12.032c0-1.044.589-1.689,2.138-2.411L21.005.2A1.467,1.467,0,0,1,23.04.79a1.53,1.53,0,0,1,.179.709V20.617C23.181,24.575,19.994,26.122,16.064,26.122Z" transform="translate(0 3.672)"/>
        </g>
      </g>
      <g id="Iconly_Light-Outline_Document" data-name="Iconly/Light-Outline/Document" transform="translate(6.032 13.208)">
        <g id="Document">
          <path id="Combined_Shape" data-name="Combined Shape" d="M0,8.792V3.236A3,3,0,0,1,3.151,0L7.8,0a3.036,3.036,0,0,1,3.176,3.236V8.792a3.006,3.006,0,0,1-3.151,3.236H3.176A3.036,3.036,0,0,1,0,8.792ZM3.154.909A2.111,2.111,0,0,0,.906,3.236V8.792a2.114,2.114,0,0,0,2.269,2.331l4.646,0a2.11,2.11,0,0,0,2.247-2.328V3.236A2.113,2.113,0,0,0,7.8.906Zm.167,8.138a.453.453,0,1,1,0-.906H7.682a.453.453,0,1,1,0,.906Zm0-2.53a.453.453,0,1,1,0-.906H7.682a.453.453,0,1,1,0,.906Zm3-2.523a.453.453,0,1,1,0-.906H7.985a.453.453,0,1,1,0,.906Z" fill="#fff"/>
        </g>
      </g>
    </g>
    <rect id="Rectangle_498" data-name="Rectangle 498" width="104" height="110" transform="translate(31.703 -6)" fill="#e8e8ec"/>
  </g>
  <path id="Stroke_4" data-name="Stroke 4" d="M.5,20.39C.5,4.9,4.9.5,20.39.5s19.89,4.4,19.89,19.89-4.4,19.89-19.89,19.89S.5,35.879.5,20.39Z" transform="translate(24.721 23.355)" fill="#acacac" opacity="0.27"/>
  <path id="wheel" d="M20.878,9.226l-1.171-.117a9.027,9.027,0,0,0-.316-1.189l.954-.686A.9.9,0,0,0,20.6,6.047L19.878,4.8a.9.9,0,0,0-1.154-.372l-1.068.483a9.046,9.046,0,0,0-.873-.873l.483-1.069a.9.9,0,0,0-.372-1.154l-1.248-.72a.9.9,0,0,0-1.186.255l-.686.954a8.888,8.888,0,0,0-1.189-.316L12.466.814a.9.9,0,0,0-.9-.814H10.124a.9.9,0,0,0-.9.813L9.108,1.985A9.026,9.026,0,0,0,7.918,2.3l-.686-.954a.9.9,0,0,0-1.186-.255L4.8,1.813a.9.9,0,0,0-.372,1.155l.483,1.068a8.846,8.846,0,0,0-.873.873L2.967,4.426A.9.9,0,0,0,1.813,4.8l-.72,1.247a.9.9,0,0,0,.255,1.186l.954.686a8.888,8.888,0,0,0-.316,1.189L.814,9.225a.9.9,0,0,0-.814.9v1.442a.9.9,0,0,0,.813.9l1.171.117A9.026,9.026,0,0,0,2.3,13.773l-.954.686a.9.9,0,0,0-.255,1.186l.72,1.248a.9.9,0,0,0,1.154.372l1.068-.483a9.046,9.046,0,0,0,.873.873l-.483,1.069A.9.9,0,0,0,4.8,19.879l1.248.72a.9.9,0,0,0,1.186-.255l.686-.954a8.888,8.888,0,0,0,1.189.316l.117,1.171a.9.9,0,0,0,.9.813h1.442a.9.9,0,0,0,.9-.813l.117-1.171a9.027,9.027,0,0,0,1.189-.316l.686.954a.9.9,0,0,0,1.186.255l1.248-.72a.9.9,0,0,0,.372-1.154l-.483-1.068a9.046,9.046,0,0,0,.873-.873l1.069.483a.9.9,0,0,0,1.154-.372l.72-1.248a.9.9,0,0,0-.255-1.186l-.954-.686a8.889,8.889,0,0,0,.316-1.189l1.171-.117a.9.9,0,0,0,.813-.9V10.124A.9.9,0,0,0,20.878,9.226ZM10.846,4.519A6.331,6.331,0,0,1,17.1,9.942H12.914a2.261,2.261,0,0,0-2.068-1.356,2.237,2.237,0,0,0-.247.025L8.5,4.975a6.288,6.288,0,0,1,2.345-.456ZM4.519,10.846A6.315,6.315,0,0,1,6.936,5.881l2.1,3.63a2.221,2.221,0,0,0,0,2.669l-2.1,3.63A6.314,6.314,0,0,1,4.519,10.846Zm6.327,6.327A6.271,6.271,0,0,1,8.5,16.716l2.1-3.636a2.2,2.2,0,0,0,.246.025,2.261,2.261,0,0,0,2.068-1.356H17.1A6.331,6.331,0,0,1,10.846,17.172Z" transform="translate(34.266 33.154)" fill="#acacac"/>
</svg>
