<svg id="icon_ads_image_empty_clothes" data-name="icon/ads/image/empty/clothes" xmlns="http://www.w3.org/2000/svg" xmlns:xlink="http://www.w3.org/1999/xlink" width="92" height="88" viewBox="0 0 92 88">
  <defs>
    <clipPath id="clip-path">
      <rect id="Search_Field" data-name="Search Field" width="92" height="88" rx="15" transform="translate(38.703 2)" fill="#474546" stroke="#474546" stroke-width="1"/>
    </clipPath>
    <linearGradient id="linear-gradient" x1="0.5" y1="0.081" x2="0.5" y2="0.87" gradientUnits="objectBoundingBox">
      <stop offset="0" stop-color="#474546" stop-opacity="0"/>
      <stop offset="1" stop-color="#474546"/>
    </linearGradient>
  </defs>
  <g id="Group_2577" data-name="Group 2577" transform="translate(-38.703 -2)" clip-path="url(#clip-path)">
    <rect id="Rectangle_497" data-name="Rectangle 497" width="105" height="57" transform="translate(26.703 47)" fill="url(#linear-gradient)"/>
    <g id="Group_2576" data-name="Group 2576" transform="translate(97.594 1)">
      <g id="Iconly_Bulk_Bookmark" data-name="Iconly/Bulk/Bookmark" transform="translate(0)">
        <g id="Bookmark" transform="translate(0)">
          <path id="Bookmark_2" data-name="Bookmark 2" d="M22.9-.334C2.7-.72,0-.334,0-.334S0,.737,0,15.2c0-1.044.589-1.689,2.138-2.411l21.078-8.2Z" transform="translate(0 0.505)" opacity="0.6"/>
          <path id="Bookmark-2" data-name="Bookmark" d="M16.064,26.122H7.1c-3.917,0-7.1-1.547-7.1-5.5V12.032c0-1.044.589-1.689,2.138-2.411L21.005.2A1.467,1.467,0,0,1,23.04.79a1.53,1.53,0,0,1,.179.709V20.617C23.181,24.575,19.994,26.122,16.064,26.122Z" transform="translate(0 3.672)"/>
        </g>
      </g>
      <g id="Iconly_Light-Outline_Document" data-name="Iconly/Light-Outline/Document" transform="translate(6.032 13.208)">
        <g id="Document">
          <path id="Combined_Shape" data-name="Combined Shape" d="M0,8.792V3.236A3,3,0,0,1,3.151,0L7.8,0a3.036,3.036,0,0,1,3.176,3.236V8.792a3.006,3.006,0,0,1-3.151,3.236H3.176A3.036,3.036,0,0,1,0,8.792ZM3.154.909A2.111,2.111,0,0,0,.906,3.236V8.792a2.114,2.114,0,0,0,2.269,2.331l4.646,0a2.11,2.11,0,0,0,2.247-2.328V3.236A2.113,2.113,0,0,0,7.8.906Zm.167,8.138a.453.453,0,1,1,0-.906H7.682a.453.453,0,1,1,0,.906Zm0-2.53a.453.453,0,1,1,0-.906H7.682a.453.453,0,1,1,0,.906Zm3-2.523a.453.453,0,1,1,0-.906H7.985a.453.453,0,1,1,0,.906Z" fill="#fff"/>
        </g>
      </g>
    </g>
    <rect id="Rectangle_498" data-name="Rectangle 498" width="104" height="110" transform="translate(31.703 -6)" fill="#e8e8ec"/>
  </g>
  <path id="Stroke_4" data-name="Stroke 4" d="M.5,20.39C.5,4.9,4.9.5,20.39.5s19.89,4.4,19.89,19.89-4.4,19.89-19.89,19.89S.5,35.879.5,20.39Z" transform="translate(24.721 23.355)" fill="#acacac" opacity="0.27"/>
  <path id="XMLID_1435_" d="M21.463,78.36,11.99,72.717V72.3a1.337,1.337,0,0,1,.694-1.162,2.937,2.937,0,0,0,1.5-2.7,2.907,2.907,0,0,0-2.742-2.82,2.789,2.789,0,0,0-2.09.818,2.951,2.951,0,0,0-.875,2.115.664.664,0,1,0,1.327,0,1.58,1.58,0,0,1,.469-1.132,1.492,1.492,0,0,1,1.119-.438,1.554,1.554,0,0,1,1.466,1.508,1.574,1.574,0,0,1-.8,1.445A2.705,2.705,0,0,0,10.663,72.3v.42L1.189,78.36A2.473,2.473,0,0,0,0,80.482a2.422,2.422,0,0,0,2.385,2.452H20.267a2.422,2.422,0,0,0,2.385-2.452A2.473,2.473,0,0,0,21.463,78.36Zm-1.2,3.209H2.385a1.074,1.074,0,0,1-1.058-1.088,1.1,1.1,0,0,1,.528-.941L11.326,73.9,20.8,79.54a1.1,1.1,0,0,1,.528.941A1.074,1.074,0,0,1,20.267,81.569Z" transform="translate(33.785 -31.942)" fill="#acacac"/>
</svg>
