<svg id="icon_ads_image_empty_travel" data-name="icon/ads/image/empty/travel" xmlns="http://www.w3.org/2000/svg" xmlns:xlink="http://www.w3.org/1999/xlink" width="92" height="88" viewBox="0 0 92 88">
  <defs>
    <clipPath id="clip-path">
      <rect id="Search_Field" data-name="Search Field" width="92" height="88" rx="15" transform="translate(38.703 2)" fill="#474546" stroke="#474546" stroke-width="1"/>
    </clipPath>
    <linearGradient id="linear-gradient" x1="0.5" y1="0.081" x2="0.5" y2="0.87" gradientUnits="objectBoundingBox">
      <stop offset="0" stop-color="#474546" stop-opacity="0"/>
      <stop offset="1" stop-color="#474546"/>
    </linearGradient>
  </defs>
  <g id="Group_2577" data-name="Group 2577" transform="translate(-38.703 -2)" clip-path="url(#clip-path)">
    <rect id="Rectangle_497" data-name="Rectangle 497" width="105" height="57" transform="translate(26.703 47)" fill="url(#linear-gradient)"/>
    <g id="Group_2576" data-name="Group 2576" transform="translate(97.594 1)">
      <g id="Iconly_Bulk_Bookmark" data-name="Iconly/Bulk/Bookmark" transform="translate(0)">
        <g id="Bookmark" transform="translate(0)">
          <path id="Bookmark_2" data-name="Bookmark 2" d="M22.9-.334C2.7-.72,0-.334,0-.334S0,.737,0,15.2c0-1.044.589-1.689,2.138-2.411l21.078-8.2Z" transform="translate(0 0.505)" opacity="0.6"/>
          <path id="Bookmark-2" data-name="Bookmark" d="M16.064,26.122H7.1c-3.917,0-7.1-1.547-7.1-5.5V12.032c0-1.044.589-1.689,2.138-2.411L21.005.2A1.467,1.467,0,0,1,23.04.79a1.53,1.53,0,0,1,.179.709V20.617C23.181,24.575,19.994,26.122,16.064,26.122Z" transform="translate(0 3.672)"/>
        </g>
      </g>
      <g id="Iconly_Light-Outline_Document" data-name="Iconly/Light-Outline/Document" transform="translate(6.032 13.208)">
        <g id="Document">
          <path id="Combined_Shape" data-name="Combined Shape" d="M0,8.792V3.236A3,3,0,0,1,3.151,0L7.8,0a3.036,3.036,0,0,1,3.176,3.236V8.792a3.006,3.006,0,0,1-3.151,3.236H3.176A3.036,3.036,0,0,1,0,8.792ZM3.154.909A2.111,2.111,0,0,0,.906,3.236V8.792a2.114,2.114,0,0,0,2.269,2.331l4.646,0a2.11,2.11,0,0,0,2.247-2.328V3.236A2.113,2.113,0,0,0,7.8.906Zm.167,8.138a.453.453,0,1,1,0-.906H7.682a.453.453,0,1,1,0,.906Zm0-2.53a.453.453,0,1,1,0-.906H7.682a.453.453,0,1,1,0,.906Zm3-2.523a.453.453,0,1,1,0-.906H7.985a.453.453,0,1,1,0,.906Z" fill="#fff"/>
        </g>
      </g>
    </g>
    <rect id="Rectangle_498" data-name="Rectangle 498" width="104" height="110" transform="translate(31.703 -6)" fill="#e8e8ec"/>
  </g>
  <path id="Stroke_4" data-name="Stroke 4" d="M.5,20.39C.5,4.9,4.9.5,20.39.5s19.89,4.4,19.89,19.89-4.4,19.89-19.89,19.89S.5,35.879.5,20.39Z" transform="translate(24.721 23.355)" fill="#acacac" opacity="0.27"/>
  <g id="world" transform="translate(35.488 33.603)">
    <path id="Path_55" data-name="Path 55" d="M53.448,74.706a5.818,5.818,0,0,1-3.831-1.884c-.564-.5-1.05-.937-1.443-.939h-.45l.026-.45a7.306,7.306,0,0,1,7.289-6.9q.227,0,.45.013h.152l.111.1c1.2,1.108,1.226,2.337.073,3.644a15.216,15.216,0,0,1-1.582,1.479,6.741,6.741,0,0,0-1.685,1.766.694.694,0,0,0-.011.69,2.168,2.168,0,0,0,1.04.759,4.809,4.809,0,0,1,1.173.662h.058l.259.334-.137.529h-.255a3.269,3.269,0,0,1-1.106.18Z" transform="translate(-45.166 -61.447)" fill="#acacac"/>
    <path id="Path_56" data-name="Path 56" d="M55.12,78.01a7.306,7.306,0,0,1-7.3-7.048L47.8,70.5l.457.013c.5.013.98.446,1.593.993a5.532,5.532,0,0,0,3.666,1.822h.129a2.884,2.884,0,0,0,1.091-.193c.081-.043.129-.088.139-.133s.017-.069-.071-.176a3.543,3.543,0,0,0-1.239-.752,2.471,2.471,0,0,1-1.033-.742.982.982,0,0,1-.1-1.014,6.528,6.528,0,0,1,1.745-1.85,15.174,15.174,0,0,0,1.55-1.449c.952-1.085,1.072-1.929.429-2.787l-.673-.9,1.1.214a7.263,7.263,0,0,1,2.952,1.329l.238.18-.557,1.846.592.592.868-1.576.394.555a7.255,7.255,0,0,1,1.179,2.647l.071.324-.294.148c-1.14.579-1.179.907-1.252,1.5-.079.643-.187,1.548-2.1,3.143A5.508,5.508,0,0,0,57.352,75.7a2.416,2.416,0,0,0-.272,1.629l.066.409-.394.09A7.34,7.34,0,0,1,55.12,78.01Z" transform="translate(-45.242 -60.312)" fill="none"/>
    <path id="Path_57" data-name="Path 57" d="M250.621,18.191l.362-1.2-1.535-1.445L247.755,18.6l-.915-.915,1.087-3.578-1.3-1.228a.877.877,0,0,1-.225-.986,1.1,1.1,0,0,1,.581-.581H247a.877.877,0,0,1,.313-.058.891.891,0,0,1,.643.292l1.226,1.3,3.582-1.083.915.915-3.055,1.687,1.445,1.533,1.2-.362.744.744-1.456.808-.259.129-.118.24-.825,1.475Z" transform="translate(-233.131 -11.023)" fill="#acacac"/>
    <path id="Path_58" data-name="Path 58" d="M215.527,180.509a2.652,2.652,0,0,1,.313-1.715,5.724,5.724,0,0,1,1.4-1.535c1.839-1.535,1.929-2.341,2.015-2.99.071-.585.2-1.04,1.2-1.588l.555-.3.069.63a7.4,7.4,0,0,1,.054.9,7.259,7.259,0,0,1-2.144,5.166,7.338,7.338,0,0,1-2.9,1.779l-.487.159Z" transform="translate(-203.946 -163.508)" fill="#acacac"/>
    <g id="Group_767" data-name="Group 767" transform="translate(0 0)">
      <path id="Path_59" data-name="Path 59" d="M52.583,321.872a.321.321,0,0,0,0,.454,8.185,8.185,0,0,0,.669.607.321.321,0,1,0,.455-.454l-.026-.024-.021-.017c-.214-.178-.429-.369-.626-.566A.321.321,0,0,0,52.583,321.872Z" transform="translate(-49.676 -304.905)" fill="#acacac"/>
      <path id="Path_60" data-name="Path 60" d="M1.5,157.453h.041a.322.322,0,0,0,.319-.283c.034-.279.081-.56.141-.832a.322.322,0,1,0-.62-.135c-.064.294-.114.592-.15.89A.321.321,0,0,0,1.5,157.453Z" transform="translate(-1.164 -147.912)" fill="#acacac"/>
      <path id="Path_61" data-name="Path 61" d="M25.308,286.568a.321.321,0,0,0-.112.441h0c.154.257.322.51.5.752a.322.322,0,0,0,.519-.379c-.165-.227-.322-.463-.465-.7a.321.321,0,0,0-.441-.112Z" transform="translate(-23.803 -271.537)" fill="#acacac"/>
      <path id="Path_62" data-name="Path 62" d="M7.223,245.619a.321.321,0,0,0-.214.4c.086.287.184.575.3.858a.327.327,0,1,0,.607-.242h0c-.1-.259-.2-.527-.277-.8a.322.322,0,0,0-.4-.214Z" transform="translate(-6.62 -232.815)" fill="#acacac"/>
      <path id="Path_63" data-name="Path 63" d="M12.524,116.169a.322.322,0,0,0,.418-.179h0a7.706,7.706,0,0,1,.345-.77.322.322,0,1,0-.575-.289h0c-.135.268-.259.544-.369.825A.322.322,0,0,0,12.524,116.169Z" transform="translate(-11.662 -108.973)" fill="#acacac"/>
      <path id="Path_64" data-name="Path 64" d="M.38,203.022H.433a.322.322,0,0,0,.279-.359h0c-.034-.279-.058-.562-.069-.84a.322.322,0,1,0-.643.024,7.031,7.031,0,0,0,.073.9A.321.321,0,0,0,.38,203.022Z" transform="translate(0 -191.083)" fill="#acacac"/>
      <path id="Path_65" data-name="Path 65" d="M143.608,18.11h.062c.277-.054.557-.094.836-.122a.324.324,0,0,0-.021-.647l-.041,0c-.3.03-.6.073-.894.131a.324.324,0,0,0,.016.647.329.329,0,0,0,.044,0Z" transform="translate(-135.558 -16.781)" fill="#acacac"/>
      <path id="Path_66" data-name="Path 66" d="M33.823,78.706a.321.321,0,0,0,.262-.133c.165-.227.341-.45.525-.66a.324.324,0,0,0-.468-.447l-.016.018a7.686,7.686,0,0,0-.562.707.322.322,0,0,0,.259.51Z" transform="translate(-31.707 -73.59)" fill="#acacac"/>
      <path id="Path_67" data-name="Path 67" d="M189.936,17.383h.049a.322.322,0,1,0,.047-.643c-.3-.045-.6-.077-.9-.094a.322.322,0,1,0-.039.643C189.379,17.31,189.66,17.34,189.936,17.383Z" transform="translate(-178.675 -16.123)" fill="#acacac"/>
      <path id="Path_68" data-name="Path 68" d="M64.564,49.116c.214-.18.442-.352.673-.51a.322.322,0,0,0-.364-.529c-.247.169-.489.354-.72.544a.322.322,0,1,0,.412.5Z" transform="translate(-60.605 -45.822)" fill="#acacac"/>
      <path id="Path_69" data-name="Path 69" d="M102.13,28.222a.321.321,0,0,0,.137-.032c.253-.12.514-.229.778-.326a.322.322,0,0,0-.169-.62l-.045.015a8,8,0,0,0-.832.349.322.322,0,0,0,.137.613Z" transform="translate(-96.357 -26.147)" fill="#acacac"/>
      <path id="Path_70" data-name="Path 70" d="M173.572,373.024a.322.322,0,0,0-.017.643h.268c.214,0,.429,0,.63-.019a.322.322,0,1,0-.041-.643A7.943,7.943,0,0,1,173.572,373.024Z" transform="translate(-163.957 -353.384)" fill="#acacac"/>
      <path id="Path_71" data-name="Path 71" d="M346.621,240.6a.321.321,0,0,0,.411-.194h0c.1-.283.189-.572.264-.858a.322.322,0,0,0-.614-.193.371.371,0,0,0-.01.043c-.069.272-.152.542-.247.806A.322.322,0,0,0,346.621,240.6Z" transform="translate(-327.846 -226.688)" fill="#acacac"/>
      <path id="Path_72" data-name="Path 72" d="M351.316,151.67h.054a.322.322,0,0,0,.266-.369c-.049-.3-.112-.594-.187-.883a.322.322,0,0,0-.622.163c.071.27.129.549.176.825A.321.321,0,0,0,351.316,151.67Z" transform="translate(-332.018 -142.51)" fill="#acacac"/>
      <path id="Path_73" data-name="Path 73" d="M60.028,7.452,56.613,8.485l-1.149-1.22a1.04,1.04,0,0,0-1.183-.281h-.019a1.265,1.265,0,0,0-.688.688,1.162,1.162,0,0,0-.069.253l-.131-.045a.322.322,0,1,0-.2.613h0c.165.054.33.114.5.176a1.228,1.228,0,0,0,.174.214l1.215,1.149-.347,1.147h0a7.554,7.554,0,1,0,1.6,1.539l.549-.99,1.273,1.2-.307,1.014a.311.311,0,0,0,.071.317s.628.622.643.643a.311.311,0,0,0,.426-.109l0,0h0l.838-1.537,1.513-.825a.313.313,0,0,0,.092-.5l-.564-.6a.311.311,0,0,0-.311-.077l-1.025.311-1.2-1.273,2.695-1.5a.313.313,0,0,0,.092-.5l-.757-.757A.313.313,0,0,0,60.028,7.452Zm-14.56,4.978a6.884,6.884,0,0,1,4.877-2.015q.214,0,.429.013c1.215,1.121.857,2.144.043,3.065a15.036,15.036,0,0,1-1.543,1.423,6.774,6.774,0,0,0-1.807,1.929c-.33.746-.088,1.421,1.245,2.011a3.5,3.5,0,0,1,1.17.7c.019.024.039,0,.034,0a.129.129,0,0,0-.043.011,2.664,2.664,0,0,1-1.012.174A5.219,5.219,0,0,1,45.2,17.975c-.643-.572-1.177-1.048-1.732-1.053A6.884,6.884,0,0,1,45.468,12.429Zm11.79,4.883a6.911,6.911,0,0,1-4.77,6.566,2.25,2.25,0,0,1,.264-1.46A5.313,5.313,0,0,1,54.039,21c1.979-1.651,2.09-2.572,2.176-3.282.054-.448.094-.782.98-1.269a6.989,6.989,0,0,1,.054.857Zm-.4-2.319a6.847,6.847,0,0,1,.236.825c-1.348.686-1.408,1.175-1.49,1.841-.073.6-.167,1.385-1.955,2.877a5.862,5.862,0,0,0-1.436,1.593,2.844,2.844,0,0,0-.322,1.914,6.907,6.907,0,0,1-8.442-6.489c.341,0,.782.405,1.325.887a5.785,5.785,0,0,0,4.109,1.929,3.219,3.219,0,0,0,1.286-.244.643.643,0,0,0,.356-.4.613.613,0,0,0-.154-.56,4,4,0,0,0-1.4-.877c-.907-.4-1.1-.791-.926-1.19a6.667,6.667,0,0,1,1.638-1.715,15.6,15.6,0,0,0,1.61-1.5c.9-1.02,1.357-2.144.446-3.351A6.862,6.862,0,0,1,54.523,11.8l-.493,1.627a.313.313,0,0,0,.075.317s.8.793.825.808a.311.311,0,0,0,.426-.109l0,0h0l.624-1.128A6.9,6.9,0,0,1,56.858,14.993Zm.8-5.059a.311.311,0,0,0-.129.42l0,.009h0c.013.024,1.653,1.769,1.653,1.769a.311.311,0,0,0,.317.084h0l1.035-.313.161.161-.965.534-.277.137a.308.308,0,0,0-.141.144h0l-.137.279-.534.965-.157-.171.311-1.027a.311.311,0,0,0-.1-.33L57.006,11a.311.311,0,0,0-.439,0h0c-.021.024-1.543,2.765-1.543,2.765l-.332-.332,1.038-3.419a.311.311,0,0,0-.1-.332L54.272,8.429a.446.446,0,0,1-.122-.514.673.673,0,0,1,.349-.347h.011a.446.446,0,0,1,.5.129L56.3,9.055a.311.311,0,0,0,.317.086h0l3.43-1.035.332.332Z" transform="translate(-40.48 -6.906)" fill="#acacac"/>
      <path id="Path_74" data-name="Path 74" d="M327.117,281.008a.322.322,0,0,0-.429.127c-.135.246-.283.489-.442.72a.322.322,0,1,0,.527.371c.167-.249.326-.508.472-.77a.321.321,0,0,0-.114-.439Z" transform="translate(-308.707 -266.284)" fill="#acacac"/>
      <path id="Path_75" data-name="Path 75" d="M356.59,195.439c.028-.3.041-.6.041-.9v-.045a.321.321,0,0,0-.322-.319h0a.322.322,0,0,0-.33.313s0,0,0,.007v.049c0,.281-.013.564-.039.845a.322.322,0,0,0,.291.349h.03A.321.321,0,0,0,356.59,195.439Z" transform="translate(-336.863 -184.138)" fill="#acacac"/>
      <path id="Path_76" data-name="Path 76" d="M129.149,366.53a.322.322,0,1,0-.214.607h.039c.287.081.583.152.879.214h.06a.324.324,0,0,0,.1-.639l-.044,0A6.617,6.617,0,0,1,129.149,366.53Z" transform="translate(-121.821 -347.24)" fill="#acacac"/>
      <path id="Path_77" data-name="Path 77" d="M218.86,364.646a6.407,6.407,0,0,1-.812.214.322.322,0,0,0,.141.628c.292-.066.585-.148.87-.24a.322.322,0,0,0-.2-.611v.009Z" transform="translate(-206.124 -345.454)" fill="#acacac"/>
      <path id="Path_78" data-name="Path 78" d="M88.111,348.845a.322.322,0,0,0-.36.533.294.294,0,0,0,.034.02c.259.152.527.294.8.429a.322.322,0,0,0,.274-.583C88.6,349.119,88.354,348.982,88.111,348.845Z" transform="translate(-82.915 -330.468)" fill="#acacac"/>
      <path id="Path_79" data-name="Path 79" d="M297.39,317.23a7.783,7.783,0,0,1-.6.59.322.322,0,1,0,.429.48c.214-.2.442-.412.643-.63a.322.322,0,0,0-.47-.44Z" transform="translate(-280.778 -300.505)" fill="#acacac"/>
      <path id="Path_80" data-name="Path 80" d="M260.687,345.911c-.236.15-.482.291-.731.429a.322.322,0,1,0,.294.572c.266-.137.529-.289.782-.45a.322.322,0,0,0-.33-.551Z" transform="translate(-245.859 -327.707)" fill="#acacac"/>
    </g>
  </g>
</svg>
