<svg id="Group_2530" data-name="Group 2530" xmlns="http://www.w3.org/2000/svg" width="30" height="30" viewBox="0 0 30 30">
  <path id="Stroke_3" data-name="Stroke 3" d="M0,15C0,3.751,3.751,0,15,0S30,3.751,30,15,26.249,30,15,30,0,26.249,0,15Z" transform="translate(0)" fill="rgba(219,20,61,0.18)" opacity="0.49"/>
  <path id="Path_88" data-name="Path 88" d="M281.916,341.935l-.481-2.617,3.369-1.46V342.1h-2.857Zm-.574-3.129-.538-2.92,4-1.735V337.3Zm-.632-3.431-.516-2.817,4.611-2V333.6Zm-.609-3.329-.6-3.244-.027-.143.125-.076,4.9-2.826.3-.174V330Zm12.675-1.887,4.994,1.179-.2,1.286-5.31,2.63Zm4.7,3.066-.333,2.167-5.149,2.474.2-2.03Zm-.423,2.764-.347,2.247-4.98,2.243.209-2.034Zm-.441,2.839-.5,3.275H291.56l.107-1.046Zm-11.327-14.994-.013,6.934,7.134-.735.307-3.075Zm-.013,7.432,0,1.8,6.9-.637.187-1.891Zm-.009,2.3v1.869l6.658-.5.2-2Zm0,2.372-.014,6.19h5.96l.663-6.685Z" transform="translate(-273.67 -318.412)" fill="#db143d" fill-rule="evenodd"/>
</svg>
