<svg id="Group_2531" data-name="Group 2531" xmlns="http://www.w3.org/2000/svg" width="30" height="30" viewBox="0 0 30 30">
  <path id="Stroke_3" data-name="Stroke 3" d="M0,15C0,3.751,3.751,0,15,0S30,3.751,30,15,26.249,30,15,30,0,26.249,0,15Z" transform="translate(0 0)" fill="rgba(219,20,61,0.18)" opacity="0.49"/>
  <g id="Group_796" data-name="Group 796" transform="translate(2.716 9.477)">
    <g id="Group_806" data-name="Group 806" transform="translate(0 0)">
      <g id="Group_798" data-name="Group 798">
        <g id="Group_796-2" data-name="Group 796">
          <path id="Path_89" data-name="Path 89" d="M124.734,239.484a23.608,23.608,0,0,0-.132-2.572l-.029-.27.235-.137c.111-.065.222-.131.333-.2-.585-.769-1.461-1.437-1.689-2.005-.215-.537.147-.335.435-.293.174.025.165-.223.165-.223.126.057-2.027-.964-7.409-1.315a11.2,11.2,0,0,0-8.532,3.3s-.222.251-4.229.477a2.486,2.486,0,0,0-2.569,1.893,2.653,2.653,0,0,1,.356-.811h1.477s.491.207-.232.995a6.529,6.529,0,0,1-1.663.117,4.621,4.621,0,0,0-.052.941l1.846.245v.433h.934a2.217,2.217,0,0,1,.1-.241A2.866,2.866,0,0,1,109.542,241h8.3a2.752,2.752,0,0,1,.269-1.175,2.866,2.866,0,0,1,5.4.617l.626-.8.725.148-.127-.1Zm-8.126-2.651a.117.117,0,0,1-.116.118l-1.456,0a.118.118,0,0,1,0-.235l1.461-.07C116.56,236.651,116.666,236.692,116.608,236.833Zm.791-.719-7.021.014a.457.457,0,0,1-.054.1.63.63,0,0,1-.478.2h-.161a.87.87,0,0,1-.8-.292h-.008s0-.005,0-.008-.015-.02-.022-.033c-.088-.176.134-.756.137-.762a1.127,1.127,0,0,1,.592-.705.658.658,0,0,1,.229-.042.493.493,0,0,1,.394.184,9.724,9.724,0,0,1,3.778-1.469,29.549,29.549,0,0,1,3.471-.054Zm5.576.719a.117.117,0,0,1-.116.118l-1.457,0a.118.118,0,0,1,0-.235l1.461-.07C122.926,236.651,123.034,236.692,122.975,236.833Zm-5.138-.7v-2.88s3.776.294,4.55.851c0,0,.093,1.843.774,2.029Z" transform="translate(-101.194 -232.448)" fill="#db143d"/>
        </g>
        <g id="Group_797" data-name="Group 797" transform="translate(0.06 5.738)">
          <path id="Path_90" data-name="Path 90" d="M101.4,247.059c-.019.077-.036.154-.049.233C101.361,247.213,101.378,247.136,101.4,247.059Z" transform="translate(-101.348 -247.059)" fill="#db143d"/>
        </g>
      </g>
      <g id="Group_799" data-name="Group 799" transform="translate(23.824 4.198)">
        <path id="Path_91" data-name="Path 91" d="M162.349,243.353q.13.363.25.734-.1,1.076-.3,2.13c-.1-.081-.205-.161-.309-.24a24.014,24.014,0,0,0-.135-2.617c.124-.073.249-.146.373-.221Z" transform="translate(-161.854 -243.138)" fill="#db143d"/>
      </g>
      <g id="Group_800" data-name="Group 800" transform="translate(0.039 7.363)">
        <path id="Path_92" data-name="Path 92" d="M101.294,251.2a6.514,6.514,0,0,0,.246,1.186h2.381v-.515h-1.236v-.485Z" transform="translate(-101.294 -251.196)" fill="#db143d"/>
      </g>
      <g id="Group_801" data-name="Group 801" transform="translate(17.054 6.13)">
        <path id="Path_93" data-name="Path 93" d="M147.073,248.056a2.458,2.458,0,1,0,2.457,2.457A2.457,2.457,0,0,0,147.073,248.056Zm0,3.891a1.434,1.434,0,1,1,1.434-1.434A1.435,1.435,0,0,1,147.073,251.947Z" transform="translate(-144.616 -248.056)" fill="#db143d"/>
      </g>
      <g id="Group_802" data-name="Group 802" transform="translate(19.101 8.178)">
        <path id="Path_94" data-name="Path 94" d="M150.238,254.09a.41.41,0,1,1,.41-.41A.411.411,0,0,1,150.238,254.09Z" transform="translate(-149.828 -253.27)" fill="#db143d"/>
      </g>
      <g id="Group_803" data-name="Group 803" transform="translate(3.026 6.13)">
        <path id="Path_95" data-name="Path 95" d="M111.356,248.056a2.458,2.458,0,1,0,2.457,2.457A2.458,2.458,0,0,0,111.356,248.056Zm0,3.891a1.434,1.434,0,1,1,1.434-1.434A1.435,1.435,0,0,1,111.356,251.947Z" transform="translate(-108.899 -248.056)" fill="#db143d"/>
      </g>
      <g id="Group_804" data-name="Group 804" transform="translate(5.074 8.178)">
        <path id="Path_96" data-name="Path 96" d="M114.522,254.09a.41.41,0,1,1,.41-.41A.41.41,0,0,1,114.522,254.09Z" transform="translate(-114.113 -253.27)" fill="#db143d"/>
      </g>
      <g id="Group_805" data-name="Group 805" transform="translate(22.408 7.656)">
        <path id="Path_97" data-name="Path 97" d="M159.981,252.152l-1.03-.21-.7.893h1.566S159.889,252.561,159.981,252.152Z" transform="translate(-158.249 -251.942)" fill="#db143d"/>
      </g>
    </g>
    <g id="Group_807" data-name="Group 807" transform="translate(7.853 2.342)">
      <path id="Path_98" data-name="Path 98" d="M122.364,239.53l-.124-.916c-.022-.165-.223-.252-.436-.174-.461.169-.636,1.131-.614,1.174.121.236.432.22.8.218C122.218,239.832,122.386,239.694,122.364,239.53Z" transform="translate(-121.188 -238.41)" fill="#db143d"/>
    </g>
  </g>
</svg>
