<svg xmlns="http://www.w3.org/2000/svg" width="30" height="30" viewBox="0 0 30 30">
  <g id="Group_2532" data-name="Group 2532" transform="translate(-291.949 -12.102)">
    <path id="Stroke_3" data-name="Stroke 3" d="M0,15C0,3.751,3.751,0,15,0S30,3.751,30,15,26.249,30,15,30,0,26.249,0,15Z" transform="translate(291.949 12.102)" fill="rgba(219,20,61,0.18)" opacity="0.49"/>
    <g id="Group_810" data-name="Group 810" transform="translate(300.837 19.888)">
      <g id="Iconly_Two-tone_Paper" data-name="Iconly/Two-tone/Paper">
        <g id="Paper">
          <path id="Stroke_1" data-name="Stroke 1" d="M8.245,0H3.014A3,3,0,0,0,0,2.932v8.422a3.009,3.009,0,0,0,3.014,3.075H9.295a3.056,3.056,0,0,0,2.932-3.075V4.148Z" fill="#db143d" stroke="#db143d" stroke-linecap="round" stroke-linejoin="round" stroke-miterlimit="10" stroke-width="1.5"/>
        </g>
      </g>
      <g id="Iconly_Curved_Profile" data-name="Iconly/Curved/Profile" transform="translate(3.004 3.301)">
        <g id="Profile">
          <path id="Stroke_1-2" data-name="Stroke 1" d="M3.108,2.966C1.432,2.966,0,2.733,0,1.8S1.422,0,3.108,0,6.216.855,6.216,1.79,4.793,2.966,3.108,2.966Z" transform="translate(0 4.861)" fill="#e4d1d5"/>
          <path id="Stroke_3-2" data-name="Stroke 3" d="M1.992,3.565A1.9,1.9,0,0,0,3.984,1.783,1.9,1.9,0,0,0,1.992,0,1.9,1.9,0,0,0,0,1.783,1.887,1.887,0,0,0,1.978,3.565Z" transform="translate(1.112)" fill="#e4d1d5"/>
        </g>
      </g>
    </g>
  </g>
</svg>
