<svg id="Group_2534" data-name="Group 2534" xmlns="http://www.w3.org/2000/svg" width="30" height="30" viewBox="0 0 30 30">
  <path id="Stroke_3" data-name="Stroke 3" d="M0,15C0,3.751,3.751,0,15,0S30,3.751,30,15,26.249,30,15,30,0,26.249,0,15Z" transform="translate(0 0)" fill="rgba(219,20,61,0.18)" opacity="0.49"/>
  <g id="Group_811" data-name="Group 811" transform="translate(6.535 6.771)">
    <path id="Path_47" data-name="Path 47" d="M81.592,8.746v.008a3.236,3.236,0,0,1,.462,1.669v.646a12.784,12.784,0,0,1,4.4-.736,13.053,13.053,0,0,1,4.461.734l.006-.645A3.527,3.527,0,0,1,91.4,8.6l.685-4.287a3.5,3.5,0,0,0-.863-2.962A4.341,4.341,0,0,0,87.989,0h-3a4.333,4.333,0,0,0-3.235,1.352,3.5,3.5,0,0,0-.862,2.962Z" transform="translate(-77.99 0)" fill="#db143d"/>
    <path id="Path_48" data-name="Path 48" d="M21.086,224a2.161,2.161,0,0,0-2.006,2.386v.71a.764.764,0,0,1-.342.646.681.681,0,0,1-.617.056,12.015,12.015,0,0,0-4.314-.737,11.831,11.831,0,0,0-4.25.737.68.68,0,0,1-.618-.056A.767.767,0,0,1,8.6,227.1v-.711A2.275,2.275,0,0,0,6.393,224c-.681,0-1.053.765-1.053,1.156a1.386,1.386,0,0,0,.783,1.187c.044.018.092.038.144.056.392.149,1.121.424,1.121,1.217v1.539c0,.574.13,1.837,1.218,2.075a.349.349,0,0,0-.009.042v.765a.393.393,0,0,0,.4.383h.4a.393.393,0,0,0,.4-.383v-.765H17.87v.765a.393.393,0,0,0,.4.383h.4a.393.393,0,0,0,.4-.383v-.765c0-.011-.006-.02-.006-.03.993-.18,1.216-1.208,1.216-2.086v-1.539c0-.794.726-1.07,1.116-1.218l.142-.055A1.224,1.224,0,0,0,21.086,224Z" transform="translate(-5.34 -215.963)" fill="#db143d"/>
  </g>
</svg>
