<svg xmlns="http://www.w3.org/2000/svg" width="30" height="30" viewBox="0 0 30 30">
  <g id="Group_2535" data-name="Group 2535" transform="translate(-291.949 -12.102)">
    <path id="Stroke_3" data-name="Stroke 3" d="M0,15C0,3.751,3.751,0,15,0S30,3.751,30,15,26.249,30,15,30,0,26.249,0,15Z" transform="translate(291.949 12.102)" fill="rgba(219,20,61,0.18)" opacity="0.49"/>
    <g id="wrench_1_" data-name="wrench (1)" transform="translate(300.035 20.324)">
      <g id="Group_744" data-name="Group 744" transform="translate(0 0)">
        <g id="Group_743" data-name="Group 743" transform="translate(0)">
          <path id="Path_49" data-name="Path 49" d="M13.8,2.088a.405.405,0,0,0-.688-.229l-.573.573a.83.83,0,0,1-1.146,0,.809.809,0,0,1,0-1.146l.573-.573a.405.405,0,0,0-.229-.688A2.431,2.431,0,0,0,9.05,3.061L3.06,9.051h0A2.432,2.432,0,0,0,.024,11.742a.405.405,0,0,0,.688.229l.573-.573a.83.83,0,0,1,1.146,0,.809.809,0,0,1,0,1.146l-.573.573a.405.405,0,0,0,.229.688,2.431,2.431,0,0,0,2.691-3.036l5.99-5.99h0A2.432,2.432,0,0,0,13.8,2.088Z" transform="translate(0 -0.002)" fill="#db143d"/>
        </g>
      </g>
      <g id="Group_746" data-name="Group 746" transform="translate(7.487 7.487)">
        <g id="Group_745" data-name="Group 745">
          <path id="Path_50" data-name="Path 50" d="M281.121,278.689a2.391,2.391,0,0,0-.621.09l-1.57-1.57-1.719,1.719,1.57,1.57a2.4,2.4,0,0,0-.09.621,2.431,2.431,0,1,0,2.431-2.431Zm1.329,2.35-.241.9a.406.406,0,0,1-.286.286l-.9.241a.4.4,0,0,1-.391-.1l-.658-.658a.4.4,0,0,1-.1-.391l.241-.9a.406.406,0,0,1,.286-.286l.9-.241a.4.4,0,0,1,.391.1l.658.658A.4.4,0,0,1,282.451,281.038Z" transform="translate(-277.211 -277.209)" fill="#db143d"/>
        </g>
      </g>
      <g id="Group_748" data-name="Group 748" transform="translate(0 0)">
        <g id="Group_747" data-name="Group 747" transform="translate(0)">
          <path id="Path_51" data-name="Path 51" d="M4.778,3.037A2.44,2.44,0,0,0,4.149.688a2.49,2.49,0,0,0-3.438,0A2.431,2.431,0,0,0,3.06,4.755L4.623,6.341,6.342,4.622ZM3.719,2.285l-.241.9a.406.406,0,0,1-.286.286l-.9.241a.4.4,0,0,1-.391-.1l-.658-.658a.4.4,0,0,1-.1-.391l.241-.9a.406.406,0,0,1,.286-.286l.9-.241a.4.4,0,0,1,.391.1l.658.658A.4.4,0,0,1,3.719,2.285Z" transform="translate(-0.001 0)" fill="#db143d"/>
        </g>
      </g>
    </g>
  </g>
</svg>
