<svg id="Group_2536" data-name="Group 2536" xmlns="http://www.w3.org/2000/svg" width="30" height="30" viewBox="0 0 30 30">
  <path id="Stroke_3" data-name="Stroke 3" d="M0,15C0,3.751,3.751,0,15,0S30,3.751,30,15,26.249,30,15,30,0,26.249,0,15Z" transform="translate(0 0)" fill="rgba(219,20,61,0.18)" opacity="0.49"/>
  <path id="XMLID_1435_" d="M18.655,76.8l-8.234-4.953V71.48a1.175,1.175,0,0,1,.6-1.02,2.583,2.583,0,0,0,1.3-2.367A2.54,2.54,0,0,0,9.94,65.618a2.412,2.412,0,0,0-1.817.718,2.6,2.6,0,0,0-.761,1.856.577.577,0,1,0,1.154,0,1.393,1.393,0,0,1,.407-.994,1.29,1.29,0,0,1,.973-.384,1.358,1.358,0,0,1,1.275,1.324,1.384,1.384,0,0,1-.7,1.268A2.378,2.378,0,0,0,9.268,71.48v.369L1.034,76.8A2.175,2.175,0,0,0,0,78.664a2.116,2.116,0,0,0,2.073,2.152H17.616a2.116,2.116,0,0,0,2.073-2.152A2.175,2.175,0,0,0,18.655,76.8Zm-1.039,2.817H2.073a.939.939,0,0,1-.919-.955.965.965,0,0,1,.458-.826l8.232-4.952,8.232,4.952a.965.965,0,0,1,.458.826A.939.939,0,0,1,17.616,79.618Z" transform="translate(5.158 -58.59)" fill="#db143d"/>
</svg>
