<svg id="Group_2538" data-name="Group 2538" xmlns="http://www.w3.org/2000/svg" width="30" height="30" viewBox="0 0 30 30">
  <path id="Stroke_3" data-name="Stroke 3" d="M0,15C0,3.751,3.751,0,15,0S30,3.751,30,15,26.249,30,15,30,0,26.249,0,15Z" transform="translate(0 0)" fill="rgba(219,20,61,0.18)" opacity="0.49"/>
  <g id="Group_812" data-name="Group 812" transform="translate(9.445 8.68)">
    <path id="Path_54" data-name="Path 54" d="M11.111,69.465a.507.507,0,0,0-.652-.485,17.037,17.037,0,0,1-9.807,0A.507.507,0,0,0,0,69.465v6.577a5.556,5.556,0,0,0,11.111,0ZM2.3,74.224a.507.507,0,0,1,.009-.512,1.456,1.456,0,0,1,1.252-.7h0a1.456,1.456,0,0,1,1.252.7.507.507,0,0,1-.433.771H2.746A.507.507,0,0,1,2.3,74.224Zm6,3.166a3.826,3.826,0,0,1-5.493,0,.507.507,0,0,1,.727-.706,2.813,2.813,0,0,0,4.038,0,.507.507,0,0,1,.727.706Zm.505-3.166a.507.507,0,0,1-.442.259H6.727a.507.507,0,0,1-.433-.771,1.456,1.456,0,0,1,1.252-.7h0a1.456,1.456,0,0,1,1.252.7A.507.507,0,0,1,8.807,74.224Z" transform="translate(0 -68.958)" fill="#db143d"/>
  </g>
</svg>
