<svg xmlns="http://www.w3.org/2000/svg" width="30" height="30" viewBox="0 0 30 30">
  <g id="Group_2539" data-name="Group 2539" transform="translate(-291.949 -12.102)">
    <path id="Stroke_3" data-name="Stroke 3" d="M0,15C0,3.751,3.751,0,15,0S30,3.751,30,15,26.249,30,15,30,0,26.249,0,15Z" transform="translate(291.949 12.102)" fill="rgba(219,20,61,0.18)" opacity="0.49"/>
    <g id="world" transform="translate(298.136 18.599)">
      <path id="Path_55" data-name="Path 55" d="M52.523,73.063a4.879,4.879,0,0,1-3.212-1.58c-.473-.422-.881-.785-1.21-.787h-.377l.022-.377a6.126,6.126,0,0,1,6.111-5.782q.191,0,.377.011h.128l.093.086a1.944,1.944,0,0,1,.061,3.056,12.765,12.765,0,0,1-1.326,1.24,5.652,5.652,0,0,0-1.413,1.481.582.582,0,0,0-.009.579,1.817,1.817,0,0,0,.872.636,4.033,4.033,0,0,1,.983.555h.049l.217.28-.115.444H53.56a2.742,2.742,0,0,1-.927.151Z" transform="translate(-45.58 -61.946)" fill="#db143d"/>
      <path id="Path_56" data-name="Path 56" d="M53.939,75.639a6.125,6.125,0,0,1-6.122-5.91l-.013-.383.383.011c.415.011.821.374,1.335.832A4.638,4.638,0,0,0,52.6,71.717H52.7a2.419,2.419,0,0,0,.915-.162c.068-.036.108-.074.117-.111s.014-.058-.059-.147a2.971,2.971,0,0,0-1.039-.631,2.072,2.072,0,0,1-.866-.622.823.823,0,0,1-.083-.85,5.473,5.473,0,0,1,1.463-1.551,12.722,12.722,0,0,0,1.3-1.215c.8-.91.9-1.618.359-2.337l-.564-.755.924.18a6.089,6.089,0,0,1,2.475,1.114l.2.151-.467,1.548.5.5L58.6,65.5l.331.466a6.083,6.083,0,0,1,.989,2.22l.059.271-.246.124c-.956.485-.989.76-1.05,1.258-.067.539-.156,1.3-1.76,2.635a4.618,4.618,0,0,0-1.114,1.228,2.025,2.025,0,0,0-.228,1.366l.056.343-.331.075A6.153,6.153,0,0,1,53.939,75.639Z" transform="translate(-45.656 -60.8)" fill="none"/>
      <path id="Path_57" data-name="Path 57" d="M249.929,17.071l.3-1-1.287-1.211-1.42,2.561-.768-.767.911-3-1.093-1.03a.735.735,0,0,1-.189-.827.921.921,0,0,1,.487-.487h.018a.735.735,0,0,1,.262-.049.747.747,0,0,1,.539.244l1.028,1.091,3-.908.767.767-2.561,1.415,1.211,1.285,1.007-.3.624.624-1.22.678-.217.108-.1.2-.692,1.237Z" transform="translate(-235.263 -11.061)" fill="#db143d"/>
      <path id="Path_58" data-name="Path 58" d="M215.522,179.2a2.224,2.224,0,0,1,.262-1.438,4.8,4.8,0,0,1,1.176-1.287c1.542-1.287,1.618-1.963,1.69-2.507.059-.491.165-.872,1-1.332l.466-.255.057.528a6.2,6.2,0,0,1,.045.751,6.086,6.086,0,0,1-1.8,4.332,6.152,6.152,0,0,1-2.428,1.492l-.408.133Z" transform="translate(-205.812 -164.941)" fill="#db143d"/>
      <g id="Group_767" data-name="Group 767" transform="translate(0 0)">
        <path id="Path_59" data-name="Path 59" d="M52.568,321.857a.27.27,0,0,0,0,.381,6.868,6.868,0,0,0,.561.509.27.27,0,1,0,.381-.381l-.022-.02-.018-.014c-.18-.149-.359-.309-.525-.474A.269.269,0,0,0,52.568,321.857Z" transform="translate(-50.13 -307.631)" fill="#db143d"/>
        <path id="Path_60" data-name="Path 60" d="M1.457,157.2h.034a.27.27,0,0,0,.268-.237c.029-.234.068-.469.119-.7a.27.27,0,1,0-.519-.113c-.054.246-.1.5-.126.746A.27.27,0,0,0,1.457,157.2Z" transform="translate(-1.175 -149.202)" fill="#db143d"/>
        <path id="Path_61" data-name="Path 61" d="M25.282,286.561a.269.269,0,0,0-.094.37h0c.129.216.27.428.419.631a.27.27,0,0,0,.435-.318c-.138-.191-.27-.388-.39-.59a.269.269,0,0,0-.37-.094Z" transform="translate(-24.02 -273.958)" fill="#db143d"/>
        <path id="Path_62" data-name="Path 62" d="M7.186,245.617a.27.27,0,0,0-.18.334c.072.241.155.482.248.719a.274.274,0,0,0,.509-.2h0c-.086-.217-.165-.442-.232-.669a.27.27,0,0,0-.334-.18Z" transform="translate(-6.681 -234.881)" fill="#db143d"/>
        <path id="Path_63" data-name="Path 63" d="M12.492,115.94a.27.27,0,0,0,.35-.15h0a6.462,6.462,0,0,1,.289-.645.27.27,0,0,0-.482-.243h0c-.113.225-.217.457-.309.692A.27.27,0,0,0,12.492,115.94Z" transform="translate(-11.769 -109.907)" fill="#db143d"/>
        <path id="Path_64" data-name="Path 64" d="M.318,202.778H.363a.27.27,0,0,0,.234-.3h0c-.029-.234-.049-.471-.058-.7a.27.27,0,0,0-.539.02,5.9,5.9,0,0,0,.061.755A.27.27,0,0,0,.318,202.778Z" transform="translate(0 -192.767)" fill="#db143d"/>
        <path id="Path_65" data-name="Path 65" d="M143.547,17.986h.052c.232-.045.467-.079.7-.1a.271.271,0,0,0-.018-.542l-.034,0c-.25.025-.5.061-.749.11a.271.271,0,0,0,.013.543l.037,0Z" transform="translate(-136.798 -16.872)" fill="#db143d"/>
        <path id="Path_66" data-name="Path 66" d="M33.772,78.49a.269.269,0,0,0,.219-.111c.138-.191.286-.377.44-.554a.271.271,0,0,0-.393-.375l-.013.015a6.438,6.438,0,0,0-.471.593.27.27,0,0,0,.217.428Z" transform="translate(-31.997 -74.2)" fill="#db143d"/>
        <path id="Path_67" data-name="Path 67" d="M189.751,17.264h.041a.27.27,0,1,0,.04-.539c-.248-.038-.5-.065-.753-.079a.27.27,0,1,0-.032.539C189.284,17.2,189.52,17.228,189.751,17.264Z" transform="translate(-180.309 -16.207)" fill="#db143d"/>
        <path id="Path_68" data-name="Path 68" d="M64.479,48.94c.18-.151.37-.295.564-.428a.27.27,0,0,0-.306-.444c-.207.142-.41.3-.6.457a.27.27,0,1,0,.345.415Z" transform="translate(-61.159 -46.178)" fill="#db143d"/>
        <path id="Path_69" data-name="Path 69" d="M102.079,28.063a.269.269,0,0,0,.115-.027c.212-.1.431-.192.652-.273a.27.27,0,0,0-.142-.519l-.038.013a6.711,6.711,0,0,0-.7.293.27.27,0,0,0,.115.514Z" transform="translate(-97.239 -26.323)" fill="#db143d"/>
        <path id="Path_70" data-name="Path 70" d="M173.519,373.021a.27.27,0,1,0-.014.539h.225c.18,0,.36,0,.528-.016a.27.27,0,1,0-.034-.539A6.684,6.684,0,0,1,173.519,373.021Z" transform="translate(-165.457 -356.553)" fill="#db143d"/>
        <path id="Path_71" data-name="Path 71" d="M346.587,240.367a.27.27,0,0,0,.345-.163h0c.084-.237.158-.48.221-.719a.27.27,0,0,0-.515-.162.311.311,0,0,0-.009.036c-.058.228-.128.455-.207.676A.27.27,0,0,0,346.587,240.367Z" transform="translate(-330.845 -228.698)" fill="#db143d"/>
        <path id="Path_72" data-name="Path 72" d="M351.235,151.431h.045a.27.27,0,0,0,.223-.309c-.041-.248-.093-.5-.156-.741a.27.27,0,0,0-.521.137c.059.227.108.46.147.692A.269.269,0,0,0,351.235,151.431Z" transform="translate(-335.055 -143.751)" fill="#db143d"/>
        <path id="Path_73" data-name="Path 73" d="M57.241,7.364l-2.863.866-.963-1.023a.872.872,0,0,0-.992-.235h-.016a1.061,1.061,0,0,0-.577.577.975.975,0,0,0-.058.212l-.11-.038a.27.27,0,0,0-.165.514h0c.138.045.277.1.415.147a1.03,1.03,0,0,0,.146.18l1.019.963-.291.962h0a6.334,6.334,0,1,0,1.339,1.291l.46-.83,1.068,1.007-.257.85a.261.261,0,0,0,.059.266s.527.521.539.539a.261.261,0,0,0,.357-.091l0,0h0l.7-1.289,1.269-.692a.263.263,0,0,0,.077-.422l-.473-.5a.261.261,0,0,0-.261-.065l-.859.261L55.8,9.74l2.259-1.258a.263.263,0,0,0,.077-.422L57.5,7.425A.263.263,0,0,0,57.241,7.364ZM45.033,11.537a5.772,5.772,0,0,1,4.089-1.69q.18,0,.359.011a1.612,1.612,0,0,1,.036,2.57,12.608,12.608,0,0,1-1.294,1.193,5.679,5.679,0,0,0-1.515,1.618c-.277.625-.074,1.192,1.044,1.686a2.939,2.939,0,0,1,.981.586c.016.02.032,0,.029,0a.108.108,0,0,0-.036.009,2.234,2.234,0,0,1-.848.146,4.376,4.376,0,0,1-3.07-1.479c-.539-.48-.987-.879-1.452-.883A5.772,5.772,0,0,1,45.033,11.537Zm9.886,4.094a5.8,5.8,0,0,1-4,5.505,1.886,1.886,0,0,1,.221-1.224,4.455,4.455,0,0,1,1.078-1.186c1.659-1.384,1.752-2.157,1.824-2.752.045-.376.079-.656.821-1.064a5.86,5.86,0,0,1,.045.719Zm-.336-1.945a5.743,5.743,0,0,1,.2.692c-1.131.575-1.181.985-1.249,1.544-.061.5-.14,1.161-1.639,2.412a4.915,4.915,0,0,0-1.2,1.335,2.384,2.384,0,0,0-.27,1.605,5.791,5.791,0,0,1-7.078-5.441c.286,0,.656.34,1.111.744A4.85,4.85,0,0,0,47.9,18.2a2.7,2.7,0,0,0,1.078-.2.539.539,0,0,0,.3-.338.514.514,0,0,0-.129-.469,3.357,3.357,0,0,0-1.175-.735c-.76-.336-.926-.663-.776-1a5.59,5.59,0,0,1,1.373-1.438,13.084,13.084,0,0,0,1.35-1.258c.751-.856,1.138-1.8.374-2.809a5.753,5.753,0,0,1,2.337,1.062l-.413,1.364a.262.262,0,0,0,.063.266s.67.665.692.678a.261.261,0,0,0,.357-.091l0,0h0l.523-.945A5.782,5.782,0,0,1,54.582,13.687Zm.669-4.242a.261.261,0,0,0-.108.352l0,.007h0c.011.02,1.386,1.483,1.386,1.483a.261.261,0,0,0,.266.07h0l.868-.262.135.135-.809.448-.232.115a.258.258,0,0,0-.119.12h0l-.115.234-.448.809-.131-.144.261-.861a.261.261,0,0,0-.084-.277L54.706,10.34a.261.261,0,0,0-.368,0h0c-.018.02-1.294,2.319-1.294,2.319l-.279-.279.87-2.867a.261.261,0,0,0-.084-.279L52.415,8.183a.374.374,0,0,1-.1-.431.564.564,0,0,1,.293-.291h.009a.374.374,0,0,1,.421.108l1.078,1.14a.26.26,0,0,0,.266.072h0l2.876-.868.279.279Z" transform="translate(-40.85 -6.906)" fill="#db143d"/>
        <path id="Path_74" data-name="Path 74" d="M326.967,281a.27.27,0,0,0-.359.106c-.113.207-.237.41-.37.6a.27.27,0,0,0,.442.311c.14-.208.273-.426.4-.645a.27.27,0,0,0-.1-.368Z" transform="translate(-311.531 -268.656)" fill="#db143d"/>
        <path id="Path_75" data-name="Path 75" d="M356.485,195.234c.023-.25.034-.5.034-.755v-.038a.269.269,0,0,0-.27-.268h0a.269.269,0,0,0-.277.262.05.05,0,0,1,0,.006v.041c0,.235-.011.473-.032.708a.27.27,0,0,0,.244.293h.025A.269.269,0,0,0,356.485,195.234Z" transform="translate(-339.945 -185.759)" fill="#db143d"/>
        <path id="Path_76" data-name="Path 76" d="M129.079,366.527a.27.27,0,0,0-.18.509h.032c.241.068.489.128.737.18h.05a.271.271,0,1,0,.087-.536l-.037,0A5.554,5.554,0,0,1,129.079,366.527Z" transform="translate(-122.936 -350.353)" fill="#db143d"/>
        <path id="Path_77" data-name="Path 77" d="M218.688,364.642a5.371,5.371,0,0,1-.681.18.27.27,0,1,0,.119.527c.244-.056.491-.124.73-.2a.27.27,0,0,0-.167-.512v.007Z" transform="translate(-208.01 -348.551)" fill="#db143d"/>
        <path id="Path_78" data-name="Path 78" d="M88.03,348.836a.27.27,0,1,0-.3.447l.028.017c.217.128.442.246.67.359a.27.27,0,0,0,.23-.489C88.444,349.066,88.234,348.951,88.03,348.836Z" transform="translate(-83.673 -333.428)" fill="#db143d"/>
        <path id="Path_79" data-name="Path 79" d="M297.275,317.214a6.533,6.533,0,0,1-.507.494.27.27,0,1,0,.359.4c.18-.167.37-.345.539-.528a.27.27,0,0,0-.394-.368Z" transform="translate(-283.347 -303.191)" fill="#db143d"/>
        <path id="Path_80" data-name="Path 80" d="M260.541,345.9c-.2.126-.4.244-.613.359a.27.27,0,0,0,.246.48c.223-.115.444-.243.656-.377a.27.27,0,0,0-.277-.462Z" transform="translate(-248.108 -330.642)" fill="#db143d"/>
      </g>
    </g>
  </g>
</svg>
